<svg width="360" height="328" viewBox="0 0 360 328" fill="none" xmlns="http://www.w3.org/2000/svg">
<rect width="360" height="328" fill="white"/>
<rect x="105.402" y="88.7931" width="175.631" height="151.723" fill="#D9D9D9"/>
<path d="M105.861 240.516C85.7417 240.516 66.4461 232.523 52.2193 218.297C37.9925 204.07 30 184.774 30 164.655C30 144.535 37.9925 125.239 52.2193 111.012C66.4461 96.7856 85.7417 88.7931 105.861 88.7931V164.655V240.516Z" fill="#D9D9D9"/>
<path d="M106.321 222.125C91.6889 222.125 77.6557 216.312 67.3089 205.966C56.9622 195.619 51.1494 181.586 51.1494 166.953C51.1494 152.321 56.9622 138.288 67.3089 127.941C77.6557 117.594 91.6889 111.322 106.321 111.322" stroke="#1E252C" stroke-width="0.459766" stroke-dasharray="1.84 1.84"/>
<path d="M280.573 88.7927C300.692 88.7927 319.988 96.7853 334.215 111.012C348.442 125.239 356.434 144.534 356.434 164.654C356.434 184.774 348.442 204.07 334.215 218.296C319.988 232.523 300.692 240.516 280.573 240.516L280.573 164.654L280.573 88.7927Z" fill="#D9D9D9"/>
<path d="M281.032 111.321C295.665 111.321 309.698 117.134 320.045 127.481C330.391 137.828 336.204 151.861 336.204 166.493C336.204 181.126 330.391 195.159 320.045 205.506C309.698 215.852 295.665 222.125 281.032 222.125" stroke="#1E252C" stroke-width="0.459766" stroke-dasharray="1.84 1.84"/>
<circle cx="122.872" cy="111.781" r="3.67813" fill="white"/>
<circle cx="51.1493" cy="166.953" r="3.67813" fill="#1E252C"/>
<circle cx="336.204" cy="166.953" r="3.67813" fill="#1E252C"/>
<circle cx="320.573" cy="128.333" r="3.67813" fill="#1E252C"/>
<circle cx="66.7816" cy="204.654" r="3.67813" fill="white"/>
<circle cx="66.7816" cy="128.333" r="3.67813" fill="#1E252C"/>
<circle cx="263.561" cy="111.781" r="3.67813" fill="white"/>
<circle cx="192.757" cy="111.781" r="3.67813" fill="white"/>
<circle cx="156.895" cy="111.781" r="3.67813" fill="white"/>
<circle cx="192.757" cy="128.333" r="3.67813" fill="white"/>
<circle cx="122.872" cy="128.333" r="3.67813" fill="white"/>
<circle cx="263.561" cy="128.333" r="3.67813" fill="white"/>
<circle cx="228.619" cy="111.781" r="3.67813" fill="white"/>
<line x1="105" y1="112.023" x2="280.631" y2="112.023" stroke="#1E252C" stroke-width="0.46" stroke-dasharray="1.84 1.84"/>
<line x1="105.632" y1="75" x2="105.632" y2="253.389" stroke="#1E252C" stroke-width="0.459766" stroke-dasharray="1.84 1.84"/>
<line x1="282.182" y1="75" x2="282.182" y2="253.389" stroke="#1E252C" stroke-width="0.459766" stroke-dasharray="1.84 1.84"/>
<circle cx="3.67813" cy="3.67813" r="3.67813" transform="matrix(1 0 0 -1 119 225.402)" fill="white"/>
<circle cx="3.67813" cy="3.67813" r="3.67813" transform="matrix(1 0 0 -1 316.895 208.851)" fill="#1E252C"/>
<circle cx="3.67813" cy="3.67813" r="3.67813" transform="matrix(1 0 0 -1 63.1035 208.851)" fill="#1E252C"/>
<circle cx="3.67813" cy="3.67813" r="3.67813" transform="matrix(1 0 0 -1 259.688 225.402)" fill="white"/>
<circle cx="3.67813" cy="3.67813" r="3.67813" transform="matrix(1 0 0 -1 188.885 225.402)" fill="white"/>
<circle cx="3.67813" cy="3.67813" r="3.67813" transform="matrix(1 0 0 -1 153.023 225.402)" fill="white"/>
<circle cx="3.67813" cy="3.67813" r="3.67813" transform="matrix(1 0 0 -1 189.079 208.851)" fill="white"/>
<circle cx="3.67813" cy="3.67813" r="3.67813" transform="matrix(1 0 0 -1 119.194 208.851)" fill="white"/>
<circle cx="3.67813" cy="3.67813" r="3.67813" transform="matrix(1 0 0 -1 259.883 208.851)" fill="white"/>
<circle cx="3.67813" cy="3.67813" r="3.67813" transform="matrix(1 0 0 -1 224.747 225.402)" fill="white"/>
<line y1="-0.23" x2="175.631" y2="-0.23" transform="matrix(1 0 0 -1 105 222.253)" stroke="#1E252C" stroke-width="0.46" stroke-dasharray="1.84 1.84"/>
<line x1="51.3043" y1="162.692" x2="51.3043" y2="86" stroke="#1E252C" stroke-width="0.7"/>
<line x1="29.65" y1="162.692" x2="29.65" y2="86" stroke="#1E252C" stroke-width="0.7"/>
<line x1="30" y1="96.477" x2="50.752" y2="96.477" stroke="#1E252C" stroke-width="0.7"/>
<path d="M5.20202 79.5V71.64H2.53802V70.704H8.98202V71.64H6.31802V79.5H5.20202ZM12.0598 79.656C11.5318 79.656 11.0358 79.524 10.5718 79.26C10.1078 78.988 9.73583 78.6 9.45583 78.096C9.18383 77.584 9.04783 76.968 9.04783 76.248C9.04783 75.52 9.18383 74.904 9.45583 74.4C9.73583 73.888 10.1078 73.496 10.5718 73.224C11.0358 72.952 11.5318 72.816 12.0598 72.816C12.4598 72.816 12.8398 72.892 13.1998 73.044C13.5678 73.196 13.8918 73.42 14.1718 73.716C14.4518 74.012 14.6718 74.372 14.8318 74.796C14.9918 75.22 15.0718 75.704 15.0718 76.248C15.0718 76.968 14.9318 77.584 14.6518 78.096C14.3718 78.6 14.0038 78.988 13.5478 79.26C13.0918 79.524 12.5958 79.656 12.0598 79.656ZM12.0598 78.744C12.4358 78.744 12.7638 78.64 13.0438 78.432C13.3318 78.224 13.5558 77.932 13.7158 77.556C13.8758 77.18 13.9558 76.744 13.9558 76.248C13.9558 75.744 13.8758 75.304 13.7158 74.928C13.5558 74.552 13.3318 74.26 13.0438 74.052C12.7638 73.844 12.4358 73.74 12.0598 73.74C11.6838 73.74 11.3518 73.844 11.0638 74.052C10.7838 74.26 10.5638 74.552 10.4038 74.928C10.2518 75.304 10.1758 75.744 10.1758 76.248C10.1758 76.744 10.2518 77.18 10.4038 77.556C10.5638 77.932 10.7838 78.224 11.0638 78.432C11.3518 78.64 11.6838 78.744 12.0598 78.744ZM16.8052 82.248V72.984H17.7052L17.8132 73.74H17.8372C18.1332 73.492 18.4572 73.276 18.8092 73.092C19.1692 72.908 19.5372 72.816 19.9132 72.816C20.4732 72.816 20.9452 72.956 21.3292 73.236C21.7212 73.508 22.0132 73.892 22.2052 74.388C22.4052 74.884 22.5052 75.468 22.5052 76.14C22.5052 76.884 22.3692 77.52 22.0972 78.048C21.8332 78.568 21.4852 78.968 21.0532 79.248C20.6292 79.52 20.1692 79.656 19.6732 79.656C19.3772 79.656 19.0772 79.592 18.7732 79.464C18.4692 79.328 18.1692 79.14 17.8732 78.9L17.9092 80.04V82.248H16.8052ZM19.4932 78.732C19.8532 78.732 20.1732 78.632 20.4532 78.432C20.7412 78.224 20.9652 77.928 21.1252 77.544C21.2852 77.152 21.3652 76.688 21.3652 76.152C21.3652 75.672 21.3052 75.252 21.1852 74.892C21.0732 74.524 20.8932 74.24 20.6452 74.04C20.3972 73.84 20.0612 73.74 19.6372 73.74C19.3652 73.74 19.0852 73.816 18.7972 73.968C18.5172 74.12 18.2212 74.34 17.9092 74.628V78.06C18.1972 78.308 18.4812 78.484 18.7612 78.588C19.0412 78.684 19.2852 78.732 19.4932 78.732ZM26.9302 82.248V72.984H27.8302L27.9382 73.74H27.9622C28.2582 73.492 28.5822 73.276 28.9342 73.092C29.2942 72.908 29.6622 72.816 30.0382 72.816C30.5982 72.816 31.0702 72.956 31.4542 73.236C31.8462 73.508 32.1382 73.892 32.3302 74.388C32.5302 74.884 32.6302 75.468 32.6302 76.14C32.6302 76.884 32.4942 77.52 32.2222 78.048C31.9582 78.568 31.6102 78.968 31.1782 79.248C30.7542 79.52 30.2942 79.656 29.7982 79.656C29.5022 79.656 29.2022 79.592 28.8982 79.464C28.5942 79.328 28.2942 79.14 27.9982 78.9L28.0342 80.04V82.248H26.9302ZM29.6182 78.732C29.9782 78.732 30.2982 78.632 30.5782 78.432C30.8662 78.224 31.0902 77.928 31.2502 77.544C31.4102 77.152 31.4902 76.688 31.4902 76.152C31.4902 75.672 31.4302 75.252 31.3102 74.892C31.1982 74.524 31.0182 74.24 30.7702 74.04C30.5222 73.84 30.1862 73.74 29.7622 73.74C29.4902 73.74 29.2102 73.816 28.9222 73.968C28.6422 74.12 28.3462 74.34 28.0342 74.628V78.06C28.3222 78.308 28.6062 78.484 28.8862 78.588C29.1662 78.684 29.4102 78.732 29.6182 78.732ZM36.9036 79.656C36.3756 79.656 35.8796 79.524 35.4156 79.26C34.9516 78.988 34.5796 78.6 34.2996 78.096C34.0276 77.584 33.8916 76.968 33.8916 76.248C33.8916 75.52 34.0276 74.904 34.2996 74.4C34.5796 73.888 34.9516 73.496 35.4156 73.224C35.8796 72.952 36.3756 72.816 36.9036 72.816C37.3036 72.816 37.6836 72.892 38.0436 73.044C38.4116 73.196 38.7356 73.42 39.0156 73.716C39.2956 74.012 39.5156 74.372 39.6756 74.796C39.8356 75.22 39.9156 75.704 39.9156 76.248C39.9156 76.968 39.7756 77.584 39.4956 78.096C39.2156 78.6 38.8476 78.988 38.3916 79.26C37.9356 79.524 37.4396 79.656 36.9036 79.656ZM36.9036 78.744C37.2796 78.744 37.6076 78.64 37.8876 78.432C38.1756 78.224 38.3996 77.932 38.5596 77.556C38.7196 77.18 38.7996 76.744 38.7996 76.248C38.7996 75.744 38.7196 75.304 38.5596 74.928C38.3996 74.552 38.1756 74.26 37.8876 74.052C37.6076 73.844 37.2796 73.74 36.9036 73.74C36.5276 73.74 36.1956 73.844 35.9076 74.052C35.6276 74.26 35.4076 74.552 35.2476 74.928C35.0956 75.304 35.0196 75.744 35.0196 76.248C35.0196 76.744 35.0956 77.18 35.2476 77.556C35.4076 77.932 35.6276 78.224 35.9076 78.432C36.1956 78.64 36.5276 78.744 36.9036 78.744ZM43.2943 79.656C42.8383 79.656 42.3943 79.572 41.9623 79.404C41.5383 79.228 41.1743 79.012 40.8703 78.756L41.3983 78.024C41.6863 78.256 41.9823 78.444 42.2863 78.588C42.5903 78.732 42.9383 78.804 43.3303 78.804C43.7623 78.804 44.0823 78.708 44.2903 78.516C44.5063 78.316 44.6143 78.072 44.6143 77.784C44.6143 77.56 44.5383 77.376 44.3863 77.232C44.2423 77.08 44.0543 76.952 43.8223 76.848C43.5983 76.736 43.3663 76.636 43.1263 76.548C42.8223 76.428 42.5223 76.296 42.2263 76.152C41.9383 76 41.6983 75.808 41.5063 75.576C41.3223 75.336 41.2303 75.032 41.2303 74.664C41.2303 74.312 41.3183 74 41.4943 73.728C41.6703 73.448 41.9263 73.228 42.2623 73.068C42.5983 72.9 43.0023 72.816 43.4743 72.816C43.8743 72.816 44.2463 72.888 44.5903 73.032C44.9423 73.176 45.2423 73.352 45.4903 73.56L44.9623 74.244C44.7383 74.084 44.5063 73.948 44.2663 73.836C44.0343 73.724 43.7743 73.668 43.4863 73.668C43.0703 73.668 42.7623 73.764 42.5623 73.956C42.3703 74.14 42.2743 74.36 42.2743 74.616C42.2743 74.816 42.3383 74.984 42.4663 75.12C42.6023 75.256 42.7783 75.372 42.9943 75.468C43.2103 75.556 43.4383 75.648 43.6783 75.744C43.9183 75.832 44.1543 75.928 44.3863 76.032C44.6263 76.136 44.8383 76.26 45.0223 76.404C45.2143 76.548 45.3663 76.728 45.4783 76.944C45.5983 77.152 45.6583 77.412 45.6583 77.724C45.6583 78.076 45.5663 78.4 45.3823 78.696C45.2063 78.992 44.9423 79.228 44.5903 79.404C44.2463 79.572 43.8143 79.656 43.2943 79.656ZM47.2036 79.5V72.984H48.3076V79.5H47.2036ZM47.7556 71.64C47.5396 71.64 47.3636 71.576 47.2276 71.448C47.0996 71.312 47.0356 71.132 47.0356 70.908C47.0356 70.692 47.0996 70.52 47.2276 70.392C47.3636 70.264 47.5396 70.2 47.7556 70.2C47.9716 70.2 48.1476 70.264 48.2836 70.392C48.4196 70.52 48.4876 70.692 48.4876 70.908C48.4876 71.132 48.4196 71.312 48.2836 71.448C48.1476 71.576 47.9716 71.64 47.7556 71.64ZM52.5483 79.656C52.0923 79.656 51.7283 79.568 51.4563 79.392C51.1843 79.208 50.9883 78.952 50.8683 78.624C50.7563 78.296 50.7003 77.916 50.7003 77.484V73.872H49.7283V73.044L50.7603 72.984L50.8803 71.148H51.7923V72.984H53.5683V73.872H51.7923V77.52C51.7923 77.912 51.8643 78.22 52.0083 78.444C52.1603 78.66 52.4243 78.768 52.8003 78.768C52.9203 78.768 53.0483 78.752 53.1843 78.72C53.3203 78.68 53.4403 78.636 53.5443 78.588L53.7603 79.416C53.5763 79.48 53.3803 79.536 53.1723 79.584C52.9643 79.632 52.7563 79.656 52.5483 79.656ZM55.0317 79.5V72.984H56.1357V79.5H55.0317ZM55.5837 71.64C55.3677 71.64 55.1917 71.576 55.0557 71.448C54.9277 71.312 54.8637 71.132 54.8637 70.908C54.8637 70.692 54.9277 70.52 55.0557 70.392C55.1917 70.264 55.3677 70.2 55.5837 70.2C55.7997 70.2 55.9757 70.264 56.1117 70.392C56.2477 70.52 56.3157 70.692 56.3157 70.908C56.3157 71.132 56.2477 71.312 56.1117 71.448C55.9757 71.576 55.7997 71.64 55.5837 71.64ZM60.8684 79.656C60.3404 79.656 59.8444 79.524 59.3804 79.26C58.9164 78.988 58.5444 78.6 58.2644 78.096C57.9924 77.584 57.8564 76.968 57.8564 76.248C57.8564 75.52 57.9924 74.904 58.2644 74.4C58.5444 73.888 58.9164 73.496 59.3804 73.224C59.8444 72.952 60.3404 72.816 60.8684 72.816C61.2684 72.816 61.6484 72.892 62.0084 73.044C62.3764 73.196 62.7004 73.42 62.9804 73.716C63.2604 74.012 63.4804 74.372 63.6404 74.796C63.8004 75.22 63.8804 75.704 63.8804 76.248C63.8804 76.968 63.7404 77.584 63.4604 78.096C63.1804 78.6 62.8124 78.988 62.3564 79.26C61.9004 79.524 61.4044 79.656 60.8684 79.656ZM60.8684 78.744C61.2444 78.744 61.5724 78.64 61.8524 78.432C62.1404 78.224 62.3644 77.932 62.5244 77.556C62.6844 77.18 62.7644 76.744 62.7644 76.248C62.7644 75.744 62.6844 75.304 62.5244 74.928C62.3644 74.552 62.1404 74.26 61.8524 74.052C61.5724 73.844 61.2444 73.74 60.8684 73.74C60.4924 73.74 60.1604 73.844 59.8724 74.052C59.5924 74.26 59.3724 74.552 59.2124 74.928C59.0604 75.304 58.9844 75.744 58.9844 76.248C58.9844 76.744 59.0604 77.18 59.2124 77.556C59.3724 77.932 59.5924 78.224 59.8724 78.432C60.1604 78.64 60.4924 78.744 60.8684 78.744ZM65.6138 79.5V72.984H66.5138L66.6218 73.932H66.6458C66.9578 73.62 67.2858 73.356 67.6298 73.14C67.9818 72.924 68.3818 72.816 68.8298 72.816C69.5178 72.816 70.0218 73.036 70.3418 73.476C70.6618 73.908 70.8218 74.54 70.8218 75.372V79.5H69.7298V75.516C69.7298 74.9 69.6298 74.456 69.4298 74.184C69.2378 73.912 68.9258 73.776 68.4938 73.776C68.1578 73.776 67.8578 73.86 67.5938 74.028C67.3298 74.196 67.0378 74.444 66.7178 74.772V79.5H65.6138Z" fill="#1E252C"/>
<rect x="44.5" y="119.5" width="39" height="98" stroke="#CE2C3F" stroke-dasharray="2.09 2.09"/>
<path d="M23.4171 218V209.204H24.5451L27.7611 214.748L28.7091 216.56H28.7691C28.7291 216.12 28.6931 215.66 28.6611 215.18C28.6291 214.7 28.6131 214.232 28.6131 213.776V209.204H29.6691V218H28.5291L25.3251 212.444L24.3771 210.644H24.3291C24.3531 211.084 24.3811 211.536 24.4131 212C24.4451 212.456 24.4611 212.916 24.4611 213.38V218H23.4171ZM33.889 218.156C33.201 218.156 32.693 217.94 32.365 217.508C32.045 217.076 31.885 216.444 31.885 215.612V211.484H32.989V215.48C32.989 216.08 33.085 216.52 33.277 216.8C33.469 217.072 33.781 217.208 34.213 217.208C34.549 217.208 34.849 217.12 35.113 216.944C35.377 216.768 35.665 216.488 35.977 216.104V211.484H37.069V218H36.157L36.073 216.98H36.037C35.733 217.332 35.409 217.616 35.065 217.832C34.729 218.048 34.337 218.156 33.889 218.156ZM39.27 218V211.484H40.17L40.278 212.432H40.302C40.59 212.12 40.902 211.856 41.238 211.64C41.582 211.424 41.946 211.316 42.33 211.316C42.834 211.316 43.226 211.428 43.506 211.652C43.786 211.876 43.994 212.18 44.13 212.564C44.474 212.196 44.818 211.896 45.162 211.664C45.514 211.432 45.89 211.316 46.29 211.316C46.954 211.316 47.446 211.536 47.766 211.976C48.094 212.408 48.258 213.04 48.258 213.872V218H47.166V214.016C47.166 213.4 47.066 212.956 46.866 212.684C46.674 212.412 46.37 212.276 45.954 212.276C45.706 212.276 45.446 212.36 45.174 212.528C44.91 212.688 44.622 212.936 44.31 213.272V218H43.218V214.016C43.218 213.4 43.118 212.956 42.918 212.684C42.726 212.412 42.422 212.276 42.006 212.276C41.758 212.276 41.498 212.36 41.226 212.528C40.954 212.688 40.67 212.936 40.374 213.272V218H39.27ZM53.2474 218.156C52.9514 218.156 52.6394 218.084 52.3114 217.94C51.9834 217.796 51.6794 217.592 51.3994 217.328H51.3514L51.2554 218H50.3794V208.448H51.4834V211.064L51.4354 212.228C51.7314 211.972 52.0554 211.756 52.4074 211.58C52.7594 211.404 53.1194 211.316 53.4874 211.316C54.0474 211.316 54.5194 211.456 54.9034 211.736C55.2874 212.008 55.5794 212.392 55.7794 212.888C55.9794 213.384 56.0794 213.968 56.0794 214.64C56.0794 215.376 55.9434 216.008 55.6714 216.536C55.4074 217.064 55.0594 217.468 54.6274 217.748C54.2034 218.02 53.7434 218.156 53.2474 218.156ZM53.0674 217.232C53.4274 217.232 53.7474 217.132 54.0274 216.932C54.3154 216.724 54.5394 216.428 54.6994 216.044C54.8594 215.652 54.9394 215.188 54.9394 214.652C54.9394 214.172 54.8794 213.752 54.7594 213.392C54.6474 213.024 54.4674 212.74 54.2194 212.54C53.9714 212.34 53.6354 212.24 53.2114 212.24C52.9394 212.24 52.6594 212.316 52.3714 212.468C52.0834 212.62 51.7874 212.84 51.4834 213.128V216.56C51.7634 216.808 52.0434 216.984 52.3234 217.088C52.6114 217.184 52.8594 217.232 53.0674 217.232ZM60.4374 218.156C59.8534 218.156 59.3254 218.02 58.8534 217.748C58.3814 217.476 58.0054 217.088 57.7254 216.584C57.4534 216.072 57.3174 215.46 57.3174 214.748C57.3174 214.212 57.3974 213.736 57.5574 213.32C57.7174 212.896 57.9334 212.536 58.2054 212.24C58.4854 211.936 58.8014 211.708 59.1534 211.556C59.5054 211.396 59.8654 211.316 60.2334 211.316C60.7934 211.316 61.2654 211.44 61.6494 211.688C62.0334 211.936 62.3254 212.292 62.5254 212.756C62.7334 213.212 62.8374 213.752 62.8374 214.376C62.8374 214.496 62.8334 214.608 62.8254 214.712C62.8174 214.816 62.8054 214.912 62.7894 215H58.3974C58.4214 215.464 58.5254 215.868 58.7094 216.212C58.9014 216.548 59.1534 216.812 59.4654 217.004C59.7774 217.188 60.1414 217.28 60.5574 217.28C60.8774 217.28 61.1654 217.236 61.4214 217.148C61.6854 217.052 61.9414 216.924 62.1894 216.764L62.5734 217.496C62.2934 217.68 61.9774 217.836 61.6254 217.964C61.2734 218.092 60.8774 218.156 60.4374 218.156ZM58.3854 214.22H61.8774C61.8774 213.564 61.7334 213.064 61.4454 212.72C61.1654 212.368 60.7694 212.192 60.2574 212.192C59.9534 212.192 59.6654 212.272 59.3934 212.432C59.1294 212.592 58.9054 212.82 58.7214 213.116C58.5454 213.412 58.4334 213.78 58.3854 214.22ZM64.4419 218V211.484H65.3419L65.4499 212.672H65.4739C65.6979 212.256 65.9699 211.928 66.2899 211.688C66.6179 211.44 66.9619 211.316 67.3219 211.316C67.4739 211.316 67.6019 211.328 67.7059 211.352C67.8179 211.368 67.9219 211.404 68.0179 211.46L67.8139 212.408C67.7019 212.376 67.6019 212.352 67.5139 212.336C67.4259 212.312 67.3139 212.3 67.1779 212.3C66.9139 212.3 66.6299 212.416 66.3259 212.648C66.0219 212.872 65.7619 213.26 65.5459 213.812V218H64.4419ZM74.3098 218.156C73.7818 218.156 73.2858 218.024 72.8218 217.76C72.3578 217.488 71.9858 217.1 71.7058 216.596C71.4338 216.084 71.2978 215.468 71.2978 214.748C71.2978 214.02 71.4338 213.404 71.7058 212.9C71.9858 212.388 72.3578 211.996 72.8218 211.724C73.2858 211.452 73.7818 211.316 74.3098 211.316C74.7098 211.316 75.0898 211.392 75.4498 211.544C75.8178 211.696 76.1418 211.92 76.4218 212.216C76.7018 212.512 76.9218 212.872 77.0818 213.296C77.2418 213.72 77.3218 214.204 77.3218 214.748C77.3218 215.468 77.1818 216.084 76.9018 216.596C76.6218 217.1 76.2538 217.488 75.7978 217.76C75.3418 218.024 74.8458 218.156 74.3098 218.156ZM74.3098 217.244C74.6858 217.244 75.0138 217.14 75.2938 216.932C75.5818 216.724 75.8058 216.432 75.9658 216.056C76.1258 215.68 76.2058 215.244 76.2058 214.748C76.2058 214.244 76.1258 213.804 75.9658 213.428C75.8058 213.052 75.5818 212.76 75.2938 212.552C75.0138 212.344 74.6858 212.24 74.3098 212.24C73.9338 212.24 73.6018 212.344 73.3138 212.552C73.0338 212.76 72.8138 213.052 72.6538 213.428C72.5018 213.804 72.4258 214.244 72.4258 214.748C72.4258 215.244 72.5018 215.68 72.6538 216.056C72.8138 216.432 73.0338 216.724 73.3138 216.932C73.6018 217.14 73.9338 217.244 74.3098 217.244ZM79.1766 218V210.44C79.1766 210 79.2446 209.62 79.3806 209.3C79.5166 208.98 79.7246 208.732 80.0046 208.556C80.2846 208.38 80.6406 208.292 81.0726 208.292C81.2726 208.292 81.4646 208.312 81.6486 208.352C81.8406 208.392 82.0126 208.44 82.1646 208.496L81.9246 209.348C81.6846 209.228 81.4406 209.168 81.1926 209.168C80.8806 209.168 80.6486 209.276 80.4966 209.492C80.3446 209.708 80.2686 210.028 80.2686 210.452V218H79.1766ZM78.2886 212.372V211.544L79.2246 211.484H81.6486V212.372H78.2886ZM35.4673 232V225.484H36.3673L36.4753 226.672H36.4993C36.7233 226.256 36.9953 225.928 37.3153 225.688C37.6433 225.44 37.9873 225.316 38.3473 225.316C38.4993 225.316 38.6273 225.328 38.7313 225.352C38.8433 225.368 38.9473 225.404 39.0433 225.46L38.8393 226.408C38.7273 226.376 38.6273 226.352 38.5393 226.336C38.4513 226.312 38.3393 226.3 38.2033 226.3C37.9393 226.3 37.6553 226.416 37.3513 226.648C37.0473 226.872 36.7873 227.26 36.5713 227.812V232H35.4673ZM42.5956 232.156C42.0116 232.156 41.4836 232.02 41.0116 231.748C40.5396 231.476 40.1636 231.088 39.8836 230.584C39.6116 230.072 39.4756 229.46 39.4756 228.748C39.4756 228.212 39.5556 227.736 39.7156 227.32C39.8756 226.896 40.0916 226.536 40.3636 226.24C40.6436 225.936 40.9596 225.708 41.3116 225.556C41.6636 225.396 42.0236 225.316 42.3916 225.316C42.9516 225.316 43.4236 225.44 43.8076 225.688C44.1916 225.936 44.4836 226.292 44.6836 226.756C44.8916 227.212 44.9956 227.752 44.9956 228.376C44.9956 228.496 44.9916 228.608 44.9836 228.712C44.9756 228.816 44.9636 228.912 44.9476 229H40.5556C40.5796 229.464 40.6836 229.868 40.8676 230.212C41.0596 230.548 41.3116 230.812 41.6236 231.004C41.9356 231.188 42.2996 231.28 42.7156 231.28C43.0356 231.28 43.3236 231.236 43.5796 231.148C43.8436 231.052 44.0996 230.924 44.3476 230.764L44.7316 231.496C44.4516 231.68 44.1356 231.836 43.7836 231.964C43.4316 232.092 43.0356 232.156 42.5956 232.156ZM40.5436 228.22H44.0356C44.0356 227.564 43.8916 227.064 43.6036 226.72C43.3236 226.368 42.9276 226.192 42.4156 226.192C42.1116 226.192 41.8236 226.272 41.5516 226.432C41.2876 226.592 41.0636 226.82 40.8796 227.116C40.7036 227.412 40.5916 227.78 40.5436 228.22ZM49.4681 232.156C49.1721 232.156 48.8601 232.084 48.5321 231.94C48.2041 231.796 47.9001 231.592 47.6201 231.328H47.5721L47.4761 232H46.6001V222.448H47.7041V225.064L47.6561 226.228C47.9521 225.972 48.2761 225.756 48.6281 225.58C48.9801 225.404 49.3401 225.316 49.7081 225.316C50.2681 225.316 50.7401 225.456 51.1241 225.736C51.5081 226.008 51.8001 226.392 52.0001 226.888C52.2001 227.384 52.3001 227.968 52.3001 228.64C52.3001 229.376 52.1641 230.008 51.8921 230.536C51.6281 231.064 51.2801 231.468 50.8481 231.748C50.4241 232.02 49.9641 232.156 49.4681 232.156ZM49.2881 231.232C49.6481 231.232 49.9681 231.132 50.2481 230.932C50.5361 230.724 50.7601 230.428 50.9201 230.044C51.0801 229.652 51.1601 229.188 51.1601 228.652C51.1601 228.172 51.1001 227.752 50.9801 227.392C50.8681 227.024 50.6881 226.74 50.4401 226.54C50.1921 226.34 49.8561 226.24 49.4321 226.24C49.1601 226.24 48.8801 226.316 48.5921 226.468C48.3041 226.62 48.0081 226.84 47.7041 227.128V230.56C47.9841 230.808 48.2641 230.984 48.5441 231.088C48.8321 231.184 49.0801 231.232 49.2881 231.232ZM55.2954 232.156C54.9354 232.156 54.6114 232.084 54.3234 231.94C54.0354 231.796 53.8074 231.588 53.6394 231.316C53.4794 231.036 53.3994 230.7 53.3994 230.308C53.3994 229.596 53.7154 229.052 54.3474 228.676C54.9874 228.292 56.0034 228.024 57.3954 227.872C57.3954 227.592 57.3554 227.328 57.2754 227.08C57.2034 226.824 57.0714 226.62 56.8794 226.468C56.6874 226.308 56.4114 226.228 56.0514 226.228C55.6754 226.228 55.3194 226.304 54.9834 226.456C54.6554 226.6 54.3594 226.756 54.0954 226.924L53.6754 226.168C53.8754 226.04 54.1074 225.912 54.3714 225.784C54.6354 225.648 54.9234 225.536 55.2354 225.448C55.5474 225.36 55.8794 225.316 56.2314 225.316C56.7594 225.316 57.1874 225.428 57.5154 225.652C57.8514 225.876 58.0954 226.188 58.2474 226.588C58.4074 226.98 58.4874 227.448 58.4874 227.992V232H57.5874L57.4914 231.22H57.4554C57.1514 231.476 56.8154 231.696 56.4474 231.88C56.0874 232.064 55.7034 232.156 55.2954 232.156ZM55.6074 231.268C55.9194 231.268 56.2154 231.196 56.4954 231.052C56.7834 230.908 57.0834 230.696 57.3954 230.416V228.604C56.6674 228.684 56.0874 228.8 55.6554 228.952C55.2234 229.096 54.9154 229.276 54.7314 229.492C54.5474 229.7 54.4554 229.948 54.4554 230.236C54.4554 230.612 54.5674 230.88 54.7914 231.04C55.0154 231.192 55.2874 231.268 55.6074 231.268ZM60.5571 232V225.484H61.4571L61.5651 226.672H61.5891C61.8131 226.256 62.0851 225.928 62.4051 225.688C62.7331 225.44 63.0771 225.316 63.4371 225.316C63.5891 225.316 63.7171 225.328 63.8211 225.352C63.9331 225.368 64.0371 225.404 64.1331 225.46L63.9291 226.408C63.8171 226.376 63.7171 226.352 63.6291 226.336C63.5411 226.312 63.4291 226.3 63.2931 226.3C63.0291 226.3 62.7451 226.416 62.4411 226.648C62.1371 226.872 61.8771 227.26 61.6611 227.812V232H60.5571ZM66.8314 232.156C66.3754 232.156 65.9314 232.072 65.4994 231.904C65.0754 231.728 64.7114 231.512 64.4074 231.256L64.9354 230.524C65.2234 230.756 65.5194 230.944 65.8234 231.088C66.1274 231.232 66.4754 231.304 66.8674 231.304C67.2994 231.304 67.6194 231.208 67.8274 231.016C68.0434 230.816 68.1514 230.572 68.1514 230.284C68.1514 230.06 68.0754 229.876 67.9234 229.732C67.7794 229.58 67.5914 229.452 67.3594 229.348C67.1354 229.236 66.9034 229.136 66.6634 229.048C66.3594 228.928 66.0594 228.796 65.7634 228.652C65.4754 228.5 65.2354 228.308 65.0434 228.076C64.8594 227.836 64.7674 227.532 64.7674 227.164C64.7674 226.812 64.8554 226.5 65.0314 226.228C65.2074 225.948 65.4634 225.728 65.7994 225.568C66.1354 225.4 66.5394 225.316 67.0114 225.316C67.4114 225.316 67.7834 225.388 68.1274 225.532C68.4794 225.676 68.7794 225.852 69.0274 226.06L68.4994 226.744C68.2754 226.584 68.0434 226.448 67.8034 226.336C67.5714 226.224 67.3114 226.168 67.0234 226.168C66.6074 226.168 66.2994 226.264 66.0994 226.456C65.9074 226.64 65.8114 226.86 65.8114 227.116C65.8114 227.316 65.8754 227.484 66.0034 227.62C66.1394 227.756 66.3154 227.872 66.5314 227.968C66.7474 228.056 66.9754 228.148 67.2154 228.244C67.4554 228.332 67.6914 228.428 67.9234 228.532C68.1634 228.636 68.3754 228.76 68.5594 228.904C68.7514 229.048 68.9034 229.228 69.0154 229.444C69.1354 229.652 69.1954 229.912 69.1954 230.224C69.1954 230.576 69.1034 230.9 68.9194 231.196C68.7434 231.492 68.4794 231.728 68.1274 231.904C67.7834 232.072 67.3514 232.156 66.8314 232.156ZM30.8911 248.748V239.484H31.7911L31.8991 240.24H31.9231C32.2191 239.992 32.5431 239.776 32.8951 239.592C33.2551 239.408 33.6231 239.316 33.9991 239.316C34.5591 239.316 35.0311 239.456 35.4151 239.736C35.8071 240.008 36.0991 240.392 36.2911 240.888C36.4911 241.384 36.5911 241.968 36.5911 242.64C36.5911 243.384 36.4551 244.02 36.1831 244.548C35.9191 245.068 35.5711 245.468 35.1391 245.748C34.7151 246.02 34.2551 246.156 33.7591 246.156C33.4631 246.156 33.1631 246.092 32.8591 245.964C32.5551 245.828 32.2551 245.64 31.9591 245.4L31.9951 246.54V248.748H30.8911ZM33.5791 245.232C33.9391 245.232 34.2591 245.132 34.5391 244.932C34.8271 244.724 35.0511 244.428 35.2111 244.044C35.3711 243.652 35.4511 243.188 35.4511 242.652C35.4511 242.172 35.3911 241.752 35.2711 241.392C35.1591 241.024 34.9791 240.74 34.7311 240.54C34.4831 240.34 34.1471 240.24 33.7231 240.24C33.4511 240.24 33.1711 240.316 32.8831 240.468C32.6031 240.62 32.3071 240.84 31.9951 241.128V244.56C32.2831 244.808 32.5671 244.984 32.8471 245.088C33.1271 245.184 33.3711 245.232 33.5791 245.232ZM40.9725 246.156C40.3885 246.156 39.8605 246.02 39.3885 245.748C38.9165 245.476 38.5405 245.088 38.2605 244.584C37.9885 244.072 37.8525 243.46 37.8525 242.748C37.8525 242.212 37.9325 241.736 38.0925 241.32C38.2525 240.896 38.4685 240.536 38.7405 240.24C39.0205 239.936 39.3365 239.708 39.6885 239.556C40.0405 239.396 40.4005 239.316 40.7685 239.316C41.3285 239.316 41.8005 239.44 42.1845 239.688C42.5685 239.936 42.8605 240.292 43.0605 240.756C43.2685 241.212 43.3725 241.752 43.3725 242.376C43.3725 242.496 43.3685 242.608 43.3605 242.712C43.3525 242.816 43.3405 242.912 43.3245 243H38.9325C38.9565 243.464 39.0605 243.868 39.2445 244.212C39.4365 244.548 39.6885 244.812 40.0005 245.004C40.3125 245.188 40.6765 245.28 41.0925 245.28C41.4125 245.28 41.7005 245.236 41.9565 245.148C42.2205 245.052 42.4765 244.924 42.7245 244.764L43.1085 245.496C42.8285 245.68 42.5125 245.836 42.1605 245.964C41.8085 246.092 41.4125 246.156 40.9725 246.156ZM38.9205 242.22H42.4125C42.4125 241.564 42.2685 241.064 41.9805 240.72C41.7005 240.368 41.3045 240.192 40.7925 240.192C40.4885 240.192 40.2005 240.272 39.9285 240.432C39.6645 240.592 39.4405 240.82 39.2565 241.116C39.0805 241.412 38.9685 241.78 38.9205 242.22ZM44.977 246V239.484H45.877L45.985 240.672H46.009C46.233 240.256 46.505 239.928 46.825 239.688C47.153 239.44 47.497 239.316 47.857 239.316C48.009 239.316 48.137 239.328 48.241 239.352C48.353 239.368 48.457 239.404 48.553 239.46L48.349 240.408C48.237 240.376 48.137 240.352 48.049 240.336C47.961 240.312 47.849 240.3 47.713 240.3C47.449 240.3 47.165 240.416 46.861 240.648C46.557 240.872 46.297 241.26 46.081 241.812V246H44.977ZM54.017 246.156C53.561 246.156 53.117 246.072 52.685 245.904C52.261 245.728 51.897 245.512 51.593 245.256L52.121 244.524C52.409 244.756 52.705 244.944 53.009 245.088C53.313 245.232 53.661 245.304 54.053 245.304C54.485 245.304 54.805 245.208 55.013 245.016C55.229 244.816 55.337 244.572 55.337 244.284C55.337 244.06 55.261 243.876 55.109 243.732C54.965 243.58 54.777 243.452 54.545 243.348C54.321 243.236 54.089 243.136 53.849 243.048C53.545 242.928 53.245 242.796 52.949 242.652C52.661 242.5 52.421 242.308 52.229 242.076C52.045 241.836 51.953 241.532 51.953 241.164C51.953 240.812 52.041 240.5 52.217 240.228C52.393 239.948 52.649 239.728 52.985 239.568C53.321 239.4 53.725 239.316 54.197 239.316C54.597 239.316 54.969 239.388 55.313 239.532C55.665 239.676 55.965 239.852 56.213 240.06L55.685 240.744C55.461 240.584 55.229 240.448 54.989 240.336C54.757 240.224 54.497 240.168 54.209 240.168C53.793 240.168 53.485 240.264 53.285 240.456C53.093 240.64 52.997 240.86 52.997 241.116C52.997 241.316 53.061 241.484 53.189 241.62C53.325 241.756 53.501 241.872 53.717 241.968C53.933 242.056 54.161 242.148 54.401 242.244C54.641 242.332 54.877 242.428 55.109 242.532C55.349 242.636 55.561 242.76 55.745 242.904C55.937 243.048 56.089 243.228 56.201 243.444C56.321 243.652 56.381 243.912 56.381 244.224C56.381 244.576 56.289 244.9 56.105 245.196C55.929 245.492 55.665 245.728 55.313 245.904C54.969 246.072 54.537 246.156 54.017 246.156ZM57.9263 246V239.484H59.0303V246H57.9263ZM58.4783 238.14C58.2623 238.14 58.0863 238.076 57.9503 237.948C57.8223 237.812 57.7583 237.632 57.7583 237.408C57.7583 237.192 57.8223 237.02 57.9503 236.892C58.0863 236.764 58.2623 236.7 58.4783 236.7C58.6943 236.7 58.8703 236.764 59.0063 236.892C59.1423 237.02 59.2103 237.192 59.2103 237.408C59.2103 237.632 59.1423 237.812 59.0063 237.948C58.8703 238.076 58.6943 238.14 58.4783 238.14ZM63.451 246.156C62.907 246.156 62.431 246.024 62.023 245.76C61.623 245.496 61.311 245.112 61.087 244.608C60.871 244.096 60.763 243.476 60.763 242.748C60.763 242.044 60.895 241.436 61.159 240.924C61.423 240.412 61.767 240.016 62.191 239.736C62.623 239.456 63.087 239.316 63.583 239.316C63.967 239.316 64.295 239.384 64.567 239.52C64.847 239.648 65.131 239.832 65.419 240.072L65.359 238.956V236.448H66.463V246H65.563L65.467 245.232H65.431C65.175 245.488 64.879 245.708 64.543 245.892C64.207 246.068 63.843 246.156 63.451 246.156ZM63.691 245.232C63.995 245.232 64.283 245.16 64.555 245.016C64.827 244.864 65.095 244.64 65.359 244.344V240.924C65.087 240.676 64.823 240.5 64.567 240.396C64.311 240.292 64.047 240.24 63.775 240.24C63.431 240.24 63.115 240.348 62.827 240.564C62.547 240.772 62.319 241.064 62.143 241.44C61.975 241.808 61.891 242.24 61.891 242.736C61.891 243.256 61.963 243.704 62.107 244.08C62.251 244.456 62.455 244.744 62.719 244.944C62.991 245.136 63.315 245.232 63.691 245.232ZM71.3124 246.156C70.7284 246.156 70.2004 246.02 69.7284 245.748C69.2564 245.476 68.8804 245.088 68.6004 244.584C68.3284 244.072 68.1924 243.46 68.1924 242.748C68.1924 242.212 68.2724 241.736 68.4324 241.32C68.5924 240.896 68.8084 240.536 69.0804 240.24C69.3604 239.936 69.6764 239.708 70.0284 239.556C70.3804 239.396 70.7404 239.316 71.1084 239.316C71.6684 239.316 72.1404 239.44 72.5244 239.688C72.9084 239.936 73.2004 240.292 73.4004 240.756C73.6084 241.212 73.7124 241.752 73.7124 242.376C73.7124 242.496 73.7084 242.608 73.7004 242.712C73.6924 242.816 73.6804 242.912 73.6644 243H69.2724C69.2964 243.464 69.4004 243.868 69.5844 244.212C69.7764 244.548 70.0284 244.812 70.3404 245.004C70.6524 245.188 71.0164 245.28 71.4324 245.28C71.7524 245.28 72.0404 245.236 72.2964 245.148C72.5604 245.052 72.8164 244.924 73.0644 244.764L73.4484 245.496C73.1684 245.68 72.8524 245.836 72.5004 245.964C72.1484 246.092 71.7524 246.156 71.3124 246.156ZM69.2604 242.22H72.7524C72.7524 241.564 72.6084 241.064 72.3204 240.72C72.0404 240.368 71.6444 240.192 71.1324 240.192C70.8284 240.192 70.5404 240.272 70.2684 240.432C70.0044 240.592 69.7804 240.82 69.5964 241.116C69.4204 241.412 69.3084 241.78 69.2604 242.22Z" fill="#CE2C3F"/>
</svg>
