<svg width="360" height="328" viewBox="0 0 360 328" fill="none" xmlns="http://www.w3.org/2000/svg">
<rect x="105.402" y="88.793" width="175.631" height="151.723" fill="#D9D9D9"/>
<path d="M105.861 240.516C85.7417 240.516 66.4461 232.523 52.2193 218.297C37.9925 204.07 30 184.774 30 164.654C30 144.535 37.9925 125.239 52.2193 111.012C66.4461 96.7855 85.7417 88.793 105.861 88.793V164.654V240.516Z" fill="#D9D9D9"/>
<path d="M106.321 222.126C91.6887 222.126 77.6555 216.313 67.3088 205.966C56.962 195.62 51.1493 181.587 51.1493 166.954C51.1493 152.321 56.962 138.288 67.3088 127.942C77.6555 117.595 91.6887 111.322 106.321 111.322" stroke="#1E252C" stroke-width="0.459766" stroke-dasharray="1.84 1.84"/>
<path d="M280.573 88.7927C300.692 88.7927 319.988 96.7853 334.215 111.012C348.442 125.239 356.434 144.534 356.434 164.654C356.434 184.774 348.442 204.07 334.215 218.296C319.988 232.523 300.692 240.516 280.573 240.516L280.573 164.654L280.573 88.7927Z" fill="#D9D9D9"/>
<path d="M281.032 111.321C295.665 111.321 309.698 117.134 320.045 127.481C330.392 137.828 336.204 151.861 336.204 166.493C336.204 181.126 330.392 195.159 320.045 205.506C309.698 215.852 295.665 222.125 281.032 222.125" stroke="#1E252C" stroke-width="0.459766" stroke-dasharray="1.84 1.84"/>
<circle cx="122.873" cy="111.782" r="3.67813" fill="white"/>
<circle cx="51.1493" cy="166.954" r="3.67813" fill="#1E252C"/>
<circle cx="336.204" cy="166.954" r="3.67813" fill="#1E252C"/>
<circle cx="320.572" cy="128.332" r="3.67813" fill="#1E252C"/>
<circle cx="66.7814" cy="204.655" r="3.67813" fill="white"/>
<circle cx="66.7814" cy="128.332" r="3.67813" fill="#1E252C"/>
<circle cx="263.561" cy="111.782" r="3.67813" fill="white"/>
<circle cx="192.757" cy="111.782" r="3.67813" fill="white"/>
<circle cx="156.896" cy="111.782" r="3.67813" fill="white"/>
<circle cx="192.757" cy="128.332" r="3.67813" fill="white"/>
<circle cx="122.873" cy="128.332" r="3.67813" fill="white"/>
<circle cx="263.561" cy="128.332" r="3.67813" fill="white"/>
<circle cx="228.619" cy="111.782" r="3.67813" fill="white"/>
<line x1="105" y1="112.024" x2="280.631" y2="112.024" stroke="#1E252C" stroke-width="0.46" stroke-dasharray="1.84 1.84"/>
<line x1="105.632" y1="75" x2="105.632" y2="253.389" stroke="#1E252C" stroke-width="0.459766" stroke-dasharray="1.84 1.84"/>
<line x1="282.182" y1="75" x2="282.182" y2="253.389" stroke="#1E252C" stroke-width="0.459766" stroke-dasharray="1.84 1.84"/>
<circle cx="3.67813" cy="3.67813" r="3.67813" transform="matrix(1 0 0 -1 119 225.402)" fill="white"/>
<circle cx="3.67813" cy="3.67813" r="3.67813" transform="matrix(1 0 0 -1 316.894 208.852)" fill="#1E252C"/>
<circle cx="3.67813" cy="3.67813" r="3.67813" transform="matrix(1 0 0 -1 63.1033 208.852)" fill="#1E252C"/>
<circle cx="3.67813" cy="3.67813" r="3.67813" transform="matrix(1 0 0 -1 259.689 225.402)" fill="white"/>
<circle cx="3.67813" cy="3.67813" r="3.67813" transform="matrix(1 0 0 -1 188.885 225.402)" fill="white"/>
<circle cx="3.67813" cy="3.67813" r="3.67813" transform="matrix(1 0 0 -1 153.023 225.402)" fill="white"/>
<circle cx="3.67813" cy="3.67813" r="3.67813" transform="matrix(1 0 0 -1 189.079 208.852)" fill="white"/>
<circle cx="3.67813" cy="3.67813" r="3.67813" transform="matrix(1 0 0 -1 119.195 208.852)" fill="white"/>
<circle cx="3.67813" cy="3.67813" r="3.67813" transform="matrix(1 0 0 -1 259.883 208.852)" fill="white"/>
<circle cx="3.67813" cy="3.67813" r="3.67813" transform="matrix(1 0 0 -1 224.746 225.402)" fill="white"/>
<line y1="-0.23" x2="175.631" y2="-0.23" transform="matrix(1 0 0 -1 105 222.254)" stroke="#1E252C" stroke-width="0.46" stroke-dasharray="1.84 1.84"/>
<line x1="51.3044" y1="162.691" x2="51.3044" y2="85.9994" stroke="#1E252C" stroke-width="0.7"/>
<line x1="29.65" y1="162.691" x2="29.65" y2="85.9994" stroke="#1E252C" stroke-width="0.7"/>
<line x1="30" y1="96.4762" x2="50.752" y2="96.4762" stroke="#1E252C" stroke-width="0.7"/>
<path d="M6.31133 79V70.204H8.50733C11.2193 70.204 12.6593 71.776 12.6593 74.572C12.6593 77.368 11.2193 79 8.56733 79H6.31133ZM7.42733 78.088H8.42333C10.4873 78.088 11.5193 76.804 11.5193 74.572C11.5193 72.34 10.4873 71.116 8.42333 71.116H7.42733V78.088ZM14.477 79V72.484H15.569V79H14.477ZM15.029 71.14C14.597 71.14 14.297 70.864 14.297 70.408C14.297 69.988 14.597 69.712 15.029 69.712C15.449 69.712 15.761 69.988 15.761 70.408C15.761 70.864 15.449 71.14 15.029 71.14ZM19.4857 79.168C18.5617 79.168 17.6617 78.772 17.0497 78.268L17.5897 77.536C18.1537 77.992 18.7297 78.316 19.5097 78.316C20.3737 78.316 20.8057 77.86 20.8057 77.284C20.8057 76.624 20.0257 76.324 19.3057 76.06C18.4057 75.712 17.4097 75.28 17.4097 74.164C17.4097 73.132 18.2377 72.328 19.6537 72.328C20.4577 72.328 21.1777 72.652 21.6817 73.06L21.1537 73.756C20.7097 73.432 20.2417 73.18 19.6657 73.18C18.8377 73.18 18.4657 73.612 18.4657 74.116C18.4657 74.74 19.1257 74.98 19.8697 75.244C20.8177 75.604 21.8497 75.988 21.8497 77.224C21.8497 78.292 21.0217 79.168 19.4857 79.168ZM25.1303 79.168C23.7383 79.168 23.2823 78.292 23.2823 76.996V73.372H22.3103V72.556L23.3303 72.484L23.4503 70.648H24.3743V72.484H26.1383V73.372H24.3743V77.02C24.3743 77.812 24.6263 78.28 25.3823 78.28C25.6103 78.28 25.9103 78.184 26.1143 78.1L26.3303 78.916C25.9703 79.048 25.5383 79.168 25.1303 79.168ZM28.7856 79.168C27.6936 79.168 26.8776 78.484 26.8776 77.308C26.8776 75.892 28.1016 75.184 30.8736 74.872C30.8736 74.032 30.6096 73.228 29.5416 73.228C28.7736 73.228 28.0896 73.588 27.5856 73.936L27.1536 73.168C27.7536 72.784 28.6656 72.328 29.7096 72.328C31.3056 72.328 31.9776 73.384 31.9776 75.004V79H31.0776L30.9816 78.232H30.9336C30.3216 78.748 29.5896 79.168 28.7856 79.168ZM29.0856 78.28C29.7216 78.28 30.2496 77.98 30.8736 77.416V75.604C28.6776 75.856 27.9456 76.396 27.9456 77.236C27.9456 77.98 28.4496 78.28 29.0856 78.28ZM34.0474 79V72.484H34.9354L35.0434 73.432H35.0794C35.6914 72.82 36.3634 72.328 37.2634 72.328C38.6314 72.328 39.2554 73.216 39.2554 74.872V79H38.1514V75.016C38.1514 73.792 37.7794 73.276 36.9154 73.276C36.2554 73.276 35.7874 73.624 35.1394 74.272V79H34.0474ZM43.9276 79.168C42.1996 79.168 40.8796 77.908 40.8796 75.76C40.8796 73.576 42.3436 72.328 44.0116 72.328C44.8636 72.328 45.4636 72.676 45.9196 73.096L45.3676 73.816C44.9836 73.468 44.5756 73.24 44.0716 73.24C42.8716 73.24 42.0076 74.248 42.0076 75.76C42.0076 77.248 42.8356 78.256 44.0356 78.256C44.6236 78.256 45.1636 77.968 45.5716 77.608L46.0396 78.34C45.4636 78.856 44.7076 79.168 43.9276 79.168ZM49.8004 79.168C48.0604 79.168 46.6804 77.896 46.6804 75.76C46.6804 73.636 48.1084 72.328 49.6084 72.328C51.2644 72.328 52.2004 73.516 52.2004 75.388C52.2004 75.616 52.1884 75.844 52.1524 76.012H47.7604C47.8444 77.392 48.6844 78.292 49.9324 78.292C50.5564 78.292 51.0724 78.088 51.5524 77.764L51.9484 78.496C51.3724 78.868 50.6884 79.168 49.8004 79.168ZM47.7484 75.22H51.2404C51.2404 73.912 50.6524 73.204 49.6204 73.204C48.7084 73.204 47.8924 73.936 47.7484 75.22ZM56.6685 79V71.44C56.6685 70.132 57.2805 69.292 58.5765 69.292C58.9725 69.292 59.3565 69.388 59.6565 69.508L59.4285 70.348C59.1765 70.24 58.9245 70.18 58.6845 70.18C58.0605 70.18 57.7605 70.612 57.7605 71.464V79H56.6685ZM55.7805 73.372V72.556L56.7285 72.484H59.1525V73.372H55.7805ZM60.4028 79V72.484H61.2908L61.3988 73.672H61.4348C61.8788 72.844 62.5508 72.328 63.2828 72.328C63.5708 72.328 63.7628 72.364 63.9788 72.46L63.7748 73.42C63.5468 73.348 63.4028 73.312 63.1388 73.312C62.5988 73.312 61.9268 73.708 61.4948 74.824V79H60.4028ZM67.4231 79.168C65.8151 79.168 64.3991 77.908 64.3991 75.76C64.3991 73.576 65.8151 72.328 67.4231 72.328C69.0191 72.328 70.4351 73.576 70.4351 75.76C70.4351 77.908 69.0191 79.168 67.4231 79.168ZM67.4231 78.256C68.5511 78.256 69.3071 77.248 69.3071 75.76C69.3071 74.248 68.5511 73.24 67.4231 73.24C66.2831 73.24 65.5271 74.248 65.5271 75.76C65.5271 77.248 66.2831 78.256 67.4231 78.256ZM72.1685 79V72.484H73.0565L73.1645 73.432H73.2005C73.7645 72.82 74.4485 72.328 75.2285 72.328C76.2245 72.328 76.7645 72.796 77.0165 73.564C77.7005 72.844 78.3845 72.328 79.1765 72.328C80.5085 72.328 81.1565 73.216 81.1565 74.872V79H80.0645V75.016C80.0645 73.792 79.6805 73.276 78.8405 73.276C78.3365 73.276 77.8205 73.612 77.2085 74.272V79H76.1165V75.016C76.1165 73.792 75.7325 73.276 74.8925 73.276C74.4005 73.276 73.8485 73.612 73.2605 74.272V79H72.1685ZM88.0014 79.168C86.6094 79.168 86.1534 78.292 86.1534 76.996V73.372H85.1814V72.556L86.2014 72.484L86.3214 70.648H87.2454V72.484H89.0094V73.372H87.2454V77.02C87.2454 77.812 87.4974 78.28 88.2534 78.28C88.4814 78.28 88.7814 78.184 88.9854 78.1L89.2014 78.916C88.8414 79.048 88.4094 79.168 88.0014 79.168ZM92.8059 79.168C91.1979 79.168 89.7819 77.908 89.7819 75.76C89.7819 73.576 91.1979 72.328 92.8059 72.328C94.4019 72.328 95.8179 73.576 95.8179 75.76C95.8179 77.908 94.4019 79.168 92.8059 79.168ZM92.8059 78.256C93.9339 78.256 94.6899 77.248 94.6899 75.76C94.6899 74.248 93.9339 73.24 92.8059 73.24C91.6659 73.24 90.9099 74.248 90.9099 75.76C90.9099 77.248 91.6659 78.256 92.8059 78.256ZM97.5513 81.748V72.484H98.4393L98.5473 73.24H98.5833C99.1713 72.748 99.8913 72.328 100.647 72.328C102.339 72.328 103.239 73.636 103.239 75.652C103.239 77.872 101.907 79.168 100.407 79.168C99.8193 79.168 99.2073 78.892 98.6193 78.412L98.6433 79.552V81.748H97.5513ZM100.239 78.244C101.307 78.244 102.111 77.272 102.111 75.664C102.111 74.212 101.619 73.24 100.383 73.24C99.8313 73.24 99.2793 73.552 98.6433 74.14V77.572C99.2313 78.064 99.8073 78.244 100.239 78.244Z" fill="#1E252C"/>
<rect x="44.5" y="119.5" width="39" height="98" stroke="#CE2C3F" stroke-dasharray="2.09 2.09"/>
<path d="M41.4656 233V224.204H42.6056L45.8096 229.748L46.7576 231.572H46.8176C46.7456 230.684 46.6616 229.688 46.6616 228.776V224.204H47.7296V233H46.5776L43.3856 227.456L42.4376 225.644H42.3776C42.4376 226.532 42.5216 227.456 42.5216 228.392V233H41.4656ZM51.9375 233.168C50.5695 233.168 49.9455 232.28 49.9455 230.612V226.484H51.0375V230.48C51.0375 231.692 51.4095 232.208 52.2735 232.208C52.9335 232.208 53.4135 231.884 54.0255 231.116V226.484H55.1175V233H54.2175L54.1215 231.98H54.0975C53.4855 232.688 52.8375 233.168 51.9375 233.168ZM57.3306 233V226.484H58.2186L58.3266 227.432H58.3626C58.9266 226.82 59.6106 226.328 60.3906 226.328C61.3866 226.328 61.9266 226.796 62.1786 227.564C62.8626 226.844 63.5466 226.328 64.3386 226.328C65.6706 226.328 66.3186 227.216 66.3186 228.872V233H65.2266V229.016C65.2266 227.792 64.8426 227.276 64.0026 227.276C63.4986 227.276 62.9826 227.612 62.3706 228.272V233H61.2786V229.016C61.2786 227.792 60.8946 227.276 60.0546 227.276C59.5626 227.276 59.0106 227.612 58.4226 228.272V233H57.3306ZM71.2959 233.168C70.6959 233.168 70.0119 232.856 69.4479 232.328H69.4119L69.3039 233H68.4399V223.46H69.5319V226.064L69.4839 227.24C70.0839 226.724 70.8039 226.328 71.5359 226.328C73.2159 226.328 74.1279 227.636 74.1279 229.64C74.1279 231.872 72.7959 233.168 71.2959 233.168ZM71.1279 232.244C72.1959 232.244 72.9999 231.272 72.9999 229.664C72.9999 228.212 72.5079 227.24 71.2719 227.24C70.7199 227.24 70.1439 227.552 69.5319 228.14V231.572C70.0959 232.064 70.6959 232.244 71.1279 232.244ZM78.4859 233.168C76.7459 233.168 75.3659 231.896 75.3659 229.76C75.3659 227.636 76.7939 226.328 78.2939 226.328C79.9499 226.328 80.8859 227.516 80.8859 229.388C80.8859 229.616 80.8739 229.844 80.8379 230.012H76.4459C76.5299 231.392 77.3699 232.292 78.6179 232.292C79.2419 232.292 79.7579 232.088 80.2379 231.764L80.6339 232.496C80.0579 232.868 79.3739 233.168 78.4859 233.168ZM76.4339 229.22H79.9259C79.9259 227.912 79.3379 227.204 78.3059 227.204C77.3939 227.204 76.5779 227.936 76.4339 229.22ZM82.5024 233V226.484H83.3904L83.4984 227.672H83.5344C83.9784 226.844 84.6504 226.328 85.3824 226.328C85.6704 226.328 85.8624 226.364 86.0784 226.46L85.8744 227.42C85.6464 227.348 85.5024 227.312 85.2384 227.312C84.6984 227.312 84.0264 227.708 83.5944 228.824V233H82.5024ZM42.6235 252.748V243.484H43.5115L43.6195 244.24H43.6555C44.2435 243.748 44.9635 243.328 45.7195 243.328C47.4115 243.328 48.3115 244.636 48.3115 246.652C48.3115 248.872 46.9795 250.168 45.4795 250.168C44.8915 250.168 44.2795 249.892 43.6915 249.412L43.7155 250.552V252.748H42.6235ZM45.3115 249.244C46.3795 249.244 47.1835 248.272 47.1835 246.664C47.1835 245.212 46.6915 244.24 45.4555 244.24C44.9035 244.24 44.3515 244.552 43.7155 245.14V248.572C44.3035 249.064 44.8795 249.244 45.3115 249.244ZM52.6929 250.168C50.9529 250.168 49.5729 248.896 49.5729 246.76C49.5729 244.636 51.0009 243.328 52.5009 243.328C54.1569 243.328 55.0929 244.516 55.0929 246.388C55.0929 246.616 55.0809 246.844 55.0449 247.012H50.6529C50.7369 248.392 51.5769 249.292 52.8249 249.292C53.4489 249.292 53.9649 249.088 54.4449 248.764L54.8409 249.496C54.2649 249.868 53.5809 250.168 52.6929 250.168ZM50.6409 246.22H54.1329C54.1329 244.912 53.5449 244.204 52.5129 244.204C51.6009 244.204 50.7849 244.936 50.6409 246.22ZM56.7095 250V243.484H57.5975L57.7055 244.672H57.7415C58.1855 243.844 58.8575 243.328 59.5895 243.328C59.8775 243.328 60.0695 243.364 60.2855 243.46L60.0815 244.42C59.8535 244.348 59.7095 244.312 59.4455 244.312C58.9055 244.312 58.2335 244.708 57.8015 245.824V250H56.7095ZM66.5774 250.168C65.3414 250.168 64.2734 249.664 63.5054 248.86L64.1654 248.092C64.8014 248.764 65.6894 249.184 66.6014 249.184C67.7534 249.184 68.4374 248.608 68.4374 247.756C68.4374 246.844 67.8014 246.556 66.9734 246.196L65.7134 245.644C64.8854 245.296 63.9254 244.672 63.9254 243.388C63.9254 242.032 65.0894 241.048 66.6974 241.048C67.7414 241.048 68.6654 241.492 69.2774 242.14L68.6894 242.848C68.1494 242.344 67.5014 242.02 66.6974 242.02C65.7014 242.02 65.0534 242.524 65.0534 243.304C65.0534 244.168 65.8214 244.48 66.5054 244.768L67.7534 245.308C68.7854 245.752 69.5654 246.364 69.5654 247.672C69.5654 249.064 68.4254 250.168 66.5774 250.168ZM71.1938 250V243.484H72.2858V250H71.1938ZM71.7458 242.14C71.3138 242.14 71.0138 241.864 71.0138 241.408C71.0138 240.988 71.3138 240.712 71.7458 240.712C72.1658 240.712 72.4778 240.988 72.4778 241.408C72.4778 241.864 72.1658 242.14 71.7458 242.14ZM76.7065 250.168C75.0745 250.168 74.0185 248.932 74.0185 246.76C74.0185 244.636 75.3625 243.328 76.8505 243.328C77.6065 243.328 78.1105 243.604 78.6745 244.084L78.6265 242.956V240.46H79.7185V250H78.8185L78.7225 249.232H78.6985C78.1825 249.748 77.4985 250.168 76.7065 250.168ZM76.9465 249.244C77.5585 249.244 78.0865 248.944 78.6265 248.356V244.936C78.0745 244.432 77.5705 244.24 77.0305 244.24C75.9865 244.24 75.1585 245.26 75.1585 246.748C75.1585 248.308 75.8065 249.244 76.9465 249.244ZM84.5679 250.168C82.8279 250.168 81.4479 248.896 81.4479 246.76C81.4479 244.636 82.8759 243.328 84.3759 243.328C86.0319 243.328 86.9679 244.516 86.9679 246.388C86.9679 246.616 86.9559 246.844 86.9199 247.012H82.5279C82.6119 248.392 83.4519 249.292 84.6999 249.292C85.3239 249.292 85.8399 249.088 86.3199 248.764L86.7159 249.496C86.1399 249.868 85.4559 250.168 84.5679 250.168ZM82.5159 246.22H86.0079C86.0079 244.912 85.4199 244.204 84.3879 244.204C83.4759 244.204 82.6599 244.936 82.5159 246.22Z" fill="#CE2C3F"/>
</svg>
