<svg width="360" height="328" viewBox="0 0 360 328" fill="none" xmlns="http://www.w3.org/2000/svg">
<rect width="360" height="328" fill="white"/>
<rect x="122.591" y="31" width="183.409" height="266.555" fill="#D9D9D9"/>
<circle cx="159.68" cy="52.68" r="3.68" fill="white"/>
<circle cx="159.994" cy="163.938" r="3.68" fill="#1E252C"/>
<circle cx="159.994" cy="201.106" r="3.68" fill="#1E252C"/>
<circle cx="159.994" cy="126.77" r="3.68" fill="#1E252C"/>
<circle cx="268.08" cy="163.938" r="3.68" fill="#1E252C"/>
<circle cx="268.08" cy="201.106" r="3.68" fill="#1E252C"/>
<circle cx="268.08" cy="126.77" r="3.68" fill="#1E252C"/>
<circle cx="195.612" cy="52.68" r="3.68" fill="white"/>
<circle cx="231.544" cy="52.68" r="3.68" fill="white"/>
<circle cx="177.112" cy="76.637" r="3.68" fill="white"/>
<circle cx="213.045" cy="76.637" r="3.68" fill="white"/>
<circle cx="248.977" cy="76.637" r="3.68" fill="white"/>
<circle cx="267.477" cy="52.68" r="3.68" fill="white"/>
<circle cx="159.68" cy="275.217" r="3.68" fill="white"/>
<circle cx="195.612" cy="275.217" r="3.68" fill="white"/>
<circle cx="231.544" cy="275.217" r="3.68" fill="white"/>
<circle cx="177.112" cy="253.932" r="3.68" fill="white"/>
<circle cx="213.045" cy="253.932" r="3.68" fill="white"/>
<circle cx="248.977" cy="253.932" r="3.68" fill="white"/>
<circle cx="267.477" cy="275.217" r="3.68" fill="white"/>
<path d="M29.9188 141.709V132.913H31.0348V141.709H29.9188ZM33.3384 141.709V135.193H34.2264L34.3344 136.141H34.3704C34.9824 135.529 35.6544 135.037 36.5544 135.037C37.9224 135.037 38.5464 135.925 38.5464 137.581V141.709H37.4424V137.725C37.4424 136.501 37.0704 135.985 36.2064 135.985C35.5464 135.985 35.0784 136.333 34.4304 136.981V141.709H33.3384ZM42.7026 141.877C41.3106 141.877 40.8546 141.001 40.8546 139.705V136.081H39.8826V135.265L40.9026 135.193L41.0226 133.357H41.9466V135.193H43.7106V136.081H41.9466V139.729C41.9466 140.521 42.1986 140.989 42.9546 140.989C43.1826 140.989 43.4826 140.893 43.6866 140.809L43.9026 141.625C43.5426 141.757 43.1106 141.877 42.7026 141.877ZM47.6031 141.877C45.8631 141.877 44.4831 140.605 44.4831 138.469C44.4831 136.345 45.9111 135.037 47.4111 135.037C49.0671 135.037 50.0031 136.225 50.0031 138.097C50.0031 138.325 49.9911 138.553 49.9551 138.721H45.5631C45.6471 140.101 46.4871 141.001 47.7351 141.001C48.3591 141.001 48.8751 140.797 49.3551 140.473L49.7511 141.205C49.1751 141.577 48.4911 141.877 47.6031 141.877ZM45.5511 137.929H49.0431C49.0431 136.621 48.4551 135.913 47.4231 135.913C46.5111 135.913 45.6951 136.645 45.5511 137.929ZM51.6196 141.709V135.193H52.5076L52.6156 136.381H52.6516C53.0956 135.553 53.7676 135.037 54.4996 135.037C54.7876 135.037 54.9796 135.073 55.1956 135.169L54.9916 136.129C54.7636 136.057 54.6196 136.021 54.3556 136.021C53.8156 136.021 53.1436 136.417 52.7116 137.533V141.709H51.6196ZM57.9807 141.709L55.6287 135.193H56.7567L57.9927 138.913C58.1847 139.549 58.3887 140.209 58.5927 140.821H58.6407C58.8447 140.209 59.0487 139.549 59.2407 138.913L60.4887 135.193H61.5567L59.2527 141.709H57.9807ZM64.0298 141.877C62.9378 141.877 62.1218 141.193 62.1218 140.017C62.1218 138.601 63.3458 137.893 66.1178 137.581C66.1178 136.741 65.8538 135.937 64.7858 135.937C64.0178 135.937 63.3338 136.297 62.8298 136.645L62.3978 135.877C62.9978 135.493 63.9098 135.037 64.9538 135.037C66.5498 135.037 67.2218 136.093 67.2218 137.713V141.709H66.3218L66.2258 140.941H66.1778C65.5658 141.457 64.8338 141.877 64.0298 141.877ZM64.3298 140.989C64.9658 140.989 65.4938 140.689 66.1178 140.125V138.313C63.9218 138.565 63.1898 139.105 63.1898 139.945C63.1898 140.689 63.6938 140.989 64.3298 140.989ZM70.4435 141.877C69.6155 141.877 69.2915 141.349 69.2915 140.413V132.169H70.3835V140.485C70.3835 140.833 70.5275 140.965 70.6955 140.965C70.7435 140.965 70.7915 140.965 70.9235 140.941L71.0675 141.781C70.9115 141.829 70.7435 141.877 70.4435 141.877ZM8.69609 158.709V149.913H11.3001C13.0881 149.913 14.3241 150.525 14.3241 152.073C14.3241 152.937 13.8681 153.705 13.0401 153.981V154.029C14.0961 154.233 14.8281 154.941 14.8281 156.141C14.8281 157.857 13.4601 158.709 11.5041 158.709H8.69609ZM9.81209 153.657H11.1081C12.6201 153.657 13.2321 153.105 13.2321 152.205C13.2321 151.173 12.5361 150.789 11.1681 150.789H9.81209V153.657ZM9.81209 157.833H11.3481C12.8481 157.833 13.7481 157.293 13.7481 156.105C13.7481 155.013 12.8841 154.509 11.3481 154.509H9.81209V157.833ZM19.1148 158.877C17.3748 158.877 15.9948 157.605 15.9948 155.469C15.9948 153.345 17.4228 152.037 18.9228 152.037C20.5788 152.037 21.5148 153.225 21.5148 155.097C21.5148 155.325 21.5028 155.553 21.4668 155.721H17.0748C17.1588 157.101 17.9988 158.001 19.2468 158.001C19.8708 158.001 20.3868 157.797 20.8668 157.473L21.2628 158.205C20.6868 158.577 20.0028 158.877 19.1148 158.877ZM17.0628 154.929H20.5548C20.5548 153.621 19.9668 152.913 18.9348 152.913C18.0228 152.913 17.2068 153.645 17.0628 154.929ZM25.0073 158.877C23.6153 158.877 23.1593 158.001 23.1593 156.705V153.081H22.1873V152.265L23.2073 152.193L23.3273 150.357H24.2513V152.193H26.0153V153.081H24.2513V156.729C24.2513 157.521 24.5033 157.989 25.2593 157.989C25.4873 157.989 25.7873 157.893 25.9913 157.809L26.2073 158.625C25.8473 158.757 25.4153 158.877 25.0073 158.877ZM28.5227 158.709L26.6987 152.193H27.8147L28.7987 155.973C28.9307 156.597 29.0507 157.173 29.1707 157.785H29.2307C29.3747 157.173 29.5067 156.585 29.6747 155.973L30.6827 152.193H31.7507L32.7827 155.973C32.9387 156.597 33.0827 157.173 33.2387 157.785H33.2867C33.4187 157.173 33.5387 156.597 33.6947 155.973L34.6427 152.193H35.6867L33.9347 158.709H32.6027L31.6547 155.205C31.4867 154.581 31.3667 153.993 31.2107 153.321H31.1507C31.0187 153.993 30.8867 154.593 30.7067 155.217L29.7947 158.709H28.5227ZM39.6578 158.877C37.9178 158.877 36.5378 157.605 36.5378 155.469C36.5378 153.345 37.9658 152.037 39.4658 152.037C41.1218 152.037 42.0578 153.225 42.0578 155.097C42.0578 155.325 42.0458 155.553 42.0098 155.721H37.6178C37.7018 157.101 38.5418 158.001 39.7898 158.001C40.4138 158.001 40.9298 157.797 41.4098 157.473L41.8058 158.205C41.2298 158.577 40.5458 158.877 39.6578 158.877ZM37.6058 154.929H41.0978C41.0978 153.621 40.5098 152.913 39.4778 152.913C38.5658 152.913 37.7498 153.645 37.6058 154.929ZM46.3023 158.877C44.5623 158.877 43.1823 157.605 43.1823 155.469C43.1823 153.345 44.6103 152.037 46.1103 152.037C47.7663 152.037 48.7023 153.225 48.7023 155.097C48.7023 155.325 48.6903 155.553 48.6543 155.721H44.2623C44.3463 157.101 45.1863 158.001 46.4343 158.001C47.0583 158.001 47.5743 157.797 48.0543 157.473L48.4503 158.205C47.8743 158.577 47.1903 158.877 46.3023 158.877ZM44.2503 154.929H47.7423C47.7423 153.621 47.1543 152.913 46.1223 152.913C45.2103 152.913 44.3943 153.645 44.2503 154.929ZM50.3188 158.709V152.193H51.2068L51.3148 153.141H51.3508C51.9628 152.529 52.6348 152.037 53.5348 152.037C54.9028 152.037 55.5268 152.925 55.5268 154.581V158.709H54.4228V154.725C54.4228 153.501 54.0508 152.985 53.1868 152.985C52.5268 152.985 52.0588 153.333 51.4108 153.981V158.709H50.3188ZM60.4227 158.709V149.913H61.5387V157.773H65.3787V158.709H60.4227ZM68.3423 158.877C67.2503 158.877 66.4343 158.193 66.4343 157.017C66.4343 155.601 67.6583 154.893 70.4303 154.581C70.4303 153.741 70.1663 152.937 69.0983 152.937C68.3303 152.937 67.6463 153.297 67.1423 153.645L66.7103 152.877C67.3103 152.493 68.2223 152.037 69.2663 152.037C70.8623 152.037 71.5343 153.093 71.5343 154.713V158.709H70.6343L70.5383 157.941H70.4903C69.8783 158.457 69.1463 158.877 68.3423 158.877ZM68.6423 157.989C69.2783 157.989 69.8063 157.689 70.4303 157.125V155.313C68.2343 155.565 67.5023 156.105 67.5023 156.945C67.5023 157.689 68.0063 157.989 68.6423 157.989ZM73.7 161.529C73.4 161.529 73.148 161.481 72.944 161.397L73.16 160.521C73.28 160.569 73.472 160.617 73.652 160.617C74.384 160.617 74.852 160.017 75.128 159.213L75.272 158.721L72.656 152.193H73.784L75.116 155.817C75.32 156.393 75.536 157.053 75.752 157.653H75.812C75.992 157.053 76.184 156.405 76.352 155.817L77.528 152.193H78.596L76.136 159.261C75.68 160.545 75.008 161.529 73.7 161.529ZM82.4078 158.877C80.6678 158.877 79.2878 157.605 79.2878 155.469C79.2878 153.345 80.7158 152.037 82.2158 152.037C83.8718 152.037 84.8078 153.225 84.8078 155.097C84.8078 155.325 84.7958 155.553 84.7598 155.721H80.3678C80.4518 157.101 81.2918 158.001 82.5398 158.001C83.1638 158.001 83.6798 157.797 84.1598 157.473L84.5558 158.205C83.9798 158.577 83.2958 158.877 82.4078 158.877ZM80.3558 154.929H83.8478C83.8478 153.621 83.2598 152.913 82.2278 152.913C81.3158 152.913 80.4998 153.645 80.3558 154.929ZM86.4243 158.709V152.193H87.3123L87.4203 153.381H87.4563C87.9003 152.553 88.5723 152.037 89.3043 152.037C89.5923 152.037 89.7843 152.073 90.0003 152.169L89.7963 153.129C89.5683 153.057 89.4243 153.021 89.1603 153.021C88.6203 153.021 87.9483 153.417 87.5163 154.533V158.709H86.4243ZM92.6986 158.877C91.7746 158.877 90.8746 158.481 90.2626 157.977L90.8026 157.245C91.3666 157.701 91.9426 158.025 92.7226 158.025C93.5866 158.025 94.0186 157.569 94.0186 156.993C94.0186 156.333 93.2386 156.033 92.5186 155.769C91.6186 155.421 90.6226 154.989 90.6226 153.873C90.6226 152.841 91.4506 152.037 92.8666 152.037C93.6706 152.037 94.3906 152.361 94.8946 152.769L94.3666 153.465C93.9226 153.141 93.4546 152.889 92.8786 152.889C92.0506 152.889 91.6786 153.321 91.6786 153.825C91.6786 154.449 92.3386 154.689 93.0826 154.953C94.0306 155.313 95.0626 155.697 95.0626 156.933C95.0626 158.001 94.2346 158.877 92.6986 158.877Z" fill="#1E252C"/>
<path d="M81.9915 257.168C80.7555 257.168 79.6875 256.664 78.9195 255.86L79.5795 255.092C80.2155 255.764 81.1035 256.184 82.0155 256.184C83.1675 256.184 83.8515 255.608 83.8515 254.756C83.8515 253.844 83.2155 253.556 82.3875 253.196L81.1275 252.644C80.2995 252.296 79.3395 251.672 79.3395 250.388C79.3395 249.032 80.5035 248.048 82.1115 248.048C83.1555 248.048 84.0795 248.492 84.6915 249.14L84.1035 249.848C83.5635 249.344 82.9155 249.02 82.1115 249.02C81.1155 249.02 80.4675 249.524 80.4675 250.304C80.4675 251.168 81.2355 251.48 81.9195 251.768L83.1675 252.308C84.1995 252.752 84.9795 253.364 84.9795 254.672C84.9795 256.064 83.8395 257.168 81.9915 257.168ZM86.6079 257V250.484H87.6999V257H86.6079ZM87.1599 249.14C86.7279 249.14 86.4279 248.864 86.4279 248.408C86.4279 247.988 86.7279 247.712 87.1599 247.712C87.5799 247.712 87.8919 247.988 87.8919 248.408C87.8919 248.864 87.5799 249.14 87.1599 249.14ZM92.1206 257.168C90.4886 257.168 89.4326 255.932 89.4326 253.76C89.4326 251.636 90.7766 250.328 92.2646 250.328C93.0206 250.328 93.5246 250.604 94.0886 251.084L94.0406 249.956V247.46H95.1326V257H94.2326L94.1366 256.232H94.1126C93.5966 256.748 92.9126 257.168 92.1206 257.168ZM92.3606 256.244C92.9726 256.244 93.5006 255.944 94.0406 255.356V251.936C93.4886 251.432 92.9846 251.24 92.4446 251.24C91.4006 251.24 90.5726 252.26 90.5726 253.748C90.5726 255.308 91.2206 256.244 92.3606 256.244ZM99.982 257.168C98.242 257.168 96.862 255.896 96.862 253.76C96.862 251.636 98.29 250.328 99.79 250.328C101.446 250.328 102.382 251.516 102.382 253.388C102.382 253.616 102.37 253.844 102.334 254.012H97.942C98.026 255.392 98.866 256.292 100.114 256.292C100.738 256.292 101.254 256.088 101.734 255.764L102.13 256.496C101.554 256.868 100.87 257.168 99.982 257.168ZM97.93 253.22H101.422C101.422 251.912 100.834 251.204 99.802 251.204C98.89 251.204 98.074 251.936 97.93 253.22ZM110.102 257.168C107.906 257.168 106.274 255.464 106.274 252.608C106.274 249.776 107.942 248.048 110.174 248.048C111.242 248.048 112.07 248.564 112.586 249.128L111.974 249.848C111.518 249.356 110.93 249.02 110.186 249.02C108.518 249.02 107.414 250.388 107.414 252.584C107.414 254.804 108.47 256.184 110.15 256.184C110.978 256.184 111.626 255.824 112.19 255.2L112.79 255.896C112.094 256.712 111.242 257.168 110.102 257.168ZM116.866 257.168C115.258 257.168 113.842 255.908 113.842 253.76C113.842 251.576 115.258 250.328 116.866 250.328C118.462 250.328 119.878 251.576 119.878 253.76C119.878 255.908 118.462 257.168 116.866 257.168ZM116.866 256.256C117.994 256.256 118.75 255.248 118.75 253.76C118.75 252.248 117.994 251.24 116.866 251.24C115.726 251.24 114.97 252.248 114.97 253.76C114.97 255.248 115.726 256.256 116.866 256.256ZM121.612 257V250.484H122.5L122.608 251.672H122.644C123.088 250.844 123.76 250.328 124.492 250.328C124.78 250.328 124.972 250.364 125.188 250.46L124.984 251.42C124.756 251.348 124.612 251.312 124.348 251.312C123.808 251.312 123.136 251.708 122.704 252.824V257H121.612ZM128.728 257.168C126.988 257.168 125.608 255.896 125.608 253.76C125.608 251.636 127.036 250.328 128.536 250.328C130.192 250.328 131.128 251.516 131.128 253.388C131.128 253.616 131.116 253.844 131.08 254.012H126.688C126.772 255.392 127.612 256.292 128.86 256.292C129.484 256.292 130 256.088 130.48 255.764L130.876 256.496C130.3 256.868 129.616 257.168 128.728 257.168ZM126.676 253.22H130.168C130.168 251.912 129.58 251.204 128.548 251.204C127.636 251.204 126.82 251.936 126.676 253.22ZM138.848 257.168C136.652 257.168 135.02 255.464 135.02 252.608C135.02 249.776 136.688 248.048 138.92 248.048C139.988 248.048 140.816 248.564 141.332 249.128L140.72 249.848C140.264 249.356 139.676 249.02 138.932 249.02C137.264 249.02 136.16 250.388 136.16 252.584C136.16 254.804 137.216 256.184 138.896 256.184C139.724 256.184 140.372 255.824 140.936 255.2L141.536 255.896C140.84 256.712 139.988 257.168 138.848 257.168ZM145.613 257.168C144.005 257.168 142.589 255.908 142.589 253.76C142.589 251.576 144.005 250.328 145.613 250.328C147.209 250.328 148.625 251.576 148.625 253.76C148.625 255.908 147.209 257.168 145.613 257.168ZM145.613 256.256C146.741 256.256 147.497 255.248 147.497 253.76C147.497 252.248 146.741 251.24 145.613 251.24C144.473 251.24 143.717 252.248 143.717 253.76C143.717 255.248 144.473 256.256 145.613 256.256ZM151.68 257L149.328 250.484H150.456L151.692 254.204C151.884 254.84 152.088 255.5 152.292 256.112H152.34C152.544 255.5 152.748 254.84 152.94 254.204L154.188 250.484H155.256L152.952 257H151.68ZM159.08 257.168C157.34 257.168 155.96 255.896 155.96 253.76C155.96 251.636 157.388 250.328 158.888 250.328C160.544 250.328 161.48 251.516 161.48 253.388C161.48 253.616 161.468 253.844 161.432 254.012H157.04C157.124 255.392 157.964 256.292 159.212 256.292C159.836 256.292 160.352 256.088 160.832 255.764L161.228 256.496C160.652 256.868 159.968 257.168 159.08 257.168ZM157.028 253.22H160.52C160.52 251.912 159.932 251.204 158.9 251.204C157.988 251.204 157.172 251.936 157.028 253.22ZM163.096 257V250.484H163.984L164.092 251.672H164.128C164.572 250.844 165.244 250.328 165.976 250.328C166.264 250.328 166.456 250.364 166.672 250.46L166.468 251.42C166.24 251.348 166.096 251.312 165.832 251.312C165.292 251.312 164.62 251.708 164.188 252.824V257H163.096Z" fill="#1E252C"/>
<path d="M2.31133 84V75.204H4.50733C7.21933 75.204 8.65933 76.776 8.65933 79.572C8.65933 82.368 7.21933 84 4.56733 84H2.31133ZM3.42733 83.088H4.42333C6.48733 83.088 7.51933 81.804 7.51933 79.572C7.51933 77.34 6.48733 76.116 4.42333 76.116H3.42733V83.088ZM10.477 84V77.484H11.569V84H10.477ZM11.029 76.14C10.597 76.14 10.297 75.864 10.297 75.408C10.297 74.988 10.597 74.712 11.029 74.712C11.449 74.712 11.761 74.988 11.761 75.408C11.761 75.864 11.449 76.14 11.029 76.14ZM15.4857 84.168C14.5617 84.168 13.6617 83.772 13.0497 83.268L13.5897 82.536C14.1537 82.992 14.7297 83.316 15.5097 83.316C16.3737 83.316 16.8057 82.86 16.8057 82.284C16.8057 81.624 16.0257 81.324 15.3057 81.06C14.4057 80.712 13.4097 80.28 13.4097 79.164C13.4097 78.132 14.2377 77.328 15.6537 77.328C16.4577 77.328 17.1777 77.652 17.6817 78.06L17.1537 78.756C16.7097 78.432 16.2417 78.18 15.6657 78.18C14.8377 78.18 14.4657 78.612 14.4657 79.116C14.4657 79.74 15.1257 79.98 15.8697 80.244C16.8177 80.604 17.8497 80.988 17.8497 82.224C17.8497 83.292 17.0217 84.168 15.4857 84.168ZM21.1303 84.168C19.7383 84.168 19.2823 83.292 19.2823 81.996V78.372H18.3103V77.556L19.3303 77.484L19.4503 75.648H20.3743V77.484H22.1383V78.372H20.3743V82.02C20.3743 82.812 20.6263 83.28 21.3823 83.28C21.6103 83.28 21.9103 83.184 22.1143 83.1L22.3303 83.916C21.9703 84.048 21.5383 84.168 21.1303 84.168ZM24.7856 84.168C23.6936 84.168 22.8776 83.484 22.8776 82.308C22.8776 80.892 24.1016 80.184 26.8736 79.872C26.8736 79.032 26.6096 78.228 25.5416 78.228C24.7736 78.228 24.0896 78.588 23.5856 78.936L23.1536 78.168C23.7536 77.784 24.6656 77.328 25.7096 77.328C27.3056 77.328 27.9776 78.384 27.9776 80.004V84H27.0776L26.9816 83.232H26.9336C26.3216 83.748 25.5896 84.168 24.7856 84.168ZM25.0856 83.28C25.7216 83.28 26.2496 82.98 26.8736 82.416V80.604C24.6776 80.856 23.9456 81.396 23.9456 82.236C23.9456 82.98 24.4496 83.28 25.0856 83.28ZM30.0474 84V77.484H30.9354L31.0434 78.432H31.0794C31.6914 77.82 32.3634 77.328 33.2634 77.328C34.6314 77.328 35.2554 78.216 35.2554 79.872V84H34.1514V80.016C34.1514 78.792 33.7794 78.276 32.9154 78.276C32.2554 78.276 31.7874 78.624 31.1394 79.272V84H30.0474ZM39.9276 84.168C38.1996 84.168 36.8796 82.908 36.8796 80.76C36.8796 78.576 38.3436 77.328 40.0116 77.328C40.8636 77.328 41.4636 77.676 41.9196 78.096L41.3676 78.816C40.9836 78.468 40.5756 78.24 40.0716 78.24C38.8716 78.24 38.0076 79.248 38.0076 80.76C38.0076 82.248 38.8356 83.256 40.0356 83.256C40.6236 83.256 41.1636 82.968 41.5716 82.608L42.0396 83.34C41.4636 83.856 40.7076 84.168 39.9276 84.168ZM45.8004 84.168C44.0604 84.168 42.6804 82.896 42.6804 80.76C42.6804 78.636 44.1084 77.328 45.6084 77.328C47.2644 77.328 48.2004 78.516 48.2004 80.388C48.2004 80.616 48.1884 80.844 48.1524 81.012H43.7604C43.8444 82.392 44.6844 83.292 45.9324 83.292C46.5564 83.292 47.0724 83.088 47.5524 82.764L47.9484 83.496C47.3724 83.868 46.6884 84.168 45.8004 84.168ZM43.7484 80.22H47.2404C47.2404 78.912 46.6524 78.204 45.6204 78.204C44.7084 78.204 43.8924 78.936 43.7484 80.22ZM52.6685 84V76.44C52.6685 75.132 53.2805 74.292 54.5765 74.292C54.9725 74.292 55.3565 74.388 55.6565 74.508L55.4285 75.348C55.1765 75.24 54.9245 75.18 54.6845 75.18C54.0605 75.18 53.7605 75.612 53.7605 76.464V84H52.6685ZM51.7805 78.372V77.556L52.7285 77.484H55.1525V78.372H51.7805ZM56.4028 84V77.484H57.2908L57.3988 78.672H57.4348C57.8788 77.844 58.5508 77.328 59.2828 77.328C59.5708 77.328 59.7628 77.364 59.9788 77.46L59.7748 78.42C59.5468 78.348 59.4028 78.312 59.1388 78.312C58.5988 78.312 57.9268 78.708 57.4948 79.824V84H56.4028ZM63.4231 84.168C61.8151 84.168 60.3991 82.908 60.3991 80.76C60.3991 78.576 61.8151 77.328 63.4231 77.328C65.0191 77.328 66.4351 78.576 66.4351 80.76C66.4351 82.908 65.0191 84.168 63.4231 84.168ZM63.4231 83.256C64.5511 83.256 65.3071 82.248 65.3071 80.76C65.3071 79.248 64.5511 78.24 63.4231 78.24C62.2831 78.24 61.5271 79.248 61.5271 80.76C61.5271 82.248 62.2831 83.256 63.4231 83.256ZM68.1685 84V77.484H69.0565L69.1645 78.432H69.2005C69.7645 77.82 70.4485 77.328 71.2285 77.328C72.2245 77.328 72.7645 77.796 73.0165 78.564C73.7005 77.844 74.3845 77.328 75.1765 77.328C76.5085 77.328 77.1565 78.216 77.1565 79.872V84H76.0645V80.016C76.0645 78.792 75.6805 78.276 74.8405 78.276C74.3365 78.276 73.8205 78.612 73.2085 79.272V84H72.1165V80.016C72.1165 78.792 71.7325 78.276 70.8925 78.276C70.4005 78.276 69.8485 78.612 69.2605 79.272V84H68.1685ZM84.0014 84.168C82.6094 84.168 82.1534 83.292 82.1534 81.996V78.372H81.1814V77.556L82.2014 77.484L82.3214 75.648H83.2454V77.484H85.0094V78.372H83.2454V82.02C83.2454 82.812 83.4974 83.28 84.2534 83.28C84.4814 83.28 84.7814 83.184 84.9854 83.1L85.2014 83.916C84.8414 84.048 84.4094 84.168 84.0014 84.168ZM88.8059 84.168C87.1979 84.168 85.7819 82.908 85.7819 80.76C85.7819 78.576 87.1979 77.328 88.8059 77.328C90.4019 77.328 91.8179 78.576 91.8179 80.76C91.8179 82.908 90.4019 84.168 88.8059 84.168ZM88.8059 83.256C89.9339 83.256 90.6899 82.248 90.6899 80.76C90.6899 79.248 89.9339 78.24 88.8059 78.24C87.6659 78.24 86.9099 79.248 86.9099 80.76C86.9099 82.248 87.6659 83.256 88.8059 83.256ZM93.5513 86.748V77.484H94.4393L94.5473 78.24H94.5833C95.1713 77.748 95.8913 77.328 96.6473 77.328C98.3393 77.328 99.2393 78.636 99.2393 80.652C99.2393 82.872 97.9073 84.168 96.4073 84.168C95.8193 84.168 95.2073 83.892 94.6193 83.412L94.6433 84.552V86.748H93.5513ZM96.2393 83.244C97.3073 83.244 98.1113 82.272 98.1113 80.664C98.1113 79.212 97.6193 78.24 96.3833 78.24C95.8313 78.24 95.2793 78.552 94.6433 79.14V82.572C95.2313 83.064 95.8073 83.244 96.2393 83.244Z" fill="#1E252C"/>
<line x1="98.3854" y1="30.8681" x2="118.036" y2="30.8681" stroke="#1E252C" stroke-width="0.611364"/>
<line x1="102.11" y1="31" x2="102.11" y2="164.277" stroke="#1E252C" stroke-width="0.611364"/>
<line x1="122.897" y1="229.082" x2="122.897" y2="240.087" stroke="#1E252C" stroke-width="0.611364"/>
<line x1="160.306" y1="214.408" x2="160.306" y2="240.085" stroke="#1E252C" stroke-width="0.611364"/>
<line x1="98.1365" y1="126.694" x2="140.932" y2="126.694" stroke="#1E252C" stroke-width="0.611364"/>
<line x1="98.1365" y1="163.694" x2="140.932" y2="163.694" stroke="#1E252C" stroke-width="0.611364"/>
<line x1="122.591" y1="234.89" x2="160.495" y2="234.89" stroke="#1E252C" stroke-width="0.611364"/>
<rect x="143.877" y="109.754" width="32.0136" height="109.045" stroke="#CE2C3F" stroke-dasharray="1.67 1.67"/>
<path d="M184.466 160V151.204H185.606L188.81 156.748L189.758 158.572H189.818C189.746 157.684 189.662 156.688 189.662 155.776V151.204H190.73V160H189.578L186.386 154.456L185.438 152.644H185.378C185.438 153.532 185.522 154.456 185.522 155.392V160H184.466ZM194.938 160.168C193.57 160.168 192.946 159.28 192.946 157.612V153.484H194.038V157.48C194.038 158.692 194.41 159.208 195.274 159.208C195.934 159.208 196.414 158.884 197.026 158.116V153.484H198.118V160H197.218L197.122 158.98H197.098C196.486 159.688 195.838 160.168 194.938 160.168ZM200.331 160V153.484H201.219L201.327 154.432H201.363C201.927 153.82 202.611 153.328 203.391 153.328C204.387 153.328 204.927 153.796 205.179 154.564C205.863 153.844 206.547 153.328 207.339 153.328C208.671 153.328 209.319 154.216 209.319 155.872V160H208.227V156.016C208.227 154.792 207.843 154.276 207.003 154.276C206.499 154.276 205.983 154.612 205.371 155.272V160H204.279V156.016C204.279 154.792 203.895 154.276 203.055 154.276C202.563 154.276 202.011 154.612 201.423 155.272V160H200.331ZM214.296 160.168C213.696 160.168 213.012 159.856 212.448 159.328H212.412L212.304 160H211.44V150.46H212.532V153.064L212.484 154.24C213.084 153.724 213.804 153.328 214.536 153.328C216.216 153.328 217.128 154.636 217.128 156.64C217.128 158.872 215.796 160.168 214.296 160.168ZM214.128 159.244C215.196 159.244 216 158.272 216 156.664C216 155.212 215.508 154.24 214.272 154.24C213.72 154.24 213.144 154.552 212.532 155.14V158.572C213.096 159.064 213.696 159.244 214.128 159.244ZM221.486 160.168C219.746 160.168 218.366 158.896 218.366 156.76C218.366 154.636 219.794 153.328 221.294 153.328C222.95 153.328 223.886 154.516 223.886 156.388C223.886 156.616 223.874 156.844 223.838 157.012H219.446C219.53 158.392 220.37 159.292 221.618 159.292C222.242 159.292 222.758 159.088 223.238 158.764L223.634 159.496C223.058 159.868 222.374 160.168 221.486 160.168ZM219.434 156.22H222.926C222.926 154.912 222.338 154.204 221.306 154.204C220.394 154.204 219.578 154.936 219.434 156.22ZM225.502 160V153.484H226.39L226.498 154.672H226.534C226.978 153.844 227.65 153.328 228.382 153.328C228.67 153.328 228.862 153.364 229.078 153.46L228.874 154.42C228.646 154.348 228.502 154.312 228.238 154.312C227.698 154.312 227.026 154.708 226.594 155.824V160H225.502ZM185.624 179.748V170.484H186.512L186.62 171.24H186.656C187.244 170.748 187.964 170.328 188.72 170.328C190.412 170.328 191.312 171.636 191.312 173.652C191.312 175.872 189.98 177.168 188.48 177.168C187.892 177.168 187.28 176.892 186.692 176.412L186.716 177.552V179.748H185.624ZM188.312 176.244C189.38 176.244 190.184 175.272 190.184 173.664C190.184 172.212 189.692 171.24 188.456 171.24C187.904 171.24 187.352 171.552 186.716 172.14V175.572C187.304 176.064 187.88 176.244 188.312 176.244ZM195.693 177.168C193.953 177.168 192.573 175.896 192.573 173.76C192.573 171.636 194.001 170.328 195.501 170.328C197.157 170.328 198.093 171.516 198.093 173.388C198.093 173.616 198.081 173.844 198.045 174.012H193.653C193.737 175.392 194.577 176.292 195.825 176.292C196.449 176.292 196.965 176.088 197.445 175.764L197.841 176.496C197.265 176.868 196.581 177.168 195.693 177.168ZM193.641 173.22H197.133C197.133 171.912 196.545 171.204 195.513 171.204C194.601 171.204 193.785 171.936 193.641 173.22ZM199.709 177V170.484H200.597L200.705 171.672H200.741C201.185 170.844 201.857 170.328 202.589 170.328C202.877 170.328 203.069 170.364 203.285 170.46L203.081 171.42C202.853 171.348 202.709 171.312 202.445 171.312C201.905 171.312 201.233 171.708 200.801 172.824V177H199.709ZM209.577 177.168C208.341 177.168 207.273 176.664 206.505 175.86L207.165 175.092C207.801 175.764 208.689 176.184 209.601 176.184C210.753 176.184 211.437 175.608 211.437 174.756C211.437 173.844 210.801 173.556 209.973 173.196L208.713 172.644C207.885 172.296 206.925 171.672 206.925 170.388C206.925 169.032 208.089 168.048 209.697 168.048C210.741 168.048 211.665 168.492 212.277 169.14L211.689 169.848C211.149 169.344 210.501 169.02 209.697 169.02C208.701 169.02 208.053 169.524 208.053 170.304C208.053 171.168 208.821 171.48 209.505 171.768L210.753 172.308C211.785 172.752 212.565 173.364 212.565 174.672C212.565 176.064 211.425 177.168 209.577 177.168ZM214.194 177V170.484H215.286V177H214.194ZM214.746 169.14C214.314 169.14 214.014 168.864 214.014 168.408C214.014 167.988 214.314 167.712 214.746 167.712C215.166 167.712 215.478 167.988 215.478 168.408C215.478 168.864 215.166 169.14 214.746 169.14ZM219.707 177.168C218.075 177.168 217.019 175.932 217.019 173.76C217.019 171.636 218.363 170.328 219.851 170.328C220.607 170.328 221.111 170.604 221.675 171.084L221.627 169.956V167.46H222.719V177H221.819L221.723 176.232H221.699C221.183 176.748 220.499 177.168 219.707 177.168ZM219.947 176.244C220.559 176.244 221.087 175.944 221.627 175.356V171.936C221.075 171.432 220.571 171.24 220.031 171.24C218.987 171.24 218.159 172.26 218.159 173.748C218.159 175.308 218.807 176.244 219.947 176.244ZM227.568 177.168C225.828 177.168 224.448 175.896 224.448 173.76C224.448 171.636 225.876 170.328 227.376 170.328C229.032 170.328 229.968 171.516 229.968 173.388C229.968 173.616 229.956 173.844 229.92 174.012H225.528C225.612 175.392 226.452 176.292 227.7 176.292C228.324 176.292 228.84 176.088 229.32 175.764L229.716 176.496C229.14 176.868 228.456 177.168 227.568 177.168ZM225.516 173.22H229.008C229.008 171.912 228.42 171.204 227.388 171.204C226.476 171.204 225.66 171.936 225.516 173.22Z" fill="#CE2C3F"/>
</svg>
