<svg width="360" height="328" viewBox="0 0 360 328" fill="none" xmlns="http://www.w3.org/2000/svg">
<rect width="360" height="328" fill="white"/>
<path d="M43.6443 49H341.096V129.06H274.331V279H111.904V129.06H43.6443V49Z" fill="#D9D9D9"/>
<circle cx="141.974" cy="164.008" r="3.68" fill="#1E252C"/>
<circle cx="141.974" cy="201.78" r="3.68" fill="#1E252C"/>
<circle cx="141.974" cy="126.237" r="3.68" fill="#1E252C"/>
<circle cx="237.245" cy="164.008" r="3.68" fill="#1E252C"/>
<circle cx="237.245" cy="201.78" r="3.68" fill="#1E252C"/>
<circle cx="237.245" cy="126.237" r="3.68" fill="#1E252C"/>
<circle cx="143.891" cy="66.68" r="3.68" fill="white"/>
<circle cx="176.387" cy="66.68" r="3.68" fill="white"/>
<circle cx="208.882" cy="66.68" r="3.68" fill="white"/>
<circle cx="159.656" cy="88.346" r="3.68" fill="white"/>
<circle cx="192.152" cy="88.346" r="3.68" fill="white"/>
<circle cx="224.647" cy="88.346" r="3.68" fill="white"/>
<circle cx="241.377" cy="66.68" r="3.68" fill="white"/>
<circle cx="141.68" cy="256.873" r="3.68" fill="white"/>
<circle cx="174.175" cy="256.873" r="3.68" fill="white"/>
<circle cx="206.67" cy="256.873" r="3.68" fill="white"/>
<circle cx="157.445" cy="237.625" r="3.68" fill="white"/>
<circle cx="189.94" cy="237.625" r="3.68" fill="white"/>
<circle cx="222.435" cy="237.625" r="3.68" fill="white"/>
<circle cx="239.166" cy="256.873" r="3.68" fill="white"/>
<path d="M18.4188 142V133.204H19.5348V142H18.4188ZM21.8384 142V135.484H22.7264L22.8344 136.432H22.8704C23.4824 135.82 24.1544 135.328 25.0544 135.328C26.4224 135.328 27.0464 136.216 27.0464 137.872V142H25.9424V138.016C25.9424 136.792 25.5704 136.276 24.7064 136.276C24.0464 136.276 23.5784 136.624 22.9304 137.272V142H21.8384ZM31.2026 142.168C29.8106 142.168 29.3546 141.292 29.3546 139.996V136.372H28.3826V135.556L29.4026 135.484L29.5226 133.648H30.4466V135.484H32.2106V136.372H30.4466V140.02C30.4466 140.812 30.6986 141.28 31.4546 141.28C31.6826 141.28 31.9826 141.184 32.1866 141.1L32.4026 141.916C32.0426 142.048 31.6106 142.168 31.2026 142.168ZM36.1031 142.168C34.3631 142.168 32.9831 140.896 32.9831 138.76C32.9831 136.636 34.4111 135.328 35.9111 135.328C37.5671 135.328 38.5031 136.516 38.5031 138.388C38.5031 138.616 38.4911 138.844 38.4551 139.012H34.0631C34.1471 140.392 34.9871 141.292 36.2351 141.292C36.8591 141.292 37.3751 141.088 37.8551 140.764L38.2511 141.496C37.6751 141.868 36.9911 142.168 36.1031 142.168ZM34.0511 138.22H37.5431C37.5431 136.912 36.9551 136.204 35.9231 136.204C35.0111 136.204 34.1951 136.936 34.0511 138.22ZM40.1196 142V135.484H41.0076L41.1156 136.672H41.1516C41.5956 135.844 42.2676 135.328 42.9996 135.328C43.2876 135.328 43.4796 135.364 43.6956 135.46L43.4916 136.42C43.2636 136.348 43.1196 136.312 42.8556 136.312C42.3156 136.312 41.6436 136.708 41.2116 137.824V142H40.1196ZM46.4807 142L44.1287 135.484H45.2567L46.4927 139.204C46.6847 139.84 46.8887 140.5 47.0927 141.112H47.1407C47.3447 140.5 47.5487 139.84 47.7407 139.204L48.9887 135.484H50.0567L47.7527 142H46.4807ZM52.5298 142.168C51.4378 142.168 50.6218 141.484 50.6218 140.308C50.6218 138.892 51.8458 138.184 54.6178 137.872C54.6178 137.032 54.3538 136.228 53.2858 136.228C52.5178 136.228 51.8338 136.588 51.3298 136.936L50.8978 136.168C51.4978 135.784 52.4098 135.328 53.4538 135.328C55.0498 135.328 55.7218 136.384 55.7218 138.004V142H54.8218L54.7258 141.232H54.6778C54.0658 141.748 53.3338 142.168 52.5298 142.168ZM52.8298 141.28C53.4658 141.28 53.9938 140.98 54.6178 140.416V138.604C52.4218 138.856 51.6898 139.396 51.6898 140.236C51.6898 140.98 52.1938 141.28 52.8298 141.28ZM58.9435 142.168C58.1155 142.168 57.7915 141.64 57.7915 140.704V132.46H58.8835V140.776C58.8835 141.124 59.0275 141.256 59.1955 141.256C59.2435 141.256 59.2915 141.256 59.4235 141.232L59.5675 142.072C59.4115 142.12 59.2435 142.168 58.9435 142.168ZM16.6785 159V150.204H19.2825C21.0705 150.204 22.3065 150.816 22.3065 152.364C22.3065 153.228 21.8505 153.996 21.0225 154.272V154.32C22.0785 154.524 22.8105 155.232 22.8105 156.432C22.8105 158.148 21.4425 159 19.4865 159H16.6785ZM17.7945 153.948H19.0905C20.6025 153.948 21.2145 153.396 21.2145 152.496C21.2145 151.464 20.5185 151.08 19.1505 151.08H17.7945V153.948ZM17.7945 158.124H19.3305C20.8305 158.124 21.7305 157.584 21.7305 156.396C21.7305 155.304 20.8665 154.8 19.3305 154.8H17.7945V158.124ZM27.0972 159.168C25.3572 159.168 23.9772 157.896 23.9772 155.76C23.9772 153.636 25.4052 152.328 26.9052 152.328C28.5612 152.328 29.4972 153.516 29.4972 155.388C29.4972 155.616 29.4852 155.844 29.4492 156.012H25.0572C25.1412 157.392 25.9812 158.292 27.2292 158.292C27.8532 158.292 28.3692 158.088 28.8492 157.764L29.2452 158.496C28.6692 158.868 27.9852 159.168 27.0972 159.168ZM25.0452 155.22H28.5372C28.5372 153.912 27.9492 153.204 26.9172 153.204C26.0052 153.204 25.1892 153.936 25.0452 155.22ZM32.9897 159.168C31.5977 159.168 31.1417 158.292 31.1417 156.996V153.372H30.1697V152.556L31.1897 152.484L31.3097 150.648H32.2337V152.484H33.9977V153.372H32.2337V157.02C32.2337 157.812 32.4857 158.28 33.2417 158.28C33.4697 158.28 33.7697 158.184 33.9737 158.1L34.1897 158.916C33.8297 159.048 33.3977 159.168 32.9897 159.168ZM36.5051 159L34.6811 152.484H35.7971L36.7811 156.264C36.9131 156.888 37.0331 157.464 37.1531 158.076H37.2131C37.3571 157.464 37.4891 156.876 37.6571 156.264L38.6651 152.484H39.7331L40.7651 156.264C40.9211 156.888 41.0651 157.464 41.2211 158.076H41.2691C41.4011 157.464 41.5211 156.888 41.6771 156.264L42.6251 152.484H43.6691L41.9171 159H40.5851L39.6371 155.496C39.4691 154.872 39.3491 154.284 39.1931 153.612H39.1331C39.0011 154.284 38.8691 154.884 38.6891 155.508L37.7771 159H36.5051ZM47.6402 159.168C45.9002 159.168 44.5202 157.896 44.5202 155.76C44.5202 153.636 45.9482 152.328 47.4482 152.328C49.1042 152.328 50.0402 153.516 50.0402 155.388C50.0402 155.616 50.0282 155.844 49.9922 156.012H45.6002C45.6842 157.392 46.5242 158.292 47.7722 158.292C48.3962 158.292 48.9122 158.088 49.3922 157.764L49.7882 158.496C49.2122 158.868 48.5282 159.168 47.6402 159.168ZM45.5882 155.22H49.0802C49.0802 153.912 48.4922 153.204 47.4602 153.204C46.5482 153.204 45.7322 153.936 45.5882 155.22ZM54.2847 159.168C52.5447 159.168 51.1647 157.896 51.1647 155.76C51.1647 153.636 52.5927 152.328 54.0927 152.328C55.7487 152.328 56.6847 153.516 56.6847 155.388C56.6847 155.616 56.6727 155.844 56.6367 156.012H52.2447C52.3287 157.392 53.1687 158.292 54.4167 158.292C55.0407 158.292 55.5567 158.088 56.0367 157.764L56.4327 158.496C55.8567 158.868 55.1727 159.168 54.2847 159.168ZM52.2327 155.22H55.7247C55.7247 153.912 55.1367 153.204 54.1047 153.204C53.1927 153.204 52.3767 153.936 52.2327 155.22ZM58.3013 159V152.484H59.1893L59.2973 153.432H59.3333C59.9453 152.82 60.6173 152.328 61.5173 152.328C62.8853 152.328 63.5093 153.216 63.5093 154.872V159H62.4053V155.016C62.4053 153.792 62.0333 153.276 61.1693 153.276C60.5093 153.276 60.0413 153.624 59.3933 154.272V159H58.3013ZM23.0594 176V167.204H24.1754V175.064H28.0154V176H23.0594ZM30.979 176.168C29.887 176.168 29.071 175.484 29.071 174.308C29.071 172.892 30.295 172.184 33.067 171.872C33.067 171.032 32.803 170.228 31.735 170.228C30.967 170.228 30.283 170.588 29.779 170.936L29.347 170.168C29.947 169.784 30.859 169.328 31.903 169.328C33.499 169.328 34.171 170.384 34.171 172.004V176H33.271L33.175 175.232H33.127C32.515 175.748 31.783 176.168 30.979 176.168ZM31.279 175.28C31.915 175.28 32.443 174.98 33.067 174.416V172.604C30.871 172.856 30.139 173.396 30.139 174.236C30.139 174.98 30.643 175.28 31.279 175.28ZM36.3367 178.82C36.0367 178.82 35.7847 178.772 35.5807 178.688L35.7967 177.812C35.9167 177.86 36.1087 177.908 36.2887 177.908C37.0207 177.908 37.4887 177.308 37.7647 176.504L37.9087 176.012L35.2927 169.484H36.4207L37.7527 173.108C37.9567 173.684 38.1727 174.344 38.3887 174.944H38.4487C38.6287 174.344 38.8207 173.696 38.9887 173.108L40.1647 169.484H41.2327L38.7727 176.552C38.3167 177.836 37.6447 178.82 36.3367 178.82ZM45.0445 176.168C43.3045 176.168 41.9245 174.896 41.9245 172.76C41.9245 170.636 43.3525 169.328 44.8525 169.328C46.5085 169.328 47.4445 170.516 47.4445 172.388C47.4445 172.616 47.4325 172.844 47.3965 173.012H43.0045C43.0885 174.392 43.9285 175.292 45.1765 175.292C45.8005 175.292 46.3165 175.088 46.7965 174.764L47.1925 175.496C46.6165 175.868 45.9325 176.168 45.0445 176.168ZM42.9925 172.22H46.4845C46.4845 170.912 45.8965 170.204 44.8645 170.204C43.9525 170.204 43.1365 170.936 42.9925 172.22ZM49.061 176V169.484H49.949L50.057 170.672H50.093C50.537 169.844 51.209 169.328 51.941 169.328C52.229 169.328 52.421 169.364 52.637 169.46L52.433 170.42C52.205 170.348 52.061 170.312 51.797 170.312C51.257 170.312 50.585 170.708 50.153 171.824V176H49.061ZM55.3353 176.168C54.4113 176.168 53.5113 175.772 52.8993 175.268L53.4393 174.536C54.0033 174.992 54.5793 175.316 55.3593 175.316C56.2233 175.316 56.6553 174.86 56.6553 174.284C56.6553 173.624 55.8753 173.324 55.1553 173.06C54.2553 172.712 53.2593 172.28 53.2593 171.164C53.2593 170.132 54.0873 169.328 55.5033 169.328C56.3073 169.328 57.0273 169.652 57.5313 170.06L57.0033 170.756C56.5593 170.432 56.0913 170.18 55.5153 170.18C54.6873 170.18 54.3153 170.612 54.3153 171.116C54.3153 171.74 54.9753 171.98 55.7193 172.244C56.6673 172.604 57.6993 172.988 57.6993 174.224C57.6993 175.292 56.8713 176.168 55.3353 176.168Z" fill="#1E252C"/>
<path d="M59.8569 267.523C58.6209 267.523 57.5529 267.019 56.7849 266.215L57.4449 265.447C58.0809 266.119 58.9689 266.539 59.8809 266.539C61.0329 266.539 61.7169 265.963 61.7169 265.111C61.7169 264.199 61.0809 263.911 60.2529 263.551L58.9929 262.999C58.1649 262.651 57.2049 262.027 57.2049 260.743C57.2049 259.387 58.3689 258.403 59.9769 258.403C61.0209 258.403 61.9449 258.847 62.5569 259.495L61.9689 260.203C61.4289 259.699 60.7809 259.375 59.9769 259.375C58.9809 259.375 58.3329 259.879 58.3329 260.659C58.3329 261.523 59.1009 261.835 59.7849 262.123L61.0329 262.663C62.0649 263.107 62.8449 263.719 62.8449 265.027C62.8449 266.419 61.7049 267.523 59.8569 267.523ZM64.4733 267.355V260.839H65.5653V267.355H64.4733ZM65.0253 259.495C64.5933 259.495 64.2933 259.219 64.2933 258.763C64.2933 258.343 64.5933 258.067 65.0253 258.067C65.4453 258.067 65.7573 258.343 65.7573 258.763C65.7573 259.219 65.4453 259.495 65.0253 259.495ZM69.986 267.523C68.354 267.523 67.298 266.287 67.298 264.115C67.298 261.991 68.642 260.683 70.13 260.683C70.886 260.683 71.39 260.959 71.954 261.439L71.906 260.311V257.815H72.998V267.355H72.098L72.002 266.587H71.978C71.462 267.103 70.778 267.523 69.986 267.523ZM70.226 266.599C70.838 266.599 71.366 266.299 71.906 265.711V262.291C71.354 261.787 70.85 261.595 70.31 261.595C69.266 261.595 68.438 262.615 68.438 264.103C68.438 265.663 69.086 266.599 70.226 266.599ZM77.8474 267.523C76.1074 267.523 74.7274 266.251 74.7274 264.115C74.7274 261.991 76.1554 260.683 77.6554 260.683C79.3114 260.683 80.2474 261.871 80.2474 263.743C80.2474 263.971 80.2354 264.199 80.1994 264.367H75.8074C75.8914 265.747 76.7314 266.647 77.9794 266.647C78.6034 266.647 79.1194 266.443 79.5994 266.119L79.9954 266.851C79.4194 267.223 78.7354 267.523 77.8474 267.523ZM75.7954 263.575H79.2874C79.2874 262.267 78.6994 261.559 77.6674 261.559C76.7554 261.559 75.9394 262.291 75.7954 263.575ZM87.9675 267.523C85.7715 267.523 84.1395 265.819 84.1395 262.963C84.1395 260.131 85.8075 258.403 88.0395 258.403C89.1075 258.403 89.9355 258.919 90.4515 259.483L89.8395 260.203C89.3835 259.711 88.7955 259.375 88.0515 259.375C86.3835 259.375 85.2795 260.743 85.2795 262.939C85.2795 265.159 86.3355 266.539 88.0155 266.539C88.8435 266.539 89.4915 266.179 90.0555 265.555L90.6555 266.251C89.9595 267.067 89.1075 267.523 87.9675 267.523ZM94.7319 267.523C93.1239 267.523 91.7079 266.263 91.7079 264.115C91.7079 261.931 93.1239 260.683 94.7319 260.683C96.3279 260.683 97.7439 261.931 97.7439 264.115C97.7439 266.263 96.3279 267.523 94.7319 267.523ZM94.7319 266.611C95.8599 266.611 96.6159 265.603 96.6159 264.115C96.6159 262.603 95.8599 261.595 94.7319 261.595C93.5919 261.595 92.8359 262.603 92.8359 264.115C92.8359 265.603 93.5919 266.611 94.7319 266.611ZM99.4772 267.355V260.839H100.365L100.473 262.027H100.509C100.953 261.199 101.625 260.683 102.357 260.683C102.645 260.683 102.837 260.719 103.053 260.815L102.849 261.775C102.621 261.703 102.477 261.667 102.213 261.667C101.673 261.667 101.001 262.063 100.569 263.179V267.355H99.4772ZM106.594 267.523C104.854 267.523 103.474 266.251 103.474 264.115C103.474 261.991 104.902 260.683 106.402 260.683C108.058 260.683 108.994 261.871 108.994 263.743C108.994 263.971 108.982 264.199 108.946 264.367H104.554C104.638 265.747 105.478 266.647 106.726 266.647C107.35 266.647 107.866 266.443 108.346 266.119L108.742 266.851C108.166 267.223 107.482 267.523 106.594 267.523ZM104.542 263.575H108.034C108.034 262.267 107.446 261.559 106.414 261.559C105.502 261.559 104.686 262.291 104.542 263.575ZM116.714 267.523C114.518 267.523 112.886 265.819 112.886 262.963C112.886 260.131 114.554 258.403 116.786 258.403C117.854 258.403 118.682 258.919 119.198 259.483L118.586 260.203C118.13 259.711 117.542 259.375 116.798 259.375C115.13 259.375 114.026 260.743 114.026 262.939C114.026 265.159 115.082 266.539 116.762 266.539C117.59 266.539 118.238 266.179 118.802 265.555L119.402 266.251C118.706 267.067 117.854 267.523 116.714 267.523ZM123.478 267.523C121.87 267.523 120.454 266.263 120.454 264.115C120.454 261.931 121.87 260.683 123.478 260.683C125.074 260.683 126.49 261.931 126.49 264.115C126.49 266.263 125.074 267.523 123.478 267.523ZM123.478 266.611C124.606 266.611 125.362 265.603 125.362 264.115C125.362 262.603 124.606 261.595 123.478 261.595C122.338 261.595 121.582 262.603 121.582 264.115C121.582 265.603 122.338 266.611 123.478 266.611ZM129.545 267.355L127.193 260.839H128.321L129.557 264.559C129.749 265.195 129.953 265.855 130.157 266.467H130.205C130.409 265.855 130.613 265.195 130.805 264.559L132.053 260.839H133.121L130.817 267.355H129.545ZM136.945 267.523C135.205 267.523 133.825 266.251 133.825 264.115C133.825 261.991 135.253 260.683 136.753 260.683C138.409 260.683 139.345 261.871 139.345 263.743C139.345 263.971 139.333 264.199 139.297 264.367H134.905C134.989 265.747 135.829 266.647 137.077 266.647C137.701 266.647 138.217 266.443 138.697 266.119L139.093 266.851C138.517 267.223 137.833 267.523 136.945 267.523ZM134.893 263.575H138.385C138.385 262.267 137.797 261.559 136.765 261.559C135.853 261.559 135.037 262.291 134.893 263.575ZM140.962 267.355V260.839H141.85L141.958 262.027H141.994C142.438 261.199 143.11 260.683 143.842 260.683C144.13 260.683 144.322 260.719 144.538 260.815L144.334 261.775C144.106 261.703 143.962 261.667 143.698 261.667C143.158 261.667 142.486 262.063 142.054 263.179V267.355H140.962Z" fill="#1E252C"/>
<path d="M17.8485 87V78.204H20.0445C22.7565 78.204 24.1965 79.776 24.1965 82.572C24.1965 85.368 22.7565 87 20.1045 87H17.8485ZM18.9645 86.088H19.9605C22.0245 86.088 23.0565 84.804 23.0565 82.572C23.0565 80.34 22.0245 79.116 19.9605 79.116H18.9645V86.088ZM26.0142 87V80.484H27.1062V87H26.0142ZM26.5662 79.14C26.1342 79.14 25.8342 78.864 25.8342 78.408C25.8342 77.988 26.1342 77.712 26.5662 77.712C26.9862 77.712 27.2982 77.988 27.2982 78.408C27.2982 78.864 26.9862 79.14 26.5662 79.14ZM31.0229 87.168C30.0989 87.168 29.1989 86.772 28.5869 86.268L29.1269 85.536C29.6909 85.992 30.2669 86.316 31.0469 86.316C31.9109 86.316 32.3429 85.86 32.3429 85.284C32.3429 84.624 31.5629 84.324 30.8429 84.06C29.9429 83.712 28.9469 83.28 28.9469 82.164C28.9469 81.132 29.7749 80.328 31.1909 80.328C31.9949 80.328 32.7149 80.652 33.2189 81.06L32.6909 81.756C32.2469 81.432 31.7789 81.18 31.2029 81.18C30.3749 81.18 30.0029 81.612 30.0029 82.116C30.0029 82.74 30.6629 82.98 31.4069 83.244C32.3549 83.604 33.3869 83.988 33.3869 85.224C33.3869 86.292 32.5589 87.168 31.0229 87.168ZM36.6675 87.168C35.2755 87.168 34.8195 86.292 34.8195 84.996V81.372H33.8475V80.556L34.8675 80.484L34.9875 78.648H35.9115V80.484H37.6755V81.372H35.9115V85.02C35.9115 85.812 36.1635 86.28 36.9195 86.28C37.1475 86.28 37.4475 86.184 37.6515 86.1L37.8675 86.916C37.5075 87.048 37.0755 87.168 36.6675 87.168ZM40.3228 87.168C39.2308 87.168 38.4148 86.484 38.4148 85.308C38.4148 83.892 39.6388 83.184 42.4108 82.872C42.4108 82.032 42.1468 81.228 41.0788 81.228C40.3108 81.228 39.6268 81.588 39.1228 81.936L38.6908 81.168C39.2908 80.784 40.2028 80.328 41.2468 80.328C42.8428 80.328 43.5148 81.384 43.5148 83.004V87H42.6148L42.5188 86.232H42.4708C41.8588 86.748 41.1268 87.168 40.3228 87.168ZM40.6228 86.28C41.2588 86.28 41.7868 85.98 42.4108 85.416V83.604C40.2148 83.856 39.4828 84.396 39.4828 85.236C39.4828 85.98 39.9868 86.28 40.6228 86.28ZM45.5846 87V80.484H46.4726L46.5806 81.432H46.6166C47.2286 80.82 47.9006 80.328 48.8006 80.328C50.1686 80.328 50.7926 81.216 50.7926 82.872V87H49.6886V83.016C49.6886 81.792 49.3166 81.276 48.4526 81.276C47.7926 81.276 47.3246 81.624 46.6766 82.272V87H45.5846ZM55.4648 87.168C53.7368 87.168 52.4168 85.908 52.4168 83.76C52.4168 81.576 53.8808 80.328 55.5488 80.328C56.4008 80.328 57.0008 80.676 57.4568 81.096L56.9048 81.816C56.5208 81.468 56.1128 81.24 55.6088 81.24C54.4088 81.24 53.5448 82.248 53.5448 83.76C53.5448 85.248 54.3728 86.256 55.5728 86.256C56.1608 86.256 56.7008 85.968 57.1088 85.608L57.5768 86.34C57.0008 86.856 56.2448 87.168 55.4648 87.168ZM61.3376 87.168C59.5976 87.168 58.2176 85.896 58.2176 83.76C58.2176 81.636 59.6456 80.328 61.1456 80.328C62.8016 80.328 63.7376 81.516 63.7376 83.388C63.7376 83.616 63.7256 83.844 63.6896 84.012H59.2976C59.3816 85.392 60.2216 86.292 61.4696 86.292C62.0936 86.292 62.6096 86.088 63.0896 85.764L63.4856 86.496C62.9096 86.868 62.2256 87.168 61.3376 87.168ZM59.2856 83.22H62.7776C62.7776 81.912 62.1896 81.204 61.1576 81.204C60.2456 81.204 59.4296 81.936 59.2856 83.22ZM17.4752 99V91.44C17.4752 90.132 18.0872 89.292 19.3832 89.292C19.7792 89.292 20.1632 89.388 20.4632 89.508L20.2352 90.348C19.9832 90.24 19.7312 90.18 19.4912 90.18C18.8672 90.18 18.5672 90.612 18.5672 91.464V99H17.4752ZM16.5872 93.372V92.556L17.5352 92.484H19.9592V93.372H16.5872ZM21.2096 99V92.484H22.0976L22.2056 93.672H22.2416C22.6856 92.844 23.3576 92.328 24.0896 92.328C24.3776 92.328 24.5696 92.364 24.7856 92.46L24.5816 93.42C24.3536 93.348 24.2096 93.312 23.9456 93.312C23.4056 93.312 22.7336 93.708 22.3016 94.824V99H21.2096ZM28.2298 99.168C26.6218 99.168 25.2058 97.908 25.2058 95.76C25.2058 93.576 26.6218 92.328 28.2298 92.328C29.8258 92.328 31.2418 93.576 31.2418 95.76C31.2418 97.908 29.8258 99.168 28.2298 99.168ZM28.2298 98.256C29.3578 98.256 30.1138 97.248 30.1138 95.76C30.1138 94.248 29.3578 93.24 28.2298 93.24C27.0898 93.24 26.3338 94.248 26.3338 95.76C26.3338 97.248 27.0898 98.256 28.2298 98.256ZM32.9752 99V92.484H33.8632L33.9712 93.432H34.0072C34.5712 92.82 35.2552 92.328 36.0352 92.328C37.0312 92.328 37.5712 92.796 37.8232 93.564C38.5072 92.844 39.1912 92.328 39.9832 92.328C41.3152 92.328 41.9632 93.216 41.9632 94.872V99H40.8712V95.016C40.8712 93.792 40.4872 93.276 39.6472 93.276C39.1432 93.276 38.6272 93.612 38.0152 94.272V99H36.9232V95.016C36.9232 93.792 36.5392 93.276 35.6992 93.276C35.2072 93.276 34.6552 93.612 34.0672 94.272V99H32.9752ZM48.8081 99.168C47.4161 99.168 46.9601 98.292 46.9601 96.996V93.372H45.9881V92.556L47.0081 92.484L47.1281 90.648H48.0521V92.484H49.8161V93.372H48.0521V97.02C48.0521 97.812 48.3041 98.28 49.0601 98.28C49.2881 98.28 49.5881 98.184 49.7921 98.1L50.0081 98.916C49.6481 99.048 49.2161 99.168 48.8081 99.168ZM53.6126 99.168C52.0046 99.168 50.5886 97.908 50.5886 95.76C50.5886 93.576 52.0046 92.328 53.6126 92.328C55.2086 92.328 56.6246 93.576 56.6246 95.76C56.6246 97.908 55.2086 99.168 53.6126 99.168ZM53.6126 98.256C54.7406 98.256 55.4966 97.248 55.4966 95.76C55.4966 94.248 54.7406 93.24 53.6126 93.24C52.4726 93.24 51.7166 94.248 51.7166 95.76C51.7166 97.248 52.4726 98.256 53.6126 98.256ZM58.358 101.748V92.484H59.246L59.354 93.24H59.39C59.978 92.748 60.698 92.328 61.454 92.328C63.146 92.328 64.046 93.636 64.046 95.652C64.046 97.872 62.714 99.168 61.214 99.168C60.626 99.168 60.014 98.892 59.426 98.412L59.45 99.552V101.748H58.358ZM61.046 98.244C62.114 98.244 62.918 97.272 62.918 95.664C62.918 94.212 62.426 93.24 61.19 93.24C60.638 93.24 60.086 93.552 59.45 94.14V97.572C60.038 98.064 60.614 98.244 61.046 98.244Z" fill="#1E252C"/>
<line x1="81.338" y1="49" x2="81.338" y2="164" stroke="#1E252C" stroke-width="0.676027"/>
<line x1="142.338" y1="215" x2="142.338" y2="250.385" stroke="#1E252C" stroke-width="0.676027"/>
<line x1="111.8" y1="238.086" x2="111.8" y2="250.254" stroke="#1E252C" stroke-width="0.676027"/>
<line x1="76.8174" y1="125.662" x2="124.139" y2="125.662" stroke="#1E252C" stroke-width="0.676027"/>
<line x1="76.9681" y1="48.662" x2="124.29" y2="48.662" stroke="#1E252C" stroke-width="0.676027"/>
<line x1="76.968" y1="163.662" x2="124.29" y2="163.662" stroke="#1E252C" stroke-width="0.676027"/>
<line x1="112" y1="244.662" x2="142" y2="244.662" stroke="#1E252C" stroke-width="0.676027"/>
<rect x="124.5" y="112.529" width="35.4904" height="107.365" stroke="#CE2C3F" stroke-dasharray="1.85 1.85"/>
<path d="M166.062 161.049V152.253H167.202L170.406 157.797L171.354 159.621H171.414C171.342 158.733 171.258 157.737 171.258 156.825V152.253H172.326V161.049H171.174L167.982 155.505L167.034 153.693H166.974C167.034 154.581 167.118 155.505 167.118 156.441V161.049H166.062ZM176.534 161.217C175.166 161.217 174.542 160.329 174.542 158.661V154.533H175.634V158.529C175.634 159.741 176.006 160.257 176.87 160.257C177.53 160.257 178.01 159.933 178.622 159.165V154.533H179.714V161.049H178.814L178.718 160.029H178.694C178.082 160.737 177.434 161.217 176.534 161.217ZM181.927 161.049V154.533H182.815L182.923 155.481H182.959C183.523 154.869 184.207 154.377 184.987 154.377C185.983 154.377 186.523 154.845 186.775 155.613C187.459 154.893 188.143 154.377 188.935 154.377C190.267 154.377 190.915 155.265 190.915 156.921V161.049H189.823V157.065C189.823 155.841 189.439 155.325 188.599 155.325C188.095 155.325 187.579 155.661 186.967 156.321V161.049H185.875V157.065C185.875 155.841 185.491 155.325 184.651 155.325C184.159 155.325 183.607 155.661 183.019 156.321V161.049H181.927ZM195.892 161.217C195.292 161.217 194.608 160.905 194.044 160.377H194.008L193.9 161.049H193.036V151.509H194.128V154.113L194.08 155.289C194.68 154.773 195.4 154.377 196.132 154.377C197.812 154.377 198.724 155.685 198.724 157.689C198.724 159.921 197.392 161.217 195.892 161.217ZM195.724 160.293C196.792 160.293 197.596 159.321 197.596 157.713C197.596 156.261 197.104 155.289 195.868 155.289C195.316 155.289 194.74 155.601 194.128 156.189V159.621C194.692 160.113 195.292 160.293 195.724 160.293ZM203.082 161.217C201.342 161.217 199.962 159.945 199.962 157.809C199.962 155.685 201.39 154.377 202.89 154.377C204.546 154.377 205.482 155.565 205.482 157.437C205.482 157.665 205.47 157.893 205.434 158.061H201.042C201.126 159.441 201.966 160.341 203.214 160.341C203.838 160.341 204.354 160.137 204.834 159.813L205.23 160.545C204.654 160.917 203.97 161.217 203.082 161.217ZM201.03 157.269H204.522C204.522 155.961 203.934 155.253 202.902 155.253C201.99 155.253 201.174 155.985 201.03 157.269ZM207.099 161.049V154.533H207.987L208.095 155.721H208.131C208.575 154.893 209.247 154.377 209.979 154.377C210.267 154.377 210.459 154.413 210.675 154.509L210.471 155.469C210.243 155.397 210.099 155.361 209.835 155.361C209.295 155.361 208.623 155.757 208.191 156.873V161.049H207.099ZM167.22 180.797V171.533H168.108L168.216 172.289H168.252C168.84 171.797 169.56 171.377 170.316 171.377C172.008 171.377 172.908 172.685 172.908 174.701C172.908 176.921 171.576 178.217 170.076 178.217C169.488 178.217 168.876 177.941 168.288 177.461L168.312 178.601V180.797H167.22ZM169.908 177.293C170.976 177.293 171.78 176.321 171.78 174.713C171.78 173.261 171.288 172.289 170.052 172.289C169.5 172.289 168.948 172.601 168.312 173.189V176.621C168.9 177.113 169.476 177.293 169.908 177.293ZM177.289 178.217C175.549 178.217 174.169 176.945 174.169 174.809C174.169 172.685 175.597 171.377 177.097 171.377C178.753 171.377 179.689 172.565 179.689 174.437C179.689 174.665 179.677 174.893 179.641 175.061H175.249C175.333 176.441 176.173 177.341 177.421 177.341C178.045 177.341 178.561 177.137 179.041 176.813L179.437 177.545C178.861 177.917 178.177 178.217 177.289 178.217ZM175.237 174.269H178.729C178.729 172.961 178.141 172.253 177.109 172.253C176.197 172.253 175.381 172.985 175.237 174.269ZM181.306 178.049V171.533H182.194L182.302 172.721H182.338C182.782 171.893 183.454 171.377 184.186 171.377C184.474 171.377 184.666 171.413 184.882 171.509L184.678 172.469C184.45 172.397 184.306 172.361 184.042 172.361C183.502 172.361 182.83 172.757 182.398 173.873V178.049H181.306ZM191.174 178.217C189.938 178.217 188.87 177.713 188.102 176.909L188.762 176.141C189.398 176.813 190.286 177.233 191.198 177.233C192.35 177.233 193.034 176.657 193.034 175.805C193.034 174.893 192.398 174.605 191.57 174.245L190.31 173.693C189.482 173.345 188.522 172.721 188.522 171.437C188.522 170.081 189.686 169.097 191.294 169.097C192.338 169.097 193.262 169.541 193.874 170.189L193.286 170.897C192.746 170.393 192.098 170.069 191.294 170.069C190.298 170.069 189.65 170.573 189.65 171.353C189.65 172.217 190.418 172.529 191.102 172.817L192.35 173.357C193.382 173.801 194.162 174.413 194.162 175.721C194.162 177.113 193.022 178.217 191.174 178.217ZM195.79 178.049V171.533H196.882V178.049H195.79ZM196.342 170.189C195.91 170.189 195.61 169.913 195.61 169.457C195.61 169.037 195.91 168.761 196.342 168.761C196.762 168.761 197.074 169.037 197.074 169.457C197.074 169.913 196.762 170.189 196.342 170.189ZM201.303 178.217C199.671 178.217 198.615 176.981 198.615 174.809C198.615 172.685 199.959 171.377 201.447 171.377C202.203 171.377 202.707 171.653 203.271 172.133L203.223 171.005V168.509H204.315V178.049H203.415L203.319 177.281H203.295C202.779 177.797 202.095 178.217 201.303 178.217ZM201.543 177.293C202.155 177.293 202.683 176.993 203.223 176.405V172.985C202.671 172.481 202.167 172.289 201.627 172.289C200.583 172.289 199.755 173.309 199.755 174.797C199.755 176.357 200.403 177.293 201.543 177.293ZM209.164 178.217C207.424 178.217 206.044 176.945 206.044 174.809C206.044 172.685 207.472 171.377 208.972 171.377C210.628 171.377 211.564 172.565 211.564 174.437C211.564 174.665 211.552 174.893 211.516 175.061H207.124C207.208 176.441 208.048 177.341 209.296 177.341C209.92 177.341 210.436 177.137 210.916 176.813L211.312 177.545C210.736 177.917 210.052 178.217 209.164 178.217ZM207.112 174.269H210.604C210.604 172.961 210.016 172.253 208.984 172.253C208.072 172.253 207.256 172.985 207.112 174.269Z" fill="#CE2C3F"/>
</svg>
