<svg width="360" height="328" viewBox="0 0 360 328" fill="none" xmlns="http://www.w3.org/2000/svg">
<rect width="360" height="328" fill="white"/>
<rect x="312.434" y="96.791" width="134.637" height="159.569" transform="rotate(90 312.434 96.791)" fill="#D9D9D9"/>
<path d="M152.979 96.9632C152.979 75.7556 161.404 55.4167 176.4 40.4207C191.396 25.4247 211.735 17 232.942 17C254.15 17 274.489 25.4247 289.485 40.4207C304.481 55.4167 312.906 75.7556 312.906 96.9632L232.942 96.9632L152.979 96.9632Z" fill="#D9D9D9"/>
<path d="M172.364 97.448C172.364 82.0243 178.491 67.2324 189.398 56.3262C200.304 45.42 215.096 39.293 230.519 39.293C245.943 39.293 260.735 45.42 271.641 56.3262C282.548 67.2324 289.159 82.0243 289.159 97.448" stroke="black" stroke-width="0.484625" stroke-dasharray="1.94 1.94"/>
<path d="M191.749 97.4473C191.749 87.4219 195.817 77.8071 203.058 70.7181C210.298 63.6291 220.119 59.6465 230.358 59.6465C240.598 59.6465 250.419 63.6291 257.659 70.7181C264.9 77.8071 269.289 87.4219 269.289 97.4473" stroke="black" stroke-width="0.484625" stroke-dasharray="1.94 1.94"/>
<line x1="288.99" y1="96.791" x2="288.99" y2="231.428" stroke="black" stroke-width="0.484625" stroke-dasharray="1.94 1.94"/>
<line x1="172.626" y1="97.3164" x2="172.626" y2="231.953" stroke="black" stroke-width="0.484625" stroke-dasharray="1.94 1.94"/>
<circle cx="198.535" cy="48.9844" r="3.877" transform="rotate(90 198.535 48.9844)" fill="white"/>
<circle cx="263.474" cy="48.9844" r="3.877" transform="rotate(90 263.474 48.9844)" fill="white"/>
<circle cx="178.18" cy="73.2169" r="3.877" transform="rotate(90 178.18 73.2169)" fill="white"/>
<circle cx="283.829" cy="73.2169" r="3.877" transform="rotate(90 283.829 73.2169)" fill="white"/>
<circle cx="230.519" cy="39.293" r="3.877" transform="rotate(90 230.519 39.293)" fill="white"/>
<circle cx="230.519" cy="59.6465" r="3.877" transform="rotate(90 230.519 59.6465)" fill="white"/>
<circle cx="199.503" cy="75.1544" r="3.877" transform="rotate(90 199.503 75.1544)" fill="white"/>
<circle cx="261.536" cy="75.1544" r="3.877" transform="rotate(90 261.536 75.1544)" fill="white"/>
<circle cx="173.068" cy="107.666" r="3.877" transform="rotate(90 173.068 107.666)" fill="#1E252C"/>
<circle cx="173.068" cy="218.467" r="3.877" transform="rotate(90 173.068 218.467)" fill="#1E252C"/>
<circle cx="173.068" cy="163.066" r="3.877" transform="rotate(90 173.068 163.066)" fill="#1E252C"/>
<circle cx="173.068" cy="135.367" r="3.877" transform="rotate(90 173.068 135.367)" fill="#1E252C"/>
<circle cx="173.068" cy="190.768" r="3.877" transform="rotate(90 173.068 190.768)" fill="#1E252C"/>
<circle cx="288.885" cy="106.9" r="3.877" transform="rotate(90 288.885 106.9)" fill="#1E252C"/>
<circle cx="288.885" cy="217.701" r="3.877" transform="rotate(90 288.885 217.701)" fill="#1E252C"/>
<circle cx="288.885" cy="162.303" r="3.877" transform="rotate(90 288.885 162.303)" fill="#1E252C"/>
<circle cx="288.885" cy="134.602" r="3.877" transform="rotate(90 288.885 134.602)" fill="#1E252C"/>
<circle cx="288.885" cy="190.002" r="3.877" transform="rotate(90 288.885 190.002)" fill="#1E252C"/>
<path d="M152.428 230.359C152.428 251.567 160.853 271.906 175.849 286.902C190.845 301.898 211.184 310.322 232.391 310.322C253.599 310.322 273.938 301.898 288.934 286.902C303.93 271.906 312.354 251.567 312.354 230.359L232.391 230.359L152.428 230.359Z" fill="#D9D9D9"/>
<path d="M171.813 229.874C171.813 245.298 177.94 260.09 188.846 270.996C199.753 281.902 214.545 288.029 229.968 288.029C245.392 288.029 260.184 281.902 271.09 270.996C281.996 260.09 288.608 245.298 288.608 229.874" stroke="black" stroke-width="0.484625" stroke-dasharray="1.94 1.94"/>
<path d="M191.198 229.875C191.198 239.9 195.266 249.515 202.507 256.604C209.747 263.693 219.568 267.676 229.807 267.676C240.047 267.676 249.868 263.693 257.108 256.604C264.349 249.515 268.738 239.9 268.738 229.875" stroke="black" stroke-width="0.484625" stroke-dasharray="1.94 1.94"/>
<circle cx="3.877" cy="3.877" r="3.877" transform="matrix(-4.37114e-08 -1 -1 4.37114e-08 201.86 282.215)" fill="white"/>
<circle cx="3.877" cy="3.877" r="3.877" transform="matrix(-4.37114e-08 -1 -1 4.37114e-08 266.8 282.215)" fill="white"/>
<circle cx="3.877" cy="3.877" r="3.877" transform="matrix(-4.37114e-08 -1 -1 4.37114e-08 181.506 257.984)" fill="white"/>
<circle cx="3.877" cy="3.877" r="3.877" transform="matrix(-4.37114e-08 -1 -1 4.37114e-08 287.155 257.984)" fill="white"/>
<circle cx="3.877" cy="3.877" r="3.877" transform="matrix(-4.37114e-08 -1 -1 4.37114e-08 233.845 291.906)" fill="white"/>
<circle cx="3.877" cy="3.877" r="3.877" transform="matrix(-4.37114e-08 -1 -1 4.37114e-08 233.845 271.553)" fill="white"/>
<circle cx="3.877" cy="3.877" r="3.877" transform="matrix(-4.37114e-08 -1 -1 4.37114e-08 202.829 256.045)" fill="white"/>
<circle cx="3.877" cy="3.877" r="3.877" transform="matrix(-4.37114e-08 -1 -1 4.37114e-08 264.862 256.045)" fill="white"/>
<line x1="144.304" y1="97.0576" x2="316.831" y2="97.0576" stroke="black" stroke-width="0.486429" stroke-dasharray="1.94 1.94"/>
<line x1="144.304" y1="229.411" x2="316.831" y2="229.411" stroke="black" stroke-width="0.486429" stroke-dasharray="1.94 1.94"/>
<path d="M28.9188 126V117.204H30.0348V126H28.9188ZM32.3384 126V119.484H33.2264L33.3344 120.432H33.3704C33.9824 119.82 34.6544 119.328 35.5544 119.328C36.9224 119.328 37.5464 120.216 37.5464 121.872V126H36.4424V122.016C36.4424 120.792 36.0704 120.276 35.2064 120.276C34.5464 120.276 34.0784 120.624 33.4304 121.272V126H32.3384ZM41.7026 126.168C40.3106 126.168 39.8546 125.292 39.8546 123.996V120.372H38.8826V119.556L39.9026 119.484L40.0226 117.648H40.9466V119.484H42.7106V120.372H40.9466V124.02C40.9466 124.812 41.1986 125.28 41.9546 125.28C42.1826 125.28 42.4826 125.184 42.6866 125.1L42.9026 125.916C42.5426 126.048 42.1106 126.168 41.7026 126.168ZM46.6031 126.168C44.8631 126.168 43.4831 124.896 43.4831 122.76C43.4831 120.636 44.9111 119.328 46.4111 119.328C48.0671 119.328 49.0031 120.516 49.0031 122.388C49.0031 122.616 48.9911 122.844 48.9551 123.012H44.5631C44.6471 124.392 45.4871 125.292 46.7351 125.292C47.3591 125.292 47.8751 125.088 48.3551 124.764L48.7511 125.496C48.1751 125.868 47.4911 126.168 46.6031 126.168ZM44.5511 122.22H48.0431C48.0431 120.912 47.4551 120.204 46.4231 120.204C45.5111 120.204 44.6951 120.936 44.5511 122.22ZM50.6196 126V119.484H51.5076L51.6156 120.672H51.6516C52.0956 119.844 52.7676 119.328 53.4996 119.328C53.7876 119.328 53.9796 119.364 54.1956 119.46L53.9916 120.42C53.7636 120.348 53.6196 120.312 53.3556 120.312C52.8156 120.312 52.1436 120.708 51.7116 121.824V126H50.6196ZM56.9807 126L54.6287 119.484H55.7567L56.9927 123.204C57.1847 123.84 57.3887 124.5 57.5927 125.112H57.6407C57.8447 124.5 58.0487 123.84 58.2407 123.204L59.4887 119.484H60.5567L58.2527 126H56.9807ZM63.0298 126.168C61.9378 126.168 61.1218 125.484 61.1218 124.308C61.1218 122.892 62.3458 122.184 65.1178 121.872C65.1178 121.032 64.8538 120.228 63.7858 120.228C63.0178 120.228 62.3338 120.588 61.8298 120.936L61.3978 120.168C61.9978 119.784 62.9098 119.328 63.9538 119.328C65.5498 119.328 66.2218 120.384 66.2218 122.004V126H65.3218L65.2258 125.232H65.1778C64.5658 125.748 63.8338 126.168 63.0298 126.168ZM63.3298 125.28C63.9658 125.28 64.4938 124.98 65.1178 124.416V122.604C62.9218 122.856 62.1898 123.396 62.1898 124.236C62.1898 124.98 62.6938 125.28 63.3298 125.28ZM69.4435 126.168C68.6155 126.168 68.2915 125.64 68.2915 124.704V116.46H69.3835V124.776C69.3835 125.124 69.5275 125.256 69.6955 125.256C69.7435 125.256 69.7915 125.256 69.9235 125.232L70.0675 126.072C69.9115 126.12 69.7435 126.168 69.4435 126.168ZM7.69609 143V134.204H10.3001C12.0881 134.204 13.3241 134.816 13.3241 136.364C13.3241 137.228 12.8681 137.996 12.0401 138.272V138.32C13.0961 138.524 13.8281 139.232 13.8281 140.432C13.8281 142.148 12.4601 143 10.5041 143H7.69609ZM8.81209 137.948H10.1081C11.6201 137.948 12.2321 137.396 12.2321 136.496C12.2321 135.464 11.5361 135.08 10.1681 135.08H8.81209V137.948ZM8.81209 142.124H10.3481C11.8481 142.124 12.7481 141.584 12.7481 140.396C12.7481 139.304 11.8841 138.8 10.3481 138.8H8.81209V142.124ZM18.1148 143.168C16.3748 143.168 14.9948 141.896 14.9948 139.76C14.9948 137.636 16.4228 136.328 17.9228 136.328C19.5788 136.328 20.5148 137.516 20.5148 139.388C20.5148 139.616 20.5028 139.844 20.4668 140.012H16.0748C16.1588 141.392 16.9988 142.292 18.2468 142.292C18.8708 142.292 19.3868 142.088 19.8668 141.764L20.2628 142.496C19.6868 142.868 19.0028 143.168 18.1148 143.168ZM16.0628 139.22H19.5548C19.5548 137.912 18.9668 137.204 17.9348 137.204C17.0228 137.204 16.2068 137.936 16.0628 139.22ZM24.0073 143.168C22.6153 143.168 22.1593 142.292 22.1593 140.996V137.372H21.1873V136.556L22.2073 136.484L22.3273 134.648H23.2513V136.484H25.0153V137.372H23.2513V141.02C23.2513 141.812 23.5033 142.28 24.2593 142.28C24.4873 142.28 24.7873 142.184 24.9913 142.1L25.2073 142.916C24.8473 143.048 24.4153 143.168 24.0073 143.168ZM27.5227 143L25.6987 136.484H26.8147L27.7987 140.264C27.9307 140.888 28.0507 141.464 28.1707 142.076H28.2307C28.3747 141.464 28.5067 140.876 28.6747 140.264L29.6827 136.484H30.7507L31.7827 140.264C31.9387 140.888 32.0827 141.464 32.2387 142.076H32.2867C32.4187 141.464 32.5387 140.888 32.6947 140.264L33.6427 136.484H34.6867L32.9347 143H31.6027L30.6547 139.496C30.4867 138.872 30.3667 138.284 30.2107 137.612H30.1507C30.0187 138.284 29.8867 138.884 29.7067 139.508L28.7947 143H27.5227ZM38.6578 143.168C36.9178 143.168 35.5378 141.896 35.5378 139.76C35.5378 137.636 36.9658 136.328 38.4658 136.328C40.1218 136.328 41.0578 137.516 41.0578 139.388C41.0578 139.616 41.0458 139.844 41.0098 140.012H36.6178C36.7018 141.392 37.5418 142.292 38.7898 142.292C39.4138 142.292 39.9298 142.088 40.4098 141.764L40.8058 142.496C40.2298 142.868 39.5458 143.168 38.6578 143.168ZM36.6058 139.22H40.0978C40.0978 137.912 39.5098 137.204 38.4778 137.204C37.5658 137.204 36.7498 137.936 36.6058 139.22ZM45.3023 143.168C43.5623 143.168 42.1823 141.896 42.1823 139.76C42.1823 137.636 43.6103 136.328 45.1103 136.328C46.7663 136.328 47.7023 137.516 47.7023 139.388C47.7023 139.616 47.6903 139.844 47.6543 140.012H43.2623C43.3463 141.392 44.1863 142.292 45.4343 142.292C46.0583 142.292 46.5743 142.088 47.0543 141.764L47.4503 142.496C46.8743 142.868 46.1903 143.168 45.3023 143.168ZM43.2503 139.22H46.7423C46.7423 137.912 46.1543 137.204 45.1223 137.204C44.2103 137.204 43.3943 137.936 43.2503 139.22ZM49.3188 143V136.484H50.2068L50.3148 137.432H50.3508C50.9628 136.82 51.6348 136.328 52.5348 136.328C53.9028 136.328 54.5268 137.216 54.5268 138.872V143H53.4228V139.016C53.4228 137.792 53.0508 137.276 52.1868 137.276C51.5268 137.276 51.0588 137.624 50.4108 138.272V143H49.3188ZM59.4227 143V134.204H60.5387V142.064H64.3787V143H59.4227ZM67.3423 143.168C66.2503 143.168 65.4343 142.484 65.4343 141.308C65.4343 139.892 66.6583 139.184 69.4303 138.872C69.4303 138.032 69.1663 137.228 68.0983 137.228C67.3303 137.228 66.6463 137.588 66.1423 137.936L65.7103 137.168C66.3103 136.784 67.2223 136.328 68.2663 136.328C69.8623 136.328 70.5343 137.384 70.5343 139.004V143H69.6343L69.5383 142.232H69.4903C68.8783 142.748 68.1463 143.168 67.3423 143.168ZM67.6423 142.28C68.2783 142.28 68.8063 141.98 69.4303 141.416V139.604C67.2343 139.856 66.5023 140.396 66.5023 141.236C66.5023 141.98 67.0063 142.28 67.6423 142.28ZM72.7 145.82C72.4 145.82 72.148 145.772 71.944 145.688L72.16 144.812C72.28 144.86 72.472 144.908 72.652 144.908C73.384 144.908 73.852 144.308 74.128 143.504L74.272 143.012L71.656 136.484H72.784L74.116 140.108C74.32 140.684 74.536 141.344 74.752 141.944H74.812C74.992 141.344 75.184 140.696 75.352 140.108L76.528 136.484H77.596L75.136 143.552C74.68 144.836 74.008 145.82 72.7 145.82ZM81.4078 143.168C79.6678 143.168 78.2878 141.896 78.2878 139.76C78.2878 137.636 79.7158 136.328 81.2158 136.328C82.8718 136.328 83.8078 137.516 83.8078 139.388C83.8078 139.616 83.7958 139.844 83.7598 140.012H79.3678C79.4518 141.392 80.2918 142.292 81.5398 142.292C82.1638 142.292 82.6798 142.088 83.1598 141.764L83.5558 142.496C82.9798 142.868 82.2958 143.168 81.4078 143.168ZM79.3558 139.22H82.8478C82.8478 137.912 82.2598 137.204 81.2278 137.204C80.3158 137.204 79.4998 137.936 79.3558 139.22ZM85.4243 143V136.484H86.3123L86.4203 137.672H86.4563C86.9003 136.844 87.5723 136.328 88.3043 136.328C88.5923 136.328 88.7843 136.364 89.0003 136.46L88.7963 137.42C88.5683 137.348 88.4243 137.312 88.1603 137.312C87.6203 137.312 86.9483 137.708 86.5163 138.824V143H85.4243ZM91.6986 143.168C90.7746 143.168 89.8746 142.772 89.2626 142.268L89.8026 141.536C90.3666 141.992 90.9426 142.316 91.7226 142.316C92.5866 142.316 93.0186 141.86 93.0186 141.284C93.0186 140.624 92.2386 140.324 91.5186 140.06C90.6186 139.712 89.6226 139.28 89.6226 138.164C89.6226 137.132 90.4506 136.328 91.8666 136.328C92.6706 136.328 93.3906 136.652 93.8946 137.06L93.3666 137.756C92.9226 137.432 92.4546 137.18 91.8786 137.18C91.0506 137.18 90.6786 137.612 90.6786 138.116C90.6786 138.74 91.3386 138.98 92.0826 139.244C93.0306 139.604 94.0626 139.988 94.0626 141.224C94.0626 142.292 93.2346 143.168 91.6986 143.168Z" fill="#1E252C"/>
<path d="M86.9915 260.545C85.7555 260.545 84.6875 260.041 83.9195 259.237L84.5795 258.469C85.2155 259.141 86.1035 259.561 87.0155 259.561C88.1675 259.561 88.8515 258.985 88.8515 258.133C88.8515 257.221 88.2155 256.933 87.3875 256.573L86.1275 256.021C85.2995 255.673 84.3395 255.049 84.3395 253.765C84.3395 252.409 85.5035 251.425 87.1115 251.425C88.1555 251.425 89.0795 251.869 89.6915 252.517L89.1035 253.225C88.5635 252.721 87.9155 252.397 87.1115 252.397C86.1155 252.397 85.4675 252.901 85.4675 253.681C85.4675 254.545 86.2355 254.857 86.9195 255.145L88.1675 255.685C89.1995 256.129 89.9795 256.741 89.9795 258.049C89.9795 259.441 88.8395 260.545 86.9915 260.545ZM91.6079 260.377V253.861H92.6999V260.377H91.6079ZM92.1599 252.517C91.7279 252.517 91.4279 252.241 91.4279 251.785C91.4279 251.365 91.7279 251.089 92.1599 251.089C92.5799 251.089 92.8919 251.365 92.8919 251.785C92.8919 252.241 92.5799 252.517 92.1599 252.517ZM97.1206 260.545C95.4886 260.545 94.4326 259.309 94.4326 257.137C94.4326 255.013 95.7766 253.705 97.2646 253.705C98.0206 253.705 98.5246 253.981 99.0886 254.461L99.0406 253.333V250.837H100.133V260.377H99.2326L99.1366 259.609H99.1126C98.5966 260.125 97.9126 260.545 97.1206 260.545ZM97.3606 259.621C97.9726 259.621 98.5006 259.321 99.0406 258.733V255.313C98.4886 254.809 97.9846 254.617 97.4446 254.617C96.4006 254.617 95.5726 255.637 95.5726 257.125C95.5726 258.685 96.2206 259.621 97.3606 259.621ZM104.982 260.545C103.242 260.545 101.862 259.273 101.862 257.137C101.862 255.013 103.29 253.705 104.79 253.705C106.446 253.705 107.382 254.893 107.382 256.765C107.382 256.993 107.37 257.221 107.334 257.389H102.942C103.026 258.769 103.866 259.669 105.114 259.669C105.738 259.669 106.254 259.465 106.734 259.141L107.13 259.873C106.554 260.245 105.87 260.545 104.982 260.545ZM102.93 256.597H106.422C106.422 255.289 105.834 254.581 104.802 254.581C103.89 254.581 103.074 255.313 102.93 256.597ZM115.102 260.545C112.906 260.545 111.274 258.841 111.274 255.985C111.274 253.153 112.942 251.425 115.174 251.425C116.242 251.425 117.07 251.941 117.586 252.505L116.974 253.225C116.518 252.733 115.93 252.397 115.186 252.397C113.518 252.397 112.414 253.765 112.414 255.961C112.414 258.181 113.47 259.561 115.15 259.561C115.978 259.561 116.626 259.201 117.19 258.577L117.79 259.273C117.094 260.089 116.242 260.545 115.102 260.545ZM121.866 260.545C120.258 260.545 118.842 259.285 118.842 257.137C118.842 254.953 120.258 253.705 121.866 253.705C123.462 253.705 124.878 254.953 124.878 257.137C124.878 259.285 123.462 260.545 121.866 260.545ZM121.866 259.633C122.994 259.633 123.75 258.625 123.75 257.137C123.75 255.625 122.994 254.617 121.866 254.617C120.726 254.617 119.97 255.625 119.97 257.137C119.97 258.625 120.726 259.633 121.866 259.633ZM126.612 260.377V253.861H127.5L127.608 255.049H127.644C128.088 254.221 128.76 253.705 129.492 253.705C129.78 253.705 129.972 253.741 130.188 253.837L129.984 254.797C129.756 254.725 129.612 254.689 129.348 254.689C128.808 254.689 128.136 255.085 127.704 256.201V260.377H126.612ZM133.728 260.545C131.988 260.545 130.608 259.273 130.608 257.137C130.608 255.013 132.036 253.705 133.536 253.705C135.192 253.705 136.128 254.893 136.128 256.765C136.128 256.993 136.116 257.221 136.08 257.389H131.688C131.772 258.769 132.612 259.669 133.86 259.669C134.484 259.669 135 259.465 135.48 259.141L135.876 259.873C135.3 260.245 134.616 260.545 133.728 260.545ZM131.676 256.597H135.168C135.168 255.289 134.58 254.581 133.548 254.581C132.636 254.581 131.82 255.313 131.676 256.597ZM143.848 260.545C141.652 260.545 140.02 258.841 140.02 255.985C140.02 253.153 141.688 251.425 143.92 251.425C144.988 251.425 145.816 251.941 146.332 252.505L145.72 253.225C145.264 252.733 144.676 252.397 143.932 252.397C142.264 252.397 141.16 253.765 141.16 255.961C141.16 258.181 142.216 259.561 143.896 259.561C144.724 259.561 145.372 259.201 145.936 258.577L146.536 259.273C145.84 260.089 144.988 260.545 143.848 260.545ZM150.613 260.545C149.005 260.545 147.589 259.285 147.589 257.137C147.589 254.953 149.005 253.705 150.613 253.705C152.209 253.705 153.625 254.953 153.625 257.137C153.625 259.285 152.209 260.545 150.613 260.545ZM150.613 259.633C151.741 259.633 152.497 258.625 152.497 257.137C152.497 255.625 151.741 254.617 150.613 254.617C149.473 254.617 148.717 255.625 148.717 257.137C148.717 258.625 149.473 259.633 150.613 259.633ZM156.68 260.377L154.328 253.861H155.456L156.692 257.581C156.884 258.217 157.088 258.877 157.292 259.489H157.34C157.544 258.877 157.748 258.217 157.94 257.581L159.188 253.861H160.256L157.952 260.377H156.68ZM164.08 260.545C162.34 260.545 160.96 259.273 160.96 257.137C160.96 255.013 162.388 253.705 163.888 253.705C165.544 253.705 166.48 254.893 166.48 256.765C166.48 256.993 166.468 257.221 166.432 257.389H162.04C162.124 258.769 162.964 259.669 164.212 259.669C164.836 259.669 165.352 259.465 165.832 259.141L166.228 259.873C165.652 260.245 164.968 260.545 164.08 260.545ZM162.028 256.597H165.52C165.52 255.289 164.932 254.581 163.9 254.581C162.988 254.581 162.172 255.313 162.028 256.597ZM168.096 260.377V253.861H168.984L169.092 255.049H169.128C169.572 254.221 170.244 253.705 170.976 253.705C171.264 253.705 171.456 253.741 171.672 253.837L171.468 254.797C171.24 254.725 171.096 254.689 170.832 254.689C170.292 254.689 169.62 255.085 169.188 256.201V260.377H168.096Z" fill="#1E252C"/>
<path d="M40.3992 90V81.204H42.5952C45.3072 81.204 46.7472 82.776 46.7472 85.572C46.7472 88.368 45.3072 90 42.6552 90H40.3992ZM41.5152 89.088H42.5112C44.5752 89.088 45.6072 87.804 45.6072 85.572C45.6072 83.34 44.5752 82.116 42.5112 82.116H41.5152V89.088ZM48.5649 90V83.484H49.6569V90H48.5649ZM49.1169 82.14C48.6849 82.14 48.3849 81.864 48.3849 81.408C48.3849 80.988 48.6849 80.712 49.1169 80.712C49.5369 80.712 49.8489 80.988 49.8489 81.408C49.8489 81.864 49.5369 82.14 49.1169 82.14ZM53.5736 90.168C52.6496 90.168 51.7496 89.772 51.1376 89.268L51.6776 88.536C52.2416 88.992 52.8176 89.316 53.5976 89.316C54.4616 89.316 54.8936 88.86 54.8936 88.284C54.8936 87.624 54.1136 87.324 53.3936 87.06C52.4936 86.712 51.4976 86.28 51.4976 85.164C51.4976 84.132 52.3256 83.328 53.7416 83.328C54.5456 83.328 55.2656 83.652 55.7696 84.06L55.2416 84.756C54.7976 84.432 54.3296 84.18 53.7536 84.18C52.9256 84.18 52.5536 84.612 52.5536 85.116C52.5536 85.74 53.2136 85.98 53.9576 86.244C54.9056 86.604 55.9376 86.988 55.9376 88.224C55.9376 89.292 55.1096 90.168 53.5736 90.168ZM59.2182 90.168C57.8262 90.168 57.3702 89.292 57.3702 87.996V84.372H56.3982V83.556L57.4182 83.484L57.5382 81.648H58.4622V83.484H60.2262V84.372H58.4622V88.02C58.4622 88.812 58.7142 89.28 59.4702 89.28C59.6982 89.28 59.9982 89.184 60.2022 89.1L60.4182 89.916C60.0582 90.048 59.6262 90.168 59.2182 90.168ZM62.8735 90.168C61.7815 90.168 60.9655 89.484 60.9655 88.308C60.9655 86.892 62.1895 86.184 64.9615 85.872C64.9615 85.032 64.6975 84.228 63.6295 84.228C62.8615 84.228 62.1775 84.588 61.6735 84.936L61.2415 84.168C61.8415 83.784 62.7535 83.328 63.7975 83.328C65.3935 83.328 66.0655 84.384 66.0655 86.004V90H65.1655L65.0695 89.232H65.0215C64.4095 89.748 63.6775 90.168 62.8735 90.168ZM63.1735 89.28C63.8095 89.28 64.3375 88.98 64.9615 88.416V86.604C62.7655 86.856 62.0335 87.396 62.0335 88.236C62.0335 88.98 62.5375 89.28 63.1735 89.28ZM68.1353 90V83.484H69.0233L69.1313 84.432H69.1673C69.7793 83.82 70.4513 83.328 71.3513 83.328C72.7193 83.328 73.3433 84.216 73.3433 85.872V90H72.2393V86.016C72.2393 84.792 71.8673 84.276 71.0033 84.276C70.3433 84.276 69.8753 84.624 69.2273 85.272V90H68.1353ZM78.0155 90.168C76.2875 90.168 74.9675 88.908 74.9675 86.76C74.9675 84.576 76.4315 83.328 78.0995 83.328C78.9515 83.328 79.5515 83.676 80.0075 84.096L79.4555 84.816C79.0715 84.468 78.6635 84.24 78.1595 84.24C76.9595 84.24 76.0955 85.248 76.0955 86.76C76.0955 88.248 76.9235 89.256 78.1235 89.256C78.7115 89.256 79.2515 88.968 79.6595 88.608L80.1275 89.34C79.5515 89.856 78.7955 90.168 78.0155 90.168ZM83.8883 90.168C82.1483 90.168 80.7683 88.896 80.7683 86.76C80.7683 84.636 82.1963 83.328 83.6963 83.328C85.3523 83.328 86.2883 84.516 86.2883 86.388C86.2883 86.616 86.2763 86.844 86.2403 87.012H81.8483C81.9323 88.392 82.7723 89.292 84.0203 89.292C84.6443 89.292 85.1603 89.088 85.6403 88.764L86.0363 89.496C85.4603 89.868 84.7763 90.168 83.8883 90.168ZM81.8363 86.22H85.3283C85.3283 84.912 84.7403 84.204 83.7083 84.204C82.7963 84.204 81.9803 84.936 81.8363 86.22ZM40.0259 102V94.44C40.0259 93.132 40.6379 92.292 41.9339 92.292C42.3299 92.292 42.7139 92.388 43.0139 92.508L42.7859 93.348C42.5339 93.24 42.2819 93.18 42.0419 93.18C41.4179 93.18 41.1179 93.612 41.1179 94.464V102H40.0259ZM39.1379 96.372V95.556L40.0859 95.484H42.5099V96.372H39.1379ZM43.7603 102V95.484H44.6483L44.7563 96.672H44.7923C45.2363 95.844 45.9083 95.328 46.6403 95.328C46.9283 95.328 47.1203 95.364 47.3363 95.46L47.1323 96.42C46.9043 96.348 46.7603 96.312 46.4963 96.312C45.9563 96.312 45.2843 96.708 44.8523 97.824V102H43.7603ZM50.7805 102.168C49.1725 102.168 47.7565 100.908 47.7565 98.76C47.7565 96.576 49.1725 95.328 50.7805 95.328C52.3765 95.328 53.7925 96.576 53.7925 98.76C53.7925 100.908 52.3765 102.168 50.7805 102.168ZM50.7805 101.256C51.9085 101.256 52.6645 100.248 52.6645 98.76C52.6645 97.248 51.9085 96.24 50.7805 96.24C49.6405 96.24 48.8845 97.248 48.8845 98.76C48.8845 100.248 49.6405 101.256 50.7805 101.256ZM55.5259 102V95.484H56.4139L56.5219 96.432H56.5579C57.1219 95.82 57.8059 95.328 58.5859 95.328C59.5819 95.328 60.1219 95.796 60.3739 96.564C61.0579 95.844 61.7419 95.328 62.5339 95.328C63.8659 95.328 64.5139 96.216 64.5139 97.872V102H63.4219V98.016C63.4219 96.792 63.0379 96.276 62.1979 96.276C61.6939 96.276 61.1779 96.612 60.5659 97.272V102H59.4739V98.016C59.4739 96.792 59.0899 96.276 58.2499 96.276C57.7579 96.276 57.2059 96.612 56.6179 97.272V102H55.5259ZM71.3588 102.168C69.9668 102.168 69.5108 101.292 69.5108 99.996V96.372H68.5388V95.556L69.5588 95.484L69.6788 93.648H70.6028V95.484H72.3668V96.372H70.6028V100.02C70.6028 100.812 70.8548 101.28 71.6108 101.28C71.8388 101.28 72.1388 101.184 72.3428 101.1L72.5588 101.916C72.1988 102.048 71.7668 102.168 71.3588 102.168ZM76.1633 102.168C74.5553 102.168 73.1393 100.908 73.1393 98.76C73.1393 96.576 74.5553 95.328 76.1633 95.328C77.7593 95.328 79.1753 96.576 79.1753 98.76C79.1753 100.908 77.7593 102.168 76.1633 102.168ZM76.1633 101.256C77.2913 101.256 78.0473 100.248 78.0473 98.76C78.0473 97.248 77.2913 96.24 76.1633 96.24C75.0233 96.24 74.2673 97.248 74.2673 98.76C74.2673 100.248 75.0233 101.256 76.1633 101.256ZM80.9087 104.748V95.484H81.7967L81.9047 96.24H81.9407C82.5287 95.748 83.2487 95.328 84.0047 95.328C85.6967 95.328 86.5967 96.636 86.5967 98.652C86.5967 100.872 85.2647 102.168 83.7647 102.168C83.1767 102.168 82.5647 101.892 81.9767 101.412L82.0007 102.552V104.748H80.9087ZM83.5967 101.244C84.6647 101.244 85.4687 100.272 85.4687 98.664C85.4687 97.212 84.9767 96.24 83.7407 96.24C83.1887 96.24 82.6367 96.552 82.0007 97.14V100.572C82.5887 101.064 83.1647 101.244 83.5967 101.244Z" fill="#1E252C"/>
<line x1="100.569" y1="97.3008" x2="100.569" y2="134.631" stroke="#1E252C" stroke-width="0.764743"/>
<line x1="172.967" y1="224.016" x2="172.967" y2="245.509" stroke="#1E252C" stroke-width="0.764743"/>
<line x1="152.605" y1="227.408" x2="152.605" y2="245.508" stroke="#1E252C" stroke-width="0.764743"/>
<line x1="94.53" y1="105.969" x2="148.062" y2="105.969" stroke="#1E252C" stroke-width="0.764743"/>
<line x1="94.53" y1="96.9184" x2="148.062" y2="96.9184" stroke="#1E252C" stroke-width="0.764743"/>
<line x1="95.6613" y1="134.248" x2="149.193" y2="134.248" stroke="#1E252C" stroke-width="0.764743"/>
<line x1="152.223" y1="239.469" x2="173.716" y2="239.469" stroke="#1E252C" stroke-width="0.764743"/>
<rect x="160.641" y="102.342" width="25.0183" height="121.173" stroke="#CE2C3F" stroke-dasharray="2.09 2.09"/>
<path d="M190.466 160V151.204H191.606L194.81 156.748L195.758 158.572H195.818C195.746 157.684 195.662 156.688 195.662 155.776V151.204H196.73V160H195.578L192.386 154.456L191.438 152.644H191.378C191.438 153.532 191.522 154.456 191.522 155.392V160H190.466ZM200.938 160.168C199.57 160.168 198.946 159.28 198.946 157.612V153.484H200.038V157.48C200.038 158.692 200.41 159.208 201.274 159.208C201.934 159.208 202.414 158.884 203.026 158.116V153.484H204.118V160H203.218L203.122 158.98H203.098C202.486 159.688 201.838 160.168 200.938 160.168ZM206.331 160V153.484H207.219L207.327 154.432H207.363C207.927 153.82 208.611 153.328 209.391 153.328C210.387 153.328 210.927 153.796 211.179 154.564C211.863 153.844 212.547 153.328 213.339 153.328C214.671 153.328 215.319 154.216 215.319 155.872V160H214.227V156.016C214.227 154.792 213.843 154.276 213.003 154.276C212.499 154.276 211.983 154.612 211.371 155.272V160H210.279V156.016C210.279 154.792 209.895 154.276 209.055 154.276C208.563 154.276 208.011 154.612 207.423 155.272V160H206.331ZM220.296 160.168C219.696 160.168 219.012 159.856 218.448 159.328H218.412L218.304 160H217.44V150.46H218.532V153.064L218.484 154.24C219.084 153.724 219.804 153.328 220.536 153.328C222.216 153.328 223.128 154.636 223.128 156.64C223.128 158.872 221.796 160.168 220.296 160.168ZM220.128 159.244C221.196 159.244 222 158.272 222 156.664C222 155.212 221.508 154.24 220.272 154.24C219.72 154.24 219.144 154.552 218.532 155.14V158.572C219.096 159.064 219.696 159.244 220.128 159.244ZM227.486 160.168C225.746 160.168 224.366 158.896 224.366 156.76C224.366 154.636 225.794 153.328 227.294 153.328C228.95 153.328 229.886 154.516 229.886 156.388C229.886 156.616 229.874 156.844 229.838 157.012H225.446C225.53 158.392 226.37 159.292 227.618 159.292C228.242 159.292 228.758 159.088 229.238 158.764L229.634 159.496C229.058 159.868 228.374 160.168 227.486 160.168ZM225.434 156.22H228.926C228.926 154.912 228.338 154.204 227.306 154.204C226.394 154.204 225.578 154.936 225.434 156.22ZM231.502 160V153.484H232.39L232.498 154.672H232.534C232.978 153.844 233.65 153.328 234.382 153.328C234.67 153.328 234.862 153.364 235.078 153.46L234.874 154.42C234.646 154.348 234.502 154.312 234.238 154.312C233.698 154.312 233.026 154.708 232.594 155.824V160H231.502ZM191.624 179.748V170.484H192.512L192.62 171.24H192.656C193.244 170.748 193.964 170.328 194.72 170.328C196.412 170.328 197.312 171.636 197.312 173.652C197.312 175.872 195.98 177.168 194.48 177.168C193.892 177.168 193.28 176.892 192.692 176.412L192.716 177.552V179.748H191.624ZM194.312 176.244C195.38 176.244 196.184 175.272 196.184 173.664C196.184 172.212 195.692 171.24 194.456 171.24C193.904 171.24 193.352 171.552 192.716 172.14V175.572C193.304 176.064 193.88 176.244 194.312 176.244ZM201.693 177.168C199.953 177.168 198.573 175.896 198.573 173.76C198.573 171.636 200.001 170.328 201.501 170.328C203.157 170.328 204.093 171.516 204.093 173.388C204.093 173.616 204.081 173.844 204.045 174.012H199.653C199.737 175.392 200.577 176.292 201.825 176.292C202.449 176.292 202.965 176.088 203.445 175.764L203.841 176.496C203.265 176.868 202.581 177.168 201.693 177.168ZM199.641 173.22H203.133C203.133 171.912 202.545 171.204 201.513 171.204C200.601 171.204 199.785 171.936 199.641 173.22ZM205.709 177V170.484H206.597L206.705 171.672H206.741C207.185 170.844 207.857 170.328 208.589 170.328C208.877 170.328 209.069 170.364 209.285 170.46L209.081 171.42C208.853 171.348 208.709 171.312 208.445 171.312C207.905 171.312 207.233 171.708 206.801 172.824V177H205.709ZM215.577 177.168C214.341 177.168 213.273 176.664 212.505 175.86L213.165 175.092C213.801 175.764 214.689 176.184 215.601 176.184C216.753 176.184 217.437 175.608 217.437 174.756C217.437 173.844 216.801 173.556 215.973 173.196L214.713 172.644C213.885 172.296 212.925 171.672 212.925 170.388C212.925 169.032 214.089 168.048 215.697 168.048C216.741 168.048 217.665 168.492 218.277 169.14L217.689 169.848C217.149 169.344 216.501 169.02 215.697 169.02C214.701 169.02 214.053 169.524 214.053 170.304C214.053 171.168 214.821 171.48 215.505 171.768L216.753 172.308C217.785 172.752 218.565 173.364 218.565 174.672C218.565 176.064 217.425 177.168 215.577 177.168ZM220.194 177V170.484H221.286V177H220.194ZM220.746 169.14C220.314 169.14 220.014 168.864 220.014 168.408C220.014 167.988 220.314 167.712 220.746 167.712C221.166 167.712 221.478 167.988 221.478 168.408C221.478 168.864 221.166 169.14 220.746 169.14ZM225.707 177.168C224.075 177.168 223.019 175.932 223.019 173.76C223.019 171.636 224.363 170.328 225.851 170.328C226.607 170.328 227.111 170.604 227.675 171.084L227.627 169.956V167.46H228.719V177H227.819L227.723 176.232H227.699C227.183 176.748 226.499 177.168 225.707 177.168ZM225.947 176.244C226.559 176.244 227.087 175.944 227.627 175.356V171.936C227.075 171.432 226.571 171.24 226.031 171.24C224.987 171.24 224.159 172.26 224.159 173.748C224.159 175.308 224.807 176.244 225.947 176.244ZM233.568 177.168C231.828 177.168 230.448 175.896 230.448 173.76C230.448 171.636 231.876 170.328 233.376 170.328C235.032 170.328 235.968 171.516 235.968 173.388C235.968 173.616 235.956 173.844 235.92 174.012H231.528C231.612 175.392 232.452 176.292 233.7 176.292C234.324 176.292 234.84 176.088 235.32 175.764L235.716 176.496C235.14 176.868 234.456 177.168 233.568 177.168ZM231.516 173.22H235.008C235.008 171.912 234.42 171.204 233.388 171.204C232.476 171.204 231.66 171.936 231.516 173.22Z" fill="#CE2C3F"/>
</svg>
