<svg width="220" height="296" viewBox="0 0 220 296" fill="none" xmlns="http://www.w3.org/2000/svg">
<circle cx="109.38" cy="163.397" r="88.5636" fill="#D9D9D9" stroke="black" stroke-width="1.63251"/>
<circle cx="108.564" cy="163.398" r="75.5035" stroke="black" stroke-width="1.63251"/>
<path d="M20 65.8555L24.0813 68.2118L24.0813 63.4991L20 65.8555ZM198.76 65.8555L194.678 63.4991L194.678 68.2118L198.76 65.8555ZM23.6731 66.2636L195.087 66.2636L195.087 65.4473L23.6731 65.4473L23.6731 66.2636Z" fill="black"/>
<path d="M58.8011 57.168C56.5811 57.168 55.0451 55.392 55.0451 52.572C55.0451 49.752 56.5811 48.048 58.8011 48.048C61.0091 48.048 62.5451 49.764 62.5451 52.572C62.5451 55.392 61.0091 57.168 58.8011 57.168ZM58.8011 56.184C60.3731 56.184 61.4171 54.768 61.4171 52.572C61.4171 50.376 60.3731 49.02 58.8011 49.02C57.2171 49.02 56.1851 50.376 56.1851 52.572C56.1851 54.768 57.2171 56.184 58.8011 56.184ZM66.2554 57.168C64.8874 57.168 64.2634 56.28 64.2634 54.612V50.484H65.3554V54.48C65.3554 55.692 65.7274 56.208 66.5914 56.208C67.2514 56.208 67.7314 55.884 68.3434 55.116V50.484H69.4354V57H68.5354L68.4394 55.98H68.4154C67.8034 56.688 67.1554 57.168 66.2554 57.168ZM73.6884 57.168C72.2964 57.168 71.8404 56.292 71.8404 54.996V51.372H70.8684V50.556L71.8884 50.484L72.0084 48.648H72.9324V50.484H74.6964V51.372H72.9324V55.02C72.9324 55.812 73.1844 56.28 73.9404 56.28C74.1684 56.28 74.4684 56.184 74.6724 56.1L74.8884 56.916C74.5284 57.048 74.0964 57.168 73.6884 57.168ZM78.5889 57.168C76.8489 57.168 75.4689 55.896 75.4689 53.76C75.4689 51.636 76.8969 50.328 78.3969 50.328C80.0529 50.328 80.9889 51.516 80.9889 53.388C80.9889 53.616 80.9769 53.844 80.9409 54.012H76.5489C76.6329 55.392 77.4729 56.292 78.7209 56.292C79.3449 56.292 79.8609 56.088 80.3409 55.764L80.7369 56.496C80.1609 56.868 79.4769 57.168 78.5889 57.168ZM76.5369 53.22H80.0289C80.0289 51.912 79.4409 51.204 78.4089 51.204C77.4969 51.204 76.6809 51.936 76.5369 53.22ZM82.6055 57V50.484H83.4935L83.6015 51.672H83.6375C84.0815 50.844 84.7535 50.328 85.4855 50.328C85.7735 50.328 85.9655 50.364 86.1815 50.46L85.9775 51.42C85.7495 51.348 85.6055 51.312 85.3415 51.312C84.8015 51.312 84.1295 51.708 83.6975 52.824V57H82.6055ZM90.0374 57V48.204H92.2334C94.9454 48.204 96.3854 49.776 96.3854 52.572C96.3854 55.368 94.9454 57 92.2934 57H90.0374ZM91.1534 56.088H92.1494C94.2134 56.088 95.2454 54.804 95.2454 52.572C95.2454 50.34 94.2134 49.116 92.1494 49.116H91.1534V56.088ZM98.2031 57V50.484H99.2951V57H98.2031ZM98.7551 49.14C98.3231 49.14 98.0231 48.864 98.0231 48.408C98.0231 47.988 98.3231 47.712 98.7551 47.712C99.1751 47.712 99.4871 47.988 99.4871 48.408C99.4871 48.864 99.1751 49.14 98.7551 49.14ZM103.008 57.168C101.916 57.168 101.1 56.484 101.1 55.308C101.1 53.892 102.324 53.184 105.096 52.872C105.096 52.032 104.832 51.228 103.764 51.228C102.996 51.228 102.312 51.588 101.808 51.936L101.376 51.168C101.976 50.784 102.888 50.328 103.932 50.328C105.528 50.328 106.2 51.384 106.2 53.004V57H105.3L105.204 56.232H105.156C104.544 56.748 103.812 57.168 103.008 57.168ZM103.308 56.28C103.944 56.28 104.472 55.98 105.096 55.416V53.604C102.9 53.856 102.168 54.396 102.168 55.236C102.168 55.98 102.672 56.28 103.308 56.28ZM108.27 57V50.484H109.158L109.266 51.432H109.302C109.866 50.82 110.55 50.328 111.33 50.328C112.326 50.328 112.866 50.796 113.118 51.564C113.802 50.844 114.486 50.328 115.278 50.328C116.61 50.328 117.258 51.216 117.258 52.872V57H116.166V53.016C116.166 51.792 115.782 51.276 114.942 51.276C114.438 51.276 113.922 51.612 113.31 52.272V57H112.218V53.016C112.218 51.792 111.834 51.276 110.994 51.276C110.502 51.276 109.95 51.612 109.362 52.272V57H108.27ZM122.007 57.168C120.267 57.168 118.887 55.896 118.887 53.76C118.887 51.636 120.315 50.328 121.815 50.328C123.471 50.328 124.407 51.516 124.407 53.388C124.407 53.616 124.395 53.844 124.359 54.012H119.967C120.051 55.392 120.891 56.292 122.139 56.292C122.763 56.292 123.279 56.088 123.759 55.764L124.155 56.496C123.579 56.868 122.895 57.168 122.007 57.168ZM119.955 53.22H123.447C123.447 51.912 122.859 51.204 121.827 51.204C120.915 51.204 120.099 51.936 119.955 53.22ZM127.899 57.168C126.507 57.168 126.051 56.292 126.051 54.996V51.372H125.079V50.556L126.099 50.484L126.219 48.648H127.143V50.484H128.907V51.372H127.143V55.02C127.143 55.812 127.395 56.28 128.151 56.28C128.379 56.28 128.679 56.184 128.883 56.1L129.099 56.916C128.739 57.048 128.307 57.168 127.899 57.168ZM132.8 57.168C131.06 57.168 129.68 55.896 129.68 53.76C129.68 51.636 131.108 50.328 132.608 50.328C134.264 50.328 135.2 51.516 135.2 53.388C135.2 53.616 135.188 53.844 135.152 54.012H130.76C130.844 55.392 131.684 56.292 132.932 56.292C133.556 56.292 134.072 56.088 134.552 55.764L134.948 56.496C134.372 56.868 133.688 57.168 132.8 57.168ZM130.748 53.22H134.24C134.24 51.912 133.652 51.204 132.62 51.204C131.708 51.204 130.892 51.936 130.748 53.22ZM136.816 57V50.484H137.704L137.812 51.672H137.848C138.292 50.844 138.964 50.328 139.696 50.328C139.984 50.328 140.176 50.364 140.392 50.46L140.188 51.42C139.96 51.348 139.816 51.312 139.552 51.312C139.012 51.312 138.34 51.708 137.908 52.824V57H136.816ZM146.365 50.484C145.873 50.484 145.453 50.124 145.453 49.584C145.453 49.032 145.873 48.672 146.365 48.672C146.845 48.672 147.265 49.032 147.265 49.584C147.265 50.124 146.845 50.484 146.365 50.484ZM146.365 56.352C145.873 56.352 145.453 56.004 145.453 55.452C145.453 54.9 145.873 54.552 146.365 54.552C146.845 54.552 147.265 54.9 147.265 55.452C147.265 56.004 146.845 56.352 146.365 56.352ZM153.565 57V48.204H156.169C157.957 48.204 159.193 48.816 159.193 50.364C159.193 51.228 158.737 51.996 157.909 52.272V52.32C158.965 52.524 159.697 53.232 159.697 54.432C159.697 56.148 158.329 57 156.373 57H153.565ZM154.681 51.948H155.977C157.489 51.948 158.101 51.396 158.101 50.496C158.101 49.464 157.405 49.08 156.037 49.08H154.681V51.948ZM154.681 56.124H156.217C157.717 56.124 158.617 55.584 158.617 54.396C158.617 53.304 157.753 52.8 156.217 52.8H154.681V56.124Z" fill="black"/>
<line x1="19.5919" y1="162.174" x2="19.5919" y2="58.5095" stroke="black" stroke-width="0.816254"/>
<line x1="199.168" y1="162.174" x2="199.168" y2="58.5095" stroke="black" stroke-width="0.816254"/>
<circle cx="108.972" cy="91.976" r="3.26502" fill="black"/>
<circle cx="37.1413" cy="162.173" r="3.26502" fill="black"/>
<circle cx="179.986" cy="162.173" r="3.26502" fill="black"/>
<circle cx="108.972" cy="234.82" r="3.26502" fill="black"/>
<circle cx="159.793" cy="113.562" r="3.26502" fill="black"/>
<circle cx="59.3054" cy="111.591" r="3.26502" fill="black"/>
<circle cx="159.554" cy="213.472" r="3.26502" fill="black"/>
<circle cx="58.7282" cy="214.626" r="3.26502" fill="black"/>
</svg>
