<svg width="300" height="296" viewBox="0 0 300 296" fill="none" xmlns="http://www.w3.org/2000/svg">
<rect x="265.706" y="107.388" width="106.247" height="225.855" rx="52.4874" transform="rotate(90 265.706 107.388)" fill="#D9D9D9" stroke="black" stroke-width="1.27242"/>
<rect x="260.616" y="112.48" width="96.0678" height="215.039" rx="48.0339" transform="rotate(90 260.616 112.48)" fill="#D9D9D9" stroke="black" stroke-width="1.27242"/>
<path d="M93.1221 222.905L89.9814 221L89.9023 224.672L93.1221 222.905ZM47.9155 204.882L47.6949 205.111L47.9155 204.882ZM47.9155 117.859L48.1361 118.088L47.9155 117.859ZM93.1221 99.8359L89.9023 98.0682L89.9814 101.741L93.1221 99.8359ZM90.2744 222.525C74.4352 221.843 59.3924 215.487 48.1361 204.652L47.6949 205.111C59.0654 216.055 74.2564 222.472 90.247 223.161L90.2744 222.525ZM48.1361 204.652C36.2075 193.171 29.5084 177.602 29.5084 161.37H28.8722C28.8722 177.779 35.6445 193.512 47.6949 205.111L48.1361 204.652ZM29.5084 161.37C29.5084 145.139 36.2075 129.569 48.1361 118.088L47.6949 117.63C35.6445 129.228 28.8722 144.962 28.8722 161.37H29.5084ZM48.1361 118.088C59.3924 107.254 74.4352 100.898 90.2744 100.215L90.247 99.5797C74.2564 100.269 59.0654 106.686 47.6949 117.63L48.1361 118.088Z" fill="black"/>
<circle cx="100.291" cy="115.66" r="2.54484" fill="black"/>
<circle cx="48.7579" cy="160.195" r="2.54484" fill="black"/>
<circle cx="51.3024" cy="144.926" r="2.54484" fill="black"/>
<circle cx="58.9378" cy="132.201" r="2.54484" fill="black"/>
<circle cx="69.7529" cy="122.021" r="2.54484" fill="black"/>
<circle cx="84.3856" cy="116.297" r="2.54484" fill="black"/>
<circle cx="222.444" cy="116.932" r="2.54484" fill="black"/>
<circle cx="257.436" cy="160.195" r="2.54484" fill="black"/>
<circle cx="222.444" cy="204.094" r="2.54484" fill="black"/>
<circle cx="237.076" cy="198.367" r="2.54484" fill="black"/>
<circle cx="237.076" cy="122.658" r="2.54484" fill="black"/>
<circle cx="247.256" cy="132.201" r="2.54484" fill="black"/>
<circle cx="247.256" cy="189.461" r="2.54484" fill="black"/>
<circle cx="254.89" cy="175.463" r="2.54484" fill="black"/>
<circle cx="254.89" cy="144.926" r="2.54484" fill="black"/>
<circle cx="84.3856" cy="204.094" r="2.54484" fill="black"/>
<circle cx="69.7529" cy="198.367" r="2.54484" fill="black"/>
<circle cx="58.9378" cy="188.824" r="2.54484" fill="black"/>
<circle cx="51.3024" cy="175.463" r="2.54484" fill="black"/>
<circle cx="113.651" cy="115.66" r="2.54484" fill="black"/>
<circle cx="127.012" cy="115.66" r="2.54484" fill="black"/>
<circle cx="140.372" cy="115.66" r="2.54484" fill="black"/>
<circle cx="153.733" cy="115.66" r="2.54484" fill="black"/>
<circle cx="167.093" cy="115.66" r="2.54484" fill="black"/>
<circle cx="180.453" cy="115.66" r="2.54484" fill="black"/>
<circle cx="193.814" cy="115.66" r="2.54484" fill="black"/>
<circle cx="207.175" cy="115.66" r="2.54484" fill="black"/>
<circle cx="100.291" cy="205.365" r="2.54484" fill="black"/>
<circle cx="113.651" cy="205.365" r="2.54484" fill="black"/>
<circle cx="127.012" cy="205.365" r="2.54484" fill="black"/>
<circle cx="140.372" cy="205.365" r="2.54484" fill="black"/>
<circle cx="153.733" cy="205.365" r="2.54484" fill="black"/>
<circle cx="167.093" cy="205.365" r="2.54484" fill="black"/>
<circle cx="180.453" cy="205.365" r="2.54484" fill="black"/>
<circle cx="193.814" cy="205.365" r="2.54484" fill="black"/>
<circle cx="207.175" cy="205.365" r="2.54484" fill="black"/>
<line x1="266.66" y1="160.193" x2="266.66" y2="50.7651" stroke="black" stroke-width="0.636211"/>
<line x1="214.491" y1="251.172" x2="214.491" y2="223.179" stroke="black" stroke-width="0.636211"/>
<line x1="93.6103" y1="251.172" x2="93.6103" y2="223.179" stroke="black" stroke-width="0.636211"/>
<line x1="92.974" y1="99.1172" x2="92.974" y2="75.5774" stroke="black" stroke-width="0.636211"/>
<line x1="214.386" y1="107.352" x2="285.801" y2="107.352" stroke="black" stroke-width="0.636211"/>
<line x1="214.386" y1="214.475" x2="285.801" y2="214.475" stroke="black" stroke-width="0.636211"/>
<line x1="38.8974" y1="160.193" x2="38.8974" y2="50.7651" stroke="black" stroke-width="0.636211"/>
<path d="M39.2155 58.082L42.3966 59.9186L42.3966 56.2454L39.2155 58.082ZM266.343 58.0821L263.162 56.2455L263.162 59.9186L266.343 58.0821ZM42.0785 58.4001L263.48 58.4002L263.48 57.7639L42.0785 57.7639L42.0785 58.4001Z" fill="black"/>
<path d="M93.9284 239.084L97.1095 240.921L97.1095 237.247L93.9284 239.084ZM214.172 239.084L210.991 237.247L210.991 240.921L214.172 239.084ZM96.7914 239.402L211.309 239.402L211.309 238.766L96.7914 238.766L96.7914 239.402Z" fill="black"/>
<path d="M277.765 108.686L275.928 111.867L279.601 111.867L277.765 108.686ZM277.765 216.205L279.601 213.024L275.928 213.024L277.765 216.205ZM277.447 111.548L277.447 213.342L278.083 213.342L278.083 111.548L277.447 111.548Z" fill="black"/>
<path d="M150.335 53V44.204H151.451V47.888H155.555V44.204H156.659V53H155.555V48.848H151.451V53H150.335Z" fill="black"/>
<path d="M282.257 164V155.204H284.873C286.661 155.204 287.897 155.804 287.897 157.352C287.897 158.228 287.429 158.996 286.601 159.26V159.32C287.657 159.524 288.401 160.22 288.401 161.42C288.401 163.148 287.033 164 285.065 164H282.257ZM283.373 158.948H284.681C286.193 158.948 286.805 158.384 286.805 157.496C286.805 156.464 286.097 156.08 284.729 156.08H283.373V158.948ZM283.373 163.112H284.909C286.421 163.112 287.309 162.572 287.309 161.384C287.309 160.292 286.445 159.8 284.909 159.8H283.373V163.112Z" fill="black"/>
<path d="M113.07 255.168C111.834 255.168 110.766 254.664 109.998 253.86L110.658 253.092C111.294 253.764 112.182 254.184 113.094 254.184C114.246 254.184 114.93 253.608 114.93 252.756C114.93 251.844 114.294 251.556 113.466 251.196L112.206 250.644C111.378 250.296 110.418 249.672 110.418 248.388C110.418 247.032 111.582 246.048 113.19 246.048C114.234 246.048 115.158 246.492 115.77 247.14L115.182 247.848C114.642 247.344 113.994 247.02 113.19 247.02C112.194 247.02 111.546 247.524 111.546 248.304C111.546 249.168 112.314 249.48 112.998 249.768L114.246 250.308C115.278 250.752 116.058 251.364 116.058 252.672C116.058 254.064 114.918 255.168 113.07 255.168ZM119.374 255.168C117.982 255.168 117.526 254.292 117.526 252.996V249.372H116.554V248.556L117.574 248.484L117.694 246.648H118.618V248.484H120.382V249.372H118.618V253.02C118.618 253.812 118.87 254.28 119.626 254.28C119.854 254.28 120.154 254.184 120.358 254.1L120.574 254.916C120.214 255.048 119.782 255.168 119.374 255.168ZM121.858 255V248.484H122.746L122.854 249.672H122.89C123.334 248.844 124.006 248.328 124.738 248.328C125.026 248.328 125.218 248.364 125.434 248.46L125.23 249.42C125.002 249.348 124.858 249.312 124.594 249.312C124.054 249.312 123.382 249.708 122.95 250.824V255H121.858ZM127.659 255.168C126.567 255.168 125.751 254.484 125.751 253.308C125.751 251.892 126.975 251.184 129.747 250.872C129.747 250.032 129.483 249.228 128.415 249.228C127.647 249.228 126.963 249.588 126.459 249.936L126.027 249.168C126.627 248.784 127.539 248.328 128.583 248.328C130.179 248.328 130.851 249.384 130.851 251.004V255H129.951L129.855 254.232H129.807C129.195 254.748 128.463 255.168 127.659 255.168ZM127.959 254.28C128.595 254.28 129.123 253.98 129.747 253.416V251.604C127.551 251.856 126.819 252.396 126.819 253.236C126.819 253.98 127.323 254.28 127.959 254.28ZM132.92 255V248.484H134.012V255H132.92ZM133.472 247.14C133.04 247.14 132.74 246.864 132.74 246.408C132.74 245.988 133.04 245.712 133.472 245.712C133.892 245.712 134.204 245.988 134.204 246.408C134.204 246.864 133.892 247.14 133.472 247.14ZM138.421 258C136.825 258 135.721 257.376 135.721 256.26C135.721 255.708 136.081 255.168 136.681 254.784V254.736C136.345 254.52 136.093 254.172 136.093 253.656C136.093 253.116 136.477 252.696 136.825 252.456V252.408C136.393 252.06 135.961 251.436 135.961 250.656C135.961 249.216 137.089 248.328 138.409 248.328C138.781 248.328 139.105 248.4 139.333 248.484H141.601V249.336H140.269C140.581 249.636 140.797 250.116 140.797 250.68C140.797 252.072 139.741 252.936 138.409 252.936C138.097 252.936 137.737 252.864 137.437 252.72C137.209 252.912 137.017 253.14 137.017 253.488C137.017 253.908 137.293 254.208 138.169 254.208H139.441C140.953 254.208 141.709 254.676 141.709 255.756C141.709 256.968 140.425 258 138.421 258ZM138.409 252.204C139.165 252.204 139.801 251.592 139.801 250.656C139.801 249.696 139.177 249.12 138.409 249.12C137.641 249.12 137.017 249.684 137.017 250.656C137.017 251.592 137.653 252.204 138.409 252.204ZM138.565 257.256C139.825 257.256 140.641 256.596 140.641 255.924C140.641 255.312 140.173 255.108 139.321 255.108H138.193C137.941 255.108 137.641 255.084 137.341 255C136.873 255.336 136.681 255.732 136.681 256.104C136.681 256.812 137.389 257.256 138.565 257.256ZM142.999 255V245.46H144.091V248.064L144.055 249.408C144.655 248.82 145.315 248.328 146.215 248.328C147.583 248.328 148.207 249.216 148.207 250.872V255H147.103V251.016C147.103 249.792 146.731 249.276 145.867 249.276C145.207 249.276 144.739 249.624 144.091 250.272V255H142.999ZM152.328 255.168C150.936 255.168 150.48 254.292 150.48 252.996V249.372H149.508V248.556L150.528 248.484L150.648 246.648H151.572V248.484H153.336V249.372H151.572V253.02C151.572 253.812 151.824 254.28 152.58 254.28C152.808 254.28 153.108 254.184 153.312 254.1L153.528 254.916C153.168 255.048 152.736 255.168 152.328 255.168ZM160.027 255.168C158.791 255.168 157.723 254.664 156.955 253.86L157.615 253.092C158.251 253.764 159.139 254.184 160.051 254.184C161.203 254.184 161.887 253.608 161.887 252.756C161.887 251.844 161.251 251.556 160.423 251.196L159.163 250.644C158.335 250.296 157.375 249.672 157.375 248.388C157.375 247.032 158.539 246.048 160.147 246.048C161.191 246.048 162.115 246.492 162.727 247.14L162.139 247.848C161.599 247.344 160.951 247.02 160.147 247.02C159.151 247.02 158.503 247.524 158.503 248.304C158.503 249.168 159.271 249.48 159.955 249.768L161.203 250.308C162.235 250.752 163.015 251.364 163.015 252.672C163.015 254.064 161.875 255.168 160.027 255.168ZM167.271 255.168C165.531 255.168 164.151 253.896 164.151 251.76C164.151 249.636 165.579 248.328 167.079 248.328C168.735 248.328 169.671 249.516 169.671 251.388C169.671 251.616 169.659 251.844 169.623 252.012H165.231C165.315 253.392 166.155 254.292 167.403 254.292C168.027 254.292 168.543 254.088 169.023 253.764L169.419 254.496C168.843 254.868 168.159 255.168 167.271 255.168ZM165.219 251.22H168.711C168.711 249.912 168.123 249.204 167.091 249.204C166.179 249.204 165.363 249.936 165.219 251.22ZM173.844 255.168C172.116 255.168 170.796 253.908 170.796 251.76C170.796 249.576 172.26 248.328 173.928 248.328C174.78 248.328 175.38 248.676 175.836 249.096L175.284 249.816C174.9 249.468 174.492 249.24 173.988 249.24C172.788 249.24 171.924 250.248 171.924 251.76C171.924 253.248 172.752 254.256 173.952 254.256C174.54 254.256 175.08 253.968 175.488 253.608L175.956 254.34C175.38 254.856 174.624 255.168 173.844 255.168ZM179.281 255.168C177.889 255.168 177.433 254.292 177.433 252.996V249.372H176.461V248.556L177.481 248.484L177.601 246.648H178.525V248.484H180.289V249.372H178.525V253.02C178.525 253.812 178.777 254.28 179.533 254.28C179.761 254.28 180.061 254.184 180.265 254.1L180.481 254.916C180.121 255.048 179.689 255.168 179.281 255.168ZM181.764 255V248.484H182.856V255H181.764ZM182.316 247.14C181.884 247.14 181.584 246.864 181.584 246.408C181.584 245.988 181.884 245.712 182.316 245.712C182.736 245.712 183.048 245.988 183.048 246.408C183.048 246.864 182.736 247.14 182.316 247.14ZM187.601 255.168C185.993 255.168 184.577 253.908 184.577 251.76C184.577 249.576 185.993 248.328 187.601 248.328C189.197 248.328 190.613 249.576 190.613 251.76C190.613 253.908 189.197 255.168 187.601 255.168ZM187.601 254.256C188.729 254.256 189.485 253.248 189.485 251.76C189.485 250.248 188.729 249.24 187.601 249.24C186.461 249.24 185.705 250.248 185.705 251.76C185.705 253.248 186.461 254.256 187.601 254.256ZM192.346 255V248.484H193.234L193.342 249.432H193.378C193.99 248.82 194.662 248.328 195.562 248.328C196.93 248.328 197.554 249.216 197.554 250.872V255H196.45V251.016C196.45 249.792 196.078 249.276 195.214 249.276C194.554 249.276 194.086 249.624 193.438 250.272V255H192.346Z" fill="black"/>
<path d="M11.026 220.168C8.82995 220.168 7.19795 218.464 7.19795 215.608C7.19795 212.776 8.86595 211.048 11.098 211.048C12.166 211.048 12.994 211.564 13.51 212.128L12.898 212.848C12.442 212.356 11.854 212.02 11.11 212.02C9.44195 212.02 8.33795 213.388 8.33795 215.584C8.33795 217.804 9.39395 219.184 11.074 219.184C11.902 219.184 12.55 218.824 13.114 218.2L13.714 218.896C13.018 219.712 12.166 220.168 11.026 220.168ZM16.9902 220.168C15.6222 220.168 14.9982 219.28 14.9982 217.612V213.484H16.0902V217.48C16.0902 218.692 16.4622 219.208 17.3262 219.208C17.9862 219.208 18.4662 218.884 19.0782 218.116V213.484H20.1702V220H19.2702L19.1742 218.98H19.1502C18.5382 219.688 17.8902 220.168 16.9902 220.168ZM22.3833 220V213.484H23.2713L23.3793 214.672H23.4153C23.8593 213.844 24.5313 213.328 25.2633 213.328C25.5513 213.328 25.7433 213.364 25.9593 213.46L25.7553 214.42C25.5273 214.348 25.3833 214.312 25.1193 214.312C24.5793 214.312 23.9073 214.708 23.4753 215.824V220H22.3833ZM28.7443 220L26.3923 213.484H27.5203L28.7563 217.204C28.9483 217.84 29.1523 218.5 29.3563 219.112H29.4043C29.6083 218.5 29.8123 217.84 30.0043 217.204L31.2523 213.484H32.3203L30.0163 220H28.7443ZM36.1441 220.168C34.4041 220.168 33.0241 218.896 33.0241 216.76C33.0241 214.636 34.4521 213.328 35.9521 213.328C37.6081 213.328 38.5441 214.516 38.5441 216.388C38.5441 216.616 38.5321 216.844 38.4961 217.012H34.1041C34.1881 218.392 35.0281 219.292 36.2761 219.292C36.9001 219.292 37.4161 219.088 37.8961 218.764L38.2921 219.496C37.7161 219.868 37.0321 220.168 36.1441 220.168ZM34.0921 216.22H37.5841C37.5841 214.912 36.9961 214.204 35.9641 214.204C35.0521 214.204 34.2361 214.936 34.0921 216.22ZM42.3686 220.168C40.7366 220.168 39.6806 218.932 39.6806 216.76C39.6806 214.636 41.0246 213.328 42.5126 213.328C43.2686 213.328 43.7726 213.604 44.3366 214.084L44.2886 212.956V210.46H45.3806V220H44.4806L44.3846 219.232H44.3606C43.8446 219.748 43.1606 220.168 42.3686 220.168ZM42.6086 219.244C43.2206 219.244 43.7486 218.944 44.2886 218.356V214.936C43.7366 214.432 43.2326 214.24 42.6926 214.24C41.6486 214.24 40.8206 215.26 40.8206 216.748C40.8206 218.308 41.4686 219.244 42.6086 219.244ZM9.04811 237.168C7.81211 237.168 6.74411 236.664 5.97611 235.86L6.63611 235.092C7.27211 235.764 8.16011 236.184 9.07211 236.184C10.2241 236.184 10.9081 235.608 10.9081 234.756C10.9081 233.844 10.2721 233.556 9.44411 233.196L8.18411 232.644C7.35611 232.296 6.39611 231.672 6.39611 230.388C6.39611 229.032 7.56011 228.048 9.16811 228.048C10.2121 228.048 11.1361 228.492 11.7481 229.14L11.1601 229.848C10.6201 229.344 9.97211 229.02 9.16811 229.02C8.17211 229.02 7.52411 229.524 7.52411 230.304C7.52411 231.168 8.29211 231.48 8.97611 231.768L10.2241 232.308C11.2561 232.752 12.0361 233.364 12.0361 234.672C12.0361 236.064 10.8961 237.168 9.04811 237.168ZM16.2925 237.168C14.5525 237.168 13.1725 235.896 13.1725 233.76C13.1725 231.636 14.6005 230.328 16.1005 230.328C17.7565 230.328 18.6925 231.516 18.6925 233.388C18.6925 233.616 18.6805 233.844 18.6445 234.012H14.2525C14.3365 235.392 15.1765 236.292 16.4245 236.292C17.0485 236.292 17.5645 236.088 18.0445 235.764L18.4405 236.496C17.8645 236.868 17.1805 237.168 16.2925 237.168ZM14.2405 233.22H17.7325C17.7325 231.912 17.1445 231.204 16.1125 231.204C15.2005 231.204 14.3845 231.936 14.2405 233.22ZM22.8651 237.168C21.1371 237.168 19.8171 235.908 19.8171 233.76C19.8171 231.576 21.2811 230.328 22.9491 230.328C23.8011 230.328 24.4011 230.676 24.8571 231.096L24.3051 231.816C23.9211 231.468 23.5131 231.24 23.0091 231.24C21.8091 231.24 20.9451 232.248 20.9451 233.76C20.9451 235.248 21.7731 236.256 22.9731 236.256C23.5611 236.256 24.1011 235.968 24.5091 235.608L24.9771 236.34C24.4011 236.856 23.6451 237.168 22.8651 237.168ZM28.3022 237.168C26.9102 237.168 26.4542 236.292 26.4542 234.996V231.372H25.4822V230.556L26.5022 230.484L26.6222 228.648H27.5462V230.484H29.3102V231.372H27.5462V235.02C27.5462 235.812 27.7982 236.28 28.5542 236.28C28.7822 236.28 29.0822 236.184 29.2862 236.1L29.5022 236.916C29.1422 237.048 28.7102 237.168 28.3022 237.168ZM30.7856 237V230.484H31.8776V237H30.7856ZM31.3376 229.14C30.9056 229.14 30.6056 228.864 30.6056 228.408C30.6056 227.988 30.9056 227.712 31.3376 227.712C31.7576 227.712 32.0696 227.988 32.0696 228.408C32.0696 228.864 31.7576 229.14 31.3376 229.14ZM36.6223 237.168C35.0143 237.168 33.5983 235.908 33.5983 233.76C33.5983 231.576 35.0143 230.328 36.6223 230.328C38.2183 230.328 39.6343 231.576 39.6343 233.76C39.6343 235.908 38.2183 237.168 36.6223 237.168ZM36.6223 236.256C37.7503 236.256 38.5063 235.248 38.5063 233.76C38.5063 232.248 37.7503 231.24 36.6223 231.24C35.4823 231.24 34.7263 232.248 34.7263 233.76C34.7263 235.248 35.4823 236.256 36.6223 236.256ZM41.3677 237V230.484H42.2557L42.3637 231.432H42.3997C43.0117 230.82 43.6837 230.328 44.5837 230.328C45.9517 230.328 46.5757 231.216 46.5757 232.872V237H45.4717V233.016C45.4717 231.792 45.0997 231.276 44.2357 231.276C43.5757 231.276 43.1077 231.624 42.4597 232.272V237H41.3677Z" fill="black"/>
<line x1="93.2933" y1="100.391" x2="93.2933" y2="221.907" stroke="black" stroke-width="1.27242" stroke-dasharray="3.18 3.18"/>
<line x1="272.704" y1="160.195" x2="32.8526" y2="160.195" stroke="black" stroke-width="1.27242" stroke-dasharray="3.18 3.18"/>
<line x1="214.809" y1="100.391" x2="214.809" y2="221.907" stroke="black" stroke-width="1.27242" stroke-dasharray="3.18 3.18"/>
<circle cx="113.651" cy="198.367" r="2.54484" fill="black"/>
<circle cx="127.012" cy="198.367" r="2.54484" fill="black"/>
<circle cx="140.372" cy="198.367" r="2.54484" fill="black"/>
<circle cx="153.733" cy="198.367" r="2.54484" fill="black"/>
<circle cx="167.093" cy="198.367" r="2.54484" fill="black"/>
<circle cx="180.453" cy="198.367" r="2.54484" fill="black"/>
<circle cx="193.814" cy="198.367" r="2.54484" fill="black"/>
<circle cx="113.651" cy="122.658" r="2.54484" fill="black"/>
<circle cx="127.012" cy="122.658" r="2.54484" fill="black"/>
<circle cx="140.372" cy="122.658" r="2.54484" fill="black"/>
<circle cx="153.733" cy="122.658" r="2.54484" fill="black"/>
<circle cx="167.093" cy="122.658" r="2.54484" fill="black"/>
<circle cx="180.453" cy="122.658" r="2.54484" fill="black"/>
<circle cx="193.814" cy="122.658" r="2.54484" fill="black"/>
</svg>
