<svg width="220" height="296" viewBox="0 0 220 296" fill="none" xmlns="http://www.w3.org/2000/svg">
<rect x="28.5382" y="82.6358" width="147.457" height="147.457" fill="#D9D9D9" stroke="black" stroke-width="1.07633"/>
<circle cx="46.2973" cy="100.394" r="3.22898" transform="rotate(-90 46.2973 100.394)" fill="black"/>
<circle cx="46.2973" cy="137.527" r="3.22898" transform="rotate(-90 46.2973 137.527)" fill="black"/>
<circle cx="46.2973" cy="174.662" r="3.22898" transform="rotate(-90 46.2973 174.662)" fill="black"/>
<circle cx="158.235" cy="137.527" r="3.22898" transform="rotate(-90 158.235 137.527)" fill="black"/>
<circle cx="158.235" cy="174.662" r="3.22898" transform="rotate(-90 158.235 174.662)" fill="black"/>
<circle cx="158.235" cy="100.394" r="3.22898" transform="rotate(-90 158.235 100.394)" fill="black"/>
<circle cx="102.267" cy="100.394" r="3.22898" transform="rotate(-90 102.267 100.394)" fill="black"/>
<circle cx="74.2817" cy="100.394" r="3.22898" transform="rotate(-90 74.2817 100.394)" fill="black"/>
<circle cx="130.251" cy="100.394" r="3.22898" transform="rotate(-90 130.251 100.394)" fill="black"/>
<circle cx="46.2973" cy="212.332" r="3.22898" transform="rotate(-90 46.2973 212.332)" fill="black"/>
<circle cx="158.235" cy="212.332" r="3.22898" transform="rotate(-90 158.235 212.332)" fill="black"/>
<circle cx="102.267" cy="212.332" r="3.22898" transform="rotate(-90 102.267 212.332)" fill="black"/>
<circle cx="74.2817" cy="212.332" r="3.22898" transform="rotate(-90 74.2817 212.332)" fill="black"/>
<circle cx="130.251" cy="212.332" r="3.22898" transform="rotate(-90 130.251 212.332)" fill="black"/>
<path d="M199.335 161V152.204H200.451V155.888H204.555V152.204H205.659V161H204.555V156.848H200.451V161H199.335Z" fill="black"/>
<path d="M194.831 230.092L196.384 227.401L193.277 227.401L194.831 230.092ZM194.831 82.6352L193.277 85.326L196.384 85.326L194.831 82.6352ZM195.1 227.67L195.1 85.057L194.561 85.057L194.561 227.67L195.1 227.67Z" fill="black"/>
<line x1="204.518" y1="230.361" x2="184.606" y2="230.361" stroke="black" stroke-width="0.538163"/>
<line x1="204.518" y1="82.3667" x2="184.606" y2="82.3667" stroke="black" stroke-width="0.538163"/>
<path d="M28.5381 64.875L31.2289 66.4285L31.2289 63.3215L28.5381 64.875ZM175.995 64.875L173.304 63.3214L173.304 66.4285L175.995 64.875ZM30.9598 65.1441L173.573 65.1441L173.573 64.6059L30.9598 64.6059L30.9598 65.1441Z" fill="black"/>
<path d="M99.2566 61V52.204H101.873C103.661 52.204 104.897 52.804 104.897 54.352C104.897 55.228 104.429 55.996 103.601 56.26V56.32C104.657 56.524 105.401 57.22 105.401 58.42C105.401 60.148 104.033 61 102.065 61H99.2566ZM100.373 55.948H101.681C103.193 55.948 103.805 55.384 103.805 54.496C103.805 53.464 103.097 53.08 101.729 53.08H100.373V55.948ZM100.373 60.112H101.909C103.421 60.112 104.309 59.572 104.309 58.384C104.309 57.292 103.445 56.8 101.909 56.8H100.373V60.112Z" fill="black"/>
<line x1="176.264" y1="75.1016" x2="176.264" y2="55.1895" stroke="black" stroke-width="0.538163"/>
<line x1="28.269" y1="75.1016" x2="28.269" y2="55.1895" stroke="black" stroke-width="0.538163"/>
<rect x="41.9923" y="96.0889" width="120.548" height="120.548" rx="4.84346" stroke="black" stroke-width="1.07633"/>
</svg>