<svg width="220" height="296" viewBox="0 0 220 296" fill="none" xmlns="http://www.w3.org/2000/svg">
<mask id="path-1-inside-1_1132_6781" fill="white">
<path d="M202.815 163.05C202.815 214.362 161.219 255.958 109.908 255.958C58.5962 255.958 17 214.362 17 163.05C17 111.739 58.5962 70.1426 109.908 70.1426C161.219 70.1426 202.815 111.739 202.815 163.05ZM48.4102 163.05C48.4102 197.014 75.9436 224.548 109.908 224.548C143.872 224.548 171.405 197.014 171.405 163.05C171.405 129.086 143.872 101.553 109.908 101.553C75.9436 101.553 48.4102 129.086 48.4102 163.05Z"/>
</mask>
<path d="M202.815 163.05C202.815 214.362 161.219 255.958 109.908 255.958C58.5962 255.958 17 214.362 17 163.05C17 111.739 58.5962 70.1426 109.908 70.1426C161.219 70.1426 202.815 111.739 202.815 163.05ZM48.4102 163.05C48.4102 197.014 75.9436 224.548 109.908 224.548C143.872 224.548 171.405 197.014 171.405 163.05C171.405 129.086 143.872 101.553 109.908 101.553C75.9436 101.553 48.4102 129.086 48.4102 163.05Z" fill="#D9D9D9" stroke="black" stroke-width="3.39389" mask="url(#path-1-inside-1_1132_6781)"/>
<circle cx="109.059" cy="163.051" r="78.4837" stroke="black" stroke-width="1.69694"/>
<path d="M17 61.6582L21.2424 64.1075L21.2424 59.2089L17 61.6582ZM202.815 61.6582L198.573 59.2089L198.573 64.1075L202.815 61.6582ZM20.8181 62.0824L198.997 62.0824L198.997 61.234L20.8181 61.234L20.8181 62.0824Z" fill="black"/>
<path d="M60.5008 55.168C58.2808 55.168 56.7448 53.392 56.7448 50.572C56.7448 47.752 58.2808 46.048 60.5008 46.048C62.7088 46.048 64.2448 47.764 64.2448 50.572C64.2448 53.392 62.7088 55.168 60.5008 55.168ZM60.5008 54.184C62.0728 54.184 63.1168 52.768 63.1168 50.572C63.1168 48.376 62.0728 47.02 60.5008 47.02C58.9168 47.02 57.8848 48.376 57.8848 50.572C57.8848 52.768 58.9168 54.184 60.5008 54.184ZM67.9551 55.168C66.5871 55.168 65.9631 54.28 65.9631 52.612V48.484H67.0551V52.48C67.0551 53.692 67.4271 54.208 68.2911 54.208C68.9511 54.208 69.4311 53.884 70.0431 53.116V48.484H71.1351V55H70.2351L70.1391 53.98H70.1151C69.5031 54.688 68.8551 55.168 67.9551 55.168ZM75.3881 55.168C73.9961 55.168 73.5401 54.292 73.5401 52.996V49.372H72.5681V48.556L73.5881 48.484L73.7081 46.648H74.6321V48.484H76.3961V49.372H74.6321V53.02C74.6321 53.812 74.8841 54.28 75.6401 54.28C75.8681 54.28 76.1681 54.184 76.3721 54.1L76.5881 54.916C76.2281 55.048 75.7961 55.168 75.3881 55.168ZM80.2886 55.168C78.5486 55.168 77.1686 53.896 77.1686 51.76C77.1686 49.636 78.5966 48.328 80.0966 48.328C81.7526 48.328 82.6886 49.516 82.6886 51.388C82.6886 51.616 82.6766 51.844 82.6406 52.012H78.2486C78.3326 53.392 79.1726 54.292 80.4206 54.292C81.0446 54.292 81.5606 54.088 82.0406 53.764L82.4366 54.496C81.8606 54.868 81.1766 55.168 80.2886 55.168ZM78.2366 51.22H81.7286C81.7286 49.912 81.1406 49.204 80.1086 49.204C79.1966 49.204 78.3806 49.936 78.2366 51.22ZM84.3052 55V48.484H85.1932L85.3012 49.672H85.3372C85.7812 48.844 86.4532 48.328 87.1852 48.328C87.4732 48.328 87.6652 48.364 87.8812 48.46L87.6772 49.42C87.4492 49.348 87.3052 49.312 87.0412 49.312C86.5012 49.312 85.8292 49.708 85.3972 50.824V55H84.3052ZM91.7371 55V46.204H93.9331C96.6451 46.204 98.0851 47.776 98.0851 50.572C98.0851 53.368 96.6451 55 93.9931 55H91.7371ZM92.8531 54.088H93.8491C95.9131 54.088 96.9451 52.804 96.9451 50.572C96.9451 48.34 95.9131 47.116 93.8491 47.116H92.8531V54.088ZM99.9028 55V48.484H100.995V55H99.9028ZM100.455 47.14C100.023 47.14 99.7228 46.864 99.7228 46.408C99.7228 45.988 100.023 45.712 100.455 45.712C100.875 45.712 101.187 45.988 101.187 46.408C101.187 46.864 100.875 47.14 100.455 47.14ZM104.708 55.168C103.616 55.168 102.8 54.484 102.8 53.308C102.8 51.892 104.024 51.184 106.796 50.872C106.796 50.032 106.532 49.228 105.464 49.228C104.696 49.228 104.012 49.588 103.508 49.936L103.076 49.168C103.676 48.784 104.588 48.328 105.632 48.328C107.228 48.328 107.9 49.384 107.9 51.004V55H107L106.904 54.232H106.856C106.244 54.748 105.512 55.168 104.708 55.168ZM105.008 54.28C105.644 54.28 106.172 53.98 106.796 53.416V51.604C104.6 51.856 103.868 52.396 103.868 53.236C103.868 53.98 104.372 54.28 105.008 54.28ZM109.969 55V48.484H110.857L110.965 49.432H111.001C111.565 48.82 112.249 48.328 113.029 48.328C114.025 48.328 114.565 48.796 114.817 49.564C115.501 48.844 116.185 48.328 116.977 48.328C118.309 48.328 118.957 49.216 118.957 50.872V55H117.865V51.016C117.865 49.792 117.481 49.276 116.641 49.276C116.137 49.276 115.621 49.612 115.009 50.272V55H113.917V51.016C113.917 49.792 113.533 49.276 112.693 49.276C112.201 49.276 111.649 49.612 111.061 50.272V55H109.969ZM123.707 55.168C121.967 55.168 120.587 53.896 120.587 51.76C120.587 49.636 122.015 48.328 123.515 48.328C125.171 48.328 126.107 49.516 126.107 51.388C126.107 51.616 126.095 51.844 126.059 52.012H121.667C121.751 53.392 122.591 54.292 123.839 54.292C124.463 54.292 124.979 54.088 125.459 53.764L125.855 54.496C125.279 54.868 124.595 55.168 123.707 55.168ZM121.655 51.22H125.147C125.147 49.912 124.559 49.204 123.527 49.204C122.615 49.204 121.799 49.936 121.655 51.22ZM129.599 55.168C128.207 55.168 127.751 54.292 127.751 52.996V49.372H126.779V48.556L127.799 48.484L127.919 46.648H128.843V48.484H130.607V49.372H128.843V53.02C128.843 53.812 129.095 54.28 129.851 54.28C130.079 54.28 130.379 54.184 130.583 54.1L130.799 54.916C130.439 55.048 130.007 55.168 129.599 55.168ZM134.5 55.168C132.76 55.168 131.38 53.896 131.38 51.76C131.38 49.636 132.808 48.328 134.308 48.328C135.964 48.328 136.9 49.516 136.9 51.388C136.9 51.616 136.888 51.844 136.852 52.012H132.46C132.544 53.392 133.384 54.292 134.632 54.292C135.256 54.292 135.772 54.088 136.252 53.764L136.648 54.496C136.072 54.868 135.388 55.168 134.5 55.168ZM132.448 51.22H135.94C135.94 49.912 135.352 49.204 134.32 49.204C133.408 49.204 132.592 49.936 132.448 51.22ZM138.516 55V48.484H139.404L139.512 49.672H139.548C139.992 48.844 140.664 48.328 141.396 48.328C141.684 48.328 141.876 48.364 142.092 48.46L141.888 49.42C141.66 49.348 141.516 49.312 141.252 49.312C140.712 49.312 140.04 49.708 139.608 50.824V55H138.516ZM148.064 48.484C147.572 48.484 147.152 48.124 147.152 47.584C147.152 47.032 147.572 46.672 148.064 46.672C148.544 46.672 148.964 47.032 148.964 47.584C148.964 48.124 148.544 48.484 148.064 48.484ZM148.064 54.352C147.572 54.352 147.152 54.004 147.152 53.452C147.152 52.9 147.572 52.552 148.064 52.552C148.544 52.552 148.964 52.9 148.964 53.452C148.964 54.004 148.544 54.352 148.064 54.352ZM155.264 55V46.204H157.868C159.656 46.204 160.892 46.816 160.892 48.364C160.892 49.228 160.436 49.996 159.608 50.272V50.32C160.664 50.524 161.396 51.232 161.396 52.432C161.396 54.148 160.028 55 158.072 55H155.264ZM156.38 49.948H157.676C159.188 49.948 159.8 49.396 159.8 48.496C159.8 47.464 159.104 47.08 157.736 47.08H156.38V49.948ZM156.38 54.124H157.916C159.416 54.124 160.316 53.584 160.316 52.396C160.316 51.304 159.452 50.8 157.916 50.8H156.38V54.124Z" fill="black"/>
<path d="M48.3934 162.625L52.6357 165.074L52.6357 160.176L48.3934 162.625ZM171.422 162.625L167.179 160.176L167.179 165.074L171.422 162.625ZM52.2115 163.049L167.604 163.049L167.604 162.201L52.2115 162.201L52.2115 163.049Z" fill="black"/>
<path d="M58.4989 156.254V147.458H59.6149V156.254H58.4989ZM61.9185 156.254V149.738H62.8065L62.9145 150.686H62.9505C63.5625 150.074 64.2345 149.582 65.1345 149.582C66.5025 149.582 67.1265 150.47 67.1265 152.126V156.254H66.0225V152.27C66.0225 151.046 65.6505 150.53 64.7865 150.53C64.1265 150.53 63.6585 150.878 63.0105 151.526V156.254H61.9185ZM69.2427 156.254V149.738H70.1307L70.2387 150.686H70.2747C70.8867 150.074 71.5587 149.582 72.4587 149.582C73.8267 149.582 74.4507 150.47 74.4507 152.126V156.254H73.3467V152.27C73.3467 151.046 72.9747 150.53 72.1107 150.53C71.4507 150.53 70.9827 150.878 70.3347 151.526V156.254H69.2427ZM79.195 156.422C77.455 156.422 76.075 155.15 76.075 153.014C76.075 150.89 77.503 149.582 79.003 149.582C80.659 149.582 81.595 150.77 81.595 152.642C81.595 152.87 81.583 153.098 81.547 153.266H77.155C77.239 154.646 78.079 155.546 79.327 155.546C79.951 155.546 80.467 155.342 80.947 155.018L81.343 155.75C80.767 156.122 80.083 156.422 79.195 156.422ZM77.143 152.474H80.635C80.635 151.166 80.047 150.458 79.015 150.458C78.103 150.458 77.287 151.19 77.143 152.474ZM83.2115 156.254V149.738H84.0995L84.2075 150.926H84.2435C84.6875 150.098 85.3595 149.582 86.0915 149.582C86.3795 149.582 86.5715 149.618 86.7875 149.714L86.5835 150.674C86.3555 150.602 86.2115 150.566 85.9475 150.566C85.4075 150.566 84.7355 150.962 84.3035 152.078V156.254H83.2115ZM90.6434 156.254V147.458H92.8394C95.5514 147.458 96.9914 149.03 96.9914 151.826C96.9914 154.622 95.5514 156.254 92.8994 156.254H90.6434ZM91.7594 155.342H92.7554C94.8194 155.342 95.8514 154.058 95.8514 151.826C95.8514 149.594 94.8194 148.37 92.7554 148.37H91.7594V155.342ZM98.8091 156.254V149.738H99.9011V156.254H98.8091ZM99.3611 148.394C98.9291 148.394 98.6291 148.118 98.6291 147.662C98.6291 147.242 98.9291 146.966 99.3611 146.966C99.7811 146.966 100.093 147.242 100.093 147.662C100.093 148.118 99.7811 148.394 99.3611 148.394ZM103.614 156.422C102.522 156.422 101.706 155.738 101.706 154.562C101.706 153.146 102.93 152.438 105.702 152.126C105.702 151.286 105.438 150.482 104.37 150.482C103.602 150.482 102.918 150.842 102.414 151.19L101.982 150.422C102.582 150.038 103.494 149.582 104.538 149.582C106.134 149.582 106.806 150.638 106.806 152.258V156.254H105.906L105.81 155.486H105.762C105.15 156.002 104.418 156.422 103.614 156.422ZM103.914 155.534C104.55 155.534 105.078 155.234 105.702 154.67V152.858C103.506 153.11 102.774 153.65 102.774 154.49C102.774 155.234 103.278 155.534 103.914 155.534ZM108.876 156.254V149.738H109.764L109.872 150.686H109.908C110.472 150.074 111.156 149.582 111.936 149.582C112.932 149.582 113.472 150.05 113.724 150.818C114.408 150.098 115.092 149.582 115.884 149.582C117.216 149.582 117.864 150.47 117.864 152.126V156.254H116.772V152.27C116.772 151.046 116.388 150.53 115.548 150.53C115.044 150.53 114.528 150.866 113.916 151.526V156.254H112.824V152.27C112.824 151.046 112.44 150.53 111.6 150.53C111.108 150.53 110.556 150.866 109.968 151.526V156.254H108.876ZM122.613 156.422C120.873 156.422 119.493 155.15 119.493 153.014C119.493 150.89 120.921 149.582 122.421 149.582C124.077 149.582 125.013 150.77 125.013 152.642C125.013 152.87 125.001 153.098 124.965 153.266H120.573C120.657 154.646 121.497 155.546 122.745 155.546C123.369 155.546 123.885 155.342 124.365 155.018L124.761 155.75C124.185 156.122 123.501 156.422 122.613 156.422ZM120.561 152.474H124.053C124.053 151.166 123.465 150.458 122.433 150.458C121.521 150.458 120.705 151.19 120.561 152.474ZM128.505 156.422C127.113 156.422 126.657 155.546 126.657 154.25V150.626H125.685V149.81L126.705 149.738L126.825 147.902H127.749V149.738H129.513V150.626H127.749V154.274C127.749 155.066 128.001 155.534 128.757 155.534C128.985 155.534 129.285 155.438 129.489 155.354L129.705 156.17C129.345 156.302 128.913 156.422 128.505 156.422ZM133.406 156.422C131.666 156.422 130.286 155.15 130.286 153.014C130.286 150.89 131.714 149.582 133.214 149.582C134.87 149.582 135.806 150.77 135.806 152.642C135.806 152.87 135.794 153.098 135.758 153.266H131.366C131.45 154.646 132.29 155.546 133.538 155.546C134.162 155.546 134.678 155.342 135.158 155.018L135.554 155.75C134.978 156.122 134.294 156.422 133.406 156.422ZM131.354 152.474H134.846C134.846 151.166 134.258 150.458 133.226 150.458C132.314 150.458 131.498 151.19 131.354 152.474ZM137.422 156.254V149.738H138.31L138.418 150.926H138.454C138.898 150.098 139.57 149.582 140.302 149.582C140.59 149.582 140.782 149.618 140.998 149.714L140.794 150.674C140.566 150.602 140.422 150.566 140.158 150.566C139.618 150.566 138.946 150.962 138.514 152.078V156.254H137.422ZM146.971 149.738C146.479 149.738 146.059 149.378 146.059 148.838C146.059 148.286 146.479 147.926 146.971 147.926C147.451 147.926 147.871 148.286 147.871 148.838C147.871 149.378 147.451 149.738 146.971 149.738ZM146.971 155.606C146.479 155.606 146.059 155.258 146.059 154.706C146.059 154.154 146.479 153.806 146.971 153.806C147.451 153.806 147.871 154.154 147.871 154.706C147.871 155.258 147.451 155.606 146.971 155.606ZM154.171 156.254V147.458H155.287V151.142H159.391V147.458H160.495V156.254H159.391V152.114H155.287V156.254H154.171Z" fill="black"/>
<line x1="16.5758" y1="161.777" x2="16.5758" y2="54.0214" stroke="black" stroke-width="0.848472"/>
<line x1="203.24" y1="161.777" x2="203.24" y2="54.0214" stroke="black" stroke-width="0.848472"/>
<circle cx="109.483" cy="88.808" r="3.39389" fill="black"/>
<circle cx="34.818" cy="161.777" r="3.39389" fill="black"/>
<circle cx="183.3" cy="161.777" r="3.39389" fill="black"/>
<circle cx="109.483" cy="237.29" r="3.39389" fill="black"/>
<circle cx="162.31" cy="111.247" r="3.39389" fill="black"/>
<circle cx="57.8569" cy="109.199" r="3.39389" fill="black"/>
<circle cx="162.062" cy="215.101" r="3.39389" fill="black"/>
<circle cx="57.2568" cy="216.3" r="3.39389" fill="black"/>
</svg>
