<svg width="220" height="296" viewBox="0 0 220 296" fill="none" xmlns="http://www.w3.org/2000/svg">
<path d="M83.3889 98.7234H30.1793V65.3637H191.278V98.7234H138.069H137.518V99.2745V231.517H83.9401V99.2745V98.7234H83.3889Z" fill="#D9D9D9" stroke="black" stroke-width="1.10232"/>
<path d="M30.0877 52.4062L32.8435 53.9973L32.8435 50.8152L30.0877 52.4062ZM191.37 52.4062L188.614 50.8152L188.614 53.9973L191.37 52.4062ZM32.5679 52.6818L188.89 52.6818L188.89 52.1307L32.5679 52.1307L32.5679 52.6818Z" fill="black"/>
<path d="M205.614 65.0781L204.023 67.8339H207.205L205.614 65.0781ZM205.614 98.6212L207.205 95.8654H204.023L205.614 98.6212ZM205.339 67.5584V96.1409H205.89V67.5584H205.339Z" fill="black"/>
<path d="M17.2219 65.0781L15.6308 67.8339H18.813L17.2219 65.0781ZM17.2219 231.415L18.813 228.659H15.6308L17.2219 231.415ZM16.9463 67.5584L16.9463 228.935H17.4975L17.4975 67.5584H16.9463Z" fill="black"/>
<path d="M106.559 47V38.204H109.175C110.963 38.204 112.199 38.804 112.199 40.352C112.199 41.228 111.731 41.996 110.903 42.26V42.32C111.959 42.524 112.703 43.22 112.703 44.42C112.703 46.148 111.335 47 109.367 47H106.559ZM107.675 41.948H108.983C110.495 41.948 111.107 41.384 111.107 40.496C111.107 39.464 110.399 39.08 109.031 39.08H107.675V41.948ZM107.675 46.112H109.211C110.723 46.112 111.611 45.572 111.611 44.384C111.611 43.292 110.747 42.8 109.211 42.8H107.675V46.112ZM116.273 47.156C114.881 47.156 114.413 46.292 114.413 44.984V41.372H113.441V40.544L114.461 40.484L114.593 38.66H115.505V40.484H117.269V41.372H115.505V45.008C115.505 45.812 115.757 46.268 116.513 46.268C116.741 46.268 117.041 46.184 117.257 46.1L117.473 46.916C117.101 47.036 116.669 47.156 116.273 47.156Z" fill="black"/>
<path d="M212.394 86.156C211.002 86.156 210.534 85.292 210.534 83.984V80.372H209.562V79.544L210.582 79.484L210.714 77.66H211.626V79.484H213.39V80.372H211.626V84.008C211.626 84.812 211.878 85.268 212.634 85.268C212.862 85.268 213.162 85.184 213.378 85.1L213.594 85.916C213.222 86.036 212.79 86.156 212.394 86.156Z" fill="black"/>
<path d="M5.33477 155L5.33477 146.204H6.45077L6.45077 149.888H10.5548L10.5548 146.204H11.6588L11.6588 155H10.5548L10.5548 150.848H6.45077V155H5.33477Z" fill="black"/>
<path d="M108.257 258V249.204H110.873C112.661 249.204 113.897 249.804 113.897 251.352C113.897 252.228 113.429 252.996 112.601 253.26V253.32C113.657 253.524 114.401 254.22 114.401 255.42C114.401 257.148 113.033 258 111.065 258H108.257ZM109.373 252.948H110.681C112.193 252.948 112.805 252.384 112.805 251.496C112.805 250.464 112.097 250.08 110.729 250.08H109.373V252.948ZM109.373 257.112H110.909C112.421 257.112 113.309 256.572 113.309 255.384C113.309 254.292 112.445 253.8 110.909 253.8H109.373V257.112Z" fill="black"/>
<line x1="191.554" y1="61.1367" x2="191.554" y2="44.1355" stroke="black" stroke-width="0.551162"/>
<line x1="196.884" y1="64.9959" x2="213.885" y2="64.9959" stroke="black" stroke-width="0.551162"/>
<line x1="8.49157" y1="64.9959" x2="25.4928" y2="64.9959" stroke="black" stroke-width="0.551162"/>
<line x1="8.49157" y1="231.793" x2="78.7941" y2="231.793" stroke="black" stroke-width="0.551162"/>
<line x1="196.884" y1="98.9998" x2="213.885" y2="98.9998" stroke="black" stroke-width="0.551162"/>
<line x1="29.8121" y1="61.1367" x2="29.8121" y2="44.1355" stroke="black" stroke-width="0.551162"/>
<path d="M83.8486 244.016L86.6044 245.607L86.6044 242.425L83.8486 244.016ZM137.609 244.016L134.854 242.425L134.854 245.607L137.609 244.016ZM86.3288 244.291L135.129 244.291L135.129 243.74L86.3288 243.74L86.3288 244.291Z" fill="black"/>
<line x1="137.793" y1="252.746" x2="137.793" y2="235.745" stroke="black" stroke-width="0.551162"/>
<line x1="83.573" y1="252.746" x2="83.573" y2="235.745" stroke="black" stroke-width="0.551162"/>
<circle cx="92.1193" cy="77.2176" r="2.75696" transform="rotate(-90 92.1193 77.2176)" fill="black"/>
<circle cx="92.1193" cy="147.981" r="2.75696" transform="rotate(-90 92.1193 147.981)" fill="black"/>
<circle cx="92.1193" cy="112.6" r="2.75696" transform="rotate(-90 92.1193 112.6)" fill="black"/>
<circle cx="92.1193" cy="183.362" r="2.75696" transform="rotate(-90 92.1193 183.362)" fill="black"/>
<circle cx="129.798" cy="147.981" r="2.75696" transform="rotate(-90 129.798 147.981)" fill="black"/>
<circle cx="129.798" cy="112.6" r="2.75696" transform="rotate(-90 129.798 112.6)" fill="black"/>
<circle cx="129.798" cy="183.362" r="2.75696" transform="rotate(-90 129.798 183.362)" fill="black"/>
<circle cx="129.798" cy="77.2176" r="2.75696" transform="rotate(-90 129.798 77.2176)" fill="black"/>
<circle cx="110.959" cy="77.2176" r="2.75696" transform="rotate(-90 110.959 77.2176)" fill="black"/>
<circle cx="92.1193" cy="219.202" r="2.75696" transform="rotate(-90 92.1193 219.202)" fill="black"/>
<circle cx="129.798" cy="219.202" r="2.75696" transform="rotate(-90 129.798 219.202)" fill="black"/>
<circle cx="110.959" cy="219.202" r="2.75696" transform="rotate(-90 110.959 219.202)" fill="black"/>
<rect x="88.5352" y="73.6351" width="44.847" height="149.152" rx="4.96046" stroke="black" stroke-width="1.10232"/>
</svg>
