<svg width="229" height="296" viewBox="0 0 229 296" fill="none" xmlns="http://www.w3.org/2000/svg">
<rect x="66.7119" y="61.4984" width="86.8222" height="184.562" rx="42.8912" fill="#D9D9D9" stroke="black" stroke-width="1.03979"/>
<rect x="70.8712" y="65.6566" width="78.5039" height="175.724" rx="39.2519" fill="#D9D9D9" stroke="black" stroke-width="1.03979"/>
<path d="M174.33 202.388L172.785 204.961L175.786 205.013L174.33 202.388ZM155.753 248.708L155.939 248.889L155.753 248.708ZM66.0534 248.708L65.8667 248.889L66.0534 248.708ZM47.4761 202.388L46.0204 205.013L49.0215 204.961L47.4761 202.388ZM174.03 204.718C173.461 221.179 166.88 236.842 155.566 248.527L155.939 248.889C167.345 237.109 173.976 221.323 174.549 204.736L174.03 204.718ZM155.566 248.527C143.719 260.763 127.653 267.635 110.903 267.635L110.903 268.154C127.797 268.154 143.997 261.223 155.939 248.889L155.566 248.527ZM110.903 267.635C94.1529 267.635 78.087 260.763 66.2402 248.527L65.8667 248.889C77.8096 261.223 94.0095 268.154 110.903 268.154L110.903 267.635ZM66.2402 248.527C54.9259 236.842 48.3453 221.179 47.7763 204.718L47.2567 204.736C47.83 221.323 54.4611 237.109 65.8667 248.889L66.2402 248.527Z" fill="black"/>
<circle cx="73.4705" cy="196.67" r="2.07957" transform="rotate(-90 73.4705 196.67)" fill="black"/>
<circle cx="109.863" cy="238.782" r="2.07957" transform="rotate(-90 109.863 238.782)" fill="black"/>
<circle cx="97.3857" cy="236.702" r="2.07957" transform="rotate(-90 97.3857 236.702)" fill="black"/>
<circle cx="86.988" cy="230.463" r="2.07957" transform="rotate(-90 86.988 230.463)" fill="black"/>
<circle cx="78.6697" cy="221.626" r="2.07957" transform="rotate(-90 78.6697 221.626)" fill="black"/>
<circle cx="73.9906" cy="209.668" r="2.07957" transform="rotate(-90 73.9906 209.668)" fill="black"/>
<circle cx="74.5102" cy="96.8501" r="2.07957" transform="rotate(-90 74.5102 96.8501)" fill="black"/>
<circle cx="109.863" cy="68.2564" r="2.07957" transform="rotate(-90 109.863 68.2564)" fill="black"/>
<circle cx="145.736" cy="96.8501" r="2.07957" transform="rotate(-90 145.736 96.8501)" fill="black"/>
<circle cx="141.057" cy="84.8931" r="2.07957" transform="rotate(-90 141.057 84.8931)" fill="black"/>
<circle cx="109.863" cy="73.9751" r="2.07957" transform="rotate(-90 109.863 73.9751)" fill="black"/>
<circle cx="97.3857" cy="76.5747" r="2.07957" transform="rotate(-90 97.3857 76.5747)" fill="black"/>
<circle cx="86.988" cy="84.8931" r="2.07957" transform="rotate(-90 86.988 84.8931)" fill="black"/>
<circle cx="81.2692" cy="96.8501" r="2.07957" transform="rotate(-90 81.2692 96.8501)" fill="black"/>
<circle cx="81.2692" cy="209.668" r="2.07957" transform="rotate(-90 81.2692 209.668)" fill="black"/>
<circle cx="137.938" cy="209.668" r="2.07957" transform="rotate(-90 137.938 209.668)" fill="black"/>
<circle cx="109.863" cy="232.024" r="2.07957" transform="rotate(-90 109.863 232.024)" fill="black"/>
<circle cx="97.3857" cy="228.903" r="2.07957" transform="rotate(-90 97.3857 228.903)" fill="black"/>
<circle cx="86.988" cy="220.584" r="2.07957" transform="rotate(-90 86.988 220.584)" fill="black"/>
<circle cx="132.738" cy="220.584" r="2.07957" transform="rotate(-90 132.738 220.584)" fill="black"/>
<circle cx="122.34" cy="228.903" r="2.07957" transform="rotate(-90 122.34 228.903)" fill="black"/>
<circle cx="122.34" cy="76.5747" r="2.07957" transform="rotate(-90 122.34 76.5747)" fill="black"/>
<circle cx="132.738" cy="84.8931" r="2.07957" transform="rotate(-90 132.738 84.8931)" fill="black"/>
<circle cx="137.938" cy="96.8501" r="2.07957" transform="rotate(-90 137.938 96.8501)" fill="black"/>
<circle cx="79.1893" cy="84.8931" r="2.07957" transform="rotate(-90 79.1893 84.8931)" fill="black"/>
<circle cx="86.988" cy="76.5747" r="2.07957" transform="rotate(-90 86.988 76.5747)" fill="black"/>
<circle cx="133.778" cy="76.5747" r="2.07957" transform="rotate(-90 133.778 76.5747)" fill="black"/>
<circle cx="122.34" cy="70.3364" r="2.07957" transform="rotate(-90 122.34 70.3364)" fill="black"/>
<circle cx="97.3857" cy="70.3364" r="2.07957" transform="rotate(-90 97.3857 70.3364)" fill="black"/>
<circle cx="145.736" cy="209.668" r="2.07957" transform="rotate(-90 145.736 209.668)" fill="black"/>
<circle cx="141.057" cy="221.626" r="2.07957" transform="rotate(-90 141.057 221.626)" fill="black"/>
<circle cx="133.258" cy="230.463" r="2.07957" transform="rotate(-90 133.258 230.463)" fill="black"/>
<circle cx="122.34" cy="236.702" r="2.07957" transform="rotate(-90 122.34 236.702)" fill="black"/>
<circle cx="73.4705" cy="185.752" r="2.07957" transform="rotate(-90 73.4705 185.752)" fill="black"/>
<circle cx="73.4705" cy="174.834" r="2.07957" transform="rotate(-90 73.4705 174.834)" fill="black"/>
<circle cx="73.4705" cy="163.917" r="2.07957" transform="rotate(-90 73.4705 163.917)" fill="black"/>
<circle cx="73.4705" cy="152.999" r="2.07957" transform="rotate(-90 73.4705 152.999)" fill="black"/>
<circle cx="73.4705" cy="142.083" r="2.07957" transform="rotate(-90 73.4705 142.083)" fill="black"/>
<circle cx="73.4705" cy="131.165" r="2.07957" transform="rotate(-90 73.4705 131.165)" fill="black"/>
<circle cx="73.4705" cy="120.247" r="2.07957" transform="rotate(-90 73.4705 120.247)" fill="black"/>
<circle cx="73.4705" cy="109.329" r="2.07957" transform="rotate(-90 73.4705 109.329)" fill="black"/>
<circle cx="146.776" cy="196.67" r="2.07957" transform="rotate(-90 146.776 196.67)" fill="black"/>
<circle cx="146.776" cy="185.752" r="2.07957" transform="rotate(-90 146.776 185.752)" fill="black"/>
<circle cx="146.776" cy="174.834" r="2.07957" transform="rotate(-90 146.776 174.834)" fill="black"/>
<circle cx="146.776" cy="163.917" r="2.07957" transform="rotate(-90 146.776 163.917)" fill="black"/>
<circle cx="146.776" cy="152.999" r="2.07957" transform="rotate(-90 146.776 152.999)" fill="black"/>
<circle cx="146.776" cy="142.083" r="2.07957" transform="rotate(-90 146.776 142.083)" fill="black"/>
<circle cx="146.776" cy="131.165" r="2.07957" transform="rotate(-90 146.776 131.165)" fill="black"/>
<circle cx="146.776" cy="120.247" r="2.07957" transform="rotate(-90 146.776 120.247)" fill="black"/>
<circle cx="146.776" cy="109.329" r="2.07957" transform="rotate(-90 146.776 109.329)" fill="black"/>
<line x1="109.863" y1="60.7189" x2="20.4416" y2="60.7189" stroke="black" stroke-width="0.519893"/>
<line x1="184.208" y1="103.35" x2="161.333" y2="103.35" stroke="black" stroke-width="0.519893"/>
<line x1="184.208" y1="202.129" x2="161.333" y2="202.129" stroke="black" stroke-width="0.519893"/>
<line x1="59.9536" y1="202.649" x2="40.7176" y2="202.649" stroke="black" stroke-width="0.519893"/>
<line x1="65.9321" y1="103.609" x2="65.9321" y2="13.1479" stroke="black" stroke-width="0.519893"/>
<line x1="154.314" y1="103.609" x2="154.314" y2="13.1479" stroke="black" stroke-width="0.519893"/>
<line x1="109.863" y1="246.84" x2="20.4416" y2="246.84" stroke="black" stroke-width="0.519893"/>
<path d="M26.4201 246.58L27.9209 243.981L24.9193 243.981L26.4201 246.58ZM26.4201 60.9781L24.9193 63.5776L27.9209 63.5776L26.4201 60.9781ZM26.6801 244.241L26.6801 63.3177L26.1602 63.3177L26.1602 244.241L26.6801 244.241Z" fill="black"/>
<path d="M174.33 201.869L175.831 199.27L172.829 199.27L174.33 201.869ZM174.33 103.609L172.829 106.209L175.831 106.209L174.33 103.609ZM174.59 199.53L174.59 105.949L174.07 105.949L174.07 199.53L174.59 199.53Z" fill="black"/>
<path d="M66.192 25.625L68.7915 27.1258L68.7915 24.1242L66.192 25.625ZM154.054 25.625L151.455 24.1242L151.455 27.1258L154.054 25.625ZM68.5315 25.8849L151.714 25.8849L151.714 25.365L68.5315 25.3651L68.5315 25.8849Z" fill="black"/>
<path d="M12.3348 159L12.3348 150.204H13.4508L13.4508 153.888H17.5548V150.204H18.6588L18.6588 159H17.5548L17.5548 154.848H13.4508V159H12.3348Z" fill="black"/>
<path d="M107.257 21V12.204H109.873C111.661 12.204 112.897 12.804 112.897 14.352C112.897 15.228 112.429 15.996 111.601 16.26V16.32C112.657 16.524 113.401 17.22 113.401 18.42C113.401 20.148 112.033 21 110.065 21H107.257ZM108.373 15.948H109.681C111.193 15.948 111.805 15.384 111.805 14.496C111.805 13.464 111.097 13.08 109.729 13.08H108.373V15.948ZM108.373 20.112H109.909C111.421 20.112 112.309 19.572 112.309 18.384C112.309 17.292 111.445 16.8 109.909 16.8H108.373V20.112Z" fill="black"/>
<path d="M187.999 158.168C186.763 158.168 185.695 157.664 184.927 156.86L185.587 156.092C186.223 156.764 187.111 157.184 188.023 157.184C189.175 157.184 189.859 156.608 189.859 155.756C189.859 154.844 189.223 154.556 188.395 154.196L187.135 153.644C186.307 153.296 185.347 152.672 185.347 151.388C185.347 150.032 186.511 149.048 188.119 149.048C189.163 149.048 190.087 149.492 190.699 150.14L190.111 150.848C189.571 150.344 188.923 150.02 188.119 150.02C187.123 150.02 186.475 150.524 186.475 151.304C186.475 152.168 187.243 152.48 187.927 152.768L189.175 153.308C190.207 153.752 190.987 154.364 190.987 155.672C190.987 157.064 189.847 158.168 187.999 158.168ZM194.304 158.168C192.912 158.168 192.456 157.292 192.456 155.996V152.372H191.484V151.556L192.504 151.484L192.624 149.648H193.548V151.484H195.312V152.372H193.548V156.02C193.548 156.812 193.8 157.28 194.556 157.28C194.784 157.28 195.084 157.184 195.288 157.1L195.504 157.916C195.144 158.048 194.712 158.168 194.304 158.168ZM196.788 158V151.484H197.676L197.784 152.672H197.82C198.264 151.844 198.936 151.328 199.668 151.328C199.956 151.328 200.148 151.364 200.364 151.46L200.16 152.42C199.932 152.348 199.788 152.312 199.524 152.312C198.984 152.312 198.312 152.708 197.88 153.824V158H196.788ZM202.588 158.168C201.496 158.168 200.68 157.484 200.68 156.308C200.68 154.892 201.904 154.184 204.676 153.872C204.676 153.032 204.412 152.228 203.344 152.228C202.576 152.228 201.892 152.588 201.388 152.936L200.956 152.168C201.556 151.784 202.468 151.328 203.512 151.328C205.108 151.328 205.78 152.384 205.78 154.004V158H204.88L204.784 157.232H204.736C204.124 157.748 203.392 158.168 202.588 158.168ZM202.888 157.28C203.524 157.28 204.052 156.98 204.676 156.416V154.604C202.48 154.856 201.748 155.396 201.748 156.236C201.748 156.98 202.252 157.28 202.888 157.28ZM207.85 158V151.484H208.942V158H207.85ZM208.402 150.14C207.97 150.14 207.67 149.864 207.67 149.408C207.67 148.988 207.97 148.712 208.402 148.712C208.822 148.712 209.134 148.988 209.134 149.408C209.134 149.864 208.822 150.14 208.402 150.14ZM213.351 161C211.755 161 210.651 160.376 210.651 159.26C210.651 158.708 211.011 158.168 211.611 157.784V157.736C211.275 157.52 211.023 157.172 211.023 156.656C211.023 156.116 211.407 155.696 211.755 155.456V155.408C211.323 155.06 210.891 154.436 210.891 153.656C210.891 152.216 212.019 151.328 213.339 151.328C213.711 151.328 214.035 151.4 214.263 151.484H216.531V152.336H215.199C215.511 152.636 215.727 153.116 215.727 153.68C215.727 155.072 214.671 155.936 213.339 155.936C213.027 155.936 212.667 155.864 212.367 155.72C212.139 155.912 211.947 156.14 211.947 156.488C211.947 156.908 212.223 157.208 213.099 157.208H214.371C215.883 157.208 216.639 157.676 216.639 158.756C216.639 159.968 215.355 161 213.351 161ZM213.339 155.204C214.095 155.204 214.731 154.592 214.731 153.656C214.731 152.696 214.107 152.12 213.339 152.12C212.571 152.12 211.947 152.684 211.947 153.656C211.947 154.592 212.583 155.204 213.339 155.204ZM213.495 160.256C214.755 160.256 215.571 159.596 215.571 158.924C215.571 158.312 215.103 158.108 214.251 158.108H213.123C212.871 158.108 212.571 158.084 212.271 158C211.803 158.336 211.611 158.732 211.611 159.104C211.611 159.812 212.319 160.256 213.495 160.256ZM217.928 158V148.46H219.02V151.064L218.984 152.408C219.584 151.82 220.244 151.328 221.144 151.328C222.512 151.328 223.136 152.216 223.136 153.872V158H222.032V154.016C222.032 152.792 221.66 152.276 220.796 152.276C220.136 152.276 219.668 152.624 219.02 153.272V158H217.928ZM227.257 158.168C225.865 158.168 225.409 157.292 225.409 155.996V152.372H224.437V151.556L225.457 151.484L225.577 149.648H226.501V151.484H228.265V152.372H226.501V156.02C226.501 156.812 226.753 157.28 227.509 157.28C227.737 157.28 228.037 157.184 228.241 157.1L228.457 157.916C228.097 158.048 227.665 158.168 227.257 158.168ZM189.048 175.168C187.812 175.168 186.744 174.664 185.976 173.86L186.636 173.092C187.272 173.764 188.16 174.184 189.072 174.184C190.224 174.184 190.908 173.608 190.908 172.756C190.908 171.844 190.272 171.556 189.444 171.196L188.184 170.644C187.356 170.296 186.396 169.672 186.396 168.388C186.396 167.032 187.56 166.048 189.168 166.048C190.212 166.048 191.136 166.492 191.748 167.14L191.16 167.848C190.62 167.344 189.972 167.02 189.168 167.02C188.172 167.02 187.524 167.524 187.524 168.304C187.524 169.168 188.292 169.48 188.976 169.768L190.224 170.308C191.256 170.752 192.036 171.364 192.036 172.672C192.036 174.064 190.896 175.168 189.048 175.168ZM196.293 175.168C194.553 175.168 193.173 173.896 193.173 171.76C193.173 169.636 194.601 168.328 196.101 168.328C197.757 168.328 198.693 169.516 198.693 171.388C198.693 171.616 198.681 171.844 198.645 172.012H194.253C194.337 173.392 195.177 174.292 196.425 174.292C197.049 174.292 197.565 174.088 198.045 173.764L198.441 174.496C197.865 174.868 197.181 175.168 196.293 175.168ZM194.241 171.22H197.733C197.733 169.912 197.145 169.204 196.113 169.204C195.201 169.204 194.385 169.936 194.241 171.22ZM202.865 175.168C201.137 175.168 199.817 173.908 199.817 171.76C199.817 169.576 201.281 168.328 202.949 168.328C203.801 168.328 204.401 168.676 204.857 169.096L204.305 169.816C203.921 169.468 203.513 169.24 203.009 169.24C201.809 169.24 200.945 170.248 200.945 171.76C200.945 173.248 201.773 174.256 202.973 174.256C203.561 174.256 204.101 173.968 204.509 173.608L204.977 174.34C204.401 174.856 203.645 175.168 202.865 175.168ZM208.302 175.168C206.91 175.168 206.454 174.292 206.454 172.996V169.372H205.482V168.556L206.502 168.484L206.622 166.648H207.546V168.484H209.31V169.372H207.546V173.02C207.546 173.812 207.798 174.28 208.554 174.28C208.782 174.28 209.082 174.184 209.286 174.1L209.502 174.916C209.142 175.048 208.71 175.168 208.302 175.168ZM210.786 175V168.484H211.878V175H210.786ZM211.338 167.14C210.906 167.14 210.606 166.864 210.606 166.408C210.606 165.988 210.906 165.712 211.338 165.712C211.758 165.712 212.07 165.988 212.07 166.408C212.07 166.864 211.758 167.14 211.338 167.14ZM216.622 175.168C215.014 175.168 213.598 173.908 213.598 171.76C213.598 169.576 215.014 168.328 216.622 168.328C218.218 168.328 219.634 169.576 219.634 171.76C219.634 173.908 218.218 175.168 216.622 175.168ZM216.622 174.256C217.75 174.256 218.506 173.248 218.506 171.76C218.506 170.248 217.75 169.24 216.622 169.24C215.482 169.24 214.726 170.248 214.726 171.76C214.726 173.248 215.482 174.256 216.622 174.256ZM221.368 175V168.484H222.256L222.364 169.432H222.4C223.012 168.82 223.684 168.328 224.584 168.328C225.952 168.328 226.576 169.216 226.576 170.872V175H225.472V171.016C225.472 169.792 225.1 169.276 224.236 169.276C223.576 169.276 223.108 169.624 222.46 170.272V175H221.368Z" fill="black"/>
<path d="M72.5963 285.168C70.4003 285.168 68.7683 283.464 68.7683 280.608C68.7683 277.776 70.4363 276.048 72.6683 276.048C73.7363 276.048 74.5643 276.564 75.0803 277.128L74.4683 277.848C74.0123 277.356 73.4243 277.02 72.6803 277.02C71.0123 277.02 69.9083 278.388 69.9083 280.584C69.9083 282.804 70.9643 284.184 72.6443 284.184C73.4723 284.184 74.1203 283.824 74.6843 283.2L75.2843 283.896C74.5883 284.712 73.7363 285.168 72.5963 285.168ZM78.5605 285.168C77.1925 285.168 76.5685 284.28 76.5685 282.612V278.484H77.6605V282.48C77.6605 283.692 78.0325 284.208 78.8965 284.208C79.5565 284.208 80.0365 283.884 80.6485 283.116V278.484H81.7405V285H80.8405L80.7445 283.98H80.7205C80.1085 284.688 79.4605 285.168 78.5605 285.168ZM83.9536 285V278.484H84.8416L84.9496 279.672H84.9856C85.4296 278.844 86.1016 278.328 86.8336 278.328C87.1216 278.328 87.3136 278.364 87.5296 278.46L87.3256 279.42C87.0976 279.348 86.9536 279.312 86.6896 279.312C86.1496 279.312 85.4776 279.708 85.0456 280.824V285H83.9536ZM90.3146 285L87.9626 278.484H89.0906L90.3266 282.204C90.5186 282.84 90.7226 283.5 90.9266 284.112H90.9746C91.1786 283.5 91.3826 282.84 91.5746 282.204L92.8226 278.484H93.8906L91.5866 285H90.3146ZM97.7144 285.168C95.9744 285.168 94.5944 283.896 94.5944 281.76C94.5944 279.636 96.0224 278.328 97.5224 278.328C99.1784 278.328 100.114 279.516 100.114 281.388C100.114 281.616 100.102 281.844 100.066 282.012H95.6744C95.7584 283.392 96.5984 284.292 97.8464 284.292C98.4704 284.292 98.9864 284.088 99.4664 283.764L99.8624 284.496C99.2864 284.868 98.6024 285.168 97.7144 285.168ZM95.6624 281.22H99.1544C99.1544 279.912 98.5664 279.204 97.5344 279.204C96.6224 279.204 95.8064 279.936 95.6624 281.22ZM103.939 285.168C102.307 285.168 101.251 283.932 101.251 281.76C101.251 279.636 102.595 278.328 104.083 278.328C104.839 278.328 105.343 278.604 105.907 279.084L105.859 277.956V275.46H106.951V285H106.051L105.955 284.232H105.931C105.415 284.748 104.731 285.168 103.939 285.168ZM104.179 284.244C104.791 284.244 105.319 283.944 105.859 283.356V279.936C105.307 279.432 104.803 279.24 104.263 279.24C103.219 279.24 102.391 280.26 102.391 281.748C102.391 283.308 103.039 284.244 104.179 284.244ZM114.388 285.168C113.152 285.168 112.084 284.664 111.316 283.86L111.976 283.092C112.612 283.764 113.5 284.184 114.412 284.184C115.564 284.184 116.248 283.608 116.248 282.756C116.248 281.844 115.612 281.556 114.784 281.196L113.524 280.644C112.696 280.296 111.736 279.672 111.736 278.388C111.736 277.032 112.9 276.048 114.508 276.048C115.552 276.048 116.476 276.492 117.088 277.14L116.5 277.848C115.96 277.344 115.312 277.02 114.508 277.02C113.512 277.02 112.864 277.524 112.864 278.304C112.864 279.168 113.632 279.48 114.316 279.768L115.564 280.308C116.596 280.752 117.376 281.364 117.376 282.672C117.376 284.064 116.236 285.168 114.388 285.168ZM121.632 285.168C119.892 285.168 118.512 283.896 118.512 281.76C118.512 279.636 119.94 278.328 121.44 278.328C123.096 278.328 124.032 279.516 124.032 281.388C124.032 281.616 124.02 281.844 123.984 282.012H119.592C119.676 283.392 120.516 284.292 121.764 284.292C122.388 284.292 122.904 284.088 123.384 283.764L123.78 284.496C123.204 284.868 122.52 285.168 121.632 285.168ZM119.58 281.22H123.072C123.072 279.912 122.484 279.204 121.452 279.204C120.54 279.204 119.724 279.936 119.58 281.22ZM128.205 285.168C126.477 285.168 125.157 283.908 125.157 281.76C125.157 279.576 126.621 278.328 128.289 278.328C129.141 278.328 129.741 278.676 130.197 279.096L129.645 279.816C129.261 279.468 128.853 279.24 128.349 279.24C127.149 279.24 126.285 280.248 126.285 281.76C126.285 283.248 127.113 284.256 128.313 284.256C128.901 284.256 129.441 283.968 129.849 283.608L130.317 284.34C129.741 284.856 128.985 285.168 128.205 285.168ZM133.642 285.168C132.25 285.168 131.794 284.292 131.794 282.996V279.372H130.822V278.556L131.842 278.484L131.962 276.648H132.886V278.484H134.65V279.372H132.886V283.02C132.886 283.812 133.138 284.28 133.894 284.28C134.122 284.28 134.422 284.184 134.626 284.1L134.842 284.916C134.482 285.048 134.05 285.168 133.642 285.168ZM136.125 285V278.484H137.217V285H136.125ZM136.677 277.14C136.245 277.14 135.945 276.864 135.945 276.408C135.945 275.988 136.245 275.712 136.677 275.712C137.097 275.712 137.409 275.988 137.409 276.408C137.409 276.864 137.097 277.14 136.677 277.14ZM141.962 285.168C140.354 285.168 138.938 283.908 138.938 281.76C138.938 279.576 140.354 278.328 141.962 278.328C143.558 278.328 144.974 279.576 144.974 281.76C144.974 283.908 143.558 285.168 141.962 285.168ZM141.962 284.256C143.09 284.256 143.846 283.248 143.846 281.76C143.846 280.248 143.09 279.24 141.962 279.24C140.822 279.24 140.066 280.248 140.066 281.76C140.066 283.248 140.822 284.256 141.962 284.256ZM146.708 285V278.484H147.596L147.704 279.432H147.74C148.352 278.82 149.024 278.328 149.924 278.328C151.292 278.328 151.916 279.216 151.916 280.872V285H150.812V281.016C150.812 279.792 150.44 279.276 149.576 279.276C148.916 279.276 148.448 279.624 147.8 280.272V285H146.708Z" fill="black"/>
<line x1="60.9931" y1="202.39" x2="160.293" y2="202.39" stroke="black" stroke-width="1.03979" stroke-dasharray="2.6 2.6"/>
<line x1="109.863" y1="55.7793" x2="109.863" y2="251.779" stroke="black" stroke-width="1.03979" stroke-dasharray="2.6 2.6"/>
<line x1="60.9931" y1="103.089" x2="160.293" y2="103.089" stroke="black" stroke-width="1.03979" stroke-dasharray="2.6 2.6"/>
</svg>
