<svg width="360" height="328" viewBox="0 0 360 328" fill="none" xmlns="http://www.w3.org/2000/svg">
<rect width="360" height="328" fill="white"/>
<circle cx="179.993" cy="180.262" r="128.993" fill="#D9D9D9"/>
<circle cx="179.543" cy="179.814" r="108.318" stroke="black" stroke-width="0.898903" stroke-dasharray="1.8 1.8"/>
<circle cx="179.993" cy="180.264" r="74.609" stroke="black" stroke-width="0.898903" stroke-dasharray="1.8 1.8"/>
<circle cx="179.68" cy="71.68" r="3.68" fill="#CE2C3F"/>
<circle cx="179.68" cy="105.68" r="3.68" fill="#CE2C3F"/>
<circle cx="105.68" cy="179.68" r="3.68" fill="#CE2C3F"/>
<circle cx="179.68" cy="254.68" r="3.68" fill="#CE2C3F"/>
<circle cx="254.68" cy="178.68" r="3.68" fill="#CE2C3F"/>
<circle cx="287.68" cy="178.68" r="3.68" fill="#CE2C3F"/>
<circle cx="179.68" cy="288.68" r="3.68" fill="#CE2C3F"/>
<circle cx="71.68" cy="179.68" r="3.68" fill="#CE2C3F"/>
<circle cx="103.68" cy="101.68" r="3.68" fill="#CE2C3F"/>
<circle cx="256.68" cy="103.68" r="3.68" fill="#CE2C3F"/>
<circle cx="103.68" cy="256.68" r="3.68" fill="#CE2C3F"/>
<circle cx="257.68" cy="255.68" r="3.68" fill="#CE2C3F"/>
<line x1="232.079" y1="62.2049" x2="223.4" y2="79.1477" stroke="#1E252C" stroke-width="0.898903"/>
<line x1="235.799" y1="64.402" x2="227.799" y2="60.402" stroke="#1E252C" stroke-width="0.898903"/>
<line x1="227.799" y1="81.402" x2="219.799" y2="77.402" stroke="#1E252C" stroke-width="0.898903"/>
<line x1="127.399" y1="87.7931" x2="141.399" y2="114.793" stroke="#1E252C" stroke-width="0.898903"/>
<line y1="-0.449452" x2="8.94427" y2="-0.449452" transform="matrix(0.861928 -0.50703 -0.50703 -0.861928 137.145 116.268)" stroke="#1E252C" stroke-width="0.898903"/>
<line y1="-0.449452" x2="8.94427" y2="-0.449452" transform="matrix(0.861928 -0.50703 -0.50703 -0.861928 123 89.5352)" stroke="#1E252C" stroke-width="0.898903"/>
<path d="M144.14 95.252V96.176C144.14 97.148 143.9 98.324 142.7 99.08C142.592 98.912 142.268 98.588 142.1 98.468C143.168 97.808 143.312 96.944 143.312 96.152V94.46H146.852V97.4C146.852 97.628 146.864 97.748 146.924 97.796C146.972 97.832 147.032 97.844 147.116 97.844H147.464C147.56 97.844 147.668 97.832 147.716 97.808C147.776 97.772 147.824 97.688 147.848 97.544C147.884 97.364 147.896 97.004 147.908 96.524C148.052 96.656 148.352 96.8 148.58 96.86C148.556 97.328 148.52 97.868 148.46 98.06C148.388 98.264 148.268 98.384 148.1 98.456C147.968 98.54 147.728 98.576 147.536 98.576H146.924C146.708 98.576 146.42 98.516 146.264 98.36C146.096 98.216 146.024 98.012 146.024 97.352V95.252H144.14ZM142.484 102.284L139.268 102.86V104.9H138.428V103.016L137.6 103.16L137.444 102.296L138.428 102.14V94.856L138.908 95.024C139.976 94.736 141.092 94.34 141.74 93.968L142.508 94.604C141.62 95.036 140.396 95.408 139.268 95.684V97.064H142.028V97.88H139.268V99.344H142.124V100.172H139.268V101.996C140.252 101.84 141.356 101.648 142.436 101.456L142.484 102.284ZM146.816 100.064H143.912C144.236 100.892 144.704 101.636 145.304 102.26C145.94 101.648 146.456 100.928 146.816 100.064ZM147.392 99.212L147.956 99.44C147.536 100.856 146.84 101.972 145.952 102.836C146.684 103.424 147.56 103.856 148.58 104.132C148.364 104.3 148.112 104.66 147.992 104.9C146.948 104.576 146.036 104.084 145.28 103.424C144.368 104.108 143.324 104.6 142.196 104.936C142.1 104.708 141.884 104.348 141.704 104.156C142.772 103.88 143.792 103.436 144.644 102.8C143.996 102.08 143.492 101.204 143.12 100.22L143.708 100.064H142.628V99.248H147.224L147.392 99.212ZM153.596 95.168H151.004V96.164H153.596V95.168ZM151.004 97.88H153.596V96.824H151.004V97.88ZM154.448 98.564H151.004V104.924H150.116V94.472H154.448V98.564ZM156.38 100.148H153.56V101.264H156.38V100.148ZM153.56 103.1H156.38V101.936H153.56V103.1ZM157.208 103.808H153.56V104.408H152.756V99.464H157.208V103.808ZM156.368 97.892H159.056V96.824H156.368V97.892ZM159.056 95.168H156.368V96.164H159.056V95.168ZM159.956 94.472V103.736C159.956 104.3 159.824 104.6 159.428 104.756C159.044 104.9 158.408 104.912 157.412 104.912C157.376 104.66 157.232 104.24 157.1 104C157.832 104.036 158.564 104.024 158.78 104.012C158.984 104.012 159.056 103.94 159.056 103.724V98.576H155.516V94.472H159.956ZM164.672 94.436L165.248 94.784C164.936 95.768 164.504 96.992 164.144 97.952C164.948 98.924 165.128 99.788 165.128 100.532C165.14 101.156 164.996 101.66 164.684 101.888C164.528 102.008 164.336 102.068 164.096 102.104C163.88 102.128 163.616 102.14 163.364 102.128C163.352 101.9 163.28 101.576 163.16 101.348C163.388 101.372 163.616 101.372 163.772 101.36C163.916 101.36 164.036 101.324 164.132 101.264C164.3 101.132 164.348 100.796 164.348 100.436C164.348 99.788 164.156 98.984 163.352 98.048C163.676 97.172 164 96.104 164.24 95.288H162.776V104.912H161.996V94.472H164.54L164.672 94.436ZM170.648 102.764H169.184V104.672H168.464V102.764H167.096V102.116H170.648V102.764ZM171.32 100.928L171.332 100.94V99.968H169.832V100.76C169.832 100.952 169.868 100.964 170.144 100.964H171.068C171.248 100.964 171.296 100.964 171.32 100.928ZM172.16 99.248V104C172.16 104.408 172.076 104.624 171.8 104.768C171.512 104.888 171.08 104.888 170.408 104.888C170.384 104.684 170.252 104.36 170.156 104.156C170.624 104.168 171.032 104.168 171.164 104.156C171.296 104.156 171.332 104.12 171.332 104V101.528C171.284 101.54 171.236 101.54 171.176 101.54H170.084C169.412 101.54 169.244 101.384 169.244 100.76V99.968H168.38C168.248 100.94 167.828 101.54 166.76 101.864C166.7 101.732 166.52 101.504 166.4 101.396C167.288 101.144 167.636 100.724 167.768 99.968H166.352V104.912H165.536V99.248H172.16ZM170.6 97.892V96.656H167.156V97.892H170.6ZM171.476 96.02V98.54H166.304V96.02H171.476ZM165.632 94.604H172.208V95.36H165.632V94.604Z" fill="#1E252C"/>
<path d="M233.396 57.772L232.592 57.292C233.408 56.44 233.852 55.012 234.08 53.716L234.92 53.932C234.668 55.288 234.248 56.836 233.396 57.772ZM236.588 51.688H235.7V50.38H232.976V49.516H235.7V47.956H236.588V49.516H239.744V47.956H240.632V49.516H243.368V50.38H240.632V51.688H239.744V50.38H236.588V51.688ZM236.636 52.072L237.26 51.556C238.256 52.084 239.42 52.924 239.972 53.572L239.3 54.16C238.784 53.512 237.632 52.636 236.636 52.072ZM237.44 57.808H239.624C240.212 57.808 240.296 57.544 240.368 55.972C240.572 56.116 240.956 56.272 241.208 56.332C241.088 58.18 240.812 58.66 239.66 58.66H237.38C236.132 58.66 235.808 58.372 235.808 57.304V53.236H236.696V57.304C236.696 57.712 236.804 57.808 237.44 57.808ZM240.86 53.812L241.64 53.464C242.54 54.568 243.452 56.056 243.776 57.064L242.936 57.472C242.624 56.464 241.736 54.94 240.86 53.812ZM249.008 54.928L248.48 55.528C248.252 55.156 247.736 54.46 247.292 53.896V58.924H246.44V54.292C245.96 54.796 245.456 55.24 244.976 55.6C244.892 55.372 244.664 54.964 244.532 54.808C245.768 53.98 247.088 52.504 247.832 50.98H244.796V50.176H246.416V48.004H247.256V50.176H248.264L248.42 50.14L248.9 50.464C248.552 51.376 248.036 52.276 247.448 53.08C247.556 53.212 247.7 53.368 247.844 53.548C248.144 53.164 248.48 52.66 248.684 52.312L249.224 52.708C248.9 53.152 248.54 53.632 248.228 53.992C248.564 54.388 248.888 54.772 249.008 54.928ZM254.096 53.452H251.216C251.552 54.448 252.032 55.348 252.656 56.092C253.28 55.36 253.772 54.472 254.096 53.452ZM252.056 50.62H250.316V52.66H252.056V50.62ZM254.576 52.624L255.152 52.84C254.792 54.436 254.12 55.72 253.256 56.728C253.964 57.376 254.792 57.868 255.764 58.18C255.572 58.348 255.308 58.708 255.164 58.948C254.192 58.588 253.352 58.048 252.644 57.364C251.912 58.048 251.084 58.552 250.196 58.924C250.088 58.708 249.86 58.36 249.68 58.192C250.532 57.88 251.348 57.388 252.068 56.728C251.324 55.816 250.772 54.712 250.388 53.452H250.304C250.244 55.204 249.932 57.388 248.816 58.924C248.672 58.78 248.312 58.552 248.108 58.456C249.332 56.776 249.464 54.4 249.464 52.684V49.816H252.056V47.968H252.908V49.816H254.876L255.02 49.78L255.644 49.924C255.44 50.74 255.164 51.712 254.912 52.3L254.144 52.132C254.3 51.736 254.468 51.172 254.588 50.62H252.908V52.66H254.432L254.576 52.624ZM259.208 48.532L260.264 48.568C260.012 49.444 259.784 51.04 259.712 51.868C260.18 50.644 261.428 49.168 262.928 49.168C264.512 49.168 265.652 50.752 265.652 53.248C265.652 56.548 263.576 58 260.624 58.54L260.06 57.676C262.64 57.28 264.656 56.248 264.656 53.26C264.656 51.388 264.032 50.044 262.772 50.044C261.296 50.044 259.928 52.192 259.784 53.752C259.724 54.208 259.724 54.616 259.808 55.204L258.872 55.276C258.812 54.832 258.752 54.16 258.752 53.392C258.752 52.264 258.968 50.512 259.112 49.552C259.16 49.18 259.196 48.82 259.208 48.532ZM269.228 58V57.088H271.184V50.524H269.624V49.828C270.404 49.684 270.968 49.48 271.448 49.204H272.288V57.088H274.052V58H269.228ZM281.968 49.252V50.176C281.968 51.148 281.728 52.324 280.528 53.08C280.42 52.912 280.096 52.588 279.928 52.468C280.996 51.808 281.14 50.944 281.14 50.152V48.46H284.68V51.4C284.68 51.628 284.692 51.748 284.752 51.796C284.8 51.832 284.86 51.844 284.944 51.844H285.292C285.388 51.844 285.496 51.832 285.544 51.808C285.604 51.772 285.652 51.688 285.676 51.544C285.712 51.364 285.724 51.004 285.736 50.524C285.88 50.656 286.18 50.8 286.408 50.86C286.384 51.328 286.348 51.868 286.288 52.06C286.216 52.264 286.096 52.384 285.928 52.456C285.796 52.54 285.556 52.576 285.364 52.576H284.752C284.536 52.576 284.248 52.516 284.092 52.36C283.924 52.216 283.852 52.012 283.852 51.352V49.252H281.968ZM280.312 56.284L277.096 56.86V58.9H276.256V57.016L275.428 57.16L275.272 56.296L276.256 56.14V48.856L276.736 49.024C277.804 48.736 278.92 48.34 279.568 47.968L280.336 48.604C279.448 49.036 278.224 49.408 277.096 49.684V51.064H279.856V51.88H277.096V53.344H279.952V54.172H277.096V55.996C278.08 55.84 279.184 55.648 280.264 55.456L280.312 56.284ZM284.644 54.064H281.74C282.064 54.892 282.532 55.636 283.132 56.26C283.768 55.648 284.284 54.928 284.644 54.064ZM285.22 53.212L285.784 53.44C285.364 54.856 284.668 55.972 283.78 56.836C284.512 57.424 285.388 57.856 286.408 58.132C286.192 58.3 285.94 58.66 285.82 58.9C284.776 58.576 283.864 58.084 283.108 57.424C282.196 58.108 281.152 58.6 280.024 58.936C279.928 58.708 279.712 58.348 279.532 58.156C280.6 57.88 281.62 57.436 282.472 56.8C281.824 56.08 281.32 55.204 280.948 54.22L281.536 54.064H280.456V53.248H285.052L285.22 53.212ZM289.636 57.16H295.912V55.192H289.636V57.16ZM295.912 52.372H289.636V54.34H295.912V52.372ZM295.912 49.576H289.636V51.52H295.912V49.576ZM288.76 48.712H296.836V58.852H295.912V58.036H289.636V58.852H288.76V48.712Z" fill="#1E252C"/>
<path opacity="0.2" d="M294 179.5C294 242.737 242.737 294 179.5 294C116.263 294 65 242.737 65 179.5C65 116.263 116.263 65 179.5 65C242.737 65 294 116.263 294 179.5ZM77.5233 179.5C77.5233 235.82 123.18 281.477 179.5 281.477C235.82 281.477 281.477 235.82 281.477 179.5C281.477 123.18 235.82 77.5233 179.5 77.5233C123.18 77.5233 77.5233 123.18 77.5233 179.5Z" fill="#2C59CE"/>
<path d="M92.208 157.364H88.008C89.004 159.416 90.732 161.324 92.616 162.236C92.4 162.416 92.088 162.764 91.956 163.016C90.144 162.02 88.536 160.196 87.456 158.12V161.792H89.736V162.68H87.456V164.912H86.532V162.68H84.192V161.792H86.532V158.12C85.428 160.196 83.808 162.008 82.044 163.028C81.912 162.812 81.612 162.476 81.408 162.308C83.232 161.36 84.972 159.416 85.98 157.364H81.816V156.476H86.532V153.968H87.456V156.476H92.208V157.364ZM98.256 154.196L99.036 154.52C98.688 155.072 98.28 155.672 97.968 156.068L97.368 155.78C97.656 155.36 98.064 154.664 98.256 154.196ZM95.484 155.78L94.776 156.092C94.668 155.672 94.356 155.012 94.032 154.52L94.704 154.244C95.04 154.724 95.364 155.36 95.484 155.78ZM100.74 156.992L100.728 157.028C100.956 158.408 101.292 159.704 101.772 160.82C102.288 159.752 102.612 158.48 102.828 156.992H100.74ZM97.464 161.06H95.784C95.616 161.396 95.436 161.72 95.28 162.032C95.76 162.224 96.24 162.44 96.708 162.668C97.068 162.236 97.308 161.708 97.464 161.06ZM104.472 156.992H103.752C103.452 158.936 102.996 160.52 102.264 161.804C102.864 162.836 103.62 163.652 104.58 164.156C104.376 164.324 104.088 164.672 103.968 164.912C103.044 164.372 102.312 163.604 101.724 162.644C101.016 163.58 100.116 164.348 98.94 164.948C98.868 164.792 98.712 164.528 98.556 164.324L98.28 164.612C97.908 164.312 97.428 163.988 96.876 163.664C96.18 164.24 95.232 164.636 93.948 164.912C93.888 164.672 93.708 164.348 93.54 164.18C94.644 163.988 95.484 163.688 96.096 163.244C95.712 163.052 95.316 162.86 94.92 162.692L94.728 163.028L93.96 162.752C94.224 162.296 94.548 161.684 94.872 161.06H93.516V160.316H95.244C95.424 159.956 95.592 159.608 95.736 159.284L96.048 159.356V157.7C95.448 158.408 94.68 159.068 93.948 159.464C93.84 159.26 93.624 158.948 93.456 158.792C94.308 158.408 95.22 157.664 95.808 156.884H93.588V156.152H96.048V153.956H96.876V156.152H99.312V156.884H96.876V156.944C97.392 157.244 98.688 158.06 99.012 158.3L98.52 158.936C98.208 158.648 97.452 158.072 96.876 157.64V159.428H96.36L96.564 159.476C96.432 159.74 96.3 160.028 96.156 160.316H99.36V161.06H98.316C98.148 161.864 97.872 162.524 97.464 163.064C97.992 163.352 98.472 163.664 98.844 163.94C99.864 163.376 100.656 162.656 101.244 161.756C100.788 160.784 100.44 159.668 100.164 158.444C99.912 159.008 99.612 159.512 99.288 159.944C99.156 159.776 98.772 159.476 98.568 159.332C99.576 158.072 100.2 156.068 100.524 153.956L101.436 154.088C101.316 154.796 101.16 155.492 100.992 156.152H104.472V156.992Z" fill="#CE2C3F"/>
<path d="M295.136 126.712L294.596 127.504C293.96 126.964 292.676 126.232 291.884 125.872L292.352 125.128C293.216 125.512 294.572 126.28 295.136 126.712ZM290.816 124.912L290.84 125.8C290.216 125.98 289.472 126.136 288.692 126.232C288.104 127.912 287.048 129.976 286.1 131.26L285.164 130.78C286.16 129.628 287.168 127.732 287.708 126.34C287.36 126.364 287.012 126.376 286.664 126.376C286.22 126.376 285.728 126.364 285.284 126.34L285.212 125.44C285.656 125.5 286.16 125.524 286.676 125.524C287.096 125.524 287.54 125.5 287.996 125.464C288.176 124.804 288.344 124.048 288.368 123.412L289.436 123.508C289.316 123.94 289.16 124.66 288.968 125.344C289.592 125.248 290.216 125.104 290.816 124.912ZM291.44 131.548C291.44 131.392 291.44 131.2 291.428 130.984C291.056 130.876 290.648 130.816 290.228 130.816C289.352 130.816 288.776 131.212 288.776 131.752C288.776 132.304 289.22 132.676 290.144 132.676C291.116 132.676 291.44 132.136 291.44 131.548ZM291.272 127.18H292.232C292.196 127.672 292.208 128.02 292.22 128.464C292.232 128.896 292.28 129.676 292.304 130.396C293.324 130.768 294.152 131.356 294.764 131.884L294.248 132.7C293.744 132.244 293.108 131.716 292.34 131.344C292.352 131.524 292.352 131.692 292.352 131.824C292.352 132.772 291.728 133.552 290.264 133.552C288.956 133.552 287.888 133.012 287.888 131.836C287.888 130.744 288.92 130.036 290.264 130.036C290.66 130.036 291.044 130.072 291.392 130.144C291.356 129.172 291.296 128.008 291.272 127.18ZM299.792 124.54L300.044 123.628C301.064 123.952 303.584 124.444 304.64 124.54L304.412 125.476C303.284 125.32 300.704 124.792 299.792 124.54ZM299.78 125.788C299.624 126.604 299.42 128.332 299.312 129.1C300.452 128.104 301.736 127.672 303.152 127.672C304.976 127.672 306.188 128.764 306.188 130.156C306.188 132.292 304.304 133.732 299.888 133.36L299.6 132.376C303.344 132.832 305.18 131.752 305.18 130.132C305.18 129.184 304.304 128.524 303.092 128.524C301.508 128.524 300.26 129.1 299.42 130.096C299.252 130.3 299.144 130.504 299.06 130.696L298.16 130.48C298.4 129.4 298.688 126.904 298.76 125.656L299.78 125.788ZM318.452 125.32L317.828 125.56C317.6 125.02 317.288 124.3 317.024 123.844L317.624 123.64C317.864 124.084 318.248 124.828 318.452 125.32ZM315.62 124.624L316.544 124.336C316.844 125.776 317.552 127.72 319.076 129.244L318.368 129.988C317.828 129.328 317.348 128.608 316.904 127.768C317.156 130.768 315.908 133.732 312.824 133.732C310.916 133.732 309.74 132.496 309.74 130.588C309.74 128.548 310.904 126.64 311.876 125.632C311.276 125.728 310.388 125.872 309.92 125.968C309.716 126.004 309.5 126.052 309.26 126.1L309.116 125.092C309.296 125.092 309.536 125.08 309.752 125.056C310.784 124.972 312.872 124.636 313.568 124.372L313.856 125.236C313.7 125.296 313.4 125.368 313.232 125.452C312.476 126.016 310.676 128.26 310.676 130.456C310.676 132.088 311.708 132.736 312.86 132.736C315.332 132.736 316.736 129.868 315.908 125.488C315.812 125.212 315.716 124.924 315.62 124.624ZM318.26 123.4L318.848 123.172C319.112 123.616 319.472 124.348 319.7 124.852L319.076 125.08C318.848 124.54 318.536 123.844 318.26 123.4ZM331.208 126.364H327.008C328.004 128.416 329.732 130.324 331.616 131.236C331.4 131.416 331.088 131.764 330.956 132.016C329.144 131.02 327.536 129.196 326.456 127.12V130.792H328.736V131.68H326.456V133.912H325.532V131.68H323.192V130.792H325.532V127.12C324.428 129.196 322.808 131.008 321.044 132.028C320.912 131.812 320.612 131.476 320.408 131.308C322.232 130.36 323.972 128.416 324.98 126.364H320.816V125.476H325.532V122.968H326.456V125.476H331.208V126.364ZM337.256 123.196L338.036 123.52C337.688 124.072 337.28 124.672 336.968 125.068L336.368 124.78C336.656 124.36 337.064 123.664 337.256 123.196ZM334.484 124.78L333.776 125.092C333.668 124.672 333.356 124.012 333.032 123.52L333.704 123.244C334.04 123.724 334.364 124.36 334.484 124.78ZM339.74 125.992L339.728 126.028C339.956 127.408 340.292 128.704 340.772 129.82C341.288 128.752 341.612 127.48 341.828 125.992H339.74ZM336.464 130.06H334.784C334.616 130.396 334.436 130.72 334.28 131.032C334.76 131.224 335.24 131.44 335.708 131.668C336.068 131.236 336.308 130.708 336.464 130.06ZM343.472 125.992H342.752C342.452 127.936 341.996 129.52 341.264 130.804C341.864 131.836 342.62 132.652 343.58 133.156C343.376 133.324 343.088 133.672 342.968 133.912C342.044 133.372 341.312 132.604 340.724 131.644C340.016 132.58 339.116 133.348 337.94 133.948C337.868 133.792 337.712 133.528 337.556 133.324L337.28 133.612C336.908 133.312 336.428 132.988 335.876 132.664C335.18 133.24 334.232 133.636 332.948 133.912C332.888 133.672 332.708 133.348 332.54 133.18C333.644 132.988 334.484 132.688 335.096 132.244C334.712 132.052 334.316 131.86 333.92 131.692L333.728 132.028L332.96 131.752C333.224 131.296 333.548 130.684 333.872 130.06H332.516V129.316H334.244C334.424 128.956 334.592 128.608 334.736 128.284L335.048 128.356V126.7C334.448 127.408 333.68 128.068 332.948 128.464C332.84 128.26 332.624 127.948 332.456 127.792C333.308 127.408 334.22 126.664 334.808 125.884H332.588V125.152H335.048V122.956H335.876V125.152H338.312V125.884H335.876V125.944C336.392 126.244 337.688 127.06 338.012 127.3L337.52 127.936C337.208 127.648 336.452 127.072 335.876 126.64V128.428H335.36L335.564 128.476C335.432 128.74 335.3 129.028 335.156 129.316H338.36V130.06H337.316C337.148 130.864 336.872 131.524 336.464 132.064C336.992 132.352 337.472 132.664 337.844 132.94C338.864 132.376 339.656 131.656 340.244 130.756C339.788 129.784 339.44 128.668 339.164 127.444C338.912 128.008 338.612 128.512 338.288 128.944C338.156 128.776 337.772 128.476 337.568 128.332C338.576 127.072 339.2 125.068 339.524 122.956L340.436 123.088C340.316 123.796 340.16 124.492 339.992 125.152H343.472V125.992Z" fill="#2C59CE"/>
</svg>
