<svg width="360" height="328" viewBox="0 0 360 328" fill="none" xmlns="http://www.w3.org/2000/svg">
<rect width="360" height="328" fill="white"/>
<rect x="82.4017" y="84.5391" width="175.631" height="151.723" fill="#D9D9D9"/>
<path d="M82.8614 236.262C62.7417 236.262 43.4461 228.269 29.2193 214.043C14.9925 199.816 7 180.52 7 160.401C7 140.281 14.9925 120.985 29.2193 106.758C43.4461 92.5316 62.7417 84.5391 82.8614 84.5391V160.401V236.262Z" fill="#D9D9D9"/>
<path d="M83 217C68.4131 217 54.4236 211.282 44.1091 201.104C33.7946 190.925 28 177.12 28 162.726C28 148.332 33.7946 134.527 44.1091 124.349C54.4236 114.17 68.4131 108 83 108" stroke="#1E252C" stroke-width="0.459766" stroke-dasharray="1.84 1.84"/>
<path d="M257.573 84.5408C277.692 84.5408 296.988 92.5333 311.215 106.76C325.442 120.987 333.434 140.283 333.434 160.402C333.434 180.522 325.442 199.818 311.215 214.044C296.988 228.271 277.692 236.264 257.573 236.264L257.573 160.402L257.573 84.5408Z" fill="#D9D9D9"/>
<path d="M258 108C272.587 108 286.576 113.718 296.891 123.896C307.205 134.075 313 147.88 313 162.274C313 176.668 307.205 190.473 296.891 200.651C286.576 210.83 272.587 217 258 217" stroke="#1E252C" stroke-width="0.459766" stroke-dasharray="1.84 1.84"/>
<circle cx="99.8727" cy="107.528" r="3.67813" fill="#1E252C"/>
<circle cx="28.1493" cy="162.7" r="3.67813" fill="white"/>
<circle cx="313.204" cy="162.7" r="3.67813" fill="white"/>
<circle cx="297.572" cy="124.08" r="3.67813" fill="white"/>
<circle cx="43.7814" cy="200.401" r="3.67813" fill="white"/>
<circle cx="43.7814" cy="124.08" r="3.67813" fill="white"/>
<circle cx="240.561" cy="107.528" r="3.67813" fill="#1E252C"/>
<circle cx="169.757" cy="107.528" r="3.67813" fill="#1E252C"/>
<circle cx="133.896" cy="107.528" r="3.67813" fill="#1E252C"/>
<circle cx="169.757" cy="124.08" r="3.67813" fill="#1E252C"/>
<circle cx="99.8727" cy="124.08" r="3.67813" fill="#1E252C"/>
<circle cx="240.561" cy="124.08" r="3.67813" fill="#1E252C"/>
<circle cx="205.619" cy="107.528" r="3.67813" fill="#1E252C"/>
<line x1="82" y1="107.77" x2="257.631" y2="107.77" stroke="#1E252C" stroke-width="0.46" stroke-dasharray="1.84 1.84"/>
<line x1="82.6316" y1="70.7461" x2="82.6316" y2="249.135" stroke="#1E252C" stroke-width="0.459766" stroke-dasharray="1.84 1.84"/>
<line x1="259.182" y1="70.7461" x2="259.182" y2="249.135" stroke="#1E252C" stroke-width="0.459766" stroke-dasharray="1.84 1.84"/>
<line x1="100" y1="77.75" x2="134.023" y2="77.75" stroke="#1E252C" stroke-width="0.5"/>
<line x1="249" y1="107.75" x2="286" y2="107.75" stroke="#1E252C" stroke-width="0.5"/>
<line x1="259" y1="84.75" x2="286" y2="84.75" stroke="#1E252C" stroke-width="0.5"/>
<line x1="249" y1="124.75" x2="286" y2="124.75" stroke="#1E252C" stroke-width="0.5"/>
<line x1="282.75" y1="124" x2="282.75" y2="85" stroke="#1E252C" stroke-width="0.5"/>
<path d="M293.14 113.252V114.176C293.14 115.148 292.9 116.324 291.7 117.08C291.592 116.912 291.268 116.588 291.1 116.468C292.168 115.808 292.312 114.944 292.312 114.152V112.46H295.852V115.4C295.852 115.628 295.864 115.748 295.924 115.796C295.972 115.832 296.032 115.844 296.116 115.844H296.464C296.56 115.844 296.668 115.832 296.716 115.808C296.776 115.772 296.824 115.688 296.848 115.544C296.884 115.364 296.896 115.004 296.908 114.524C297.052 114.656 297.352 114.8 297.58 114.86C297.556 115.328 297.52 115.868 297.46 116.06C297.388 116.264 297.268 116.384 297.1 116.456C296.968 116.54 296.728 116.576 296.536 116.576H295.924C295.708 116.576 295.42 116.516 295.264 116.36C295.096 116.216 295.024 116.012 295.024 115.352V113.252H293.14ZM291.484 120.284L288.268 120.86V122.9H287.428V121.016L286.6 121.16L286.444 120.296L287.428 120.14V112.856L287.908 113.024C288.976 112.736 290.092 112.34 290.74 111.968L291.508 112.604C290.62 113.036 289.396 113.408 288.268 113.684V115.064H291.028V115.88H288.268V117.344H291.124V118.172H288.268V119.996C289.252 119.84 290.356 119.648 291.436 119.456L291.484 120.284ZM295.816 118.064H292.912C293.236 118.892 293.704 119.636 294.304 120.26C294.94 119.648 295.456 118.928 295.816 118.064ZM296.392 117.212L296.956 117.44C296.536 118.856 295.84 119.972 294.952 120.836C295.684 121.424 296.56 121.856 297.58 122.132C297.364 122.3 297.112 122.66 296.992 122.9C295.948 122.576 295.036 122.084 294.28 121.424C293.368 122.108 292.324 122.6 291.196 122.936C291.1 122.708 290.884 122.348 290.704 122.156C291.772 121.88 292.792 121.436 293.644 120.8C292.996 120.08 292.492 119.204 292.12 118.22L292.708 118.064H291.628V117.248H296.224L296.392 117.212ZM302.596 113.168H300.004V114.164H302.596V113.168ZM300.004 115.88H302.596V114.824H300.004V115.88ZM303.448 116.564H300.004V122.924H299.116V112.472H303.448V116.564ZM305.38 118.148H302.56V119.264H305.38V118.148ZM302.56 121.1H305.38V119.936H302.56V121.1ZM306.208 121.808H302.56V122.408H301.756V117.464H306.208V121.808ZM305.368 115.892H308.056V114.824H305.368V115.892ZM308.056 113.168H305.368V114.164H308.056V113.168ZM308.956 112.472V121.736C308.956 122.3 308.824 122.6 308.428 122.756C308.044 122.9 307.408 122.912 306.412 122.912C306.376 122.66 306.232 122.24 306.1 122C306.832 122.036 307.564 122.024 307.78 122.012C307.984 122.012 308.056 121.94 308.056 121.724V116.576H304.516V112.472H308.956ZM313.672 112.436L314.248 112.784C313.936 113.768 313.504 114.992 313.144 115.952C313.948 116.924 314.128 117.788 314.128 118.532C314.14 119.156 313.996 119.66 313.684 119.888C313.528 120.008 313.336 120.068 313.096 120.104C312.88 120.128 312.616 120.14 312.364 120.128C312.352 119.9 312.28 119.576 312.16 119.348C312.388 119.372 312.616 119.372 312.772 119.36C312.916 119.36 313.036 119.324 313.132 119.264C313.3 119.132 313.348 118.796 313.348 118.436C313.348 117.788 313.156 116.984 312.352 116.048C312.676 115.172 313 114.104 313.24 113.288H311.776V122.912H310.996V112.472H313.54L313.672 112.436ZM319.648 120.764H318.184V122.672H317.464V120.764H316.096V120.116H319.648V120.764ZM320.32 118.928L320.332 118.94V117.968H318.832V118.76C318.832 118.952 318.868 118.964 319.144 118.964H320.068C320.248 118.964 320.296 118.964 320.32 118.928ZM321.16 117.248V122C321.16 122.408 321.076 122.624 320.8 122.768C320.512 122.888 320.08 122.888 319.408 122.888C319.384 122.684 319.252 122.36 319.156 122.156C319.624 122.168 320.032 122.168 320.164 122.156C320.296 122.156 320.332 122.12 320.332 122V119.528C320.284 119.54 320.236 119.54 320.176 119.54H319.084C318.412 119.54 318.244 119.384 318.244 118.76V117.968H317.38C317.248 118.94 316.828 119.54 315.76 119.864C315.7 119.732 315.52 119.504 315.4 119.396C316.288 119.144 316.636 118.724 316.768 117.968H315.352V122.912H314.536V117.248H321.16ZM319.6 115.892V114.656H316.156V115.892H319.6ZM320.476 114.02V116.54H315.304V114.02H320.476ZM314.632 112.604H321.208V113.36H314.632V112.604Z" fill="#1E252C"/>
<path d="M293.14 205.252V206.176C293.14 207.148 292.9 208.324 291.7 209.08C291.592 208.912 291.268 208.588 291.1 208.468C292.168 207.808 292.312 206.944 292.312 206.152V204.46H295.852V207.4C295.852 207.628 295.864 207.748 295.924 207.796C295.972 207.832 296.032 207.844 296.116 207.844H296.464C296.56 207.844 296.668 207.832 296.716 207.808C296.776 207.772 296.824 207.688 296.848 207.544C296.884 207.364 296.896 207.004 296.908 206.524C297.052 206.656 297.352 206.8 297.58 206.86C297.556 207.328 297.52 207.868 297.46 208.06C297.388 208.264 297.268 208.384 297.1 208.456C296.968 208.54 296.728 208.576 296.536 208.576H295.924C295.708 208.576 295.42 208.516 295.264 208.36C295.096 208.216 295.024 208.012 295.024 207.352V205.252H293.14ZM291.484 212.284L288.268 212.86V214.9H287.428V213.016L286.6 213.16L286.444 212.296L287.428 212.14V204.856L287.908 205.024C288.976 204.736 290.092 204.34 290.74 203.968L291.508 204.604C290.62 205.036 289.396 205.408 288.268 205.684V207.064H291.028V207.88H288.268V209.344H291.124V210.172H288.268V211.996C289.252 211.84 290.356 211.648 291.436 211.456L291.484 212.284ZM295.816 210.064H292.912C293.236 210.892 293.704 211.636 294.304 212.26C294.94 211.648 295.456 210.928 295.816 210.064ZM296.392 209.212L296.956 209.44C296.536 210.856 295.84 211.972 294.952 212.836C295.684 213.424 296.56 213.856 297.58 214.132C297.364 214.3 297.112 214.66 296.992 214.9C295.948 214.576 295.036 214.084 294.28 213.424C293.368 214.108 292.324 214.6 291.196 214.936C291.1 214.708 290.884 214.348 290.704 214.156C291.772 213.88 292.792 213.436 293.644 212.8C292.996 212.08 292.492 211.204 292.12 210.22L292.708 210.064H291.628V209.248H296.224L296.392 209.212ZM302.596 205.168H300.004V206.164H302.596V205.168ZM300.004 207.88H302.596V206.824H300.004V207.88ZM303.448 208.564H300.004V214.924H299.116V204.472H303.448V208.564ZM305.38 210.148H302.56V211.264H305.38V210.148ZM302.56 213.1H305.38V211.936H302.56V213.1ZM306.208 213.808H302.56V214.408H301.756V209.464H306.208V213.808ZM305.368 207.892H308.056V206.824H305.368V207.892ZM308.056 205.168H305.368V206.164H308.056V205.168ZM308.956 204.472V213.736C308.956 214.3 308.824 214.6 308.428 214.756C308.044 214.9 307.408 214.912 306.412 214.912C306.376 214.66 306.232 214.24 306.1 214C306.832 214.036 307.564 214.024 307.78 214.012C307.984 214.012 308.056 213.94 308.056 213.724V208.576H304.516V204.472H308.956ZM313.672 204.436L314.248 204.784C313.936 205.768 313.504 206.992 313.144 207.952C313.948 208.924 314.128 209.788 314.128 210.532C314.14 211.156 313.996 211.66 313.684 211.888C313.528 212.008 313.336 212.068 313.096 212.104C312.88 212.128 312.616 212.14 312.364 212.128C312.352 211.9 312.28 211.576 312.16 211.348C312.388 211.372 312.616 211.372 312.772 211.36C312.916 211.36 313.036 211.324 313.132 211.264C313.3 211.132 313.348 210.796 313.348 210.436C313.348 209.788 313.156 208.984 312.352 208.048C312.676 207.172 313 206.104 313.24 205.288H311.776V214.912H310.996V204.472H313.54L313.672 204.436ZM319.648 212.764H318.184V214.672H317.464V212.764H316.096V212.116H319.648V212.764ZM320.32 210.928L320.332 210.94V209.968H318.832V210.76C318.832 210.952 318.868 210.964 319.144 210.964H320.068C320.248 210.964 320.296 210.964 320.32 210.928ZM321.16 209.248V214C321.16 214.408 321.076 214.624 320.8 214.768C320.512 214.888 320.08 214.888 319.408 214.888C319.384 214.684 319.252 214.36 319.156 214.156C319.624 214.168 320.032 214.168 320.164 214.156C320.296 214.156 320.332 214.12 320.332 214V211.528C320.284 211.54 320.236 211.54 320.176 211.54H319.084C318.412 211.54 318.244 211.384 318.244 210.76V209.968H317.38C317.248 210.94 316.828 211.54 315.76 211.864C315.7 211.732 315.52 211.504 315.4 211.396C316.288 211.144 316.636 210.724 316.768 209.968H315.352V214.912H314.536V209.248H321.16ZM319.6 207.892V206.656H316.156V207.892H319.6ZM320.476 206.02V208.54H315.304V206.02H320.476ZM314.632 204.604H321.208V205.36H314.632V204.604Z" fill="#1E252C"/>
<path d="M30.136 95.712L29.596 96.504C28.96 95.964 27.676 95.232 26.884 94.872L27.352 94.128C28.216 94.512 29.572 95.28 30.136 95.712ZM25.816 93.912L25.84 94.8C25.216 94.98 24.472 95.136 23.692 95.232C23.104 96.912 22.048 98.976 21.1 100.26L20.164 99.78C21.16 98.628 22.168 96.732 22.708 95.34C22.36 95.364 22.012 95.376 21.664 95.376C21.22 95.376 20.728 95.364 20.284 95.34L20.212 94.44C20.656 94.5 21.16 94.524 21.676 94.524C22.096 94.524 22.54 94.5 22.996 94.464C23.176 93.804 23.344 93.048 23.368 92.412L24.436 92.508C24.316 92.94 24.16 93.66 23.968 94.344C24.592 94.248 25.216 94.104 25.816 93.912ZM26.44 100.548C26.44 100.392 26.44 100.2 26.428 99.984C26.056 99.876 25.648 99.816 25.228 99.816C24.352 99.816 23.776 100.212 23.776 100.752C23.776 101.304 24.22 101.676 25.144 101.676C26.116 101.676 26.44 101.136 26.44 100.548ZM26.272 96.18H27.232C27.196 96.672 27.208 97.02 27.22 97.464C27.232 97.896 27.28 98.676 27.304 99.396C28.324 99.768 29.152 100.356 29.764 100.884L29.248 101.7C28.744 101.244 28.108 100.716 27.34 100.344C27.352 100.524 27.352 100.692 27.352 100.824C27.352 101.772 26.728 102.552 25.264 102.552C23.956 102.552 22.888 102.012 22.888 100.836C22.888 99.744 23.92 99.036 25.264 99.036C25.66 99.036 26.044 99.072 26.392 99.144C26.356 98.172 26.296 97.008 26.272 96.18ZM34.792 93.54L35.044 92.628C36.064 92.952 38.584 93.444 39.64 93.54L39.412 94.476C38.284 94.32 35.704 93.792 34.792 93.54ZM34.78 94.788C34.624 95.604 34.42 97.332 34.312 98.1C35.452 97.104 36.736 96.672 38.152 96.672C39.976 96.672 41.188 97.764 41.188 99.156C41.188 101.292 39.304 102.732 34.888 102.36L34.6 101.376C38.344 101.832 40.18 100.752 40.18 99.132C40.18 98.184 39.304 97.524 38.092 97.524C36.508 97.524 35.26 98.1 34.42 99.096C34.252 99.3 34.144 99.504 34.06 99.696L33.16 99.48C33.4 98.4 33.688 95.904 33.76 94.656L34.78 94.788ZM53.452 94.32L52.828 94.56C52.6 94.02 52.288 93.3 52.024 92.844L52.624 92.64C52.864 93.084 53.248 93.828 53.452 94.32ZM50.62 93.624L51.544 93.336C51.844 94.776 52.552 96.72 54.076 98.244L53.368 98.988C52.828 98.328 52.348 97.608 51.904 96.768C52.156 99.768 50.908 102.732 47.824 102.732C45.916 102.732 44.74 101.496 44.74 99.588C44.74 97.548 45.904 95.64 46.876 94.632C46.276 94.728 45.388 94.872 44.92 94.968C44.716 95.004 44.5 95.052 44.26 95.1L44.116 94.092C44.296 94.092 44.536 94.08 44.752 94.056C45.784 93.972 47.872 93.636 48.568 93.372L48.856 94.236C48.7 94.296 48.4 94.368 48.232 94.452C47.476 95.016 45.676 97.26 45.676 99.456C45.676 101.088 46.708 101.736 47.86 101.736C50.332 101.736 51.736 98.868 50.908 94.488C50.812 94.212 50.716 93.924 50.62 93.624ZM53.26 92.4L53.848 92.172C54.112 92.616 54.472 93.348 54.7 93.852L54.076 94.08C53.848 93.54 53.536 92.844 53.26 92.4ZM66.208 95.364H62.008C63.004 97.416 64.732 99.324 66.616 100.236C66.4 100.416 66.088 100.764 65.956 101.016C64.144 100.02 62.536 98.196 61.456 96.12V99.792H63.736V100.68H61.456V102.912H60.532V100.68H58.192V99.792H60.532V96.12C59.428 98.196 57.808 100.008 56.044 101.028C55.912 100.812 55.612 100.476 55.408 100.308C57.232 99.36 58.972 97.416 59.98 95.364H55.816V94.476H60.532V91.968H61.456V94.476H66.208V95.364ZM72.256 92.196L73.036 92.52C72.688 93.072 72.28 93.672 71.968 94.068L71.368 93.78C71.656 93.36 72.064 92.664 72.256 92.196ZM69.484 93.78L68.776 94.092C68.668 93.672 68.356 93.012 68.032 92.52L68.704 92.244C69.04 92.724 69.364 93.36 69.484 93.78ZM74.74 94.992L74.728 95.028C74.956 96.408 75.292 97.704 75.772 98.82C76.288 97.752 76.612 96.48 76.828 94.992H74.74ZM71.464 99.06H69.784C69.616 99.396 69.436 99.72 69.28 100.032C69.76 100.224 70.24 100.44 70.708 100.668C71.068 100.236 71.308 99.708 71.464 99.06ZM78.472 94.992H77.752C77.452 96.936 76.996 98.52 76.264 99.804C76.864 100.836 77.62 101.652 78.58 102.156C78.376 102.324 78.088 102.672 77.968 102.912C77.044 102.372 76.312 101.604 75.724 100.644C75.016 101.58 74.116 102.348 72.94 102.948C72.868 102.792 72.712 102.528 72.556 102.324L72.28 102.612C71.908 102.312 71.428 101.988 70.876 101.664C70.18 102.24 69.232 102.636 67.948 102.912C67.888 102.672 67.708 102.348 67.54 102.18C68.644 101.988 69.484 101.688 70.096 101.244C69.712 101.052 69.316 100.86 68.92 100.692L68.728 101.028L67.96 100.752C68.224 100.296 68.548 99.684 68.872 99.06H67.516V98.316H69.244C69.424 97.956 69.592 97.608 69.736 97.284L70.048 97.356V95.7C69.448 96.408 68.68 97.068 67.948 97.464C67.84 97.26 67.624 96.948 67.456 96.792C68.308 96.408 69.22 95.664 69.808 94.884H67.588V94.152H70.048V91.956H70.876V94.152H73.312V94.884H70.876V94.944C71.392 95.244 72.688 96.06 73.012 96.3L72.52 96.936C72.208 96.648 71.452 96.072 70.876 95.64V97.428H70.36L70.564 97.476C70.432 97.74 70.3 98.028 70.156 98.316H73.36V99.06H72.316C72.148 99.864 71.872 100.524 71.464 101.064C71.992 101.352 72.472 101.664 72.844 101.94C73.864 101.376 74.656 100.656 75.244 99.756C74.788 98.784 74.44 97.668 74.164 96.444C73.912 97.008 73.612 97.512 73.288 97.944C73.156 97.776 72.772 97.476 72.568 97.332C73.576 96.072 74.2 94.068 74.524 91.956L75.436 92.088C75.316 92.796 75.16 93.492 74.992 94.152H78.472V94.992Z" fill="#2C59CE"/>
<path d="M30.136 216.712L29.596 217.504C28.96 216.964 27.676 216.232 26.884 215.872L27.352 215.128C28.216 215.512 29.572 216.28 30.136 216.712ZM25.816 214.912L25.84 215.8C25.216 215.98 24.472 216.136 23.692 216.232C23.104 217.912 22.048 219.976 21.1 221.26L20.164 220.78C21.16 219.628 22.168 217.732 22.708 216.34C22.36 216.364 22.012 216.376 21.664 216.376C21.22 216.376 20.728 216.364 20.284 216.34L20.212 215.44C20.656 215.5 21.16 215.524 21.676 215.524C22.096 215.524 22.54 215.5 22.996 215.464C23.176 214.804 23.344 214.048 23.368 213.412L24.436 213.508C24.316 213.94 24.16 214.66 23.968 215.344C24.592 215.248 25.216 215.104 25.816 214.912ZM26.44 221.548C26.44 221.392 26.44 221.2 26.428 220.984C26.056 220.876 25.648 220.816 25.228 220.816C24.352 220.816 23.776 221.212 23.776 221.752C23.776 222.304 24.22 222.676 25.144 222.676C26.116 222.676 26.44 222.136 26.44 221.548ZM26.272 217.18H27.232C27.196 217.672 27.208 218.02 27.22 218.464C27.232 218.896 27.28 219.676 27.304 220.396C28.324 220.768 29.152 221.356 29.764 221.884L29.248 222.7C28.744 222.244 28.108 221.716 27.34 221.344C27.352 221.524 27.352 221.692 27.352 221.824C27.352 222.772 26.728 223.552 25.264 223.552C23.956 223.552 22.888 223.012 22.888 221.836C22.888 220.744 23.92 220.036 25.264 220.036C25.66 220.036 26.044 220.072 26.392 220.144C26.356 219.172 26.296 218.008 26.272 217.18ZM34.792 214.54L35.044 213.628C36.064 213.952 38.584 214.444 39.64 214.54L39.412 215.476C38.284 215.32 35.704 214.792 34.792 214.54ZM34.78 215.788C34.624 216.604 34.42 218.332 34.312 219.1C35.452 218.104 36.736 217.672 38.152 217.672C39.976 217.672 41.188 218.764 41.188 220.156C41.188 222.292 39.304 223.732 34.888 223.36L34.6 222.376C38.344 222.832 40.18 221.752 40.18 220.132C40.18 219.184 39.304 218.524 38.092 218.524C36.508 218.524 35.26 219.1 34.42 220.096C34.252 220.3 34.144 220.504 34.06 220.696L33.16 220.48C33.4 219.4 33.688 216.904 33.76 215.656L34.78 215.788ZM53.452 215.32L52.828 215.56C52.6 215.02 52.288 214.3 52.024 213.844L52.624 213.64C52.864 214.084 53.248 214.828 53.452 215.32ZM50.62 214.624L51.544 214.336C51.844 215.776 52.552 217.72 54.076 219.244L53.368 219.988C52.828 219.328 52.348 218.608 51.904 217.768C52.156 220.768 50.908 223.732 47.824 223.732C45.916 223.732 44.74 222.496 44.74 220.588C44.74 218.548 45.904 216.64 46.876 215.632C46.276 215.728 45.388 215.872 44.92 215.968C44.716 216.004 44.5 216.052 44.26 216.1L44.116 215.092C44.296 215.092 44.536 215.08 44.752 215.056C45.784 214.972 47.872 214.636 48.568 214.372L48.856 215.236C48.7 215.296 48.4 215.368 48.232 215.452C47.476 216.016 45.676 218.26 45.676 220.456C45.676 222.088 46.708 222.736 47.86 222.736C50.332 222.736 51.736 219.868 50.908 215.488C50.812 215.212 50.716 214.924 50.62 214.624ZM53.26 213.4L53.848 213.172C54.112 213.616 54.472 214.348 54.7 214.852L54.076 215.08C53.848 214.54 53.536 213.844 53.26 213.4ZM66.208 216.364H62.008C63.004 218.416 64.732 220.324 66.616 221.236C66.4 221.416 66.088 221.764 65.956 222.016C64.144 221.02 62.536 219.196 61.456 217.12V220.792H63.736V221.68H61.456V223.912H60.532V221.68H58.192V220.792H60.532V217.12C59.428 219.196 57.808 221.008 56.044 222.028C55.912 221.812 55.612 221.476 55.408 221.308C57.232 220.36 58.972 218.416 59.98 216.364H55.816V215.476H60.532V212.968H61.456V215.476H66.208V216.364ZM72.256 213.196L73.036 213.52C72.688 214.072 72.28 214.672 71.968 215.068L71.368 214.78C71.656 214.36 72.064 213.664 72.256 213.196ZM69.484 214.78L68.776 215.092C68.668 214.672 68.356 214.012 68.032 213.52L68.704 213.244C69.04 213.724 69.364 214.36 69.484 214.78ZM74.74 215.992L74.728 216.028C74.956 217.408 75.292 218.704 75.772 219.82C76.288 218.752 76.612 217.48 76.828 215.992H74.74ZM71.464 220.06H69.784C69.616 220.396 69.436 220.72 69.28 221.032C69.76 221.224 70.24 221.44 70.708 221.668C71.068 221.236 71.308 220.708 71.464 220.06ZM78.472 215.992H77.752C77.452 217.936 76.996 219.52 76.264 220.804C76.864 221.836 77.62 222.652 78.58 223.156C78.376 223.324 78.088 223.672 77.968 223.912C77.044 223.372 76.312 222.604 75.724 221.644C75.016 222.58 74.116 223.348 72.94 223.948C72.868 223.792 72.712 223.528 72.556 223.324L72.28 223.612C71.908 223.312 71.428 222.988 70.876 222.664C70.18 223.24 69.232 223.636 67.948 223.912C67.888 223.672 67.708 223.348 67.54 223.18C68.644 222.988 69.484 222.688 70.096 222.244C69.712 222.052 69.316 221.86 68.92 221.692L68.728 222.028L67.96 221.752C68.224 221.296 68.548 220.684 68.872 220.06H67.516V219.316H69.244C69.424 218.956 69.592 218.608 69.736 218.284L70.048 218.356V216.7C69.448 217.408 68.68 218.068 67.948 218.464C67.84 218.26 67.624 217.948 67.456 217.792C68.308 217.408 69.22 216.664 69.808 215.884H67.588V215.152H70.048V212.956H70.876V215.152H73.312V215.884H70.876V215.944C71.392 216.244 72.688 217.06 73.012 217.3L72.52 217.936C72.208 217.648 71.452 217.072 70.876 216.64V218.428H70.36L70.564 218.476C70.432 218.74 70.3 219.028 70.156 219.316H73.36V220.06H72.316C72.148 220.864 71.872 221.524 71.464 222.064C71.992 222.352 72.472 222.664 72.844 222.94C73.864 222.376 74.656 221.656 75.244 220.756C74.788 219.784 74.44 218.668 74.164 217.444C73.912 218.008 73.612 218.512 73.288 218.944C73.156 218.776 72.772 218.476 72.568 218.332C73.576 217.072 74.2 215.068 74.524 212.956L75.436 213.088C75.316 213.796 75.16 214.492 74.992 215.152H78.472V215.992Z" fill="#2C59CE"/>
<path d="M65.208 119.364H61.008C62.004 121.416 63.732 123.324 65.616 124.236C65.4 124.416 65.088 124.764 64.956 125.016C63.144 124.02 61.536 122.196 60.456 120.12V123.792H62.736V124.68H60.456V126.912H59.532V124.68H57.192V123.792H59.532V120.12C58.428 122.196 56.808 124.008 55.044 125.028C54.912 124.812 54.612 124.476 54.408 124.308C56.232 123.36 57.972 121.416 58.98 119.364H54.816V118.476H59.532V115.968H60.456V118.476H65.208V119.364ZM71.256 116.196L72.036 116.52C71.688 117.072 71.28 117.672 70.968 118.068L70.368 117.78C70.656 117.36 71.064 116.664 71.256 116.196ZM68.484 117.78L67.776 118.092C67.668 117.672 67.356 117.012 67.032 116.52L67.704 116.244C68.04 116.724 68.364 117.36 68.484 117.78ZM73.74 118.992L73.728 119.028C73.956 120.408 74.292 121.704 74.772 122.82C75.288 121.752 75.612 120.48 75.828 118.992H73.74ZM70.464 123.06H68.784C68.616 123.396 68.436 123.72 68.28 124.032C68.76 124.224 69.24 124.44 69.708 124.668C70.068 124.236 70.308 123.708 70.464 123.06ZM77.472 118.992H76.752C76.452 120.936 75.996 122.52 75.264 123.804C75.864 124.836 76.62 125.652 77.58 126.156C77.376 126.324 77.088 126.672 76.968 126.912C76.044 126.372 75.312 125.604 74.724 124.644C74.016 125.58 73.116 126.348 71.94 126.948C71.868 126.792 71.712 126.528 71.556 126.324L71.28 126.612C70.908 126.312 70.428 125.988 69.876 125.664C69.18 126.24 68.232 126.636 66.948 126.912C66.888 126.672 66.708 126.348 66.54 126.18C67.644 125.988 68.484 125.688 69.096 125.244C68.712 125.052 68.316 124.86 67.92 124.692L67.728 125.028L66.96 124.752C67.224 124.296 67.548 123.684 67.872 123.06H66.516V122.316H68.244C68.424 121.956 68.592 121.608 68.736 121.284L69.048 121.356V119.7C68.448 120.408 67.68 121.068 66.948 121.464C66.84 121.26 66.624 120.948 66.456 120.792C67.308 120.408 68.22 119.664 68.808 118.884H66.588V118.152H69.048V115.956H69.876V118.152H72.312V118.884H69.876V118.944C70.392 119.244 71.688 120.06 72.012 120.3L71.52 120.936C71.208 120.648 70.452 120.072 69.876 119.64V121.428H69.36L69.564 121.476C69.432 121.74 69.3 122.028 69.156 122.316H72.36V123.06H71.316C71.148 123.864 70.872 124.524 70.464 125.064C70.992 125.352 71.472 125.664 71.844 125.94C72.864 125.376 73.656 124.656 74.244 123.756C73.788 122.784 73.44 121.668 73.164 120.444C72.912 121.008 72.612 121.512 72.288 121.944C72.156 121.776 71.772 121.476 71.568 121.332C72.576 120.072 73.2 118.068 73.524 115.956L74.436 116.088C74.316 116.796 74.16 117.492 73.992 118.152H77.472V118.992Z" fill="#CE2C3F"/>
<path d="M65.208 195.364H61.008C62.004 197.416 63.732 199.324 65.616 200.236C65.4 200.416 65.088 200.764 64.956 201.016C63.144 200.02 61.536 198.196 60.456 196.12V199.792H62.736V200.68H60.456V202.912H59.532V200.68H57.192V199.792H59.532V196.12C58.428 198.196 56.808 200.008 55.044 201.028C54.912 200.812 54.612 200.476 54.408 200.308C56.232 199.36 57.972 197.416 58.98 195.364H54.816V194.476H59.532V191.968H60.456V194.476H65.208V195.364ZM71.256 192.196L72.036 192.52C71.688 193.072 71.28 193.672 70.968 194.068L70.368 193.78C70.656 193.36 71.064 192.664 71.256 192.196ZM68.484 193.78L67.776 194.092C67.668 193.672 67.356 193.012 67.032 192.52L67.704 192.244C68.04 192.724 68.364 193.36 68.484 193.78ZM73.74 194.992L73.728 195.028C73.956 196.408 74.292 197.704 74.772 198.82C75.288 197.752 75.612 196.48 75.828 194.992H73.74ZM70.464 199.06H68.784C68.616 199.396 68.436 199.72 68.28 200.032C68.76 200.224 69.24 200.44 69.708 200.668C70.068 200.236 70.308 199.708 70.464 199.06ZM77.472 194.992H76.752C76.452 196.936 75.996 198.52 75.264 199.804C75.864 200.836 76.62 201.652 77.58 202.156C77.376 202.324 77.088 202.672 76.968 202.912C76.044 202.372 75.312 201.604 74.724 200.644C74.016 201.58 73.116 202.348 71.94 202.948C71.868 202.792 71.712 202.528 71.556 202.324L71.28 202.612C70.908 202.312 70.428 201.988 69.876 201.664C69.18 202.24 68.232 202.636 66.948 202.912C66.888 202.672 66.708 202.348 66.54 202.18C67.644 201.988 68.484 201.688 69.096 201.244C68.712 201.052 68.316 200.86 67.92 200.692L67.728 201.028L66.96 200.752C67.224 200.296 67.548 199.684 67.872 199.06H66.516V198.316H68.244C68.424 197.956 68.592 197.608 68.736 197.284L69.048 197.356V195.7C68.448 196.408 67.68 197.068 66.948 197.464C66.84 197.26 66.624 196.948 66.456 196.792C67.308 196.408 68.22 195.664 68.808 194.884H66.588V194.152H69.048V191.956H69.876V194.152H72.312V194.884H69.876V194.944C70.392 195.244 71.688 196.06 72.012 196.3L71.52 196.936C71.208 196.648 70.452 196.072 69.876 195.64V197.428H69.36L69.564 197.476C69.432 197.74 69.3 198.028 69.156 198.316H72.36V199.06H71.316C71.148 199.864 70.872 200.524 70.464 201.064C70.992 201.352 71.472 201.664 71.844 201.94C72.864 201.376 73.656 200.656 74.244 199.756C73.788 198.784 73.44 197.668 73.164 196.444C72.912 197.008 72.612 197.512 72.288 197.944C72.156 197.776 71.772 197.476 71.568 197.332C72.576 196.072 73.2 194.068 73.524 191.956L74.436 192.088C74.316 192.796 74.16 193.492 73.992 194.152H77.472V194.992Z" fill="#CE2C3F"/>
<path d="M287.224 100.772L286.42 100.292C287.236 99.44 287.68 98.012 287.908 96.716L288.748 96.932C288.496 98.288 288.076 99.836 287.224 100.772ZM290.416 94.688H289.528V93.38H286.804V92.516H289.528V90.956H290.416V92.516H293.572V90.956H294.46V92.516H297.196V93.38H294.46V94.688H293.572V93.38H290.416V94.688ZM290.464 95.072L291.088 94.556C292.084 95.084 293.248 95.924 293.8 96.572L293.128 97.16C292.612 96.512 291.46 95.636 290.464 95.072ZM291.268 100.808H293.452C294.04 100.808 294.124 100.544 294.196 98.972C294.4 99.116 294.784 99.272 295.036 99.332C294.916 101.18 294.64 101.66 293.488 101.66H291.208C289.96 101.66 289.636 101.372 289.636 100.304V96.236H290.524V100.304C290.524 100.712 290.632 100.808 291.268 100.808ZM294.688 96.812L295.468 96.464C296.368 97.568 297.28 99.056 297.604 100.064L296.764 100.472C296.452 99.464 295.564 97.94 294.688 96.812ZM302.836 97.928L302.308 98.528C302.08 98.156 301.564 97.46 301.12 96.896V101.924H300.268V97.292C299.788 97.796 299.284 98.24 298.804 98.6C298.72 98.372 298.492 97.964 298.36 97.808C299.596 96.98 300.916 95.504 301.66 93.98H298.624V93.176H300.244V91.004H301.084V93.176H302.092L302.248 93.14L302.728 93.464C302.38 94.376 301.864 95.276 301.276 96.08C301.384 96.212 301.528 96.368 301.672 96.548C301.972 96.164 302.308 95.66 302.512 95.312L303.052 95.708C302.728 96.152 302.368 96.632 302.056 96.992C302.392 97.388 302.716 97.772 302.836 97.928ZM307.924 96.452H305.044C305.38 97.448 305.86 98.348 306.484 99.092C307.108 98.36 307.6 97.472 307.924 96.452ZM305.884 93.62H304.144V95.66H305.884V93.62ZM308.404 95.624L308.98 95.84C308.62 97.436 307.948 98.72 307.084 99.728C307.792 100.376 308.62 100.868 309.592 101.18C309.4 101.348 309.136 101.708 308.992 101.948C308.02 101.588 307.18 101.048 306.472 100.364C305.74 101.048 304.912 101.552 304.024 101.924C303.916 101.708 303.688 101.36 303.508 101.192C304.36 100.88 305.176 100.388 305.896 99.728C305.152 98.816 304.6 97.712 304.216 96.452H304.132C304.072 98.204 303.76 100.388 302.644 101.924C302.5 101.78 302.14 101.552 301.936 101.456C303.16 99.776 303.292 97.4 303.292 95.684V92.816H305.884V90.968H306.736V92.816H308.704L308.848 92.78L309.472 92.924C309.268 93.74 308.992 94.712 308.74 95.3L307.972 95.132C308.128 94.736 308.296 94.172 308.416 93.62H306.736V95.66H308.26L308.404 95.624ZM313.036 91.532L314.092 91.568C313.84 92.444 313.612 94.04 313.54 94.868C314.008 93.644 315.256 92.168 316.756 92.168C318.34 92.168 319.48 93.752 319.48 96.248C319.48 99.548 317.404 101 314.452 101.54L313.888 100.676C316.468 100.28 318.484 99.248 318.484 96.26C318.484 94.388 317.86 93.044 316.6 93.044C315.124 93.044 313.756 95.192 313.612 96.752C313.552 97.208 313.552 97.616 313.636 98.204L312.7 98.276C312.64 97.832 312.58 97.16 312.58 96.392C312.58 95.264 312.796 93.512 312.94 92.552C312.988 92.18 313.024 91.82 313.036 91.532ZM323.056 101V100.088H325.012V93.524H323.452V92.828C324.232 92.684 324.796 92.48 325.276 92.204H326.116V100.088H327.88V101H323.056ZM335.796 92.252V93.176C335.796 94.148 335.556 95.324 334.356 96.08C334.248 95.912 333.924 95.588 333.756 95.468C334.824 94.808 334.968 93.944 334.968 93.152V91.46H338.508V94.4C338.508 94.628 338.52 94.748 338.58 94.796C338.628 94.832 338.688 94.844 338.772 94.844H339.12C339.216 94.844 339.324 94.832 339.372 94.808C339.432 94.772 339.48 94.688 339.504 94.544C339.54 94.364 339.552 94.004 339.564 93.524C339.708 93.656 340.008 93.8 340.236 93.86C340.212 94.328 340.176 94.868 340.116 95.06C340.044 95.264 339.924 95.384 339.756 95.456C339.624 95.54 339.384 95.576 339.192 95.576H338.58C338.364 95.576 338.076 95.516 337.92 95.36C337.752 95.216 337.68 95.012 337.68 94.352V92.252H335.796ZM334.14 99.284L330.924 99.86V101.9H330.084V100.016L329.256 100.16L329.1 99.296L330.084 99.14V91.856L330.564 92.024C331.632 91.736 332.748 91.34 333.396 90.968L334.164 91.604C333.276 92.036 332.052 92.408 330.924 92.684V94.064H333.684V94.88H330.924V96.344H333.78V97.172H330.924V98.996C331.908 98.84 333.012 98.648 334.092 98.456L334.14 99.284ZM338.472 97.064H335.568C335.892 97.892 336.36 98.636 336.96 99.26C337.596 98.648 338.112 97.928 338.472 97.064ZM339.048 96.212L339.612 96.44C339.192 97.856 338.496 98.972 337.608 99.836C338.34 100.424 339.216 100.856 340.236 101.132C340.02 101.3 339.768 101.66 339.648 101.9C338.604 101.576 337.692 101.084 336.936 100.424C336.024 101.108 334.98 101.6 333.852 101.936C333.756 101.708 333.54 101.348 333.36 101.156C334.428 100.88 335.448 100.436 336.3 99.8C335.652 99.08 335.148 98.204 334.776 97.22L335.364 97.064H334.284V96.248H338.88L339.048 96.212ZM343.464 100.16H349.74V98.192H343.464V100.16ZM349.74 95.372H343.464V97.34H349.74V95.372ZM349.74 92.576H343.464V94.52H349.74V92.576ZM342.588 91.712H350.664V101.852H349.74V101.036H343.464V101.852H342.588V91.712Z" fill="#1E252C"/>
<path d="M287.224 230.772L286.42 230.292C287.236 229.44 287.68 228.012 287.908 226.716L288.748 226.932C288.496 228.288 288.076 229.836 287.224 230.772ZM290.416 224.688H289.528V223.38H286.804V222.516H289.528V220.956H290.416V222.516H293.572V220.956H294.46V222.516H297.196V223.38H294.46V224.688H293.572V223.38H290.416V224.688ZM290.464 225.072L291.088 224.556C292.084 225.084 293.248 225.924 293.8 226.572L293.128 227.16C292.612 226.512 291.46 225.636 290.464 225.072ZM291.268 230.808H293.452C294.04 230.808 294.124 230.544 294.196 228.972C294.4 229.116 294.784 229.272 295.036 229.332C294.916 231.18 294.64 231.66 293.488 231.66H291.208C289.96 231.66 289.636 231.372 289.636 230.304V226.236H290.524V230.304C290.524 230.712 290.632 230.808 291.268 230.808ZM294.688 226.812L295.468 226.464C296.368 227.568 297.28 229.056 297.604 230.064L296.764 230.472C296.452 229.464 295.564 227.94 294.688 226.812ZM302.836 227.928L302.308 228.528C302.08 228.156 301.564 227.46 301.12 226.896V231.924H300.268V227.292C299.788 227.796 299.284 228.24 298.804 228.6C298.72 228.372 298.492 227.964 298.36 227.808C299.596 226.98 300.916 225.504 301.66 223.98H298.624V223.176H300.244V221.004H301.084V223.176H302.092L302.248 223.14L302.728 223.464C302.38 224.376 301.864 225.276 301.276 226.08C301.384 226.212 301.528 226.368 301.672 226.548C301.972 226.164 302.308 225.66 302.512 225.312L303.052 225.708C302.728 226.152 302.368 226.632 302.056 226.992C302.392 227.388 302.716 227.772 302.836 227.928ZM307.924 226.452H305.044C305.38 227.448 305.86 228.348 306.484 229.092C307.108 228.36 307.6 227.472 307.924 226.452ZM305.884 223.62H304.144V225.66H305.884V223.62ZM308.404 225.624L308.98 225.84C308.62 227.436 307.948 228.72 307.084 229.728C307.792 230.376 308.62 230.868 309.592 231.18C309.4 231.348 309.136 231.708 308.992 231.948C308.02 231.588 307.18 231.048 306.472 230.364C305.74 231.048 304.912 231.552 304.024 231.924C303.916 231.708 303.688 231.36 303.508 231.192C304.36 230.88 305.176 230.388 305.896 229.728C305.152 228.816 304.6 227.712 304.216 226.452H304.132C304.072 228.204 303.76 230.388 302.644 231.924C302.5 231.78 302.14 231.552 301.936 231.456C303.16 229.776 303.292 227.4 303.292 225.684V222.816H305.884V220.968H306.736V222.816H308.704L308.848 222.78L309.472 222.924C309.268 223.74 308.992 224.712 308.74 225.3L307.972 225.132C308.128 224.736 308.296 224.172 308.416 223.62H306.736V225.66H308.26L308.404 225.624ZM313.036 221.532L314.092 221.568C313.84 222.444 313.612 224.04 313.54 224.868C314.008 223.644 315.256 222.168 316.756 222.168C318.34 222.168 319.48 223.752 319.48 226.248C319.48 229.548 317.404 231 314.452 231.54L313.888 230.676C316.468 230.28 318.484 229.248 318.484 226.26C318.484 224.388 317.86 223.044 316.6 223.044C315.124 223.044 313.756 225.192 313.612 226.752C313.552 227.208 313.552 227.616 313.636 228.204L312.7 228.276C312.64 227.832 312.58 227.16 312.58 226.392C312.58 225.264 312.796 223.512 312.94 222.552C312.988 222.18 313.024 221.82 313.036 221.532ZM323.056 231V230.088H325.012V223.524H323.452V222.828C324.232 222.684 324.796 222.48 325.276 222.204H326.116V230.088H327.88V231H323.056ZM335.796 222.252V223.176C335.796 224.148 335.556 225.324 334.356 226.08C334.248 225.912 333.924 225.588 333.756 225.468C334.824 224.808 334.968 223.944 334.968 223.152V221.46H338.508V224.4C338.508 224.628 338.52 224.748 338.58 224.796C338.628 224.832 338.688 224.844 338.772 224.844H339.12C339.216 224.844 339.324 224.832 339.372 224.808C339.432 224.772 339.48 224.688 339.504 224.544C339.54 224.364 339.552 224.004 339.564 223.524C339.708 223.656 340.008 223.8 340.236 223.86C340.212 224.328 340.176 224.868 340.116 225.06C340.044 225.264 339.924 225.384 339.756 225.456C339.624 225.54 339.384 225.576 339.192 225.576H338.58C338.364 225.576 338.076 225.516 337.92 225.36C337.752 225.216 337.68 225.012 337.68 224.352V222.252H335.796ZM334.14 229.284L330.924 229.86V231.9H330.084V230.016L329.256 230.16L329.1 229.296L330.084 229.14V221.856L330.564 222.024C331.632 221.736 332.748 221.34 333.396 220.968L334.164 221.604C333.276 222.036 332.052 222.408 330.924 222.684V224.064H333.684V224.88H330.924V226.344H333.78V227.172H330.924V228.996C331.908 228.84 333.012 228.648 334.092 228.456L334.14 229.284ZM338.472 227.064H335.568C335.892 227.892 336.36 228.636 336.96 229.26C337.596 228.648 338.112 227.928 338.472 227.064ZM339.048 226.212L339.612 226.44C339.192 227.856 338.496 228.972 337.608 229.836C338.34 230.424 339.216 230.856 340.236 231.132C340.02 231.3 339.768 231.66 339.648 231.9C338.604 231.576 337.692 231.084 336.936 230.424C336.024 231.108 334.98 231.6 333.852 231.936C333.756 231.708 333.54 231.348 333.36 231.156C334.428 230.88 335.448 230.436 336.3 229.8C335.652 229.08 335.148 228.204 334.776 227.22L335.364 227.064H334.284V226.248H338.88L339.048 226.212ZM343.464 230.16H349.74V228.192H343.464V230.16ZM349.74 225.372H343.464V227.34H349.74V225.372ZM349.74 222.576H343.464V224.52H349.74V222.576ZM342.588 221.712H350.664V231.852H349.74V231.036H343.464V231.852H342.588V221.712Z" fill="#1E252C"/>
<path d="M109.596 58.168H107.004V59.164H109.596V58.168ZM107.004 60.88H109.596V59.824H107.004V60.88ZM110.448 61.564H107.004V67.924H106.116V57.472H110.448V61.564ZM112.38 63.148H109.56V64.264H112.38V63.148ZM109.56 66.1H112.38V64.936H109.56V66.1ZM113.208 66.808H109.56V67.408H108.756V62.464H113.208V66.808ZM112.368 60.892H115.056V59.824H112.368V60.892ZM115.056 58.168H112.368V59.164H115.056V58.168ZM115.956 57.472V66.736C115.956 67.3 115.824 67.6 115.428 67.756C115.044 67.9 114.408 67.912 113.412 67.912C113.376 67.66 113.232 67.24 113.1 67C113.832 67.036 114.564 67.024 114.78 67.012C114.984 67.012 115.056 66.94 115.056 66.724V61.576H111.516V57.472H115.956ZM120.672 57.436L121.248 57.784C120.936 58.768 120.504 59.992 120.144 60.952C120.948 61.924 121.128 62.788 121.128 63.532C121.14 64.156 120.996 64.66 120.684 64.888C120.528 65.008 120.336 65.068 120.096 65.104C119.88 65.128 119.616 65.14 119.364 65.128C119.352 64.9 119.28 64.576 119.16 64.348C119.388 64.372 119.616 64.372 119.772 64.36C119.916 64.36 120.036 64.324 120.132 64.264C120.3 64.132 120.348 63.796 120.348 63.436C120.348 62.788 120.156 61.984 119.352 61.048C119.676 60.172 120 59.104 120.24 58.288H118.776V67.912H117.996V57.472H120.54L120.672 57.436ZM126.648 65.764H125.184V67.672H124.464V65.764H123.096V65.116H126.648V65.764ZM127.32 63.928L127.332 63.94V62.968H125.832V63.76C125.832 63.952 125.868 63.964 126.144 63.964H127.068C127.248 63.964 127.296 63.964 127.32 63.928ZM128.16 62.248V67C128.16 67.408 128.076 67.624 127.8 67.768C127.512 67.888 127.08 67.888 126.408 67.888C126.384 67.684 126.252 67.36 126.156 67.156C126.624 67.168 127.032 67.168 127.164 67.156C127.296 67.156 127.332 67.12 127.332 67V64.528C127.284 64.54 127.236 64.54 127.176 64.54H126.084C125.412 64.54 125.244 64.384 125.244 63.76V62.968H124.38C124.248 63.94 123.828 64.54 122.76 64.864C122.7 64.732 122.52 64.504 122.4 64.396C123.288 64.144 123.636 63.724 123.768 62.968H122.352V67.912H121.536V62.248H128.16ZM126.6 60.892V59.656H123.156V60.892H126.6ZM127.476 59.02V61.54H122.304V59.02H127.476ZM121.632 57.604H128.208V58.36H121.632V57.604Z" fill="#1E252C"/>
<rect x="93.0165" y="100.672" width="158.999" height="14.6321" stroke="#2C59CE" stroke-dasharray="1.84 1.84"/>
<rect x="88.4188" y="90.5566" width="166.355" height="41.2985" stroke="#CE2C3F" stroke-dasharray="1.84 1.84"/>
<line x1="133.75" y1="97" x2="133.75" y2="71" stroke="#1E252C" stroke-width="0.5"/>
<line x1="99.75" y1="97" x2="99.75" y2="71" stroke="#1E252C" stroke-width="0.5"/>
<path d="M109.596 259.168H107.004V260.164H109.596V259.168ZM107.004 261.88H109.596V260.824H107.004V261.88ZM110.448 262.564H107.004V268.924H106.116V258.472H110.448V262.564ZM112.38 264.148H109.56V265.264H112.38V264.148ZM109.56 267.1H112.38V265.936H109.56V267.1ZM113.208 267.808H109.56V268.408H108.756V263.464H113.208V267.808ZM112.368 261.892H115.056V260.824H112.368V261.892ZM115.056 259.168H112.368V260.164H115.056V259.168ZM115.956 258.472V267.736C115.956 268.3 115.824 268.6 115.428 268.756C115.044 268.9 114.408 268.912 113.412 268.912C113.376 268.66 113.232 268.24 113.1 268C113.832 268.036 114.564 268.024 114.78 268.012C114.984 268.012 115.056 267.94 115.056 267.724V262.576H111.516V258.472H115.956ZM120.672 258.436L121.248 258.784C120.936 259.768 120.504 260.992 120.144 261.952C120.948 262.924 121.128 263.788 121.128 264.532C121.14 265.156 120.996 265.66 120.684 265.888C120.528 266.008 120.336 266.068 120.096 266.104C119.88 266.128 119.616 266.14 119.364 266.128C119.352 265.9 119.28 265.576 119.16 265.348C119.388 265.372 119.616 265.372 119.772 265.36C119.916 265.36 120.036 265.324 120.132 265.264C120.3 265.132 120.348 264.796 120.348 264.436C120.348 263.788 120.156 262.984 119.352 262.048C119.676 261.172 120 260.104 120.24 259.288H118.776V268.912H117.996V258.472H120.54L120.672 258.436ZM126.648 266.764H125.184V268.672H124.464V266.764H123.096V266.116H126.648V266.764ZM127.32 264.928L127.332 264.94V263.968H125.832V264.76C125.832 264.952 125.868 264.964 126.144 264.964H127.068C127.248 264.964 127.296 264.964 127.32 264.928ZM128.16 263.248V268C128.16 268.408 128.076 268.624 127.8 268.768C127.512 268.888 127.08 268.888 126.408 268.888C126.384 268.684 126.252 268.36 126.156 268.156C126.624 268.168 127.032 268.168 127.164 268.156C127.296 268.156 127.332 268.12 127.332 268V265.528C127.284 265.54 127.236 265.54 127.176 265.54H126.084C125.412 265.54 125.244 265.384 125.244 264.76V263.968H124.38C124.248 264.94 123.828 265.54 122.76 265.864C122.7 265.732 122.52 265.504 122.4 265.396C123.288 265.144 123.636 264.724 123.768 263.968H122.352V268.912H121.536V263.248H128.16ZM126.6 261.892V260.656H123.156V261.892H126.6ZM127.476 260.02V262.54H122.304V260.02H127.476ZM121.632 258.604H128.208V259.36H121.632V258.604Z" fill="#1E252C"/>
<circle cx="3.67813" cy="3.67813" r="3.67813" transform="matrix(1 0 0 -1 96.1946 221.15)" fill="#1E252C"/>
<circle cx="3.67813" cy="3.67813" r="3.67813" transform="matrix(1 0 0 -1 293.894 204.598)" fill="white"/>
<circle cx="3.67813" cy="3.67813" r="3.67813" transform="matrix(1 0 0 -1 40.1033 204.598)" fill="white"/>
<circle cx="3.67813" cy="3.67813" r="3.67813" transform="matrix(1 0 0 -1 236.883 221.15)" fill="#1E252C"/>
<circle cx="3.67813" cy="3.67813" r="3.67813" transform="matrix(1 0 0 -1 166.079 221.15)" fill="#1E252C"/>
<circle cx="3.67813" cy="3.67813" r="3.67813" transform="matrix(1 0 0 -1 130.217 221.15)" fill="#1E252C"/>
<circle cx="3.67813" cy="3.67813" r="3.67813" transform="matrix(1 0 0 -1 166.079 204.598)" fill="#1E252C"/>
<circle cx="3.67813" cy="3.67813" r="3.67813" transform="matrix(1 0 0 -1 96.1946 204.598)" fill="#1E252C"/>
<circle cx="3.67813" cy="3.67813" r="3.67813" transform="matrix(1 0 0 -1 236.883 204.598)" fill="#1E252C"/>
<circle cx="3.67813" cy="3.67813" r="3.67813" transform="matrix(1 0 0 -1 201.941 221.15)" fill="#1E252C"/>
<line y1="-0.23" x2="175.631" y2="-0.23" transform="matrix(1 0 0 -1 82 217)" stroke="#1E252C" stroke-width="0.46" stroke-dasharray="1.84 1.84"/>
<line x1="100" y1="246.75" x2="134" y2="246.75" stroke="#1E252C" stroke-width="0.5"/>
<line y1="-0.25" x2="37" y2="-0.25" transform="matrix(1 -9.13465e-08 -8.36676e-08 -1 249 217)" stroke="#1E252C" stroke-width="0.5"/>
<line y1="-0.25" x2="27" y2="-0.25" transform="matrix(1 0 0 -1 259 236)" stroke="#1E252C" stroke-width="0.5"/>
<line y1="-0.25" x2="37" y2="-0.25" transform="matrix(1 -9.13465e-08 -8.36676e-08 -1 249 201)" stroke="#1E252C" stroke-width="0.5"/>
<line x1="283.25" y1="201" x2="283.25" y2="236" stroke="#1E252C" stroke-width="0.5"/>
<rect x="0.5" y="-0.5" width="158.999" height="14.6321" transform="matrix(1 0 0 -1 92.5165 223.828)" stroke="#2C59CE" stroke-dasharray="1.84 1.84"/>
<rect x="0.5" y="-0.5" width="166" height="38" transform="matrix(1 0 0 -1 88 231)" stroke="#CE2C3F" stroke-dasharray="1.84 1.84"/>
<line y1="-0.25" x2="26" y2="-0.25" transform="matrix(4.77396e-08 1 1 -4.00231e-08 134 228)" stroke="#1E252C" stroke-width="0.5"/>
<line y1="-0.25" x2="26" y2="-0.25" transform="matrix(4.77396e-08 1 1 -4.00231e-08 100 228)" stroke="#1E252C" stroke-width="0.5"/>
<rect x="162" y="25" width="36.3665" height="20.9383" fill="#496071"/>
<path d="M173.433 39.5018H178.593V40.6298H167.853V39.5018H172.233V30.3578H173.433V33.9218H177.765V35.0378H173.433V39.5018ZM185.613 33.0818V31.7978H184.089V33.0818H185.613ZM185.613 35.2298V33.9458H184.089V35.2298H185.613ZM185.613 37.3898V36.0818H184.089V37.3898H185.613ZM186.597 30.8978V38.2898H183.153V30.8978H186.597ZM181.941 30.2378L182.973 30.5258C182.709 31.3178 182.397 32.1218 182.037 32.8898V41.1938H180.981V34.8338C180.669 35.3258 180.357 35.7698 180.021 36.1538C179.925 35.8778 179.637 35.2538 179.469 34.9778C180.465 33.8138 181.389 32.0378 181.941 30.2378ZM183.789 38.4458L184.725 38.9258C184.329 39.6818 183.693 40.6058 183.153 41.1458C182.961 40.9658 182.589 40.6778 182.349 40.5218C182.913 40.0178 183.501 39.1178 183.789 38.4458ZM185.145 38.8778L185.949 38.4458C186.357 39.0578 186.813 39.8738 187.005 40.3898L186.153 40.9058C185.985 40.3778 185.529 39.5138 185.145 38.8778ZM188.385 31.4498V38.4938H187.401V31.4498H188.385ZM189.369 30.3578H190.389V39.9098C190.389 40.5098 190.257 40.8218 189.921 40.9898C189.585 41.1698 189.033 41.2058 188.181 41.2058C188.145 40.9178 188.013 40.4498 187.857 40.1378C188.445 40.1618 188.973 40.1618 189.141 40.1618C189.309 40.1498 189.369 40.1018 189.369 39.9218V30.3578Z" fill="white"/>
<rect x="163" y="282" width="36.3665" height="20.9383" fill="#496071"/>
<path d="M180.304 289.194H175.348V291.222L175.552 290.982C176.92 291.642 178.804 292.71 179.728 293.43L178.912 294.45C178.144 293.802 176.644 292.866 175.348 292.146V298.182H174.16V289.194H169.708V288.054H180.304V289.194ZM187.396 290.082V288.798H185.872V290.082H187.396ZM187.396 292.23V290.946H185.872V292.23H187.396ZM187.396 294.39V293.082H185.872V294.39H187.396ZM188.38 287.898V295.29H184.936V287.898H188.38ZM183.724 287.238L184.756 287.526C184.492 288.318 184.18 289.122 183.82 289.89V298.194H182.764V291.834C182.452 292.326 182.14 292.77 181.804 293.154C181.708 292.878 181.42 292.254 181.252 291.978C182.248 290.814 183.172 289.038 183.724 287.238ZM185.572 295.446L186.508 295.926C186.112 296.682 185.476 297.606 184.936 298.146C184.744 297.966 184.372 297.678 184.132 297.522C184.696 297.018 185.284 296.118 185.572 295.446ZM186.928 295.878L187.732 295.446C188.14 296.058 188.596 296.874 188.788 297.39L187.936 297.906C187.768 297.378 187.312 296.514 186.928 295.878ZM190.168 288.45V295.494H189.184V288.45H190.168ZM191.152 287.358H192.172V296.91C192.172 297.51 192.04 297.822 191.704 297.99C191.368 298.17 190.816 298.206 189.964 298.206C189.928 297.918 189.796 297.45 189.64 297.138C190.228 297.162 190.756 297.162 190.924 297.162C191.092 297.15 191.152 297.102 191.152 296.922V287.358Z" fill="white"/>
</svg>
