<svg width="360" height="328" viewBox="0 0 360 328" fill="none" xmlns="http://www.w3.org/2000/svg">
<rect x="135" y="55" width="150" height="218" fill="#D9D9D9"/>
<circle cx="165.68" cy="72.68" r="3.68" fill="#1E252C"/>
<circle cx="165.937" cy="161.078" r="3.68" fill="white"/>
<circle cx="165.937" cy="191.475" r="3.68" fill="white"/>
<circle cx="165.937" cy="130.68" r="3.68" fill="white"/>
<circle cx="254.335" cy="161.078" r="3.68" fill="white"/>
<circle cx="254.335" cy="191.475" r="3.68" fill="white"/>
<circle cx="254.335" cy="130.68" r="3.68" fill="white"/>
<circle cx="195.067" cy="72.68" r="3.68" fill="#1E252C"/>
<circle cx="224.454" cy="72.68" r="3.68" fill="#1E252C"/>
<circle cx="179.937" cy="92.2738" r="3.68" fill="#1E252C"/>
<circle cx="209.324" cy="92.2738" r="3.68" fill="#1E252C"/>
<circle cx="238.711" cy="92.2738" r="3.68" fill="#1E252C"/>
<circle cx="253.841" cy="72.68" r="3.68" fill="#1E252C"/>
<path d="M81.14 78.252V79.176C81.14 80.148 80.9 81.324 79.7 82.08C79.592 81.912 79.268 81.588 79.1 81.468C80.168 80.808 80.312 79.944 80.312 79.152V77.46H83.852V80.4C83.852 80.628 83.864 80.748 83.924 80.796C83.972 80.832 84.032 80.844 84.116 80.844H84.464C84.56 80.844 84.668 80.832 84.716 80.808C84.776 80.772 84.824 80.688 84.848 80.544C84.884 80.364 84.896 80.004 84.908 79.524C85.052 79.656 85.352 79.8 85.58 79.86C85.556 80.328 85.52 80.868 85.46 81.06C85.388 81.264 85.268 81.384 85.1 81.456C84.968 81.54 84.728 81.576 84.536 81.576H83.924C83.708 81.576 83.42 81.516 83.264 81.36C83.096 81.216 83.024 81.012 83.024 80.352V78.252H81.14ZM79.484 85.284L76.268 85.86V87.9H75.428V86.016L74.6 86.16L74.444 85.296L75.428 85.14V77.856L75.908 78.024C76.976 77.736 78.092 77.34 78.74 76.968L79.508 77.604C78.62 78.036 77.396 78.408 76.268 78.684V80.064H79.028V80.88H76.268V82.344H79.124V83.172H76.268V84.996C77.252 84.84 78.356 84.648 79.436 84.456L79.484 85.284ZM83.816 83.064H80.912C81.236 83.892 81.704 84.636 82.304 85.26C82.94 84.648 83.456 83.928 83.816 83.064ZM84.392 82.212L84.956 82.44C84.536 83.856 83.84 84.972 82.952 85.836C83.684 86.424 84.56 86.856 85.58 87.132C85.364 87.3 85.112 87.66 84.992 87.9C83.948 87.576 83.036 87.084 82.28 86.424C81.368 87.108 80.324 87.6 79.196 87.936C79.1 87.708 78.884 87.348 78.704 87.156C79.772 86.88 80.792 86.436 81.644 85.8C80.996 85.08 80.492 84.204 80.12 83.22L80.708 83.064H79.628V82.248H84.224L84.392 82.212ZM90.596 78.168H88.004V79.164H90.596V78.168ZM88.004 80.88H90.596V79.824H88.004V80.88ZM91.448 81.564H88.004V87.924H87.116V77.472H91.448V81.564ZM93.38 83.148H90.56V84.264H93.38V83.148ZM90.56 86.1H93.38V84.936H90.56V86.1ZM94.208 86.808H90.56V87.408H89.756V82.464H94.208V86.808ZM93.368 80.892H96.056V79.824H93.368V80.892ZM96.056 78.168H93.368V79.164H96.056V78.168ZM96.956 77.472V86.736C96.956 87.3 96.824 87.6 96.428 87.756C96.044 87.9 95.408 87.912 94.412 87.912C94.376 87.66 94.232 87.24 94.1 87C94.832 87.036 95.564 87.024 95.78 87.012C95.984 87.012 96.056 86.94 96.056 86.724V81.576H92.516V77.472H96.956ZM101.672 77.436L102.248 77.784C101.936 78.768 101.504 79.992 101.144 80.952C101.948 81.924 102.128 82.788 102.128 83.532C102.14 84.156 101.996 84.66 101.684 84.888C101.528 85.008 101.336 85.068 101.096 85.104C100.88 85.128 100.616 85.14 100.364 85.128C100.352 84.9 100.28 84.576 100.16 84.348C100.388 84.372 100.616 84.372 100.772 84.36C100.916 84.36 101.036 84.324 101.132 84.264C101.3 84.132 101.348 83.796 101.348 83.436C101.348 82.788 101.156 81.984 100.352 81.048C100.676 80.172 101 79.104 101.24 78.288H99.776V87.912H98.996V77.472H101.54L101.672 77.436ZM107.648 85.764H106.184V87.672H105.464V85.764H104.096V85.116H107.648V85.764ZM108.32 83.928L108.332 83.94V82.968H106.832V83.76C106.832 83.952 106.868 83.964 107.144 83.964H108.068C108.248 83.964 108.296 83.964 108.32 83.928ZM109.16 82.248V87C109.16 87.408 109.076 87.624 108.8 87.768C108.512 87.888 108.08 87.888 107.408 87.888C107.384 87.684 107.252 87.36 107.156 87.156C107.624 87.168 108.032 87.168 108.164 87.156C108.296 87.156 108.332 87.12 108.332 87V84.528C108.284 84.54 108.236 84.54 108.176 84.54H107.084C106.412 84.54 106.244 84.384 106.244 83.76V82.968H105.38C105.248 83.94 104.828 84.54 103.76 84.864C103.7 84.732 103.52 84.504 103.4 84.396C104.288 84.144 104.636 83.724 104.768 82.968H103.352V87.912H102.536V82.248H109.16ZM107.6 80.892V79.656H104.156V80.892H107.6ZM108.476 79.02V81.54H103.304V79.02H108.476ZM102.632 77.604H109.208V78.36H102.632V77.604Z" fill="#1E252C"/>
<path d="M32.3959 66.772L31.5919 66.292C32.4079 65.44 32.8519 64.012 33.0799 62.716L33.9199 62.932C33.6679 64.288 33.2479 65.836 32.3959 66.772ZM35.5879 60.688H34.6999V59.38H31.9759V58.516H34.6999V56.956H35.5879V58.516H38.7439V56.956H39.6319V58.516H42.3679V59.38H39.6319V60.688H38.7439V59.38H35.5879V60.688ZM35.6359 61.072L36.2599 60.556C37.2559 61.084 38.4199 61.924 38.9719 62.572L38.2999 63.16C37.7839 62.512 36.6319 61.636 35.6359 61.072ZM36.4399 66.808H38.6239C39.2119 66.808 39.2959 66.544 39.3679 64.972C39.5719 65.116 39.9559 65.272 40.2079 65.332C40.0879 67.18 39.8119 67.66 38.6599 67.66H36.3799C35.1319 67.66 34.8079 67.372 34.8079 66.304V62.236H35.6959V66.304C35.6959 66.712 35.8039 66.808 36.4399 66.808ZM39.8599 62.812L40.6399 62.464C41.5399 63.568 42.4519 65.056 42.7759 66.064L41.9359 66.472C41.6239 65.464 40.7359 63.94 39.8599 62.812ZM47.3239 57.556L48.4399 57.676C48.3919 57.892 48.3439 58.144 48.2959 58.372C48.2359 58.72 48.1279 59.416 47.9959 60.052C48.5479 60.016 49.0399 59.98 49.3279 59.98C50.3839 59.98 51.2599 60.388 51.2599 61.996C51.2599 63.412 51.0559 65.284 50.5639 66.28C50.1919 67.072 49.6039 67.276 48.8239 67.276C48.3799 67.276 47.8039 67.18 47.4319 67.096L47.2759 66.088C47.7679 66.244 48.4039 66.352 48.7279 66.352C49.1719 66.352 49.5199 66.256 49.7719 65.74C50.1439 64.936 50.3239 63.4 50.3239 62.104C50.3239 61.024 49.8319 60.832 49.0759 60.832C48.7879 60.832 48.3199 60.868 47.8039 60.916C47.3719 62.62 46.5679 65.284 45.3079 67.3L44.3239 66.904C45.5359 65.284 46.4239 62.596 46.8199 61.012C46.2079 61.072 45.6319 61.132 45.3199 61.168C45.0439 61.204 44.5639 61.264 44.2519 61.312L44.1559 60.268C44.5279 60.292 44.8399 60.28 45.2119 60.268C45.6079 60.256 46.3039 60.196 47.0239 60.136C47.1919 59.284 47.3239 58.36 47.3239 57.556ZM51.6439 59.32L52.5319 58.936C53.2759 59.896 54.2959 62.08 54.7039 63.184L53.7679 63.628C53.4199 62.404 52.4839 60.316 51.6439 59.32ZM64.3519 59.02C64.6639 59.464 65.0959 60.196 65.3359 60.688L64.6879 60.976C64.4599 60.484 64.0399 59.764 63.7159 59.296L64.3519 59.02ZM65.6719 58.54C66.0079 58.984 66.4639 59.74 66.6919 60.184L66.0439 60.472C65.7799 59.956 65.3959 59.272 65.0479 58.816L65.6719 58.54ZM61.5559 61.096L60.9439 60.52C61.2559 60.328 61.5919 60.076 61.7599 59.932C61.2439 59.512 60.1399 58.924 59.2279 58.552L59.7919 57.844C60.7039 58.228 62.0119 58.876 62.7199 59.404L62.9479 60.028C62.6599 60.268 61.9879 60.784 61.5559 61.096ZM58.7959 67.204L58.6519 66.196C59.2639 66.376 59.8279 66.472 60.5719 66.472C61.1239 66.472 61.7719 66.256 61.7719 65.488C61.7719 64.684 60.8959 63.592 60.2479 62.884C59.9839 62.62 59.6239 62.284 59.2879 61.996L60.0199 61.372C60.3079 61.672 60.6079 61.996 60.8839 62.296C61.9999 63.46 62.7799 64.516 62.7799 65.584C62.7799 67.048 61.5919 67.384 60.7279 67.384C59.9719 67.384 59.3239 67.3 58.7959 67.204ZM66.3919 66.172L65.5039 66.652C65.1679 65.524 64.3279 63.832 63.5119 62.896L64.3159 62.464C65.1319 63.424 66.0199 65.116 66.3919 66.172ZM59.0719 64.336C58.3759 65.056 57.1879 66.064 56.0359 66.748L55.4599 65.944C56.4439 65.416 57.8239 64.36 58.4959 63.616L59.0719 64.336ZM70.2079 57.532L71.2639 57.568C71.0119 58.444 70.7839 60.04 70.7119 60.868C71.1799 59.644 72.4279 58.168 73.9279 58.168C75.5119 58.168 76.6519 59.752 76.6519 62.248C76.6519 65.548 74.5759 67 71.6239 67.54L71.0599 66.676C73.6399 66.28 75.6559 65.248 75.6559 62.26C75.6559 60.388 75.0319 59.044 73.7719 59.044C72.2959 59.044 70.9279 61.192 70.7839 62.752C70.7239 63.208 70.7239 63.616 70.8079 64.204L69.8719 64.276C69.8119 63.832 69.7519 63.16 69.7519 62.392C69.7519 61.264 69.9679 59.512 70.1119 58.552C70.1599 58.18 70.1959 57.82 70.2079 57.532ZM80.2279 67V66.088H82.1839V59.524H80.6239V58.828C81.4039 58.684 81.9679 58.48 82.4479 58.204H83.2879V66.088H85.0519V67H80.2279ZM92.9681 58.252V59.176C92.9681 60.148 92.7281 61.324 91.5281 62.08C91.4201 61.912 91.0961 61.588 90.9281 61.468C91.9961 60.808 92.1401 59.944 92.1401 59.152V57.46H95.6801V60.4C95.6801 60.628 95.6921 60.748 95.7521 60.796C95.8001 60.832 95.8601 60.844 95.9441 60.844H96.2921C96.3881 60.844 96.4961 60.832 96.5441 60.808C96.6041 60.772 96.6521 60.688 96.6761 60.544C96.7121 60.364 96.7241 60.004 96.7361 59.524C96.8801 59.656 97.1801 59.8 97.4081 59.86C97.3841 60.328 97.3481 60.868 97.2881 61.06C97.2161 61.264 97.0961 61.384 96.9281 61.456C96.7961 61.54 96.5561 61.576 96.3641 61.576H95.7521C95.5361 61.576 95.2481 61.516 95.0921 61.36C94.9241 61.216 94.8521 61.012 94.8521 60.352V58.252H92.9681ZM91.3121 65.284L88.0961 65.86V67.9H87.2561V66.016L86.4281 66.16L86.2721 65.296L87.2561 65.14V57.856L87.7361 58.024C88.8041 57.736 89.9201 57.34 90.5681 56.968L91.3361 57.604C90.4481 58.036 89.2241 58.408 88.0961 58.684V60.064H90.8561V60.88H88.0961V62.344H90.9521V63.172H88.0961V64.996C89.0801 64.84 90.1841 64.648 91.2641 64.456L91.3121 65.284ZM95.6441 63.064H92.7401C93.0641 63.892 93.5321 64.636 94.1321 65.26C94.7681 64.648 95.2841 63.928 95.6441 63.064ZM96.2201 62.212L96.7841 62.44C96.3641 63.856 95.6681 64.972 94.7801 65.836C95.5121 66.424 96.3881 66.856 97.4081 67.132C97.1921 67.3 96.9401 67.66 96.8201 67.9C95.7761 67.576 94.8641 67.084 94.1081 66.424C93.1961 67.108 92.1521 67.6 91.0241 67.936C90.9281 67.708 90.7121 67.348 90.5321 67.156C91.6001 66.88 92.6201 66.436 93.4721 65.8C92.8241 65.08 92.3201 64.204 91.9481 63.22L92.5361 63.064H91.4561V62.248H96.0521L96.2201 62.212ZM100.636 66.16H106.912V64.192H100.636V66.16ZM106.912 61.372H100.636V63.34H106.912V61.372ZM106.912 58.576H100.636V60.52H106.912V58.576ZM99.7601 57.712H107.836V67.852H106.912V67.036H100.636V67.852H99.7601V57.712Z" fill="#1E252C"/>
<path d="M284.208 89.364H280.008C281.004 91.416 282.732 93.324 284.616 94.236C284.4 94.416 284.088 94.764 283.956 95.016C282.144 94.02 280.536 92.196 279.456 90.12V93.792H281.736V94.68H279.456V96.912H278.532V94.68H276.192V93.792H278.532V90.12C277.428 92.196 275.808 94.008 274.044 95.028C273.912 94.812 273.612 94.476 273.408 94.308C275.232 93.36 276.972 91.416 277.98 89.364H273.816V88.476H278.532V85.968H279.456V88.476H284.208V89.364ZM290.256 86.196L291.036 86.52C290.688 87.072 290.28 87.672 289.968 88.068L289.368 87.78C289.656 87.36 290.064 86.664 290.256 86.196ZM287.484 87.78L286.776 88.092C286.668 87.672 286.356 87.012 286.032 86.52L286.704 86.244C287.04 86.724 287.364 87.36 287.484 87.78ZM292.74 88.992L292.728 89.028C292.956 90.408 293.292 91.704 293.772 92.82C294.288 91.752 294.612 90.48 294.828 88.992H292.74ZM289.464 93.06H287.784C287.616 93.396 287.436 93.72 287.28 94.032C287.76 94.224 288.24 94.44 288.708 94.668C289.068 94.236 289.308 93.708 289.464 93.06ZM296.472 88.992H295.752C295.452 90.936 294.996 92.52 294.264 93.804C294.864 94.836 295.62 95.652 296.58 96.156C296.376 96.324 296.088 96.672 295.968 96.912C295.044 96.372 294.312 95.604 293.724 94.644C293.016 95.58 292.116 96.348 290.94 96.948C290.868 96.792 290.712 96.528 290.556 96.324L290.28 96.612C289.908 96.312 289.428 95.988 288.876 95.664C288.18 96.24 287.232 96.636 285.948 96.912C285.888 96.672 285.708 96.348 285.54 96.18C286.644 95.988 287.484 95.688 288.096 95.244C287.712 95.052 287.316 94.86 286.92 94.692L286.728 95.028L285.96 94.752C286.224 94.296 286.548 93.684 286.872 93.06H285.516V92.316H287.244C287.424 91.956 287.592 91.608 287.736 91.284L288.048 91.356V89.7C287.448 90.408 286.68 91.068 285.948 91.464C285.84 91.26 285.624 90.948 285.456 90.792C286.308 90.408 287.22 89.664 287.808 88.884H285.588V88.152H288.048V85.956H288.876V88.152H291.312V88.884H288.876V88.944C289.392 89.244 290.688 90.06 291.012 90.3L290.52 90.936C290.208 90.648 289.452 90.072 288.876 89.64V91.428H288.36L288.564 91.476C288.432 91.74 288.3 92.028 288.156 92.316H291.36V93.06H290.316C290.148 93.864 289.872 94.524 289.464 95.064C289.992 95.352 290.472 95.664 290.844 95.94C291.864 95.376 292.656 94.656 293.244 93.756C292.788 92.784 292.44 91.668 292.164 90.444C291.912 91.008 291.612 91.512 291.288 91.944C291.156 91.776 290.772 91.476 290.568 91.332C291.576 90.072 292.2 88.068 292.524 85.956L293.436 86.088C293.316 86.796 293.16 87.492 292.992 88.152H296.472V88.992Z" fill="#CE2C3F"/>
<path d="M285.136 70.712L284.596 71.504C283.96 70.964 282.676 70.232 281.884 69.872L282.352 69.128C283.216 69.512 284.572 70.28 285.136 70.712ZM280.816 68.912L280.84 69.8C280.216 69.98 279.472 70.136 278.692 70.232C278.104 71.912 277.048 73.976 276.1 75.26L275.164 74.78C276.16 73.628 277.168 71.732 277.708 70.34C277.36 70.364 277.012 70.376 276.664 70.376C276.22 70.376 275.728 70.364 275.284 70.34L275.212 69.44C275.656 69.5 276.16 69.524 276.676 69.524C277.096 69.524 277.54 69.5 277.996 69.464C278.176 68.804 278.344 68.048 278.368 67.412L279.436 67.508C279.316 67.94 279.16 68.66 278.968 69.344C279.592 69.248 280.216 69.104 280.816 68.912ZM281.44 75.548C281.44 75.392 281.44 75.2 281.428 74.984C281.056 74.876 280.648 74.816 280.228 74.816C279.352 74.816 278.776 75.212 278.776 75.752C278.776 76.304 279.22 76.676 280.144 76.676C281.116 76.676 281.44 76.136 281.44 75.548ZM281.272 71.18H282.232C282.196 71.672 282.208 72.02 282.22 72.464C282.232 72.896 282.28 73.676 282.304 74.396C283.324 74.768 284.152 75.356 284.764 75.884L284.248 76.7C283.744 76.244 283.108 75.716 282.34 75.344C282.352 75.524 282.352 75.692 282.352 75.824C282.352 76.772 281.728 77.552 280.264 77.552C278.956 77.552 277.888 77.012 277.888 75.836C277.888 74.744 278.92 74.036 280.264 74.036C280.66 74.036 281.044 74.072 281.392 74.144C281.356 73.172 281.296 72.008 281.272 71.18ZM289.792 68.54L290.044 67.628C291.064 67.952 293.584 68.444 294.64 68.54L294.412 69.476C293.284 69.32 290.704 68.792 289.792 68.54ZM289.78 69.788C289.624 70.604 289.42 72.332 289.312 73.1C290.452 72.104 291.736 71.672 293.152 71.672C294.976 71.672 296.188 72.764 296.188 74.156C296.188 76.292 294.304 77.732 289.888 77.36L289.6 76.376C293.344 76.832 295.18 75.752 295.18 74.132C295.18 73.184 294.304 72.524 293.092 72.524C291.508 72.524 290.26 73.1 289.42 74.096C289.252 74.3 289.144 74.504 289.06 74.696L288.16 74.48C288.4 73.4 288.688 70.904 288.76 69.656L289.78 69.788ZM308.452 69.32L307.828 69.56C307.6 69.02 307.288 68.3 307.024 67.844L307.624 67.64C307.864 68.084 308.248 68.828 308.452 69.32ZM305.62 68.624L306.544 68.336C306.844 69.776 307.552 71.72 309.076 73.244L308.368 73.988C307.828 73.328 307.348 72.608 306.904 71.768C307.156 74.768 305.908 77.732 302.824 77.732C300.916 77.732 299.74 76.496 299.74 74.588C299.74 72.548 300.904 70.64 301.876 69.632C301.276 69.728 300.388 69.872 299.92 69.968C299.716 70.004 299.5 70.052 299.26 70.1L299.116 69.092C299.296 69.092 299.536 69.08 299.752 69.056C300.784 68.972 302.872 68.636 303.568 68.372L303.856 69.236C303.7 69.296 303.4 69.368 303.232 69.452C302.476 70.016 300.676 72.26 300.676 74.456C300.676 76.088 301.708 76.736 302.86 76.736C305.332 76.736 306.736 73.868 305.908 69.488C305.812 69.212 305.716 68.924 305.62 68.624ZM308.26 67.4L308.848 67.172C309.112 67.616 309.472 68.348 309.7 68.852L309.076 69.08C308.848 68.54 308.536 67.844 308.26 67.4ZM321.208 70.364H317.008C318.004 72.416 319.732 74.324 321.616 75.236C321.4 75.416 321.088 75.764 320.956 76.016C319.144 75.02 317.536 73.196 316.456 71.12V74.792H318.736V75.68H316.456V77.912H315.532V75.68H313.192V74.792H315.532V71.12C314.428 73.196 312.808 75.008 311.044 76.028C310.912 75.812 310.612 75.476 310.408 75.308C312.232 74.36 313.972 72.416 314.98 70.364H310.816V69.476H315.532V66.968H316.456V69.476H321.208V70.364ZM327.256 67.196L328.036 67.52C327.688 68.072 327.28 68.672 326.968 69.068L326.368 68.78C326.656 68.36 327.064 67.664 327.256 67.196ZM324.484 68.78L323.776 69.092C323.668 68.672 323.356 68.012 323.032 67.52L323.704 67.244C324.04 67.724 324.364 68.36 324.484 68.78ZM329.74 69.992L329.728 70.028C329.956 71.408 330.292 72.704 330.772 73.82C331.288 72.752 331.612 71.48 331.828 69.992H329.74ZM326.464 74.06H324.784C324.616 74.396 324.436 74.72 324.28 75.032C324.76 75.224 325.24 75.44 325.708 75.668C326.068 75.236 326.308 74.708 326.464 74.06ZM333.472 69.992H332.752C332.452 71.936 331.996 73.52 331.264 74.804C331.864 75.836 332.62 76.652 333.58 77.156C333.376 77.324 333.088 77.672 332.968 77.912C332.044 77.372 331.312 76.604 330.724 75.644C330.016 76.58 329.116 77.348 327.94 77.948C327.868 77.792 327.712 77.528 327.556 77.324L327.28 77.612C326.908 77.312 326.428 76.988 325.876 76.664C325.18 77.24 324.232 77.636 322.948 77.912C322.888 77.672 322.708 77.348 322.54 77.18C323.644 76.988 324.484 76.688 325.096 76.244C324.712 76.052 324.316 75.86 323.92 75.692L323.728 76.028L322.96 75.752C323.224 75.296 323.548 74.684 323.872 74.06H322.516V73.316H324.244C324.424 72.956 324.592 72.608 324.736 72.284L325.048 72.356V70.7C324.448 71.408 323.68 72.068 322.948 72.464C322.84 72.26 322.624 71.948 322.456 71.792C323.308 71.408 324.22 70.664 324.808 69.884H322.588V69.152H325.048V66.956H325.876V69.152H328.312V69.884H325.876V69.944C326.392 70.244 327.688 71.06 328.012 71.3L327.52 71.936C327.208 71.648 326.452 71.072 325.876 70.64V72.428H325.36L325.564 72.476C325.432 72.74 325.3 73.028 325.156 73.316H328.36V74.06H327.316C327.148 74.864 326.872 75.524 326.464 76.064C326.992 76.352 327.472 76.664 327.844 76.94C328.864 76.376 329.656 75.656 330.244 74.756C329.788 73.784 329.44 72.668 329.164 71.444C328.912 72.008 328.612 72.512 328.288 72.944C328.156 72.776 327.772 72.476 327.568 72.332C328.576 71.072 329.2 69.068 329.524 66.956L330.436 67.088C330.316 67.796 330.16 68.492 329.992 69.152H333.472V69.992Z" fill="#2C59CE"/>
<line x1="165.77" y1="62" x2="165.77" y2="46" stroke="#1E252C" stroke-width="0.459172"/>
<line x1="194.77" y1="62" x2="194.77" y2="46" stroke="#1E252C" stroke-width="0.459172"/>
<line x1="166" y1="50.7704" x2="194.928" y2="50.7704" stroke="#1E252C" stroke-width="0.459172"/>
<line x1="115.204" y1="54.913" x2="131.275" y2="54.913" stroke="#1E252C" stroke-width="0.459172"/>
<line x1="118.23" y1="55" x2="118.23" y2="92" stroke="#1E252C" stroke-width="0.459172"/>
<line x1="115" y1="72.7704" x2="154.948" y2="72.7704" stroke="#1E252C" stroke-width="0.459172"/>
<line x1="115" y1="91.7704" x2="176" y2="91.7704" stroke="#1E252C" stroke-width="0.459172"/>
<path d="M172.596 33.168H170.004V34.164H172.596V33.168ZM170.004 35.88H172.596V34.824H170.004V35.88ZM173.448 36.564H170.004V42.924H169.116V32.472H173.448V36.564ZM175.38 38.148H172.56V39.264H175.38V38.148ZM172.56 41.1H175.38V39.936H172.56V41.1ZM176.208 41.808H172.56V42.408H171.756V37.464H176.208V41.808ZM175.368 35.892H178.056V34.824H175.368V35.892ZM178.056 33.168H175.368V34.164H178.056V33.168ZM178.956 32.472V41.736C178.956 42.3 178.824 42.6 178.428 42.756C178.044 42.9 177.408 42.912 176.412 42.912C176.376 42.66 176.232 42.24 176.1 42C176.832 42.036 177.564 42.024 177.78 42.012C177.984 42.012 178.056 41.94 178.056 41.724V36.576H174.516V32.472H178.956ZM183.672 32.436L184.248 32.784C183.936 33.768 183.504 34.992 183.144 35.952C183.948 36.924 184.128 37.788 184.128 38.532C184.14 39.156 183.996 39.66 183.684 39.888C183.528 40.008 183.336 40.068 183.096 40.104C182.88 40.128 182.616 40.14 182.364 40.128C182.352 39.9 182.28 39.576 182.16 39.348C182.388 39.372 182.616 39.372 182.772 39.36C182.916 39.36 183.036 39.324 183.132 39.264C183.3 39.132 183.348 38.796 183.348 38.436C183.348 37.788 183.156 36.984 182.352 36.048C182.676 35.172 183 34.104 183.24 33.288H181.776V42.912H180.996V32.472H183.54L183.672 32.436ZM189.648 40.764H188.184V42.672H187.464V40.764H186.096V40.116H189.648V40.764ZM190.32 38.928L190.332 38.94V37.968H188.832V38.76C188.832 38.952 188.868 38.964 189.144 38.964H190.068C190.248 38.964 190.296 38.964 190.32 38.928ZM191.16 37.248V42C191.16 42.408 191.076 42.624 190.8 42.768C190.512 42.888 190.08 42.888 189.408 42.888C189.384 42.684 189.252 42.36 189.156 42.156C189.624 42.168 190.032 42.168 190.164 42.156C190.296 42.156 190.332 42.12 190.332 42V39.528C190.284 39.54 190.236 39.54 190.176 39.54H189.084C188.412 39.54 188.244 39.384 188.244 38.76V37.968H187.38C187.248 38.94 186.828 39.54 185.76 39.864C185.7 39.732 185.52 39.504 185.4 39.396C186.288 39.144 186.636 38.724 186.768 37.968H185.352V42.912H184.536V37.248H191.16ZM189.6 35.892V34.656H186.156V35.892H189.6ZM190.476 34.02V36.54H185.304V34.02H190.476ZM184.632 32.604H191.208V33.36H184.632V32.604Z" fill="#1E252C"/>
<rect x="151.5" y="59.5" width="117" height="43" stroke="#CE2C3F" stroke-dasharray="0.92 0.92"/>
<rect x="155.5" y="63.5" width="107" height="18" stroke="#2C59CE" stroke-dasharray="0.92 0.92"/>
<rect x="192" y="6" width="33" height="19" fill="#496071"/>
<path d="M202.042 19.4784H207.202V20.6064H196.462V19.4784H200.842V10.3344H202.042V13.8984H206.374V15.0144H202.042V19.4784ZM214.222 13.0584V11.7744H212.698V13.0584H214.222ZM214.222 15.2064V13.9224H212.698V15.2064H214.222ZM214.222 17.3664V16.0584H212.698V17.3664H214.222ZM215.206 10.8744V18.2664H211.762V10.8744H215.206ZM210.55 10.2144L211.582 10.5024C211.318 11.2944 211.006 12.0984 210.646 12.8664V21.1704H209.59V14.8104C209.278 15.3024 208.966 15.7464 208.63 16.1304C208.534 15.8544 208.246 15.2304 208.078 14.9544C209.074 13.7904 209.998 12.0144 210.55 10.2144ZM212.398 18.4224L213.334 18.9024C212.938 19.6584 212.302 20.5824 211.762 21.1224C211.57 20.9424 211.198 20.6544 210.958 20.4984C211.522 19.9944 212.11 19.0944 212.398 18.4224ZM213.754 18.8544L214.558 18.4224C214.966 19.0344 215.422 19.8504 215.614 20.3664L214.762 20.8824C214.594 20.3544 214.138 19.4904 213.754 18.8544ZM216.994 11.4264V18.4704H216.01V11.4264H216.994ZM217.978 10.3344H218.998V19.8864C218.998 20.4864 218.866 20.7984 218.53 20.9664C218.194 21.1464 217.642 21.1824 216.79 21.1824C216.754 20.8944 216.622 20.4264 216.466 20.1144C217.054 20.1384 217.582 20.1384 217.75 20.1384C217.918 20.1264 217.978 20.0784 217.978 19.8984V10.3344Z" fill="white"/>
<circle cx="165.68" cy="254.68" r="3.68" fill="#1E252C"/>
<circle cx="195.067" cy="254.68" r="3.68" fill="#1E252C"/>
<circle cx="224.454" cy="254.68" r="3.68" fill="#1E252C"/>
<circle cx="179.937" cy="234.68" r="3.68" fill="#1E252C"/>
<circle cx="209.324" cy="234.68" r="3.68" fill="#1E252C"/>
<circle cx="238.711" cy="234.68" r="3.68" fill="#1E252C"/>
<circle cx="253.841" cy="254.68" r="3.68" fill="#1E252C"/>
<path d="M81.14 241.252V242.176C81.14 243.148 80.9 244.324 79.7 245.08C79.592 244.912 79.268 244.588 79.1 244.468C80.168 243.808 80.312 242.944 80.312 242.152V240.46H83.852V243.4C83.852 243.628 83.864 243.748 83.924 243.796C83.972 243.832 84.032 243.844 84.116 243.844H84.464C84.56 243.844 84.668 243.832 84.716 243.808C84.776 243.772 84.824 243.688 84.848 243.544C84.884 243.364 84.896 243.004 84.908 242.524C85.052 242.656 85.352 242.8 85.58 242.86C85.556 243.328 85.52 243.868 85.46 244.06C85.388 244.264 85.268 244.384 85.1 244.456C84.968 244.54 84.728 244.576 84.536 244.576H83.924C83.708 244.576 83.42 244.516 83.264 244.36C83.096 244.216 83.024 244.012 83.024 243.352V241.252H81.14ZM79.484 248.284L76.268 248.86V250.9H75.428V249.016L74.6 249.16L74.444 248.296L75.428 248.14V240.856L75.908 241.024C76.976 240.736 78.092 240.34 78.74 239.968L79.508 240.604C78.62 241.036 77.396 241.408 76.268 241.684V243.064H79.028V243.88H76.268V245.344H79.124V246.172H76.268V247.996C77.252 247.84 78.356 247.648 79.436 247.456L79.484 248.284ZM83.816 246.064H80.912C81.236 246.892 81.704 247.636 82.304 248.26C82.94 247.648 83.456 246.928 83.816 246.064ZM84.392 245.212L84.956 245.44C84.536 246.856 83.84 247.972 82.952 248.836C83.684 249.424 84.56 249.856 85.58 250.132C85.364 250.3 85.112 250.66 84.992 250.9C83.948 250.576 83.036 250.084 82.28 249.424C81.368 250.108 80.324 250.6 79.196 250.936C79.1 250.708 78.884 250.348 78.704 250.156C79.772 249.88 80.792 249.436 81.644 248.8C80.996 248.08 80.492 247.204 80.12 246.22L80.708 246.064H79.628V245.248H84.224L84.392 245.212ZM90.596 241.168H88.004V242.164H90.596V241.168ZM88.004 243.88H90.596V242.824H88.004V243.88ZM91.448 244.564H88.004V250.924H87.116V240.472H91.448V244.564ZM93.38 246.148H90.56V247.264H93.38V246.148ZM90.56 249.1H93.38V247.936H90.56V249.1ZM94.208 249.808H90.56V250.408H89.756V245.464H94.208V249.808ZM93.368 243.892H96.056V242.824H93.368V243.892ZM96.056 241.168H93.368V242.164H96.056V241.168ZM96.956 240.472V249.736C96.956 250.3 96.824 250.6 96.428 250.756C96.044 250.9 95.408 250.912 94.412 250.912C94.376 250.66 94.232 250.24 94.1 250C94.832 250.036 95.564 250.024 95.78 250.012C95.984 250.012 96.056 249.94 96.056 249.724V244.576H92.516V240.472H96.956ZM101.672 240.436L102.248 240.784C101.936 241.768 101.504 242.992 101.144 243.952C101.948 244.924 102.128 245.788 102.128 246.532C102.14 247.156 101.996 247.66 101.684 247.888C101.528 248.008 101.336 248.068 101.096 248.104C100.88 248.128 100.616 248.14 100.364 248.128C100.352 247.9 100.28 247.576 100.16 247.348C100.388 247.372 100.616 247.372 100.772 247.36C100.916 247.36 101.036 247.324 101.132 247.264C101.3 247.132 101.348 246.796 101.348 246.436C101.348 245.788 101.156 244.984 100.352 244.048C100.676 243.172 101 242.104 101.24 241.288H99.776V250.912H98.996V240.472H101.54L101.672 240.436ZM107.648 248.764H106.184V250.672H105.464V248.764H104.096V248.116H107.648V248.764ZM108.32 246.928L108.332 246.94V245.968H106.832V246.76C106.832 246.952 106.868 246.964 107.144 246.964H108.068C108.248 246.964 108.296 246.964 108.32 246.928ZM109.16 245.248V250C109.16 250.408 109.076 250.624 108.8 250.768C108.512 250.888 108.08 250.888 107.408 250.888C107.384 250.684 107.252 250.36 107.156 250.156C107.624 250.168 108.032 250.168 108.164 250.156C108.296 250.156 108.332 250.12 108.332 250V247.528C108.284 247.54 108.236 247.54 108.176 247.54H107.084C106.412 247.54 106.244 247.384 106.244 246.76V245.968H105.38C105.248 246.94 104.828 247.54 103.76 247.864C103.7 247.732 103.52 247.504 103.4 247.396C104.288 247.144 104.636 246.724 104.768 245.968H103.352V250.912H102.536V245.248H109.16ZM107.6 243.892V242.656H104.156V243.892H107.6ZM108.476 242.02V244.54H103.304V242.02H108.476ZM102.632 240.604H109.208V241.36H102.632V240.604Z" fill="#1E252C"/>
<path d="M32.3959 267.772L31.5919 267.292C32.4079 266.44 32.8519 265.012 33.0799 263.716L33.9199 263.932C33.6679 265.288 33.2479 266.836 32.3959 267.772ZM35.5879 261.688H34.6999V260.38H31.9759V259.516H34.6999V257.956H35.5879V259.516H38.7439V257.956H39.6319V259.516H42.3679V260.38H39.6319V261.688H38.7439V260.38H35.5879V261.688ZM35.6359 262.072L36.2599 261.556C37.2559 262.084 38.4199 262.924 38.9719 263.572L38.2999 264.16C37.7839 263.512 36.6319 262.636 35.6359 262.072ZM36.4399 267.808H38.6239C39.2119 267.808 39.2959 267.544 39.3679 265.972C39.5719 266.116 39.9559 266.272 40.2079 266.332C40.0879 268.18 39.8119 268.66 38.6599 268.66H36.3799C35.1319 268.66 34.8079 268.372 34.8079 267.304V263.236H35.6959V267.304C35.6959 267.712 35.8039 267.808 36.4399 267.808ZM39.8599 263.812L40.6399 263.464C41.5399 264.568 42.4519 266.056 42.7759 267.064L41.9359 267.472C41.6239 266.464 40.7359 264.94 39.8599 263.812ZM47.3239 258.556L48.4399 258.676C48.3919 258.892 48.3439 259.144 48.2959 259.372C48.2359 259.72 48.1279 260.416 47.9959 261.052C48.5479 261.016 49.0399 260.98 49.3279 260.98C50.3839 260.98 51.2599 261.388 51.2599 262.996C51.2599 264.412 51.0559 266.284 50.5639 267.28C50.1919 268.072 49.6039 268.276 48.8239 268.276C48.3799 268.276 47.8039 268.18 47.4319 268.096L47.2759 267.088C47.7679 267.244 48.4039 267.352 48.7279 267.352C49.1719 267.352 49.5199 267.256 49.7719 266.74C50.1439 265.936 50.3239 264.4 50.3239 263.104C50.3239 262.024 49.8319 261.832 49.0759 261.832C48.7879 261.832 48.3199 261.868 47.8039 261.916C47.3719 263.62 46.5679 266.284 45.3079 268.3L44.3239 267.904C45.5359 266.284 46.4239 263.596 46.8199 262.012C46.2079 262.072 45.6319 262.132 45.3199 262.168C45.0439 262.204 44.5639 262.264 44.2519 262.312L44.1559 261.268C44.5279 261.292 44.8399 261.28 45.2119 261.268C45.6079 261.256 46.3039 261.196 47.0239 261.136C47.1919 260.284 47.3239 259.36 47.3239 258.556ZM51.6439 260.32L52.5319 259.936C53.2759 260.896 54.2959 263.08 54.7039 264.184L53.7679 264.628C53.4199 263.404 52.4839 261.316 51.6439 260.32ZM64.3519 260.02C64.6639 260.464 65.0959 261.196 65.3359 261.688L64.6879 261.976C64.4599 261.484 64.0399 260.764 63.7159 260.296L64.3519 260.02ZM65.6719 259.54C66.0079 259.984 66.4639 260.74 66.6919 261.184L66.0439 261.472C65.7799 260.956 65.3959 260.272 65.0479 259.816L65.6719 259.54ZM61.5559 262.096L60.9439 261.52C61.2559 261.328 61.5919 261.076 61.7599 260.932C61.2439 260.512 60.1399 259.924 59.2279 259.552L59.7919 258.844C60.7039 259.228 62.0119 259.876 62.7199 260.404L62.9479 261.028C62.6599 261.268 61.9879 261.784 61.5559 262.096ZM58.7959 268.204L58.6519 267.196C59.2639 267.376 59.8279 267.472 60.5719 267.472C61.1239 267.472 61.7719 267.256 61.7719 266.488C61.7719 265.684 60.8959 264.592 60.2479 263.884C59.9839 263.62 59.6239 263.284 59.2879 262.996L60.0199 262.372C60.3079 262.672 60.6079 262.996 60.8839 263.296C61.9999 264.46 62.7799 265.516 62.7799 266.584C62.7799 268.048 61.5919 268.384 60.7279 268.384C59.9719 268.384 59.3239 268.3 58.7959 268.204ZM66.3919 267.172L65.5039 267.652C65.1679 266.524 64.3279 264.832 63.5119 263.896L64.3159 263.464C65.1319 264.424 66.0199 266.116 66.3919 267.172ZM59.0719 265.336C58.3759 266.056 57.1879 267.064 56.0359 267.748L55.4599 266.944C56.4439 266.416 57.8239 265.36 58.4959 264.616L59.0719 265.336ZM70.2079 258.532L71.2639 258.568C71.0119 259.444 70.7839 261.04 70.7119 261.868C71.1799 260.644 72.4279 259.168 73.9279 259.168C75.5119 259.168 76.6519 260.752 76.6519 263.248C76.6519 266.548 74.5759 268 71.6239 268.54L71.0599 267.676C73.6399 267.28 75.6559 266.248 75.6559 263.26C75.6559 261.388 75.0319 260.044 73.7719 260.044C72.2959 260.044 70.9279 262.192 70.7839 263.752C70.7239 264.208 70.7239 264.616 70.8079 265.204L69.8719 265.276C69.8119 264.832 69.7519 264.16 69.7519 263.392C69.7519 262.264 69.9679 260.512 70.1119 259.552C70.1599 259.18 70.1959 258.82 70.2079 258.532ZM80.2279 268V267.088H82.1839V260.524H80.6239V259.828C81.4039 259.684 81.9679 259.48 82.4479 259.204H83.2879V267.088H85.0519V268H80.2279ZM92.9681 259.252V260.176C92.9681 261.148 92.7281 262.324 91.5281 263.08C91.4201 262.912 91.0961 262.588 90.9281 262.468C91.9961 261.808 92.1401 260.944 92.1401 260.152V258.46H95.6801V261.4C95.6801 261.628 95.6921 261.748 95.7521 261.796C95.8001 261.832 95.8601 261.844 95.9441 261.844H96.2921C96.3881 261.844 96.4961 261.832 96.5441 261.808C96.6041 261.772 96.6521 261.688 96.6761 261.544C96.7121 261.364 96.7241 261.004 96.7361 260.524C96.8801 260.656 97.1801 260.8 97.4081 260.86C97.3841 261.328 97.3481 261.868 97.2881 262.06C97.2161 262.264 97.0961 262.384 96.9281 262.456C96.7961 262.54 96.5561 262.576 96.3641 262.576H95.7521C95.5361 262.576 95.2481 262.516 95.0921 262.36C94.9241 262.216 94.8521 262.012 94.8521 261.352V259.252H92.9681ZM91.3121 266.284L88.0961 266.86V268.9H87.2561V267.016L86.4281 267.16L86.2721 266.296L87.2561 266.14V258.856L87.7361 259.024C88.8041 258.736 89.9201 258.34 90.5681 257.968L91.3361 258.604C90.4481 259.036 89.2241 259.408 88.0961 259.684V261.064H90.8561V261.88H88.0961V263.344H90.9521V264.172H88.0961V265.996C89.0801 265.84 90.1841 265.648 91.2641 265.456L91.3121 266.284ZM95.6441 264.064H92.7401C93.0641 264.892 93.5321 265.636 94.1321 266.26C94.7681 265.648 95.2841 264.928 95.6441 264.064ZM96.2201 263.212L96.7841 263.44C96.3641 264.856 95.6681 265.972 94.7801 266.836C95.5121 267.424 96.3881 267.856 97.4081 268.132C97.1921 268.3 96.9401 268.66 96.8201 268.9C95.7761 268.576 94.8641 268.084 94.1081 267.424C93.1961 268.108 92.1521 268.6 91.0241 268.936C90.9281 268.708 90.7121 268.348 90.5321 268.156C91.6001 267.88 92.6201 267.436 93.4721 266.8C92.8241 266.08 92.3201 265.204 91.9481 264.22L92.5361 264.064H91.4561V263.248H96.0521L96.2201 263.212ZM100.636 267.16H106.912V265.192H100.636V267.16ZM106.912 262.372H100.636V264.34H106.912V262.372ZM106.912 259.576H100.636V261.52H106.912V259.576ZM99.7601 258.712H107.836V268.852H106.912V268.036H100.636V268.852H99.7601V258.712Z" fill="#1E252C"/>
<path d="M285.208 234.364H281.008C282.004 236.416 283.732 238.324 285.616 239.236C285.4 239.416 285.088 239.764 284.956 240.016C283.144 239.02 281.536 237.196 280.456 235.12V238.792H282.736V239.68H280.456V241.912H279.532V239.68H277.192V238.792H279.532V235.12C278.428 237.196 276.808 239.008 275.044 240.028C274.912 239.812 274.612 239.476 274.408 239.308C276.232 238.36 277.972 236.416 278.98 234.364H274.816V233.476H279.532V230.968H280.456V233.476H285.208V234.364ZM291.256 231.196L292.036 231.52C291.688 232.072 291.28 232.672 290.968 233.068L290.368 232.78C290.656 232.36 291.064 231.664 291.256 231.196ZM288.484 232.78L287.776 233.092C287.668 232.672 287.356 232.012 287.032 231.52L287.704 231.244C288.04 231.724 288.364 232.36 288.484 232.78ZM293.74 233.992L293.728 234.028C293.956 235.408 294.292 236.704 294.772 237.82C295.288 236.752 295.612 235.48 295.828 233.992H293.74ZM290.464 238.06H288.784C288.616 238.396 288.436 238.72 288.28 239.032C288.76 239.224 289.24 239.44 289.708 239.668C290.068 239.236 290.308 238.708 290.464 238.06ZM297.472 233.992H296.752C296.452 235.936 295.996 237.52 295.264 238.804C295.864 239.836 296.62 240.652 297.58 241.156C297.376 241.324 297.088 241.672 296.968 241.912C296.044 241.372 295.312 240.604 294.724 239.644C294.016 240.58 293.116 241.348 291.94 241.948C291.868 241.792 291.712 241.528 291.556 241.324L291.28 241.612C290.908 241.312 290.428 240.988 289.876 240.664C289.18 241.24 288.232 241.636 286.948 241.912C286.888 241.672 286.708 241.348 286.54 241.18C287.644 240.988 288.484 240.688 289.096 240.244C288.712 240.052 288.316 239.86 287.92 239.692L287.728 240.028L286.96 239.752C287.224 239.296 287.548 238.684 287.872 238.06H286.516V237.316H288.244C288.424 236.956 288.592 236.608 288.736 236.284L289.048 236.356V234.7C288.448 235.408 287.68 236.068 286.948 236.464C286.84 236.26 286.624 235.948 286.456 235.792C287.308 235.408 288.22 234.664 288.808 233.884H286.588V233.152H289.048V230.956H289.876V233.152H292.312V233.884H289.876V233.944C290.392 234.244 291.688 235.06 292.012 235.3L291.52 235.936C291.208 235.648 290.452 235.072 289.876 234.64V236.428H289.36L289.564 236.476C289.432 236.74 289.3 237.028 289.156 237.316H292.36V238.06H291.316C291.148 238.864 290.872 239.524 290.464 240.064C290.992 240.352 291.472 240.664 291.844 240.94C292.864 240.376 293.656 239.656 294.244 238.756C293.788 237.784 293.44 236.668 293.164 235.444C292.912 236.008 292.612 236.512 292.288 236.944C292.156 236.776 291.772 236.476 291.568 236.332C292.576 235.072 293.2 233.068 293.524 230.956L294.436 231.088C294.316 231.796 294.16 232.492 293.992 233.152H297.472V233.992Z" fill="#CE2C3F"/>
<path d="M285.136 252.712L284.596 253.504C283.96 252.964 282.676 252.232 281.884 251.872L282.352 251.128C283.216 251.512 284.572 252.28 285.136 252.712ZM280.816 250.912L280.84 251.8C280.216 251.98 279.472 252.136 278.692 252.232C278.104 253.912 277.048 255.976 276.1 257.26L275.164 256.78C276.16 255.628 277.168 253.732 277.708 252.34C277.36 252.364 277.012 252.376 276.664 252.376C276.22 252.376 275.728 252.364 275.284 252.34L275.212 251.44C275.656 251.5 276.16 251.524 276.676 251.524C277.096 251.524 277.54 251.5 277.996 251.464C278.176 250.804 278.344 250.048 278.368 249.412L279.436 249.508C279.316 249.94 279.16 250.66 278.968 251.344C279.592 251.248 280.216 251.104 280.816 250.912ZM281.44 257.548C281.44 257.392 281.44 257.2 281.428 256.984C281.056 256.876 280.648 256.816 280.228 256.816C279.352 256.816 278.776 257.212 278.776 257.752C278.776 258.304 279.22 258.676 280.144 258.676C281.116 258.676 281.44 258.136 281.44 257.548ZM281.272 253.18H282.232C282.196 253.672 282.208 254.02 282.22 254.464C282.232 254.896 282.28 255.676 282.304 256.396C283.324 256.768 284.152 257.356 284.764 257.884L284.248 258.7C283.744 258.244 283.108 257.716 282.34 257.344C282.352 257.524 282.352 257.692 282.352 257.824C282.352 258.772 281.728 259.552 280.264 259.552C278.956 259.552 277.888 259.012 277.888 257.836C277.888 256.744 278.92 256.036 280.264 256.036C280.66 256.036 281.044 256.072 281.392 256.144C281.356 255.172 281.296 254.008 281.272 253.18ZM289.792 250.54L290.044 249.628C291.064 249.952 293.584 250.444 294.64 250.54L294.412 251.476C293.284 251.32 290.704 250.792 289.792 250.54ZM289.78 251.788C289.624 252.604 289.42 254.332 289.312 255.1C290.452 254.104 291.736 253.672 293.152 253.672C294.976 253.672 296.188 254.764 296.188 256.156C296.188 258.292 294.304 259.732 289.888 259.36L289.6 258.376C293.344 258.832 295.18 257.752 295.18 256.132C295.18 255.184 294.304 254.524 293.092 254.524C291.508 254.524 290.26 255.1 289.42 256.096C289.252 256.3 289.144 256.504 289.06 256.696L288.16 256.48C288.4 255.4 288.688 252.904 288.76 251.656L289.78 251.788ZM308.452 251.32L307.828 251.56C307.6 251.02 307.288 250.3 307.024 249.844L307.624 249.64C307.864 250.084 308.248 250.828 308.452 251.32ZM305.62 250.624L306.544 250.336C306.844 251.776 307.552 253.72 309.076 255.244L308.368 255.988C307.828 255.328 307.348 254.608 306.904 253.768C307.156 256.768 305.908 259.732 302.824 259.732C300.916 259.732 299.74 258.496 299.74 256.588C299.74 254.548 300.904 252.64 301.876 251.632C301.276 251.728 300.388 251.872 299.92 251.968C299.716 252.004 299.5 252.052 299.26 252.1L299.116 251.092C299.296 251.092 299.536 251.08 299.752 251.056C300.784 250.972 302.872 250.636 303.568 250.372L303.856 251.236C303.7 251.296 303.4 251.368 303.232 251.452C302.476 252.016 300.676 254.26 300.676 256.456C300.676 258.088 301.708 258.736 302.86 258.736C305.332 258.736 306.736 255.868 305.908 251.488C305.812 251.212 305.716 250.924 305.62 250.624ZM308.26 249.4L308.848 249.172C309.112 249.616 309.472 250.348 309.7 250.852L309.076 251.08C308.848 250.54 308.536 249.844 308.26 249.4ZM321.208 252.364H317.008C318.004 254.416 319.732 256.324 321.616 257.236C321.4 257.416 321.088 257.764 320.956 258.016C319.144 257.02 317.536 255.196 316.456 253.12V256.792H318.736V257.68H316.456V259.912H315.532V257.68H313.192V256.792H315.532V253.12C314.428 255.196 312.808 257.008 311.044 258.028C310.912 257.812 310.612 257.476 310.408 257.308C312.232 256.36 313.972 254.416 314.98 252.364H310.816V251.476H315.532V248.968H316.456V251.476H321.208V252.364ZM327.256 249.196L328.036 249.52C327.688 250.072 327.28 250.672 326.968 251.068L326.368 250.78C326.656 250.36 327.064 249.664 327.256 249.196ZM324.484 250.78L323.776 251.092C323.668 250.672 323.356 250.012 323.032 249.52L323.704 249.244C324.04 249.724 324.364 250.36 324.484 250.78ZM329.74 251.992L329.728 252.028C329.956 253.408 330.292 254.704 330.772 255.82C331.288 254.752 331.612 253.48 331.828 251.992H329.74ZM326.464 256.06H324.784C324.616 256.396 324.436 256.72 324.28 257.032C324.76 257.224 325.24 257.44 325.708 257.668C326.068 257.236 326.308 256.708 326.464 256.06ZM333.472 251.992H332.752C332.452 253.936 331.996 255.52 331.264 256.804C331.864 257.836 332.62 258.652 333.58 259.156C333.376 259.324 333.088 259.672 332.968 259.912C332.044 259.372 331.312 258.604 330.724 257.644C330.016 258.58 329.116 259.348 327.94 259.948C327.868 259.792 327.712 259.528 327.556 259.324L327.28 259.612C326.908 259.312 326.428 258.988 325.876 258.664C325.18 259.24 324.232 259.636 322.948 259.912C322.888 259.672 322.708 259.348 322.54 259.18C323.644 258.988 324.484 258.688 325.096 258.244C324.712 258.052 324.316 257.86 323.92 257.692L323.728 258.028L322.96 257.752C323.224 257.296 323.548 256.684 323.872 256.06H322.516V255.316H324.244C324.424 254.956 324.592 254.608 324.736 254.284L325.048 254.356V252.7C324.448 253.408 323.68 254.068 322.948 254.464C322.84 254.26 322.624 253.948 322.456 253.792C323.308 253.408 324.22 252.664 324.808 251.884H322.588V251.152H325.048V248.956H325.876V251.152H328.312V251.884H325.876V251.944C326.392 252.244 327.688 253.06 328.012 253.3L327.52 253.936C327.208 253.648 326.452 253.072 325.876 252.64V254.428H325.36L325.564 254.476C325.432 254.74 325.3 255.028 325.156 255.316H328.36V256.06H327.316C327.148 256.864 326.872 257.524 326.464 258.064C326.992 258.352 327.472 258.664 327.844 258.94C328.864 258.376 329.656 257.656 330.244 256.756C329.788 255.784 329.44 254.668 329.164 253.444C328.912 254.008 328.612 254.512 328.288 254.944C328.156 254.776 327.772 254.476 327.568 254.332C328.576 253.072 329.2 251.068 329.524 248.956L330.436 249.088C330.316 249.796 330.16 250.492 329.992 251.152H333.472V251.992Z" fill="#2C59CE"/>
<line y1="-0.229586" x2="16.071" y2="-0.229586" transform="matrix(1 0 0 -1 115.204 272.857)" stroke="#1E252C" stroke-width="0.459172"/>
<line x1="117.77" y1="273" x2="117.77" y2="235" stroke="#1E252C" stroke-width="0.459172"/>
<line y1="-0.229586" x2="39.948" y2="-0.229586" transform="matrix(1 0 0 -1 115 255)" stroke="#1E252C" stroke-width="0.459172"/>
<path d="M115 235H176" stroke="#1E252C" stroke-width="0.459172"/>
<line y1="-0.229586" x2="16" y2="-0.229586" transform="matrix(6.84436e-08 1 1 -2.79162e-08 166 269)" stroke="#1E252C" stroke-width="0.459172"/>
<line y1="-0.229586" x2="16" y2="-0.229586" transform="matrix(6.84436e-08 1 1 -2.79162e-08 195 269)" stroke="#1E252C" stroke-width="0.459172"/>
<line y1="-0.229586" x2="28.9279" y2="-0.229586" transform="matrix(1 -8.74228e-08 -8.74228e-08 -1 166 280)" stroke="#1E252C" stroke-width="0.459172"/>
<path d="M172.596 289.168H170.004V290.164H172.596V289.168ZM170.004 291.88H172.596V290.824H170.004V291.88ZM173.448 292.564H170.004V298.924H169.116V288.472H173.448V292.564ZM175.38 294.148H172.56V295.264H175.38V294.148ZM172.56 297.1H175.38V295.936H172.56V297.1ZM176.208 297.808H172.56V298.408H171.756V293.464H176.208V297.808ZM175.368 291.892H178.056V290.824H175.368V291.892ZM178.056 289.168H175.368V290.164H178.056V289.168ZM178.956 288.472V297.736C178.956 298.3 178.824 298.6 178.428 298.756C178.044 298.9 177.408 298.912 176.412 298.912C176.376 298.66 176.232 298.24 176.1 298C176.832 298.036 177.564 298.024 177.78 298.012C177.984 298.012 178.056 297.94 178.056 297.724V292.576H174.516V288.472H178.956ZM183.672 288.436L184.248 288.784C183.936 289.768 183.504 290.992 183.144 291.952C183.948 292.924 184.128 293.788 184.128 294.532C184.14 295.156 183.996 295.66 183.684 295.888C183.528 296.008 183.336 296.068 183.096 296.104C182.88 296.128 182.616 296.14 182.364 296.128C182.352 295.9 182.28 295.576 182.16 295.348C182.388 295.372 182.616 295.372 182.772 295.36C182.916 295.36 183.036 295.324 183.132 295.264C183.3 295.132 183.348 294.796 183.348 294.436C183.348 293.788 183.156 292.984 182.352 292.048C182.676 291.172 183 290.104 183.24 289.288H181.776V298.912H180.996V288.472H183.54L183.672 288.436ZM189.648 296.764H188.184V298.672H187.464V296.764H186.096V296.116H189.648V296.764ZM190.32 294.928L190.332 294.94V293.968H188.832V294.76C188.832 294.952 188.868 294.964 189.144 294.964H190.068C190.248 294.964 190.296 294.964 190.32 294.928ZM191.16 293.248V298C191.16 298.408 191.076 298.624 190.8 298.768C190.512 298.888 190.08 298.888 189.408 298.888C189.384 298.684 189.252 298.36 189.156 298.156C189.624 298.168 190.032 298.168 190.164 298.156C190.296 298.156 190.332 298.12 190.332 298V295.528C190.284 295.54 190.236 295.54 190.176 295.54H189.084C188.412 295.54 188.244 295.384 188.244 294.76V293.968H187.38C187.248 294.94 186.828 295.54 185.76 295.864C185.7 295.732 185.52 295.504 185.4 295.396C186.288 295.144 186.636 294.724 186.768 293.968H185.352V298.912H184.536V293.248H191.16ZM189.6 291.892V290.656H186.156V291.892H189.6ZM190.476 290.02V292.54H185.304V290.02H190.476ZM184.632 288.604H191.208V289.36H184.632V288.604Z" fill="#1E252C"/>
<rect x="151.5" y="224.5" width="117" height="43" stroke="#CE2C3F" stroke-dasharray="0.92 0.92"/>
<rect x="155.5" y="245.5" width="107" height="18" stroke="#2C59CE" stroke-dasharray="0.92 0.92"/>
<rect x="192" y="305" width="33" height="19" fill="#496071"/>
<path d="M207.13 311.17H202.174V313.198L202.378 312.958C203.746 313.618 205.63 314.686 206.554 315.406L205.738 316.426C204.97 315.778 203.47 314.842 202.174 314.122V320.158H200.986V311.17H196.534V310.03H207.13V311.17ZM214.222 312.058V310.774H212.698V312.058H214.222ZM214.222 314.206V312.922H212.698V314.206H214.222ZM214.222 316.366V315.058H212.698V316.366H214.222ZM215.206 309.874V317.266H211.762V309.874H215.206ZM210.55 309.214L211.582 309.502C211.318 310.294 211.006 311.098 210.646 311.866V320.17H209.59V313.81C209.278 314.302 208.966 314.746 208.63 315.13C208.534 314.854 208.246 314.23 208.078 313.954C209.074 312.79 209.998 311.014 210.55 309.214ZM212.398 317.422L213.334 317.902C212.938 318.658 212.302 319.582 211.762 320.122C211.57 319.942 211.198 319.654 210.958 319.498C211.522 318.994 212.11 318.094 212.398 317.422ZM213.754 317.854L214.558 317.422C214.966 318.034 215.422 318.85 215.614 319.366L214.762 319.882C214.594 319.354 214.138 318.49 213.754 317.854ZM216.994 310.426V317.47H216.01V310.426H216.994ZM217.978 309.334H218.998V318.886C218.998 319.486 218.866 319.798 218.53 319.966C218.194 320.146 217.642 320.182 216.79 320.182C216.754 319.894 216.622 319.426 216.466 319.114C217.054 319.138 217.582 319.138 217.75 319.138C217.918 319.126 217.978 319.078 217.978 318.898V309.334Z" fill="white"/>
</svg>
