<svg width="359" height="328" viewBox="0 0 359 328" fill="none" xmlns="http://www.w3.org/2000/svg">
<path d="M60 59H329V131.402H268.621V267H121.73V131.402H60V59Z" fill="#D9D9D9"/>
<circle cx="151.946" cy="162.106" r="3.68" fill="white"/>
<circle cx="151.946" cy="196.264" r="3.68" fill="white"/>
<circle cx="151.946" cy="127.948" r="3.68" fill="white"/>
<circle cx="238.105" cy="162.106" r="3.68" fill="white"/>
<circle cx="238.105" cy="196.264" r="3.68" fill="white"/>
<circle cx="238.105" cy="127.948" r="3.68" fill="white"/>
<circle cx="153.68" cy="75.68" r="3.68" fill="#1E252C"/>
<circle cx="183.067" cy="75.68" r="3.68" fill="#1E252C"/>
<circle cx="212.454" cy="75.68" r="3.68" fill="#1E252C"/>
<circle cx="167.937" cy="95.68" r="3.68" fill="#1E252C"/>
<circle cx="197.324" cy="95.68" r="3.68" fill="#1E252C"/>
<circle cx="226.711" cy="95.68" r="3.68" fill="#1E252C"/>
<circle cx="241.841" cy="75.68" r="3.68" fill="#1E252C"/>
<path d="M69.14 82.252V83.176C69.14 84.148 68.9 85.324 67.7 86.08C67.592 85.912 67.268 85.588 67.1 85.468C68.168 84.808 68.312 83.944 68.312 83.152V81.46H71.852V84.4C71.852 84.628 71.864 84.748 71.924 84.796C71.972 84.832 72.032 84.844 72.116 84.844H72.464C72.56 84.844 72.668 84.832 72.716 84.808C72.776 84.772 72.824 84.688 72.848 84.544C72.884 84.364 72.896 84.004 72.908 83.524C73.052 83.656 73.352 83.8 73.58 83.86C73.556 84.328 73.52 84.868 73.46 85.06C73.388 85.264 73.268 85.384 73.1 85.456C72.968 85.54 72.728 85.576 72.536 85.576H71.924C71.708 85.576 71.42 85.516 71.264 85.36C71.096 85.216 71.024 85.012 71.024 84.352V82.252H69.14ZM67.484 89.284L64.268 89.86V91.9H63.428V90.016L62.6 90.16L62.444 89.296L63.428 89.14V81.856L63.908 82.024C64.976 81.736 66.092 81.34 66.74 80.968L67.508 81.604C66.62 82.036 65.396 82.408 64.268 82.684V84.064H67.028V84.88H64.268V86.344H67.124V87.172H64.268V88.996C65.252 88.84 66.356 88.648 67.436 88.456L67.484 89.284ZM71.816 87.064H68.912C69.236 87.892 69.704 88.636 70.304 89.26C70.94 88.648 71.456 87.928 71.816 87.064ZM72.392 86.212L72.956 86.44C72.536 87.856 71.84 88.972 70.952 89.836C71.684 90.424 72.56 90.856 73.58 91.132C73.364 91.3 73.112 91.66 72.992 91.9C71.948 91.576 71.036 91.084 70.28 90.424C69.368 91.108 68.324 91.6 67.196 91.936C67.1 91.708 66.884 91.348 66.704 91.156C67.772 90.88 68.792 90.436 69.644 89.8C68.996 89.08 68.492 88.204 68.12 87.22L68.708 87.064H67.628V86.248H72.224L72.392 86.212ZM78.596 82.168H76.004V83.164H78.596V82.168ZM76.004 84.88H78.596V83.824H76.004V84.88ZM79.448 85.564H76.004V91.924H75.116V81.472H79.448V85.564ZM81.38 87.148H78.56V88.264H81.38V87.148ZM78.56 90.1H81.38V88.936H78.56V90.1ZM82.208 90.808H78.56V91.408H77.756V86.464H82.208V90.808ZM81.368 84.892H84.056V83.824H81.368V84.892ZM84.056 82.168H81.368V83.164H84.056V82.168ZM84.956 81.472V90.736C84.956 91.3 84.824 91.6 84.428 91.756C84.044 91.9 83.408 91.912 82.412 91.912C82.376 91.66 82.232 91.24 82.1 91C82.832 91.036 83.564 91.024 83.78 91.012C83.984 91.012 84.056 90.94 84.056 90.724V85.576H80.516V81.472H84.956ZM89.672 81.436L90.248 81.784C89.936 82.768 89.504 83.992 89.144 84.952C89.948 85.924 90.128 86.788 90.128 87.532C90.14 88.156 89.996 88.66 89.684 88.888C89.528 89.008 89.336 89.068 89.096 89.104C88.88 89.128 88.616 89.14 88.364 89.128C88.352 88.9 88.28 88.576 88.16 88.348C88.388 88.372 88.616 88.372 88.772 88.36C88.916 88.36 89.036 88.324 89.132 88.264C89.3 88.132 89.348 87.796 89.348 87.436C89.348 86.788 89.156 85.984 88.352 85.048C88.676 84.172 89 83.104 89.24 82.288H87.776V91.912H86.996V81.472H89.54L89.672 81.436ZM95.648 89.764H94.184V91.672H93.464V89.764H92.096V89.116H95.648V89.764ZM96.32 87.928L96.332 87.94V86.968H94.832V87.76C94.832 87.952 94.868 87.964 95.144 87.964H96.068C96.248 87.964 96.296 87.964 96.32 87.928ZM97.16 86.248V91C97.16 91.408 97.076 91.624 96.8 91.768C96.512 91.888 96.08 91.888 95.408 91.888C95.384 91.684 95.252 91.36 95.156 91.156C95.624 91.168 96.032 91.168 96.164 91.156C96.296 91.156 96.332 91.12 96.332 91V88.528C96.284 88.54 96.236 88.54 96.176 88.54H95.084C94.412 88.54 94.244 88.384 94.244 87.76V86.968H93.38C93.248 87.94 92.828 88.54 91.76 88.864C91.7 88.732 91.52 88.504 91.4 88.396C92.288 88.144 92.636 87.724 92.768 86.968H91.352V91.912H90.536V86.248H97.16ZM95.6 84.892V83.656H92.156V84.892H95.6ZM96.476 83.02V85.54H91.304V83.02H96.476ZM90.632 81.604H97.208V82.36H90.632V81.604Z" fill="#1E252C"/>
<path d="M20.3959 70.772L19.5919 70.292C20.4079 69.44 20.8519 68.012 21.0799 66.716L21.9199 66.932C21.6679 68.288 21.2479 69.836 20.3959 70.772ZM23.5879 64.688H22.6999V63.38H19.9759V62.516H22.6999V60.956H23.5879V62.516H26.7439V60.956H27.6319V62.516H30.3679V63.38H27.6319V64.688H26.7439V63.38H23.5879V64.688ZM23.6359 65.072L24.2599 64.556C25.2559 65.084 26.4199 65.924 26.9719 66.572L26.2999 67.16C25.7839 66.512 24.6319 65.636 23.6359 65.072ZM24.4399 70.808H26.6239C27.2119 70.808 27.2959 70.544 27.3679 68.972C27.5719 69.116 27.9559 69.272 28.2079 69.332C28.0879 71.18 27.8119 71.66 26.6599 71.66H24.3799C23.1319 71.66 22.8079 71.372 22.8079 70.304V66.236H23.6959V70.304C23.6959 70.712 23.8039 70.808 24.4399 70.808ZM27.8599 66.812L28.6399 66.464C29.5399 67.568 30.4519 69.056 30.7759 70.064L29.9359 70.472C29.6239 69.464 28.7359 67.94 27.8599 66.812ZM35.3239 61.556L36.4399 61.676C36.3919 61.892 36.3439 62.144 36.2959 62.372C36.2359 62.72 36.1279 63.416 35.9959 64.052C36.5479 64.016 37.0399 63.98 37.3279 63.98C38.3839 63.98 39.2599 64.388 39.2599 65.996C39.2599 67.412 39.0559 69.284 38.5639 70.28C38.1919 71.072 37.6039 71.276 36.8239 71.276C36.3799 71.276 35.8039 71.18 35.4319 71.096L35.2759 70.088C35.7679 70.244 36.4039 70.352 36.7279 70.352C37.1719 70.352 37.5199 70.256 37.7719 69.74C38.1439 68.936 38.3239 67.4 38.3239 66.104C38.3239 65.024 37.8319 64.832 37.0759 64.832C36.7879 64.832 36.3199 64.868 35.8039 64.916C35.3719 66.62 34.5679 69.284 33.3079 71.3L32.3239 70.904C33.5359 69.284 34.4239 66.596 34.8199 65.012C34.2079 65.072 33.6319 65.132 33.3199 65.168C33.0439 65.204 32.5639 65.264 32.2519 65.312L32.1559 64.268C32.5279 64.292 32.8399 64.28 33.2119 64.268C33.6079 64.256 34.3039 64.196 35.0239 64.136C35.1919 63.284 35.3239 62.36 35.3239 61.556ZM39.6439 63.32L40.5319 62.936C41.2759 63.896 42.2959 66.08 42.7039 67.184L41.7679 67.628C41.4199 66.404 40.4839 64.316 39.6439 63.32ZM52.3519 63.02C52.6639 63.464 53.0959 64.196 53.3359 64.688L52.6879 64.976C52.4599 64.484 52.0399 63.764 51.7159 63.296L52.3519 63.02ZM53.6719 62.54C54.0079 62.984 54.4639 63.74 54.6919 64.184L54.0439 64.472C53.7799 63.956 53.3959 63.272 53.0479 62.816L53.6719 62.54ZM49.5559 65.096L48.9439 64.52C49.2559 64.328 49.5919 64.076 49.7599 63.932C49.2439 63.512 48.1399 62.924 47.2279 62.552L47.7919 61.844C48.7039 62.228 50.0119 62.876 50.7199 63.404L50.9479 64.028C50.6599 64.268 49.9879 64.784 49.5559 65.096ZM46.7959 71.204L46.6519 70.196C47.2639 70.376 47.8279 70.472 48.5719 70.472C49.1239 70.472 49.7719 70.256 49.7719 69.488C49.7719 68.684 48.8959 67.592 48.2479 66.884C47.9839 66.62 47.6239 66.284 47.2879 65.996L48.0199 65.372C48.3079 65.672 48.6079 65.996 48.8839 66.296C49.9999 67.46 50.7799 68.516 50.7799 69.584C50.7799 71.048 49.5919 71.384 48.7279 71.384C47.9719 71.384 47.3239 71.3 46.7959 71.204ZM54.3919 70.172L53.5039 70.652C53.1679 69.524 52.3279 67.832 51.5119 66.896L52.3159 66.464C53.1319 67.424 54.0199 69.116 54.3919 70.172ZM47.0719 68.336C46.3759 69.056 45.1879 70.064 44.0359 70.748L43.4599 69.944C44.4439 69.416 45.8239 68.36 46.4959 67.616L47.0719 68.336ZM58.2079 61.532L59.2639 61.568C59.0119 62.444 58.7839 64.04 58.7119 64.868C59.1799 63.644 60.4279 62.168 61.9279 62.168C63.5119 62.168 64.6519 63.752 64.6519 66.248C64.6519 69.548 62.5759 71 59.6239 71.54L59.0599 70.676C61.6399 70.28 63.6559 69.248 63.6559 66.26C63.6559 64.388 63.0319 63.044 61.7719 63.044C60.2959 63.044 58.9279 65.192 58.7839 66.752C58.7239 67.208 58.7239 67.616 58.8079 68.204L57.8719 68.276C57.8119 67.832 57.7519 67.16 57.7519 66.392C57.7519 65.264 57.9679 63.512 58.1119 62.552C58.1599 62.18 58.1959 61.82 58.2079 61.532ZM68.2279 71V70.088H70.1839V63.524H68.6239V62.828C69.4039 62.684 69.9679 62.48 70.4479 62.204H71.2879V70.088H73.0519V71H68.2279ZM80.9681 62.252V63.176C80.9681 64.148 80.7281 65.324 79.5281 66.08C79.4201 65.912 79.0961 65.588 78.9281 65.468C79.9961 64.808 80.1401 63.944 80.1401 63.152V61.46H83.6801V64.4C83.6801 64.628 83.6921 64.748 83.7521 64.796C83.8001 64.832 83.8601 64.844 83.9441 64.844H84.2921C84.3881 64.844 84.4961 64.832 84.5441 64.808C84.6041 64.772 84.6521 64.688 84.6761 64.544C84.7121 64.364 84.7241 64.004 84.7361 63.524C84.8801 63.656 85.1801 63.8 85.4081 63.86C85.3841 64.328 85.3481 64.868 85.2881 65.06C85.2161 65.264 85.0961 65.384 84.9281 65.456C84.7961 65.54 84.5561 65.576 84.3641 65.576H83.7521C83.5361 65.576 83.2481 65.516 83.0921 65.36C82.9241 65.216 82.8521 65.012 82.8521 64.352V62.252H80.9681ZM79.3121 69.284L76.0961 69.86V71.9H75.2561V70.016L74.4281 70.16L74.2721 69.296L75.2561 69.14V61.856L75.7361 62.024C76.8041 61.736 77.9201 61.34 78.5681 60.968L79.3361 61.604C78.4481 62.036 77.2241 62.408 76.0961 62.684V64.064H78.8561V64.88H76.0961V66.344H78.9521V67.172H76.0961V68.996C77.0801 68.84 78.1841 68.648 79.2641 68.456L79.3121 69.284ZM83.6441 67.064H80.7401C81.0641 67.892 81.5321 68.636 82.1321 69.26C82.7681 68.648 83.2841 67.928 83.6441 67.064ZM84.2201 66.212L84.7841 66.44C84.3641 67.856 83.6681 68.972 82.7801 69.836C83.5121 70.424 84.3881 70.856 85.4081 71.132C85.1921 71.3 84.9401 71.66 84.8201 71.9C83.7761 71.576 82.8641 71.084 82.1081 70.424C81.1961 71.108 80.1521 71.6 79.0241 71.936C78.9281 71.708 78.7121 71.348 78.5321 71.156C79.6001 70.88 80.6201 70.436 81.4721 69.8C80.8241 69.08 80.3201 68.204 79.9481 67.22L80.5361 67.064H79.4561V66.248H84.0521L84.2201 66.212ZM88.6361 70.16H94.9121V68.192H88.6361V70.16ZM94.9121 65.372H88.6361V67.34H94.9121V65.372ZM94.9121 62.576H88.6361V64.52H94.9121V62.576ZM87.7601 61.712H95.8361V71.852H94.9121V71.036H88.6361V71.852H87.7601V61.712Z" fill="#1E252C"/>
<path d="M273.208 93.364H269.008C270.004 95.416 271.732 97.324 273.616 98.236C273.4 98.416 273.088 98.764 272.956 99.016C271.144 98.02 269.536 96.196 268.456 94.12V97.792H270.736V98.68H268.456V100.912H267.532V98.68H265.192V97.792H267.532V94.12C266.428 96.196 264.808 98.008 263.044 99.028C262.912 98.812 262.612 98.476 262.408 98.308C264.232 97.36 265.972 95.416 266.98 93.364H262.816V92.476H267.532V89.968H268.456V92.476H273.208V93.364ZM279.256 90.196L280.036 90.52C279.688 91.072 279.28 91.672 278.968 92.068L278.368 91.78C278.656 91.36 279.064 90.664 279.256 90.196ZM276.484 91.78L275.776 92.092C275.668 91.672 275.356 91.012 275.032 90.52L275.704 90.244C276.04 90.724 276.364 91.36 276.484 91.78ZM281.74 92.992L281.728 93.028C281.956 94.408 282.292 95.704 282.772 96.82C283.288 95.752 283.612 94.48 283.828 92.992H281.74ZM278.464 97.06H276.784C276.616 97.396 276.436 97.72 276.28 98.032C276.76 98.224 277.24 98.44 277.708 98.668C278.068 98.236 278.308 97.708 278.464 97.06ZM285.472 92.992H284.752C284.452 94.936 283.996 96.52 283.264 97.804C283.864 98.836 284.62 99.652 285.58 100.156C285.376 100.324 285.088 100.672 284.968 100.912C284.044 100.372 283.312 99.604 282.724 98.644C282.016 99.58 281.116 100.348 279.94 100.948C279.868 100.792 279.712 100.528 279.556 100.324L279.28 100.612C278.908 100.312 278.428 99.988 277.876 99.664C277.18 100.24 276.232 100.636 274.948 100.912C274.888 100.672 274.708 100.348 274.54 100.18C275.644 99.988 276.484 99.688 277.096 99.244C276.712 99.052 276.316 98.86 275.92 98.692L275.728 99.028L274.96 98.752C275.224 98.296 275.548 97.684 275.872 97.06H274.516V96.316H276.244C276.424 95.956 276.592 95.608 276.736 95.284L277.048 95.356V93.7C276.448 94.408 275.68 95.068 274.948 95.464C274.84 95.26 274.624 94.948 274.456 94.792C275.308 94.408 276.22 93.664 276.808 92.884H274.588V92.152H277.048V89.956H277.876V92.152H280.312V92.884H277.876V92.944C278.392 93.244 279.688 94.06 280.012 94.3L279.52 94.936C279.208 94.648 278.452 94.072 277.876 93.64V95.428H277.36L277.564 95.476C277.432 95.74 277.3 96.028 277.156 96.316H280.36V97.06H279.316C279.148 97.864 278.872 98.524 278.464 99.064C278.992 99.352 279.472 99.664 279.844 99.94C280.864 99.376 281.656 98.656 282.244 97.756C281.788 96.784 281.44 95.668 281.164 94.444C280.912 95.008 280.612 95.512 280.288 95.944C280.156 95.776 279.772 95.476 279.568 95.332C280.576 94.072 281.2 92.068 281.524 89.956L282.436 90.088C282.316 90.796 282.16 91.492 281.992 92.152H285.472V92.992Z" fill="#CE2C3F"/>
<path d="M273.136 74.712L272.596 75.504C271.96 74.964 270.676 74.232 269.884 73.872L270.352 73.128C271.216 73.512 272.572 74.28 273.136 74.712ZM268.816 72.912L268.84 73.8C268.216 73.98 267.472 74.136 266.692 74.232C266.104 75.912 265.048 77.976 264.1 79.26L263.164 78.78C264.16 77.628 265.168 75.732 265.708 74.34C265.36 74.364 265.012 74.376 264.664 74.376C264.22 74.376 263.728 74.364 263.284 74.34L263.212 73.44C263.656 73.5 264.16 73.524 264.676 73.524C265.096 73.524 265.54 73.5 265.996 73.464C266.176 72.804 266.344 72.048 266.368 71.412L267.436 71.508C267.316 71.94 267.16 72.66 266.968 73.344C267.592 73.248 268.216 73.104 268.816 72.912ZM269.44 79.548C269.44 79.392 269.44 79.2 269.428 78.984C269.056 78.876 268.648 78.816 268.228 78.816C267.352 78.816 266.776 79.212 266.776 79.752C266.776 80.304 267.22 80.676 268.144 80.676C269.116 80.676 269.44 80.136 269.44 79.548ZM269.272 75.18H270.232C270.196 75.672 270.208 76.02 270.22 76.464C270.232 76.896 270.28 77.676 270.304 78.396C271.324 78.768 272.152 79.356 272.764 79.884L272.248 80.7C271.744 80.244 271.108 79.716 270.34 79.344C270.352 79.524 270.352 79.692 270.352 79.824C270.352 80.772 269.728 81.552 268.264 81.552C266.956 81.552 265.888 81.012 265.888 79.836C265.888 78.744 266.92 78.036 268.264 78.036C268.66 78.036 269.044 78.072 269.392 78.144C269.356 77.172 269.296 76.008 269.272 75.18ZM277.792 72.54L278.044 71.628C279.064 71.952 281.584 72.444 282.64 72.54L282.412 73.476C281.284 73.32 278.704 72.792 277.792 72.54ZM277.78 73.788C277.624 74.604 277.42 76.332 277.312 77.1C278.452 76.104 279.736 75.672 281.152 75.672C282.976 75.672 284.188 76.764 284.188 78.156C284.188 80.292 282.304 81.732 277.888 81.36L277.6 80.376C281.344 80.832 283.18 79.752 283.18 78.132C283.18 77.184 282.304 76.524 281.092 76.524C279.508 76.524 278.26 77.1 277.42 78.096C277.252 78.3 277.144 78.504 277.06 78.696L276.16 78.48C276.4 77.4 276.688 74.904 276.76 73.656L277.78 73.788ZM296.452 73.32L295.828 73.56C295.6 73.02 295.288 72.3 295.024 71.844L295.624 71.64C295.864 72.084 296.248 72.828 296.452 73.32ZM293.62 72.624L294.544 72.336C294.844 73.776 295.552 75.72 297.076 77.244L296.368 77.988C295.828 77.328 295.348 76.608 294.904 75.768C295.156 78.768 293.908 81.732 290.824 81.732C288.916 81.732 287.74 80.496 287.74 78.588C287.74 76.548 288.904 74.64 289.876 73.632C289.276 73.728 288.388 73.872 287.92 73.968C287.716 74.004 287.5 74.052 287.26 74.1L287.116 73.092C287.296 73.092 287.536 73.08 287.752 73.056C288.784 72.972 290.872 72.636 291.568 72.372L291.856 73.236C291.7 73.296 291.4 73.368 291.232 73.452C290.476 74.016 288.676 76.26 288.676 78.456C288.676 80.088 289.708 80.736 290.86 80.736C293.332 80.736 294.736 77.868 293.908 73.488C293.812 73.212 293.716 72.924 293.62 72.624ZM296.26 71.4L296.848 71.172C297.112 71.616 297.472 72.348 297.7 72.852L297.076 73.08C296.848 72.54 296.536 71.844 296.26 71.4ZM309.208 74.364H305.008C306.004 76.416 307.732 78.324 309.616 79.236C309.4 79.416 309.088 79.764 308.956 80.016C307.144 79.02 305.536 77.196 304.456 75.12V78.792H306.736V79.68H304.456V81.912H303.532V79.68H301.192V78.792H303.532V75.12C302.428 77.196 300.808 79.008 299.044 80.028C298.912 79.812 298.612 79.476 298.408 79.308C300.232 78.36 301.972 76.416 302.98 74.364H298.816V73.476H303.532V70.968H304.456V73.476H309.208V74.364ZM315.256 71.196L316.036 71.52C315.688 72.072 315.28 72.672 314.968 73.068L314.368 72.78C314.656 72.36 315.064 71.664 315.256 71.196ZM312.484 72.78L311.776 73.092C311.668 72.672 311.356 72.012 311.032 71.52L311.704 71.244C312.04 71.724 312.364 72.36 312.484 72.78ZM317.74 73.992L317.728 74.028C317.956 75.408 318.292 76.704 318.772 77.82C319.288 76.752 319.612 75.48 319.828 73.992H317.74ZM314.464 78.06H312.784C312.616 78.396 312.436 78.72 312.28 79.032C312.76 79.224 313.24 79.44 313.708 79.668C314.068 79.236 314.308 78.708 314.464 78.06ZM321.472 73.992H320.752C320.452 75.936 319.996 77.52 319.264 78.804C319.864 79.836 320.62 80.652 321.58 81.156C321.376 81.324 321.088 81.672 320.968 81.912C320.044 81.372 319.312 80.604 318.724 79.644C318.016 80.58 317.116 81.348 315.94 81.948C315.868 81.792 315.712 81.528 315.556 81.324L315.28 81.612C314.908 81.312 314.428 80.988 313.876 80.664C313.18 81.24 312.232 81.636 310.948 81.912C310.888 81.672 310.708 81.348 310.54 81.18C311.644 80.988 312.484 80.688 313.096 80.244C312.712 80.052 312.316 79.86 311.92 79.692L311.728 80.028L310.96 79.752C311.224 79.296 311.548 78.684 311.872 78.06H310.516V77.316H312.244C312.424 76.956 312.592 76.608 312.736 76.284L313.048 76.356V74.7C312.448 75.408 311.68 76.068 310.948 76.464C310.84 76.26 310.624 75.948 310.456 75.792C311.308 75.408 312.22 74.664 312.808 73.884H310.588V73.152H313.048V70.956H313.876V73.152H316.312V73.884H313.876V73.944C314.392 74.244 315.688 75.06 316.012 75.3L315.52 75.936C315.208 75.648 314.452 75.072 313.876 74.64V76.428H313.36L313.564 76.476C313.432 76.74 313.3 77.028 313.156 77.316H316.36V78.06H315.316C315.148 78.864 314.872 79.524 314.464 80.064C314.992 80.352 315.472 80.664 315.844 80.94C316.864 80.376 317.656 79.656 318.244 78.756C317.788 77.784 317.44 76.668 317.164 75.444C316.912 76.008 316.612 76.512 316.288 76.944C316.156 76.776 315.772 76.476 315.568 76.332C316.576 75.072 317.2 73.068 317.524 70.956L318.436 71.088C318.316 71.796 318.16 72.492 317.992 73.152H321.472V73.992Z" fill="#2C59CE"/>
<line x1="153.77" y1="66" x2="153.77" y2="50" stroke="#1E252C" stroke-width="0.459172"/>
<line x1="182.77" y1="66" x2="182.77" y2="50" stroke="#1E252C" stroke-width="0.459172"/>
<line x1="154" y1="54.7704" x2="182.928" y2="54.7704" stroke="#1E252C" stroke-width="0.459172"/>
<line x1="103.204" y1="58.913" x2="119.275" y2="58.913" stroke="#1E252C" stroke-width="0.459172"/>
<line x1="106.23" y1="59" x2="106.23" y2="96" stroke="#1E252C" stroke-width="0.459172"/>
<line x1="103" y1="76.7704" x2="142.948" y2="76.7704" stroke="#1E252C" stroke-width="0.459172"/>
<line x1="103" y1="95.7704" x2="164" y2="95.7704" stroke="#1E252C" stroke-width="0.459172"/>
<path d="M160.596 37.168H158.004V38.164H160.596V37.168ZM158.004 39.88H160.596V38.824H158.004V39.88ZM161.448 40.564H158.004V46.924H157.116V36.472H161.448V40.564ZM163.38 42.148H160.56V43.264H163.38V42.148ZM160.56 45.1H163.38V43.936H160.56V45.1ZM164.208 45.808H160.56V46.408H159.756V41.464H164.208V45.808ZM163.368 39.892H166.056V38.824H163.368V39.892ZM166.056 37.168H163.368V38.164H166.056V37.168ZM166.956 36.472V45.736C166.956 46.3 166.824 46.6 166.428 46.756C166.044 46.9 165.408 46.912 164.412 46.912C164.376 46.66 164.232 46.24 164.1 46C164.832 46.036 165.564 46.024 165.78 46.012C165.984 46.012 166.056 45.94 166.056 45.724V40.576H162.516V36.472H166.956ZM171.672 36.436L172.248 36.784C171.936 37.768 171.504 38.992 171.144 39.952C171.948 40.924 172.128 41.788 172.128 42.532C172.14 43.156 171.996 43.66 171.684 43.888C171.528 44.008 171.336 44.068 171.096 44.104C170.88 44.128 170.616 44.14 170.364 44.128C170.352 43.9 170.28 43.576 170.16 43.348C170.388 43.372 170.616 43.372 170.772 43.36C170.916 43.36 171.036 43.324 171.132 43.264C171.3 43.132 171.348 42.796 171.348 42.436C171.348 41.788 171.156 40.984 170.352 40.048C170.676 39.172 171 38.104 171.24 37.288H169.776V46.912H168.996V36.472H171.54L171.672 36.436ZM177.648 44.764H176.184V46.672H175.464V44.764H174.096V44.116H177.648V44.764ZM178.32 42.928L178.332 42.94V41.968H176.832V42.76C176.832 42.952 176.868 42.964 177.144 42.964H178.068C178.248 42.964 178.296 42.964 178.32 42.928ZM179.16 41.248V46C179.16 46.408 179.076 46.624 178.8 46.768C178.512 46.888 178.08 46.888 177.408 46.888C177.384 46.684 177.252 46.36 177.156 46.156C177.624 46.168 178.032 46.168 178.164 46.156C178.296 46.156 178.332 46.12 178.332 46V43.528C178.284 43.54 178.236 43.54 178.176 43.54H177.084C176.412 43.54 176.244 43.384 176.244 42.76V41.968H175.38C175.248 42.94 174.828 43.54 173.76 43.864C173.7 43.732 173.52 43.504 173.4 43.396C174.288 43.144 174.636 42.724 174.768 41.968H173.352V46.912H172.536V41.248H179.16ZM177.6 39.892V38.656H174.156V39.892H177.6ZM178.476 38.02V40.54H173.304V38.02H178.476ZM172.632 36.604H179.208V37.36H172.632V36.604Z" fill="#1E252C"/>
<rect x="139.5" y="63.5" width="117" height="43" stroke="#CE2C3F" stroke-dasharray="0.92 0.92"/>
<rect x="143.5" y="67.5" width="107" height="18" stroke="#2C59CE" stroke-dasharray="0.92 0.92"/>
<rect x="181" y="10" width="33" height="19" fill="#496071"/>
<path d="M191.042 23.4784H196.202V24.6064H185.462V23.4784H189.842V14.3344H191.042V17.8984H195.374V19.0144H191.042V23.4784ZM203.222 17.0584V15.7744H201.698V17.0584H203.222ZM203.222 19.2064V17.9224H201.698V19.2064H203.222ZM203.222 21.3664V20.0584H201.698V21.3664H203.222ZM204.206 14.8744V22.2664H200.762V14.8744H204.206ZM199.55 14.2144L200.582 14.5024C200.318 15.2944 200.006 16.0984 199.646 16.8664V25.1704H198.59V18.8104C198.278 19.3024 197.966 19.7464 197.63 20.1304C197.534 19.8544 197.246 19.2304 197.078 18.9544C198.074 17.7904 198.998 16.0144 199.55 14.2144ZM201.398 22.4224L202.334 22.9024C201.938 23.6584 201.302 24.5824 200.762 25.1224C200.57 24.9424 200.198 24.6544 199.958 24.4984C200.522 23.9944 201.11 23.0944 201.398 22.4224ZM202.754 22.8544L203.558 22.4224C203.966 23.0344 204.422 23.8504 204.614 24.3664L203.762 24.8824C203.594 24.3544 203.138 23.4904 202.754 22.8544ZM205.994 15.4264V22.4704H205.01V15.4264H205.994ZM206.978 14.3344H207.998V23.8864C207.998 24.4864 207.866 24.7984 207.53 24.9664C207.194 25.1464 206.642 25.1824 205.79 25.1824C205.754 24.8944 205.622 24.4264 205.466 24.1144C206.054 24.1384 206.582 24.1384 206.75 24.1384C206.918 24.1264 206.978 24.0784 206.978 23.8984V14.3344Z" fill="white"/>
<circle cx="151.68" cy="248.68" r="3.68" fill="#1E252C"/>
<circle cx="181.067" cy="248.68" r="3.68" fill="#1E252C"/>
<circle cx="210.454" cy="248.68" r="3.68" fill="#1E252C"/>
<circle cx="165.937" cy="228.68" r="3.68" fill="#1E252C"/>
<circle cx="195.324" cy="228.68" r="3.68" fill="#1E252C"/>
<circle cx="224.711" cy="228.68" r="3.68" fill="#1E252C"/>
<circle cx="239.841" cy="248.68" r="3.68" fill="#1E252C"/>
<path d="M67.14 235.252V236.176C67.14 237.148 66.9 238.324 65.7 239.08C65.592 238.912 65.268 238.588 65.1 238.468C66.168 237.808 66.312 236.944 66.312 236.152V234.46H69.852V237.4C69.852 237.628 69.864 237.748 69.924 237.796C69.972 237.832 70.032 237.844 70.116 237.844H70.464C70.56 237.844 70.668 237.832 70.716 237.808C70.776 237.772 70.824 237.688 70.848 237.544C70.884 237.364 70.896 237.004 70.908 236.524C71.052 236.656 71.352 236.8 71.58 236.86C71.556 237.328 71.52 237.868 71.46 238.06C71.388 238.264 71.268 238.384 71.1 238.456C70.968 238.54 70.728 238.576 70.536 238.576H69.924C69.708 238.576 69.42 238.516 69.264 238.36C69.096 238.216 69.024 238.012 69.024 237.352V235.252H67.14ZM65.484 242.284L62.268 242.86V244.9H61.428V243.016L60.6 243.16L60.444 242.296L61.428 242.14V234.856L61.908 235.024C62.976 234.736 64.092 234.34 64.74 233.968L65.508 234.604C64.62 235.036 63.396 235.408 62.268 235.684V237.064H65.028V237.88H62.268V239.344H65.124V240.172H62.268V241.996C63.252 241.84 64.356 241.648 65.436 241.456L65.484 242.284ZM69.816 240.064H66.912C67.236 240.892 67.704 241.636 68.304 242.26C68.94 241.648 69.456 240.928 69.816 240.064ZM70.392 239.212L70.956 239.44C70.536 240.856 69.84 241.972 68.952 242.836C69.684 243.424 70.56 243.856 71.58 244.132C71.364 244.3 71.112 244.66 70.992 244.9C69.948 244.576 69.036 244.084 68.28 243.424C67.368 244.108 66.324 244.6 65.196 244.936C65.1 244.708 64.884 244.348 64.704 244.156C65.772 243.88 66.792 243.436 67.644 242.8C66.996 242.08 66.492 241.204 66.12 240.22L66.708 240.064H65.628V239.248H70.224L70.392 239.212ZM76.596 235.168H74.004V236.164H76.596V235.168ZM74.004 237.88H76.596V236.824H74.004V237.88ZM77.448 238.564H74.004V244.924H73.116V234.472H77.448V238.564ZM79.38 240.148H76.56V241.264H79.38V240.148ZM76.56 243.1H79.38V241.936H76.56V243.1ZM80.208 243.808H76.56V244.408H75.756V239.464H80.208V243.808ZM79.368 237.892H82.056V236.824H79.368V237.892ZM82.056 235.168H79.368V236.164H82.056V235.168ZM82.956 234.472V243.736C82.956 244.3 82.824 244.6 82.428 244.756C82.044 244.9 81.408 244.912 80.412 244.912C80.376 244.66 80.232 244.24 80.1 244C80.832 244.036 81.564 244.024 81.78 244.012C81.984 244.012 82.056 243.94 82.056 243.724V238.576H78.516V234.472H82.956ZM87.672 234.436L88.248 234.784C87.936 235.768 87.504 236.992 87.144 237.952C87.948 238.924 88.128 239.788 88.128 240.532C88.14 241.156 87.996 241.66 87.684 241.888C87.528 242.008 87.336 242.068 87.096 242.104C86.88 242.128 86.616 242.14 86.364 242.128C86.352 241.9 86.28 241.576 86.16 241.348C86.388 241.372 86.616 241.372 86.772 241.36C86.916 241.36 87.036 241.324 87.132 241.264C87.3 241.132 87.348 240.796 87.348 240.436C87.348 239.788 87.156 238.984 86.352 238.048C86.676 237.172 87 236.104 87.24 235.288H85.776V244.912H84.996V234.472H87.54L87.672 234.436ZM93.648 242.764H92.184V244.672H91.464V242.764H90.096V242.116H93.648V242.764ZM94.32 240.928L94.332 240.94V239.968H92.832V240.76C92.832 240.952 92.868 240.964 93.144 240.964H94.068C94.248 240.964 94.296 240.964 94.32 240.928ZM95.16 239.248V244C95.16 244.408 95.076 244.624 94.8 244.768C94.512 244.888 94.08 244.888 93.408 244.888C93.384 244.684 93.252 244.36 93.156 244.156C93.624 244.168 94.032 244.168 94.164 244.156C94.296 244.156 94.332 244.12 94.332 244V241.528C94.284 241.54 94.236 241.54 94.176 241.54H93.084C92.412 241.54 92.244 241.384 92.244 240.76V239.968H91.38C91.248 240.94 90.828 241.54 89.76 241.864C89.7 241.732 89.52 241.504 89.4 241.396C90.288 241.144 90.636 240.724 90.768 239.968H89.352V244.912H88.536V239.248H95.16ZM93.6 237.892V236.656H90.156V237.892H93.6ZM94.476 236.02V238.54H89.304V236.02H94.476ZM88.632 234.604H95.208V235.36H88.632V234.604Z" fill="#1E252C"/>
<path d="M18.3959 261.772L17.5919 261.292C18.4079 260.44 18.8519 259.012 19.0799 257.716L19.9199 257.932C19.6679 259.288 19.2479 260.836 18.3959 261.772ZM21.5879 255.688H20.6999V254.38H17.9759V253.516H20.6999V251.956H21.5879V253.516H24.7439V251.956H25.6319V253.516H28.3679V254.38H25.6319V255.688H24.7439V254.38H21.5879V255.688ZM21.6359 256.072L22.2599 255.556C23.2559 256.084 24.4199 256.924 24.9719 257.572L24.2999 258.16C23.7839 257.512 22.6319 256.636 21.6359 256.072ZM22.4399 261.808H24.6239C25.2119 261.808 25.2959 261.544 25.3679 259.972C25.5719 260.116 25.9559 260.272 26.2079 260.332C26.0879 262.18 25.8119 262.66 24.6599 262.66H22.3799C21.1319 262.66 20.8079 262.372 20.8079 261.304V257.236H21.6959V261.304C21.6959 261.712 21.8039 261.808 22.4399 261.808ZM25.8599 257.812L26.6399 257.464C27.5399 258.568 28.4519 260.056 28.7759 261.064L27.9359 261.472C27.6239 260.464 26.7359 258.94 25.8599 257.812ZM33.3239 252.556L34.4399 252.676C34.3919 252.892 34.3439 253.144 34.2959 253.372C34.2359 253.72 34.1279 254.416 33.9959 255.052C34.5479 255.016 35.0399 254.98 35.3279 254.98C36.3839 254.98 37.2599 255.388 37.2599 256.996C37.2599 258.412 37.0559 260.284 36.5639 261.28C36.1919 262.072 35.6039 262.276 34.8239 262.276C34.3799 262.276 33.8039 262.18 33.4319 262.096L33.2759 261.088C33.7679 261.244 34.4039 261.352 34.7279 261.352C35.1719 261.352 35.5199 261.256 35.7719 260.74C36.1439 259.936 36.3239 258.4 36.3239 257.104C36.3239 256.024 35.8319 255.832 35.0759 255.832C34.7879 255.832 34.3199 255.868 33.8039 255.916C33.3719 257.62 32.5679 260.284 31.3079 262.3L30.3239 261.904C31.5359 260.284 32.4239 257.596 32.8199 256.012C32.2079 256.072 31.6319 256.132 31.3199 256.168C31.0439 256.204 30.5639 256.264 30.2519 256.312L30.1559 255.268C30.5279 255.292 30.8399 255.28 31.2119 255.268C31.6079 255.256 32.3039 255.196 33.0239 255.136C33.1919 254.284 33.3239 253.36 33.3239 252.556ZM37.6439 254.32L38.5319 253.936C39.2759 254.896 40.2959 257.08 40.7039 258.184L39.7679 258.628C39.4199 257.404 38.4839 255.316 37.6439 254.32ZM50.3519 254.02C50.6639 254.464 51.0959 255.196 51.3359 255.688L50.6879 255.976C50.4599 255.484 50.0399 254.764 49.7159 254.296L50.3519 254.02ZM51.6719 253.54C52.0079 253.984 52.4639 254.74 52.6919 255.184L52.0439 255.472C51.7799 254.956 51.3959 254.272 51.0479 253.816L51.6719 253.54ZM47.5559 256.096L46.9439 255.52C47.2559 255.328 47.5919 255.076 47.7599 254.932C47.2439 254.512 46.1399 253.924 45.2279 253.552L45.7919 252.844C46.7039 253.228 48.0119 253.876 48.7199 254.404L48.9479 255.028C48.6599 255.268 47.9879 255.784 47.5559 256.096ZM44.7959 262.204L44.6519 261.196C45.2639 261.376 45.8279 261.472 46.5719 261.472C47.1239 261.472 47.7719 261.256 47.7719 260.488C47.7719 259.684 46.8959 258.592 46.2479 257.884C45.9839 257.62 45.6239 257.284 45.2879 256.996L46.0199 256.372C46.3079 256.672 46.6079 256.996 46.8839 257.296C47.9999 258.46 48.7799 259.516 48.7799 260.584C48.7799 262.048 47.5919 262.384 46.7279 262.384C45.9719 262.384 45.3239 262.3 44.7959 262.204ZM52.3919 261.172L51.5039 261.652C51.1679 260.524 50.3279 258.832 49.5119 257.896L50.3159 257.464C51.1319 258.424 52.0199 260.116 52.3919 261.172ZM45.0719 259.336C44.3759 260.056 43.1879 261.064 42.0359 261.748L41.4599 260.944C42.4439 260.416 43.8239 259.36 44.4959 258.616L45.0719 259.336ZM56.2079 252.532L57.2639 252.568C57.0119 253.444 56.7839 255.04 56.7119 255.868C57.1799 254.644 58.4279 253.168 59.9279 253.168C61.5119 253.168 62.6519 254.752 62.6519 257.248C62.6519 260.548 60.5759 262 57.6239 262.54L57.0599 261.676C59.6399 261.28 61.6559 260.248 61.6559 257.26C61.6559 255.388 61.0319 254.044 59.7719 254.044C58.2959 254.044 56.9279 256.192 56.7839 257.752C56.7239 258.208 56.7239 258.616 56.8079 259.204L55.8719 259.276C55.8119 258.832 55.7519 258.16 55.7519 257.392C55.7519 256.264 55.9679 254.512 56.1119 253.552C56.1599 253.18 56.1959 252.82 56.2079 252.532ZM66.2279 262V261.088H68.1839V254.524H66.6239V253.828C67.4039 253.684 67.9679 253.48 68.4479 253.204H69.2879V261.088H71.0519V262H66.2279ZM78.9681 253.252V254.176C78.9681 255.148 78.7281 256.324 77.5281 257.08C77.4201 256.912 77.0961 256.588 76.9281 256.468C77.9961 255.808 78.1401 254.944 78.1401 254.152V252.46H81.6801V255.4C81.6801 255.628 81.6921 255.748 81.7521 255.796C81.8001 255.832 81.8601 255.844 81.9441 255.844H82.2921C82.3881 255.844 82.4961 255.832 82.5441 255.808C82.6041 255.772 82.6521 255.688 82.6761 255.544C82.7121 255.364 82.7241 255.004 82.7361 254.524C82.8801 254.656 83.1801 254.8 83.4081 254.86C83.3841 255.328 83.3481 255.868 83.2881 256.06C83.2161 256.264 83.0961 256.384 82.9281 256.456C82.7961 256.54 82.5561 256.576 82.3641 256.576H81.7521C81.5361 256.576 81.2481 256.516 81.0921 256.36C80.9241 256.216 80.8521 256.012 80.8521 255.352V253.252H78.9681ZM77.3121 260.284L74.0961 260.86V262.9H73.2561V261.016L72.4281 261.16L72.2721 260.296L73.2561 260.14V252.856L73.7361 253.024C74.8041 252.736 75.9201 252.34 76.5681 251.968L77.3361 252.604C76.4481 253.036 75.2241 253.408 74.0961 253.684V255.064H76.8561V255.88H74.0961V257.344H76.9521V258.172H74.0961V259.996C75.0801 259.84 76.1841 259.648 77.2641 259.456L77.3121 260.284ZM81.6441 258.064H78.7401C79.0641 258.892 79.5321 259.636 80.1321 260.26C80.7681 259.648 81.2841 258.928 81.6441 258.064ZM82.2201 257.212L82.7841 257.44C82.3641 258.856 81.6681 259.972 80.7801 260.836C81.5121 261.424 82.3881 261.856 83.4081 262.132C83.1921 262.3 82.9401 262.66 82.8201 262.9C81.7761 262.576 80.8641 262.084 80.1081 261.424C79.1961 262.108 78.1521 262.6 77.0241 262.936C76.9281 262.708 76.7121 262.348 76.5321 262.156C77.6001 261.88 78.6201 261.436 79.4721 260.8C78.8241 260.08 78.3201 259.204 77.9481 258.22L78.5361 258.064H77.4561V257.248H82.0521L82.2201 257.212ZM86.6361 261.16H92.9121V259.192H86.6361V261.16ZM92.9121 256.372H86.6361V258.34H92.9121V256.372ZM92.9121 253.576H86.6361V255.52H92.9121V253.576ZM85.7601 252.712H93.8361V262.852H92.9121V262.036H86.6361V262.852H85.7601V252.712Z" fill="#1E252C"/>
<path d="M271.208 228.364H267.008C268.004 230.416 269.732 232.324 271.616 233.236C271.4 233.416 271.088 233.764 270.956 234.016C269.144 233.02 267.536 231.196 266.456 229.12V232.792H268.736V233.68H266.456V235.912H265.532V233.68H263.192V232.792H265.532V229.12C264.428 231.196 262.808 233.008 261.044 234.028C260.912 233.812 260.612 233.476 260.408 233.308C262.232 232.36 263.972 230.416 264.98 228.364H260.816V227.476H265.532V224.968H266.456V227.476H271.208V228.364ZM277.256 225.196L278.036 225.52C277.688 226.072 277.28 226.672 276.968 227.068L276.368 226.78C276.656 226.36 277.064 225.664 277.256 225.196ZM274.484 226.78L273.776 227.092C273.668 226.672 273.356 226.012 273.032 225.52L273.704 225.244C274.04 225.724 274.364 226.36 274.484 226.78ZM279.74 227.992L279.728 228.028C279.956 229.408 280.292 230.704 280.772 231.82C281.288 230.752 281.612 229.48 281.828 227.992H279.74ZM276.464 232.06H274.784C274.616 232.396 274.436 232.72 274.28 233.032C274.76 233.224 275.24 233.44 275.708 233.668C276.068 233.236 276.308 232.708 276.464 232.06ZM283.472 227.992H282.752C282.452 229.936 281.996 231.52 281.264 232.804C281.864 233.836 282.62 234.652 283.58 235.156C283.376 235.324 283.088 235.672 282.968 235.912C282.044 235.372 281.312 234.604 280.724 233.644C280.016 234.58 279.116 235.348 277.94 235.948C277.868 235.792 277.712 235.528 277.556 235.324L277.28 235.612C276.908 235.312 276.428 234.988 275.876 234.664C275.18 235.24 274.232 235.636 272.948 235.912C272.888 235.672 272.708 235.348 272.54 235.18C273.644 234.988 274.484 234.688 275.096 234.244C274.712 234.052 274.316 233.86 273.92 233.692L273.728 234.028L272.96 233.752C273.224 233.296 273.548 232.684 273.872 232.06H272.516V231.316H274.244C274.424 230.956 274.592 230.608 274.736 230.284L275.048 230.356V228.7C274.448 229.408 273.68 230.068 272.948 230.464C272.84 230.26 272.624 229.948 272.456 229.792C273.308 229.408 274.22 228.664 274.808 227.884H272.588V227.152H275.048V224.956H275.876V227.152H278.312V227.884H275.876V227.944C276.392 228.244 277.688 229.06 278.012 229.3L277.52 229.936C277.208 229.648 276.452 229.072 275.876 228.64V230.428H275.36L275.564 230.476C275.432 230.74 275.3 231.028 275.156 231.316H278.36V232.06H277.316C277.148 232.864 276.872 233.524 276.464 234.064C276.992 234.352 277.472 234.664 277.844 234.94C278.864 234.376 279.656 233.656 280.244 232.756C279.788 231.784 279.44 230.668 279.164 229.444C278.912 230.008 278.612 230.512 278.288 230.944C278.156 230.776 277.772 230.476 277.568 230.332C278.576 229.072 279.2 227.068 279.524 224.956L280.436 225.088C280.316 225.796 280.16 226.492 279.992 227.152H283.472V227.992Z" fill="#CE2C3F"/>
<path d="M271.136 246.712L270.596 247.504C269.96 246.964 268.676 246.232 267.884 245.872L268.352 245.128C269.216 245.512 270.572 246.28 271.136 246.712ZM266.816 244.912L266.84 245.8C266.216 245.98 265.472 246.136 264.692 246.232C264.104 247.912 263.048 249.976 262.1 251.26L261.164 250.78C262.16 249.628 263.168 247.732 263.708 246.34C263.36 246.364 263.012 246.376 262.664 246.376C262.22 246.376 261.728 246.364 261.284 246.34L261.212 245.44C261.656 245.5 262.16 245.524 262.676 245.524C263.096 245.524 263.54 245.5 263.996 245.464C264.176 244.804 264.344 244.048 264.368 243.412L265.436 243.508C265.316 243.94 265.16 244.66 264.968 245.344C265.592 245.248 266.216 245.104 266.816 244.912ZM267.44 251.548C267.44 251.392 267.44 251.2 267.428 250.984C267.056 250.876 266.648 250.816 266.228 250.816C265.352 250.816 264.776 251.212 264.776 251.752C264.776 252.304 265.22 252.676 266.144 252.676C267.116 252.676 267.44 252.136 267.44 251.548ZM267.272 247.18H268.232C268.196 247.672 268.208 248.02 268.22 248.464C268.232 248.896 268.28 249.676 268.304 250.396C269.324 250.768 270.152 251.356 270.764 251.884L270.248 252.7C269.744 252.244 269.108 251.716 268.34 251.344C268.352 251.524 268.352 251.692 268.352 251.824C268.352 252.772 267.728 253.552 266.264 253.552C264.956 253.552 263.888 253.012 263.888 251.836C263.888 250.744 264.92 250.036 266.264 250.036C266.66 250.036 267.044 250.072 267.392 250.144C267.356 249.172 267.296 248.008 267.272 247.18ZM275.792 244.54L276.044 243.628C277.064 243.952 279.584 244.444 280.64 244.54L280.412 245.476C279.284 245.32 276.704 244.792 275.792 244.54ZM275.78 245.788C275.624 246.604 275.42 248.332 275.312 249.1C276.452 248.104 277.736 247.672 279.152 247.672C280.976 247.672 282.188 248.764 282.188 250.156C282.188 252.292 280.304 253.732 275.888 253.36L275.6 252.376C279.344 252.832 281.18 251.752 281.18 250.132C281.18 249.184 280.304 248.524 279.092 248.524C277.508 248.524 276.26 249.1 275.42 250.096C275.252 250.3 275.144 250.504 275.06 250.696L274.16 250.48C274.4 249.4 274.688 246.904 274.76 245.656L275.78 245.788ZM294.452 245.32L293.828 245.56C293.6 245.02 293.288 244.3 293.024 243.844L293.624 243.64C293.864 244.084 294.248 244.828 294.452 245.32ZM291.62 244.624L292.544 244.336C292.844 245.776 293.552 247.72 295.076 249.244L294.368 249.988C293.828 249.328 293.348 248.608 292.904 247.768C293.156 250.768 291.908 253.732 288.824 253.732C286.916 253.732 285.74 252.496 285.74 250.588C285.74 248.548 286.904 246.64 287.876 245.632C287.276 245.728 286.388 245.872 285.92 245.968C285.716 246.004 285.5 246.052 285.26 246.1L285.116 245.092C285.296 245.092 285.536 245.08 285.752 245.056C286.784 244.972 288.872 244.636 289.568 244.372L289.856 245.236C289.7 245.296 289.4 245.368 289.232 245.452C288.476 246.016 286.676 248.26 286.676 250.456C286.676 252.088 287.708 252.736 288.86 252.736C291.332 252.736 292.736 249.868 291.908 245.488C291.812 245.212 291.716 244.924 291.62 244.624ZM294.26 243.4L294.848 243.172C295.112 243.616 295.472 244.348 295.7 244.852L295.076 245.08C294.848 244.54 294.536 243.844 294.26 243.4ZM307.208 246.364H303.008C304.004 248.416 305.732 250.324 307.616 251.236C307.4 251.416 307.088 251.764 306.956 252.016C305.144 251.02 303.536 249.196 302.456 247.12V250.792H304.736V251.68H302.456V253.912H301.532V251.68H299.192V250.792H301.532V247.12C300.428 249.196 298.808 251.008 297.044 252.028C296.912 251.812 296.612 251.476 296.408 251.308C298.232 250.36 299.972 248.416 300.98 246.364H296.816V245.476H301.532V242.968H302.456V245.476H307.208V246.364ZM313.256 243.196L314.036 243.52C313.688 244.072 313.28 244.672 312.968 245.068L312.368 244.78C312.656 244.36 313.064 243.664 313.256 243.196ZM310.484 244.78L309.776 245.092C309.668 244.672 309.356 244.012 309.032 243.52L309.704 243.244C310.04 243.724 310.364 244.36 310.484 244.78ZM315.74 245.992L315.728 246.028C315.956 247.408 316.292 248.704 316.772 249.82C317.288 248.752 317.612 247.48 317.828 245.992H315.74ZM312.464 250.06H310.784C310.616 250.396 310.436 250.72 310.28 251.032C310.76 251.224 311.24 251.44 311.708 251.668C312.068 251.236 312.308 250.708 312.464 250.06ZM319.472 245.992H318.752C318.452 247.936 317.996 249.52 317.264 250.804C317.864 251.836 318.62 252.652 319.58 253.156C319.376 253.324 319.088 253.672 318.968 253.912C318.044 253.372 317.312 252.604 316.724 251.644C316.016 252.58 315.116 253.348 313.94 253.948C313.868 253.792 313.712 253.528 313.556 253.324L313.28 253.612C312.908 253.312 312.428 252.988 311.876 252.664C311.18 253.24 310.232 253.636 308.948 253.912C308.888 253.672 308.708 253.348 308.54 253.18C309.644 252.988 310.484 252.688 311.096 252.244C310.712 252.052 310.316 251.86 309.92 251.692L309.728 252.028L308.96 251.752C309.224 251.296 309.548 250.684 309.872 250.06H308.516V249.316H310.244C310.424 248.956 310.592 248.608 310.736 248.284L311.048 248.356V246.7C310.448 247.408 309.68 248.068 308.948 248.464C308.84 248.26 308.624 247.948 308.456 247.792C309.308 247.408 310.22 246.664 310.808 245.884H308.588V245.152H311.048V242.956H311.876V245.152H314.312V245.884H311.876V245.944C312.392 246.244 313.688 247.06 314.012 247.3L313.52 247.936C313.208 247.648 312.452 247.072 311.876 246.64V248.428H311.36L311.564 248.476C311.432 248.74 311.3 249.028 311.156 249.316H314.36V250.06H313.316C313.148 250.864 312.872 251.524 312.464 252.064C312.992 252.352 313.472 252.664 313.844 252.94C314.864 252.376 315.656 251.656 316.244 250.756C315.788 249.784 315.44 248.668 315.164 247.444C314.912 248.008 314.612 248.512 314.288 248.944C314.156 248.776 313.772 248.476 313.568 248.332C314.576 247.072 315.2 245.068 315.524 242.956L316.436 243.088C316.316 243.796 316.16 244.492 315.992 245.152H319.472V245.992Z" fill="#2C59CE"/>
<line y1="-0.229586" x2="16.071" y2="-0.229586" transform="matrix(1 0 0 -1 101.204 266.857)" stroke="#1E252C" stroke-width="0.459172"/>
<line x1="103.77" y1="267" x2="103.77" y2="229" stroke="#1E252C" stroke-width="0.459172"/>
<line y1="-0.229586" x2="39.948" y2="-0.229586" transform="matrix(1 0 0 -1 101 249)" stroke="#1E252C" stroke-width="0.459172"/>
<line x1="101" y1="228.77" x2="162" y2="228.77" stroke="#1E252C" stroke-width="0.459172"/>
<line y1="-0.229586" x2="16" y2="-0.229586" transform="matrix(6.84436e-08 1 1 -2.79162e-08 152 263)" stroke="#1E252C" stroke-width="0.459172"/>
<line y1="-0.229586" x2="16" y2="-0.229586" transform="matrix(6.84436e-08 1 1 -2.79162e-08 181 263)" stroke="#1E252C" stroke-width="0.459172"/>
<line y1="-0.229586" x2="28.9279" y2="-0.229586" transform="matrix(1 -8.74228e-08 -8.74228e-08 -1 152 274)" stroke="#1E252C" stroke-width="0.459172"/>
<path d="M158.596 283.168H156.004V284.164H158.596V283.168ZM156.004 285.88H158.596V284.824H156.004V285.88ZM159.448 286.564H156.004V292.924H155.116V282.472H159.448V286.564ZM161.38 288.148H158.56V289.264H161.38V288.148ZM158.56 291.1H161.38V289.936H158.56V291.1ZM162.208 291.808H158.56V292.408H157.756V287.464H162.208V291.808ZM161.368 285.892H164.056V284.824H161.368V285.892ZM164.056 283.168H161.368V284.164H164.056V283.168ZM164.956 282.472V291.736C164.956 292.3 164.824 292.6 164.428 292.756C164.044 292.9 163.408 292.912 162.412 292.912C162.376 292.66 162.232 292.24 162.1 292C162.832 292.036 163.564 292.024 163.78 292.012C163.984 292.012 164.056 291.94 164.056 291.724V286.576H160.516V282.472H164.956ZM169.672 282.436L170.248 282.784C169.936 283.768 169.504 284.992 169.144 285.952C169.948 286.924 170.128 287.788 170.128 288.532C170.14 289.156 169.996 289.66 169.684 289.888C169.528 290.008 169.336 290.068 169.096 290.104C168.88 290.128 168.616 290.14 168.364 290.128C168.352 289.9 168.28 289.576 168.16 289.348C168.388 289.372 168.616 289.372 168.772 289.36C168.916 289.36 169.036 289.324 169.132 289.264C169.3 289.132 169.348 288.796 169.348 288.436C169.348 287.788 169.156 286.984 168.352 286.048C168.676 285.172 169 284.104 169.24 283.288H167.776V292.912H166.996V282.472H169.54L169.672 282.436ZM175.648 290.764H174.184V292.672H173.464V290.764H172.096V290.116H175.648V290.764ZM176.32 288.928L176.332 288.94V287.968H174.832V288.76C174.832 288.952 174.868 288.964 175.144 288.964H176.068C176.248 288.964 176.296 288.964 176.32 288.928ZM177.16 287.248V292C177.16 292.408 177.076 292.624 176.8 292.768C176.512 292.888 176.08 292.888 175.408 292.888C175.384 292.684 175.252 292.36 175.156 292.156C175.624 292.168 176.032 292.168 176.164 292.156C176.296 292.156 176.332 292.12 176.332 292V289.528C176.284 289.54 176.236 289.54 176.176 289.54H175.084C174.412 289.54 174.244 289.384 174.244 288.76V287.968H173.38C173.248 288.94 172.828 289.54 171.76 289.864C171.7 289.732 171.52 289.504 171.4 289.396C172.288 289.144 172.636 288.724 172.768 287.968H171.352V292.912H170.536V287.248H177.16ZM175.6 285.892V284.656H172.156V285.892H175.6ZM176.476 284.02V286.54H171.304V284.02H176.476ZM170.632 282.604H177.208V283.36H170.632V282.604Z" fill="#1E252C"/>
<rect x="137.5" y="218.5" width="117" height="43" stroke="#CE2C3F" stroke-dasharray="0.92 0.92"/>
<rect x="141.5" y="239.5" width="107" height="18" stroke="#2C59CE" stroke-dasharray="0.92 0.92"/>
<rect x="181" y="299" width="33" height="19" fill="#496071"/>
<path d="M196.13 305.17H191.174V307.198L191.378 306.958C192.746 307.618 194.63 308.686 195.554 309.406L194.738 310.426C193.97 309.778 192.47 308.842 191.174 308.122V314.158H189.986V305.17H185.534V304.03H196.13V305.17ZM203.222 306.058V304.774H201.698V306.058H203.222ZM203.222 308.206V306.922H201.698V308.206H203.222ZM203.222 310.366V309.058H201.698V310.366H203.222ZM204.206 303.874V311.266H200.762V303.874H204.206ZM199.55 303.214L200.582 303.502C200.318 304.294 200.006 305.098 199.646 305.866V314.17H198.59V307.81C198.278 308.302 197.966 308.746 197.63 309.13C197.534 308.854 197.246 308.23 197.078 307.954C198.074 306.79 198.998 305.014 199.55 303.214ZM201.398 311.422L202.334 311.902C201.938 312.658 201.302 313.582 200.762 314.122C200.57 313.942 200.198 313.654 199.958 313.498C200.522 312.994 201.11 312.094 201.398 311.422ZM202.754 311.854L203.558 311.422C203.966 312.034 204.422 312.85 204.614 313.366L203.762 313.882C203.594 313.354 203.138 312.49 202.754 311.854ZM205.994 304.426V311.47H205.01V304.426H205.994ZM206.978 303.334H207.998V312.886C207.998 313.486 207.866 313.798 207.53 313.966C207.194 314.146 206.642 314.182 205.79 314.182C205.754 313.894 205.622 313.426 205.466 313.114C206.054 313.138 206.582 313.138 206.75 313.138C206.918 313.126 206.978 313.078 206.978 312.898V303.334Z" fill="white"/>
</svg>
