<svg width="360" height="328" viewBox="0 0 360 328" fill="none" xmlns="http://www.w3.org/2000/svg">
<rect x="255.626" y="102.549" width="119.018" height="141.058" transform="rotate(90 255.626 102.549)" fill="#D9D9D9"/>
<path d="M114.669 102.701C114.669 83.9532 122.116 65.9737 135.372 52.7174C148.629 39.461 166.608 32.0137 185.356 32.0137C204.103 32.0137 222.082 39.461 235.339 52.7174C248.595 65.9737 256.042 83.9532 256.042 102.701L185.356 102.701L114.669 102.701Z" fill="#D9D9D9"/>
<path d="M131.805 103.129C131.805 89.4949 137.221 76.4189 146.862 66.7779C156.503 57.137 169.579 51.7207 183.214 51.7207C196.848 51.7207 209.924 57.137 219.565 66.7779C229.206 76.4189 235.051 89.4949 235.051 103.129" stroke="black" stroke-width="0.428405" stroke-dasharray="1.71 1.71"/>
<path d="M148.941 103.13C148.941 94.2681 152.537 85.7687 158.938 79.5021C165.338 73.2354 174.019 69.7148 183.071 69.7148C192.123 69.7148 200.804 73.2354 207.205 79.5021C213.606 85.7687 217.486 94.2681 217.486 103.13" stroke="black" stroke-width="0.428405" stroke-dasharray="1.71 1.71"/>
<line x1="234.901" y1="102.549" x2="234.901" y2="221.567" stroke="black" stroke-width="0.428405" stroke-dasharray="1.71 1.71"/>
<line x1="132.414" y1="102.549" x2="132.414" y2="221.567" stroke="black" stroke-width="0.428405" stroke-dasharray="1.71 1.71"/>
<circle cx="154.939" cy="60.2886" r="3.42724" transform="rotate(90 154.939 60.2886)" fill="#1E252C"/>
<circle cx="212.345" cy="60.2886" r="3.42724" transform="rotate(90 212.345 60.2886)" fill="#1E252C"/>
<circle cx="136.946" cy="81.7104" r="3.42724" transform="rotate(90 136.946 81.7104)" fill="#1E252C"/>
<circle cx="230.339" cy="81.7104" r="3.42724" transform="rotate(90 230.339 81.7104)" fill="#1E252C"/>
<circle cx="183.214" cy="51.7202" r="3.42724" transform="rotate(90 183.214 51.7202)" fill="#1E252C"/>
<circle cx="183.214" cy="69.7144" r="3.42724" transform="rotate(90 183.214 69.7144)" fill="#1E252C"/>
<circle cx="155.796" cy="83.4233" r="3.42724" transform="rotate(90 155.796 83.4233)" fill="#1E252C"/>
<circle cx="210.632" cy="83.4233" r="3.42724" transform="rotate(90 210.632 83.4233)" fill="#1E252C"/>
<circle cx="131.805" cy="111.699" r="3.42724" transform="rotate(90 131.805 111.699)" fill="white"/>
<circle cx="131.805" cy="209.646" r="3.42724" transform="rotate(90 131.805 209.646)" fill="white"/>
<circle cx="131.805" cy="160.671" r="3.42724" transform="rotate(90 131.805 160.671)" fill="white"/>
<circle cx="131.805" cy="136.185" r="3.42724" transform="rotate(90 131.805 136.185)" fill="white"/>
<circle cx="131.805" cy="185.158" r="3.42724" transform="rotate(90 131.805 185.158)" fill="white"/>
<circle cx="234.808" cy="111.486" r="3.42724" transform="rotate(90 234.808 111.486)" fill="white"/>
<circle cx="234.808" cy="209.433" r="3.42724" transform="rotate(90 234.808 209.433)" fill="white"/>
<circle cx="234.808" cy="160.46" r="3.42724" transform="rotate(90 234.808 160.46)" fill="white"/>
<circle cx="234.808" cy="135.974" r="3.42724" transform="rotate(90 234.808 135.974)" fill="white"/>
<circle cx="234.808" cy="184.947" r="3.42724" transform="rotate(90 234.808 184.947)" fill="white"/>
<line x1="108.671" y1="102.701" x2="261.184" y2="102.701" stroke="black" stroke-width="0.856811" stroke-dasharray="1.71 1.71"/>
<line x1="108.671" y1="220.572" x2="261.184" y2="220.572" stroke="black" stroke-width="0.856811" stroke-dasharray="1.71 1.71"/>
<line x1="184.927" y1="31.7382" x2="274.036" y2="31.7382" stroke="black" stroke-width="0.551008"/>
<line x1="188.355" y1="51.4452" x2="274.036" y2="51.4452" stroke="black" stroke-width="0.551008"/>
<line x1="188.355" y1="70.2948" x2="274.036" y2="70.2948" stroke="black" stroke-width="0.551008"/>
<line x1="267.457" y1="32.0137" x2="267.457" y2="69.7133" stroke="black" stroke-width="0.551008"/>
<path d="M279.606 43.7915L278.802 43.3115C279.618 42.4595 280.062 41.0315 280.29 39.7355L281.13 39.9515C280.878 41.3075 280.458 42.8555 279.606 43.7915ZM282.798 37.7075H281.91V36.3995H279.186V35.5355H281.91V33.9755H282.798V35.5355H285.954V33.9755H286.842V35.5355H289.578V36.3995H286.842V37.7075H285.954V36.3995H282.798V37.7075ZM282.846 38.0915L283.47 37.5755C284.466 38.1035 285.63 38.9435 286.182 39.5915L285.51 40.1795C284.994 39.5315 283.842 38.6555 282.846 38.0915ZM283.65 43.8275H285.834C286.422 43.8275 286.506 43.5635 286.578 41.9915C286.782 42.1355 287.166 42.2915 287.418 42.3515C287.298 44.1995 287.022 44.6795 285.87 44.6795H283.59C282.342 44.6795 282.018 44.3915 282.018 43.3235V39.2555H282.906V43.3235C282.906 43.7315 283.014 43.8275 283.65 43.8275ZM287.07 39.8315L287.85 39.4835C288.75 40.5875 289.662 42.0755 289.986 43.0835L289.146 43.4915C288.834 42.4835 287.946 40.9595 287.07 39.8315ZM295.218 40.9475L294.69 41.5475C294.462 41.1755 293.946 40.4795 293.502 39.9155V44.9435H292.65V40.3115C292.17 40.8155 291.666 41.2595 291.186 41.6195C291.102 41.3915 290.874 40.9835 290.742 40.8275C291.978 39.9995 293.298 38.5235 294.042 36.9995H291.006V36.1955H292.626V34.0235H293.466V36.1955H294.474L294.63 36.1595L295.11 36.4835C294.762 37.3955 294.246 38.2955 293.658 39.0995C293.766 39.2315 293.91 39.3875 294.054 39.5675C294.354 39.1835 294.69 38.6795 294.894 38.3315L295.434 38.7275C295.11 39.1715 294.75 39.6515 294.438 40.0115C294.774 40.4075 295.098 40.7915 295.218 40.9475ZM300.306 39.4715H297.426C297.762 40.4675 298.242 41.3675 298.866 42.1115C299.49 41.3795 299.982 40.4915 300.306 39.4715ZM298.266 36.6395H296.526V38.6795H298.266V36.6395ZM300.786 38.6435L301.362 38.8595C301.002 40.4555 300.33 41.7395 299.466 42.7475C300.174 43.3955 301.002 43.8875 301.974 44.1995C301.782 44.3675 301.518 44.7275 301.374 44.9675C300.402 44.6075 299.562 44.0675 298.854 43.3835C298.122 44.0675 297.294 44.5715 296.406 44.9435C296.298 44.7275 296.07 44.3795 295.89 44.2115C296.742 43.8995 297.558 43.4075 298.278 42.7475C297.534 41.8355 296.982 40.7315 296.598 39.4715H296.514C296.454 41.2235 296.142 43.4075 295.026 44.9435C294.882 44.7995 294.522 44.5715 294.318 44.4755C295.542 42.7955 295.674 40.4195 295.674 38.7035V35.8355H298.266V33.9875H299.118V35.8355H301.086L301.23 35.7995L301.854 35.9435C301.65 36.7595 301.374 37.7315 301.122 38.3195L300.354 38.1515C300.51 37.7555 300.678 37.1915 300.798 36.6395H299.118V38.6795H300.642L300.786 38.6435ZM305.418 34.5515L306.474 34.5875C306.222 35.4635 305.994 37.0595 305.922 37.8875C306.39 36.6635 307.638 35.1875 309.138 35.1875C310.722 35.1875 311.862 36.7715 311.862 39.2675C311.862 42.5675 309.786 44.0195 306.834 44.5595L306.27 43.6955C308.85 43.2995 310.866 42.2675 310.866 39.2795C310.866 37.4075 310.242 36.0635 308.982 36.0635C307.506 36.0635 306.138 38.2115 305.994 39.7715C305.934 40.2275 305.934 40.6355 306.018 41.2235L305.082 41.2955C305.022 40.8515 304.962 40.1795 304.962 39.4115C304.962 38.2835 305.178 36.5315 305.322 35.5715C305.37 35.1995 305.406 34.8395 305.418 34.5515ZM318.354 35.2923V44.0195H317.297V36.4002H317.246L315.115 37.815V36.7411L317.297 35.2923H318.354ZM327.1 35.2715V36.1955C327.1 37.1675 326.86 38.3435 325.66 39.0995C325.552 38.9315 325.228 38.6075 325.06 38.4875C326.128 37.8275 326.272 36.9635 326.272 36.1715V34.4795H329.812V37.4195C329.812 37.6475 329.824 37.7675 329.884 37.8155C329.932 37.8515 329.992 37.8635 330.076 37.8635H330.424C330.52 37.8635 330.628 37.8515 330.676 37.8275C330.736 37.7915 330.784 37.7075 330.808 37.5635C330.844 37.3835 330.856 37.0235 330.868 36.5435C331.012 36.6755 331.312 36.8195 331.54 36.8795C331.516 37.3475 331.48 37.8875 331.42 38.0795C331.348 38.2835 331.228 38.4035 331.06 38.4755C330.928 38.5595 330.688 38.5955 330.496 38.5955H329.884C329.668 38.5955 329.38 38.5355 329.224 38.3795C329.056 38.2355 328.984 38.0315 328.984 37.3715V35.2715H327.1ZM325.444 42.3035L322.228 42.8795V44.9195H321.388V43.0355L320.56 43.1795L320.404 42.3155L321.388 42.1595V34.8755L321.868 35.0435C322.936 34.7555 324.052 34.3595 324.7 33.9875L325.468 34.6235C324.58 35.0555 323.356 35.4275 322.228 35.7035V37.0835H324.988V37.8995H322.228V39.3635H325.084V40.1915H322.228V42.0155C323.212 41.8595 324.316 41.6675 325.396 41.4755L325.444 42.3035ZM329.776 40.0835H326.872C327.196 40.9115 327.664 41.6555 328.264 42.2795C328.9 41.6675 329.416 40.9475 329.776 40.0835ZM330.352 39.2315L330.916 39.4595C330.496 40.8755 329.8 41.9915 328.912 42.8555C329.644 43.4435 330.52 43.8755 331.54 44.1515C331.324 44.3195 331.072 44.6795 330.952 44.9195C329.908 44.5955 328.996 44.1035 328.24 43.4435C327.328 44.1275 326.284 44.6195 325.156 44.9555C325.06 44.7275 324.844 44.3675 324.664 44.1755C325.732 43.8995 326.752 43.4555 327.604 42.8195C326.956 42.0995 326.452 41.2235 326.08 40.2395L326.668 40.0835H325.588V39.2675H330.184L330.352 39.2315ZM334.768 43.1795H341.044V41.2115H334.768V43.1795ZM341.044 38.3915H334.768V40.3595H341.044V38.3915ZM341.044 35.5955H334.768V37.5395H341.044V35.5955ZM333.892 34.7315H341.968V44.8715H341.044V44.0555H334.768V44.8715H333.892V34.7315Z" fill="black"/>
<path d="M279.606 286.235L278.802 285.755C279.618 284.903 280.062 283.475 280.29 282.179L281.13 282.395C280.878 283.751 280.458 285.299 279.606 286.235ZM282.798 280.151H281.91V278.843H279.186V277.979H281.91V276.419H282.798V277.979H285.954V276.419H286.842V277.979H289.578V278.843H286.842V280.151H285.954V278.843H282.798V280.151ZM282.846 280.535L283.47 280.019C284.466 280.547 285.63 281.387 286.182 282.035L285.51 282.623C284.994 281.975 283.842 281.099 282.846 280.535ZM283.65 286.271H285.834C286.422 286.271 286.506 286.007 286.578 284.435C286.782 284.579 287.166 284.735 287.418 284.795C287.298 286.643 287.022 287.123 285.87 287.123H283.59C282.342 287.123 282.018 286.835 282.018 285.767V281.699H282.906V285.767C282.906 286.175 283.014 286.271 283.65 286.271ZM287.07 282.275L287.85 281.927C288.75 283.031 289.662 284.519 289.986 285.527L289.146 285.935C288.834 284.927 287.946 283.403 287.07 282.275ZM295.218 283.391L294.69 283.991C294.462 283.619 293.946 282.923 293.502 282.359V287.387H292.65V282.755C292.17 283.259 291.666 283.703 291.186 284.063C291.102 283.835 290.874 283.427 290.742 283.271C291.978 282.443 293.298 280.967 294.042 279.443H291.006V278.639H292.626V276.467H293.466V278.639H294.474L294.63 278.603L295.11 278.927C294.762 279.839 294.246 280.739 293.658 281.543C293.766 281.675 293.91 281.831 294.054 282.011C294.354 281.627 294.69 281.123 294.894 280.775L295.434 281.171C295.11 281.615 294.75 282.095 294.438 282.455C294.774 282.851 295.098 283.235 295.218 283.391ZM300.306 281.915H297.426C297.762 282.911 298.242 283.811 298.866 284.555C299.49 283.823 299.982 282.935 300.306 281.915ZM298.266 279.083H296.526V281.123H298.266V279.083ZM300.786 281.087L301.362 281.303C301.002 282.899 300.33 284.183 299.466 285.191C300.174 285.839 301.002 286.331 301.974 286.643C301.782 286.811 301.518 287.171 301.374 287.411C300.402 287.051 299.562 286.511 298.854 285.827C298.122 286.511 297.294 287.015 296.406 287.387C296.298 287.171 296.07 286.823 295.89 286.655C296.742 286.343 297.558 285.851 298.278 285.191C297.534 284.279 296.982 283.175 296.598 281.915H296.514C296.454 283.667 296.142 285.851 295.026 287.387C294.882 287.243 294.522 287.015 294.318 286.919C295.542 285.239 295.674 282.863 295.674 281.147V278.279H298.266V276.431H299.118V278.279H301.086L301.23 278.243L301.854 278.387C301.65 279.203 301.374 280.175 301.122 280.763L300.354 280.595C300.51 280.199 300.678 279.635 300.798 279.083H299.118V281.123H300.642L300.786 281.087ZM305.418 276.995L306.474 277.031C306.222 277.907 305.994 279.503 305.922 280.331C306.39 279.107 307.638 277.631 309.138 277.631C310.722 277.631 311.862 279.215 311.862 281.711C311.862 285.011 309.786 286.463 306.834 287.003L306.27 286.139C308.85 285.743 310.866 284.711 310.866 281.723C310.866 279.851 310.242 278.507 308.982 278.507C307.506 278.507 306.138 280.655 305.994 282.215C305.934 282.671 305.934 283.079 306.018 283.667L305.082 283.739C305.022 283.295 304.962 282.623 304.962 281.855C304.962 280.727 305.178 278.975 305.322 278.015C305.37 277.643 305.406 277.283 305.418 276.995ZM318.354 277.736V286.463H317.297V278.844H317.246L315.115 280.258V279.184L317.297 277.736H318.354ZM327.1 277.715V278.639C327.1 279.611 326.86 280.787 325.66 281.543C325.552 281.375 325.228 281.051 325.06 280.931C326.128 280.271 326.272 279.407 326.272 278.615V276.923H329.812V279.863C329.812 280.091 329.824 280.211 329.884 280.259C329.932 280.295 329.992 280.307 330.076 280.307H330.424C330.52 280.307 330.628 280.295 330.676 280.271C330.736 280.235 330.784 280.151 330.808 280.007C330.844 279.827 330.856 279.467 330.868 278.987C331.012 279.119 331.312 279.263 331.54 279.323C331.516 279.791 331.48 280.331 331.42 280.523C331.348 280.727 331.228 280.847 331.06 280.919C330.928 281.003 330.688 281.039 330.496 281.039H329.884C329.668 281.039 329.38 280.979 329.224 280.823C329.056 280.679 328.984 280.475 328.984 279.815V277.715H327.1ZM325.444 284.747L322.228 285.323V287.363H321.388V285.479L320.56 285.623L320.404 284.759L321.388 284.603V277.319L321.868 277.487C322.936 277.199 324.052 276.803 324.7 276.431L325.468 277.067C324.58 277.499 323.356 277.871 322.228 278.147V279.527H324.988V280.343H322.228V281.807H325.084V282.635H322.228V284.459C323.212 284.303 324.316 284.111 325.396 283.919L325.444 284.747ZM329.776 282.527H326.872C327.196 283.355 327.664 284.099 328.264 284.723C328.9 284.111 329.416 283.391 329.776 282.527ZM330.352 281.675L330.916 281.903C330.496 283.319 329.8 284.435 328.912 285.299C329.644 285.887 330.52 286.319 331.54 286.595C331.324 286.763 331.072 287.123 330.952 287.363C329.908 287.039 328.996 286.547 328.24 285.887C327.328 286.571 326.284 287.063 325.156 287.399C325.06 287.171 324.844 286.811 324.664 286.619C325.732 286.343 326.752 285.899 327.604 285.263C326.956 284.543 326.452 283.667 326.08 282.683L326.668 282.527H325.588V281.711H330.184L330.352 281.675ZM334.768 285.623H341.044V283.655H334.768V285.623ZM341.044 280.835H334.768V282.803H341.044V280.835ZM341.044 278.039H334.768V279.983H341.044V278.039ZM333.892 277.175H341.968V287.315H341.044V286.499H334.768V287.315H333.892V277.175Z" fill="black"/>
<path d="M285.522 56.211V57.135C285.522 58.107 285.282 59.283 284.082 60.039C283.974 59.871 283.65 59.547 283.482 59.427C284.55 58.767 284.694 57.903 284.694 57.111V55.419H288.234V58.359C288.234 58.587 288.246 58.707 288.306 58.755C288.354 58.791 288.414 58.803 288.498 58.803H288.846C288.942 58.803 289.05 58.791 289.098 58.767C289.158 58.731 289.206 58.647 289.23 58.503C289.266 58.323 289.278 57.963 289.29 57.483C289.434 57.615 289.734 57.759 289.962 57.819C289.938 58.287 289.902 58.827 289.842 59.019C289.77 59.223 289.65 59.343 289.482 59.415C289.35 59.499 289.11 59.535 288.918 59.535H288.306C288.09 59.535 287.802 59.475 287.646 59.319C287.478 59.175 287.406 58.971 287.406 58.311V56.211H285.522ZM283.866 63.243L280.65 63.819V65.859H279.81V63.975L278.982 64.119L278.826 63.255L279.81 63.099V55.815L280.29 55.983C281.358 55.695 282.474 55.299 283.122 54.927L283.89 55.563C283.002 55.995 281.778 56.367 280.65 56.643V58.023H283.41V58.839H280.65V60.303H283.506V61.131H280.65V62.955C281.634 62.799 282.738 62.607 283.818 62.415L283.866 63.243ZM288.198 61.023H285.294C285.618 61.851 286.086 62.595 286.686 63.219C287.322 62.607 287.838 61.887 288.198 61.023ZM288.774 60.171L289.338 60.399C288.918 61.815 288.222 62.931 287.334 63.795C288.066 64.383 288.942 64.815 289.962 65.091C289.746 65.259 289.494 65.619 289.374 65.859C288.33 65.535 287.418 65.043 286.662 64.383C285.75 65.067 284.706 65.559 283.578 65.895C283.482 65.667 283.266 65.307 283.086 65.115C284.154 64.839 285.174 64.395 286.026 63.759C285.378 63.039 284.874 62.163 284.502 61.179L285.09 61.023H284.01V60.207H288.606L288.774 60.171ZM294.978 56.127H292.386V57.123H294.978V56.127ZM292.386 58.839H294.978V57.783H292.386V58.839ZM295.83 59.523H292.386V65.883H291.498V55.431H295.83V59.523ZM297.762 61.107H294.942V62.223H297.762V61.107ZM294.942 64.059H297.762V62.895H294.942V64.059ZM298.59 64.767H294.942V65.367H294.138V60.423H298.59V64.767ZM297.75 58.851H300.438V57.783H297.75V58.851ZM300.438 56.127H297.75V57.123H300.438V56.127ZM301.338 55.431V64.695C301.338 65.259 301.206 65.559 300.81 65.715C300.426 65.859 299.79 65.871 298.794 65.871C298.758 65.619 298.614 65.199 298.482 64.959C299.214 64.995 299.946 64.983 300.162 64.971C300.366 64.971 300.438 64.899 300.438 64.683V59.535H296.898V55.431H301.338ZM306.054 55.395L306.63 55.743C306.318 56.727 305.886 57.951 305.526 58.911C306.33 59.883 306.51 60.747 306.51 61.491C306.522 62.115 306.378 62.619 306.066 62.847C305.91 62.967 305.718 63.027 305.478 63.063C305.262 63.087 304.998 63.099 304.746 63.087C304.734 62.859 304.662 62.535 304.542 62.307C304.77 62.331 304.998 62.331 305.154 62.319C305.298 62.319 305.418 62.283 305.514 62.223C305.682 62.091 305.73 61.755 305.73 61.395C305.73 60.747 305.538 59.943 304.734 59.007C305.058 58.131 305.382 57.063 305.622 56.247H304.158V65.871H303.378V55.431H305.922L306.054 55.395ZM312.03 63.723H310.566V65.631H309.846V63.723H308.478V63.075H312.03V63.723ZM312.702 61.887L312.714 61.899V60.927H311.214V61.719C311.214 61.911 311.25 61.923 311.526 61.923H312.45C312.63 61.923 312.678 61.923 312.702 61.887ZM313.542 60.207V64.959C313.542 65.367 313.458 65.583 313.182 65.727C312.894 65.847 312.462 65.847 311.79 65.847C311.766 65.643 311.634 65.319 311.538 65.115C312.006 65.127 312.414 65.127 312.546 65.115C312.678 65.115 312.714 65.079 312.714 64.959V62.487C312.666 62.499 312.618 62.499 312.558 62.499H311.466C310.794 62.499 310.626 62.343 310.626 61.719V60.927H309.762C309.63 61.899 309.21 62.499 308.142 62.823C308.082 62.691 307.902 62.463 307.782 62.355C308.67 62.103 309.018 61.683 309.15 60.927H307.734V65.871H306.918V60.207H313.542ZM311.982 58.851V57.615H308.538V58.851H311.982ZM312.858 56.979V59.499H307.686V56.979H312.858ZM307.014 55.563H313.59V56.319H307.014V55.563Z" fill="black"/>
<path d="M285.522 257.879V258.803C285.522 259.775 285.282 260.951 284.082 261.707C283.974 261.539 283.65 261.215 283.482 261.095C284.55 260.435 284.694 259.571 284.694 258.779V257.087H288.234V260.027C288.234 260.255 288.246 260.375 288.306 260.423C288.354 260.459 288.414 260.471 288.498 260.471H288.846C288.942 260.471 289.05 260.459 289.098 260.435C289.158 260.399 289.206 260.315 289.23 260.171C289.266 259.991 289.278 259.631 289.29 259.151C289.434 259.283 289.734 259.427 289.962 259.487C289.938 259.955 289.902 260.495 289.842 260.687C289.77 260.891 289.65 261.011 289.482 261.083C289.35 261.167 289.11 261.203 288.918 261.203H288.306C288.09 261.203 287.802 261.143 287.646 260.987C287.478 260.843 287.406 260.639 287.406 259.979V257.879H285.522ZM283.866 264.911L280.65 265.487V267.527H279.81V265.643L278.982 265.787L278.826 264.923L279.81 264.767V257.483L280.29 257.651C281.358 257.363 282.474 256.967 283.122 256.595L283.89 257.231C283.002 257.663 281.778 258.035 280.65 258.311V259.691H283.41V260.507H280.65V261.971H283.506V262.799H280.65V264.623C281.634 264.467 282.738 264.275 283.818 264.083L283.866 264.911ZM288.198 262.691H285.294C285.618 263.519 286.086 264.263 286.686 264.887C287.322 264.275 287.838 263.555 288.198 262.691ZM288.774 261.839L289.338 262.067C288.918 263.483 288.222 264.599 287.334 265.463C288.066 266.051 288.942 266.483 289.962 266.759C289.746 266.927 289.494 267.287 289.374 267.527C288.33 267.203 287.418 266.711 286.662 266.051C285.75 266.735 284.706 267.227 283.578 267.563C283.482 267.335 283.266 266.975 283.086 266.783C284.154 266.507 285.174 266.063 286.026 265.427C285.378 264.707 284.874 263.831 284.502 262.847L285.09 262.691H284.01V261.875H288.606L288.774 261.839ZM294.978 257.795H292.386V258.791H294.978V257.795ZM292.386 260.507H294.978V259.451H292.386V260.507ZM295.83 261.191H292.386V267.551H291.498V257.099H295.83V261.191ZM297.762 262.775H294.942V263.891H297.762V262.775ZM294.942 265.727H297.762V264.563H294.942V265.727ZM298.59 266.435H294.942V267.035H294.138V262.091H298.59V266.435ZM297.75 260.519H300.438V259.451H297.75V260.519ZM300.438 257.795H297.75V258.791H300.438V257.795ZM301.338 257.099V266.363C301.338 266.927 301.206 267.227 300.81 267.383C300.426 267.527 299.79 267.539 298.794 267.539C298.758 267.287 298.614 266.867 298.482 266.627C299.214 266.663 299.946 266.651 300.162 266.639C300.366 266.639 300.438 266.567 300.438 266.351V261.203H296.898V257.099H301.338ZM306.054 257.063L306.63 257.411C306.318 258.395 305.886 259.619 305.526 260.579C306.33 261.551 306.51 262.415 306.51 263.159C306.522 263.783 306.378 264.287 306.066 264.515C305.91 264.635 305.718 264.695 305.478 264.731C305.262 264.755 304.998 264.767 304.746 264.755C304.734 264.527 304.662 264.203 304.542 263.975C304.77 263.999 304.998 263.999 305.154 263.987C305.298 263.987 305.418 263.951 305.514 263.891C305.682 263.759 305.73 263.423 305.73 263.063C305.73 262.415 305.538 261.611 304.734 260.675C305.058 259.799 305.382 258.731 305.622 257.915H304.158V267.539H303.378V257.099H305.922L306.054 257.063ZM312.03 265.391H310.566V267.299H309.846V265.391H308.478V264.743H312.03V265.391ZM312.702 263.555L312.714 263.567V262.595H311.214V263.387C311.214 263.579 311.25 263.591 311.526 263.591H312.45C312.63 263.591 312.678 263.591 312.702 263.555ZM313.542 261.875V266.627C313.542 267.035 313.458 267.251 313.182 267.395C312.894 267.515 312.462 267.515 311.79 267.515C311.766 267.311 311.634 266.987 311.538 266.783C312.006 266.795 312.414 266.795 312.546 266.783C312.678 266.783 312.714 266.747 312.714 266.627V264.155C312.666 264.167 312.618 264.167 312.558 264.167H311.466C310.794 264.167 310.626 264.011 310.626 263.387V262.595H309.762C309.63 263.567 309.21 264.167 308.142 264.491C308.082 264.359 307.902 264.131 307.782 264.023C308.67 263.771 309.018 263.351 309.15 262.595H307.734V267.539H306.918V261.875H313.542ZM311.982 260.519V259.283H308.538V260.519H311.982ZM312.858 258.647V261.167H307.686V258.647H312.858ZM307.014 257.231H313.59V257.987H307.014V257.231Z" fill="black"/>
<rect x="15" y="51.8555" width="36.3665" height="20.9383" fill="#496071"/>
<path d="M26.4325 66.3573H31.5925V67.4853H20.8525V66.3573H25.2325V57.2133H26.4325V60.7773H30.7645V61.8933H26.4325V66.3573ZM38.6125 59.9373V58.6533H37.0885V59.9373H38.6125ZM38.6125 62.0853V60.8013H37.0885V62.0853H38.6125ZM38.6125 64.2453V62.9373H37.0885V64.2453H38.6125ZM39.5965 57.7533V65.1453H36.1525V57.7533H39.5965ZM34.9405 57.0933L35.9725 57.3813C35.7085 58.1733 35.3965 58.9773 35.0365 59.7453V68.0493H33.9805V61.6893C33.6685 62.1813 33.3565 62.6253 33.0205 63.0093C32.9245 62.7333 32.6365 62.1093 32.4685 61.8333C33.4645 60.6693 34.3885 58.8933 34.9405 57.0933ZM36.7885 65.3013L37.7245 65.7813C37.3285 66.5373 36.6925 67.4613 36.1525 68.0013C35.9605 67.8213 35.5885 67.5333 35.3485 67.3773C35.9125 66.8733 36.5005 65.9733 36.7885 65.3013ZM38.1445 65.7333L38.9485 65.3013C39.3565 65.9133 39.8125 66.7293 40.0045 67.2453L39.1525 67.7613C38.9845 67.2333 38.5285 66.3693 38.1445 65.7333ZM41.3845 58.3053V65.3493H40.4005V58.3053H41.3845ZM42.3685 57.2133H43.3885V66.7653C43.3885 67.3653 43.2565 67.6773 42.9205 67.8453C42.5845 68.0253 42.0325 68.0613 41.1805 68.0613C41.1445 67.7733 41.0125 67.3053 40.8565 66.9933C41.4445 67.0173 41.9725 67.0173 42.1405 67.0173C42.3085 67.0053 42.3685 66.9573 42.3685 66.7773V57.2133Z" fill="white"/>
<path d="M183.058 40.8359C150.438 40.8359 129.61 70.0394 127.406 81.0595C125.202 92.0797 137.875 93.1981 141.732 94.3001C145.589 95.4021 158.262 96.4878 163.772 87.1206C169.282 77.7535 175.343 76.1005 183.058 76.1005C190.772 76.1005 197.935 78.8555 201.241 87.1206C203.35 92.3941 212.812 95.9368 224.383 94.3001C235.954 92.6634 240.362 88.7737 240.362 81.0595C240.362 74.2439 223.832 40.8359 183.058 40.8359Z" stroke="#CE2C3F" stroke-dasharray="0.99 0.99"/>
<path d="M183.663 44.6934C160.484 44.6934 147.242 56.1432 147.242 62.8766C147.242 69.61 154.956 68.7874 158.813 65.6317C162.67 62.4759 166.527 60.6726 169.833 59.5706C173.139 58.4686 178.181 57.3665 183.663 57.3665C189.145 57.3665 195.008 57.9445 197.935 59.5706C202.894 62.3256 205.098 63.9786 210.057 67.2847C215.016 70.5907 221.519 65.3612 219.975 59.5706C217.771 51.3055 197.935 44.6934 183.663 44.6934Z" stroke="#2C59CE" stroke-dasharray="0.99 0.99"/>
<path d="M254.325 88.8738H250.125C251.121 90.9258 252.849 92.8338 254.733 93.7458C254.517 93.9258 254.205 94.2738 254.073 94.5258C252.261 93.5298 250.653 91.7058 249.573 89.6298V93.3018H251.853V94.1898H249.573V96.4218H248.649V94.1898H246.309V93.3018H248.649V89.6298C247.545 91.7058 245.925 93.5178 244.161 94.5378C244.029 94.3218 243.729 93.9858 243.525 93.8178C245.349 92.8698 247.089 90.9258 248.097 88.8738H243.933V87.9858H248.649V85.4778H249.573V87.9858H254.325V88.8738ZM260.373 85.7058L261.153 86.0298C260.805 86.5818 260.397 87.1818 260.085 87.5778L259.485 87.2898C259.773 86.8698 260.181 86.1738 260.373 85.7058ZM257.601 87.2898L256.893 87.6018C256.785 87.1818 256.473 86.5218 256.149 86.0298L256.821 85.7538C257.157 86.2338 257.481 86.8698 257.601 87.2898ZM262.857 88.5018L262.845 88.5378C263.073 89.9178 263.409 91.2138 263.889 92.3298C264.405 91.2618 264.729 89.9898 264.945 88.5018H262.857ZM259.581 92.5698H257.901C257.733 92.9058 257.553 93.2298 257.397 93.5418C257.877 93.7338 258.357 93.9498 258.825 94.1778C259.185 93.7458 259.425 93.2178 259.581 92.5698ZM266.589 88.5018H265.869C265.569 90.4458 265.113 92.0298 264.381 93.3138C264.981 94.3458 265.737 95.1618 266.697 95.6658C266.493 95.8338 266.205 96.1818 266.085 96.4218C265.161 95.8818 264.429 95.1138 263.841 94.1538C263.133 95.0898 262.233 95.8578 261.057 96.4578C260.985 96.3018 260.829 96.0378 260.673 95.8338L260.397 96.1218C260.025 95.8218 259.545 95.4978 258.993 95.1738C258.297 95.7498 257.349 96.1458 256.065 96.4218C256.005 96.1818 255.825 95.8578 255.657 95.6898C256.761 95.4978 257.601 95.1978 258.213 94.7538C257.829 94.5618 257.433 94.3698 257.037 94.2018L256.845 94.5378L256.077 94.2618C256.341 93.8058 256.665 93.1938 256.989 92.5698H255.633V91.8258H257.361C257.541 91.4658 257.709 91.1178 257.853 90.7938L258.165 90.8658V89.2098C257.565 89.9178 256.797 90.5778 256.065 90.9738C255.957 90.7698 255.741 90.4578 255.573 90.3018C256.425 89.9178 257.337 89.1738 257.925 88.3938H255.705V87.6618H258.165V85.4658H258.993V87.6618H261.429V88.3938H258.993V88.4538C259.509 88.7538 260.805 89.5698 261.129 89.8098L260.637 90.4458C260.325 90.1578 259.569 89.5818 258.993 89.1498V90.9378H258.477L258.681 90.9858C258.549 91.2498 258.417 91.5378 258.273 91.8258H261.477V92.5698H260.433C260.265 93.3738 259.989 94.0338 259.581 94.5738C260.109 94.8618 260.589 95.1738 260.961 95.4498C261.981 94.8858 262.773 94.1658 263.361 93.2658C262.905 92.2938 262.557 91.1778 262.281 89.9538C262.029 90.5178 261.729 91.0218 261.405 91.4538C261.273 91.2858 260.889 90.9858 260.685 90.8418C261.693 89.5818 262.317 87.5778 262.641 85.4658L263.553 85.5978C263.433 86.3058 263.277 87.0018 263.109 87.6618H266.589V88.5018Z" fill="#CE2C3F"/>
<path d="M80.136 61.712L79.596 62.504C78.96 61.964 77.676 61.232 76.884 60.872L77.352 60.128C78.216 60.512 79.572 61.28 80.136 61.712ZM75.816 59.912L75.84 60.8C75.216 60.98 74.472 61.136 73.692 61.232C73.104 62.912 72.048 64.976 71.1 66.26L70.164 65.78C71.16 64.628 72.168 62.732 72.708 61.34C72.36 61.364 72.012 61.376 71.664 61.376C71.22 61.376 70.728 61.364 70.284 61.34L70.212 60.44C70.656 60.5 71.16 60.524 71.676 60.524C72.096 60.524 72.54 60.5 72.996 60.464C73.176 59.804 73.344 59.048 73.368 58.412L74.436 58.508C74.316 58.94 74.16 59.66 73.968 60.344C74.592 60.248 75.216 60.104 75.816 59.912ZM76.44 66.548C76.44 66.392 76.44 66.2 76.428 65.984C76.056 65.876 75.648 65.816 75.228 65.816C74.352 65.816 73.776 66.212 73.776 66.752C73.776 67.304 74.22 67.676 75.144 67.676C76.116 67.676 76.44 67.136 76.44 66.548ZM76.272 62.18H77.232C77.196 62.672 77.208 63.02 77.22 63.464C77.232 63.896 77.28 64.676 77.304 65.396C78.324 65.768 79.152 66.356 79.764 66.884L79.248 67.7C78.744 67.244 78.108 66.716 77.34 66.344C77.352 66.524 77.352 66.692 77.352 66.824C77.352 67.772 76.728 68.552 75.264 68.552C73.956 68.552 72.888 68.012 72.888 66.836C72.888 65.744 73.92 65.036 75.264 65.036C75.66 65.036 76.044 65.072 76.392 65.144C76.356 64.172 76.296 63.008 76.272 62.18ZM84.792 59.54L85.044 58.628C86.064 58.952 88.584 59.444 89.64 59.54L89.412 60.476C88.284 60.32 85.704 59.792 84.792 59.54ZM84.78 60.788C84.624 61.604 84.42 63.332 84.312 64.1C85.452 63.104 86.736 62.672 88.152 62.672C89.976 62.672 91.188 63.764 91.188 65.156C91.188 67.292 89.304 68.732 84.888 68.36L84.6 67.376C88.344 67.832 90.18 66.752 90.18 65.132C90.18 64.184 89.304 63.524 88.092 63.524C86.508 63.524 85.26 64.1 84.42 65.096C84.252 65.3 84.144 65.504 84.06 65.696L83.16 65.48C83.4 64.4 83.688 61.904 83.76 60.656L84.78 60.788ZM103.452 60.32L102.828 60.56C102.6 60.02 102.288 59.3 102.024 58.844L102.624 58.64C102.864 59.084 103.248 59.828 103.452 60.32ZM100.62 59.624L101.544 59.336C101.844 60.776 102.552 62.72 104.076 64.244L103.368 64.988C102.828 64.328 102.348 63.608 101.904 62.768C102.156 65.768 100.908 68.732 97.824 68.732C95.916 68.732 94.74 67.496 94.74 65.588C94.74 63.548 95.904 61.64 96.876 60.632C96.276 60.728 95.388 60.872 94.92 60.968C94.716 61.004 94.5 61.052 94.26 61.1L94.116 60.092C94.296 60.092 94.536 60.08 94.752 60.056C95.784 59.972 97.872 59.636 98.568 59.372L98.856 60.236C98.7 60.296 98.4 60.368 98.232 60.452C97.476 61.016 95.676 63.26 95.676 65.456C95.676 67.088 96.708 67.736 97.86 67.736C100.332 67.736 101.736 64.868 100.908 60.488C100.812 60.212 100.716 59.924 100.62 59.624ZM103.26 58.4L103.848 58.172C104.112 58.616 104.472 59.348 104.7 59.852L104.076 60.08C103.848 59.54 103.536 58.844 103.26 58.4ZM116.208 61.364H112.008C113.004 63.416 114.732 65.324 116.616 66.236C116.4 66.416 116.088 66.764 115.956 67.016C114.144 66.02 112.536 64.196 111.456 62.12V65.792H113.736V66.68H111.456V68.912H110.532V66.68H108.192V65.792H110.532V62.12C109.428 64.196 107.808 66.008 106.044 67.028C105.912 66.812 105.612 66.476 105.408 66.308C107.232 65.36 108.972 63.416 109.98 61.364H105.816V60.476H110.532V57.968H111.456V60.476H116.208V61.364ZM122.256 58.196L123.036 58.52C122.688 59.072 122.28 59.672 121.968 60.068L121.368 59.78C121.656 59.36 122.064 58.664 122.256 58.196ZM119.484 59.78L118.776 60.092C118.668 59.672 118.356 59.012 118.032 58.52L118.704 58.244C119.04 58.724 119.364 59.36 119.484 59.78ZM124.74 60.992L124.728 61.028C124.956 62.408 125.292 63.704 125.772 64.82C126.288 63.752 126.612 62.48 126.828 60.992H124.74ZM121.464 65.06H119.784C119.616 65.396 119.436 65.72 119.28 66.032C119.76 66.224 120.24 66.44 120.708 66.668C121.068 66.236 121.308 65.708 121.464 65.06ZM128.472 60.992H127.752C127.452 62.936 126.996 64.52 126.264 65.804C126.864 66.836 127.62 67.652 128.58 68.156C128.376 68.324 128.088 68.672 127.968 68.912C127.044 68.372 126.312 67.604 125.724 66.644C125.016 67.58 124.116 68.348 122.94 68.948C122.868 68.792 122.712 68.528 122.556 68.324L122.28 68.612C121.908 68.312 121.428 67.988 120.876 67.664C120.18 68.24 119.232 68.636 117.948 68.912C117.888 68.672 117.708 68.348 117.54 68.18C118.644 67.988 119.484 67.688 120.096 67.244C119.712 67.052 119.316 66.86 118.92 66.692L118.728 67.028L117.96 66.752C118.224 66.296 118.548 65.684 118.872 65.06H117.516V64.316H119.244C119.424 63.956 119.592 63.608 119.736 63.284L120.048 63.356V61.7C119.448 62.408 118.68 63.068 117.948 63.464C117.84 63.26 117.624 62.948 117.456 62.792C118.308 62.408 119.22 61.664 119.808 60.884H117.588V60.152H120.048V57.956H120.876V60.152H123.312V60.884H120.876V60.944C121.392 61.244 122.688 62.06 123.012 62.3L122.52 62.936C122.208 62.648 121.452 62.072 120.876 61.64V63.428H120.36L120.564 63.476C120.432 63.74 120.3 64.028 120.156 64.316H123.36V65.06H122.316C122.148 65.864 121.872 66.524 121.464 67.064C121.992 67.352 122.472 67.664 122.844 67.94C123.864 67.376 124.656 66.656 125.244 65.756C124.788 64.784 124.44 63.668 124.164 62.444C123.912 63.008 123.612 63.512 123.288 63.944C123.156 63.776 122.772 63.476 122.568 63.332C123.576 62.072 124.2 60.068 124.524 57.956L125.436 58.088C125.316 58.796 125.16 59.492 124.992 60.152H128.472V60.992Z" fill="#2C59CE"/>
<path d="M114.181 220.622C114.181 239.369 121.629 257.349 134.885 270.605C148.142 283.861 166.121 291.309 184.868 291.309C203.616 291.309 221.595 283.861 234.852 270.605C248.108 257.349 255.555 239.369 255.555 220.622L184.868 220.622L114.181 220.622Z" fill="#D9D9D9"/>
<path d="M131.318 220.195C131.318 233.829 136.734 246.905 146.375 256.546C156.016 266.187 169.092 271.604 182.726 271.604C196.361 271.604 209.437 266.187 219.078 256.546C228.719 246.905 234.564 233.829 234.564 220.195" stroke="black" stroke-width="0.428405" stroke-dasharray="1.71 1.71"/>
<path d="M148.454 220.196C148.454 229.058 152.05 237.557 158.45 243.824C164.851 250.091 173.532 253.611 182.584 253.611C191.636 253.611 200.317 250.091 206.718 243.824C213.119 237.557 216.999 229.058 216.999 220.196" stroke="black" stroke-width="0.428405" stroke-dasharray="1.71 1.71"/>
<circle cx="3.42724" cy="3.42724" r="3.42724" transform="matrix(-4.37114e-08 -1 -1 4.37114e-08 157.879 266.463)" fill="#1E252C"/>
<circle cx="3.42724" cy="3.42724" r="3.42724" transform="matrix(-4.37114e-08 -1 -1 4.37114e-08 215.286 266.463)" fill="#1E252C"/>
<circle cx="3.42724" cy="3.42724" r="3.42724" transform="matrix(-4.37114e-08 -1 -1 4.37114e-08 139.886 245.043)" fill="#1E252C"/>
<circle cx="3.42724" cy="3.42724" r="3.42724" transform="matrix(-4.37114e-08 -1 -1 4.37114e-08 233.279 245.043)" fill="#1E252C"/>
<circle cx="3.42724" cy="3.42724" r="3.42724" transform="matrix(-4.37114e-08 -1 -1 4.37114e-08 186.154 275.031)" fill="#1E252C"/>
<circle cx="3.42724" cy="3.42724" r="3.42724" transform="matrix(-4.37114e-08 -1 -1 4.37114e-08 185.854 256.855)" fill="#1E252C"/>
<circle cx="3.42724" cy="3.42724" r="3.42724" transform="matrix(-4.37114e-08 -1 -1 4.37114e-08 158.736 243.328)" fill="#1E252C"/>
<circle cx="3.42724" cy="3.42724" r="3.42724" transform="matrix(-4.37114e-08 -1 -1 4.37114e-08 213.572 243.328)" fill="#1E252C"/>
<line y1="-0.275504" x2="89.1083" y2="-0.275504" transform="matrix(1 -8.74228e-08 -8.74228e-08 -1 184.44 291.309)" stroke="black" stroke-width="0.551008"/>
<line y1="-0.275504" x2="85.6811" y2="-0.275504" transform="matrix(1 -8.74228e-08 -8.74228e-08 -1 187.867 271.604)" stroke="black" stroke-width="0.551008"/>
<line y1="-0.275504" x2="85.6811" y2="-0.275504" transform="matrix(1 8.74228e-08 8.74228e-08 -1 187.867 252.754)" stroke="black" stroke-width="0.551008"/>
<line y1="-0.275504" x2="37.6997" y2="-0.275504" transform="matrix(4.37114e-08 -1 -1 -4.37114e-08 266.694 291.309)" stroke="black" stroke-width="0.551008"/>
<rect x="15" y="244.709" width="36.3665" height="20.9383" fill="#496071"/>
<path d="M32.304 251.936H27.348V253.964L27.552 253.724C28.92 254.384 30.804 255.452 31.728 256.172L30.912 257.192C30.144 256.544 28.644 255.608 27.348 254.888V260.924H26.16V251.936H21.708V250.796H32.304V251.936ZM39.396 252.824V251.54H37.872V252.824H39.396ZM39.396 254.972V253.688H37.872V254.972H39.396ZM39.396 257.132V255.824H37.872V257.132H39.396ZM40.38 250.64V258.032H36.936V250.64H40.38ZM35.724 249.98L36.756 250.268C36.492 251.06 36.18 251.864 35.82 252.632V260.936H34.764V254.576C34.452 255.068 34.14 255.512 33.804 255.896C33.708 255.62 33.42 254.996 33.252 254.72C34.248 253.556 35.172 251.78 35.724 249.98ZM37.572 258.188L38.508 258.668C38.112 259.424 37.476 260.348 36.936 260.888C36.744 260.708 36.372 260.42 36.132 260.264C36.696 259.76 37.284 258.86 37.572 258.188ZM38.928 258.62L39.732 258.188C40.14 258.8 40.596 259.616 40.788 260.132L39.936 260.648C39.768 260.12 39.312 259.256 38.928 258.62ZM42.168 251.192V258.236H41.184V251.192H42.168ZM43.152 250.1H44.172V259.652C44.172 260.252 44.04 260.564 43.704 260.732C43.368 260.912 42.816 260.948 41.964 260.948C41.928 260.66 41.796 260.192 41.64 259.88C42.228 259.904 42.756 259.904 42.924 259.904C43.092 259.892 43.152 259.844 43.152 259.664V250.1Z" fill="white"/>
<path d="M182.57 282.488C149.951 282.488 129.123 253.285 126.919 242.265C124.715 231.245 137.388 230.126 141.245 229.024C145.102 227.922 157.775 226.836 163.285 236.204C168.795 245.571 174.856 247.224 182.57 247.224C190.285 247.224 197.448 244.469 200.754 236.204C202.863 230.93 212.325 227.387 223.896 229.024C235.467 230.661 239.875 234.551 239.875 242.265C239.875 249.08 223.345 282.488 182.57 282.488Z" stroke="#CE2C3F" stroke-dasharray="0.99 0.99"/>
<path d="M183.176 278.631C159.997 278.631 146.755 267.181 146.755 260.448C146.755 253.714 154.469 254.537 158.326 257.693C162.183 260.848 166.04 262.652 169.346 263.754C172.652 264.856 177.694 265.958 183.176 265.958C188.657 265.958 194.521 265.38 197.448 263.754C202.407 260.999 204.611 259.346 209.57 256.04C214.529 252.733 221.032 257.963 219.488 263.754C217.284 272.019 197.448 278.631 183.176 278.631Z" stroke="#2C59CE" stroke-dasharray="0.99 0.99"/>
<path d="M254.325 232.135H250.125C251.121 234.187 252.849 236.095 254.733 237.007C254.517 237.187 254.205 237.535 254.073 237.787C252.261 236.791 250.653 234.967 249.573 232.891V236.563H251.853V237.451H249.573V239.683H248.649V237.451H246.309V236.563H248.649V232.891C247.545 234.967 245.925 236.779 244.161 237.799C244.029 237.583 243.729 237.247 243.525 237.079C245.349 236.131 247.089 234.187 248.097 232.135H243.933V231.247H248.649V228.739H249.573V231.247H254.325V232.135ZM260.373 228.967L261.153 229.291C260.805 229.843 260.397 230.443 260.085 230.839L259.485 230.551C259.773 230.131 260.181 229.435 260.373 228.967ZM257.601 230.551L256.893 230.863C256.785 230.443 256.473 229.783 256.149 229.291L256.821 229.015C257.157 229.495 257.481 230.131 257.601 230.551ZM262.857 231.763L262.845 231.799C263.073 233.179 263.409 234.475 263.889 235.591C264.405 234.523 264.729 233.251 264.945 231.763H262.857ZM259.581 235.831H257.901C257.733 236.167 257.553 236.491 257.397 236.803C257.877 236.995 258.357 237.211 258.825 237.439C259.185 237.007 259.425 236.479 259.581 235.831ZM266.589 231.763H265.869C265.569 233.707 265.113 235.291 264.381 236.575C264.981 237.607 265.737 238.423 266.697 238.927C266.493 239.095 266.205 239.443 266.085 239.683C265.161 239.143 264.429 238.375 263.841 237.415C263.133 238.351 262.233 239.119 261.057 239.719C260.985 239.563 260.829 239.299 260.673 239.095L260.397 239.383C260.025 239.083 259.545 238.759 258.993 238.435C258.297 239.011 257.349 239.407 256.065 239.683C256.005 239.443 255.825 239.119 255.657 238.951C256.761 238.759 257.601 238.459 258.213 238.015C257.829 237.823 257.433 237.631 257.037 237.463L256.845 237.799L256.077 237.523C256.341 237.067 256.665 236.455 256.989 235.831H255.633V235.087H257.361C257.541 234.727 257.709 234.379 257.853 234.055L258.165 234.127V232.471C257.565 233.179 256.797 233.839 256.065 234.235C255.957 234.031 255.741 233.719 255.573 233.563C256.425 233.179 257.337 232.435 257.925 231.655H255.705V230.923H258.165V228.727H258.993V230.923H261.429V231.655H258.993V231.715C259.509 232.015 260.805 232.831 261.129 233.071L260.637 233.707C260.325 233.419 259.569 232.843 258.993 232.411V234.199H258.477L258.681 234.247C258.549 234.511 258.417 234.799 258.273 235.087H261.477V235.831H260.433C260.265 236.635 259.989 237.295 259.581 237.835C260.109 238.123 260.589 238.435 260.961 238.711C261.981 238.147 262.773 237.427 263.361 236.527C262.905 235.555 262.557 234.439 262.281 233.215C262.029 233.779 261.729 234.283 261.405 234.715C261.273 234.547 260.889 234.247 260.685 234.103C261.693 232.843 262.317 230.839 262.641 228.727L263.553 228.859C263.433 229.567 263.277 230.263 263.109 230.923H266.589V231.763Z" fill="#CE2C3F"/>
<path d="M81.136 259.712L80.596 260.504C79.96 259.964 78.676 259.232 77.884 258.872L78.352 258.128C79.216 258.512 80.572 259.28 81.136 259.712ZM76.816 257.912L76.84 258.8C76.216 258.98 75.472 259.136 74.692 259.232C74.104 260.912 73.048 262.976 72.1 264.26L71.164 263.78C72.16 262.628 73.168 260.732 73.708 259.34C73.36 259.364 73.012 259.376 72.664 259.376C72.22 259.376 71.728 259.364 71.284 259.34L71.212 258.44C71.656 258.5 72.16 258.524 72.676 258.524C73.096 258.524 73.54 258.5 73.996 258.464C74.176 257.804 74.344 257.048 74.368 256.412L75.436 256.508C75.316 256.94 75.16 257.66 74.968 258.344C75.592 258.248 76.216 258.104 76.816 257.912ZM77.44 264.548C77.44 264.392 77.44 264.2 77.428 263.984C77.056 263.876 76.648 263.816 76.228 263.816C75.352 263.816 74.776 264.212 74.776 264.752C74.776 265.304 75.22 265.676 76.144 265.676C77.116 265.676 77.44 265.136 77.44 264.548ZM77.272 260.18H78.232C78.196 260.672 78.208 261.02 78.22 261.464C78.232 261.896 78.28 262.676 78.304 263.396C79.324 263.768 80.152 264.356 80.764 264.884L80.248 265.7C79.744 265.244 79.108 264.716 78.34 264.344C78.352 264.524 78.352 264.692 78.352 264.824C78.352 265.772 77.728 266.552 76.264 266.552C74.956 266.552 73.888 266.012 73.888 264.836C73.888 263.744 74.92 263.036 76.264 263.036C76.66 263.036 77.044 263.072 77.392 263.144C77.356 262.172 77.296 261.008 77.272 260.18ZM85.792 257.54L86.044 256.628C87.064 256.952 89.584 257.444 90.64 257.54L90.412 258.476C89.284 258.32 86.704 257.792 85.792 257.54ZM85.78 258.788C85.624 259.604 85.42 261.332 85.312 262.1C86.452 261.104 87.736 260.672 89.152 260.672C90.976 260.672 92.188 261.764 92.188 263.156C92.188 265.292 90.304 266.732 85.888 266.36L85.6 265.376C89.344 265.832 91.18 264.752 91.18 263.132C91.18 262.184 90.304 261.524 89.092 261.524C87.508 261.524 86.26 262.1 85.42 263.096C85.252 263.3 85.144 263.504 85.06 263.696L84.16 263.48C84.4 262.4 84.688 259.904 84.76 258.656L85.78 258.788ZM104.452 258.32L103.828 258.56C103.6 258.02 103.288 257.3 103.024 256.844L103.624 256.64C103.864 257.084 104.248 257.828 104.452 258.32ZM101.62 257.624L102.544 257.336C102.844 258.776 103.552 260.72 105.076 262.244L104.368 262.988C103.828 262.328 103.348 261.608 102.904 260.768C103.156 263.768 101.908 266.732 98.824 266.732C96.916 266.732 95.74 265.496 95.74 263.588C95.74 261.548 96.904 259.64 97.876 258.632C97.276 258.728 96.388 258.872 95.92 258.968C95.716 259.004 95.5 259.052 95.26 259.1L95.116 258.092C95.296 258.092 95.536 258.08 95.752 258.056C96.784 257.972 98.872 257.636 99.568 257.372L99.856 258.236C99.7 258.296 99.4 258.368 99.232 258.452C98.476 259.016 96.676 261.26 96.676 263.456C96.676 265.088 97.708 265.736 98.86 265.736C101.332 265.736 102.736 262.868 101.908 258.488C101.812 258.212 101.716 257.924 101.62 257.624ZM104.26 256.4L104.848 256.172C105.112 256.616 105.472 257.348 105.7 257.852L105.076 258.08C104.848 257.54 104.536 256.844 104.26 256.4ZM117.208 259.364H113.008C114.004 261.416 115.732 263.324 117.616 264.236C117.4 264.416 117.088 264.764 116.956 265.016C115.144 264.02 113.536 262.196 112.456 260.12V263.792H114.736V264.68H112.456V266.912H111.532V264.68H109.192V263.792H111.532V260.12C110.428 262.196 108.808 264.008 107.044 265.028C106.912 264.812 106.612 264.476 106.408 264.308C108.232 263.36 109.972 261.416 110.98 259.364H106.816V258.476H111.532V255.968H112.456V258.476H117.208V259.364ZM123.256 256.196L124.036 256.52C123.688 257.072 123.28 257.672 122.968 258.068L122.368 257.78C122.656 257.36 123.064 256.664 123.256 256.196ZM120.484 257.78L119.776 258.092C119.668 257.672 119.356 257.012 119.032 256.52L119.704 256.244C120.04 256.724 120.364 257.36 120.484 257.78ZM125.74 258.992L125.728 259.028C125.956 260.408 126.292 261.704 126.772 262.82C127.288 261.752 127.612 260.48 127.828 258.992H125.74ZM122.464 263.06H120.784C120.616 263.396 120.436 263.72 120.28 264.032C120.76 264.224 121.24 264.44 121.708 264.668C122.068 264.236 122.308 263.708 122.464 263.06ZM129.472 258.992H128.752C128.452 260.936 127.996 262.52 127.264 263.804C127.864 264.836 128.62 265.652 129.58 266.156C129.376 266.324 129.088 266.672 128.968 266.912C128.044 266.372 127.312 265.604 126.724 264.644C126.016 265.58 125.116 266.348 123.94 266.948C123.868 266.792 123.712 266.528 123.556 266.324L123.28 266.612C122.908 266.312 122.428 265.988 121.876 265.664C121.18 266.24 120.232 266.636 118.948 266.912C118.888 266.672 118.708 266.348 118.54 266.18C119.644 265.988 120.484 265.688 121.096 265.244C120.712 265.052 120.316 264.86 119.92 264.692L119.728 265.028L118.96 264.752C119.224 264.296 119.548 263.684 119.872 263.06H118.516V262.316H120.244C120.424 261.956 120.592 261.608 120.736 261.284L121.048 261.356V259.7C120.448 260.408 119.68 261.068 118.948 261.464C118.84 261.26 118.624 260.948 118.456 260.792C119.308 260.408 120.22 259.664 120.808 258.884H118.588V258.152H121.048V255.956H121.876V258.152H124.312V258.884H121.876V258.944C122.392 259.244 123.688 260.06 124.012 260.3L123.52 260.936C123.208 260.648 122.452 260.072 121.876 259.64V261.428H121.36L121.564 261.476C121.432 261.74 121.3 262.028 121.156 262.316H124.36V263.06H123.316C123.148 263.864 122.872 264.524 122.464 265.064C122.992 265.352 123.472 265.664 123.844 265.94C124.864 265.376 125.656 264.656 126.244 263.756C125.788 262.784 125.44 261.668 125.164 260.444C124.912 261.008 124.612 261.512 124.288 261.944C124.156 261.776 123.772 261.476 123.568 261.332C124.576 260.072 125.2 258.068 125.524 255.956L126.436 256.088C126.316 256.796 126.16 257.492 125.992 258.152H129.472V258.992Z" fill="#2C59CE"/>
</svg>
