<svg width="360" height="328" viewBox="0 0 360 328" fill="none" xmlns="http://www.w3.org/2000/svg">
<rect width="360" height="328" fill="white"/>
<circle cx="179.993" cy="180.262" r="128.993" fill="#D9D9D9"/>
<circle cx="179.543" cy="179.814" r="108.318" stroke="black" stroke-width="0.898903" stroke-dasharray="1.8 1.8"/>
<circle cx="179.993" cy="180.264" r="74.609" stroke="black" stroke-width="0.898903" stroke-dasharray="1.8 1.8"/>
<circle cx="179.68" cy="71.68" r="3.68" fill="#CE2C3F"/>
<circle cx="179.68" cy="105.68" r="3.68" fill="#CE2C3F"/>
<circle cx="105.68" cy="179.68" r="3.68" fill="#CE2C3F"/>
<circle cx="179.68" cy="254.68" r="3.68" fill="#CE2C3F"/>
<circle cx="254.68" cy="178.68" r="3.68" fill="#CE2C3F"/>
<circle cx="287.68" cy="178.68" r="3.68" fill="#CE2C3F"/>
<circle cx="179.68" cy="288.68" r="3.68" fill="#CE2C3F"/>
<circle cx="71.68" cy="179.68" r="3.68" fill="#CE2C3F"/>
<circle cx="103.68" cy="101.68" r="3.68" fill="#CE2C3F"/>
<circle cx="256.68" cy="103.68" r="3.68" fill="#CE2C3F"/>
<circle cx="103.68" cy="256.68" r="3.68" fill="#CE2C3F"/>
<circle cx="257.68" cy="255.68" r="3.68" fill="#CE2C3F"/>
<line x1="232.079" y1="62.2049" x2="223.4" y2="79.1477" stroke="#1E252C" stroke-width="0.898903"/>
<line x1="235.799" y1="64.402" x2="227.799" y2="60.402" stroke="#1E252C" stroke-width="0.898903"/>
<line x1="227.799" y1="81.402" x2="219.799" y2="77.402" stroke="#1E252C" stroke-width="0.898903"/>
<line x1="127.399" y1="87.7931" x2="141.399" y2="114.793" stroke="#1E252C" stroke-width="0.898903"/>
<line y1="-0.449452" x2="8.94427" y2="-0.449452" transform="matrix(0.861928 -0.50703 -0.50703 -0.861928 137.145 116.268)" stroke="#1E252C" stroke-width="0.898903"/>
<line y1="-0.449452" x2="8.94427" y2="-0.449452" transform="matrix(0.861928 -0.50703 -0.50703 -0.861928 123 89.5352)" stroke="#1E252C" stroke-width="0.898903"/>
<path d="M157.919 89V80.204H159.035V89H157.919ZM161.338 89V82.484H162.226L162.334 83.432H162.37C162.982 82.82 163.654 82.328 164.554 82.328C165.922 82.328 166.546 83.216 166.546 84.872V89H165.442V85.016C165.442 83.792 165.07 83.276 164.206 83.276C163.546 83.276 163.078 83.624 162.43 84.272V89H161.338ZM170.703 89.168C169.311 89.168 168.855 88.292 168.855 86.996V83.372H167.883V82.556L168.903 82.484L169.023 80.648H169.947V82.484H171.711V83.372H169.947V87.02C169.947 87.812 170.199 88.28 170.955 88.28C171.183 88.28 171.483 88.184 171.687 88.1L171.903 88.916C171.543 89.048 171.111 89.168 170.703 89.168ZM175.603 89.168C173.863 89.168 172.483 87.896 172.483 85.76C172.483 83.636 173.911 82.328 175.411 82.328C177.067 82.328 178.003 83.516 178.003 85.388C178.003 85.616 177.991 85.844 177.955 86.012H173.563C173.647 87.392 174.487 88.292 175.735 88.292C176.359 88.292 176.875 88.088 177.355 87.764L177.751 88.496C177.175 88.868 176.491 89.168 175.603 89.168ZM173.551 85.22H177.043C177.043 83.912 176.455 83.204 175.423 83.204C174.511 83.204 173.695 83.936 173.551 85.22ZM179.62 89V82.484H180.508L180.616 83.672H180.652C181.096 82.844 181.768 82.328 182.5 82.328C182.788 82.328 182.98 82.364 183.196 82.46L182.992 83.42C182.764 83.348 182.62 83.312 182.356 83.312C181.816 83.312 181.144 83.708 180.712 84.824V89H179.62ZM185.981 89L183.629 82.484H184.757L185.993 86.204C186.185 86.84 186.389 87.5 186.593 88.112H186.641C186.845 87.5 187.049 86.84 187.241 86.204L188.489 82.484H189.557L187.253 89H185.981ZM192.03 89.168C190.938 89.168 190.122 88.484 190.122 87.308C190.122 85.892 191.346 85.184 194.118 84.872C194.118 84.032 193.854 83.228 192.786 83.228C192.018 83.228 191.334 83.588 190.83 83.936L190.398 83.168C190.998 82.784 191.91 82.328 192.954 82.328C194.55 82.328 195.222 83.384 195.222 85.004V89H194.322L194.226 88.232H194.178C193.566 88.748 192.834 89.168 192.03 89.168ZM192.33 88.28C192.966 88.28 193.494 87.98 194.118 87.416V85.604C191.922 85.856 191.19 86.396 191.19 87.236C191.19 87.98 191.694 88.28 192.33 88.28ZM198.444 89.168C197.616 89.168 197.292 88.64 197.292 87.704V79.46H198.384V87.776C198.384 88.124 198.528 88.256 198.696 88.256C198.744 88.256 198.792 88.256 198.924 88.232L199.068 89.072C198.912 89.12 198.744 89.168 198.444 89.168ZM136.696 101V92.204H139.3C141.088 92.204 142.324 92.816 142.324 94.364C142.324 95.228 141.868 95.996 141.04 96.272V96.32C142.096 96.524 142.828 97.232 142.828 98.432C142.828 100.148 141.46 101 139.504 101H136.696ZM137.812 95.948H139.108C140.62 95.948 141.232 95.396 141.232 94.496C141.232 93.464 140.536 93.08 139.168 93.08H137.812V95.948ZM137.812 100.124H139.348C140.848 100.124 141.748 99.584 141.748 98.396C141.748 97.304 140.884 96.8 139.348 96.8H137.812V100.124ZM147.115 101.168C145.375 101.168 143.995 99.896 143.995 97.76C143.995 95.636 145.423 94.328 146.923 94.328C148.579 94.328 149.515 95.516 149.515 97.388C149.515 97.616 149.503 97.844 149.467 98.012H145.075C145.159 99.392 145.999 100.292 147.247 100.292C147.871 100.292 148.387 100.088 148.867 99.764L149.263 100.496C148.687 100.868 148.003 101.168 147.115 101.168ZM145.063 97.22H148.555C148.555 95.912 147.967 95.204 146.935 95.204C146.023 95.204 145.207 95.936 145.063 97.22ZM153.007 101.168C151.615 101.168 151.159 100.292 151.159 98.996V95.372H150.187V94.556L151.207 94.484L151.327 92.648H152.251V94.484H154.015V95.372H152.251V99.02C152.251 99.812 152.503 100.28 153.259 100.28C153.487 100.28 153.787 100.184 153.991 100.1L154.207 100.916C153.847 101.048 153.415 101.168 153.007 101.168ZM156.523 101L154.699 94.484H155.815L156.799 98.264C156.931 98.888 157.051 99.464 157.171 100.076H157.231C157.375 99.464 157.507 98.876 157.675 98.264L158.683 94.484H159.751L160.783 98.264C160.939 98.888 161.083 99.464 161.239 100.076H161.287C161.419 99.464 161.539 98.888 161.695 98.264L162.643 94.484H163.687L161.935 101H160.603L159.655 97.496C159.487 96.872 159.367 96.284 159.211 95.612H159.151C159.019 96.284 158.887 96.884 158.707 97.508L157.795 101H156.523ZM167.658 101.168C165.918 101.168 164.538 99.896 164.538 97.76C164.538 95.636 165.966 94.328 167.466 94.328C169.122 94.328 170.058 95.516 170.058 97.388C170.058 97.616 170.046 97.844 170.01 98.012H165.618C165.702 99.392 166.542 100.292 167.79 100.292C168.414 100.292 168.93 100.088 169.41 99.764L169.806 100.496C169.23 100.868 168.546 101.168 167.658 101.168ZM165.606 97.22H169.098C169.098 95.912 168.51 95.204 167.478 95.204C166.566 95.204 165.75 95.936 165.606 97.22ZM174.302 101.168C172.562 101.168 171.182 99.896 171.182 97.76C171.182 95.636 172.61 94.328 174.11 94.328C175.766 94.328 176.702 95.516 176.702 97.388C176.702 97.616 176.69 97.844 176.654 98.012H172.262C172.346 99.392 173.186 100.292 174.434 100.292C175.058 100.292 175.574 100.088 176.054 99.764L176.45 100.496C175.874 100.868 175.19 101.168 174.302 101.168ZM172.25 97.22H175.742C175.742 95.912 175.154 95.204 174.122 95.204C173.21 95.204 172.394 95.936 172.25 97.22ZM178.319 101V94.484H179.207L179.315 95.432H179.351C179.963 94.82 180.635 94.328 181.535 94.328C182.903 94.328 183.527 95.216 183.527 96.872V101H182.423V97.016C182.423 95.792 182.051 95.276 181.187 95.276C180.527 95.276 180.059 95.624 179.411 96.272V101H178.319ZM188.423 101V92.204H189.539V100.064H193.379V101H188.423ZM196.342 101.168C195.25 101.168 194.434 100.484 194.434 99.308C194.434 97.892 195.658 97.184 198.43 96.872C198.43 96.032 198.166 95.228 197.098 95.228C196.33 95.228 195.646 95.588 195.142 95.936L194.71 95.168C195.31 94.784 196.222 94.328 197.266 94.328C198.862 94.328 199.534 95.384 199.534 97.004V101H198.634L198.538 100.232H198.49C197.878 100.748 197.146 101.168 196.342 101.168ZM196.642 100.28C197.278 100.28 197.806 99.98 198.43 99.416V97.604C196.234 97.856 195.502 98.396 195.502 99.236C195.502 99.98 196.006 100.28 196.642 100.28ZM201.7 103.82C201.4 103.82 201.148 103.772 200.944 103.688L201.16 102.812C201.28 102.86 201.472 102.908 201.652 102.908C202.384 102.908 202.852 102.308 203.128 101.504L203.272 101.012L200.656 94.484H201.784L203.116 98.108C203.32 98.684 203.536 99.344 203.752 99.944H203.812C203.992 99.344 204.184 98.696 204.352 98.108L205.528 94.484H206.596L204.136 101.552C203.68 102.836 203.008 103.82 201.7 103.82ZM210.408 101.168C208.668 101.168 207.288 99.896 207.288 97.76C207.288 95.636 208.716 94.328 210.216 94.328C211.872 94.328 212.808 95.516 212.808 97.388C212.808 97.616 212.796 97.844 212.76 98.012H208.368C208.452 99.392 209.292 100.292 210.54 100.292C211.164 100.292 211.68 100.088 212.16 99.764L212.556 100.496C211.98 100.868 211.296 101.168 210.408 101.168ZM208.356 97.22H211.848C211.848 95.912 211.26 95.204 210.228 95.204C209.316 95.204 208.5 95.936 208.356 97.22ZM214.424 101V94.484H215.312L215.42 95.672H215.456C215.9 94.844 216.572 94.328 217.304 94.328C217.592 94.328 217.784 94.364 218 94.46L217.796 95.42C217.568 95.348 217.424 95.312 217.16 95.312C216.62 95.312 215.948 95.708 215.516 96.824V101H214.424ZM220.699 101.168C219.775 101.168 218.875 100.772 218.263 100.268L218.803 99.536C219.367 99.992 219.943 100.316 220.723 100.316C221.587 100.316 222.019 99.86 222.019 99.284C222.019 98.624 221.239 98.324 220.519 98.06C219.619 97.712 218.623 97.28 218.623 96.164C218.623 95.132 219.451 94.328 220.867 94.328C221.671 94.328 222.391 94.652 222.895 95.06L222.367 95.756C221.923 95.432 221.455 95.18 220.879 95.18C220.051 95.18 219.679 95.612 219.679 96.116C219.679 96.74 220.339 96.98 221.083 97.244C222.031 97.604 223.063 97.988 223.063 99.224C223.063 100.292 222.235 101.168 220.699 101.168Z" fill="#1E252C"/>
<path d="M238.444 62V53.204H241.192C242.98 53.204 244.264 53.852 244.264 55.676C244.264 57.44 242.98 58.28 241.192 58.28H239.56V62H238.444ZM239.56 57.38H241.036C242.404 57.38 243.16 56.816 243.16 55.676C243.16 54.524 242.404 54.116 241.036 54.116H239.56V57.38ZM243.28 62L240.976 57.98L241.84 57.404L244.528 62H243.28ZM248.429 62.168C246.689 62.168 245.309 60.896 245.309 58.76C245.309 56.636 246.737 55.328 248.237 55.328C249.893 55.328 250.829 56.516 250.829 58.388C250.829 58.616 250.817 58.844 250.781 59.012H246.389C246.473 60.392 247.313 61.292 248.561 61.292C249.185 61.292 249.701 61.088 250.181 60.764L250.577 61.496C250.001 61.868 249.317 62.168 248.429 62.168ZM246.377 58.22H249.869C249.869 56.912 249.281 56.204 248.249 56.204C247.337 56.204 246.521 56.936 246.377 58.22ZM255.302 62.168C254.702 62.168 254.018 61.856 253.454 61.328H253.418L253.31 62H252.446V52.46H253.538V55.064L253.49 56.24C254.09 55.724 254.81 55.328 255.542 55.328C257.222 55.328 258.134 56.636 258.134 58.64C258.134 60.872 256.802 62.168 255.302 62.168ZM255.134 61.244C256.202 61.244 257.006 60.272 257.006 58.664C257.006 57.212 256.514 56.24 255.278 56.24C254.726 56.24 254.15 56.552 253.538 57.14V60.572C254.102 61.064 254.702 61.244 255.134 61.244ZM261.141 62.168C260.049 62.168 259.233 61.484 259.233 60.308C259.233 58.892 260.457 58.184 263.229 57.872C263.229 57.032 262.965 56.228 261.897 56.228C261.129 56.228 260.445 56.588 259.941 56.936L259.509 56.168C260.109 55.784 261.021 55.328 262.065 55.328C263.661 55.328 264.333 56.384 264.333 58.004V62H263.433L263.337 61.232H263.289C262.677 61.748 261.945 62.168 261.141 62.168ZM261.441 61.28C262.077 61.28 262.605 60.98 263.229 60.416V58.604C261.033 58.856 260.301 59.396 260.301 60.236C260.301 60.98 260.805 61.28 261.441 61.28ZM266.403 62V55.484H267.291L267.399 56.672H267.435C267.879 55.844 268.551 55.328 269.283 55.328C269.571 55.328 269.763 55.364 269.979 55.46L269.775 56.42C269.547 56.348 269.403 56.312 269.139 56.312C268.599 56.312 267.927 56.708 267.495 57.824V62H266.403ZM276.295 62.168C274.567 62.168 273.247 60.908 273.247 58.76C273.247 56.576 274.711 55.328 276.379 55.328C277.231 55.328 277.831 55.676 278.287 56.096L277.735 56.816C277.351 56.468 276.943 56.24 276.439 56.24C275.239 56.24 274.375 57.248 274.375 58.76C274.375 60.248 275.203 61.256 276.403 61.256C276.991 61.256 277.531 60.968 277.939 60.608L278.407 61.34C277.831 61.856 277.075 62.168 276.295 62.168ZM282.072 62.168C280.464 62.168 279.048 60.908 279.048 58.76C279.048 56.576 280.464 55.328 282.072 55.328C283.668 55.328 285.084 56.576 285.084 58.76C285.084 60.908 283.668 62.168 282.072 62.168ZM282.072 61.256C283.2 61.256 283.956 60.248 283.956 58.76C283.956 57.248 283.2 56.24 282.072 56.24C280.932 56.24 280.176 57.248 280.176 58.76C280.176 60.248 280.932 61.256 282.072 61.256ZM288.139 62L285.787 55.484H286.915L288.151 59.204C288.343 59.84 288.547 60.5 288.751 61.112H288.799C289.003 60.5 289.207 59.84 289.399 59.204L290.647 55.484H291.715L289.411 62H288.139ZM295.539 62.168C293.799 62.168 292.419 60.896 292.419 58.76C292.419 56.636 293.847 55.328 295.347 55.328C297.003 55.328 297.939 56.516 297.939 58.388C297.939 58.616 297.927 58.844 297.891 59.012H293.499C293.583 60.392 294.423 61.292 295.671 61.292C296.295 61.292 296.811 61.088 297.291 60.764L297.687 61.496C297.111 61.868 296.427 62.168 295.539 62.168ZM293.487 58.22H296.979C296.979 56.912 296.391 56.204 295.359 56.204C294.447 56.204 293.631 56.936 293.487 58.22ZM299.555 62V55.484H300.443L300.551 56.672H300.587C301.031 55.844 301.703 55.328 302.435 55.328C302.723 55.328 302.915 55.364 303.131 55.46L302.927 56.42C302.699 56.348 302.555 56.312 302.291 56.312C301.751 56.312 301.079 56.708 300.647 57.824V62H299.555ZM308.391 62.168C307.299 62.168 306.483 61.484 306.483 60.308C306.483 58.892 307.707 58.184 310.479 57.872C310.479 57.032 310.215 56.228 309.147 56.228C308.379 56.228 307.695 56.588 307.191 56.936L306.759 56.168C307.359 55.784 308.271 55.328 309.315 55.328C310.911 55.328 311.583 56.384 311.583 58.004V62H310.683L310.587 61.232H310.539C309.927 61.748 309.195 62.168 308.391 62.168ZM308.691 61.28C309.327 61.28 309.855 60.98 310.479 60.416V58.604C308.283 58.856 307.551 59.396 307.551 60.236C307.551 60.98 308.055 61.28 308.691 61.28ZM315.482 62.168C314.09 62.168 313.634 61.292 313.634 59.996V56.372H312.662V55.556L313.682 55.484L313.802 53.648H314.726V55.484H316.49V56.372H314.726V60.02C314.726 60.812 314.978 61.28 315.734 61.28C315.962 61.28 316.262 61.184 316.466 61.1L316.682 61.916C316.322 62.048 315.89 62.168 315.482 62.168ZM323.205 62.168C321.477 62.168 320.157 60.908 320.157 58.76C320.157 56.576 321.621 55.328 323.289 55.328C324.141 55.328 324.741 55.676 325.197 56.096L324.645 56.816C324.261 56.468 323.853 56.24 323.349 56.24C322.149 56.24 321.285 57.248 321.285 58.76C321.285 60.248 322.113 61.256 323.313 61.256C323.901 61.256 324.441 60.968 324.849 60.608L325.317 61.34C324.741 61.856 323.985 62.168 323.205 62.168ZM328.982 62.168C327.374 62.168 325.958 60.908 325.958 58.76C325.958 56.576 327.374 55.328 328.982 55.328C330.578 55.328 331.994 56.576 331.994 58.76C331.994 60.908 330.578 62.168 328.982 62.168ZM328.982 61.256C330.11 61.256 330.866 60.248 330.866 58.76C330.866 57.248 330.11 56.24 328.982 56.24C327.842 56.24 327.086 57.248 327.086 58.76C327.086 60.248 327.842 61.256 328.982 61.256ZM333.727 62V55.484H334.615L334.723 56.672H334.759C335.203 55.844 335.875 55.328 336.607 55.328C336.895 55.328 337.087 55.364 337.303 55.46L337.099 56.42C336.871 56.348 336.727 56.312 336.463 56.312C335.923 56.312 335.251 56.708 334.819 57.824V62H333.727ZM340.843 62.168C339.103 62.168 337.723 60.896 337.723 58.76C337.723 56.636 339.151 55.328 340.651 55.328C342.307 55.328 343.243 56.516 343.243 58.388C343.243 58.616 343.231 58.844 343.195 59.012H338.803C338.887 60.392 339.727 61.292 340.975 61.292C341.599 61.292 342.115 61.088 342.595 60.764L342.991 61.496C342.415 61.868 341.731 62.168 340.843 62.168ZM338.791 58.22H342.283C342.283 56.912 341.695 56.204 340.663 56.204C339.751 56.204 338.935 56.936 338.791 58.22Z" fill="#1E252C"/>
<path opacity="0.2" d="M294 179.5C294 242.737 242.737 294 179.5 294C116.263 294 65 242.737 65 179.5C65 116.263 116.263 65 179.5 65C242.737 65 294 116.263 294 179.5ZM77.5233 179.5C77.5233 235.82 123.18 281.477 179.5 281.477C235.82 281.477 281.477 235.82 281.477 179.5C281.477 123.18 235.82 77.5233 179.5 77.5233C123.18 77.5233 77.5233 123.18 77.5233 179.5Z" fill="#2C59CE"/>
<path d="M84.5067 165.168C82.2867 165.168 80.7507 163.392 80.7507 160.572C80.7507 157.752 82.2867 156.048 84.5067 156.048C86.7147 156.048 88.2507 157.764 88.2507 160.572C88.2507 163.392 86.7147 165.168 84.5067 165.168ZM84.5067 164.244C86.0787 164.244 87.1227 162.828 87.1227 160.572C87.1227 158.376 86.0787 157.02 84.5067 157.02C82.9227 157.02 81.8907 158.376 81.8907 160.572C81.8907 162.828 82.9227 164.244 84.5067 164.244ZM87.1947 167.22C85.5147 167.22 84.3747 166.26 83.9067 164.976L85.0587 164.892C85.4067 165.816 86.2707 166.284 87.3147 166.284C87.7107 166.284 87.9987 166.236 88.2387 166.152L88.4547 167.016C88.1787 167.124 87.7227 167.22 87.1947 167.22ZM91.9609 165.168C90.5929 165.168 89.9689 164.28 89.9689 162.612V158.484H91.0609V162.48C91.0609 163.692 91.4329 164.208 92.2969 164.208C92.9569 164.208 93.4369 163.884 94.0489 163.116V158.484H95.1409V165H94.2409L94.1449 163.98H94.1209C93.5089 164.688 92.8609 165.168 91.9609 165.168ZM98.854 165.168C97.762 165.168 96.946 164.484 96.946 163.308C96.946 161.892 98.17 161.184 100.942 160.872C100.942 160.032 100.678 159.228 99.61 159.228C98.842 159.228 98.158 159.588 97.654 159.936L97.222 159.168C97.822 158.784 98.734 158.328 99.778 158.328C101.374 158.328 102.046 159.384 102.046 161.004V165H101.146L101.05 164.232H101.002C100.39 164.748 99.658 165.168 98.854 165.168ZM99.154 164.28C99.79 164.28 100.318 163.98 100.942 163.416V161.604C98.746 161.856 98.014 162.396 98.014 163.236C98.014 163.98 98.518 164.28 99.154 164.28ZM104.116 165V158.484H105.004L105.112 159.432H105.148C105.76 158.82 106.432 158.328 107.332 158.328C108.7 158.328 109.324 159.216 109.324 160.872V165H108.22V161.016C108.22 159.792 107.848 159.276 106.984 159.276C106.324 159.276 105.856 159.624 105.208 160.272V165H104.116ZM113.48 165.168C112.088 165.168 111.632 164.292 111.632 162.996V159.372H110.66V158.556L111.68 158.484L111.8 156.648H112.724V158.484H114.488V159.372H112.724V163.02C112.724 163.812 112.976 164.28 113.732 164.28C113.96 164.28 114.26 164.184 114.464 164.1L114.68 164.916C114.32 165.048 113.888 165.168 113.48 165.168ZM115.963 165V158.484H117.055V165H115.963ZM116.515 157.14C116.083 157.14 115.783 156.864 115.783 156.408C115.783 155.988 116.083 155.712 116.515 155.712C116.935 155.712 117.247 155.988 117.247 156.408C117.247 156.864 116.935 157.14 116.515 157.14ZM121.308 165.168C119.916 165.168 119.46 164.292 119.46 162.996V159.372H118.488V158.556L119.508 158.484L119.628 156.648H120.552V158.484H122.316V159.372H120.552V163.02C120.552 163.812 120.804 164.28 121.56 164.28C121.788 164.28 122.088 164.184 122.292 164.1L122.508 164.916C122.148 165.048 121.716 165.168 121.308 165.168ZM123.888 167.82C123.588 167.82 123.336 167.772 123.132 167.688L123.348 166.812C123.468 166.86 123.66 166.908 123.84 166.908C124.572 166.908 125.04 166.308 125.316 165.504L125.46 165.012L122.844 158.484H123.972L125.304 162.108C125.508 162.684 125.724 163.344 125.94 163.944H126C126.18 163.344 126.372 162.696 126.54 162.108L127.716 158.484H128.784L126.324 165.552C125.868 166.836 125.196 167.82 123.888 167.82Z" fill="#CE2C3F"/>
<path d="M289.477 133V124.204H294.541V125.14H290.593V128.128H293.941V129.052H290.593V133H289.477ZM296.002 133V126.484H297.094V133H296.002ZM296.554 125.14C296.122 125.14 295.822 124.864 295.822 124.408C295.822 123.988 296.122 123.712 296.554 123.712C296.974 123.712 297.286 123.988 297.286 124.408C297.286 124.864 296.974 125.14 296.554 125.14ZM299.307 133V126.484H300.195L300.303 127.672H300.339C300.783 126.844 301.455 126.328 302.187 126.328C302.475 126.328 302.667 126.364 302.883 126.46L302.679 127.42C302.451 127.348 302.307 127.312 302.043 127.312C301.503 127.312 300.831 127.708 300.399 128.824V133H299.307ZM305.581 133.168C304.657 133.168 303.757 132.772 303.145 132.268L303.685 131.536C304.249 131.992 304.825 132.316 305.605 132.316C306.469 132.316 306.901 131.86 306.901 131.284C306.901 130.624 306.121 130.324 305.401 130.06C304.501 129.712 303.505 129.28 303.505 128.164C303.505 127.132 304.333 126.328 305.749 126.328C306.553 126.328 307.273 126.652 307.777 127.06L307.249 127.756C306.805 127.432 306.337 127.18 305.761 127.18C304.933 127.18 304.561 127.612 304.561 128.116C304.561 128.74 305.221 128.98 305.965 129.244C306.913 129.604 307.945 129.988 307.945 131.224C307.945 132.292 307.117 133.168 305.581 133.168ZM311.226 133.168C309.834 133.168 309.378 132.292 309.378 130.996V127.372H308.406V126.556L309.426 126.484L309.546 124.648H310.47V126.484H312.234V127.372H310.47V131.02C310.47 131.812 310.722 132.28 311.478 132.28C311.706 132.28 312.006 132.184 312.21 132.1L312.426 132.916C312.066 133.048 311.634 133.168 311.226 133.168ZM316.489 133V124.204H317.605V132.064H321.445V133H316.489ZM324.409 133.168C323.317 133.168 322.501 132.484 322.501 131.308C322.501 129.892 323.725 129.184 326.497 128.872C326.497 128.032 326.233 127.228 325.165 127.228C324.397 127.228 323.713 127.588 323.209 127.936L322.777 127.168C323.377 126.784 324.289 126.328 325.333 126.328C326.929 126.328 327.601 127.384 327.601 129.004V133H326.701L326.605 132.232H326.557C325.945 132.748 325.213 133.168 324.409 133.168ZM324.709 132.28C325.345 132.28 325.873 131.98 326.497 131.416V129.604C324.301 129.856 323.569 130.396 323.569 131.236C323.569 131.98 324.073 132.28 324.709 132.28ZM329.766 135.82C329.466 135.82 329.214 135.772 329.01 135.688L329.226 134.812C329.346 134.86 329.538 134.908 329.718 134.908C330.45 134.908 330.918 134.308 331.194 133.504L331.338 133.012L328.722 126.484H329.85L331.182 130.108C331.386 130.684 331.602 131.344 331.818 131.944H331.878C332.058 131.344 332.25 130.696 332.418 130.108L333.594 126.484H334.662L332.202 133.552C331.746 134.836 331.074 135.82 329.766 135.82ZM338.474 133.168C336.734 133.168 335.354 131.896 335.354 129.76C335.354 127.636 336.782 126.328 338.282 126.328C339.938 126.328 340.874 127.516 340.874 129.388C340.874 129.616 340.862 129.844 340.826 130.012H336.434C336.518 131.392 337.358 132.292 338.606 132.292C339.23 132.292 339.746 132.088 340.226 131.764L340.622 132.496C340.046 132.868 339.362 133.168 338.474 133.168ZM336.422 129.22H339.914C339.914 127.912 339.326 127.204 338.294 127.204C337.382 127.204 336.566 127.936 336.422 129.22ZM342.491 133V126.484H343.379L343.487 127.672H343.523C343.967 126.844 344.639 126.328 345.371 126.328C345.659 126.328 345.851 126.364 346.067 126.46L345.863 127.42C345.635 127.348 345.491 127.312 345.227 127.312C344.687 127.312 344.015 127.708 343.583 128.824V133H342.491ZM298.507 150.168C296.287 150.168 294.751 148.392 294.751 145.572C294.751 142.752 296.287 141.048 298.507 141.048C300.715 141.048 302.251 142.764 302.251 145.572C302.251 148.392 300.715 150.168 298.507 150.168ZM298.507 149.244C300.079 149.244 301.123 147.828 301.123 145.572C301.123 143.376 300.079 142.02 298.507 142.02C296.923 142.02 295.891 143.376 295.891 145.572C295.891 147.828 296.923 149.244 298.507 149.244ZM301.195 152.22C299.515 152.22 298.375 151.26 297.907 149.976L299.059 149.892C299.407 150.816 300.271 151.284 301.315 151.284C301.711 151.284 301.999 151.236 302.239 151.152L302.455 152.016C302.179 152.124 301.723 152.22 301.195 152.22ZM305.961 150.168C304.593 150.168 303.969 149.28 303.969 147.612V143.484H305.061V147.48C305.061 148.692 305.433 149.208 306.297 149.208C306.957 149.208 307.437 148.884 308.049 148.116V143.484H309.141V150H308.241L308.145 148.98H308.121C307.509 149.688 306.861 150.168 305.961 150.168ZM312.854 150.168C311.762 150.168 310.946 149.484 310.946 148.308C310.946 146.892 312.17 146.184 314.942 145.872C314.942 145.032 314.678 144.228 313.61 144.228C312.842 144.228 312.158 144.588 311.654 144.936L311.222 144.168C311.822 143.784 312.734 143.328 313.778 143.328C315.374 143.328 316.046 144.384 316.046 146.004V150H315.146L315.05 149.232H315.002C314.39 149.748 313.658 150.168 312.854 150.168ZM313.154 149.28C313.79 149.28 314.318 148.98 314.942 148.416V146.604C312.746 146.856 312.014 147.396 312.014 148.236C312.014 148.98 312.518 149.28 313.154 149.28ZM318.116 150V143.484H319.004L319.112 144.432H319.148C319.76 143.82 320.432 143.328 321.332 143.328C322.7 143.328 323.324 144.216 323.324 145.872V150H322.22V146.016C322.22 144.792 321.848 144.276 320.984 144.276C320.324 144.276 319.856 144.624 319.208 145.272V150H318.116ZM327.48 150.168C326.088 150.168 325.632 149.292 325.632 147.996V144.372H324.66V143.556L325.68 143.484L325.8 141.648H326.724V143.484H328.488V144.372H326.724V148.02C326.724 148.812 326.976 149.28 327.732 149.28C327.96 149.28 328.26 149.184 328.464 149.1L328.68 149.916C328.32 150.048 327.888 150.168 327.48 150.168ZM329.963 150V143.484H331.055V150H329.963ZM330.515 142.14C330.083 142.14 329.783 141.864 329.783 141.408C329.783 140.988 330.083 140.712 330.515 140.712C330.935 140.712 331.247 140.988 331.247 141.408C331.247 141.864 330.935 142.14 330.515 142.14ZM335.308 150.168C333.916 150.168 333.46 149.292 333.46 147.996V144.372H332.488V143.556L333.508 143.484L333.628 141.648H334.552V143.484H336.316V144.372H334.552V148.02C334.552 148.812 334.804 149.28 335.56 149.28C335.788 149.28 336.088 149.184 336.292 149.1L336.508 149.916C336.148 150.048 335.716 150.168 335.308 150.168ZM337.888 152.82C337.588 152.82 337.336 152.772 337.132 152.688L337.348 151.812C337.468 151.86 337.66 151.908 337.84 151.908C338.572 151.908 339.04 151.308 339.316 150.504L339.46 150.012L336.844 143.484H337.972L339.304 147.108C339.508 147.684 339.724 148.344 339.94 148.944H340C340.18 148.344 340.372 147.696 340.54 147.108L341.716 143.484H342.784L340.324 150.552C339.868 151.836 339.196 152.82 337.888 152.82Z" fill="#2C59CE"/>
</svg>
