<svg width="360" height="328" viewBox="0 0 360 328" fill="none" xmlns="http://www.w3.org/2000/svg">
<rect width="360" height="328" fill="white"/>
<rect x="82.4017" y="84.5391" width="175.631" height="151.723" fill="#D9D9D9"/>
<path d="M82.8614 236.262C62.7417 236.262 43.4461 228.269 29.2193 214.043C14.9925 199.816 7 180.52 7 160.401C7 140.281 14.9925 120.985 29.2193 106.758C43.4461 92.5316 62.7417 84.5391 82.8614 84.5391V160.401V236.262Z" fill="#D9D9D9"/>
<path d="M83 217C68.4131 217 54.4236 211.282 44.1091 201.104C33.7946 190.925 28 177.12 28 162.726C28 148.332 33.7946 134.527 44.1091 124.349C54.4236 114.17 68.4131 108 83 108" stroke="#1E252C" stroke-width="0.459766" stroke-dasharray="1.84 1.84"/>
<path d="M257.573 84.5408C277.692 84.5408 296.988 92.5333 311.215 106.76C325.442 120.987 333.434 140.283 333.434 160.402C333.434 180.522 325.442 199.818 311.215 214.044C296.988 228.271 277.692 236.264 257.573 236.264L257.573 160.402L257.573 84.5408Z" fill="#D9D9D9"/>
<path d="M258 108C272.587 108 286.576 113.718 296.891 123.896C307.205 134.075 313 147.88 313 162.274C313 176.668 307.205 190.473 296.891 200.651C286.576 210.83 272.587 217 258 217" stroke="#1E252C" stroke-width="0.459766" stroke-dasharray="1.84 1.84"/>
<circle cx="99.8727" cy="107.528" r="3.67813" fill="#1E252C"/>
<circle cx="28.1493" cy="162.7" r="3.67813" fill="white"/>
<circle cx="313.204" cy="162.7" r="3.67813" fill="white"/>
<circle cx="297.572" cy="124.08" r="3.67813" fill="white"/>
<circle cx="43.7814" cy="200.401" r="3.67813" fill="white"/>
<circle cx="43.7814" cy="124.08" r="3.67813" fill="white"/>
<circle cx="240.561" cy="107.528" r="3.67813" fill="#1E252C"/>
<circle cx="169.757" cy="107.528" r="3.67813" fill="#1E252C"/>
<circle cx="133.896" cy="107.528" r="3.67813" fill="#1E252C"/>
<circle cx="169.757" cy="124.08" r="3.67813" fill="#1E252C"/>
<circle cx="99.8727" cy="124.08" r="3.67813" fill="#1E252C"/>
<circle cx="240.561" cy="124.08" r="3.67813" fill="#1E252C"/>
<circle cx="205.619" cy="107.528" r="3.67813" fill="#1E252C"/>
<line x1="82" y1="107.77" x2="257.631" y2="107.77" stroke="#1E252C" stroke-width="0.46" stroke-dasharray="1.84 1.84"/>
<line x1="82.6316" y1="70.7461" x2="82.6316" y2="249.135" stroke="#1E252C" stroke-width="0.459766" stroke-dasharray="1.84 1.84"/>
<line x1="259.182" y1="70.7461" x2="259.182" y2="249.135" stroke="#1E252C" stroke-width="0.459766" stroke-dasharray="1.84 1.84"/>
<line x1="100" y1="77.75" x2="134.023" y2="77.75" stroke="#1E252C" stroke-width="0.5"/>
<line x1="249" y1="107.75" x2="286" y2="107.75" stroke="#1E252C" stroke-width="0.5"/>
<line x1="259" y1="84.75" x2="286" y2="84.75" stroke="#1E252C" stroke-width="0.5"/>
<line x1="249" y1="124.75" x2="286" y2="124.75" stroke="#1E252C" stroke-width="0.5"/>
<line x1="282.75" y1="124" x2="282.75" y2="85" stroke="#1E252C" stroke-width="0.5"/>
<path d="M287.2 119V110.204H288.316V119H287.2ZM290.62 119V112.484H291.508L291.616 113.432H291.652C292.264 112.82 292.936 112.328 293.836 112.328C295.204 112.328 295.828 113.216 295.828 114.872V119H294.724V115.016C294.724 113.792 294.352 113.276 293.488 113.276C292.828 113.276 292.36 113.624 291.712 114.272V119H290.62ZM299.984 119.168C298.592 119.168 298.136 118.292 298.136 116.996V113.372H297.164V112.556L298.184 112.484L298.304 110.648H299.228V112.484H300.992V113.372H299.228V117.02C299.228 117.812 299.48 118.28 300.236 118.28C300.464 118.28 300.764 118.184 300.968 118.1L301.184 118.916C300.824 119.048 300.392 119.168 299.984 119.168ZM304.884 119.168C303.144 119.168 301.764 117.896 301.764 115.76C301.764 113.636 303.192 112.328 304.692 112.328C306.348 112.328 307.284 113.516 307.284 115.388C307.284 115.616 307.272 115.844 307.236 116.012H302.844C302.928 117.392 303.768 118.292 305.016 118.292C305.64 118.292 306.156 118.088 306.636 117.764L307.032 118.496C306.456 118.868 305.772 119.168 304.884 119.168ZM302.832 115.22H306.324C306.324 113.912 305.736 113.204 304.704 113.204C303.792 113.204 302.976 113.936 302.832 115.22ZM308.901 119V112.484H309.789L309.897 113.672H309.933C310.377 112.844 311.049 112.328 311.781 112.328C312.069 112.328 312.261 112.364 312.477 112.46L312.273 113.42C312.045 113.348 311.901 113.312 311.637 113.312C311.097 113.312 310.425 113.708 309.993 114.824V119H308.901ZM315.262 119L312.91 112.484H314.038L315.274 116.204C315.466 116.84 315.67 117.5 315.874 118.112H315.922C316.126 117.5 316.33 116.84 316.522 116.204L317.77 112.484H318.838L316.534 119H315.262ZM321.311 119.168C320.219 119.168 319.403 118.484 319.403 117.308C319.403 115.892 320.627 115.184 323.399 114.872C323.399 114.032 323.135 113.228 322.067 113.228C321.299 113.228 320.615 113.588 320.111 113.936L319.679 113.168C320.279 112.784 321.191 112.328 322.235 112.328C323.831 112.328 324.503 113.384 324.503 115.004V119H323.603L323.507 118.232H323.459C322.847 118.748 322.115 119.168 321.311 119.168ZM321.611 118.28C322.247 118.28 322.775 117.98 323.399 117.416V115.604C321.203 115.856 320.471 116.396 320.471 117.236C320.471 117.98 320.975 118.28 321.611 118.28ZM327.725 119.168C326.897 119.168 326.573 118.64 326.573 117.704V109.46H327.665V117.776C327.665 118.124 327.809 118.256 327.977 118.256C328.025 118.256 328.073 118.256 328.205 118.232L328.349 119.072C328.193 119.12 328.025 119.168 327.725 119.168ZM287.2 131V122.204H289.804C291.592 122.204 292.828 122.816 292.828 124.364C292.828 125.228 292.372 125.996 291.544 126.272V126.32C292.6 126.524 293.332 127.232 293.332 128.432C293.332 130.148 291.964 131 290.008 131H287.2ZM288.316 125.948H289.612C291.124 125.948 291.736 125.396 291.736 124.496C291.736 123.464 291.04 123.08 289.672 123.08H288.316V125.948ZM288.316 130.124H289.852C291.352 130.124 292.252 129.584 292.252 128.396C292.252 127.304 291.388 126.8 289.852 126.8H288.316V130.124ZM297.619 131.168C295.879 131.168 294.499 129.896 294.499 127.76C294.499 125.636 295.927 124.328 297.427 124.328C299.083 124.328 300.019 125.516 300.019 127.388C300.019 127.616 300.007 127.844 299.971 128.012H295.579C295.663 129.392 296.503 130.292 297.751 130.292C298.375 130.292 298.891 130.088 299.371 129.764L299.767 130.496C299.191 130.868 298.507 131.168 297.619 131.168ZM295.567 127.22H299.059C299.059 125.912 298.471 125.204 297.439 125.204C296.527 125.204 295.711 125.936 295.567 127.22ZM303.511 131.168C302.119 131.168 301.663 130.292 301.663 128.996V125.372H300.691V124.556L301.711 124.484L301.831 122.648H302.755V124.484H304.519V125.372H302.755V129.02C302.755 129.812 303.007 130.28 303.763 130.28C303.991 130.28 304.291 130.184 304.495 130.1L304.711 130.916C304.351 131.048 303.919 131.168 303.511 131.168ZM307.027 131L305.203 124.484H306.319L307.303 128.264C307.435 128.888 307.555 129.464 307.675 130.076H307.735C307.879 129.464 308.011 128.876 308.179 128.264L309.187 124.484H310.255L311.287 128.264C311.443 128.888 311.587 129.464 311.743 130.076H311.791C311.923 129.464 312.043 128.888 312.199 128.264L313.147 124.484H314.191L312.439 131H311.107L310.159 127.496C309.991 126.872 309.871 126.284 309.715 125.612H309.655C309.523 126.284 309.391 126.884 309.211 127.508L308.299 131H307.027ZM318.162 131.168C316.422 131.168 315.042 129.896 315.042 127.76C315.042 125.636 316.47 124.328 317.97 124.328C319.626 124.328 320.562 125.516 320.562 127.388C320.562 127.616 320.55 127.844 320.514 128.012H316.122C316.206 129.392 317.046 130.292 318.294 130.292C318.918 130.292 319.434 130.088 319.914 129.764L320.31 130.496C319.734 130.868 319.05 131.168 318.162 131.168ZM316.11 127.22H319.602C319.602 125.912 319.014 125.204 317.982 125.204C317.07 125.204 316.254 125.936 316.11 127.22ZM324.806 131.168C323.066 131.168 321.686 129.896 321.686 127.76C321.686 125.636 323.114 124.328 324.614 124.328C326.27 124.328 327.206 125.516 327.206 127.388C327.206 127.616 327.194 127.844 327.158 128.012H322.766C322.85 129.392 323.69 130.292 324.938 130.292C325.562 130.292 326.078 130.088 326.558 129.764L326.954 130.496C326.378 130.868 325.694 131.168 324.806 131.168ZM322.754 127.22H326.246C326.246 125.912 325.658 125.204 324.626 125.204C323.714 125.204 322.898 125.936 322.754 127.22ZM328.823 131V124.484H329.711L329.819 125.432H329.855C330.467 124.82 331.139 124.328 332.039 124.328C333.407 124.328 334.031 125.216 334.031 126.872V131H332.927V127.016C332.927 125.792 332.555 125.276 331.691 125.276C331.031 125.276 330.563 125.624 329.915 126.272V131H328.823ZM287.2 143V134.204H288.316V142.064H292.156V143H287.2ZM295.12 143.168C294.028 143.168 293.212 142.484 293.212 141.308C293.212 139.892 294.436 139.184 297.208 138.872C297.208 138.032 296.944 137.228 295.876 137.228C295.108 137.228 294.424 137.588 293.92 137.936L293.488 137.168C294.088 136.784 295 136.328 296.044 136.328C297.64 136.328 298.312 137.384 298.312 139.004V143H297.412L297.316 142.232H297.268C296.656 142.748 295.924 143.168 295.12 143.168ZM295.42 142.28C296.056 142.28 296.584 141.98 297.208 141.416V139.604C295.012 139.856 294.28 140.396 294.28 141.236C294.28 141.98 294.784 142.28 295.42 142.28ZM300.477 145.82C300.177 145.82 299.925 145.772 299.721 145.688L299.937 144.812C300.057 144.86 300.249 144.908 300.429 144.908C301.161 144.908 301.629 144.308 301.905 143.504L302.049 143.012L299.433 136.484H300.561L301.893 140.108C302.097 140.684 302.313 141.344 302.529 141.944H302.589C302.769 141.344 302.961 140.696 303.129 140.108L304.305 136.484H305.373L302.913 143.552C302.457 144.836 301.785 145.82 300.477 145.82ZM309.185 143.168C307.445 143.168 306.065 141.896 306.065 139.76C306.065 137.636 307.493 136.328 308.993 136.328C310.649 136.328 311.585 137.516 311.585 139.388C311.585 139.616 311.573 139.844 311.537 140.012H307.145C307.229 141.392 308.069 142.292 309.317 142.292C309.941 142.292 310.457 142.088 310.937 141.764L311.333 142.496C310.757 142.868 310.073 143.168 309.185 143.168ZM307.133 139.22H310.625C310.625 137.912 310.037 137.204 309.005 137.204C308.093 137.204 307.277 137.936 307.133 139.22ZM313.202 143V136.484H314.09L314.198 137.672H314.234C314.678 136.844 315.35 136.328 316.082 136.328C316.37 136.328 316.562 136.364 316.778 136.46L316.574 137.42C316.346 137.348 316.202 137.312 315.938 137.312C315.398 137.312 314.726 137.708 314.294 138.824V143H313.202ZM319.476 143.168C318.552 143.168 317.652 142.772 317.04 142.268L317.58 141.536C318.144 141.992 318.72 142.316 319.5 142.316C320.364 142.316 320.796 141.86 320.796 141.284C320.796 140.624 320.016 140.324 319.296 140.06C318.396 139.712 317.4 139.28 317.4 138.164C317.4 137.132 318.228 136.328 319.644 136.328C320.448 136.328 321.168 136.652 321.672 137.06L321.144 137.756C320.7 137.432 320.232 137.18 319.656 137.18C318.828 137.18 318.456 137.612 318.456 138.116C318.456 138.74 319.116 138.98 319.86 139.244C320.808 139.604 321.84 139.988 321.84 141.224C321.84 142.292 321.012 143.168 319.476 143.168Z" fill="#1E252C"/>
<path d="M18.4773 87V78.204H23.5413V79.14H19.5933V82.128H22.9413V83.052H19.5933V87H18.4773ZM25.0024 87V80.484H26.0944V87H25.0024ZM25.5544 79.14C25.1224 79.14 24.8224 78.864 24.8224 78.408C24.8224 77.988 25.1224 77.712 25.5544 77.712C25.9744 77.712 26.2864 77.988 26.2864 78.408C26.2864 78.864 25.9744 79.14 25.5544 79.14ZM28.3071 87V80.484H29.1951L29.3031 81.672H29.3391C29.7831 80.844 30.4551 80.328 31.1871 80.328C31.4751 80.328 31.6671 80.364 31.8831 80.46L31.6791 81.42C31.4511 81.348 31.3071 81.312 31.0431 81.312C30.5031 81.312 29.8311 81.708 29.3991 82.824V87H28.3071ZM34.5814 87.168C33.6574 87.168 32.7574 86.772 32.1454 86.268L32.6854 85.536C33.2494 85.992 33.8254 86.316 34.6054 86.316C35.4694 86.316 35.9014 85.86 35.9014 85.284C35.9014 84.624 35.1214 84.324 34.4014 84.06C33.5014 83.712 32.5054 83.28 32.5054 82.164C32.5054 81.132 33.3334 80.328 34.7494 80.328C35.5534 80.328 36.2734 80.652 36.7774 81.06L36.2494 81.756C35.8054 81.432 35.3374 81.18 34.7614 81.18C33.9334 81.18 33.5614 81.612 33.5614 82.116C33.5614 82.74 34.2214 82.98 34.9654 83.244C35.9134 83.604 36.9454 83.988 36.9454 85.224C36.9454 86.292 36.1174 87.168 34.5814 87.168ZM40.226 87.168C38.834 87.168 38.378 86.292 38.378 84.996V81.372H37.406V80.556L38.426 80.484L38.546 78.648H39.47V80.484H41.234V81.372H39.47V85.02C39.47 85.812 39.722 86.28 40.478 86.28C40.706 86.28 41.006 86.184 41.21 86.1L41.426 86.916C41.066 87.048 40.634 87.168 40.226 87.168ZM45.4891 87V78.204H46.6051V86.064H50.4451V87H45.4891ZM53.4087 87.168C52.3167 87.168 51.5007 86.484 51.5007 85.308C51.5007 83.892 52.7247 83.184 55.4967 82.872C55.4967 82.032 55.2327 81.228 54.1647 81.228C53.3967 81.228 52.7127 81.588 52.2087 81.936L51.7767 81.168C52.3767 80.784 53.2887 80.328 54.3327 80.328C55.9287 80.328 56.6007 81.384 56.6007 83.004V87H55.7007L55.6047 86.232H55.5567C54.9447 86.748 54.2127 87.168 53.4087 87.168ZM53.7087 86.28C54.3447 86.28 54.8727 85.98 55.4967 85.416V83.604C53.3007 83.856 52.5687 84.396 52.5687 85.236C52.5687 85.98 53.0727 86.28 53.7087 86.28ZM58.7664 89.82C58.4664 89.82 58.2144 89.772 58.0104 89.688L58.2264 88.812C58.3464 88.86 58.5384 88.908 58.7184 88.908C59.4504 88.908 59.9184 88.308 60.1944 87.504L60.3384 87.012L57.7224 80.484H58.8504L60.1824 84.108C60.3864 84.684 60.6024 85.344 60.8184 85.944H60.8784C61.0584 85.344 61.2504 84.696 61.4184 84.108L62.5944 80.484H63.6624L61.2024 87.552C60.7464 88.836 60.0744 89.82 58.7664 89.82ZM67.4742 87.168C65.7342 87.168 64.3542 85.896 64.3542 83.76C64.3542 81.636 65.7822 80.328 67.2822 80.328C68.9382 80.328 69.8742 81.516 69.8742 83.388C69.8742 83.616 69.8622 83.844 69.8262 84.012H65.4342C65.5182 85.392 66.3582 86.292 67.6062 86.292C68.2302 86.292 68.7462 86.088 69.2262 85.764L69.6222 86.496C69.0462 86.868 68.3622 87.168 67.4742 87.168ZM65.4222 83.22H68.9142C68.9142 81.912 68.3262 81.204 67.2942 81.204C66.3822 81.204 65.5662 81.936 65.4222 83.22ZM71.4907 87V80.484H72.3787L72.4867 81.672H72.5227C72.9667 80.844 73.6387 80.328 74.3707 80.328C74.6587 80.328 74.8507 80.364 75.0667 80.46L74.8627 81.42C74.6347 81.348 74.4907 81.312 74.2267 81.312C73.6867 81.312 73.0147 81.708 72.5827 82.824V87H71.4907ZM27.5067 104.168C25.2867 104.168 23.7507 102.392 23.7507 99.572C23.7507 96.752 25.2867 95.048 27.5067 95.048C29.7147 95.048 31.2507 96.764 31.2507 99.572C31.2507 102.392 29.7147 104.168 27.5067 104.168ZM27.5067 103.244C29.0787 103.244 30.1227 101.828 30.1227 99.572C30.1227 97.376 29.0787 96.02 27.5067 96.02C25.9227 96.02 24.8907 97.376 24.8907 99.572C24.8907 101.828 25.9227 103.244 27.5067 103.244ZM30.1947 106.22C28.5147 106.22 27.3747 105.26 26.9067 103.976L28.0587 103.892C28.4067 104.816 29.2707 105.284 30.3147 105.284C30.7107 105.284 30.9987 105.236 31.2387 105.152L31.4547 106.016C31.1787 106.124 30.7227 106.22 30.1947 106.22ZM34.9609 104.168C33.5929 104.168 32.9689 103.28 32.9689 101.612V97.484H34.0609V101.48C34.0609 102.692 34.4329 103.208 35.2969 103.208C35.9569 103.208 36.4369 102.884 37.0489 102.116V97.484H38.1409V104H37.2409L37.1449 102.98H37.1209C36.5089 103.688 35.8609 104.168 34.9609 104.168ZM41.854 104.168C40.762 104.168 39.946 103.484 39.946 102.308C39.946 100.892 41.17 100.184 43.942 99.872C43.942 99.032 43.678 98.228 42.61 98.228C41.842 98.228 41.158 98.588 40.654 98.936L40.222 98.168C40.822 97.784 41.734 97.328 42.778 97.328C44.374 97.328 45.046 98.384 45.046 100.004V104H44.146L44.05 103.232H44.002C43.39 103.748 42.658 104.168 41.854 104.168ZM42.154 103.28C42.79 103.28 43.318 102.98 43.942 102.416V100.604C41.746 100.856 41.014 101.396 41.014 102.236C41.014 102.98 41.518 103.28 42.154 103.28ZM47.1157 104V97.484H48.0037L48.1117 98.432H48.1477C48.7597 97.82 49.4317 97.328 50.3317 97.328C51.6997 97.328 52.3237 98.216 52.3237 99.872V104H51.2197V100.016C51.2197 98.792 50.8477 98.276 49.9837 98.276C49.3237 98.276 48.8557 98.624 48.2077 99.272V104H47.1157ZM56.4799 104.168C55.0879 104.168 54.6319 103.292 54.6319 101.996V98.372H53.6599V97.556L54.6799 97.484L54.7999 95.648H55.7239V97.484H57.4879V98.372H55.7239V102.02C55.7239 102.812 55.9759 103.28 56.7319 103.28C56.9599 103.28 57.2599 103.184 57.4639 103.1L57.6799 103.916C57.3199 104.048 56.8879 104.168 56.4799 104.168ZM58.9634 104V97.484H60.0554V104H58.9634ZM59.5154 96.14C59.0834 96.14 58.7834 95.864 58.7834 95.408C58.7834 94.988 59.0834 94.712 59.5154 94.712C59.9354 94.712 60.2474 94.988 60.2474 95.408C60.2474 95.864 59.9354 96.14 59.5154 96.14ZM64.3081 104.168C62.9161 104.168 62.4601 103.292 62.4601 101.996V98.372H61.4881V97.556L62.5081 97.484L62.6281 95.648H63.5521V97.484H65.3161V98.372H63.5521V102.02C63.5521 102.812 63.8041 103.28 64.5601 103.28C64.7881 103.28 65.0881 103.184 65.2921 103.1L65.5081 103.916C65.1481 104.048 64.7161 104.168 64.3081 104.168ZM66.8875 106.82C66.5875 106.82 66.3355 106.772 66.1315 106.688L66.3475 105.812C66.4675 105.86 66.6595 105.908 66.8395 105.908C67.5715 105.908 68.0395 105.308 68.3155 104.504L68.4595 104.012L65.8435 97.484H66.9715L68.3035 101.108C68.5075 101.684 68.7235 102.344 68.9395 102.944H68.9995C69.1795 102.344 69.3715 101.696 69.5395 101.108L70.7155 97.484H71.7835L69.3235 104.552C68.8675 105.836 68.1955 106.82 66.8875 106.82Z" fill="#2C59CE"/>
<path d="M18.4773 227V218.204H23.5413V219.14H19.5933V222.128H22.9413V223.052H19.5933V227H18.4773ZM25.0024 227V220.484H26.0944V227H25.0024ZM25.5544 219.14C25.1224 219.14 24.8224 218.864 24.8224 218.408C24.8224 217.988 25.1224 217.712 25.5544 217.712C25.9744 217.712 26.2864 217.988 26.2864 218.408C26.2864 218.864 25.9744 219.14 25.5544 219.14ZM28.3071 227V220.484H29.1951L29.3031 221.672H29.3391C29.7831 220.844 30.4551 220.328 31.1871 220.328C31.4751 220.328 31.6671 220.364 31.8831 220.46L31.6791 221.42C31.4511 221.348 31.3071 221.312 31.0431 221.312C30.5031 221.312 29.8311 221.708 29.3991 222.824V227H28.3071ZM34.5814 227.168C33.6574 227.168 32.7574 226.772 32.1454 226.268L32.6854 225.536C33.2494 225.992 33.8254 226.316 34.6054 226.316C35.4694 226.316 35.9014 225.86 35.9014 225.284C35.9014 224.624 35.1214 224.324 34.4014 224.06C33.5014 223.712 32.5054 223.28 32.5054 222.164C32.5054 221.132 33.3334 220.328 34.7494 220.328C35.5534 220.328 36.2734 220.652 36.7774 221.06L36.2494 221.756C35.8054 221.432 35.3374 221.18 34.7614 221.18C33.9334 221.18 33.5614 221.612 33.5614 222.116C33.5614 222.74 34.2214 222.98 34.9654 223.244C35.9134 223.604 36.9454 223.988 36.9454 225.224C36.9454 226.292 36.1174 227.168 34.5814 227.168ZM40.226 227.168C38.834 227.168 38.378 226.292 38.378 224.996V221.372H37.406V220.556L38.426 220.484L38.546 218.648H39.47V220.484H41.234V221.372H39.47V225.02C39.47 225.812 39.722 226.28 40.478 226.28C40.706 226.28 41.006 226.184 41.21 226.1L41.426 226.916C41.066 227.048 40.634 227.168 40.226 227.168ZM45.4891 227V218.204H46.6051V226.064H50.4451V227H45.4891ZM53.4087 227.168C52.3167 227.168 51.5007 226.484 51.5007 225.308C51.5007 223.892 52.7247 223.184 55.4967 222.872C55.4967 222.032 55.2327 221.228 54.1647 221.228C53.3967 221.228 52.7127 221.588 52.2087 221.936L51.7767 221.168C52.3767 220.784 53.2887 220.328 54.3327 220.328C55.9287 220.328 56.6007 221.384 56.6007 223.004V227H55.7007L55.6047 226.232H55.5567C54.9447 226.748 54.2127 227.168 53.4087 227.168ZM53.7087 226.28C54.3447 226.28 54.8727 225.98 55.4967 225.416V223.604C53.3007 223.856 52.5687 224.396 52.5687 225.236C52.5687 225.98 53.0727 226.28 53.7087 226.28ZM58.7664 229.82C58.4664 229.82 58.2144 229.772 58.0104 229.688L58.2264 228.812C58.3464 228.86 58.5384 228.908 58.7184 228.908C59.4504 228.908 59.9184 228.308 60.1944 227.504L60.3384 227.012L57.7224 220.484H58.8504L60.1824 224.108C60.3864 224.684 60.6024 225.344 60.8184 225.944H60.8784C61.0584 225.344 61.2504 224.696 61.4184 224.108L62.5944 220.484H63.6624L61.2024 227.552C60.7464 228.836 60.0744 229.82 58.7664 229.82ZM67.4742 227.168C65.7342 227.168 64.3542 225.896 64.3542 223.76C64.3542 221.636 65.7822 220.328 67.2822 220.328C68.9382 220.328 69.8742 221.516 69.8742 223.388C69.8742 223.616 69.8622 223.844 69.8262 224.012H65.4342C65.5182 225.392 66.3582 226.292 67.6062 226.292C68.2302 226.292 68.7462 226.088 69.2262 225.764L69.6222 226.496C69.0462 226.868 68.3622 227.168 67.4742 227.168ZM65.4222 223.22H68.9142C68.9142 221.912 68.3262 221.204 67.2942 221.204C66.3822 221.204 65.5662 221.936 65.4222 223.22ZM71.4907 227V220.484H72.3787L72.4867 221.672H72.5227C72.9667 220.844 73.6387 220.328 74.3707 220.328C74.6587 220.328 74.8507 220.364 75.0667 220.46L74.8627 221.42C74.6347 221.348 74.4907 221.312 74.2267 221.312C73.6867 221.312 73.0147 221.708 72.5827 222.824V227H71.4907ZM27.5067 244.168C25.2867 244.168 23.7507 242.392 23.7507 239.572C23.7507 236.752 25.2867 235.048 27.5067 235.048C29.7147 235.048 31.2507 236.764 31.2507 239.572C31.2507 242.392 29.7147 244.168 27.5067 244.168ZM27.5067 243.244C29.0787 243.244 30.1227 241.828 30.1227 239.572C30.1227 237.376 29.0787 236.02 27.5067 236.02C25.9227 236.02 24.8907 237.376 24.8907 239.572C24.8907 241.828 25.9227 243.244 27.5067 243.244ZM30.1947 246.22C28.5147 246.22 27.3747 245.26 26.9067 243.976L28.0587 243.892C28.4067 244.816 29.2707 245.284 30.3147 245.284C30.7107 245.284 30.9987 245.236 31.2387 245.152L31.4547 246.016C31.1787 246.124 30.7227 246.22 30.1947 246.22ZM34.9609 244.168C33.5929 244.168 32.9689 243.28 32.9689 241.612V237.484H34.0609V241.48C34.0609 242.692 34.4329 243.208 35.2969 243.208C35.9569 243.208 36.4369 242.884 37.0489 242.116V237.484H38.1409V244H37.2409L37.1449 242.98H37.1209C36.5089 243.688 35.8609 244.168 34.9609 244.168ZM41.854 244.168C40.762 244.168 39.946 243.484 39.946 242.308C39.946 240.892 41.17 240.184 43.942 239.872C43.942 239.032 43.678 238.228 42.61 238.228C41.842 238.228 41.158 238.588 40.654 238.936L40.222 238.168C40.822 237.784 41.734 237.328 42.778 237.328C44.374 237.328 45.046 238.384 45.046 240.004V244H44.146L44.05 243.232H44.002C43.39 243.748 42.658 244.168 41.854 244.168ZM42.154 243.28C42.79 243.28 43.318 242.98 43.942 242.416V240.604C41.746 240.856 41.014 241.396 41.014 242.236C41.014 242.98 41.518 243.28 42.154 243.28ZM47.1157 244V237.484H48.0037L48.1117 238.432H48.1477C48.7597 237.82 49.4317 237.328 50.3317 237.328C51.6997 237.328 52.3237 238.216 52.3237 239.872V244H51.2197V240.016C51.2197 238.792 50.8477 238.276 49.9837 238.276C49.3237 238.276 48.8557 238.624 48.2077 239.272V244H47.1157ZM56.4799 244.168C55.0879 244.168 54.6319 243.292 54.6319 241.996V238.372H53.6599V237.556L54.6799 237.484L54.7999 235.648H55.7239V237.484H57.4879V238.372H55.7239V242.02C55.7239 242.812 55.9759 243.28 56.7319 243.28C56.9599 243.28 57.2599 243.184 57.4639 243.1L57.6799 243.916C57.3199 244.048 56.8879 244.168 56.4799 244.168ZM58.9634 244V237.484H60.0554V244H58.9634ZM59.5154 236.14C59.0834 236.14 58.7834 235.864 58.7834 235.408C58.7834 234.988 59.0834 234.712 59.5154 234.712C59.9354 234.712 60.2474 234.988 60.2474 235.408C60.2474 235.864 59.9354 236.14 59.5154 236.14ZM64.3081 244.168C62.9161 244.168 62.4601 243.292 62.4601 241.996V238.372H61.4881V237.556L62.5081 237.484L62.6281 235.648H63.5521V237.484H65.3161V238.372H63.5521V242.02C63.5521 242.812 63.8041 243.28 64.5601 243.28C64.7881 243.28 65.0881 243.184 65.2921 243.1L65.5081 243.916C65.1481 244.048 64.7161 244.168 64.3081 244.168ZM66.8875 246.82C66.5875 246.82 66.3355 246.772 66.1315 246.688L66.3475 245.812C66.4675 245.86 66.6595 245.908 66.8395 245.908C67.5715 245.908 68.0395 245.308 68.3155 244.504L68.4595 244.012L65.8435 237.484H66.9715L68.3035 241.108C68.5075 241.684 68.7235 242.344 68.9395 242.944H68.9995C69.1795 242.344 69.3715 241.696 69.5395 241.108L70.7155 237.484H71.7835L69.3235 244.552C68.8675 245.836 68.1955 246.82 66.8875 246.82Z" fill="#2C59CE"/>
<path d="M33.5067 136.168C31.2867 136.168 29.7507 134.392 29.7507 131.572C29.7507 128.752 31.2867 127.048 33.5067 127.048C35.7147 127.048 37.2507 128.764 37.2507 131.572C37.2507 134.392 35.7147 136.168 33.5067 136.168ZM33.5067 135.244C35.0787 135.244 36.1227 133.828 36.1227 131.572C36.1227 129.376 35.0787 128.02 33.5067 128.02C31.9227 128.02 30.8907 129.376 30.8907 131.572C30.8907 133.828 31.9227 135.244 33.5067 135.244ZM36.1947 138.22C34.5147 138.22 33.3747 137.26 32.9067 135.976L34.0587 135.892C34.4067 136.816 35.2707 137.284 36.3147 137.284C36.7107 137.284 36.9987 137.236 37.2387 137.152L37.4547 138.016C37.1787 138.124 36.7227 138.22 36.1947 138.22ZM40.9609 136.168C39.5929 136.168 38.9689 135.28 38.9689 133.612V129.484H40.0609V133.48C40.0609 134.692 40.4329 135.208 41.2969 135.208C41.9569 135.208 42.4369 134.884 43.0489 134.116V129.484H44.1409V136H43.2409L43.1449 134.98H43.1209C42.5089 135.688 41.8609 136.168 40.9609 136.168ZM47.854 136.168C46.762 136.168 45.946 135.484 45.946 134.308C45.946 132.892 47.17 132.184 49.942 131.872C49.942 131.032 49.678 130.228 48.61 130.228C47.842 130.228 47.158 130.588 46.654 130.936L46.222 130.168C46.822 129.784 47.734 129.328 48.778 129.328C50.374 129.328 51.046 130.384 51.046 132.004V136H50.146L50.05 135.232H50.002C49.39 135.748 48.658 136.168 47.854 136.168ZM48.154 135.28C48.79 135.28 49.318 134.98 49.942 134.416V132.604C47.746 132.856 47.014 133.396 47.014 134.236C47.014 134.98 47.518 135.28 48.154 135.28ZM53.1157 136V129.484H54.0037L54.1117 130.432H54.1477C54.7597 129.82 55.4317 129.328 56.3317 129.328C57.6997 129.328 58.3237 130.216 58.3237 131.872V136H57.2197V132.016C57.2197 130.792 56.8477 130.276 55.9837 130.276C55.3237 130.276 54.8557 130.624 54.2077 131.272V136H53.1157ZM62.4799 136.168C61.0879 136.168 60.6319 135.292 60.6319 133.996V130.372H59.6599V129.556L60.6799 129.484L60.7999 127.648H61.7239V129.484H63.4879V130.372H61.7239V134.02C61.7239 134.812 61.9759 135.28 62.7319 135.28C62.9599 135.28 63.2599 135.184 63.4639 135.1L63.6799 135.916C63.3199 136.048 62.8879 136.168 62.4799 136.168ZM64.9634 136V129.484H66.0554V136H64.9634ZM65.5154 128.14C65.0834 128.14 64.7834 127.864 64.7834 127.408C64.7834 126.988 65.0834 126.712 65.5154 126.712C65.9354 126.712 66.2474 126.988 66.2474 127.408C66.2474 127.864 65.9354 128.14 65.5154 128.14ZM70.3081 136.168C68.9161 136.168 68.4601 135.292 68.4601 133.996V130.372H67.4881V129.556L68.5081 129.484L68.6281 127.648H69.5521V129.484H71.3161V130.372H69.5521V134.02C69.5521 134.812 69.8041 135.28 70.5601 135.28C70.7881 135.28 71.0881 135.184 71.2921 135.1L71.5081 135.916C71.1481 136.048 70.7161 136.168 70.3081 136.168ZM72.8875 138.82C72.5875 138.82 72.3355 138.772 72.1315 138.688L72.3475 137.812C72.4675 137.86 72.6595 137.908 72.8395 137.908C73.5715 137.908 74.0395 137.308 74.3155 136.504L74.4595 136.012L71.8435 129.484H72.9715L74.3035 133.108C74.5075 133.684 74.7235 134.344 74.9395 134.944H74.9995C75.1795 134.344 75.3715 133.696 75.5395 133.108L76.7155 129.484H77.7835L75.3235 136.552C74.8675 137.836 74.1955 138.82 72.8875 138.82Z" fill="#CE2C3F"/>
<path d="M287.2 88V79.204H289.948C291.736 79.204 293.02 79.852 293.02 81.676C293.02 83.44 291.736 84.28 289.948 84.28H288.316V88H287.2ZM288.316 83.38H289.792C291.16 83.38 291.916 82.816 291.916 81.676C291.916 80.524 291.16 80.116 289.792 80.116H288.316V83.38ZM292.036 88L289.732 83.98L290.596 83.404L293.284 88H292.036ZM297.185 88.168C295.445 88.168 294.065 86.896 294.065 84.76C294.065 82.636 295.493 81.328 296.993 81.328C298.649 81.328 299.585 82.516 299.585 84.388C299.585 84.616 299.573 84.844 299.537 85.012H295.145C295.229 86.392 296.069 87.292 297.317 87.292C297.941 87.292 298.457 87.088 298.937 86.764L299.333 87.496C298.757 87.868 298.073 88.168 297.185 88.168ZM295.133 84.22H298.625C298.625 82.912 298.037 82.204 297.005 82.204C296.093 82.204 295.277 82.936 295.133 84.22ZM304.058 88.168C303.458 88.168 302.774 87.856 302.21 87.328H302.174L302.066 88H301.202V78.46H302.294V81.064L302.246 82.24C302.846 81.724 303.566 81.328 304.298 81.328C305.978 81.328 306.89 82.636 306.89 84.64C306.89 86.872 305.558 88.168 304.058 88.168ZM303.89 87.244C304.958 87.244 305.762 86.272 305.762 84.664C305.762 83.212 305.27 82.24 304.034 82.24C303.482 82.24 302.906 82.552 302.294 83.14V86.572C302.858 87.064 303.458 87.244 303.89 87.244ZM309.897 88.168C308.805 88.168 307.989 87.484 307.989 86.308C307.989 84.892 309.213 84.184 311.985 83.872C311.985 83.032 311.721 82.228 310.653 82.228C309.885 82.228 309.201 82.588 308.697 82.936L308.265 82.168C308.865 81.784 309.777 81.328 310.821 81.328C312.417 81.328 313.089 82.384 313.089 84.004V88H312.189L312.093 87.232H312.045C311.433 87.748 310.701 88.168 309.897 88.168ZM310.197 87.28C310.833 87.28 311.361 86.98 311.985 86.416V84.604C309.789 84.856 309.057 85.396 309.057 86.236C309.057 86.98 309.561 87.28 310.197 87.28ZM315.159 88V81.484H316.047L316.155 82.672H316.191C316.635 81.844 317.307 81.328 318.039 81.328C318.327 81.328 318.519 81.364 318.735 81.46L318.531 82.42C318.303 82.348 318.159 82.312 317.895 82.312C317.355 82.312 316.683 82.708 316.251 83.824V88H315.159ZM325.051 88.168C323.323 88.168 322.003 86.908 322.003 84.76C322.003 82.576 323.467 81.328 325.135 81.328C325.987 81.328 326.587 81.676 327.043 82.096L326.491 82.816C326.107 82.468 325.699 82.24 325.195 82.24C323.995 82.24 323.131 83.248 323.131 84.76C323.131 86.248 323.959 87.256 325.159 87.256C325.747 87.256 326.287 86.968 326.695 86.608L327.163 87.34C326.587 87.856 325.831 88.168 325.051 88.168ZM330.827 88.168C329.219 88.168 327.803 86.908 327.803 84.76C327.803 82.576 329.219 81.328 330.827 81.328C332.423 81.328 333.839 82.576 333.839 84.76C333.839 86.908 332.423 88.168 330.827 88.168ZM330.827 87.256C331.955 87.256 332.711 86.248 332.711 84.76C332.711 83.248 331.955 82.24 330.827 82.24C329.687 82.24 328.931 83.248 328.931 84.76C328.931 86.248 329.687 87.256 330.827 87.256ZM336.895 88L334.543 81.484H335.671L336.907 85.204C337.099 85.84 337.303 86.5 337.507 87.112H337.555C337.759 86.5 337.963 85.84 338.155 85.204L339.403 81.484H340.471L338.167 88H336.895ZM344.295 88.168C342.555 88.168 341.175 86.896 341.175 84.76C341.175 82.636 342.603 81.328 344.103 81.328C345.759 81.328 346.695 82.516 346.695 84.388C346.695 84.616 346.683 84.844 346.647 85.012H342.255C342.339 86.392 343.179 87.292 344.427 87.292C345.051 87.292 345.567 87.088 346.047 86.764L346.443 87.496C345.867 87.868 345.183 88.168 344.295 88.168ZM342.243 84.22H345.735C345.735 82.912 345.147 82.204 344.115 82.204C343.203 82.204 342.387 82.936 342.243 84.22ZM348.311 88V81.484H349.199L349.307 82.672H349.343C349.787 81.844 350.459 81.328 351.191 81.328C351.479 81.328 351.671 81.364 351.887 81.46L351.683 82.42C351.455 82.348 351.311 82.312 351.047 82.312C350.507 82.312 349.835 82.708 349.403 83.824V88H348.311ZM288.604 100.168C287.512 100.168 286.696 99.484 286.696 98.308C286.696 96.892 287.92 96.184 290.692 95.872C290.692 95.032 290.428 94.228 289.36 94.228C288.592 94.228 287.908 94.588 287.404 94.936L286.972 94.168C287.572 93.784 288.484 93.328 289.528 93.328C291.124 93.328 291.796 94.384 291.796 96.004V100H290.896L290.8 99.232H290.752C290.14 99.748 289.408 100.168 288.604 100.168ZM288.904 99.28C289.54 99.28 290.068 98.98 290.692 98.416V96.604C288.496 96.856 287.764 97.396 287.764 98.236C287.764 98.98 288.268 99.28 288.904 99.28ZM295.695 100.168C294.303 100.168 293.847 99.292 293.847 97.996V94.372H292.875V93.556L293.895 93.484L294.015 91.648H294.939V93.484H296.703V94.372H294.939V98.02C294.939 98.812 295.191 99.28 295.947 99.28C296.175 99.28 296.475 99.184 296.679 99.1L296.895 99.916C296.535 100.048 296.103 100.168 295.695 100.168ZM303.418 100.168C301.69 100.168 300.37 98.908 300.37 96.76C300.37 94.576 301.834 93.328 303.502 93.328C304.354 93.328 304.954 93.676 305.41 94.096L304.858 94.816C304.474 94.468 304.066 94.24 303.562 94.24C302.362 94.24 301.498 95.248 301.498 96.76C301.498 98.248 302.326 99.256 303.526 99.256C304.114 99.256 304.654 98.968 305.062 98.608L305.53 99.34C304.954 99.856 304.198 100.168 303.418 100.168ZM309.195 100.168C307.587 100.168 306.171 98.908 306.171 96.76C306.171 94.576 307.587 93.328 309.195 93.328C310.791 93.328 312.207 94.576 312.207 96.76C312.207 98.908 310.791 100.168 309.195 100.168ZM309.195 99.256C310.323 99.256 311.079 98.248 311.079 96.76C311.079 95.248 310.323 94.24 309.195 94.24C308.055 94.24 307.299 95.248 307.299 96.76C307.299 98.248 308.055 99.256 309.195 99.256ZM313.94 100V93.484H314.828L314.936 94.672H314.972C315.416 93.844 316.088 93.328 316.82 93.328C317.108 93.328 317.3 93.364 317.516 93.46L317.312 94.42C317.084 94.348 316.94 94.312 316.676 94.312C316.136 94.312 315.464 94.708 315.032 95.824V100H313.94ZM321.056 100.168C319.316 100.168 317.936 98.896 317.936 96.76C317.936 94.636 319.364 93.328 320.864 93.328C322.52 93.328 323.456 94.516 323.456 96.388C323.456 96.616 323.444 96.844 323.408 97.012H319.016C319.1 98.392 319.94 99.292 321.188 99.292C321.812 99.292 322.328 99.088 322.808 98.764L323.204 99.496C322.628 99.868 321.944 100.168 321.056 100.168ZM319.004 96.22H322.496C322.496 94.912 321.908 94.204 320.876 94.204C319.964 94.204 319.148 94.936 319.004 96.22Z" fill="#1E252C"/>
<path d="M287.2 232V223.204H289.948C291.736 223.204 293.02 223.852 293.02 225.676C293.02 227.44 291.736 228.28 289.948 228.28H288.316V232H287.2ZM288.316 227.38H289.792C291.16 227.38 291.916 226.816 291.916 225.676C291.916 224.524 291.16 224.116 289.792 224.116H288.316V227.38ZM292.036 232L289.732 227.98L290.596 227.404L293.284 232H292.036ZM297.185 232.168C295.445 232.168 294.065 230.896 294.065 228.76C294.065 226.636 295.493 225.328 296.993 225.328C298.649 225.328 299.585 226.516 299.585 228.388C299.585 228.616 299.573 228.844 299.537 229.012H295.145C295.229 230.392 296.069 231.292 297.317 231.292C297.941 231.292 298.457 231.088 298.937 230.764L299.333 231.496C298.757 231.868 298.073 232.168 297.185 232.168ZM295.133 228.22H298.625C298.625 226.912 298.037 226.204 297.005 226.204C296.093 226.204 295.277 226.936 295.133 228.22ZM304.058 232.168C303.458 232.168 302.774 231.856 302.21 231.328H302.174L302.066 232H301.202V222.46H302.294V225.064L302.246 226.24C302.846 225.724 303.566 225.328 304.298 225.328C305.978 225.328 306.89 226.636 306.89 228.64C306.89 230.872 305.558 232.168 304.058 232.168ZM303.89 231.244C304.958 231.244 305.762 230.272 305.762 228.664C305.762 227.212 305.27 226.24 304.034 226.24C303.482 226.24 302.906 226.552 302.294 227.14V230.572C302.858 231.064 303.458 231.244 303.89 231.244ZM309.897 232.168C308.805 232.168 307.989 231.484 307.989 230.308C307.989 228.892 309.213 228.184 311.985 227.872C311.985 227.032 311.721 226.228 310.653 226.228C309.885 226.228 309.201 226.588 308.697 226.936L308.265 226.168C308.865 225.784 309.777 225.328 310.821 225.328C312.417 225.328 313.089 226.384 313.089 228.004V232H312.189L312.093 231.232H312.045C311.433 231.748 310.701 232.168 309.897 232.168ZM310.197 231.28C310.833 231.28 311.361 230.98 311.985 230.416V228.604C309.789 228.856 309.057 229.396 309.057 230.236C309.057 230.98 309.561 231.28 310.197 231.28ZM315.159 232V225.484H316.047L316.155 226.672H316.191C316.635 225.844 317.307 225.328 318.039 225.328C318.327 225.328 318.519 225.364 318.735 225.46L318.531 226.42C318.303 226.348 318.159 226.312 317.895 226.312C317.355 226.312 316.683 226.708 316.251 227.824V232H315.159ZM325.051 232.168C323.323 232.168 322.003 230.908 322.003 228.76C322.003 226.576 323.467 225.328 325.135 225.328C325.987 225.328 326.587 225.676 327.043 226.096L326.491 226.816C326.107 226.468 325.699 226.24 325.195 226.24C323.995 226.24 323.131 227.248 323.131 228.76C323.131 230.248 323.959 231.256 325.159 231.256C325.747 231.256 326.287 230.968 326.695 230.608L327.163 231.34C326.587 231.856 325.831 232.168 325.051 232.168ZM330.827 232.168C329.219 232.168 327.803 230.908 327.803 228.76C327.803 226.576 329.219 225.328 330.827 225.328C332.423 225.328 333.839 226.576 333.839 228.76C333.839 230.908 332.423 232.168 330.827 232.168ZM330.827 231.256C331.955 231.256 332.711 230.248 332.711 228.76C332.711 227.248 331.955 226.24 330.827 226.24C329.687 226.24 328.931 227.248 328.931 228.76C328.931 230.248 329.687 231.256 330.827 231.256ZM336.895 232L334.543 225.484H335.671L336.907 229.204C337.099 229.84 337.303 230.5 337.507 231.112H337.555C337.759 230.5 337.963 229.84 338.155 229.204L339.403 225.484H340.471L338.167 232H336.895ZM344.295 232.168C342.555 232.168 341.175 230.896 341.175 228.76C341.175 226.636 342.603 225.328 344.103 225.328C345.759 225.328 346.695 226.516 346.695 228.388C346.695 228.616 346.683 228.844 346.647 229.012H342.255C342.339 230.392 343.179 231.292 344.427 231.292C345.051 231.292 345.567 231.088 346.047 230.764L346.443 231.496C345.867 231.868 345.183 232.168 344.295 232.168ZM342.243 228.22H345.735C345.735 226.912 345.147 226.204 344.115 226.204C343.203 226.204 342.387 226.936 342.243 228.22ZM348.311 232V225.484H349.199L349.307 226.672H349.343C349.787 225.844 350.459 225.328 351.191 225.328C351.479 225.328 351.671 225.364 351.887 225.46L351.683 226.42C351.455 226.348 351.311 226.312 351.047 226.312C350.507 226.312 349.835 226.708 349.403 227.824V232H348.311ZM288.604 244.168C287.512 244.168 286.696 243.484 286.696 242.308C286.696 240.892 287.92 240.184 290.692 239.872C290.692 239.032 290.428 238.228 289.36 238.228C288.592 238.228 287.908 238.588 287.404 238.936L286.972 238.168C287.572 237.784 288.484 237.328 289.528 237.328C291.124 237.328 291.796 238.384 291.796 240.004V244H290.896L290.8 243.232H290.752C290.14 243.748 289.408 244.168 288.604 244.168ZM288.904 243.28C289.54 243.28 290.068 242.98 290.692 242.416V240.604C288.496 240.856 287.764 241.396 287.764 242.236C287.764 242.98 288.268 243.28 288.904 243.28ZM295.695 244.168C294.303 244.168 293.847 243.292 293.847 241.996V238.372H292.875V237.556L293.895 237.484L294.015 235.648H294.939V237.484H296.703V238.372H294.939V242.02C294.939 242.812 295.191 243.28 295.947 243.28C296.175 243.28 296.475 243.184 296.679 243.1L296.895 243.916C296.535 244.048 296.103 244.168 295.695 244.168ZM303.418 244.168C301.69 244.168 300.37 242.908 300.37 240.76C300.37 238.576 301.834 237.328 303.502 237.328C304.354 237.328 304.954 237.676 305.41 238.096L304.858 238.816C304.474 238.468 304.066 238.24 303.562 238.24C302.362 238.24 301.498 239.248 301.498 240.76C301.498 242.248 302.326 243.256 303.526 243.256C304.114 243.256 304.654 242.968 305.062 242.608L305.53 243.34C304.954 243.856 304.198 244.168 303.418 244.168ZM309.195 244.168C307.587 244.168 306.171 242.908 306.171 240.76C306.171 238.576 307.587 237.328 309.195 237.328C310.791 237.328 312.207 238.576 312.207 240.76C312.207 242.908 310.791 244.168 309.195 244.168ZM309.195 243.256C310.323 243.256 311.079 242.248 311.079 240.76C311.079 239.248 310.323 238.24 309.195 238.24C308.055 238.24 307.299 239.248 307.299 240.76C307.299 242.248 308.055 243.256 309.195 243.256ZM313.94 244V237.484H314.828L314.936 238.672H314.972C315.416 237.844 316.088 237.328 316.82 237.328C317.108 237.328 317.3 237.364 317.516 237.46L317.312 238.42C317.084 238.348 316.94 238.312 316.676 238.312C316.136 238.312 315.464 238.708 315.032 239.824V244H313.94ZM321.056 244.168C319.316 244.168 317.936 242.896 317.936 240.76C317.936 238.636 319.364 237.328 320.864 237.328C322.52 237.328 323.456 238.516 323.456 240.388C323.456 240.616 323.444 240.844 323.408 241.012H319.016C319.1 242.392 319.94 243.292 321.188 243.292C321.812 243.292 322.328 243.088 322.808 242.764L323.204 243.496C322.628 243.868 321.944 244.168 321.056 244.168ZM319.004 240.22H322.496C322.496 238.912 321.908 238.204 320.876 238.204C319.964 238.204 319.148 238.936 319.004 240.22Z" fill="#1E252C"/>
<path d="M98.8118 67.168C97.5758 67.168 96.5078 66.664 95.7398 65.86L96.3998 65.092C97.0358 65.764 97.9238 66.184 98.8358 66.184C99.9878 66.184 100.672 65.608 100.672 64.756C100.672 63.844 100.036 63.556 99.2078 63.196L97.9478 62.644C97.1198 62.296 96.1598 61.672 96.1598 60.388C96.1598 59.032 97.3238 58.048 98.9318 58.048C99.9758 58.048 100.9 58.492 101.512 59.14L100.924 59.848C100.384 59.344 99.7358 59.02 98.9318 59.02C97.9358 59.02 97.2878 59.524 97.2878 60.304C97.2878 61.168 98.0558 61.48 98.7398 61.768L99.9878 62.308C101.02 62.752 101.8 63.364 101.8 64.672C101.8 66.064 100.66 67.168 98.8118 67.168ZM103.428 69.748V60.484H104.316L104.424 61.24H104.46C105.048 60.748 105.768 60.328 106.524 60.328C108.216 60.328 109.116 61.636 109.116 63.652C109.116 65.872 107.784 67.168 106.284 67.168C105.696 67.168 105.084 66.892 104.496 66.412L104.52 67.552V69.748H103.428ZM106.116 66.244C107.184 66.244 107.988 65.272 107.988 63.664C107.988 62.212 107.496 61.24 106.26 61.24C105.708 61.24 105.156 61.552 104.52 62.14V65.572C105.108 66.064 105.684 66.244 106.116 66.244ZM112.147 67.168C111.055 67.168 110.239 66.484 110.239 65.308C110.239 63.892 111.463 63.184 114.235 62.872C114.235 62.032 113.971 61.228 112.903 61.228C112.135 61.228 111.451 61.588 110.947 61.936L110.515 61.168C111.115 60.784 112.027 60.328 113.071 60.328C114.667 60.328 115.339 61.384 115.339 63.004V67H114.439L114.343 66.232H114.295C113.683 66.748 112.951 67.168 112.147 67.168ZM112.447 66.28C113.083 66.28 113.611 65.98 114.235 65.416V63.604C112.039 63.856 111.307 64.396 111.307 65.236C111.307 65.98 111.811 66.28 112.447 66.28ZM119.965 67.168C118.237 67.168 116.917 65.908 116.917 63.76C116.917 61.576 118.381 60.328 120.049 60.328C120.901 60.328 121.501 60.676 121.957 61.096L121.405 61.816C121.021 61.468 120.613 61.24 120.109 61.24C118.909 61.24 118.045 62.248 118.045 63.76C118.045 65.248 118.873 66.256 120.073 66.256C120.661 66.256 121.201 65.968 121.609 65.608L122.077 66.34C121.501 66.856 120.745 67.168 119.965 67.168ZM123.526 67V60.484H124.618V67H123.526ZM124.078 59.14C123.646 59.14 123.346 58.864 123.346 58.408C123.346 57.988 123.646 57.712 124.078 57.712C124.498 57.712 124.81 57.988 124.81 58.408C124.81 58.864 124.498 59.14 124.078 59.14ZM126.831 67V60.484H127.719L127.827 61.432H127.863C128.475 60.82 129.147 60.328 130.047 60.328C131.415 60.328 132.039 61.216 132.039 62.872V67H130.935V63.016C130.935 61.792 130.563 61.276 129.699 61.276C129.039 61.276 128.571 61.624 127.923 62.272V67H126.831ZM136.351 70C134.755 70 133.651 69.376 133.651 68.26C133.651 67.708 134.011 67.168 134.611 66.784V66.736C134.275 66.52 134.023 66.172 134.023 65.656C134.023 65.116 134.407 64.696 134.755 64.456V64.408C134.323 64.06 133.891 63.436 133.891 62.656C133.891 61.216 135.019 60.328 136.339 60.328C136.711 60.328 137.035 60.4 137.263 60.484H139.531V61.336H138.199C138.511 61.636 138.727 62.116 138.727 62.68C138.727 64.072 137.671 64.936 136.339 64.936C136.027 64.936 135.667 64.864 135.367 64.72C135.139 64.912 134.947 65.14 134.947 65.488C134.947 65.908 135.223 66.208 136.099 66.208H137.371C138.883 66.208 139.639 66.676 139.639 67.756C139.639 68.968 138.355 70 136.351 70ZM136.339 64.204C137.095 64.204 137.731 63.592 137.731 62.656C137.731 61.696 137.107 61.12 136.339 61.12C135.571 61.12 134.947 61.684 134.947 62.656C134.947 63.592 135.583 64.204 136.339 64.204ZM136.495 69.256C137.755 69.256 138.571 68.596 138.571 67.924C138.571 67.312 138.103 67.108 137.251 67.108H136.123C135.871 67.108 135.571 67.084 135.271 67C134.803 67.336 134.611 67.732 134.611 68.104C134.611 68.812 135.319 69.256 136.495 69.256Z" fill="#1E252C"/>
<rect x="93.0165" y="100.672" width="158.999" height="14.6321" stroke="#2C59CE" stroke-dasharray="1.84 1.84"/>
<rect x="88.4188" y="90.5566" width="166.355" height="41.2985" stroke="#CE2C3F" stroke-dasharray="1.84 1.84"/>
<line x1="133.75" y1="97" x2="133.75" y2="71" stroke="#1E252C" stroke-width="0.5"/>
<line x1="99.75" y1="97" x2="99.75" y2="71" stroke="#1E252C" stroke-width="0.5"/>
<path d="M98.8118 268.168C97.5758 268.168 96.5078 267.664 95.7398 266.86L96.3998 266.092C97.0358 266.764 97.9238 267.184 98.8358 267.184C99.9878 267.184 100.672 266.608 100.672 265.756C100.672 264.844 100.036 264.556 99.2078 264.196L97.9478 263.644C97.1198 263.296 96.1598 262.672 96.1598 261.388C96.1598 260.032 97.3238 259.048 98.9318 259.048C99.9758 259.048 100.9 259.492 101.512 260.14L100.924 260.848C100.384 260.344 99.7358 260.02 98.9318 260.02C97.9358 260.02 97.2878 260.524 97.2878 261.304C97.2878 262.168 98.0558 262.48 98.7398 262.768L99.9878 263.308C101.02 263.752 101.8 264.364 101.8 265.672C101.8 267.064 100.66 268.168 98.8118 268.168ZM103.428 270.748V261.484H104.316L104.424 262.24H104.46C105.048 261.748 105.768 261.328 106.524 261.328C108.216 261.328 109.116 262.636 109.116 264.652C109.116 266.872 107.784 268.168 106.284 268.168C105.696 268.168 105.084 267.892 104.496 267.412L104.52 268.552V270.748H103.428ZM106.116 267.244C107.184 267.244 107.988 266.272 107.988 264.664C107.988 263.212 107.496 262.24 106.26 262.24C105.708 262.24 105.156 262.552 104.52 263.14V266.572C105.108 267.064 105.684 267.244 106.116 267.244ZM112.147 268.168C111.055 268.168 110.239 267.484 110.239 266.308C110.239 264.892 111.463 264.184 114.235 263.872C114.235 263.032 113.971 262.228 112.903 262.228C112.135 262.228 111.451 262.588 110.947 262.936L110.515 262.168C111.115 261.784 112.027 261.328 113.071 261.328C114.667 261.328 115.339 262.384 115.339 264.004V268H114.439L114.343 267.232H114.295C113.683 267.748 112.951 268.168 112.147 268.168ZM112.447 267.28C113.083 267.28 113.611 266.98 114.235 266.416V264.604C112.039 264.856 111.307 265.396 111.307 266.236C111.307 266.98 111.811 267.28 112.447 267.28ZM119.965 268.168C118.237 268.168 116.917 266.908 116.917 264.76C116.917 262.576 118.381 261.328 120.049 261.328C120.901 261.328 121.501 261.676 121.957 262.096L121.405 262.816C121.021 262.468 120.613 262.24 120.109 262.24C118.909 262.24 118.045 263.248 118.045 264.76C118.045 266.248 118.873 267.256 120.073 267.256C120.661 267.256 121.201 266.968 121.609 266.608L122.077 267.34C121.501 267.856 120.745 268.168 119.965 268.168ZM123.526 268V261.484H124.618V268H123.526ZM124.078 260.14C123.646 260.14 123.346 259.864 123.346 259.408C123.346 258.988 123.646 258.712 124.078 258.712C124.498 258.712 124.81 258.988 124.81 259.408C124.81 259.864 124.498 260.14 124.078 260.14ZM126.831 268V261.484H127.719L127.827 262.432H127.863C128.475 261.82 129.147 261.328 130.047 261.328C131.415 261.328 132.039 262.216 132.039 263.872V268H130.935V264.016C130.935 262.792 130.563 262.276 129.699 262.276C129.039 262.276 128.571 262.624 127.923 263.272V268H126.831ZM136.351 271C134.755 271 133.651 270.376 133.651 269.26C133.651 268.708 134.011 268.168 134.611 267.784V267.736C134.275 267.52 134.023 267.172 134.023 266.656C134.023 266.116 134.407 265.696 134.755 265.456V265.408C134.323 265.06 133.891 264.436 133.891 263.656C133.891 262.216 135.019 261.328 136.339 261.328C136.711 261.328 137.035 261.4 137.263 261.484H139.531V262.336H138.199C138.511 262.636 138.727 263.116 138.727 263.68C138.727 265.072 137.671 265.936 136.339 265.936C136.027 265.936 135.667 265.864 135.367 265.72C135.139 265.912 134.947 266.14 134.947 266.488C134.947 266.908 135.223 267.208 136.099 267.208H137.371C138.883 267.208 139.639 267.676 139.639 268.756C139.639 269.968 138.355 271 136.351 271ZM136.339 265.204C137.095 265.204 137.731 264.592 137.731 263.656C137.731 262.696 137.107 262.12 136.339 262.12C135.571 262.12 134.947 262.684 134.947 263.656C134.947 264.592 135.583 265.204 136.339 265.204ZM136.495 270.256C137.755 270.256 138.571 269.596 138.571 268.924C138.571 268.312 138.103 268.108 137.251 268.108H136.123C135.871 268.108 135.571 268.084 135.271 268C134.803 268.336 134.611 268.732 134.611 269.104C134.611 269.812 135.319 270.256 136.495 270.256Z" fill="#1E252C"/>
<circle cx="3.67813" cy="3.67813" r="3.67813" transform="matrix(1 0 0 -1 96.1946 221.15)" fill="#1E252C"/>
<circle cx="3.67813" cy="3.67813" r="3.67813" transform="matrix(1 0 0 -1 293.894 204.598)" fill="white"/>
<circle cx="3.67813" cy="3.67813" r="3.67813" transform="matrix(1 0 0 -1 40.1033 204.598)" fill="white"/>
<circle cx="3.67813" cy="3.67813" r="3.67813" transform="matrix(1 0 0 -1 236.883 221.15)" fill="#1E252C"/>
<circle cx="3.67813" cy="3.67813" r="3.67813" transform="matrix(1 0 0 -1 166.079 221.15)" fill="#1E252C"/>
<circle cx="3.67813" cy="3.67813" r="3.67813" transform="matrix(1 0 0 -1 130.217 221.15)" fill="#1E252C"/>
<circle cx="3.67813" cy="3.67813" r="3.67813" transform="matrix(1 0 0 -1 166.079 204.598)" fill="#1E252C"/>
<circle cx="3.67813" cy="3.67813" r="3.67813" transform="matrix(1 0 0 -1 96.1946 204.598)" fill="#1E252C"/>
<circle cx="3.67813" cy="3.67813" r="3.67813" transform="matrix(1 0 0 -1 236.883 204.598)" fill="#1E252C"/>
<circle cx="3.67813" cy="3.67813" r="3.67813" transform="matrix(1 0 0 -1 201.941 221.15)" fill="#1E252C"/>
<line y1="-0.23" x2="175.631" y2="-0.23" transform="matrix(1 0 0 -1 82 217)" stroke="#1E252C" stroke-width="0.46" stroke-dasharray="1.84 1.84"/>
<line x1="100" y1="246.75" x2="134" y2="246.75" stroke="#1E252C" stroke-width="0.5"/>
<line y1="-0.25" x2="37" y2="-0.25" transform="matrix(1 -9.13465e-08 -8.36676e-08 -1 249 217)" stroke="#1E252C" stroke-width="0.5"/>
<line y1="-0.25" x2="27" y2="-0.25" transform="matrix(1 0 0 -1 259 236)" stroke="#1E252C" stroke-width="0.5"/>
<line y1="-0.25" x2="37" y2="-0.25" transform="matrix(1 -9.13465e-08 -8.36676e-08 -1 249 201)" stroke="#1E252C" stroke-width="0.5"/>
<line x1="283.25" y1="201" x2="283.25" y2="236" stroke="#1E252C" stroke-width="0.5"/>
<rect x="0.5" y="-0.5" width="158.999" height="14.6321" transform="matrix(1 0 0 -1 92.5165 223.828)" stroke="#2C59CE" stroke-dasharray="1.84 1.84"/>
<rect x="0.5" y="-0.5" width="166" height="38" transform="matrix(1 0 0 -1 88 231)" stroke="#CE2C3F" stroke-dasharray="1.84 1.84"/>
<line y1="-0.25" x2="26" y2="-0.25" transform="matrix(4.77396e-08 1 1 -4.00231e-08 134 228)" stroke="#1E252C" stroke-width="0.5"/>
<line y1="-0.25" x2="26" y2="-0.25" transform="matrix(4.77396e-08 1 1 -4.00231e-08 100 228)" stroke="#1E252C" stroke-width="0.5"/>
<path d="M33.5067 194.168C31.2867 194.168 29.7507 192.392 29.7507 189.572C29.7507 186.752 31.2867 185.048 33.5067 185.048C35.7147 185.048 37.2507 186.764 37.2507 189.572C37.2507 192.392 35.7147 194.168 33.5067 194.168ZM33.5067 193.244C35.0787 193.244 36.1227 191.828 36.1227 189.572C36.1227 187.376 35.0787 186.02 33.5067 186.02C31.9227 186.02 30.8907 187.376 30.8907 189.572C30.8907 191.828 31.9227 193.244 33.5067 193.244ZM36.1947 196.22C34.5147 196.22 33.3747 195.26 32.9067 193.976L34.0587 193.892C34.4067 194.816 35.2707 195.284 36.3147 195.284C36.7107 195.284 36.9987 195.236 37.2387 195.152L37.4547 196.016C37.1787 196.124 36.7227 196.22 36.1947 196.22ZM40.9609 194.168C39.5929 194.168 38.9689 193.28 38.9689 191.612V187.484H40.0609V191.48C40.0609 192.692 40.4329 193.208 41.2969 193.208C41.9569 193.208 42.4369 192.884 43.0489 192.116V187.484H44.1409V194H43.2409L43.1449 192.98H43.1209C42.5089 193.688 41.8609 194.168 40.9609 194.168ZM47.854 194.168C46.762 194.168 45.946 193.484 45.946 192.308C45.946 190.892 47.17 190.184 49.942 189.872C49.942 189.032 49.678 188.228 48.61 188.228C47.842 188.228 47.158 188.588 46.654 188.936L46.222 188.168C46.822 187.784 47.734 187.328 48.778 187.328C50.374 187.328 51.046 188.384 51.046 190.004V194H50.146L50.05 193.232H50.002C49.39 193.748 48.658 194.168 47.854 194.168ZM48.154 193.28C48.79 193.28 49.318 192.98 49.942 192.416V190.604C47.746 190.856 47.014 191.396 47.014 192.236C47.014 192.98 47.518 193.28 48.154 193.28ZM53.1157 194V187.484H54.0037L54.1117 188.432H54.1477C54.7597 187.82 55.4317 187.328 56.3317 187.328C57.6997 187.328 58.3237 188.216 58.3237 189.872V194H57.2197V190.016C57.2197 188.792 56.8477 188.276 55.9837 188.276C55.3237 188.276 54.8557 188.624 54.2077 189.272V194H53.1157ZM62.4799 194.168C61.0879 194.168 60.6319 193.292 60.6319 191.996V188.372H59.6599V187.556L60.6799 187.484L60.7999 185.648H61.7239V187.484H63.4879V188.372H61.7239V192.02C61.7239 192.812 61.9759 193.28 62.7319 193.28C62.9599 193.28 63.2599 193.184 63.4639 193.1L63.6799 193.916C63.3199 194.048 62.8879 194.168 62.4799 194.168ZM64.9634 194V187.484H66.0554V194H64.9634ZM65.5154 186.14C65.0834 186.14 64.7834 185.864 64.7834 185.408C64.7834 184.988 65.0834 184.712 65.5154 184.712C65.9354 184.712 66.2474 184.988 66.2474 185.408C66.2474 185.864 65.9354 186.14 65.5154 186.14ZM70.3081 194.168C68.9161 194.168 68.4601 193.292 68.4601 191.996V188.372H67.4881V187.556L68.5081 187.484L68.6281 185.648H69.5521V187.484H71.3161V188.372H69.5521V192.02C69.5521 192.812 69.8041 193.28 70.5601 193.28C70.7881 193.28 71.0881 193.184 71.2921 193.1L71.5081 193.916C71.1481 194.048 70.7161 194.168 70.3081 194.168ZM72.8875 196.82C72.5875 196.82 72.3355 196.772 72.1315 196.688L72.3475 195.812C72.4675 195.86 72.6595 195.908 72.8395 195.908C73.5715 195.908 74.0395 195.308 74.3155 194.504L74.4595 194.012L71.8435 187.484H72.9715L74.3035 191.108C74.5075 191.684 74.7235 192.344 74.9395 192.944H74.9995C75.1795 192.344 75.3715 191.696 75.5395 191.108L76.7155 187.484H77.7835L75.3235 194.552C74.8675 195.836 74.1955 196.82 72.8875 196.82Z" fill="#CE2C3F"/>
<rect x="134" y="25" width="71" height="19" fill="#496071"/>
<path d="M143.404 39.168C141.436 39.168 140.116 38.088 140.116 35.22V30.168H141.508V35.304C141.508 37.296 142.3 37.944 143.404 37.944C144.508 37.944 145.336 37.296 145.336 35.304V30.168H146.68V35.22C146.68 38.088 145.36 39.168 143.404 39.168ZM148.833 41.676V32.4H149.961L150.081 33.132H150.117C150.693 32.64 151.401 32.232 152.145 32.232C153.813 32.232 154.761 33.564 154.761 35.604C154.761 37.86 153.405 39.168 151.917 39.168C151.329 39.168 150.729 38.904 150.177 38.424L150.225 39.54V41.676H148.833ZM151.653 38.016C152.601 38.016 153.333 37.164 153.333 35.616C153.333 34.236 152.877 33.384 151.773 33.384C151.269 33.384 150.777 33.66 150.225 34.188V37.416C150.741 37.86 151.245 38.016 151.653 38.016ZM156.391 41.676V32.4H157.519L157.639 33.132H157.675C158.251 32.64 158.959 32.232 159.703 32.232C161.371 32.232 162.319 33.564 162.319 35.604C162.319 37.86 160.963 39.168 159.475 39.168C158.887 39.168 158.287 38.904 157.735 38.424L157.783 39.54V41.676H156.391ZM159.211 38.016C160.159 38.016 160.891 37.164 160.891 35.616C160.891 34.236 160.435 33.384 159.331 33.384C158.827 33.384 158.335 33.66 157.783 34.188V37.416C158.299 37.86 158.803 38.016 159.211 38.016ZM166.71 39.168C164.91 39.168 163.494 37.884 163.494 35.712C163.494 33.564 164.97 32.232 166.506 32.232C168.246 32.232 169.194 33.492 169.194 35.364C169.194 35.64 169.17 35.904 169.134 36.072H164.85C164.958 37.332 165.75 38.076 166.89 38.076C167.478 38.076 167.97 37.896 168.462 37.584L168.942 38.472C168.33 38.88 167.574 39.168 166.71 39.168ZM164.826 35.112H167.994C167.994 33.972 167.49 33.324 166.53 33.324C165.702 33.324 164.97 33.96 164.826 35.112ZM170.747 39V32.4H171.875L171.995 33.588H172.031C172.499 32.736 173.195 32.232 173.903 32.232C174.227 32.232 174.431 32.28 174.635 32.376L174.395 33.576C174.167 33.504 173.999 33.468 173.723 33.468C173.195 33.468 172.547 33.852 172.139 34.896V39H170.747ZM180.152 39.168C179.24 39.168 178.304 38.784 177.668 38.256L178.316 37.356C178.904 37.812 179.468 38.112 180.188 38.112C180.968 38.112 181.34 37.728 181.34 37.224C181.34 36.636 180.596 36.36 179.888 36.096C179 35.76 178.028 35.292 178.028 34.164C178.028 33.06 178.916 32.232 180.392 32.232C181.268 32.232 182 32.592 182.528 33.012L181.88 33.864C181.424 33.54 180.956 33.288 180.416 33.288C179.684 33.288 179.348 33.648 179.348 34.104C179.348 34.668 179.984 34.884 180.716 35.148C181.64 35.496 182.648 35.916 182.648 37.152C182.648 38.268 181.772 39.168 180.152 39.168ZM184.118 39V32.4H185.51V39H184.118ZM184.814 31.164C184.298 31.164 183.962 30.84 183.962 30.336C183.962 29.844 184.298 29.52 184.814 29.52C185.318 29.52 185.678 29.844 185.678 30.336C185.678 30.84 185.318 31.164 184.814 31.164ZM189.855 39.168C188.199 39.168 187.143 37.896 187.143 35.712C187.143 33.564 188.499 32.232 189.963 32.232C190.719 32.232 191.211 32.52 191.739 32.976L191.679 31.884V29.448H193.071V39H191.931L191.823 38.268H191.787C191.283 38.772 190.599 39.168 189.855 39.168ZM190.191 38.016C190.731 38.016 191.211 37.764 191.679 37.212V33.996C191.199 33.552 190.731 33.384 190.239 33.384C189.315 33.384 188.571 34.272 188.571 35.688C188.571 37.188 189.159 38.016 190.191 38.016ZM197.894 39.168C196.094 39.168 194.678 37.884 194.678 35.712C194.678 33.564 196.154 32.232 197.69 32.232C199.43 32.232 200.378 33.492 200.378 35.364C200.378 35.64 200.354 35.904 200.318 36.072H196.034C196.142 37.332 196.934 38.076 198.074 38.076C198.662 38.076 199.154 37.896 199.646 37.584L200.126 38.472C199.514 38.88 198.758 39.168 197.894 39.168ZM196.01 35.112H199.178C199.178 33.972 198.674 33.324 197.714 33.324C196.886 33.324 196.154 33.96 196.01 35.112Z" fill="white"/>
<rect x="132" y="282" width="75" height="19" fill="#496071"/>
<path d="M142.404 296.168C140.436 296.168 139.116 295.088 139.116 292.22V287.168H140.508V292.304C140.508 294.296 141.3 294.944 142.404 294.944C143.508 294.944 144.336 294.296 144.336 292.304V287.168H145.68V292.22C145.68 295.088 144.36 296.168 142.404 296.168ZM147.833 296V289.4H148.961L149.081 290.324H149.117C149.717 289.724 150.401 289.232 151.301 289.232C152.705 289.232 153.329 290.18 153.329 291.848V296H151.937V292.028C151.937 290.876 151.601 290.432 150.833 290.432C150.221 290.432 149.801 290.744 149.225 291.32V296H147.833ZM157.601 296.168C155.945 296.168 154.889 294.896 154.889 292.712C154.889 290.564 156.245 289.232 157.709 289.232C158.465 289.232 158.957 289.52 159.485 289.976L159.425 288.884V286.448H160.817V296H159.677L159.569 295.268H159.533C159.029 295.772 158.345 296.168 157.601 296.168ZM157.937 295.016C158.477 295.016 158.957 294.764 159.425 294.212V290.996C158.945 290.552 158.477 290.384 157.985 290.384C157.061 290.384 156.317 291.272 156.317 292.688C156.317 294.188 156.905 295.016 157.937 295.016ZM165.64 296.168C163.84 296.168 162.424 294.884 162.424 292.712C162.424 290.564 163.9 289.232 165.436 289.232C167.176 289.232 168.124 290.492 168.124 292.364C168.124 292.64 168.1 292.904 168.064 293.072H163.78C163.888 294.332 164.68 295.076 165.82 295.076C166.408 295.076 166.9 294.896 167.392 294.584L167.872 295.472C167.26 295.88 166.504 296.168 165.64 296.168ZM163.756 292.112H166.924C166.924 290.972 166.42 290.324 165.46 290.324C164.632 290.324 163.9 290.96 163.756 292.112ZM169.677 296V289.4H170.805L170.925 290.588H170.961C171.429 289.736 172.125 289.232 172.833 289.232C173.157 289.232 173.361 289.28 173.565 289.376L173.325 290.576C173.097 290.504 172.929 290.468 172.653 290.468C172.125 290.468 171.477 290.852 171.069 291.896V296H169.677ZM179.082 296.168C178.17 296.168 177.234 295.784 176.598 295.256L177.246 294.356C177.834 294.812 178.398 295.112 179.118 295.112C179.898 295.112 180.27 294.728 180.27 294.224C180.27 293.636 179.526 293.36 178.818 293.096C177.93 292.76 176.958 292.292 176.958 291.164C176.958 290.06 177.846 289.232 179.322 289.232C180.198 289.232 180.93 289.592 181.458 290.012L180.81 290.864C180.354 290.54 179.886 290.288 179.346 290.288C178.614 290.288 178.278 290.648 178.278 291.104C178.278 291.668 178.914 291.884 179.646 292.148C180.57 292.496 181.578 292.916 181.578 294.152C181.578 295.268 180.702 296.168 179.082 296.168ZM183.048 296V289.4H184.44V296H183.048ZM183.744 288.164C183.228 288.164 182.892 287.84 182.892 287.336C182.892 286.844 183.228 286.52 183.744 286.52C184.248 286.52 184.608 286.844 184.608 287.336C184.608 287.84 184.248 288.164 183.744 288.164ZM188.785 296.168C187.129 296.168 186.073 294.896 186.073 292.712C186.073 290.564 187.429 289.232 188.893 289.232C189.649 289.232 190.141 289.52 190.669 289.976L190.609 288.884V286.448H192.001V296H190.861L190.753 295.268H190.717C190.213 295.772 189.529 296.168 188.785 296.168ZM189.121 295.016C189.661 295.016 190.141 294.764 190.609 294.212V290.996C190.129 290.552 189.661 290.384 189.169 290.384C188.245 290.384 187.501 291.272 187.501 292.688C187.501 294.188 188.089 295.016 189.121 295.016ZM196.823 296.168C195.023 296.168 193.607 294.884 193.607 292.712C193.607 290.564 195.083 289.232 196.619 289.232C198.359 289.232 199.307 290.492 199.307 292.364C199.307 292.64 199.283 292.904 199.247 293.072H194.963C195.071 294.332 195.863 295.076 197.003 295.076C197.591 295.076 198.083 294.896 198.575 294.584L199.055 295.472C198.443 295.88 197.687 296.168 196.823 296.168ZM194.939 292.112H198.107C198.107 290.972 197.603 290.324 196.643 290.324C195.815 290.324 195.083 290.96 194.939 292.112Z" fill="white"/>
<path d="M287.2 190V181.204H288.316V190H287.2ZM290.62 190V183.484H291.508L291.616 184.432H291.652C292.264 183.82 292.936 183.328 293.836 183.328C295.204 183.328 295.828 184.216 295.828 185.872V190H294.724V186.016C294.724 184.792 294.352 184.276 293.488 184.276C292.828 184.276 292.36 184.624 291.712 185.272V190H290.62ZM299.984 190.168C298.592 190.168 298.136 189.292 298.136 187.996V184.372H297.164V183.556L298.184 183.484L298.304 181.648H299.228V183.484H300.992V184.372H299.228V188.02C299.228 188.812 299.48 189.28 300.236 189.28C300.464 189.28 300.764 189.184 300.968 189.1L301.184 189.916C300.824 190.048 300.392 190.168 299.984 190.168ZM304.884 190.168C303.144 190.168 301.764 188.896 301.764 186.76C301.764 184.636 303.192 183.328 304.692 183.328C306.348 183.328 307.284 184.516 307.284 186.388C307.284 186.616 307.272 186.844 307.236 187.012H302.844C302.928 188.392 303.768 189.292 305.016 189.292C305.64 189.292 306.156 189.088 306.636 188.764L307.032 189.496C306.456 189.868 305.772 190.168 304.884 190.168ZM302.832 186.22H306.324C306.324 184.912 305.736 184.204 304.704 184.204C303.792 184.204 302.976 184.936 302.832 186.22ZM308.901 190V183.484H309.789L309.897 184.672H309.933C310.377 183.844 311.049 183.328 311.781 183.328C312.069 183.328 312.261 183.364 312.477 183.46L312.273 184.42C312.045 184.348 311.901 184.312 311.637 184.312C311.097 184.312 310.425 184.708 309.993 185.824V190H308.901ZM315.262 190L312.91 183.484H314.038L315.274 187.204C315.466 187.84 315.67 188.5 315.874 189.112H315.922C316.126 188.5 316.33 187.84 316.522 187.204L317.77 183.484H318.838L316.534 190H315.262ZM321.311 190.168C320.219 190.168 319.403 189.484 319.403 188.308C319.403 186.892 320.627 186.184 323.399 185.872C323.399 185.032 323.135 184.228 322.067 184.228C321.299 184.228 320.615 184.588 320.111 184.936L319.679 184.168C320.279 183.784 321.191 183.328 322.235 183.328C323.831 183.328 324.503 184.384 324.503 186.004V190H323.603L323.507 189.232H323.459C322.847 189.748 322.115 190.168 321.311 190.168ZM321.611 189.28C322.247 189.28 322.775 188.98 323.399 188.416V186.604C321.203 186.856 320.471 187.396 320.471 188.236C320.471 188.98 320.975 189.28 321.611 189.28ZM327.725 190.168C326.897 190.168 326.573 189.64 326.573 188.704V180.46H327.665V188.776C327.665 189.124 327.809 189.256 327.977 189.256C328.025 189.256 328.073 189.256 328.205 189.232L328.349 190.072C328.193 190.12 328.025 190.168 327.725 190.168ZM287.2 202V193.204H289.804C291.592 193.204 292.828 193.816 292.828 195.364C292.828 196.228 292.372 196.996 291.544 197.272V197.32C292.6 197.524 293.332 198.232 293.332 199.432C293.332 201.148 291.964 202 290.008 202H287.2ZM288.316 196.948H289.612C291.124 196.948 291.736 196.396 291.736 195.496C291.736 194.464 291.04 194.08 289.672 194.08H288.316V196.948ZM288.316 201.124H289.852C291.352 201.124 292.252 200.584 292.252 199.396C292.252 198.304 291.388 197.8 289.852 197.8H288.316V201.124ZM297.619 202.168C295.879 202.168 294.499 200.896 294.499 198.76C294.499 196.636 295.927 195.328 297.427 195.328C299.083 195.328 300.019 196.516 300.019 198.388C300.019 198.616 300.007 198.844 299.971 199.012H295.579C295.663 200.392 296.503 201.292 297.751 201.292C298.375 201.292 298.891 201.088 299.371 200.764L299.767 201.496C299.191 201.868 298.507 202.168 297.619 202.168ZM295.567 198.22H299.059C299.059 196.912 298.471 196.204 297.439 196.204C296.527 196.204 295.711 196.936 295.567 198.22ZM303.511 202.168C302.119 202.168 301.663 201.292 301.663 199.996V196.372H300.691V195.556L301.711 195.484L301.831 193.648H302.755V195.484H304.519V196.372H302.755V200.02C302.755 200.812 303.007 201.28 303.763 201.28C303.991 201.28 304.291 201.184 304.495 201.1L304.711 201.916C304.351 202.048 303.919 202.168 303.511 202.168ZM307.027 202L305.203 195.484H306.319L307.303 199.264C307.435 199.888 307.555 200.464 307.675 201.076H307.735C307.879 200.464 308.011 199.876 308.179 199.264L309.187 195.484H310.255L311.287 199.264C311.443 199.888 311.587 200.464 311.743 201.076H311.791C311.923 200.464 312.043 199.888 312.199 199.264L313.147 195.484H314.191L312.439 202H311.107L310.159 198.496C309.991 197.872 309.871 197.284 309.715 196.612H309.655C309.523 197.284 309.391 197.884 309.211 198.508L308.299 202H307.027ZM318.162 202.168C316.422 202.168 315.042 200.896 315.042 198.76C315.042 196.636 316.47 195.328 317.97 195.328C319.626 195.328 320.562 196.516 320.562 198.388C320.562 198.616 320.55 198.844 320.514 199.012H316.122C316.206 200.392 317.046 201.292 318.294 201.292C318.918 201.292 319.434 201.088 319.914 200.764L320.31 201.496C319.734 201.868 319.05 202.168 318.162 202.168ZM316.11 198.22H319.602C319.602 196.912 319.014 196.204 317.982 196.204C317.07 196.204 316.254 196.936 316.11 198.22ZM324.806 202.168C323.066 202.168 321.686 200.896 321.686 198.76C321.686 196.636 323.114 195.328 324.614 195.328C326.27 195.328 327.206 196.516 327.206 198.388C327.206 198.616 327.194 198.844 327.158 199.012H322.766C322.85 200.392 323.69 201.292 324.938 201.292C325.562 201.292 326.078 201.088 326.558 200.764L326.954 201.496C326.378 201.868 325.694 202.168 324.806 202.168ZM322.754 198.22H326.246C326.246 196.912 325.658 196.204 324.626 196.204C323.714 196.204 322.898 196.936 322.754 198.22ZM328.823 202V195.484H329.711L329.819 196.432H329.855C330.467 195.82 331.139 195.328 332.039 195.328C333.407 195.328 334.031 196.216 334.031 197.872V202H332.927V198.016C332.927 196.792 332.555 196.276 331.691 196.276C331.031 196.276 330.563 196.624 329.915 197.272V202H328.823ZM287.2 214V205.204H288.316V213.064H292.156V214H287.2ZM295.12 214.168C294.028 214.168 293.212 213.484 293.212 212.308C293.212 210.892 294.436 210.184 297.208 209.872C297.208 209.032 296.944 208.228 295.876 208.228C295.108 208.228 294.424 208.588 293.92 208.936L293.488 208.168C294.088 207.784 295 207.328 296.044 207.328C297.64 207.328 298.312 208.384 298.312 210.004V214H297.412L297.316 213.232H297.268C296.656 213.748 295.924 214.168 295.12 214.168ZM295.42 213.28C296.056 213.28 296.584 212.98 297.208 212.416V210.604C295.012 210.856 294.28 211.396 294.28 212.236C294.28 212.98 294.784 213.28 295.42 213.28ZM300.477 216.82C300.177 216.82 299.925 216.772 299.721 216.688L299.937 215.812C300.057 215.86 300.249 215.908 300.429 215.908C301.161 215.908 301.629 215.308 301.905 214.504L302.049 214.012L299.433 207.484H300.561L301.893 211.108C302.097 211.684 302.313 212.344 302.529 212.944H302.589C302.769 212.344 302.961 211.696 303.129 211.108L304.305 207.484H305.373L302.913 214.552C302.457 215.836 301.785 216.82 300.477 216.82ZM309.185 214.168C307.445 214.168 306.065 212.896 306.065 210.76C306.065 208.636 307.493 207.328 308.993 207.328C310.649 207.328 311.585 208.516 311.585 210.388C311.585 210.616 311.573 210.844 311.537 211.012H307.145C307.229 212.392 308.069 213.292 309.317 213.292C309.941 213.292 310.457 213.088 310.937 212.764L311.333 213.496C310.757 213.868 310.073 214.168 309.185 214.168ZM307.133 210.22H310.625C310.625 208.912 310.037 208.204 309.005 208.204C308.093 208.204 307.277 208.936 307.133 210.22ZM313.202 214V207.484H314.09L314.198 208.672H314.234C314.678 207.844 315.35 207.328 316.082 207.328C316.37 207.328 316.562 207.364 316.778 207.46L316.574 208.42C316.346 208.348 316.202 208.312 315.938 208.312C315.398 208.312 314.726 208.708 314.294 209.824V214H313.202ZM319.476 214.168C318.552 214.168 317.652 213.772 317.04 213.268L317.58 212.536C318.144 212.992 318.72 213.316 319.5 213.316C320.364 213.316 320.796 212.86 320.796 212.284C320.796 211.624 320.016 211.324 319.296 211.06C318.396 210.712 317.4 210.28 317.4 209.164C317.4 208.132 318.228 207.328 319.644 207.328C320.448 207.328 321.168 207.652 321.672 208.06L321.144 208.756C320.7 208.432 320.232 208.18 319.656 208.18C318.828 208.18 318.456 208.612 318.456 209.116C318.456 209.74 319.116 209.98 319.86 210.244C320.808 210.604 321.84 210.988 321.84 212.224C321.84 213.292 321.012 214.168 319.476 214.168Z" fill="#1E252C"/>
</svg>
