<svg width="360" height="328" viewBox="0 0 360 328" fill="none" xmlns="http://www.w3.org/2000/svg">
<rect width="360" height="328" fill="white"/>
<rect x="135" y="55" width="150" height="218" fill="#D9D9D9"/>
<circle cx="165.68" cy="72.68" r="3.68" fill="#1E252C"/>
<circle cx="165.937" cy="161.078" r="3.68" fill="white"/>
<circle cx="165.937" cy="191.475" r="3.68" fill="white"/>
<circle cx="165.937" cy="130.68" r="3.68" fill="white"/>
<circle cx="254.335" cy="161.078" r="3.68" fill="white"/>
<circle cx="254.335" cy="191.475" r="3.68" fill="white"/>
<circle cx="254.335" cy="130.68" r="3.68" fill="white"/>
<circle cx="195.067" cy="72.68" r="3.68" fill="#1E252C"/>
<circle cx="224.454" cy="72.68" r="3.68" fill="#1E252C"/>
<circle cx="179.937" cy="92.2738" r="3.68" fill="#1E252C"/>
<circle cx="209.324" cy="92.2738" r="3.68" fill="#1E252C"/>
<circle cx="238.711" cy="92.2738" r="3.68" fill="#1E252C"/>
<circle cx="253.841" cy="72.68" r="3.68" fill="#1E252C"/>
<path d="M43.9188 91V82.204H45.0348V91H43.9188ZM47.3384 91V84.484H48.2264L48.3344 85.432H48.3704C48.9824 84.82 49.6544 84.328 50.5544 84.328C51.9224 84.328 52.5464 85.216 52.5464 86.872V91H51.4424V87.016C51.4424 85.792 51.0704 85.276 50.2064 85.276C49.5464 85.276 49.0784 85.624 48.4304 86.272V91H47.3384ZM56.7026 91.168C55.3106 91.168 54.8546 90.292 54.8546 88.996V85.372H53.8826V84.556L54.9026 84.484L55.0226 82.648H55.9466V84.484H57.7106V85.372H55.9466V89.02C55.9466 89.812 56.1986 90.28 56.9546 90.28C57.1826 90.28 57.4826 90.184 57.6866 90.1L57.9026 90.916C57.5426 91.048 57.1106 91.168 56.7026 91.168ZM61.6031 91.168C59.8631 91.168 58.4831 89.896 58.4831 87.76C58.4831 85.636 59.9111 84.328 61.4111 84.328C63.0671 84.328 64.0031 85.516 64.0031 87.388C64.0031 87.616 63.9911 87.844 63.9551 88.012H59.5631C59.6471 89.392 60.4871 90.292 61.7351 90.292C62.3591 90.292 62.8751 90.088 63.3551 89.764L63.7511 90.496C63.1751 90.868 62.4911 91.168 61.6031 91.168ZM59.5511 87.22H63.0431C63.0431 85.912 62.4551 85.204 61.4231 85.204C60.5111 85.204 59.6951 85.936 59.5511 87.22ZM65.6196 91V84.484H66.5076L66.6156 85.672H66.6516C67.0956 84.844 67.7676 84.328 68.4996 84.328C68.7876 84.328 68.9796 84.364 69.1956 84.46L68.9916 85.42C68.7636 85.348 68.6196 85.312 68.3556 85.312C67.8156 85.312 67.1436 85.708 66.7116 86.824V91H65.6196ZM71.9807 91L69.6287 84.484H70.7567L71.9927 88.204C72.1847 88.84 72.3887 89.5 72.5927 90.112H72.6407C72.8447 89.5 73.0487 88.84 73.2407 88.204L74.4887 84.484H75.5567L73.2527 91H71.9807ZM78.0298 91.168C76.9378 91.168 76.1218 90.484 76.1218 89.308C76.1218 87.892 77.3458 87.184 80.1178 86.872C80.1178 86.032 79.8538 85.228 78.7858 85.228C78.0178 85.228 77.3338 85.588 76.8298 85.936L76.3978 85.168C76.9978 84.784 77.9098 84.328 78.9538 84.328C80.5498 84.328 81.2218 85.384 81.2218 87.004V91H80.3218L80.2258 90.232H80.1778C79.5658 90.748 78.8338 91.168 78.0298 91.168ZM78.3298 90.28C78.9658 90.28 79.4938 89.98 80.1178 89.416V87.604C77.9218 87.856 77.1898 88.396 77.1898 89.236C77.1898 89.98 77.6938 90.28 78.3298 90.28ZM84.4435 91.168C83.6155 91.168 83.2915 90.64 83.2915 89.704V81.46H84.3835V89.776C84.3835 90.124 84.5275 90.256 84.6955 90.256C84.7435 90.256 84.7915 90.256 84.9235 90.232L85.0675 91.072C84.9115 91.12 84.7435 91.168 84.4435 91.168ZM22.6961 103V94.204H25.3001C27.0881 94.204 28.3241 94.816 28.3241 96.364C28.3241 97.228 27.8681 97.996 27.0401 98.272V98.32C28.0961 98.524 28.8281 99.232 28.8281 100.432C28.8281 102.148 27.4601 103 25.5041 103H22.6961ZM23.8121 97.948H25.1081C26.6201 97.948 27.2321 97.396 27.2321 96.496C27.2321 95.464 26.5361 95.08 25.1681 95.08H23.8121V97.948ZM23.8121 102.124H25.3481C26.8481 102.124 27.7481 101.584 27.7481 100.396C27.7481 99.304 26.8841 98.8 25.3481 98.8H23.8121V102.124ZM33.1148 103.168C31.3748 103.168 29.9948 101.896 29.9948 99.76C29.9948 97.636 31.4228 96.328 32.9228 96.328C34.5788 96.328 35.5148 97.516 35.5148 99.388C35.5148 99.616 35.5028 99.844 35.4668 100.012H31.0748C31.1588 101.392 31.9988 102.292 33.2468 102.292C33.8708 102.292 34.3868 102.088 34.8668 101.764L35.2628 102.496C34.6868 102.868 34.0028 103.168 33.1148 103.168ZM31.0628 99.22H34.5548C34.5548 97.912 33.9668 97.204 32.9348 97.204C32.0228 97.204 31.2068 97.936 31.0628 99.22ZM39.0073 103.168C37.6153 103.168 37.1593 102.292 37.1593 100.996V97.372H36.1873V96.556L37.2073 96.484L37.3273 94.648H38.2513V96.484H40.0153V97.372H38.2513V101.02C38.2513 101.812 38.5033 102.28 39.2593 102.28C39.4873 102.28 39.7873 102.184 39.9913 102.1L40.2073 102.916C39.8473 103.048 39.4153 103.168 39.0073 103.168ZM42.5227 103L40.6987 96.484H41.8147L42.7987 100.264C42.9307 100.888 43.0507 101.464 43.1707 102.076H43.2307C43.3747 101.464 43.5067 100.876 43.6747 100.264L44.6827 96.484H45.7507L46.7827 100.264C46.9387 100.888 47.0827 101.464 47.2387 102.076H47.2867C47.4187 101.464 47.5387 100.888 47.6947 100.264L48.6427 96.484H49.6867L47.9347 103H46.6027L45.6547 99.496C45.4867 98.872 45.3667 98.284 45.2107 97.612H45.1507C45.0187 98.284 44.8867 98.884 44.7067 99.508L43.7947 103H42.5227ZM53.6578 103.168C51.9178 103.168 50.5378 101.896 50.5378 99.76C50.5378 97.636 51.9658 96.328 53.4658 96.328C55.1218 96.328 56.0578 97.516 56.0578 99.388C56.0578 99.616 56.0458 99.844 56.0098 100.012H51.6178C51.7018 101.392 52.5418 102.292 53.7898 102.292C54.4138 102.292 54.9298 102.088 55.4098 101.764L55.8058 102.496C55.2298 102.868 54.5458 103.168 53.6578 103.168ZM51.6058 99.22H55.0978C55.0978 97.912 54.5098 97.204 53.4778 97.204C52.5658 97.204 51.7498 97.936 51.6058 99.22ZM60.3023 103.168C58.5623 103.168 57.1823 101.896 57.1823 99.76C57.1823 97.636 58.6103 96.328 60.1103 96.328C61.7663 96.328 62.7023 97.516 62.7023 99.388C62.7023 99.616 62.6903 99.844 62.6543 100.012H58.2623C58.3463 101.392 59.1863 102.292 60.4343 102.292C61.0583 102.292 61.5743 102.088 62.0543 101.764L62.4503 102.496C61.8743 102.868 61.1903 103.168 60.3023 103.168ZM58.2503 99.22H61.7423C61.7423 97.912 61.1543 97.204 60.1223 97.204C59.2103 97.204 58.3943 97.936 58.2503 99.22ZM64.3188 103V96.484H65.2068L65.3148 97.432H65.3508C65.9628 96.82 66.6348 96.328 67.5348 96.328C68.9028 96.328 69.5268 97.216 69.5268 98.872V103H68.4228V99.016C68.4228 97.792 68.0508 97.276 67.1868 97.276C66.5268 97.276 66.0588 97.624 65.4108 98.272V103H64.3188ZM74.4227 103V94.204H75.5387V102.064H79.3787V103H74.4227ZM82.3423 103.168C81.2503 103.168 80.4343 102.484 80.4343 101.308C80.4343 99.892 81.6583 99.184 84.4303 98.872C84.4303 98.032 84.1663 97.228 83.0983 97.228C82.3303 97.228 81.6463 97.588 81.1423 97.936L80.7103 97.168C81.3103 96.784 82.2223 96.328 83.2663 96.328C84.8623 96.328 85.5343 97.384 85.5343 99.004V103H84.6343L84.5383 102.232H84.4903C83.8783 102.748 83.1463 103.168 82.3423 103.168ZM82.6423 102.28C83.2783 102.28 83.8063 101.98 84.4303 101.416V99.604C82.2343 99.856 81.5023 100.396 81.5023 101.236C81.5023 101.98 82.0063 102.28 82.6423 102.28ZM87.7 105.82C87.4 105.82 87.148 105.772 86.944 105.688L87.16 104.812C87.28 104.86 87.472 104.908 87.652 104.908C88.384 104.908 88.852 104.308 89.128 103.504L89.272 103.012L86.656 96.484H87.784L89.116 100.108C89.32 100.684 89.536 101.344 89.752 101.944H89.812C89.992 101.344 90.184 100.696 90.352 100.108L91.528 96.484H92.596L90.136 103.552C89.68 104.836 89.008 105.82 87.7 105.82ZM96.4078 103.168C94.6678 103.168 93.2878 101.896 93.2878 99.76C93.2878 97.636 94.7158 96.328 96.2158 96.328C97.8718 96.328 98.8078 97.516 98.8078 99.388C98.8078 99.616 98.7958 99.844 98.7598 100.012H94.3678C94.4518 101.392 95.2918 102.292 96.5398 102.292C97.1638 102.292 97.6798 102.088 98.1598 101.764L98.5558 102.496C97.9798 102.868 97.2958 103.168 96.4078 103.168ZM94.3558 99.22H97.8478C97.8478 97.912 97.2598 97.204 96.2278 97.204C95.3158 97.204 94.4998 97.936 94.3558 99.22ZM100.424 103V96.484H101.312L101.42 97.672H101.456C101.9 96.844 102.572 96.328 103.304 96.328C103.592 96.328 103.784 96.364 104 96.46L103.796 97.42C103.568 97.348 103.424 97.312 103.16 97.312C102.62 97.312 101.948 97.708 101.516 98.824V103H100.424ZM106.699 103.168C105.775 103.168 104.875 102.772 104.263 102.268L104.803 101.536C105.367 101.992 105.943 102.316 106.723 102.316C107.587 102.316 108.019 101.86 108.019 101.284C108.019 100.624 107.239 100.324 106.519 100.06C105.619 99.712 104.623 99.28 104.623 98.164C104.623 97.132 105.451 96.328 106.867 96.328C107.671 96.328 108.391 96.652 108.895 97.06L108.367 97.756C107.923 97.432 107.455 97.18 106.879 97.18C106.051 97.18 105.679 97.612 105.679 98.116C105.679 98.74 106.339 98.98 107.083 99.244C108.031 99.604 109.063 99.988 109.063 101.224C109.063 102.292 108.235 103.168 106.699 103.168Z" fill="#1E252C"/>
<path d="M4.44414 60V51.204H7.19214C8.98014 51.204 10.2641 51.852 10.2641 53.676C10.2641 55.44 8.98014 56.28 7.19214 56.28H5.56014V60H4.44414ZM5.56014 55.38H7.03614C8.40414 55.38 9.16014 54.816 9.16014 53.676C9.16014 52.524 8.40414 52.116 7.03614 52.116H5.56014V55.38ZM9.28014 60L6.97614 55.98L7.84014 55.404L10.5281 60H9.28014ZM14.4293 60.168C12.6893 60.168 11.3093 58.896 11.3093 56.76C11.3093 54.636 12.7373 53.328 14.2373 53.328C15.8933 53.328 16.8293 54.516 16.8293 56.388C16.8293 56.616 16.8173 56.844 16.7813 57.012H12.3893C12.4733 58.392 13.3133 59.292 14.5613 59.292C15.1853 59.292 15.7013 59.088 16.1813 58.764L16.5773 59.496C16.0013 59.868 15.3173 60.168 14.4293 60.168ZM12.3773 56.22H15.8693C15.8693 54.912 15.2813 54.204 14.2493 54.204C13.3373 54.204 12.5213 54.936 12.3773 56.22ZM21.3018 60.168C20.7018 60.168 20.0178 59.856 19.4538 59.328H19.4178L19.3098 60H18.4458V50.46H19.5378V53.064L19.4898 54.24C20.0898 53.724 20.8098 53.328 21.5418 53.328C23.2218 53.328 24.1338 54.636 24.1338 56.64C24.1338 58.872 22.8018 60.168 21.3018 60.168ZM21.1338 59.244C22.2018 59.244 23.0058 58.272 23.0058 56.664C23.0058 55.212 22.5138 54.24 21.2778 54.24C20.7258 54.24 20.1498 54.552 19.5378 55.14V58.572C20.1018 59.064 20.7018 59.244 21.1338 59.244ZM27.1411 60.168C26.0491 60.168 25.2331 59.484 25.2331 58.308C25.2331 56.892 26.4571 56.184 29.2291 55.872C29.2291 55.032 28.9651 54.228 27.8971 54.228C27.1291 54.228 26.4451 54.588 25.9411 54.936L25.5091 54.168C26.1091 53.784 27.0211 53.328 28.0651 53.328C29.6611 53.328 30.3331 54.384 30.3331 56.004V60H29.4331L29.3371 59.232H29.2891C28.6771 59.748 27.9451 60.168 27.1411 60.168ZM27.4411 59.28C28.0771 59.28 28.6051 58.98 29.2291 58.416V56.604C27.0331 56.856 26.3011 57.396 26.3011 58.236C26.3011 58.98 26.8051 59.28 27.4411 59.28ZM32.4028 60V53.484H33.2908L33.3988 54.672H33.4348C33.8788 53.844 34.5508 53.328 35.2828 53.328C35.5708 53.328 35.7628 53.364 35.9788 53.46L35.7748 54.42C35.5468 54.348 35.4028 54.312 35.1388 54.312C34.5988 54.312 33.9268 54.708 33.4948 55.824V60H32.4028ZM42.2948 60.168C40.5668 60.168 39.2468 58.908 39.2468 56.76C39.2468 54.576 40.7108 53.328 42.3788 53.328C43.2308 53.328 43.8308 53.676 44.2868 54.096L43.7348 54.816C43.3508 54.468 42.9428 54.24 42.4388 54.24C41.2388 54.24 40.3748 55.248 40.3748 56.76C40.3748 58.248 41.2028 59.256 42.4028 59.256C42.9908 59.256 43.5308 58.968 43.9388 58.608L44.4068 59.34C43.8308 59.856 43.0748 60.168 42.2948 60.168ZM48.0715 60.168C46.4635 60.168 45.0475 58.908 45.0475 56.76C45.0475 54.576 46.4635 53.328 48.0715 53.328C49.6675 53.328 51.0835 54.576 51.0835 56.76C51.0835 58.908 49.6675 60.168 48.0715 60.168ZM48.0715 59.256C49.1995 59.256 49.9555 58.248 49.9555 56.76C49.9555 55.248 49.1995 54.24 48.0715 54.24C46.9315 54.24 46.1755 55.248 46.1755 56.76C46.1755 58.248 46.9315 59.256 48.0715 59.256ZM54.1389 60L51.7869 53.484H52.9149L54.1509 57.204C54.3429 57.84 54.5469 58.5 54.7509 59.112H54.7989C55.0029 58.5 55.2069 57.84 55.3989 57.204L56.6469 53.484H57.7149L55.4109 60H54.1389ZM61.5386 60.168C59.7986 60.168 58.4186 58.896 58.4186 56.76C58.4186 54.636 59.8466 53.328 61.3466 53.328C63.0026 53.328 63.9386 54.516 63.9386 56.388C63.9386 56.616 63.9266 56.844 63.8906 57.012H59.4986C59.5826 58.392 60.4226 59.292 61.6706 59.292C62.2946 59.292 62.8106 59.088 63.2906 58.764L63.6866 59.496C63.1106 59.868 62.4266 60.168 61.5386 60.168ZM59.4866 56.22H62.9786C62.9786 54.912 62.3906 54.204 61.3586 54.204C60.4466 54.204 59.6306 54.936 59.4866 56.22ZM65.5552 60V53.484H66.4432L66.5512 54.672H66.5872C67.0312 53.844 67.7032 53.328 68.4352 53.328C68.7232 53.328 68.9152 53.364 69.1312 53.46L68.9272 54.42C68.6992 54.348 68.5552 54.312 68.2912 54.312C67.7512 54.312 67.0792 54.708 66.6472 55.824V60H65.5552ZM74.3911 60.168C73.2991 60.168 72.4831 59.484 72.4831 58.308C72.4831 56.892 73.7071 56.184 76.4791 55.872C76.4791 55.032 76.2151 54.228 75.1471 54.228C74.3791 54.228 73.6951 54.588 73.1911 54.936L72.7591 54.168C73.3591 53.784 74.2711 53.328 75.3151 53.328C76.9111 53.328 77.5831 54.384 77.5831 56.004V60H76.6831L76.5871 59.232H76.5391C75.9271 59.748 75.1951 60.168 74.3911 60.168ZM74.6911 59.28C75.3271 59.28 75.8551 58.98 76.4791 58.416V56.604C74.2831 56.856 73.5511 57.396 73.5511 58.236C73.5511 58.98 74.0551 59.28 74.6911 59.28ZM81.4819 60.168C80.0899 60.168 79.6339 59.292 79.6339 57.996V54.372H78.6619V53.556L79.6819 53.484L79.8019 51.648H80.7259V53.484H82.4899V54.372H80.7259V58.02C80.7259 58.812 80.9779 59.28 81.7339 59.28C81.9619 59.28 82.2619 59.184 82.4659 59.1L82.6819 59.916C82.3219 60.048 81.8899 60.168 81.4819 60.168ZM89.2049 60.168C87.4769 60.168 86.1569 58.908 86.1569 56.76C86.1569 54.576 87.6209 53.328 89.2889 53.328C90.1409 53.328 90.7409 53.676 91.1969 54.096L90.6449 54.816C90.2609 54.468 89.8529 54.24 89.3489 54.24C88.1489 54.24 87.2849 55.248 87.2849 56.76C87.2849 58.248 88.1129 59.256 89.3129 59.256C89.9009 59.256 90.4409 58.968 90.8489 58.608L91.3169 59.34C90.7409 59.856 89.9849 60.168 89.2049 60.168ZM94.9817 60.168C93.3737 60.168 91.9577 58.908 91.9577 56.76C91.9577 54.576 93.3737 53.328 94.9817 53.328C96.5777 53.328 97.9937 54.576 97.9937 56.76C97.9937 58.908 96.5777 60.168 94.9817 60.168ZM94.9817 59.256C96.1097 59.256 96.8657 58.248 96.8657 56.76C96.8657 55.248 96.1097 54.24 94.9817 54.24C93.8417 54.24 93.0857 55.248 93.0857 56.76C93.0857 58.248 93.8417 59.256 94.9817 59.256ZM99.727 60V53.484H100.615L100.723 54.672H100.759C101.203 53.844 101.875 53.328 102.607 53.328C102.895 53.328 103.087 53.364 103.303 53.46L103.099 54.42C102.871 54.348 102.727 54.312 102.463 54.312C101.923 54.312 101.251 54.708 100.819 55.824V60H99.727ZM106.843 60.168C105.103 60.168 103.723 58.896 103.723 56.76C103.723 54.636 105.151 53.328 106.651 53.328C108.307 53.328 109.243 54.516 109.243 56.388C109.243 56.616 109.231 56.844 109.195 57.012H104.803C104.887 58.392 105.727 59.292 106.975 59.292C107.599 59.292 108.115 59.088 108.595 58.764L108.991 59.496C108.415 59.868 107.731 60.168 106.843 60.168ZM104.791 56.22H108.283C108.283 54.912 107.695 54.204 106.663 54.204C105.751 54.204 104.935 54.936 104.791 56.22Z" fill="#1E252C"/>
<path d="M278.507 117.168C276.287 117.168 274.751 115.392 274.751 112.572C274.751 109.752 276.287 108.048 278.507 108.048C280.715 108.048 282.251 109.764 282.251 112.572C282.251 115.392 280.715 117.168 278.507 117.168ZM278.507 116.244C280.079 116.244 281.123 114.828 281.123 112.572C281.123 110.376 280.079 109.02 278.507 109.02C276.923 109.02 275.891 110.376 275.891 112.572C275.891 114.828 276.923 116.244 278.507 116.244ZM281.195 119.22C279.515 119.22 278.375 118.26 277.907 116.976L279.059 116.892C279.407 117.816 280.271 118.284 281.315 118.284C281.711 118.284 281.999 118.236 282.239 118.152L282.455 119.016C282.179 119.124 281.723 119.22 281.195 119.22ZM285.961 117.168C284.593 117.168 283.969 116.28 283.969 114.612V110.484H285.061V114.48C285.061 115.692 285.433 116.208 286.297 116.208C286.957 116.208 287.437 115.884 288.049 115.116V110.484H289.141V117H288.241L288.145 115.98H288.121C287.509 116.688 286.861 117.168 285.961 117.168ZM292.854 117.168C291.762 117.168 290.946 116.484 290.946 115.308C290.946 113.892 292.17 113.184 294.942 112.872C294.942 112.032 294.678 111.228 293.61 111.228C292.842 111.228 292.158 111.588 291.654 111.936L291.222 111.168C291.822 110.784 292.734 110.328 293.778 110.328C295.374 110.328 296.046 111.384 296.046 113.004V117H295.146L295.05 116.232H295.002C294.39 116.748 293.658 117.168 292.854 117.168ZM293.154 116.28C293.79 116.28 294.318 115.98 294.942 115.416V113.604C292.746 113.856 292.014 114.396 292.014 115.236C292.014 115.98 292.518 116.28 293.154 116.28ZM298.116 117V110.484H299.004L299.112 111.432H299.148C299.76 110.82 300.432 110.328 301.332 110.328C302.7 110.328 303.324 111.216 303.324 112.872V117H302.22V113.016C302.22 111.792 301.848 111.276 300.984 111.276C300.324 111.276 299.856 111.624 299.208 112.272V117H298.116ZM307.48 117.168C306.088 117.168 305.632 116.292 305.632 114.996V111.372H304.66V110.556L305.68 110.484L305.8 108.648H306.724V110.484H308.488V111.372H306.724V115.02C306.724 115.812 306.976 116.28 307.732 116.28C307.96 116.28 308.26 116.184 308.464 116.1L308.68 116.916C308.32 117.048 307.888 117.168 307.48 117.168ZM309.963 117V110.484H311.055V117H309.963ZM310.515 109.14C310.083 109.14 309.783 108.864 309.783 108.408C309.783 107.988 310.083 107.712 310.515 107.712C310.935 107.712 311.247 107.988 311.247 108.408C311.247 108.864 310.935 109.14 310.515 109.14ZM315.308 117.168C313.916 117.168 313.46 116.292 313.46 114.996V111.372H312.488V110.556L313.508 110.484L313.628 108.648H314.552V110.484H316.316V111.372H314.552V115.02C314.552 115.812 314.804 116.28 315.56 116.28C315.788 116.28 316.088 116.184 316.292 116.1L316.508 116.916C316.148 117.048 315.716 117.168 315.308 117.168ZM317.888 119.82C317.588 119.82 317.336 119.772 317.132 119.688L317.348 118.812C317.468 118.86 317.66 118.908 317.84 118.908C318.572 118.908 319.04 118.308 319.316 117.504L319.46 117.012L316.844 110.484H317.972L319.304 114.108C319.508 114.684 319.724 115.344 319.94 115.944H320C320.18 115.344 320.372 114.696 320.54 114.108L321.716 110.484H322.784L320.324 117.552C319.868 118.836 319.196 119.82 317.888 119.82Z" fill="#CE2C3F"/>
<path d="M275.477 70V61.204H280.541V62.14H276.593V65.128H279.941V66.052H276.593V70H275.477ZM282.002 70V63.484H283.094V70H282.002ZM282.554 62.14C282.122 62.14 281.822 61.864 281.822 61.408C281.822 60.988 282.122 60.712 282.554 60.712C282.974 60.712 283.286 60.988 283.286 61.408C283.286 61.864 282.974 62.14 282.554 62.14ZM285.307 70V63.484H286.195L286.303 64.672H286.339C286.783 63.844 287.455 63.328 288.187 63.328C288.475 63.328 288.667 63.364 288.883 63.46L288.679 64.42C288.451 64.348 288.307 64.312 288.043 64.312C287.503 64.312 286.831 64.708 286.399 65.824V70H285.307ZM291.581 70.168C290.657 70.168 289.757 69.772 289.145 69.268L289.685 68.536C290.249 68.992 290.825 69.316 291.605 69.316C292.469 69.316 292.901 68.86 292.901 68.284C292.901 67.624 292.121 67.324 291.401 67.06C290.501 66.712 289.505 66.28 289.505 65.164C289.505 64.132 290.333 63.328 291.749 63.328C292.553 63.328 293.273 63.652 293.777 64.06L293.249 64.756C292.805 64.432 292.337 64.18 291.761 64.18C290.933 64.18 290.561 64.612 290.561 65.116C290.561 65.74 291.221 65.98 291.965 66.244C292.913 66.604 293.945 66.988 293.945 68.224C293.945 69.292 293.117 70.168 291.581 70.168ZM297.226 70.168C295.834 70.168 295.378 69.292 295.378 67.996V64.372H294.406V63.556L295.426 63.484L295.546 61.648H296.47V63.484H298.234V64.372H296.47V68.02C296.47 68.812 296.722 69.28 297.478 69.28C297.706 69.28 298.006 69.184 298.21 69.1L298.426 69.916C298.066 70.048 297.634 70.168 297.226 70.168ZM302.489 70V61.204H303.605V69.064H307.445V70H302.489ZM310.409 70.168C309.317 70.168 308.501 69.484 308.501 68.308C308.501 66.892 309.725 66.184 312.497 65.872C312.497 65.032 312.233 64.228 311.165 64.228C310.397 64.228 309.713 64.588 309.209 64.936L308.777 64.168C309.377 63.784 310.289 63.328 311.333 63.328C312.929 63.328 313.601 64.384 313.601 66.004V70H312.701L312.605 69.232H312.557C311.945 69.748 311.213 70.168 310.409 70.168ZM310.709 69.28C311.345 69.28 311.873 68.98 312.497 68.416V66.604C310.301 66.856 309.569 67.396 309.569 68.236C309.569 68.98 310.073 69.28 310.709 69.28ZM315.766 72.82C315.466 72.82 315.214 72.772 315.01 72.688L315.226 71.812C315.346 71.86 315.538 71.908 315.718 71.908C316.45 71.908 316.918 71.308 317.194 70.504L317.338 70.012L314.722 63.484H315.85L317.182 67.108C317.386 67.684 317.602 68.344 317.818 68.944H317.878C318.058 68.344 318.25 67.696 318.418 67.108L319.594 63.484H320.662L318.202 70.552C317.746 71.836 317.074 72.82 315.766 72.82ZM324.474 70.168C322.734 70.168 321.354 68.896 321.354 66.76C321.354 64.636 322.782 63.328 324.282 63.328C325.938 63.328 326.874 64.516 326.874 66.388C326.874 66.616 326.862 66.844 326.826 67.012H322.434C322.518 68.392 323.358 69.292 324.606 69.292C325.23 69.292 325.746 69.088 326.226 68.764L326.622 69.496C326.046 69.868 325.362 70.168 324.474 70.168ZM322.422 66.22H325.914C325.914 64.912 325.326 64.204 324.294 64.204C323.382 64.204 322.566 64.936 322.422 66.22ZM328.491 70V63.484H329.379L329.487 64.672H329.523C329.967 63.844 330.639 63.328 331.371 63.328C331.659 63.328 331.851 63.364 332.067 63.46L331.863 64.42C331.635 64.348 331.491 64.312 331.227 64.312C330.687 64.312 330.015 64.708 329.583 65.824V70H328.491ZM284.507 87.168C282.287 87.168 280.751 85.392 280.751 82.572C280.751 79.752 282.287 78.048 284.507 78.048C286.715 78.048 288.251 79.764 288.251 82.572C288.251 85.392 286.715 87.168 284.507 87.168ZM284.507 86.244C286.079 86.244 287.123 84.828 287.123 82.572C287.123 80.376 286.079 79.02 284.507 79.02C282.923 79.02 281.891 80.376 281.891 82.572C281.891 84.828 282.923 86.244 284.507 86.244ZM287.195 89.22C285.515 89.22 284.375 88.26 283.907 86.976L285.059 86.892C285.407 87.816 286.271 88.284 287.315 88.284C287.711 88.284 287.999 88.236 288.239 88.152L288.455 89.016C288.179 89.124 287.723 89.22 287.195 89.22ZM291.961 87.168C290.593 87.168 289.969 86.28 289.969 84.612V80.484H291.061V84.48C291.061 85.692 291.433 86.208 292.297 86.208C292.957 86.208 293.437 85.884 294.049 85.116V80.484H295.141V87H294.241L294.145 85.98H294.121C293.509 86.688 292.861 87.168 291.961 87.168ZM298.854 87.168C297.762 87.168 296.946 86.484 296.946 85.308C296.946 83.892 298.17 83.184 300.942 82.872C300.942 82.032 300.678 81.228 299.61 81.228C298.842 81.228 298.158 81.588 297.654 81.936L297.222 81.168C297.822 80.784 298.734 80.328 299.778 80.328C301.374 80.328 302.046 81.384 302.046 83.004V87H301.146L301.05 86.232H301.002C300.39 86.748 299.658 87.168 298.854 87.168ZM299.154 86.28C299.79 86.28 300.318 85.98 300.942 85.416V83.604C298.746 83.856 298.014 84.396 298.014 85.236C298.014 85.98 298.518 86.28 299.154 86.28ZM304.116 87V80.484H305.004L305.112 81.432H305.148C305.76 80.82 306.432 80.328 307.332 80.328C308.7 80.328 309.324 81.216 309.324 82.872V87H308.22V83.016C308.22 81.792 307.848 81.276 306.984 81.276C306.324 81.276 305.856 81.624 305.208 82.272V87H304.116ZM313.48 87.168C312.088 87.168 311.632 86.292 311.632 84.996V81.372H310.66V80.556L311.68 80.484L311.8 78.648H312.724V80.484H314.488V81.372H312.724V85.02C312.724 85.812 312.976 86.28 313.732 86.28C313.96 86.28 314.26 86.184 314.464 86.1L314.68 86.916C314.32 87.048 313.888 87.168 313.48 87.168ZM315.963 87V80.484H317.055V87H315.963ZM316.515 79.14C316.083 79.14 315.783 78.864 315.783 78.408C315.783 77.988 316.083 77.712 316.515 77.712C316.935 77.712 317.247 77.988 317.247 78.408C317.247 78.864 316.935 79.14 316.515 79.14ZM321.308 87.168C319.916 87.168 319.46 86.292 319.46 84.996V81.372H318.488V80.556L319.508 80.484L319.628 78.648H320.552V80.484H322.316V81.372H320.552V85.02C320.552 85.812 320.804 86.28 321.56 86.28C321.788 86.28 322.088 86.184 322.292 86.1L322.508 86.916C322.148 87.048 321.716 87.168 321.308 87.168ZM323.888 89.82C323.588 89.82 323.336 89.772 323.132 89.688L323.348 88.812C323.468 88.86 323.66 88.908 323.84 88.908C324.572 88.908 325.04 88.308 325.316 87.504L325.46 87.012L322.844 80.484H323.972L325.304 84.108C325.508 84.684 325.724 85.344 325.94 85.944H326C326.18 85.344 326.372 84.696 326.54 84.108L327.716 80.484H328.784L326.324 87.552C325.868 88.836 325.196 89.82 323.888 89.82Z" fill="#2C59CE"/>
<path d="M275.477 261V252.204H280.541V253.14H276.593V256.128H279.941V257.052H276.593V261H275.477ZM282.002 261V254.484H283.094V261H282.002ZM282.554 253.14C282.122 253.14 281.822 252.864 281.822 252.408C281.822 251.988 282.122 251.712 282.554 251.712C282.974 251.712 283.286 251.988 283.286 252.408C283.286 252.864 282.974 253.14 282.554 253.14ZM285.307 261V254.484H286.195L286.303 255.672H286.339C286.783 254.844 287.455 254.328 288.187 254.328C288.475 254.328 288.667 254.364 288.883 254.46L288.679 255.42C288.451 255.348 288.307 255.312 288.043 255.312C287.503 255.312 286.831 255.708 286.399 256.824V261H285.307ZM291.581 261.168C290.657 261.168 289.757 260.772 289.145 260.268L289.685 259.536C290.249 259.992 290.825 260.316 291.605 260.316C292.469 260.316 292.901 259.86 292.901 259.284C292.901 258.624 292.121 258.324 291.401 258.06C290.501 257.712 289.505 257.28 289.505 256.164C289.505 255.132 290.333 254.328 291.749 254.328C292.553 254.328 293.273 254.652 293.777 255.06L293.249 255.756C292.805 255.432 292.337 255.18 291.761 255.18C290.933 255.18 290.561 255.612 290.561 256.116C290.561 256.74 291.221 256.98 291.965 257.244C292.913 257.604 293.945 257.988 293.945 259.224C293.945 260.292 293.117 261.168 291.581 261.168ZM297.226 261.168C295.834 261.168 295.378 260.292 295.378 258.996V255.372H294.406V254.556L295.426 254.484L295.546 252.648H296.47V254.484H298.234V255.372H296.47V259.02C296.47 259.812 296.722 260.28 297.478 260.28C297.706 260.28 298.006 260.184 298.21 260.1L298.426 260.916C298.066 261.048 297.634 261.168 297.226 261.168ZM302.489 261V252.204H303.605V260.064H307.445V261H302.489ZM310.409 261.168C309.317 261.168 308.501 260.484 308.501 259.308C308.501 257.892 309.725 257.184 312.497 256.872C312.497 256.032 312.233 255.228 311.165 255.228C310.397 255.228 309.713 255.588 309.209 255.936L308.777 255.168C309.377 254.784 310.289 254.328 311.333 254.328C312.929 254.328 313.601 255.384 313.601 257.004V261H312.701L312.605 260.232H312.557C311.945 260.748 311.213 261.168 310.409 261.168ZM310.709 260.28C311.345 260.28 311.873 259.98 312.497 259.416V257.604C310.301 257.856 309.569 258.396 309.569 259.236C309.569 259.98 310.073 260.28 310.709 260.28ZM315.766 263.82C315.466 263.82 315.214 263.772 315.01 263.688L315.226 262.812C315.346 262.86 315.538 262.908 315.718 262.908C316.45 262.908 316.918 262.308 317.194 261.504L317.338 261.012L314.722 254.484H315.85L317.182 258.108C317.386 258.684 317.602 259.344 317.818 259.944H317.878C318.058 259.344 318.25 258.696 318.418 258.108L319.594 254.484H320.662L318.202 261.552C317.746 262.836 317.074 263.82 315.766 263.82ZM324.474 261.168C322.734 261.168 321.354 259.896 321.354 257.76C321.354 255.636 322.782 254.328 324.282 254.328C325.938 254.328 326.874 255.516 326.874 257.388C326.874 257.616 326.862 257.844 326.826 258.012H322.434C322.518 259.392 323.358 260.292 324.606 260.292C325.23 260.292 325.746 260.088 326.226 259.764L326.622 260.496C326.046 260.868 325.362 261.168 324.474 261.168ZM322.422 257.22H325.914C325.914 255.912 325.326 255.204 324.294 255.204C323.382 255.204 322.566 255.936 322.422 257.22ZM328.491 261V254.484H329.379L329.487 255.672H329.523C329.967 254.844 330.639 254.328 331.371 254.328C331.659 254.328 331.851 254.364 332.067 254.46L331.863 255.42C331.635 255.348 331.491 255.312 331.227 255.312C330.687 255.312 330.015 255.708 329.583 256.824V261H328.491ZM284.507 278.168C282.287 278.168 280.751 276.392 280.751 273.572C280.751 270.752 282.287 269.048 284.507 269.048C286.715 269.048 288.251 270.764 288.251 273.572C288.251 276.392 286.715 278.168 284.507 278.168ZM284.507 277.244C286.079 277.244 287.123 275.828 287.123 273.572C287.123 271.376 286.079 270.02 284.507 270.02C282.923 270.02 281.891 271.376 281.891 273.572C281.891 275.828 282.923 277.244 284.507 277.244ZM287.195 280.22C285.515 280.22 284.375 279.26 283.907 277.976L285.059 277.892C285.407 278.816 286.271 279.284 287.315 279.284C287.711 279.284 287.999 279.236 288.239 279.152L288.455 280.016C288.179 280.124 287.723 280.22 287.195 280.22ZM291.961 278.168C290.593 278.168 289.969 277.28 289.969 275.612V271.484H291.061V275.48C291.061 276.692 291.433 277.208 292.297 277.208C292.957 277.208 293.437 276.884 294.049 276.116V271.484H295.141V278H294.241L294.145 276.98H294.121C293.509 277.688 292.861 278.168 291.961 278.168ZM298.854 278.168C297.762 278.168 296.946 277.484 296.946 276.308C296.946 274.892 298.17 274.184 300.942 273.872C300.942 273.032 300.678 272.228 299.61 272.228C298.842 272.228 298.158 272.588 297.654 272.936L297.222 272.168C297.822 271.784 298.734 271.328 299.778 271.328C301.374 271.328 302.046 272.384 302.046 274.004V278H301.146L301.05 277.232H301.002C300.39 277.748 299.658 278.168 298.854 278.168ZM299.154 277.28C299.79 277.28 300.318 276.98 300.942 276.416V274.604C298.746 274.856 298.014 275.396 298.014 276.236C298.014 276.98 298.518 277.28 299.154 277.28ZM304.116 278V271.484H305.004L305.112 272.432H305.148C305.76 271.82 306.432 271.328 307.332 271.328C308.7 271.328 309.324 272.216 309.324 273.872V278H308.22V274.016C308.22 272.792 307.848 272.276 306.984 272.276C306.324 272.276 305.856 272.624 305.208 273.272V278H304.116ZM313.48 278.168C312.088 278.168 311.632 277.292 311.632 275.996V272.372H310.66V271.556L311.68 271.484L311.8 269.648H312.724V271.484H314.488V272.372H312.724V276.02C312.724 276.812 312.976 277.28 313.732 277.28C313.96 277.28 314.26 277.184 314.464 277.1L314.68 277.916C314.32 278.048 313.888 278.168 313.48 278.168ZM315.963 278V271.484H317.055V278H315.963ZM316.515 270.14C316.083 270.14 315.783 269.864 315.783 269.408C315.783 268.988 316.083 268.712 316.515 268.712C316.935 268.712 317.247 268.988 317.247 269.408C317.247 269.864 316.935 270.14 316.515 270.14ZM321.308 278.168C319.916 278.168 319.46 277.292 319.46 275.996V272.372H318.488V271.556L319.508 271.484L319.628 269.648H320.552V271.484H322.316V272.372H320.552V276.02C320.552 276.812 320.804 277.28 321.56 277.28C321.788 277.28 322.088 277.184 322.292 277.1L322.508 277.916C322.148 278.048 321.716 278.168 321.308 278.168ZM323.888 280.82C323.588 280.82 323.336 280.772 323.132 280.688L323.348 279.812C323.468 279.86 323.66 279.908 323.84 279.908C324.572 279.908 325.04 279.308 325.316 278.504L325.46 278.012L322.844 271.484H323.972L325.304 275.108C325.508 275.684 325.724 276.344 325.94 276.944H326C326.18 276.344 326.372 275.696 326.54 275.108L327.716 271.484H328.784L326.324 278.552C325.868 279.836 325.196 280.82 323.888 280.82Z" fill="#2C59CE"/>
<line x1="165.77" y1="62" x2="165.77" y2="46" stroke="#1E252C" stroke-width="0.459172"/>
<line x1="194.77" y1="62" x2="194.77" y2="46" stroke="#1E252C" stroke-width="0.459172"/>
<line x1="166" y1="50.7704" x2="194.928" y2="50.7704" stroke="#1E252C" stroke-width="0.459172"/>
<line x1="115.204" y1="54.913" x2="131.275" y2="54.913" stroke="#1E252C" stroke-width="0.459172"/>
<line x1="118.23" y1="55" x2="118.23" y2="92" stroke="#1E252C" stroke-width="0.459172"/>
<line x1="115" y1="72.7704" x2="154.948" y2="72.7704" stroke="#1E252C" stroke-width="0.459172"/>
<line x1="115" y1="91.7704" x2="176" y2="91.7704" stroke="#1E252C" stroke-width="0.459172"/>
<path d="M161.812 41.168C160.576 41.168 159.508 40.664 158.74 39.86L159.4 39.092C160.036 39.764 160.924 40.184 161.836 40.184C162.988 40.184 163.672 39.608 163.672 38.756C163.672 37.844 163.036 37.556 162.208 37.196L160.948 36.644C160.12 36.296 159.16 35.672 159.16 34.388C159.16 33.032 160.324 32.048 161.932 32.048C162.976 32.048 163.9 32.492 164.512 33.14L163.924 33.848C163.384 33.344 162.736 33.02 161.932 33.02C160.936 33.02 160.288 33.524 160.288 34.304C160.288 35.168 161.056 35.48 161.74 35.768L162.988 36.308C164.02 36.752 164.8 37.364 164.8 38.672C164.8 40.064 163.66 41.168 161.812 41.168ZM166.428 43.748V34.484H167.316L167.424 35.24H167.46C168.048 34.748 168.768 34.328 169.524 34.328C171.216 34.328 172.116 35.636 172.116 37.652C172.116 39.872 170.784 41.168 169.284 41.168C168.696 41.168 168.084 40.892 167.496 40.412L167.52 41.552V43.748H166.428ZM169.116 40.244C170.184 40.244 170.988 39.272 170.988 37.664C170.988 36.212 170.496 35.24 169.26 35.24C168.708 35.24 168.156 35.552 167.52 36.14V39.572C168.108 40.064 168.684 40.244 169.116 40.244ZM175.147 41.168C174.055 41.168 173.239 40.484 173.239 39.308C173.239 37.892 174.463 37.184 177.235 36.872C177.235 36.032 176.971 35.228 175.903 35.228C175.135 35.228 174.451 35.588 173.947 35.936L173.515 35.168C174.115 34.784 175.027 34.328 176.071 34.328C177.667 34.328 178.339 35.384 178.339 37.004V41H177.439L177.343 40.232H177.295C176.683 40.748 175.951 41.168 175.147 41.168ZM175.447 40.28C176.083 40.28 176.611 39.98 177.235 39.416V37.604C175.039 37.856 174.307 38.396 174.307 39.236C174.307 39.98 174.811 40.28 175.447 40.28ZM182.965 41.168C181.237 41.168 179.917 39.908 179.917 37.76C179.917 35.576 181.381 34.328 183.049 34.328C183.901 34.328 184.501 34.676 184.957 35.096L184.405 35.816C184.021 35.468 183.613 35.24 183.109 35.24C181.909 35.24 181.045 36.248 181.045 37.76C181.045 39.248 181.873 40.256 183.073 40.256C183.661 40.256 184.201 39.968 184.609 39.608L185.077 40.34C184.501 40.856 183.745 41.168 182.965 41.168ZM186.526 41V34.484H187.618V41H186.526ZM187.078 33.14C186.646 33.14 186.346 32.864 186.346 32.408C186.346 31.988 186.646 31.712 187.078 31.712C187.498 31.712 187.81 31.988 187.81 32.408C187.81 32.864 187.498 33.14 187.078 33.14ZM189.831 41V34.484H190.719L190.827 35.432H190.863C191.475 34.82 192.147 34.328 193.047 34.328C194.415 34.328 195.039 35.216 195.039 36.872V41H193.935V37.016C193.935 35.792 193.563 35.276 192.699 35.276C192.039 35.276 191.571 35.624 190.923 36.272V41H189.831ZM199.351 44C197.755 44 196.651 43.376 196.651 42.26C196.651 41.708 197.011 41.168 197.611 40.784V40.736C197.275 40.52 197.023 40.172 197.023 39.656C197.023 39.116 197.407 38.696 197.755 38.456V38.408C197.323 38.06 196.891 37.436 196.891 36.656C196.891 35.216 198.019 34.328 199.339 34.328C199.711 34.328 200.035 34.4 200.263 34.484H202.531V35.336H201.199C201.511 35.636 201.727 36.116 201.727 36.68C201.727 38.072 200.671 38.936 199.339 38.936C199.027 38.936 198.667 38.864 198.367 38.72C198.139 38.912 197.947 39.14 197.947 39.488C197.947 39.908 198.223 40.208 199.099 40.208H200.371C201.883 40.208 202.639 40.676 202.639 41.756C202.639 42.968 201.355 44 199.351 44ZM199.339 38.204C200.095 38.204 200.731 37.592 200.731 36.656C200.731 35.696 200.107 35.12 199.339 35.12C198.571 35.12 197.947 35.684 197.947 36.656C197.947 37.592 198.583 38.204 199.339 38.204ZM199.495 43.256C200.755 43.256 201.571 42.596 201.571 41.924C201.571 41.312 201.103 41.108 200.251 41.108H199.123C198.871 41.108 198.571 41.084 198.271 41C197.803 41.336 197.611 41.732 197.611 42.104C197.611 42.812 198.319 43.256 199.495 43.256Z" fill="#1E252C"/>
<rect x="151.5" y="59.5" width="117" height="43" stroke="#CE2C3F" stroke-dasharray="0.92 0.92"/>
<rect x="155.5" y="63.5" width="107" height="18" stroke="#2C59CE" stroke-dasharray="0.92 0.92"/>
<rect x="173" y="8" width="71" height="19" fill="#496071"/>
<circle cx="165.68" cy="254.68" r="3.68" fill="#1E252C"/>
<circle cx="195.067" cy="254.68" r="3.68" fill="#1E252C"/>
<circle cx="224.454" cy="254.68" r="3.68" fill="#1E252C"/>
<circle cx="179.937" cy="234.68" r="3.68" fill="#1E252C"/>
<circle cx="209.324" cy="234.68" r="3.68" fill="#1E252C"/>
<circle cx="238.711" cy="234.68" r="3.68" fill="#1E252C"/>
<circle cx="253.841" cy="254.68" r="3.68" fill="#1E252C"/>
<path d="M43.9188 234V225.204H45.0348V234H43.9188ZM47.3384 234V227.484H48.2264L48.3344 228.432H48.3704C48.9824 227.82 49.6544 227.328 50.5544 227.328C51.9224 227.328 52.5464 228.216 52.5464 229.872V234H51.4424V230.016C51.4424 228.792 51.0704 228.276 50.2064 228.276C49.5464 228.276 49.0784 228.624 48.4304 229.272V234H47.3384ZM56.7026 234.168C55.3106 234.168 54.8546 233.292 54.8546 231.996V228.372H53.8826V227.556L54.9026 227.484L55.0226 225.648H55.9466V227.484H57.7106V228.372H55.9466V232.02C55.9466 232.812 56.1986 233.28 56.9546 233.28C57.1826 233.28 57.4826 233.184 57.6866 233.1L57.9026 233.916C57.5426 234.048 57.1106 234.168 56.7026 234.168ZM61.6031 234.168C59.8631 234.168 58.4831 232.896 58.4831 230.76C58.4831 228.636 59.9111 227.328 61.4111 227.328C63.0671 227.328 64.0031 228.516 64.0031 230.388C64.0031 230.616 63.9911 230.844 63.9551 231.012H59.5631C59.6471 232.392 60.4871 233.292 61.7351 233.292C62.3591 233.292 62.8751 233.088 63.3551 232.764L63.7511 233.496C63.1751 233.868 62.4911 234.168 61.6031 234.168ZM59.5511 230.22H63.0431C63.0431 228.912 62.4551 228.204 61.4231 228.204C60.5111 228.204 59.6951 228.936 59.5511 230.22ZM65.6196 234V227.484H66.5076L66.6156 228.672H66.6516C67.0956 227.844 67.7676 227.328 68.4996 227.328C68.7876 227.328 68.9796 227.364 69.1956 227.46L68.9916 228.42C68.7636 228.348 68.6196 228.312 68.3556 228.312C67.8156 228.312 67.1436 228.708 66.7116 229.824V234H65.6196ZM71.9807 234L69.6287 227.484H70.7567L71.9927 231.204C72.1847 231.84 72.3887 232.5 72.5927 233.112H72.6407C72.8447 232.5 73.0487 231.84 73.2407 231.204L74.4887 227.484H75.5567L73.2527 234H71.9807ZM78.0298 234.168C76.9378 234.168 76.1218 233.484 76.1218 232.308C76.1218 230.892 77.3458 230.184 80.1178 229.872C80.1178 229.032 79.8538 228.228 78.7858 228.228C78.0178 228.228 77.3338 228.588 76.8298 228.936L76.3978 228.168C76.9978 227.784 77.9098 227.328 78.9538 227.328C80.5498 227.328 81.2218 228.384 81.2218 230.004V234H80.3218L80.2258 233.232H80.1778C79.5658 233.748 78.8338 234.168 78.0298 234.168ZM78.3298 233.28C78.9658 233.28 79.4938 232.98 80.1178 232.416V230.604C77.9218 230.856 77.1898 231.396 77.1898 232.236C77.1898 232.98 77.6938 233.28 78.3298 233.28ZM84.4435 234.168C83.6155 234.168 83.2915 233.64 83.2915 232.704V224.46H84.3835V232.776C84.3835 233.124 84.5275 233.256 84.6955 233.256C84.7435 233.256 84.7915 233.256 84.9235 233.232L85.0675 234.072C84.9115 234.12 84.7435 234.168 84.4435 234.168ZM22.6961 246V237.204H25.3001C27.0881 237.204 28.3241 237.816 28.3241 239.364C28.3241 240.228 27.8681 240.996 27.0401 241.272V241.32C28.0961 241.524 28.8281 242.232 28.8281 243.432C28.8281 245.148 27.4601 246 25.5041 246H22.6961ZM23.8121 240.948H25.1081C26.6201 240.948 27.2321 240.396 27.2321 239.496C27.2321 238.464 26.5361 238.08 25.1681 238.08H23.8121V240.948ZM23.8121 245.124H25.3481C26.8481 245.124 27.7481 244.584 27.7481 243.396C27.7481 242.304 26.8841 241.8 25.3481 241.8H23.8121V245.124ZM33.1148 246.168C31.3748 246.168 29.9948 244.896 29.9948 242.76C29.9948 240.636 31.4228 239.328 32.9228 239.328C34.5788 239.328 35.5148 240.516 35.5148 242.388C35.5148 242.616 35.5028 242.844 35.4668 243.012H31.0748C31.1588 244.392 31.9988 245.292 33.2468 245.292C33.8708 245.292 34.3868 245.088 34.8668 244.764L35.2628 245.496C34.6868 245.868 34.0028 246.168 33.1148 246.168ZM31.0628 242.22H34.5548C34.5548 240.912 33.9668 240.204 32.9348 240.204C32.0228 240.204 31.2068 240.936 31.0628 242.22ZM39.0073 246.168C37.6153 246.168 37.1593 245.292 37.1593 243.996V240.372H36.1873V239.556L37.2073 239.484L37.3273 237.648H38.2513V239.484H40.0153V240.372H38.2513V244.02C38.2513 244.812 38.5033 245.28 39.2593 245.28C39.4873 245.28 39.7873 245.184 39.9913 245.1L40.2073 245.916C39.8473 246.048 39.4153 246.168 39.0073 246.168ZM42.5227 246L40.6987 239.484H41.8147L42.7987 243.264C42.9307 243.888 43.0507 244.464 43.1707 245.076H43.2307C43.3747 244.464 43.5067 243.876 43.6747 243.264L44.6827 239.484H45.7507L46.7827 243.264C46.9387 243.888 47.0827 244.464 47.2387 245.076H47.2867C47.4187 244.464 47.5387 243.888 47.6947 243.264L48.6427 239.484H49.6867L47.9347 246H46.6027L45.6547 242.496C45.4867 241.872 45.3667 241.284 45.2107 240.612H45.1507C45.0187 241.284 44.8867 241.884 44.7067 242.508L43.7947 246H42.5227ZM53.6578 246.168C51.9178 246.168 50.5378 244.896 50.5378 242.76C50.5378 240.636 51.9658 239.328 53.4658 239.328C55.1218 239.328 56.0578 240.516 56.0578 242.388C56.0578 242.616 56.0458 242.844 56.0098 243.012H51.6178C51.7018 244.392 52.5418 245.292 53.7898 245.292C54.4138 245.292 54.9298 245.088 55.4098 244.764L55.8058 245.496C55.2298 245.868 54.5458 246.168 53.6578 246.168ZM51.6058 242.22H55.0978C55.0978 240.912 54.5098 240.204 53.4778 240.204C52.5658 240.204 51.7498 240.936 51.6058 242.22ZM60.3023 246.168C58.5623 246.168 57.1823 244.896 57.1823 242.76C57.1823 240.636 58.6103 239.328 60.1103 239.328C61.7663 239.328 62.7023 240.516 62.7023 242.388C62.7023 242.616 62.6903 242.844 62.6543 243.012H58.2623C58.3463 244.392 59.1863 245.292 60.4343 245.292C61.0583 245.292 61.5743 245.088 62.0543 244.764L62.4503 245.496C61.8743 245.868 61.1903 246.168 60.3023 246.168ZM58.2503 242.22H61.7423C61.7423 240.912 61.1543 240.204 60.1223 240.204C59.2103 240.204 58.3943 240.936 58.2503 242.22ZM64.3188 246V239.484H65.2068L65.3148 240.432H65.3508C65.9628 239.82 66.6348 239.328 67.5348 239.328C68.9028 239.328 69.5268 240.216 69.5268 241.872V246H68.4228V242.016C68.4228 240.792 68.0508 240.276 67.1868 240.276C66.5268 240.276 66.0588 240.624 65.4108 241.272V246H64.3188ZM74.4227 246V237.204H75.5387V245.064H79.3787V246H74.4227ZM82.3423 246.168C81.2503 246.168 80.4343 245.484 80.4343 244.308C80.4343 242.892 81.6583 242.184 84.4303 241.872C84.4303 241.032 84.1663 240.228 83.0983 240.228C82.3303 240.228 81.6463 240.588 81.1423 240.936L80.7103 240.168C81.3103 239.784 82.2223 239.328 83.2663 239.328C84.8623 239.328 85.5343 240.384 85.5343 242.004V246H84.6343L84.5383 245.232H84.4903C83.8783 245.748 83.1463 246.168 82.3423 246.168ZM82.6423 245.28C83.2783 245.28 83.8063 244.98 84.4303 244.416V242.604C82.2343 242.856 81.5023 243.396 81.5023 244.236C81.5023 244.98 82.0063 245.28 82.6423 245.28ZM87.7 248.82C87.4 248.82 87.148 248.772 86.944 248.688L87.16 247.812C87.28 247.86 87.472 247.908 87.652 247.908C88.384 247.908 88.852 247.308 89.128 246.504L89.272 246.012L86.656 239.484H87.784L89.116 243.108C89.32 243.684 89.536 244.344 89.752 244.944H89.812C89.992 244.344 90.184 243.696 90.352 243.108L91.528 239.484H92.596L90.136 246.552C89.68 247.836 89.008 248.82 87.7 248.82ZM96.4078 246.168C94.6678 246.168 93.2878 244.896 93.2878 242.76C93.2878 240.636 94.7158 239.328 96.2158 239.328C97.8718 239.328 98.8078 240.516 98.8078 242.388C98.8078 242.616 98.7958 242.844 98.7598 243.012H94.3678C94.4518 244.392 95.2918 245.292 96.5398 245.292C97.1638 245.292 97.6798 245.088 98.1598 244.764L98.5558 245.496C97.9798 245.868 97.2958 246.168 96.4078 246.168ZM94.3558 242.22H97.8478C97.8478 240.912 97.2598 240.204 96.2278 240.204C95.3158 240.204 94.4998 240.936 94.3558 242.22ZM100.424 246V239.484H101.312L101.42 240.672H101.456C101.9 239.844 102.572 239.328 103.304 239.328C103.592 239.328 103.784 239.364 104 239.46L103.796 240.42C103.568 240.348 103.424 240.312 103.16 240.312C102.62 240.312 101.948 240.708 101.516 241.824V246H100.424ZM106.699 246.168C105.775 246.168 104.875 245.772 104.263 245.268L104.803 244.536C105.367 244.992 105.943 245.316 106.723 245.316C107.587 245.316 108.019 244.86 108.019 244.284C108.019 243.624 107.239 243.324 106.519 243.06C105.619 242.712 104.623 242.28 104.623 241.164C104.623 240.132 105.451 239.328 106.867 239.328C107.671 239.328 108.391 239.652 108.895 240.06L108.367 240.756C107.923 240.432 107.455 240.18 106.879 240.18C106.051 240.18 105.679 240.612 105.679 241.116C105.679 241.74 106.339 241.98 107.083 242.244C108.031 242.604 109.063 242.988 109.063 244.224C109.063 245.292 108.235 246.168 106.699 246.168Z" fill="#1E252C"/>
<path d="M6.44414 276V267.204H9.19214C10.9801 267.204 12.2641 267.852 12.2641 269.676C12.2641 271.44 10.9801 272.28 9.19214 272.28H7.56014V276H6.44414ZM7.56014 271.38H9.03614C10.4041 271.38 11.1601 270.816 11.1601 269.676C11.1601 268.524 10.4041 268.116 9.03614 268.116H7.56014V271.38ZM11.2801 276L8.97614 271.98L9.84014 271.404L12.5281 276H11.2801ZM16.4293 276.168C14.6893 276.168 13.3093 274.896 13.3093 272.76C13.3093 270.636 14.7373 269.328 16.2373 269.328C17.8933 269.328 18.8293 270.516 18.8293 272.388C18.8293 272.616 18.8173 272.844 18.7813 273.012H14.3893C14.4733 274.392 15.3133 275.292 16.5613 275.292C17.1853 275.292 17.7013 275.088 18.1813 274.764L18.5773 275.496C18.0013 275.868 17.3173 276.168 16.4293 276.168ZM14.3773 272.22H17.8693C17.8693 270.912 17.2813 270.204 16.2493 270.204C15.3373 270.204 14.5213 270.936 14.3773 272.22ZM23.3018 276.168C22.7018 276.168 22.0178 275.856 21.4538 275.328H21.4178L21.3098 276H20.4458V266.46H21.5378V269.064L21.4898 270.24C22.0898 269.724 22.8098 269.328 23.5418 269.328C25.2218 269.328 26.1338 270.636 26.1338 272.64C26.1338 274.872 24.8018 276.168 23.3018 276.168ZM23.1338 275.244C24.2018 275.244 25.0058 274.272 25.0058 272.664C25.0058 271.212 24.5138 270.24 23.2778 270.24C22.7258 270.24 22.1498 270.552 21.5378 271.14V274.572C22.1018 275.064 22.7018 275.244 23.1338 275.244ZM29.1411 276.168C28.0491 276.168 27.2331 275.484 27.2331 274.308C27.2331 272.892 28.4571 272.184 31.2291 271.872C31.2291 271.032 30.9651 270.228 29.8971 270.228C29.1291 270.228 28.4451 270.588 27.9411 270.936L27.5091 270.168C28.1091 269.784 29.0211 269.328 30.0651 269.328C31.6611 269.328 32.3331 270.384 32.3331 272.004V276H31.4331L31.3371 275.232H31.2891C30.6771 275.748 29.9451 276.168 29.1411 276.168ZM29.4411 275.28C30.0771 275.28 30.6051 274.98 31.2291 274.416V272.604C29.0331 272.856 28.3011 273.396 28.3011 274.236C28.3011 274.98 28.8051 275.28 29.4411 275.28ZM34.4028 276V269.484H35.2908L35.3988 270.672H35.4348C35.8788 269.844 36.5508 269.328 37.2828 269.328C37.5708 269.328 37.7628 269.364 37.9788 269.46L37.7748 270.42C37.5468 270.348 37.4028 270.312 37.1388 270.312C36.5988 270.312 35.9268 270.708 35.4948 271.824V276H34.4028ZM44.2948 276.168C42.5668 276.168 41.2468 274.908 41.2468 272.76C41.2468 270.576 42.7108 269.328 44.3788 269.328C45.2308 269.328 45.8308 269.676 46.2868 270.096L45.7348 270.816C45.3508 270.468 44.9428 270.24 44.4388 270.24C43.2388 270.24 42.3748 271.248 42.3748 272.76C42.3748 274.248 43.2028 275.256 44.4028 275.256C44.9908 275.256 45.5308 274.968 45.9388 274.608L46.4068 275.34C45.8308 275.856 45.0748 276.168 44.2948 276.168ZM50.0715 276.168C48.4635 276.168 47.0475 274.908 47.0475 272.76C47.0475 270.576 48.4635 269.328 50.0715 269.328C51.6675 269.328 53.0835 270.576 53.0835 272.76C53.0835 274.908 51.6675 276.168 50.0715 276.168ZM50.0715 275.256C51.1995 275.256 51.9555 274.248 51.9555 272.76C51.9555 271.248 51.1995 270.24 50.0715 270.24C48.9315 270.24 48.1755 271.248 48.1755 272.76C48.1755 274.248 48.9315 275.256 50.0715 275.256ZM56.1389 276L53.7869 269.484H54.9149L56.1509 273.204C56.3429 273.84 56.5469 274.5 56.7509 275.112H56.7989C57.0029 274.5 57.2069 273.84 57.3989 273.204L58.6469 269.484H59.7149L57.4109 276H56.1389ZM63.5386 276.168C61.7986 276.168 60.4186 274.896 60.4186 272.76C60.4186 270.636 61.8466 269.328 63.3466 269.328C65.0026 269.328 65.9386 270.516 65.9386 272.388C65.9386 272.616 65.9266 272.844 65.8906 273.012H61.4986C61.5826 274.392 62.4226 275.292 63.6706 275.292C64.2946 275.292 64.8106 275.088 65.2906 274.764L65.6866 275.496C65.1106 275.868 64.4266 276.168 63.5386 276.168ZM61.4866 272.22H64.9786C64.9786 270.912 64.3906 270.204 63.3586 270.204C62.4466 270.204 61.6306 270.936 61.4866 272.22ZM67.5552 276V269.484H68.4432L68.5512 270.672H68.5872C69.0312 269.844 69.7032 269.328 70.4352 269.328C70.7232 269.328 70.9152 269.364 71.1312 269.46L70.9272 270.42C70.6992 270.348 70.5552 270.312 70.2912 270.312C69.7512 270.312 69.0792 270.708 68.6472 271.824V276H67.5552ZM76.3911 276.168C75.2991 276.168 74.4831 275.484 74.4831 274.308C74.4831 272.892 75.7071 272.184 78.4791 271.872C78.4791 271.032 78.2151 270.228 77.1471 270.228C76.3791 270.228 75.6951 270.588 75.1911 270.936L74.7591 270.168C75.3591 269.784 76.2711 269.328 77.3151 269.328C78.9111 269.328 79.5831 270.384 79.5831 272.004V276H78.6831L78.5871 275.232H78.5391C77.9271 275.748 77.1951 276.168 76.3911 276.168ZM76.6911 275.28C77.3271 275.28 77.8551 274.98 78.4791 274.416V272.604C76.2831 272.856 75.5511 273.396 75.5511 274.236C75.5511 274.98 76.0551 275.28 76.6911 275.28ZM83.4819 276.168C82.0899 276.168 81.6339 275.292 81.6339 273.996V270.372H80.6619V269.556L81.6819 269.484L81.8019 267.648H82.7259V269.484H84.4899V270.372H82.7259V274.02C82.7259 274.812 82.9779 275.28 83.7339 275.28C83.9619 275.28 84.2619 275.184 84.4659 275.1L84.6819 275.916C84.3219 276.048 83.8899 276.168 83.4819 276.168ZM91.2049 276.168C89.4769 276.168 88.1569 274.908 88.1569 272.76C88.1569 270.576 89.6209 269.328 91.2889 269.328C92.1409 269.328 92.7409 269.676 93.1969 270.096L92.6449 270.816C92.2609 270.468 91.8529 270.24 91.3489 270.24C90.1489 270.24 89.2849 271.248 89.2849 272.76C89.2849 274.248 90.1129 275.256 91.3129 275.256C91.9009 275.256 92.4409 274.968 92.8489 274.608L93.3169 275.34C92.7409 275.856 91.9849 276.168 91.2049 276.168ZM96.9817 276.168C95.3737 276.168 93.9577 274.908 93.9577 272.76C93.9577 270.576 95.3737 269.328 96.9817 269.328C98.5777 269.328 99.9937 270.576 99.9937 272.76C99.9937 274.908 98.5777 276.168 96.9817 276.168ZM96.9817 275.256C98.1097 275.256 98.8657 274.248 98.8657 272.76C98.8657 271.248 98.1097 270.24 96.9817 270.24C95.8417 270.24 95.0857 271.248 95.0857 272.76C95.0857 274.248 95.8417 275.256 96.9817 275.256ZM101.727 276V269.484H102.615L102.723 270.672H102.759C103.203 269.844 103.875 269.328 104.607 269.328C104.895 269.328 105.087 269.364 105.303 269.46L105.099 270.42C104.871 270.348 104.727 270.312 104.463 270.312C103.923 270.312 103.251 270.708 102.819 271.824V276H101.727ZM108.843 276.168C107.103 276.168 105.723 274.896 105.723 272.76C105.723 270.636 107.151 269.328 108.651 269.328C110.307 269.328 111.243 270.516 111.243 272.388C111.243 272.616 111.231 272.844 111.195 273.012H106.803C106.887 274.392 107.727 275.292 108.975 275.292C109.599 275.292 110.115 275.088 110.595 274.764L110.991 275.496C110.415 275.868 109.731 276.168 108.843 276.168ZM106.791 272.22H110.283C110.283 270.912 109.695 270.204 108.663 270.204C107.751 270.204 106.935 270.936 106.791 272.22Z" fill="#1E252C"/>
<path d="M278.452 239.168C276.232 239.168 274.696 237.392 274.696 234.572C274.696 231.752 276.232 230.048 278.452 230.048C280.66 230.048 282.196 231.764 282.196 234.572C282.196 237.392 280.66 239.168 278.452 239.168ZM278.452 238.244C280.024 238.244 281.068 236.828 281.068 234.572C281.068 232.376 280.024 231.02 278.452 231.02C276.868 231.02 275.836 232.376 275.836 234.572C275.836 236.828 276.868 238.244 278.452 238.244ZM281.14 241.22C279.46 241.22 278.32 240.26 277.852 238.976L279.004 238.892C279.352 239.816 280.216 240.284 281.26 240.284C281.656 240.284 281.944 240.236 282.184 240.152L282.4 241.016C282.124 241.124 281.668 241.22 281.14 241.22ZM285.906 239.168C284.538 239.168 283.914 238.28 283.914 236.612V232.484H285.006V236.48C285.006 237.692 285.378 238.208 286.242 238.208C286.902 238.208 287.382 237.884 287.994 237.116V232.484H289.086V239H288.186L288.09 237.98H288.066C287.454 238.688 286.806 239.168 285.906 239.168ZM292.799 239.168C291.707 239.168 290.891 238.484 290.891 237.308C290.891 235.892 292.115 235.184 294.887 234.872C294.887 234.032 294.623 233.228 293.555 233.228C292.787 233.228 292.103 233.588 291.599 233.936L291.167 233.168C291.767 232.784 292.679 232.328 293.723 232.328C295.319 232.328 295.991 233.384 295.991 235.004V239H295.091L294.995 238.232H294.947C294.335 238.748 293.603 239.168 292.799 239.168ZM293.099 238.28C293.735 238.28 294.263 237.98 294.887 237.416V235.604C292.691 235.856 291.959 236.396 291.959 237.236C291.959 237.98 292.463 238.28 293.099 238.28ZM298.061 239V232.484H298.949L299.057 233.432H299.093C299.705 232.82 300.377 232.328 301.277 232.328C302.645 232.328 303.269 233.216 303.269 234.872V239H302.165V235.016C302.165 233.792 301.793 233.276 300.929 233.276C300.269 233.276 299.801 233.624 299.153 234.272V239H298.061ZM307.425 239.168C306.033 239.168 305.577 238.292 305.577 236.996V233.372H304.605V232.556L305.625 232.484L305.745 230.648H306.669V232.484H308.433V233.372H306.669V237.02C306.669 237.812 306.921 238.28 307.677 238.28C307.905 238.28 308.205 238.184 308.409 238.1L308.625 238.916C308.265 239.048 307.833 239.168 307.425 239.168ZM309.909 239V232.484H311.001V239H309.909ZM310.461 231.14C310.029 231.14 309.729 230.864 309.729 230.408C309.729 229.988 310.029 229.712 310.461 229.712C310.881 229.712 311.193 229.988 311.193 230.408C311.193 230.864 310.881 231.14 310.461 231.14ZM315.253 239.168C313.861 239.168 313.405 238.292 313.405 236.996V233.372H312.433V232.556L313.453 232.484L313.573 230.648H314.497V232.484H316.261V233.372H314.497V237.02C314.497 237.812 314.749 238.28 315.505 238.28C315.733 238.28 316.033 238.184 316.237 238.1L316.453 238.916C316.093 239.048 315.661 239.168 315.253 239.168ZM317.833 241.82C317.533 241.82 317.281 241.772 317.077 241.688L317.293 240.812C317.413 240.86 317.605 240.908 317.785 240.908C318.517 240.908 318.985 240.308 319.261 239.504L319.405 239.012L316.789 232.484H317.917L319.249 236.108C319.453 236.684 319.669 237.344 319.885 237.944H319.945C320.125 237.344 320.317 236.696 320.485 236.108L321.661 232.484H322.729L320.269 239.552C319.813 240.836 319.141 241.82 317.833 241.82Z" fill="#CE2C3F"/>
<line y1="-0.229586" x2="16.071" y2="-0.229586" transform="matrix(1 0 0 -1 115.204 272.857)" stroke="#1E252C" stroke-width="0.459172"/>
<line x1="117.77" y1="273" x2="117.77" y2="235" stroke="#1E252C" stroke-width="0.459172"/>
<line y1="-0.229586" x2="39.948" y2="-0.229586" transform="matrix(1 0 0 -1 115 255)" stroke="#1E252C" stroke-width="0.459172"/>
<path d="M115 235H176" stroke="#1E252C" stroke-width="0.459172"/>
<line y1="-0.229586" x2="16" y2="-0.229586" transform="matrix(6.84436e-08 1 1 -2.79162e-08 166 269)" stroke="#1E252C" stroke-width="0.459172"/>
<line y1="-0.229586" x2="16" y2="-0.229586" transform="matrix(6.84436e-08 1 1 -2.79162e-08 195 269)" stroke="#1E252C" stroke-width="0.459172"/>
<line y1="-0.229586" x2="28.9279" y2="-0.229586" transform="matrix(1 -8.74228e-08 -8.74228e-08 -1 166 280)" stroke="#1E252C" stroke-width="0.459172"/>
<path d="M161.812 299.168C160.576 299.168 159.508 298.664 158.74 297.86L159.4 297.092C160.036 297.764 160.924 298.184 161.836 298.184C162.988 298.184 163.672 297.608 163.672 296.756C163.672 295.844 163.036 295.556 162.208 295.196L160.948 294.644C160.12 294.296 159.16 293.672 159.16 292.388C159.16 291.032 160.324 290.048 161.932 290.048C162.976 290.048 163.9 290.492 164.512 291.14L163.924 291.848C163.384 291.344 162.736 291.02 161.932 291.02C160.936 291.02 160.288 291.524 160.288 292.304C160.288 293.168 161.056 293.48 161.74 293.768L162.988 294.308C164.02 294.752 164.8 295.364 164.8 296.672C164.8 298.064 163.66 299.168 161.812 299.168ZM166.428 301.748V292.484H167.316L167.424 293.24H167.46C168.048 292.748 168.768 292.328 169.524 292.328C171.216 292.328 172.116 293.636 172.116 295.652C172.116 297.872 170.784 299.168 169.284 299.168C168.696 299.168 168.084 298.892 167.496 298.412L167.52 299.552V301.748H166.428ZM169.116 298.244C170.184 298.244 170.988 297.272 170.988 295.664C170.988 294.212 170.496 293.24 169.26 293.24C168.708 293.24 168.156 293.552 167.52 294.14V297.572C168.108 298.064 168.684 298.244 169.116 298.244ZM175.147 299.168C174.055 299.168 173.239 298.484 173.239 297.308C173.239 295.892 174.463 295.184 177.235 294.872C177.235 294.032 176.971 293.228 175.903 293.228C175.135 293.228 174.451 293.588 173.947 293.936L173.515 293.168C174.115 292.784 175.027 292.328 176.071 292.328C177.667 292.328 178.339 293.384 178.339 295.004V299H177.439L177.343 298.232H177.295C176.683 298.748 175.951 299.168 175.147 299.168ZM175.447 298.28C176.083 298.28 176.611 297.98 177.235 297.416V295.604C175.039 295.856 174.307 296.396 174.307 297.236C174.307 297.98 174.811 298.28 175.447 298.28ZM182.965 299.168C181.237 299.168 179.917 297.908 179.917 295.76C179.917 293.576 181.381 292.328 183.049 292.328C183.901 292.328 184.501 292.676 184.957 293.096L184.405 293.816C184.021 293.468 183.613 293.24 183.109 293.24C181.909 293.24 181.045 294.248 181.045 295.76C181.045 297.248 181.873 298.256 183.073 298.256C183.661 298.256 184.201 297.968 184.609 297.608L185.077 298.34C184.501 298.856 183.745 299.168 182.965 299.168ZM186.526 299V292.484H187.618V299H186.526ZM187.078 291.14C186.646 291.14 186.346 290.864 186.346 290.408C186.346 289.988 186.646 289.712 187.078 289.712C187.498 289.712 187.81 289.988 187.81 290.408C187.81 290.864 187.498 291.14 187.078 291.14ZM189.831 299V292.484H190.719L190.827 293.432H190.863C191.475 292.82 192.147 292.328 193.047 292.328C194.415 292.328 195.039 293.216 195.039 294.872V299H193.935V295.016C193.935 293.792 193.563 293.276 192.699 293.276C192.039 293.276 191.571 293.624 190.923 294.272V299H189.831ZM199.351 302C197.755 302 196.651 301.376 196.651 300.26C196.651 299.708 197.011 299.168 197.611 298.784V298.736C197.275 298.52 197.023 298.172 197.023 297.656C197.023 297.116 197.407 296.696 197.755 296.456V296.408C197.323 296.06 196.891 295.436 196.891 294.656C196.891 293.216 198.019 292.328 199.339 292.328C199.711 292.328 200.035 292.4 200.263 292.484H202.531V293.336H201.199C201.511 293.636 201.727 294.116 201.727 294.68C201.727 296.072 200.671 296.936 199.339 296.936C199.027 296.936 198.667 296.864 198.367 296.72C198.139 296.912 197.947 297.14 197.947 297.488C197.947 297.908 198.223 298.208 199.099 298.208H200.371C201.883 298.208 202.639 298.676 202.639 299.756C202.639 300.968 201.355 302 199.351 302ZM199.339 296.204C200.095 296.204 200.731 295.592 200.731 294.656C200.731 293.696 200.107 293.12 199.339 293.12C198.571 293.12 197.947 293.684 197.947 294.656C197.947 295.592 198.583 296.204 199.339 296.204ZM199.495 301.256C200.755 301.256 201.571 300.596 201.571 299.924C201.571 299.312 201.103 299.108 200.251 299.108H199.123C198.871 299.108 198.571 299.084 198.271 299C197.803 299.336 197.611 299.732 197.611 300.104C197.611 300.812 198.319 301.256 199.495 301.256Z" fill="#1E252C"/>
<rect x="151.5" y="224.5" width="117" height="43" stroke="#CE2C3F" stroke-dasharray="0.92 0.92"/>
<rect x="155.5" y="245.5" width="107" height="18" stroke="#2C59CE" stroke-dasharray="0.92 0.92"/>
<path d="M182.404 323.168C180.436 323.168 179.116 322.088 179.116 319.22V314.168H180.508V319.304C180.508 321.296 181.3 321.944 182.404 321.944C183.508 321.944 184.336 321.296 184.336 319.304V314.168H185.68V319.22C185.68 322.088 184.36 323.168 182.404 323.168ZM187.833 323V316.4H188.961L189.081 317.324H189.117C189.717 316.724 190.401 316.232 191.301 316.232C192.705 316.232 193.329 317.18 193.329 318.848V323H191.937V319.028C191.937 317.876 191.601 317.432 190.833 317.432C190.221 317.432 189.801 317.744 189.225 318.32V323H187.833ZM197.601 323.168C195.945 323.168 194.889 321.896 194.889 319.712C194.889 317.564 196.245 316.232 197.709 316.232C198.465 316.232 198.957 316.52 199.485 316.976L199.425 315.884V313.448H200.817V323H199.677L199.569 322.268H199.533C199.029 322.772 198.345 323.168 197.601 323.168ZM197.937 322.016C198.477 322.016 198.957 321.764 199.425 321.212V317.996C198.945 317.552 198.477 317.384 197.985 317.384C197.061 317.384 196.317 318.272 196.317 319.688C196.317 321.188 196.905 322.016 197.937 322.016ZM205.64 323.168C203.84 323.168 202.424 321.884 202.424 319.712C202.424 317.564 203.9 316.232 205.436 316.232C207.176 316.232 208.124 317.492 208.124 319.364C208.124 319.64 208.1 319.904 208.064 320.072H203.78C203.888 321.332 204.68 322.076 205.82 322.076C206.408 322.076 206.9 321.896 207.392 321.584L207.872 322.472C207.26 322.88 206.504 323.168 205.64 323.168ZM203.756 319.112H206.924C206.924 317.972 206.42 317.324 205.46 317.324C204.632 317.324 203.9 317.96 203.756 319.112ZM209.677 323V316.4H210.805L210.925 317.588H210.961C211.429 316.736 212.125 316.232 212.833 316.232C213.157 316.232 213.361 316.28 213.565 316.376L213.325 317.576C213.097 317.504 212.929 317.468 212.653 317.468C212.125 317.468 211.477 317.852 211.069 318.896V323H209.677ZM219.082 323.168C218.17 323.168 217.234 322.784 216.598 322.256L217.246 321.356C217.834 321.812 218.398 322.112 219.118 322.112C219.898 322.112 220.27 321.728 220.27 321.224C220.27 320.636 219.526 320.36 218.818 320.096C217.93 319.76 216.958 319.292 216.958 318.164C216.958 317.06 217.846 316.232 219.322 316.232C220.198 316.232 220.93 316.592 221.458 317.012L220.81 317.864C220.354 317.54 219.886 317.288 219.346 317.288C218.614 317.288 218.278 317.648 218.278 318.104C218.278 318.668 218.914 318.884 219.646 319.148C220.57 319.496 221.578 319.916 221.578 321.152C221.578 322.268 220.702 323.168 219.082 323.168ZM223.048 323V316.4H224.44V323H223.048ZM223.744 315.164C223.228 315.164 222.892 314.84 222.892 314.336C222.892 313.844 223.228 313.52 223.744 313.52C224.248 313.52 224.608 313.844 224.608 314.336C224.608 314.84 224.248 315.164 223.744 315.164ZM228.785 323.168C227.129 323.168 226.073 321.896 226.073 319.712C226.073 317.564 227.429 316.232 228.893 316.232C229.649 316.232 230.141 316.52 230.669 316.976L230.609 315.884V313.448H232.001V323H230.861L230.753 322.268H230.717C230.213 322.772 229.529 323.168 228.785 323.168ZM229.121 322.016C229.661 322.016 230.141 321.764 230.609 321.212V317.996C230.129 317.552 229.661 317.384 229.169 317.384C228.245 317.384 227.501 318.272 227.501 319.688C227.501 321.188 228.089 322.016 229.121 322.016ZM236.823 323.168C235.023 323.168 233.607 321.884 233.607 319.712C233.607 317.564 235.083 316.232 236.619 316.232C238.359 316.232 239.307 317.492 239.307 319.364C239.307 319.64 239.283 319.904 239.247 320.072H234.963C235.071 321.332 235.863 322.076 237.003 322.076C237.591 322.076 238.083 321.896 238.575 321.584L239.055 322.472C238.443 322.88 237.687 323.168 236.823 323.168ZM234.939 319.112H238.107C238.107 317.972 237.603 317.324 236.643 317.324C235.815 317.324 235.083 317.96 234.939 319.112Z" fill="white"/>
<rect x="172" y="309" width="75" height="19" fill="#496071"/>
<path d="M182.404 323.168C180.436 323.168 179.116 322.088 179.116 319.22V314.168H180.508V319.304C180.508 321.296 181.3 321.944 182.404 321.944C183.508 321.944 184.336 321.296 184.336 319.304V314.168H185.68V319.22C185.68 322.088 184.36 323.168 182.404 323.168ZM187.833 323V316.4H188.961L189.081 317.324H189.117C189.717 316.724 190.401 316.232 191.301 316.232C192.705 316.232 193.329 317.18 193.329 318.848V323H191.937V319.028C191.937 317.876 191.601 317.432 190.833 317.432C190.221 317.432 189.801 317.744 189.225 318.32V323H187.833ZM197.601 323.168C195.945 323.168 194.889 321.896 194.889 319.712C194.889 317.564 196.245 316.232 197.709 316.232C198.465 316.232 198.957 316.52 199.485 316.976L199.425 315.884V313.448H200.817V323H199.677L199.569 322.268H199.533C199.029 322.772 198.345 323.168 197.601 323.168ZM197.937 322.016C198.477 322.016 198.957 321.764 199.425 321.212V317.996C198.945 317.552 198.477 317.384 197.985 317.384C197.061 317.384 196.317 318.272 196.317 319.688C196.317 321.188 196.905 322.016 197.937 322.016ZM205.64 323.168C203.84 323.168 202.424 321.884 202.424 319.712C202.424 317.564 203.9 316.232 205.436 316.232C207.176 316.232 208.124 317.492 208.124 319.364C208.124 319.64 208.1 319.904 208.064 320.072H203.78C203.888 321.332 204.68 322.076 205.82 322.076C206.408 322.076 206.9 321.896 207.392 321.584L207.872 322.472C207.26 322.88 206.504 323.168 205.64 323.168ZM203.756 319.112H206.924C206.924 317.972 206.42 317.324 205.46 317.324C204.632 317.324 203.9 317.96 203.756 319.112ZM209.677 323V316.4H210.805L210.925 317.588H210.961C211.429 316.736 212.125 316.232 212.833 316.232C213.157 316.232 213.361 316.28 213.565 316.376L213.325 317.576C213.097 317.504 212.929 317.468 212.653 317.468C212.125 317.468 211.477 317.852 211.069 318.896V323H209.677ZM219.082 323.168C218.17 323.168 217.234 322.784 216.598 322.256L217.246 321.356C217.834 321.812 218.398 322.112 219.118 322.112C219.898 322.112 220.27 321.728 220.27 321.224C220.27 320.636 219.526 320.36 218.818 320.096C217.93 319.76 216.958 319.292 216.958 318.164C216.958 317.06 217.846 316.232 219.322 316.232C220.198 316.232 220.93 316.592 221.458 317.012L220.81 317.864C220.354 317.54 219.886 317.288 219.346 317.288C218.614 317.288 218.278 317.648 218.278 318.104C218.278 318.668 218.914 318.884 219.646 319.148C220.57 319.496 221.578 319.916 221.578 321.152C221.578 322.268 220.702 323.168 219.082 323.168ZM223.048 323V316.4H224.44V323H223.048ZM223.744 315.164C223.228 315.164 222.892 314.84 222.892 314.336C222.892 313.844 223.228 313.52 223.744 313.52C224.248 313.52 224.608 313.844 224.608 314.336C224.608 314.84 224.248 315.164 223.744 315.164ZM228.785 323.168C227.129 323.168 226.073 321.896 226.073 319.712C226.073 317.564 227.429 316.232 228.893 316.232C229.649 316.232 230.141 316.52 230.669 316.976L230.609 315.884V313.448H232.001V323H230.861L230.753 322.268H230.717C230.213 322.772 229.529 323.168 228.785 323.168ZM229.121 322.016C229.661 322.016 230.141 321.764 230.609 321.212V317.996C230.129 317.552 229.661 317.384 229.169 317.384C228.245 317.384 227.501 318.272 227.501 319.688C227.501 321.188 228.089 322.016 229.121 322.016ZM236.823 323.168C235.023 323.168 233.607 321.884 233.607 319.712C233.607 317.564 235.083 316.232 236.619 316.232C238.359 316.232 239.307 317.492 239.307 319.364C239.307 319.64 239.283 319.904 239.247 320.072H234.963C235.071 321.332 235.863 322.076 237.003 322.076C237.591 322.076 238.083 321.896 238.575 321.584L239.055 322.472C238.443 322.88 237.687 323.168 236.823 323.168ZM234.939 319.112H238.107C238.107 317.972 237.603 317.324 236.643 317.324C235.815 317.324 235.083 317.96 234.939 319.112Z" fill="white"/>
<path d="M182.404 22.168C180.436 22.168 179.116 21.088 179.116 18.22V13.168H180.508V18.304C180.508 20.296 181.3 20.944 182.404 20.944C183.508 20.944 184.336 20.296 184.336 18.304V13.168H185.68V18.22C185.68 21.088 184.36 22.168 182.404 22.168ZM187.833 24.676V15.4H188.961L189.081 16.132H189.117C189.693 15.64 190.401 15.232 191.145 15.232C192.813 15.232 193.761 16.564 193.761 18.604C193.761 20.86 192.405 22.168 190.917 22.168C190.329 22.168 189.729 21.904 189.177 21.424L189.225 22.54V24.676H187.833ZM190.653 21.016C191.601 21.016 192.333 20.164 192.333 18.616C192.333 17.236 191.877 16.384 190.773 16.384C190.269 16.384 189.777 16.66 189.225 17.188V20.416C189.741 20.86 190.245 21.016 190.653 21.016ZM195.391 24.676V15.4H196.519L196.639 16.132H196.675C197.251 15.64 197.959 15.232 198.703 15.232C200.371 15.232 201.319 16.564 201.319 18.604C201.319 20.86 199.963 22.168 198.475 22.168C197.887 22.168 197.287 21.904 196.735 21.424L196.783 22.54V24.676H195.391ZM198.211 21.016C199.159 21.016 199.891 20.164 199.891 18.616C199.891 17.236 199.435 16.384 198.331 16.384C197.827 16.384 197.335 16.66 196.783 17.188V20.416C197.299 20.86 197.803 21.016 198.211 21.016ZM205.71 22.168C203.91 22.168 202.494 20.884 202.494 18.712C202.494 16.564 203.97 15.232 205.506 15.232C207.246 15.232 208.194 16.492 208.194 18.364C208.194 18.64 208.17 18.904 208.134 19.072H203.85C203.958 20.332 204.75 21.076 205.89 21.076C206.478 21.076 206.97 20.896 207.462 20.584L207.942 21.472C207.33 21.88 206.574 22.168 205.71 22.168ZM203.826 18.112H206.994C206.994 16.972 206.49 16.324 205.53 16.324C204.702 16.324 203.97 16.96 203.826 18.112ZM209.747 22V15.4H210.875L210.995 16.588H211.031C211.499 15.736 212.195 15.232 212.903 15.232C213.227 15.232 213.431 15.28 213.635 15.376L213.395 16.576C213.167 16.504 212.999 16.468 212.723 16.468C212.195 16.468 211.547 16.852 211.139 17.896V22H209.747ZM219.152 22.168C218.24 22.168 217.304 21.784 216.668 21.256L217.316 20.356C217.904 20.812 218.468 21.112 219.188 21.112C219.968 21.112 220.34 20.728 220.34 20.224C220.34 19.636 219.596 19.36 218.888 19.096C218 18.76 217.028 18.292 217.028 17.164C217.028 16.06 217.916 15.232 219.392 15.232C220.268 15.232 221 15.592 221.528 16.012L220.88 16.864C220.424 16.54 219.956 16.288 219.416 16.288C218.684 16.288 218.348 16.648 218.348 17.104C218.348 17.668 218.984 17.884 219.716 18.148C220.64 18.496 221.648 18.916 221.648 20.152C221.648 21.268 220.772 22.168 219.152 22.168ZM223.118 22V15.4H224.51V22H223.118ZM223.814 14.164C223.298 14.164 222.962 13.84 222.962 13.336C222.962 12.844 223.298 12.52 223.814 12.52C224.318 12.52 224.678 12.844 224.678 13.336C224.678 13.84 224.318 14.164 223.814 14.164ZM228.855 22.168C227.199 22.168 226.143 20.896 226.143 18.712C226.143 16.564 227.499 15.232 228.963 15.232C229.719 15.232 230.211 15.52 230.739 15.976L230.679 14.884V12.448H232.071V22H230.931L230.823 21.268H230.787C230.283 21.772 229.599 22.168 228.855 22.168ZM229.191 21.016C229.731 21.016 230.211 20.764 230.679 20.212V16.996C230.199 16.552 229.731 16.384 229.239 16.384C228.315 16.384 227.571 17.272 227.571 18.688C227.571 20.188 228.159 21.016 229.191 21.016ZM236.894 22.168C235.094 22.168 233.678 20.884 233.678 18.712C233.678 16.564 235.154 15.232 236.69 15.232C238.43 15.232 239.378 16.492 239.378 18.364C239.378 18.64 239.354 18.904 239.318 19.072H235.034C235.142 20.332 235.934 21.076 237.074 21.076C237.662 21.076 238.154 20.896 238.646 20.584L239.126 21.472C238.514 21.88 237.758 22.168 236.894 22.168ZM235.01 18.112H238.178C238.178 16.972 237.674 16.324 236.714 16.324C235.886 16.324 235.154 16.96 235.01 18.112Z" fill="white"/>
</svg>
