<svg width="359" height="328" viewBox="0 0 359 328" fill="none" xmlns="http://www.w3.org/2000/svg">
<rect width="360" height="328" fill="white"/>
<path d="M60 59H329V131.402H268.621V267H121.73V131.402H60V59Z" fill="#D9D9D9"/>
<circle cx="151.946" cy="162.106" r="3.68" fill="white"/>
<circle cx="151.946" cy="196.264" r="3.68" fill="white"/>
<circle cx="151.946" cy="127.948" r="3.68" fill="white"/>
<circle cx="238.105" cy="162.106" r="3.68" fill="white"/>
<circle cx="238.105" cy="196.264" r="3.68" fill="white"/>
<circle cx="238.105" cy="127.948" r="3.68" fill="white"/>
<circle cx="153.68" cy="75.68" r="3.68" fill="#1E252C"/>
<circle cx="183.067" cy="75.68" r="3.68" fill="#1E252C"/>
<circle cx="212.454" cy="75.68" r="3.68" fill="#1E252C"/>
<circle cx="167.937" cy="95.68" r="3.68" fill="#1E252C"/>
<circle cx="197.324" cy="95.68" r="3.68" fill="#1E252C"/>
<circle cx="226.711" cy="95.68" r="3.68" fill="#1E252C"/>
<circle cx="241.841" cy="75.68" r="3.68" fill="#1E252C"/>
<path d="M36.9188 92V83.204H38.0348V92H36.9188ZM40.3384 92V85.484H41.2264L41.3344 86.432H41.3704C41.9824 85.82 42.6544 85.328 43.5544 85.328C44.9224 85.328 45.5464 86.216 45.5464 87.872V92H44.4424V88.016C44.4424 86.792 44.0704 86.276 43.2064 86.276C42.5464 86.276 42.0784 86.624 41.4304 87.272V92H40.3384ZM49.7026 92.168C48.3106 92.168 47.8546 91.292 47.8546 89.996V86.372H46.8826V85.556L47.9026 85.484L48.0226 83.648H48.9466V85.484H50.7106V86.372H48.9466V90.02C48.9466 90.812 49.1986 91.28 49.9546 91.28C50.1826 91.28 50.4826 91.184 50.6866 91.1L50.9026 91.916C50.5426 92.048 50.1106 92.168 49.7026 92.168ZM54.6031 92.168C52.8631 92.168 51.4831 90.896 51.4831 88.76C51.4831 86.636 52.9111 85.328 54.4111 85.328C56.0671 85.328 57.0031 86.516 57.0031 88.388C57.0031 88.616 56.9911 88.844 56.9551 89.012H52.5631C52.6471 90.392 53.4871 91.292 54.7351 91.292C55.3591 91.292 55.8751 91.088 56.3551 90.764L56.7511 91.496C56.1751 91.868 55.4911 92.168 54.6031 92.168ZM52.5511 88.22H56.0431C56.0431 86.912 55.4551 86.204 54.4231 86.204C53.5111 86.204 52.6951 86.936 52.5511 88.22ZM58.6196 92V85.484H59.5076L59.6156 86.672H59.6516C60.0956 85.844 60.7676 85.328 61.4996 85.328C61.7876 85.328 61.9796 85.364 62.1956 85.46L61.9916 86.42C61.7636 86.348 61.6196 86.312 61.3556 86.312C60.8156 86.312 60.1436 86.708 59.7116 87.824V92H58.6196ZM64.9807 92L62.6287 85.484H63.7567L64.9927 89.204C65.1847 89.84 65.3887 90.5 65.5927 91.112H65.6407C65.8447 90.5 66.0487 89.84 66.2407 89.204L67.4887 85.484H68.5567L66.2527 92H64.9807ZM71.0298 92.168C69.9378 92.168 69.1218 91.484 69.1218 90.308C69.1218 88.892 70.3458 88.184 73.1178 87.872C73.1178 87.032 72.8538 86.228 71.7858 86.228C71.0178 86.228 70.3338 86.588 69.8298 86.936L69.3978 86.168C69.9978 85.784 70.9098 85.328 71.9538 85.328C73.5498 85.328 74.2218 86.384 74.2218 88.004V92H73.3218L73.2258 91.232H73.1778C72.5658 91.748 71.8338 92.168 71.0298 92.168ZM71.3298 91.28C71.9658 91.28 72.4938 90.98 73.1178 90.416V88.604C70.9218 88.856 70.1898 89.396 70.1898 90.236C70.1898 90.98 70.6938 91.28 71.3298 91.28ZM77.4435 92.168C76.6155 92.168 76.2915 91.64 76.2915 90.704V82.46H77.3835V90.776C77.3835 91.124 77.5275 91.256 77.6955 91.256C77.7435 91.256 77.7915 91.256 77.9235 91.232L78.0675 92.072C77.9115 92.12 77.7435 92.168 77.4435 92.168ZM15.6961 104V95.204H18.3001C20.0881 95.204 21.3241 95.816 21.3241 97.364C21.3241 98.228 20.8681 98.996 20.0401 99.272V99.32C21.0961 99.524 21.8281 100.232 21.8281 101.432C21.8281 103.148 20.4601 104 18.5041 104H15.6961ZM16.8121 98.948H18.1081C19.6201 98.948 20.2321 98.396 20.2321 97.496C20.2321 96.464 19.5361 96.08 18.1681 96.08H16.8121V98.948ZM16.8121 103.124H18.3481C19.8481 103.124 20.7481 102.584 20.7481 101.396C20.7481 100.304 19.8841 99.8 18.3481 99.8H16.8121V103.124ZM26.1148 104.168C24.3748 104.168 22.9948 102.896 22.9948 100.76C22.9948 98.636 24.4228 97.328 25.9228 97.328C27.5788 97.328 28.5148 98.516 28.5148 100.388C28.5148 100.616 28.5028 100.844 28.4668 101.012H24.0748C24.1588 102.392 24.9988 103.292 26.2468 103.292C26.8708 103.292 27.3868 103.088 27.8668 102.764L28.2628 103.496C27.6868 103.868 27.0028 104.168 26.1148 104.168ZM24.0628 100.22H27.5548C27.5548 98.912 26.9668 98.204 25.9348 98.204C25.0228 98.204 24.2068 98.936 24.0628 100.22ZM32.0073 104.168C30.6153 104.168 30.1593 103.292 30.1593 101.996V98.372H29.1873V97.556L30.2073 97.484L30.3273 95.648H31.2513V97.484H33.0153V98.372H31.2513V102.02C31.2513 102.812 31.5033 103.28 32.2593 103.28C32.4873 103.28 32.7873 103.184 32.9913 103.1L33.2073 103.916C32.8473 104.048 32.4153 104.168 32.0073 104.168ZM35.5227 104L33.6987 97.484H34.8147L35.7987 101.264C35.9307 101.888 36.0507 102.464 36.1707 103.076H36.2307C36.3747 102.464 36.5067 101.876 36.6747 101.264L37.6827 97.484H38.7507L39.7827 101.264C39.9387 101.888 40.0827 102.464 40.2387 103.076H40.2867C40.4187 102.464 40.5387 101.888 40.6947 101.264L41.6427 97.484H42.6867L40.9347 104H39.6027L38.6547 100.496C38.4867 99.872 38.3667 99.284 38.2107 98.612H38.1507C38.0187 99.284 37.8867 99.884 37.7067 100.508L36.7947 104H35.5227ZM46.6578 104.168C44.9178 104.168 43.5378 102.896 43.5378 100.76C43.5378 98.636 44.9658 97.328 46.4658 97.328C48.1218 97.328 49.0578 98.516 49.0578 100.388C49.0578 100.616 49.0458 100.844 49.0098 101.012H44.6178C44.7018 102.392 45.5418 103.292 46.7898 103.292C47.4138 103.292 47.9298 103.088 48.4098 102.764L48.8058 103.496C48.2298 103.868 47.5458 104.168 46.6578 104.168ZM44.6058 100.22H48.0978C48.0978 98.912 47.5098 98.204 46.4778 98.204C45.5658 98.204 44.7498 98.936 44.6058 100.22ZM53.3023 104.168C51.5623 104.168 50.1823 102.896 50.1823 100.76C50.1823 98.636 51.6103 97.328 53.1103 97.328C54.7663 97.328 55.7023 98.516 55.7023 100.388C55.7023 100.616 55.6903 100.844 55.6543 101.012H51.2623C51.3463 102.392 52.1863 103.292 53.4343 103.292C54.0583 103.292 54.5743 103.088 55.0543 102.764L55.4503 103.496C54.8743 103.868 54.1903 104.168 53.3023 104.168ZM51.2503 100.22H54.7423C54.7423 98.912 54.1543 98.204 53.1223 98.204C52.2103 98.204 51.3943 98.936 51.2503 100.22ZM57.3188 104V97.484H58.2068L58.3148 98.432H58.3508C58.9628 97.82 59.6348 97.328 60.5348 97.328C61.9028 97.328 62.5268 98.216 62.5268 99.872V104H61.4228V100.016C61.4228 98.792 61.0508 98.276 60.1868 98.276C59.5268 98.276 59.0588 98.624 58.4108 99.272V104H57.3188ZM67.4227 104V95.204H68.5387V103.064H72.3787V104H67.4227ZM75.3423 104.168C74.2503 104.168 73.4343 103.484 73.4343 102.308C73.4343 100.892 74.6583 100.184 77.4303 99.872C77.4303 99.032 77.1663 98.228 76.0983 98.228C75.3303 98.228 74.6463 98.588 74.1423 98.936L73.7103 98.168C74.3103 97.784 75.2223 97.328 76.2663 97.328C77.8623 97.328 78.5343 98.384 78.5343 100.004V104H77.6343L77.5383 103.232H77.4903C76.8783 103.748 76.1463 104.168 75.3423 104.168ZM75.6423 103.28C76.2783 103.28 76.8063 102.98 77.4303 102.416V100.604C75.2343 100.856 74.5023 101.396 74.5023 102.236C74.5023 102.98 75.0063 103.28 75.6423 103.28ZM80.7 106.82C80.4 106.82 80.148 106.772 79.944 106.688L80.16 105.812C80.28 105.86 80.472 105.908 80.652 105.908C81.384 105.908 81.852 105.308 82.128 104.504L82.272 104.012L79.656 97.484H80.784L82.116 101.108C82.32 101.684 82.536 102.344 82.752 102.944H82.812C82.992 102.344 83.184 101.696 83.352 101.108L84.528 97.484H85.596L83.136 104.552C82.68 105.836 82.008 106.82 80.7 106.82ZM89.4078 104.168C87.6678 104.168 86.2878 102.896 86.2878 100.76C86.2878 98.636 87.7158 97.328 89.2158 97.328C90.8718 97.328 91.8078 98.516 91.8078 100.388C91.8078 100.616 91.7958 100.844 91.7598 101.012H87.3678C87.4518 102.392 88.2918 103.292 89.5398 103.292C90.1638 103.292 90.6798 103.088 91.1598 102.764L91.5558 103.496C90.9798 103.868 90.2958 104.168 89.4078 104.168ZM87.3558 100.22H90.8478C90.8478 98.912 90.2598 98.204 89.2278 98.204C88.3158 98.204 87.4998 98.936 87.3558 100.22ZM93.4243 104V97.484H94.3123L94.4203 98.672H94.4563C94.9003 97.844 95.5723 97.328 96.3043 97.328C96.5923 97.328 96.7843 97.364 97.0003 97.46L96.7963 98.42C96.5683 98.348 96.4243 98.312 96.1603 98.312C95.6203 98.312 94.9483 98.708 94.5163 99.824V104H93.4243ZM99.6986 104.168C98.7746 104.168 97.8746 103.772 97.2626 103.268L97.8026 102.536C98.3666 102.992 98.9426 103.316 99.7226 103.316C100.587 103.316 101.019 102.86 101.019 102.284C101.019 101.624 100.239 101.324 99.5186 101.06C98.6186 100.712 97.6226 100.28 97.6226 99.164C97.6226 98.132 98.4506 97.328 99.8666 97.328C100.671 97.328 101.391 97.652 101.895 98.06L101.367 98.756C100.923 98.432 100.455 98.18 99.8786 98.18C99.0506 98.18 98.6786 98.612 98.6786 99.116C98.6786 99.74 99.3386 99.98 100.083 100.244C101.031 100.604 102.063 100.988 102.063 102.224C102.063 103.292 101.235 104.168 99.6986 104.168Z" fill="#1E252C"/>
<path d="M36.4285 61V52.204H39.1765C40.9645 52.204 42.2485 52.852 42.2485 54.676C42.2485 56.44 40.9645 57.28 39.1765 57.28H37.5445V61H36.4285ZM37.5445 56.38H39.0205C40.3885 56.38 41.1445 55.816 41.1445 54.676C41.1445 53.524 40.3885 53.116 39.0205 53.116H37.5445V56.38ZM41.2645 61L38.9605 56.98L39.8245 56.404L42.5125 61H41.2645ZM46.4136 61.168C44.6736 61.168 43.2936 59.896 43.2936 57.76C43.2936 55.636 44.7216 54.328 46.2216 54.328C47.8776 54.328 48.8136 55.516 48.8136 57.388C48.8136 57.616 48.8016 57.844 48.7656 58.012H44.3736C44.4576 59.392 45.2976 60.292 46.5456 60.292C47.1696 60.292 47.6856 60.088 48.1656 59.764L48.5616 60.496C47.9856 60.868 47.3016 61.168 46.4136 61.168ZM44.3616 57.22H47.8536C47.8536 55.912 47.2656 55.204 46.2336 55.204C45.3216 55.204 44.5056 55.936 44.3616 57.22ZM53.2862 61.168C52.6862 61.168 52.0022 60.856 51.4382 60.328H51.4022L51.2942 61H50.4302V51.46H51.5222V54.064L51.4742 55.24C52.0742 54.724 52.7942 54.328 53.5262 54.328C55.2062 54.328 56.1182 55.636 56.1182 57.64C56.1182 59.872 54.7862 61.168 53.2862 61.168ZM53.1182 60.244C54.1862 60.244 54.9902 59.272 54.9902 57.664C54.9902 56.212 54.4982 55.24 53.2622 55.24C52.7102 55.24 52.1342 55.552 51.5222 56.14V59.572C52.0862 60.064 52.6862 60.244 53.1182 60.244ZM59.1255 61.168C58.0335 61.168 57.2175 60.484 57.2175 59.308C57.2175 57.892 58.4415 57.184 61.2135 56.872C61.2135 56.032 60.9495 55.228 59.8815 55.228C59.1135 55.228 58.4295 55.588 57.9255 55.936L57.4935 55.168C58.0935 54.784 59.0055 54.328 60.0495 54.328C61.6455 54.328 62.3175 55.384 62.3175 57.004V61H61.4175L61.3215 60.232H61.2735C60.6615 60.748 59.9295 61.168 59.1255 61.168ZM59.4255 60.28C60.0615 60.28 60.5895 59.98 61.2135 59.416V57.604C59.0175 57.856 58.2855 58.396 58.2855 59.236C58.2855 59.98 58.7895 60.28 59.4255 60.28ZM64.3872 61V54.484H65.2752L65.3832 55.672H65.4192C65.8632 54.844 66.5352 54.328 67.2672 54.328C67.5552 54.328 67.7472 54.364 67.9632 54.46L67.7592 55.42C67.5312 55.348 67.3872 55.312 67.1232 55.312C66.5832 55.312 65.9112 55.708 65.4792 56.824V61H64.3872ZM74.2791 61.168C72.5511 61.168 71.2311 59.908 71.2311 57.76C71.2311 55.576 72.6951 54.328 74.3631 54.328C75.2151 54.328 75.8151 54.676 76.2711 55.096L75.7191 55.816C75.3351 55.468 74.9271 55.24 74.4231 55.24C73.2231 55.24 72.3591 56.248 72.3591 57.76C72.3591 59.248 73.1871 60.256 74.3871 60.256C74.9751 60.256 75.5151 59.968 75.9231 59.608L76.3911 60.34C75.8151 60.856 75.0591 61.168 74.2791 61.168ZM80.0559 61.168C78.4479 61.168 77.0319 59.908 77.0319 57.76C77.0319 55.576 78.4479 54.328 80.0559 54.328C81.6519 54.328 83.0679 55.576 83.0679 57.76C83.0679 59.908 81.6519 61.168 80.0559 61.168ZM80.0559 60.256C81.1839 60.256 81.9399 59.248 81.9399 57.76C81.9399 56.248 81.1839 55.24 80.0559 55.24C78.9159 55.24 78.1599 56.248 78.1599 57.76C78.1599 59.248 78.9159 60.256 80.0559 60.256ZM86.1232 61L83.7712 54.484H84.8992L86.1352 58.204C86.3272 58.84 86.5312 59.5 86.7352 60.112H86.7832C86.9872 59.5 87.1912 58.84 87.3832 58.204L88.6312 54.484H89.6992L87.3952 61H86.1232ZM93.523 61.168C91.783 61.168 90.403 59.896 90.403 57.76C90.403 55.636 91.831 54.328 93.331 54.328C94.987 54.328 95.923 55.516 95.923 57.388C95.923 57.616 95.911 57.844 95.875 58.012H91.483C91.567 59.392 92.407 60.292 93.655 60.292C94.279 60.292 94.795 60.088 95.275 59.764L95.671 60.496C95.095 60.868 94.411 61.168 93.523 61.168ZM91.471 57.22H94.963C94.963 55.912 94.375 55.204 93.343 55.204C92.431 55.204 91.615 55.936 91.471 57.22ZM97.5395 61V54.484H98.4275L98.5355 55.672H98.5715C99.0155 54.844 99.6875 54.328 100.42 54.328C100.708 54.328 100.9 54.364 101.116 54.46L100.912 55.42C100.684 55.348 100.54 55.312 100.276 55.312C99.7355 55.312 99.0635 55.708 98.6315 56.824V61H97.5395ZM53.1196 73.168C52.0276 73.168 51.2116 72.484 51.2116 71.308C51.2116 69.892 52.4356 69.184 55.2076 68.872C55.2076 68.032 54.9436 67.228 53.8756 67.228C53.1076 67.228 52.4236 67.588 51.9196 67.936L51.4876 67.168C52.0876 66.784 52.9996 66.328 54.0436 66.328C55.6396 66.328 56.3116 67.384 56.3116 69.004V73H55.4116L55.3156 72.232H55.2676C54.6556 72.748 53.9236 73.168 53.1196 73.168ZM53.4196 72.28C54.0556 72.28 54.5836 71.98 55.2076 71.416V69.604C53.0116 69.856 52.2796 70.396 52.2796 71.236C52.2796 71.98 52.7836 72.28 53.4196 72.28ZM60.2104 73.168C58.8184 73.168 58.3624 72.292 58.3624 70.996V67.372H57.3904V66.556L58.4104 66.484L58.5304 64.648H59.4544V66.484H61.2184V67.372H59.4544V71.02C59.4544 71.812 59.7064 72.28 60.4624 72.28C60.6904 72.28 60.9904 72.184 61.1944 72.1L61.4104 72.916C61.0504 73.048 60.6184 73.168 60.2104 73.168ZM67.9334 73.168C66.2054 73.168 64.8854 71.908 64.8854 69.76C64.8854 67.576 66.3494 66.328 68.0174 66.328C68.8694 66.328 69.4694 66.676 69.9254 67.096L69.3734 67.816C68.9894 67.468 68.5814 67.24 68.0774 67.24C66.8774 67.24 66.0134 68.248 66.0134 69.76C66.0134 71.248 66.8414 72.256 68.0414 72.256C68.6294 72.256 69.1694 71.968 69.5774 71.608L70.0454 72.34C69.4694 72.856 68.7134 73.168 67.9334 73.168ZM73.7102 73.168C72.1022 73.168 70.6862 71.908 70.6862 69.76C70.6862 67.576 72.1022 66.328 73.7102 66.328C75.3062 66.328 76.7222 67.576 76.7222 69.76C76.7222 71.908 75.3062 73.168 73.7102 73.168ZM73.7102 72.256C74.8382 72.256 75.5942 71.248 75.5942 69.76C75.5942 68.248 74.8382 67.24 73.7102 67.24C72.5702 67.24 71.8142 68.248 71.8142 69.76C71.8142 71.248 72.5702 72.256 73.7102 72.256ZM78.4556 73V66.484H79.3436L79.4516 67.672H79.4876C79.9316 66.844 80.6036 66.328 81.3356 66.328C81.6236 66.328 81.8156 66.364 82.0316 66.46L81.8276 67.42C81.5996 67.348 81.4556 67.312 81.1916 67.312C80.6516 67.312 79.9796 67.708 79.5476 68.824V73H78.4556ZM85.5718 73.168C83.8318 73.168 82.4518 71.896 82.4518 69.76C82.4518 67.636 83.8798 66.328 85.3798 66.328C87.0358 66.328 87.9718 67.516 87.9718 69.388C87.9718 69.616 87.9598 69.844 87.9238 70.012H83.5318C83.6158 71.392 84.4558 72.292 85.7038 72.292C86.3278 72.292 86.8438 72.088 87.3238 71.764L87.7198 72.496C87.1438 72.868 86.4598 73.168 85.5718 73.168ZM83.5198 69.22H87.0118C87.0118 67.912 86.4238 67.204 85.3918 67.204C84.4798 67.204 83.6638 67.936 83.5198 69.22Z" fill="#1E252C"/>
<path d="M267.452 118.168C265.232 118.168 263.696 116.392 263.696 113.572C263.696 110.752 265.232 109.048 267.452 109.048C269.66 109.048 271.196 110.764 271.196 113.572C271.196 116.392 269.66 118.168 267.452 118.168ZM267.452 117.244C269.024 117.244 270.068 115.828 270.068 113.572C270.068 111.376 269.024 110.02 267.452 110.02C265.868 110.02 264.836 111.376 264.836 113.572C264.836 115.828 265.868 117.244 267.452 117.244ZM270.14 120.22C268.46 120.22 267.32 119.26 266.852 117.976L268.004 117.892C268.352 118.816 269.216 119.284 270.26 119.284C270.656 119.284 270.944 119.236 271.184 119.152L271.4 120.016C271.124 120.124 270.668 120.22 270.14 120.22ZM274.906 118.168C273.538 118.168 272.914 117.28 272.914 115.612V111.484H274.006V115.48C274.006 116.692 274.378 117.208 275.242 117.208C275.902 117.208 276.382 116.884 276.994 116.116V111.484H278.086V118H277.186L277.09 116.98H277.066C276.454 117.688 275.806 118.168 274.906 118.168ZM281.799 118.168C280.707 118.168 279.891 117.484 279.891 116.308C279.891 114.892 281.115 114.184 283.887 113.872C283.887 113.032 283.623 112.228 282.555 112.228C281.787 112.228 281.103 112.588 280.599 112.936L280.167 112.168C280.767 111.784 281.679 111.328 282.723 111.328C284.319 111.328 284.991 112.384 284.991 114.004V118H284.091L283.995 117.232H283.947C283.335 117.748 282.603 118.168 281.799 118.168ZM282.099 117.28C282.735 117.28 283.263 116.98 283.887 116.416V114.604C281.691 114.856 280.959 115.396 280.959 116.236C280.959 116.98 281.463 117.28 282.099 117.28ZM287.061 118V111.484H287.949L288.057 112.432H288.093C288.705 111.82 289.377 111.328 290.277 111.328C291.645 111.328 292.269 112.216 292.269 113.872V118H291.165V114.016C291.165 112.792 290.793 112.276 289.929 112.276C289.269 112.276 288.801 112.624 288.153 113.272V118H287.061ZM296.425 118.168C295.033 118.168 294.577 117.292 294.577 115.996V112.372H293.605V111.556L294.625 111.484L294.745 109.648H295.669V111.484H297.433V112.372H295.669V116.02C295.669 116.812 295.921 117.28 296.677 117.28C296.905 117.28 297.205 117.184 297.409 117.1L297.625 117.916C297.265 118.048 296.833 118.168 296.425 118.168ZM298.909 118V111.484H300.001V118H298.909ZM299.461 110.14C299.029 110.14 298.729 109.864 298.729 109.408C298.729 108.988 299.029 108.712 299.461 108.712C299.881 108.712 300.193 108.988 300.193 109.408C300.193 109.864 299.881 110.14 299.461 110.14ZM304.253 118.168C302.861 118.168 302.405 117.292 302.405 115.996V112.372H301.433V111.556L302.453 111.484L302.573 109.648H303.497V111.484H305.261V112.372H303.497V116.02C303.497 116.812 303.749 117.28 304.505 117.28C304.733 117.28 305.033 117.184 305.237 117.1L305.453 117.916C305.093 118.048 304.661 118.168 304.253 118.168ZM306.833 120.82C306.533 120.82 306.281 120.772 306.077 120.688L306.293 119.812C306.413 119.86 306.605 119.908 306.785 119.908C307.517 119.908 307.985 119.308 308.261 118.504L308.405 118.012L305.789 111.484H306.917L308.249 115.108C308.453 115.684 308.669 116.344 308.885 116.944H308.945C309.125 116.344 309.317 115.696 309.485 115.108L310.661 111.484H311.729L309.269 118.552C308.813 119.836 308.141 120.82 306.833 120.82Z" fill="#CE2C3F"/>
<path d="M264.2 72V63.204H269.264V64.14H265.316V67.128H268.664V68.052H265.316V72H264.2ZM270.725 72V65.484H271.817V72H270.725ZM271.277 64.14C270.845 64.14 270.545 63.864 270.545 63.408C270.545 62.988 270.845 62.712 271.277 62.712C271.697 62.712 272.009 62.988 272.009 63.408C272.009 63.864 271.697 64.14 271.277 64.14ZM274.03 72V65.484H274.918L275.026 66.672H275.062C275.506 65.844 276.178 65.328 276.91 65.328C277.198 65.328 277.39 65.364 277.606 65.46L277.402 66.42C277.174 66.348 277.03 66.312 276.766 66.312C276.226 66.312 275.554 66.708 275.122 67.824V72H274.03ZM280.304 72.168C279.38 72.168 278.48 71.772 277.868 71.268L278.408 70.536C278.972 70.992 279.548 71.316 280.328 71.316C281.192 71.316 281.624 70.86 281.624 70.284C281.624 69.624 280.844 69.324 280.124 69.06C279.224 68.712 278.228 68.28 278.228 67.164C278.228 66.132 279.056 65.328 280.472 65.328C281.276 65.328 281.996 65.652 282.5 66.06L281.972 66.756C281.528 66.432 281.06 66.18 280.484 66.18C279.656 66.18 279.284 66.612 279.284 67.116C279.284 67.74 279.944 67.98 280.688 68.244C281.636 68.604 282.668 68.988 282.668 70.224C282.668 71.292 281.84 72.168 280.304 72.168ZM285.949 72.168C284.557 72.168 284.101 71.292 284.101 69.996V66.372H283.129V65.556L284.149 65.484L284.269 63.648H285.193V65.484H286.957V66.372H285.193V70.02C285.193 70.812 285.445 71.28 286.201 71.28C286.429 71.28 286.729 71.184 286.933 71.1L287.149 71.916C286.789 72.048 286.357 72.168 285.949 72.168ZM291.212 72V63.204H292.328V71.064H296.168V72H291.212ZM299.131 72.168C298.039 72.168 297.223 71.484 297.223 70.308C297.223 68.892 298.447 68.184 301.219 67.872C301.219 67.032 300.955 66.228 299.887 66.228C299.119 66.228 298.435 66.588 297.931 66.936L297.499 66.168C298.099 65.784 299.011 65.328 300.055 65.328C301.651 65.328 302.323 66.384 302.323 68.004V72H301.423L301.327 71.232H301.279C300.667 71.748 299.935 72.168 299.131 72.168ZM299.431 71.28C300.067 71.28 300.595 70.98 301.219 70.416V68.604C299.023 68.856 298.291 69.396 298.291 70.236C298.291 70.98 298.795 71.28 299.431 71.28ZM304.489 74.82C304.189 74.82 303.937 74.772 303.733 74.688L303.949 73.812C304.069 73.86 304.261 73.908 304.441 73.908C305.173 73.908 305.641 73.308 305.917 72.504L306.061 72.012L303.445 65.484H304.573L305.905 69.108C306.109 69.684 306.325 70.344 306.541 70.944H306.601C306.781 70.344 306.973 69.696 307.141 69.108L308.317 65.484H309.385L306.925 72.552C306.469 73.836 305.797 74.82 304.489 74.82ZM313.197 72.168C311.457 72.168 310.077 70.896 310.077 68.76C310.077 66.636 311.505 65.328 313.005 65.328C314.661 65.328 315.597 66.516 315.597 68.388C315.597 68.616 315.585 68.844 315.549 69.012H311.157C311.241 70.392 312.081 71.292 313.329 71.292C313.953 71.292 314.469 71.088 314.949 70.764L315.345 71.496C314.769 71.868 314.085 72.168 313.197 72.168ZM311.145 68.22H314.637C314.637 66.912 314.049 66.204 313.017 66.204C312.105 66.204 311.289 66.936 311.145 68.22ZM317.213 72V65.484H318.101L318.209 66.672H318.245C318.689 65.844 319.361 65.328 320.093 65.328C320.381 65.328 320.573 65.364 320.789 65.46L320.585 66.42C320.357 66.348 320.213 66.312 319.949 66.312C319.409 66.312 318.737 66.708 318.305 67.824V72H317.213ZM267.452 89.168C265.232 89.168 263.696 87.392 263.696 84.572C263.696 81.752 265.232 80.048 267.452 80.048C269.66 80.048 271.196 81.764 271.196 84.572C271.196 87.392 269.66 89.168 267.452 89.168ZM267.452 88.244C269.024 88.244 270.068 86.828 270.068 84.572C270.068 82.376 269.024 81.02 267.452 81.02C265.868 81.02 264.836 82.376 264.836 84.572C264.836 86.828 265.868 88.244 267.452 88.244ZM270.14 91.22C268.46 91.22 267.32 90.26 266.852 88.976L268.004 88.892C268.352 89.816 269.216 90.284 270.26 90.284C270.656 90.284 270.944 90.236 271.184 90.152L271.4 91.016C271.124 91.124 270.668 91.22 270.14 91.22ZM274.906 89.168C273.538 89.168 272.914 88.28 272.914 86.612V82.484H274.006V86.48C274.006 87.692 274.378 88.208 275.242 88.208C275.902 88.208 276.382 87.884 276.994 87.116V82.484H278.086V89H277.186L277.09 87.98H277.066C276.454 88.688 275.806 89.168 274.906 89.168ZM281.799 89.168C280.707 89.168 279.891 88.484 279.891 87.308C279.891 85.892 281.115 85.184 283.887 84.872C283.887 84.032 283.623 83.228 282.555 83.228C281.787 83.228 281.103 83.588 280.599 83.936L280.167 83.168C280.767 82.784 281.679 82.328 282.723 82.328C284.319 82.328 284.991 83.384 284.991 85.004V89H284.091L283.995 88.232H283.947C283.335 88.748 282.603 89.168 281.799 89.168ZM282.099 88.28C282.735 88.28 283.263 87.98 283.887 87.416V85.604C281.691 85.856 280.959 86.396 280.959 87.236C280.959 87.98 281.463 88.28 282.099 88.28ZM287.061 89V82.484H287.949L288.057 83.432H288.093C288.705 82.82 289.377 82.328 290.277 82.328C291.645 82.328 292.269 83.216 292.269 84.872V89H291.165V85.016C291.165 83.792 290.793 83.276 289.929 83.276C289.269 83.276 288.801 83.624 288.153 84.272V89H287.061ZM296.425 89.168C295.033 89.168 294.577 88.292 294.577 86.996V83.372H293.605V82.556L294.625 82.484L294.745 80.648H295.669V82.484H297.433V83.372H295.669V87.02C295.669 87.812 295.921 88.28 296.677 88.28C296.905 88.28 297.205 88.184 297.409 88.1L297.625 88.916C297.265 89.048 296.833 89.168 296.425 89.168ZM298.909 89V82.484H300.001V89H298.909ZM299.461 81.14C299.029 81.14 298.729 80.864 298.729 80.408C298.729 79.988 299.029 79.712 299.461 79.712C299.881 79.712 300.193 79.988 300.193 80.408C300.193 80.864 299.881 81.14 299.461 81.14ZM304.253 89.168C302.861 89.168 302.405 88.292 302.405 86.996V83.372H301.433V82.556L302.453 82.484L302.573 80.648H303.497V82.484H305.261V83.372H303.497V87.02C303.497 87.812 303.749 88.28 304.505 88.28C304.733 88.28 305.033 88.184 305.237 88.1L305.453 88.916C305.093 89.048 304.661 89.168 304.253 89.168ZM306.833 91.82C306.533 91.82 306.281 91.772 306.077 91.688L306.293 90.812C306.413 90.86 306.605 90.908 306.785 90.908C307.517 90.908 307.985 90.308 308.261 89.504L308.405 89.012L305.789 82.484H306.917L308.249 86.108C308.453 86.684 308.669 87.344 308.885 87.944H308.945C309.125 87.344 309.317 86.696 309.485 86.108L310.661 82.484H311.729L309.269 89.552C308.813 90.836 308.141 91.82 306.833 91.82Z" fill="#2C59CE"/>
<line x1="153.77" y1="66" x2="153.77" y2="50" stroke="#1E252C" stroke-width="0.459172"/>
<line x1="182.77" y1="66" x2="182.77" y2="50" stroke="#1E252C" stroke-width="0.459172"/>
<line x1="154" y1="54.7704" x2="182.928" y2="54.7704" stroke="#1E252C" stroke-width="0.459172"/>
<line x1="103.204" y1="58.913" x2="119.275" y2="58.913" stroke="#1E252C" stroke-width="0.459172"/>
<line x1="106.23" y1="59" x2="106.23" y2="96" stroke="#1E252C" stroke-width="0.459172"/>
<line x1="103" y1="76.7704" x2="142.948" y2="76.7704" stroke="#1E252C" stroke-width="0.459172"/>
<line x1="103" y1="95.7704" x2="164" y2="95.7704" stroke="#1E252C" stroke-width="0.459172"/>
<path d="M149.812 45.668C148.576 45.668 147.508 45.164 146.74 44.36L147.4 43.592C148.036 44.264 148.924 44.684 149.836 44.684C150.988 44.684 151.672 44.108 151.672 43.256C151.672 42.344 151.036 42.056 150.208 41.696L148.948 41.144C148.12 40.796 147.16 40.172 147.16 38.888C147.16 37.532 148.324 36.548 149.932 36.548C150.976 36.548 151.9 36.992 152.512 37.64L151.924 38.348C151.384 37.844 150.736 37.52 149.932 37.52C148.936 37.52 148.288 38.024 148.288 38.804C148.288 39.668 149.056 39.98 149.74 40.268L150.988 40.808C152.02 41.252 152.8 41.864 152.8 43.172C152.8 44.564 151.66 45.668 149.812 45.668ZM154.428 48.248V38.984H155.316L155.424 39.74H155.46C156.048 39.248 156.768 38.828 157.524 38.828C159.216 38.828 160.116 40.136 160.116 42.152C160.116 44.372 158.784 45.668 157.284 45.668C156.696 45.668 156.084 45.392 155.496 44.912L155.52 46.052V48.248H154.428ZM157.116 44.744C158.184 44.744 158.988 43.772 158.988 42.164C158.988 40.712 158.496 39.74 157.26 39.74C156.708 39.74 156.156 40.052 155.52 40.64V44.072C156.108 44.564 156.684 44.744 157.116 44.744ZM163.147 45.668C162.055 45.668 161.239 44.984 161.239 43.808C161.239 42.392 162.463 41.684 165.235 41.372C165.235 40.532 164.971 39.728 163.903 39.728C163.135 39.728 162.451 40.088 161.947 40.436L161.515 39.668C162.115 39.284 163.027 38.828 164.071 38.828C165.667 38.828 166.339 39.884 166.339 41.504V45.5H165.439L165.343 44.732H165.295C164.683 45.248 163.951 45.668 163.147 45.668ZM163.447 44.78C164.083 44.78 164.611 44.48 165.235 43.916V42.104C163.039 42.356 162.307 42.896 162.307 43.736C162.307 44.48 162.811 44.78 163.447 44.78ZM170.965 45.668C169.237 45.668 167.917 44.408 167.917 42.26C167.917 40.076 169.381 38.828 171.049 38.828C171.901 38.828 172.501 39.176 172.957 39.596L172.405 40.316C172.021 39.968 171.613 39.74 171.109 39.74C169.909 39.74 169.045 40.748 169.045 42.26C169.045 43.748 169.873 44.756 171.073 44.756C171.661 44.756 172.201 44.468 172.609 44.108L173.077 44.84C172.501 45.356 171.745 45.668 170.965 45.668ZM174.526 45.5V38.984H175.618V45.5H174.526ZM175.078 37.64C174.646 37.64 174.346 37.364 174.346 36.908C174.346 36.488 174.646 36.212 175.078 36.212C175.498 36.212 175.81 36.488 175.81 36.908C175.81 37.364 175.498 37.64 175.078 37.64ZM177.831 45.5V38.984H178.719L178.827 39.932H178.863C179.475 39.32 180.147 38.828 181.047 38.828C182.415 38.828 183.039 39.716 183.039 41.372V45.5H181.935V41.516C181.935 40.292 181.563 39.776 180.699 39.776C180.039 39.776 179.571 40.124 178.923 40.772V45.5H177.831ZM187.351 48.5C185.755 48.5 184.651 47.876 184.651 46.76C184.651 46.208 185.011 45.668 185.611 45.284V45.236C185.275 45.02 185.023 44.672 185.023 44.156C185.023 43.616 185.407 43.196 185.755 42.956V42.908C185.323 42.56 184.891 41.936 184.891 41.156C184.891 39.716 186.019 38.828 187.339 38.828C187.711 38.828 188.035 38.9 188.263 38.984H190.531V39.836H189.199C189.511 40.136 189.727 40.616 189.727 41.18C189.727 42.572 188.671 43.436 187.339 43.436C187.027 43.436 186.667 43.364 186.367 43.22C186.139 43.412 185.947 43.64 185.947 43.988C185.947 44.408 186.223 44.708 187.099 44.708H188.371C189.883 44.708 190.639 45.176 190.639 46.256C190.639 47.468 189.355 48.5 187.351 48.5ZM187.339 42.704C188.095 42.704 188.731 42.092 188.731 41.156C188.731 40.196 188.107 39.62 187.339 39.62C186.571 39.62 185.947 40.184 185.947 41.156C185.947 42.092 186.583 42.704 187.339 42.704ZM187.495 47.756C188.755 47.756 189.571 47.096 189.571 46.424C189.571 45.812 189.103 45.608 188.251 45.608H187.123C186.871 45.608 186.571 45.584 186.271 45.5C185.803 45.836 185.611 46.232 185.611 46.604C185.611 47.312 186.319 47.756 187.495 47.756Z" fill="#1E252C"/>
<rect x="139.5" y="63.5" width="117" height="43" stroke="#CE2C3F" stroke-dasharray="0.92 0.92"/>
<rect x="143.5" y="67.5" width="107" height="18" stroke="#2C59CE" stroke-dasharray="0.92 0.92"/>
<circle cx="151.68" cy="248.68" r="3.68" fill="#1E252C"/>
<circle cx="181.067" cy="248.68" r="3.68" fill="#1E252C"/>
<circle cx="210.454" cy="248.68" r="3.68" fill="#1E252C"/>
<circle cx="165.937" cy="228.68" r="3.68" fill="#1E252C"/>
<circle cx="195.324" cy="228.68" r="3.68" fill="#1E252C"/>
<circle cx="224.711" cy="228.68" r="3.68" fill="#1E252C"/>
<circle cx="239.841" cy="248.68" r="3.68" fill="#1E252C"/>
<path d="M31.9188 231V222.204H33.0348V231H31.9188ZM35.3384 231V224.484H36.2264L36.3344 225.432H36.3704C36.9824 224.82 37.6544 224.328 38.5544 224.328C39.9224 224.328 40.5464 225.216 40.5464 226.872V231H39.4424V227.016C39.4424 225.792 39.0704 225.276 38.2064 225.276C37.5464 225.276 37.0784 225.624 36.4304 226.272V231H35.3384ZM44.7026 231.168C43.3106 231.168 42.8546 230.292 42.8546 228.996V225.372H41.8826V224.556L42.9026 224.484L43.0226 222.648H43.9466V224.484H45.7106V225.372H43.9466V229.02C43.9466 229.812 44.1986 230.28 44.9546 230.28C45.1826 230.28 45.4826 230.184 45.6866 230.1L45.9026 230.916C45.5426 231.048 45.1106 231.168 44.7026 231.168ZM49.6031 231.168C47.8631 231.168 46.4831 229.896 46.4831 227.76C46.4831 225.636 47.9111 224.328 49.4111 224.328C51.0671 224.328 52.0031 225.516 52.0031 227.388C52.0031 227.616 51.9911 227.844 51.9551 228.012H47.5631C47.6471 229.392 48.4871 230.292 49.7351 230.292C50.3591 230.292 50.8751 230.088 51.3551 229.764L51.7511 230.496C51.1751 230.868 50.4911 231.168 49.6031 231.168ZM47.5511 227.22H51.0431C51.0431 225.912 50.4551 225.204 49.4231 225.204C48.5111 225.204 47.6951 225.936 47.5511 227.22ZM53.6196 231V224.484H54.5076L54.6156 225.672H54.6516C55.0956 224.844 55.7676 224.328 56.4996 224.328C56.7876 224.328 56.9796 224.364 57.1956 224.46L56.9916 225.42C56.7636 225.348 56.6196 225.312 56.3556 225.312C55.8156 225.312 55.1436 225.708 54.7116 226.824V231H53.6196ZM59.9807 231L57.6287 224.484H58.7567L59.9927 228.204C60.1847 228.84 60.3887 229.5 60.5927 230.112H60.6407C60.8447 229.5 61.0487 228.84 61.2407 228.204L62.4887 224.484H63.5567L61.2527 231H59.9807ZM66.0298 231.168C64.9378 231.168 64.1218 230.484 64.1218 229.308C64.1218 227.892 65.3458 227.184 68.1178 226.872C68.1178 226.032 67.8538 225.228 66.7858 225.228C66.0178 225.228 65.3338 225.588 64.8298 225.936L64.3978 225.168C64.9978 224.784 65.9098 224.328 66.9538 224.328C68.5498 224.328 69.2218 225.384 69.2218 227.004V231H68.3218L68.2258 230.232H68.1778C67.5658 230.748 66.8338 231.168 66.0298 231.168ZM66.3298 230.28C66.9658 230.28 67.4938 229.98 68.1178 229.416V227.604C65.9218 227.856 65.1898 228.396 65.1898 229.236C65.1898 229.98 65.6938 230.28 66.3298 230.28ZM72.4435 231.168C71.6155 231.168 71.2915 230.64 71.2915 229.704V221.46H72.3835V229.776C72.3835 230.124 72.5275 230.256 72.6955 230.256C72.7435 230.256 72.7915 230.256 72.9235 230.232L73.0675 231.072C72.9115 231.12 72.7435 231.168 72.4435 231.168ZM10.6961 243V234.204H13.3001C15.0881 234.204 16.3241 234.816 16.3241 236.364C16.3241 237.228 15.8681 237.996 15.0401 238.272V238.32C16.0961 238.524 16.8281 239.232 16.8281 240.432C16.8281 242.148 15.4601 243 13.5041 243H10.6961ZM11.8121 237.948H13.1081C14.6201 237.948 15.2321 237.396 15.2321 236.496C15.2321 235.464 14.5361 235.08 13.1681 235.08H11.8121V237.948ZM11.8121 242.124H13.3481C14.8481 242.124 15.7481 241.584 15.7481 240.396C15.7481 239.304 14.8841 238.8 13.3481 238.8H11.8121V242.124ZM21.1148 243.168C19.3748 243.168 17.9948 241.896 17.9948 239.76C17.9948 237.636 19.4228 236.328 20.9228 236.328C22.5788 236.328 23.5148 237.516 23.5148 239.388C23.5148 239.616 23.5028 239.844 23.4668 240.012H19.0748C19.1588 241.392 19.9988 242.292 21.2468 242.292C21.8708 242.292 22.3868 242.088 22.8668 241.764L23.2628 242.496C22.6868 242.868 22.0028 243.168 21.1148 243.168ZM19.0628 239.22H22.5548C22.5548 237.912 21.9668 237.204 20.9348 237.204C20.0228 237.204 19.2068 237.936 19.0628 239.22ZM27.0073 243.168C25.6153 243.168 25.1593 242.292 25.1593 240.996V237.372H24.1873V236.556L25.2073 236.484L25.3273 234.648H26.2513V236.484H28.0153V237.372H26.2513V241.02C26.2513 241.812 26.5033 242.28 27.2593 242.28C27.4873 242.28 27.7873 242.184 27.9913 242.1L28.2073 242.916C27.8473 243.048 27.4153 243.168 27.0073 243.168ZM30.5227 243L28.6987 236.484H29.8147L30.7987 240.264C30.9307 240.888 31.0507 241.464 31.1707 242.076H31.2307C31.3747 241.464 31.5067 240.876 31.6747 240.264L32.6827 236.484H33.7507L34.7827 240.264C34.9387 240.888 35.0827 241.464 35.2387 242.076H35.2867C35.4187 241.464 35.5387 240.888 35.6947 240.264L36.6427 236.484H37.6867L35.9347 243H34.6027L33.6547 239.496C33.4867 238.872 33.3667 238.284 33.2107 237.612H33.1507C33.0187 238.284 32.8867 238.884 32.7067 239.508L31.7947 243H30.5227ZM41.6578 243.168C39.9178 243.168 38.5378 241.896 38.5378 239.76C38.5378 237.636 39.9658 236.328 41.4658 236.328C43.1218 236.328 44.0578 237.516 44.0578 239.388C44.0578 239.616 44.0458 239.844 44.0098 240.012H39.6178C39.7018 241.392 40.5418 242.292 41.7898 242.292C42.4138 242.292 42.9298 242.088 43.4098 241.764L43.8058 242.496C43.2298 242.868 42.5458 243.168 41.6578 243.168ZM39.6058 239.22H43.0978C43.0978 237.912 42.5098 237.204 41.4778 237.204C40.5658 237.204 39.7498 237.936 39.6058 239.22ZM48.3023 243.168C46.5623 243.168 45.1823 241.896 45.1823 239.76C45.1823 237.636 46.6103 236.328 48.1103 236.328C49.7663 236.328 50.7023 237.516 50.7023 239.388C50.7023 239.616 50.6903 239.844 50.6543 240.012H46.2623C46.3463 241.392 47.1863 242.292 48.4343 242.292C49.0583 242.292 49.5743 242.088 50.0543 241.764L50.4503 242.496C49.8743 242.868 49.1903 243.168 48.3023 243.168ZM46.2503 239.22H49.7423C49.7423 237.912 49.1543 237.204 48.1223 237.204C47.2103 237.204 46.3943 237.936 46.2503 239.22ZM52.3188 243V236.484H53.2068L53.3148 237.432H53.3508C53.9628 236.82 54.6348 236.328 55.5348 236.328C56.9028 236.328 57.5268 237.216 57.5268 238.872V243H56.4228V239.016C56.4228 237.792 56.0508 237.276 55.1868 237.276C54.5268 237.276 54.0588 237.624 53.4108 238.272V243H52.3188ZM62.4227 243V234.204H63.5387V242.064H67.3787V243H62.4227ZM70.3423 243.168C69.2503 243.168 68.4343 242.484 68.4343 241.308C68.4343 239.892 69.6583 239.184 72.4303 238.872C72.4303 238.032 72.1663 237.228 71.0983 237.228C70.3303 237.228 69.6463 237.588 69.1423 237.936L68.7103 237.168C69.3103 236.784 70.2223 236.328 71.2663 236.328C72.8623 236.328 73.5343 237.384 73.5343 239.004V243H72.6343L72.5383 242.232H72.4903C71.8783 242.748 71.1463 243.168 70.3423 243.168ZM70.6423 242.28C71.2783 242.28 71.8063 241.98 72.4303 241.416V239.604C70.2343 239.856 69.5023 240.396 69.5023 241.236C69.5023 241.98 70.0063 242.28 70.6423 242.28ZM75.7 245.82C75.4 245.82 75.148 245.772 74.944 245.688L75.16 244.812C75.28 244.86 75.472 244.908 75.652 244.908C76.384 244.908 76.852 244.308 77.128 243.504L77.272 243.012L74.656 236.484H75.784L77.116 240.108C77.32 240.684 77.536 241.344 77.752 241.944H77.812C77.992 241.344 78.184 240.696 78.352 240.108L79.528 236.484H80.596L78.136 243.552C77.68 244.836 77.008 245.82 75.7 245.82ZM84.4078 243.168C82.6678 243.168 81.2878 241.896 81.2878 239.76C81.2878 237.636 82.7158 236.328 84.2158 236.328C85.8718 236.328 86.8078 237.516 86.8078 239.388C86.8078 239.616 86.7958 239.844 86.7598 240.012H82.3678C82.4518 241.392 83.2918 242.292 84.5398 242.292C85.1638 242.292 85.6798 242.088 86.1598 241.764L86.5558 242.496C85.9798 242.868 85.2958 243.168 84.4078 243.168ZM82.3558 239.22H85.8478C85.8478 237.912 85.2598 237.204 84.2278 237.204C83.3158 237.204 82.4998 237.936 82.3558 239.22ZM88.4243 243V236.484H89.3123L89.4203 237.672H89.4563C89.9003 236.844 90.5723 236.328 91.3043 236.328C91.5923 236.328 91.7843 236.364 92.0003 236.46L91.7963 237.42C91.5683 237.348 91.4243 237.312 91.1603 237.312C90.6203 237.312 89.9483 237.708 89.5163 238.824V243H88.4243ZM94.6986 243.168C93.7746 243.168 92.8746 242.772 92.2626 242.268L92.8026 241.536C93.3666 241.992 93.9426 242.316 94.7226 242.316C95.5866 242.316 96.0186 241.86 96.0186 241.284C96.0186 240.624 95.2386 240.324 94.5186 240.06C93.6186 239.712 92.6226 239.28 92.6226 238.164C92.6226 237.132 93.4506 236.328 94.8666 236.328C95.6706 236.328 96.3906 236.652 96.8946 237.06L96.3666 237.756C95.9226 237.432 95.4546 237.18 94.8786 237.18C94.0506 237.18 93.6786 237.612 93.6786 238.116C93.6786 238.74 94.3386 238.98 95.0826 239.244C96.0306 239.604 97.0626 239.988 97.0626 241.224C97.0626 242.292 96.2346 243.168 94.6986 243.168Z" fill="#1E252C"/>
<path d="M30.4285 265V256.204H33.1765C34.9645 256.204 36.2485 256.852 36.2485 258.676C36.2485 260.44 34.9645 261.28 33.1765 261.28H31.5445V265H30.4285ZM31.5445 260.38H33.0205C34.3885 260.38 35.1445 259.816 35.1445 258.676C35.1445 257.524 34.3885 257.116 33.0205 257.116H31.5445V260.38ZM35.2645 265L32.9605 260.98L33.8245 260.404L36.5125 265H35.2645ZM40.4136 265.168C38.6736 265.168 37.2936 263.896 37.2936 261.76C37.2936 259.636 38.7216 258.328 40.2216 258.328C41.8776 258.328 42.8136 259.516 42.8136 261.388C42.8136 261.616 42.8016 261.844 42.7656 262.012H38.3736C38.4576 263.392 39.2976 264.292 40.5456 264.292C41.1696 264.292 41.6856 264.088 42.1656 263.764L42.5616 264.496C41.9856 264.868 41.3016 265.168 40.4136 265.168ZM38.3616 261.22H41.8536C41.8536 259.912 41.2656 259.204 40.2336 259.204C39.3216 259.204 38.5056 259.936 38.3616 261.22ZM47.2862 265.168C46.6862 265.168 46.0022 264.856 45.4382 264.328H45.4022L45.2942 265H44.4302V255.46H45.5222V258.064L45.4742 259.24C46.0742 258.724 46.7942 258.328 47.5262 258.328C49.2062 258.328 50.1182 259.636 50.1182 261.64C50.1182 263.872 48.7862 265.168 47.2862 265.168ZM47.1182 264.244C48.1862 264.244 48.9902 263.272 48.9902 261.664C48.9902 260.212 48.4982 259.24 47.2622 259.24C46.7102 259.24 46.1342 259.552 45.5222 260.14V263.572C46.0862 264.064 46.6862 264.244 47.1182 264.244ZM53.1255 265.168C52.0335 265.168 51.2175 264.484 51.2175 263.308C51.2175 261.892 52.4415 261.184 55.2135 260.872C55.2135 260.032 54.9495 259.228 53.8815 259.228C53.1135 259.228 52.4295 259.588 51.9255 259.936L51.4935 259.168C52.0935 258.784 53.0055 258.328 54.0495 258.328C55.6455 258.328 56.3175 259.384 56.3175 261.004V265H55.4175L55.3215 264.232H55.2735C54.6615 264.748 53.9295 265.168 53.1255 265.168ZM53.4255 264.28C54.0615 264.28 54.5895 263.98 55.2135 263.416V261.604C53.0175 261.856 52.2855 262.396 52.2855 263.236C52.2855 263.98 52.7895 264.28 53.4255 264.28ZM58.3872 265V258.484H59.2752L59.3832 259.672H59.4192C59.8632 258.844 60.5352 258.328 61.2672 258.328C61.5552 258.328 61.7472 258.364 61.9632 258.46L61.7592 259.42C61.5312 259.348 61.3872 259.312 61.1232 259.312C60.5832 259.312 59.9112 259.708 59.4792 260.824V265H58.3872ZM68.2791 265.168C66.5511 265.168 65.2311 263.908 65.2311 261.76C65.2311 259.576 66.6951 258.328 68.3631 258.328C69.2151 258.328 69.8151 258.676 70.2711 259.096L69.7191 259.816C69.3351 259.468 68.9271 259.24 68.4231 259.24C67.2231 259.24 66.3591 260.248 66.3591 261.76C66.3591 263.248 67.1871 264.256 68.3871 264.256C68.9751 264.256 69.5151 263.968 69.9231 263.608L70.3911 264.34C69.8151 264.856 69.0591 265.168 68.2791 265.168ZM74.0559 265.168C72.4479 265.168 71.0319 263.908 71.0319 261.76C71.0319 259.576 72.4479 258.328 74.0559 258.328C75.6519 258.328 77.0679 259.576 77.0679 261.76C77.0679 263.908 75.6519 265.168 74.0559 265.168ZM74.0559 264.256C75.1839 264.256 75.9399 263.248 75.9399 261.76C75.9399 260.248 75.1839 259.24 74.0559 259.24C72.9159 259.24 72.1599 260.248 72.1599 261.76C72.1599 263.248 72.9159 264.256 74.0559 264.256ZM80.1232 265L77.7712 258.484H78.8992L80.1352 262.204C80.3272 262.84 80.5312 263.5 80.7352 264.112H80.7832C80.9872 263.5 81.1912 262.84 81.3832 262.204L82.6312 258.484H83.6992L81.3952 265H80.1232ZM87.523 265.168C85.783 265.168 84.403 263.896 84.403 261.76C84.403 259.636 85.831 258.328 87.331 258.328C88.987 258.328 89.923 259.516 89.923 261.388C89.923 261.616 89.911 261.844 89.875 262.012H85.483C85.567 263.392 86.407 264.292 87.655 264.292C88.279 264.292 88.795 264.088 89.275 263.764L89.671 264.496C89.095 264.868 88.411 265.168 87.523 265.168ZM85.471 261.22H88.963C88.963 259.912 88.375 259.204 87.343 259.204C86.431 259.204 85.615 259.936 85.471 261.22ZM91.5395 265V258.484H92.4275L92.5355 259.672H92.5715C93.0155 258.844 93.6875 258.328 94.4195 258.328C94.7075 258.328 94.8995 258.364 95.1155 258.46L94.9115 259.42C94.6835 259.348 94.5395 259.312 94.2755 259.312C93.7355 259.312 93.0635 259.708 92.6315 260.824V265H91.5395ZM47.1196 277.168C46.0276 277.168 45.2116 276.484 45.2116 275.308C45.2116 273.892 46.4356 273.184 49.2076 272.872C49.2076 272.032 48.9436 271.228 47.8756 271.228C47.1076 271.228 46.4236 271.588 45.9196 271.936L45.4876 271.168C46.0876 270.784 46.9996 270.328 48.0436 270.328C49.6396 270.328 50.3116 271.384 50.3116 273.004V277H49.4116L49.3156 276.232H49.2676C48.6556 276.748 47.9236 277.168 47.1196 277.168ZM47.4196 276.28C48.0556 276.28 48.5836 275.98 49.2076 275.416V273.604C47.0116 273.856 46.2796 274.396 46.2796 275.236C46.2796 275.98 46.7836 276.28 47.4196 276.28ZM54.2104 277.168C52.8184 277.168 52.3624 276.292 52.3624 274.996V271.372H51.3904V270.556L52.4104 270.484L52.5304 268.648H53.4544V270.484H55.2184V271.372H53.4544V275.02C53.4544 275.812 53.7064 276.28 54.4624 276.28C54.6904 276.28 54.9904 276.184 55.1944 276.1L55.4104 276.916C55.0504 277.048 54.6184 277.168 54.2104 277.168ZM61.9334 277.168C60.2054 277.168 58.8854 275.908 58.8854 273.76C58.8854 271.576 60.3494 270.328 62.0174 270.328C62.8694 270.328 63.4694 270.676 63.9254 271.096L63.3734 271.816C62.9894 271.468 62.5814 271.24 62.0774 271.24C60.8774 271.24 60.0134 272.248 60.0134 273.76C60.0134 275.248 60.8414 276.256 62.0414 276.256C62.6294 276.256 63.1694 275.968 63.5774 275.608L64.0454 276.34C63.4694 276.856 62.7134 277.168 61.9334 277.168ZM67.7102 277.168C66.1022 277.168 64.6862 275.908 64.6862 273.76C64.6862 271.576 66.1022 270.328 67.7102 270.328C69.3062 270.328 70.7222 271.576 70.7222 273.76C70.7222 275.908 69.3062 277.168 67.7102 277.168ZM67.7102 276.256C68.8382 276.256 69.5942 275.248 69.5942 273.76C69.5942 272.248 68.8382 271.24 67.7102 271.24C66.5702 271.24 65.8142 272.248 65.8142 273.76C65.8142 275.248 66.5702 276.256 67.7102 276.256ZM72.4556 277V270.484H73.3436L73.4516 271.672H73.4876C73.9316 270.844 74.6036 270.328 75.3356 270.328C75.6236 270.328 75.8156 270.364 76.0316 270.46L75.8276 271.42C75.5996 271.348 75.4556 271.312 75.1916 271.312C74.6516 271.312 73.9796 271.708 73.5476 272.824V277H72.4556ZM79.5718 277.168C77.8318 277.168 76.4518 275.896 76.4518 273.76C76.4518 271.636 77.8798 270.328 79.3798 270.328C81.0358 270.328 81.9718 271.516 81.9718 273.388C81.9718 273.616 81.9598 273.844 81.9238 274.012H77.5318C77.6158 275.392 78.4558 276.292 79.7038 276.292C80.3278 276.292 80.8438 276.088 81.3238 275.764L81.7198 276.496C81.1438 276.868 80.4598 277.168 79.5718 277.168ZM77.5198 273.22H81.0118C81.0118 271.912 80.4238 271.204 79.3918 271.204C78.4798 271.204 77.6638 271.936 77.5198 273.22Z" fill="#1E252C"/>
<path d="M267.452 226.168C265.232 226.168 263.696 224.392 263.696 221.572C263.696 218.752 265.232 217.048 267.452 217.048C269.66 217.048 271.196 218.764 271.196 221.572C271.196 224.392 269.66 226.168 267.452 226.168ZM267.452 225.244C269.024 225.244 270.068 223.828 270.068 221.572C270.068 219.376 269.024 218.02 267.452 218.02C265.868 218.02 264.836 219.376 264.836 221.572C264.836 223.828 265.868 225.244 267.452 225.244ZM270.14 228.22C268.46 228.22 267.32 227.26 266.852 225.976L268.004 225.892C268.352 226.816 269.216 227.284 270.26 227.284C270.656 227.284 270.944 227.236 271.184 227.152L271.4 228.016C271.124 228.124 270.668 228.22 270.14 228.22ZM274.906 226.168C273.538 226.168 272.914 225.28 272.914 223.612V219.484H274.006V223.48C274.006 224.692 274.378 225.208 275.242 225.208C275.902 225.208 276.382 224.884 276.994 224.116V219.484H278.086V226H277.186L277.09 224.98H277.066C276.454 225.688 275.806 226.168 274.906 226.168ZM281.799 226.168C280.707 226.168 279.891 225.484 279.891 224.308C279.891 222.892 281.115 222.184 283.887 221.872C283.887 221.032 283.623 220.228 282.555 220.228C281.787 220.228 281.103 220.588 280.599 220.936L280.167 220.168C280.767 219.784 281.679 219.328 282.723 219.328C284.319 219.328 284.991 220.384 284.991 222.004V226H284.091L283.995 225.232H283.947C283.335 225.748 282.603 226.168 281.799 226.168ZM282.099 225.28C282.735 225.28 283.263 224.98 283.887 224.416V222.604C281.691 222.856 280.959 223.396 280.959 224.236C280.959 224.98 281.463 225.28 282.099 225.28ZM287.061 226V219.484H287.949L288.057 220.432H288.093C288.705 219.82 289.377 219.328 290.277 219.328C291.645 219.328 292.269 220.216 292.269 221.872V226H291.165V222.016C291.165 220.792 290.793 220.276 289.929 220.276C289.269 220.276 288.801 220.624 288.153 221.272V226H287.061ZM296.425 226.168C295.033 226.168 294.577 225.292 294.577 223.996V220.372H293.605V219.556L294.625 219.484L294.745 217.648H295.669V219.484H297.433V220.372H295.669V224.02C295.669 224.812 295.921 225.28 296.677 225.28C296.905 225.28 297.205 225.184 297.409 225.1L297.625 225.916C297.265 226.048 296.833 226.168 296.425 226.168ZM298.909 226V219.484H300.001V226H298.909ZM299.461 218.14C299.029 218.14 298.729 217.864 298.729 217.408C298.729 216.988 299.029 216.712 299.461 216.712C299.881 216.712 300.193 216.988 300.193 217.408C300.193 217.864 299.881 218.14 299.461 218.14ZM304.253 226.168C302.861 226.168 302.405 225.292 302.405 223.996V220.372H301.433V219.556L302.453 219.484L302.573 217.648H303.497V219.484H305.261V220.372H303.497V224.02C303.497 224.812 303.749 225.28 304.505 225.28C304.733 225.28 305.033 225.184 305.237 225.1L305.453 225.916C305.093 226.048 304.661 226.168 304.253 226.168ZM306.833 228.82C306.533 228.82 306.281 228.772 306.077 228.688L306.293 227.812C306.413 227.86 306.605 227.908 306.785 227.908C307.517 227.908 307.985 227.308 308.261 226.504L308.405 226.012L305.789 219.484H306.917L308.249 223.108C308.453 223.684 308.669 224.344 308.885 224.944H308.945C309.125 224.344 309.317 223.696 309.485 223.108L310.661 219.484H311.729L309.269 226.552C308.813 227.836 308.141 228.82 306.833 228.82Z" fill="#CE2C3F"/>
<path d="M264.2 254V245.204H269.264V246.14H265.316V249.128H268.664V250.052H265.316V254H264.2ZM270.725 254V247.484H271.817V254H270.725ZM271.277 246.14C270.845 246.14 270.545 245.864 270.545 245.408C270.545 244.988 270.845 244.712 271.277 244.712C271.697 244.712 272.009 244.988 272.009 245.408C272.009 245.864 271.697 246.14 271.277 246.14ZM274.03 254V247.484H274.918L275.026 248.672H275.062C275.506 247.844 276.178 247.328 276.91 247.328C277.198 247.328 277.39 247.364 277.606 247.46L277.402 248.42C277.174 248.348 277.03 248.312 276.766 248.312C276.226 248.312 275.554 248.708 275.122 249.824V254H274.03ZM280.304 254.168C279.38 254.168 278.48 253.772 277.868 253.268L278.408 252.536C278.972 252.992 279.548 253.316 280.328 253.316C281.192 253.316 281.624 252.86 281.624 252.284C281.624 251.624 280.844 251.324 280.124 251.06C279.224 250.712 278.228 250.28 278.228 249.164C278.228 248.132 279.056 247.328 280.472 247.328C281.276 247.328 281.996 247.652 282.5 248.06L281.972 248.756C281.528 248.432 281.06 248.18 280.484 248.18C279.656 248.18 279.284 248.612 279.284 249.116C279.284 249.74 279.944 249.98 280.688 250.244C281.636 250.604 282.668 250.988 282.668 252.224C282.668 253.292 281.84 254.168 280.304 254.168ZM285.949 254.168C284.557 254.168 284.101 253.292 284.101 251.996V248.372H283.129V247.556L284.149 247.484L284.269 245.648H285.193V247.484H286.957V248.372H285.193V252.02C285.193 252.812 285.445 253.28 286.201 253.28C286.429 253.28 286.729 253.184 286.933 253.1L287.149 253.916C286.789 254.048 286.357 254.168 285.949 254.168ZM291.212 254V245.204H292.328V253.064H296.168V254H291.212ZM299.131 254.168C298.039 254.168 297.223 253.484 297.223 252.308C297.223 250.892 298.447 250.184 301.219 249.872C301.219 249.032 300.955 248.228 299.887 248.228C299.119 248.228 298.435 248.588 297.931 248.936L297.499 248.168C298.099 247.784 299.011 247.328 300.055 247.328C301.651 247.328 302.323 248.384 302.323 250.004V254H301.423L301.327 253.232H301.279C300.667 253.748 299.935 254.168 299.131 254.168ZM299.431 253.28C300.067 253.28 300.595 252.98 301.219 252.416V250.604C299.023 250.856 298.291 251.396 298.291 252.236C298.291 252.98 298.795 253.28 299.431 253.28ZM304.489 256.82C304.189 256.82 303.937 256.772 303.733 256.688L303.949 255.812C304.069 255.86 304.261 255.908 304.441 255.908C305.173 255.908 305.641 255.308 305.917 254.504L306.061 254.012L303.445 247.484H304.573L305.905 251.108C306.109 251.684 306.325 252.344 306.541 252.944H306.601C306.781 252.344 306.973 251.696 307.141 251.108L308.317 247.484H309.385L306.925 254.552C306.469 255.836 305.797 256.82 304.489 256.82ZM313.197 254.168C311.457 254.168 310.077 252.896 310.077 250.76C310.077 248.636 311.505 247.328 313.005 247.328C314.661 247.328 315.597 248.516 315.597 250.388C315.597 250.616 315.585 250.844 315.549 251.012H311.157C311.241 252.392 312.081 253.292 313.329 253.292C313.953 253.292 314.469 253.088 314.949 252.764L315.345 253.496C314.769 253.868 314.085 254.168 313.197 254.168ZM311.145 250.22H314.637C314.637 248.912 314.049 248.204 313.017 248.204C312.105 248.204 311.289 248.936 311.145 250.22ZM317.213 254V247.484H318.101L318.209 248.672H318.245C318.689 247.844 319.361 247.328 320.093 247.328C320.381 247.328 320.573 247.364 320.789 247.46L320.585 248.42C320.357 248.348 320.213 248.312 319.949 248.312C319.409 248.312 318.737 248.708 318.305 249.824V254H317.213ZM267.452 271.168C265.232 271.168 263.696 269.392 263.696 266.572C263.696 263.752 265.232 262.048 267.452 262.048C269.66 262.048 271.196 263.764 271.196 266.572C271.196 269.392 269.66 271.168 267.452 271.168ZM267.452 270.244C269.024 270.244 270.068 268.828 270.068 266.572C270.068 264.376 269.024 263.02 267.452 263.02C265.868 263.02 264.836 264.376 264.836 266.572C264.836 268.828 265.868 270.244 267.452 270.244ZM270.14 273.22C268.46 273.22 267.32 272.26 266.852 270.976L268.004 270.892C268.352 271.816 269.216 272.284 270.26 272.284C270.656 272.284 270.944 272.236 271.184 272.152L271.4 273.016C271.124 273.124 270.668 273.22 270.14 273.22ZM274.906 271.168C273.538 271.168 272.914 270.28 272.914 268.612V264.484H274.006V268.48C274.006 269.692 274.378 270.208 275.242 270.208C275.902 270.208 276.382 269.884 276.994 269.116V264.484H278.086V271H277.186L277.09 269.98H277.066C276.454 270.688 275.806 271.168 274.906 271.168ZM281.799 271.168C280.707 271.168 279.891 270.484 279.891 269.308C279.891 267.892 281.115 267.184 283.887 266.872C283.887 266.032 283.623 265.228 282.555 265.228C281.787 265.228 281.103 265.588 280.599 265.936L280.167 265.168C280.767 264.784 281.679 264.328 282.723 264.328C284.319 264.328 284.991 265.384 284.991 267.004V271H284.091L283.995 270.232H283.947C283.335 270.748 282.603 271.168 281.799 271.168ZM282.099 270.28C282.735 270.28 283.263 269.98 283.887 269.416V267.604C281.691 267.856 280.959 268.396 280.959 269.236C280.959 269.98 281.463 270.28 282.099 270.28ZM287.061 271V264.484H287.949L288.057 265.432H288.093C288.705 264.82 289.377 264.328 290.277 264.328C291.645 264.328 292.269 265.216 292.269 266.872V271H291.165V267.016C291.165 265.792 290.793 265.276 289.929 265.276C289.269 265.276 288.801 265.624 288.153 266.272V271H287.061ZM296.425 271.168C295.033 271.168 294.577 270.292 294.577 268.996V265.372H293.605V264.556L294.625 264.484L294.745 262.648H295.669V264.484H297.433V265.372H295.669V269.02C295.669 269.812 295.921 270.28 296.677 270.28C296.905 270.28 297.205 270.184 297.409 270.1L297.625 270.916C297.265 271.048 296.833 271.168 296.425 271.168ZM298.909 271V264.484H300.001V271H298.909ZM299.461 263.14C299.029 263.14 298.729 262.864 298.729 262.408C298.729 261.988 299.029 261.712 299.461 261.712C299.881 261.712 300.193 261.988 300.193 262.408C300.193 262.864 299.881 263.14 299.461 263.14ZM304.253 271.168C302.861 271.168 302.405 270.292 302.405 268.996V265.372H301.433V264.556L302.453 264.484L302.573 262.648H303.497V264.484H305.261V265.372H303.497V269.02C303.497 269.812 303.749 270.28 304.505 270.28C304.733 270.28 305.033 270.184 305.237 270.1L305.453 270.916C305.093 271.048 304.661 271.168 304.253 271.168ZM306.833 273.82C306.533 273.82 306.281 273.772 306.077 273.688L306.293 272.812C306.413 272.86 306.605 272.908 306.785 272.908C307.517 272.908 307.985 272.308 308.261 271.504L308.405 271.012L305.789 264.484H306.917L308.249 268.108C308.453 268.684 308.669 269.344 308.885 269.944H308.945C309.125 269.344 309.317 268.696 309.485 268.108L310.661 264.484H311.729L309.269 271.552C308.813 272.836 308.141 273.82 306.833 273.82Z" fill="#2C59CE"/>
<line y1="-0.229586" x2="16.071" y2="-0.229586" transform="matrix(1 0 0 -1 101.204 266.857)" stroke="#1E252C" stroke-width="0.459172"/>
<line x1="103.77" y1="267" x2="103.77" y2="229" stroke="#1E252C" stroke-width="0.459172"/>
<line y1="-0.229586" x2="39.948" y2="-0.229586" transform="matrix(1 0 0 -1 101 249)" stroke="#1E252C" stroke-width="0.459172"/>
<line x1="101" y1="228.77" x2="162" y2="228.77" stroke="#1E252C" stroke-width="0.459172"/>
<line y1="-0.229586" x2="16" y2="-0.229586" transform="matrix(6.84436e-08 1 1 -2.79162e-08 152 263)" stroke="#1E252C" stroke-width="0.459172"/>
<line y1="-0.229586" x2="16" y2="-0.229586" transform="matrix(6.84436e-08 1 1 -2.79162e-08 181 263)" stroke="#1E252C" stroke-width="0.459172"/>
<line y1="-0.229586" x2="28.9279" y2="-0.229586" transform="matrix(1 -8.74228e-08 -8.74228e-08 -1 152 274)" stroke="#1E252C" stroke-width="0.459172"/>
<path d="M147.812 293.168C146.576 293.168 145.508 292.664 144.74 291.86L145.4 291.092C146.036 291.764 146.924 292.184 147.836 292.184C148.988 292.184 149.672 291.608 149.672 290.756C149.672 289.844 149.036 289.556 148.208 289.196L146.948 288.644C146.12 288.296 145.16 287.672 145.16 286.388C145.16 285.032 146.324 284.048 147.932 284.048C148.976 284.048 149.9 284.492 150.512 285.14L149.924 285.848C149.384 285.344 148.736 285.02 147.932 285.02C146.936 285.02 146.288 285.524 146.288 286.304C146.288 287.168 147.056 287.48 147.74 287.768L148.988 288.308C150.02 288.752 150.8 289.364 150.8 290.672C150.8 292.064 149.66 293.168 147.812 293.168ZM152.428 295.748V286.484H153.316L153.424 287.24H153.46C154.048 286.748 154.768 286.328 155.524 286.328C157.216 286.328 158.116 287.636 158.116 289.652C158.116 291.872 156.784 293.168 155.284 293.168C154.696 293.168 154.084 292.892 153.496 292.412L153.52 293.552V295.748H152.428ZM155.116 292.244C156.184 292.244 156.988 291.272 156.988 289.664C156.988 288.212 156.496 287.24 155.26 287.24C154.708 287.24 154.156 287.552 153.52 288.14V291.572C154.108 292.064 154.684 292.244 155.116 292.244ZM161.147 293.168C160.055 293.168 159.239 292.484 159.239 291.308C159.239 289.892 160.463 289.184 163.235 288.872C163.235 288.032 162.971 287.228 161.903 287.228C161.135 287.228 160.451 287.588 159.947 287.936L159.515 287.168C160.115 286.784 161.027 286.328 162.071 286.328C163.667 286.328 164.339 287.384 164.339 289.004V293H163.439L163.343 292.232H163.295C162.683 292.748 161.951 293.168 161.147 293.168ZM161.447 292.28C162.083 292.28 162.611 291.98 163.235 291.416V289.604C161.039 289.856 160.307 290.396 160.307 291.236C160.307 291.98 160.811 292.28 161.447 292.28ZM168.965 293.168C167.237 293.168 165.917 291.908 165.917 289.76C165.917 287.576 167.381 286.328 169.049 286.328C169.901 286.328 170.501 286.676 170.957 287.096L170.405 287.816C170.021 287.468 169.613 287.24 169.109 287.24C167.909 287.24 167.045 288.248 167.045 289.76C167.045 291.248 167.873 292.256 169.073 292.256C169.661 292.256 170.201 291.968 170.609 291.608L171.077 292.34C170.501 292.856 169.745 293.168 168.965 293.168ZM172.526 293V286.484H173.618V293H172.526ZM173.078 285.14C172.646 285.14 172.346 284.864 172.346 284.408C172.346 283.988 172.646 283.712 173.078 283.712C173.498 283.712 173.81 283.988 173.81 284.408C173.81 284.864 173.498 285.14 173.078 285.14ZM175.831 293V286.484H176.719L176.827 287.432H176.863C177.475 286.82 178.147 286.328 179.047 286.328C180.415 286.328 181.039 287.216 181.039 288.872V293H179.935V289.016C179.935 287.792 179.563 287.276 178.699 287.276C178.039 287.276 177.571 287.624 176.923 288.272V293H175.831ZM185.351 296C183.755 296 182.651 295.376 182.651 294.26C182.651 293.708 183.011 293.168 183.611 292.784V292.736C183.275 292.52 183.023 292.172 183.023 291.656C183.023 291.116 183.407 290.696 183.755 290.456V290.408C183.323 290.06 182.891 289.436 182.891 288.656C182.891 287.216 184.019 286.328 185.339 286.328C185.711 286.328 186.035 286.4 186.263 286.484H188.531V287.336H187.199C187.511 287.636 187.727 288.116 187.727 288.68C187.727 290.072 186.671 290.936 185.339 290.936C185.027 290.936 184.667 290.864 184.367 290.72C184.139 290.912 183.947 291.14 183.947 291.488C183.947 291.908 184.223 292.208 185.099 292.208H186.371C187.883 292.208 188.639 292.676 188.639 293.756C188.639 294.968 187.355 296 185.351 296ZM185.339 290.204C186.095 290.204 186.731 289.592 186.731 288.656C186.731 287.696 186.107 287.12 185.339 287.12C184.571 287.12 183.947 287.684 183.947 288.656C183.947 289.592 184.583 290.204 185.339 290.204ZM185.495 295.256C186.755 295.256 187.571 294.596 187.571 293.924C187.571 293.312 187.103 293.108 186.251 293.108H185.123C184.871 293.108 184.571 293.084 184.271 293C183.803 293.336 183.611 293.732 183.611 294.104C183.611 294.812 184.319 295.256 185.495 295.256Z" fill="#1E252C"/>
<rect x="137.5" y="218.5" width="117" height="43" stroke="#CE2C3F" stroke-dasharray="0.92 0.92"/>
<rect x="141.5" y="239.5" width="107" height="18" stroke="#2C59CE" stroke-dasharray="0.92 0.92"/>
<rect x="162" y="8" width="71" height="19" fill="#496071"/>
<path d="M171.404 22.168C169.436 22.168 168.116 21.088 168.116 18.22V13.168H169.508V18.304C169.508 20.296 170.3 20.944 171.404 20.944C172.508 20.944 173.336 20.296 173.336 18.304V13.168H174.68V18.22C174.68 21.088 173.36 22.168 171.404 22.168ZM176.833 24.676V15.4H177.961L178.081 16.132H178.117C178.693 15.64 179.401 15.232 180.145 15.232C181.813 15.232 182.761 16.564 182.761 18.604C182.761 20.86 181.405 22.168 179.917 22.168C179.329 22.168 178.729 21.904 178.177 21.424L178.225 22.54V24.676H176.833ZM179.653 21.016C180.601 21.016 181.333 20.164 181.333 18.616C181.333 17.236 180.877 16.384 179.773 16.384C179.269 16.384 178.777 16.66 178.225 17.188V20.416C178.741 20.86 179.245 21.016 179.653 21.016ZM184.391 24.676V15.4H185.519L185.639 16.132H185.675C186.251 15.64 186.959 15.232 187.703 15.232C189.371 15.232 190.319 16.564 190.319 18.604C190.319 20.86 188.963 22.168 187.475 22.168C186.887 22.168 186.287 21.904 185.735 21.424L185.783 22.54V24.676H184.391ZM187.211 21.016C188.159 21.016 188.891 20.164 188.891 18.616C188.891 17.236 188.435 16.384 187.331 16.384C186.827 16.384 186.335 16.66 185.783 17.188V20.416C186.299 20.86 186.803 21.016 187.211 21.016ZM194.71 22.168C192.91 22.168 191.494 20.884 191.494 18.712C191.494 16.564 192.97 15.232 194.506 15.232C196.246 15.232 197.194 16.492 197.194 18.364C197.194 18.64 197.17 18.904 197.134 19.072H192.85C192.958 20.332 193.75 21.076 194.89 21.076C195.478 21.076 195.97 20.896 196.462 20.584L196.942 21.472C196.33 21.88 195.574 22.168 194.71 22.168ZM192.826 18.112H195.994C195.994 16.972 195.49 16.324 194.53 16.324C193.702 16.324 192.97 16.96 192.826 18.112ZM198.747 22V15.4H199.875L199.995 16.588H200.031C200.499 15.736 201.195 15.232 201.903 15.232C202.227 15.232 202.431 15.28 202.635 15.376L202.395 16.576C202.167 16.504 201.999 16.468 201.723 16.468C201.195 16.468 200.547 16.852 200.139 17.896V22H198.747ZM208.152 22.168C207.24 22.168 206.304 21.784 205.668 21.256L206.316 20.356C206.904 20.812 207.468 21.112 208.188 21.112C208.968 21.112 209.34 20.728 209.34 20.224C209.34 19.636 208.596 19.36 207.888 19.096C207 18.76 206.028 18.292 206.028 17.164C206.028 16.06 206.916 15.232 208.392 15.232C209.268 15.232 210 15.592 210.528 16.012L209.88 16.864C209.424 16.54 208.956 16.288 208.416 16.288C207.684 16.288 207.348 16.648 207.348 17.104C207.348 17.668 207.984 17.884 208.716 18.148C209.64 18.496 210.648 18.916 210.648 20.152C210.648 21.268 209.772 22.168 208.152 22.168ZM212.118 22V15.4H213.51V22H212.118ZM212.814 14.164C212.298 14.164 211.962 13.84 211.962 13.336C211.962 12.844 212.298 12.52 212.814 12.52C213.318 12.52 213.678 12.844 213.678 13.336C213.678 13.84 213.318 14.164 212.814 14.164ZM217.855 22.168C216.199 22.168 215.143 20.896 215.143 18.712C215.143 16.564 216.499 15.232 217.963 15.232C218.719 15.232 219.211 15.52 219.739 15.976L219.679 14.884V12.448H221.071V22H219.931L219.823 21.268H219.787C219.283 21.772 218.599 22.168 217.855 22.168ZM218.191 21.016C218.731 21.016 219.211 20.764 219.679 20.212V16.996C219.199 16.552 218.731 16.384 218.239 16.384C217.315 16.384 216.571 17.272 216.571 18.688C216.571 20.188 217.159 21.016 218.191 21.016ZM225.894 22.168C224.094 22.168 222.678 20.884 222.678 18.712C222.678 16.564 224.154 15.232 225.69 15.232C227.43 15.232 228.378 16.492 228.378 18.364C228.378 18.64 228.354 18.904 228.318 19.072H224.034C224.142 20.332 224.934 21.076 226.074 21.076C226.662 21.076 227.154 20.896 227.646 20.584L228.126 21.472C227.514 21.88 226.758 22.168 225.894 22.168ZM224.01 18.112H227.178C227.178 16.972 226.674 16.324 225.714 16.324C224.886 16.324 224.154 16.96 224.01 18.112Z" fill="white"/>
<rect x="157" y="299" width="75" height="19" fill="#496071"/>
<path d="M167.404 313.168C165.436 313.168 164.116 312.088 164.116 309.22V304.168H165.508V309.304C165.508 311.296 166.3 311.944 167.404 311.944C168.508 311.944 169.336 311.296 169.336 309.304V304.168H170.68V309.22C170.68 312.088 169.36 313.168 167.404 313.168ZM172.833 313V306.4H173.961L174.081 307.324H174.117C174.717 306.724 175.401 306.232 176.301 306.232C177.705 306.232 178.329 307.18 178.329 308.848V313H176.937V309.028C176.937 307.876 176.601 307.432 175.833 307.432C175.221 307.432 174.801 307.744 174.225 308.32V313H172.833ZM182.601 313.168C180.945 313.168 179.889 311.896 179.889 309.712C179.889 307.564 181.245 306.232 182.709 306.232C183.465 306.232 183.957 306.52 184.485 306.976L184.425 305.884V303.448H185.817V313H184.677L184.569 312.268H184.533C184.029 312.772 183.345 313.168 182.601 313.168ZM182.937 312.016C183.477 312.016 183.957 311.764 184.425 311.212V307.996C183.945 307.552 183.477 307.384 182.985 307.384C182.061 307.384 181.317 308.272 181.317 309.688C181.317 311.188 181.905 312.016 182.937 312.016ZM190.64 313.168C188.84 313.168 187.424 311.884 187.424 309.712C187.424 307.564 188.9 306.232 190.436 306.232C192.176 306.232 193.124 307.492 193.124 309.364C193.124 309.64 193.1 309.904 193.064 310.072H188.78C188.888 311.332 189.68 312.076 190.82 312.076C191.408 312.076 191.9 311.896 192.392 311.584L192.872 312.472C192.26 312.88 191.504 313.168 190.64 313.168ZM188.756 309.112H191.924C191.924 307.972 191.42 307.324 190.46 307.324C189.632 307.324 188.9 307.96 188.756 309.112ZM194.677 313V306.4H195.805L195.925 307.588H195.961C196.429 306.736 197.125 306.232 197.833 306.232C198.157 306.232 198.361 306.28 198.565 306.376L198.325 307.576C198.097 307.504 197.929 307.468 197.653 307.468C197.125 307.468 196.477 307.852 196.069 308.896V313H194.677ZM204.082 313.168C203.17 313.168 202.234 312.784 201.598 312.256L202.246 311.356C202.834 311.812 203.398 312.112 204.118 312.112C204.898 312.112 205.27 311.728 205.27 311.224C205.27 310.636 204.526 310.36 203.818 310.096C202.93 309.76 201.958 309.292 201.958 308.164C201.958 307.06 202.846 306.232 204.322 306.232C205.198 306.232 205.93 306.592 206.458 307.012L205.81 307.864C205.354 307.54 204.886 307.288 204.346 307.288C203.614 307.288 203.278 307.648 203.278 308.104C203.278 308.668 203.914 308.884 204.646 309.148C205.57 309.496 206.578 309.916 206.578 311.152C206.578 312.268 205.702 313.168 204.082 313.168ZM208.048 313V306.4H209.44V313H208.048ZM208.744 305.164C208.228 305.164 207.892 304.84 207.892 304.336C207.892 303.844 208.228 303.52 208.744 303.52C209.248 303.52 209.608 303.844 209.608 304.336C209.608 304.84 209.248 305.164 208.744 305.164ZM213.785 313.168C212.129 313.168 211.073 311.896 211.073 309.712C211.073 307.564 212.429 306.232 213.893 306.232C214.649 306.232 215.141 306.52 215.669 306.976L215.609 305.884V303.448H217.001V313H215.861L215.753 312.268H215.717C215.213 312.772 214.529 313.168 213.785 313.168ZM214.121 312.016C214.661 312.016 215.141 311.764 215.609 311.212V307.996C215.129 307.552 214.661 307.384 214.169 307.384C213.245 307.384 212.501 308.272 212.501 309.688C212.501 311.188 213.089 312.016 214.121 312.016ZM221.823 313.168C220.023 313.168 218.607 311.884 218.607 309.712C218.607 307.564 220.083 306.232 221.619 306.232C223.359 306.232 224.307 307.492 224.307 309.364C224.307 309.64 224.283 309.904 224.247 310.072H219.963C220.071 311.332 220.863 312.076 222.003 312.076C222.591 312.076 223.083 311.896 223.575 311.584L224.055 312.472C223.443 312.88 222.687 313.168 221.823 313.168ZM219.939 309.112H223.107C223.107 307.972 222.603 307.324 221.643 307.324C220.815 307.324 220.083 307.96 219.939 309.112Z" fill="white"/>
</svg>
