<svg width="360" height="331" viewBox="0 0 360 331" fill="none" xmlns="http://www.w3.org/2000/svg">
<rect width="360" height="328" transform="translate(0 3)" fill="white"/>
<rect x="255.626" y="105.549" width="119.018" height="141.058" transform="rotate(90 255.626 105.549)" fill="#D9D9D9"/>
<path d="M114.669 105.701C114.669 86.9532 122.116 68.9737 135.372 55.7174C148.629 42.461 166.608 35.0137 185.356 35.0137C204.103 35.0137 222.082 42.461 235.339 55.7174C248.595 68.9737 256.042 86.9532 256.042 105.701L185.356 105.701L114.669 105.701Z" fill="#D9D9D9"/>
<path d="M131.805 106.129C131.805 92.4949 137.221 79.4189 146.862 69.7779C156.503 60.137 169.579 54.7207 183.214 54.7207C196.848 54.7207 209.924 60.137 219.565 69.7779C229.206 79.4189 235.051 92.4949 235.051 106.129" stroke="black" stroke-width="0.428405" stroke-dasharray="1.71 1.71"/>
<path d="M148.941 106.13C148.941 97.2681 152.537 88.7687 158.938 82.5021C165.338 76.2354 174.02 72.7148 183.071 72.7148C192.123 72.7148 200.804 76.2354 207.205 82.5021C213.606 88.7687 217.486 97.2681 217.486 106.13" stroke="black" stroke-width="0.428405" stroke-dasharray="1.71 1.71"/>
<line x1="234.901" y1="105.549" x2="234.901" y2="224.567" stroke="black" stroke-width="0.428405" stroke-dasharray="1.71 1.71"/>
<line x1="132.414" y1="105.549" x2="132.414" y2="224.567" stroke="black" stroke-width="0.428405" stroke-dasharray="1.71 1.71"/>
<circle cx="154.939" cy="63.2886" r="3.42724" transform="rotate(90 154.939 63.2886)" fill="#1E252C"/>
<circle cx="212.345" cy="63.2886" r="3.42724" transform="rotate(90 212.345 63.2886)" fill="#1E252C"/>
<circle cx="136.946" cy="84.7104" r="3.42724" transform="rotate(90 136.946 84.7104)" fill="#1E252C"/>
<circle cx="230.339" cy="84.7104" r="3.42724" transform="rotate(90 230.339 84.7104)" fill="#1E252C"/>
<circle cx="183.214" cy="54.7202" r="3.42724" transform="rotate(90 183.214 54.7202)" fill="#1E252C"/>
<circle cx="183.214" cy="72.7144" r="3.42724" transform="rotate(90 183.214 72.7144)" fill="#1E252C"/>
<circle cx="155.796" cy="86.4233" r="3.42724" transform="rotate(90 155.796 86.4233)" fill="#1E252C"/>
<circle cx="210.632" cy="86.4233" r="3.42724" transform="rotate(90 210.632 86.4233)" fill="#1E252C"/>
<circle cx="131.805" cy="114.699" r="3.42724" transform="rotate(90 131.805 114.699)" fill="white"/>
<circle cx="131.805" cy="212.646" r="3.42724" transform="rotate(90 131.805 212.646)" fill="white"/>
<circle cx="131.805" cy="163.671" r="3.42724" transform="rotate(90 131.805 163.671)" fill="white"/>
<circle cx="131.805" cy="139.185" r="3.42724" transform="rotate(90 131.805 139.185)" fill="white"/>
<circle cx="131.805" cy="188.158" r="3.42724" transform="rotate(90 131.805 188.158)" fill="white"/>
<circle cx="234.808" cy="114.486" r="3.42724" transform="rotate(90 234.808 114.486)" fill="white"/>
<circle cx="234.808" cy="212.433" r="3.42724" transform="rotate(90 234.808 212.433)" fill="white"/>
<circle cx="234.808" cy="163.46" r="3.42724" transform="rotate(90 234.808 163.46)" fill="white"/>
<circle cx="234.808" cy="138.974" r="3.42724" transform="rotate(90 234.808 138.974)" fill="white"/>
<circle cx="234.808" cy="187.947" r="3.42724" transform="rotate(90 234.808 187.947)" fill="white"/>
<line x1="108.671" y1="105.701" x2="261.184" y2="105.701" stroke="black" stroke-width="0.856811" stroke-dasharray="1.71 1.71"/>
<line x1="108.671" y1="223.572" x2="261.184" y2="223.572" stroke="black" stroke-width="0.856811" stroke-dasharray="1.71 1.71"/>
<line x1="185" y1="34.7245" x2="268" y2="34.7245" stroke="black" stroke-width="0.551008"/>
<line x1="188" y1="54.7245" x2="268" y2="54.7245" stroke="black" stroke-width="0.551008"/>
<line x1="188" y1="73.7245" x2="268" y2="73.7245" stroke="black" stroke-width="0.551008"/>
<line x1="260.276" y1="35" x2="260.276" y2="74" stroke="black" stroke-width="0.551008"/>
<path d="M271.2 38V29.204H273.948C275.736 29.204 277.02 29.852 277.02 31.676C277.02 33.44 275.736 34.28 273.948 34.28H272.316V38H271.2ZM272.316 33.38H273.792C275.16 33.38 275.916 32.816 275.916 31.676C275.916 30.524 275.16 30.116 273.792 30.116H272.316V33.38ZM276.036 38L273.732 33.98L274.596 33.404L277.284 38H276.036ZM281.185 38.168C279.445 38.168 278.065 36.896 278.065 34.76C278.065 32.636 279.493 31.328 280.993 31.328C282.649 31.328 283.585 32.516 283.585 34.388C283.585 34.616 283.573 34.844 283.537 35.012H279.145C279.229 36.392 280.069 37.292 281.317 37.292C281.941 37.292 282.457 37.088 282.937 36.764L283.333 37.496C282.757 37.868 282.073 38.168 281.185 38.168ZM279.133 34.22H282.625C282.625 32.912 282.037 32.204 281.005 32.204C280.093 32.204 279.277 32.936 279.133 34.22ZM288.058 38.168C287.458 38.168 286.774 37.856 286.21 37.328H286.174L286.066 38H285.202V28.46H286.294V31.064L286.246 32.24C286.846 31.724 287.566 31.328 288.298 31.328C289.978 31.328 290.89 32.636 290.89 34.64C290.89 36.872 289.558 38.168 288.058 38.168ZM287.89 37.244C288.958 37.244 289.762 36.272 289.762 34.664C289.762 33.212 289.27 32.24 288.034 32.24C287.482 32.24 286.906 32.552 286.294 33.14V36.572C286.858 37.064 287.458 37.244 287.89 37.244ZM293.897 38.168C292.805 38.168 291.989 37.484 291.989 36.308C291.989 34.892 293.213 34.184 295.985 33.872C295.985 33.032 295.721 32.228 294.653 32.228C293.885 32.228 293.201 32.588 292.697 32.936L292.265 32.168C292.865 31.784 293.777 31.328 294.821 31.328C296.417 31.328 297.089 32.384 297.089 34.004V38H296.189L296.093 37.232H296.045C295.433 37.748 294.701 38.168 293.897 38.168ZM294.197 37.28C294.833 37.28 295.361 36.98 295.985 36.416V34.604C293.789 34.856 293.057 35.396 293.057 36.236C293.057 36.98 293.561 37.28 294.197 37.28ZM299.159 38V31.484H300.047L300.155 32.672H300.191C300.635 31.844 301.307 31.328 302.039 31.328C302.327 31.328 302.519 31.364 302.735 31.46L302.531 32.42C302.303 32.348 302.159 32.312 301.895 32.312C301.355 32.312 300.683 32.708 300.251 33.824V38H299.159ZM309.051 38.168C307.323 38.168 306.003 36.908 306.003 34.76C306.003 32.576 307.467 31.328 309.135 31.328C309.987 31.328 310.587 31.676 311.043 32.096L310.491 32.816C310.107 32.468 309.699 32.24 309.195 32.24C307.995 32.24 307.131 33.248 307.131 34.76C307.131 36.248 307.959 37.256 309.159 37.256C309.747 37.256 310.287 36.968 310.695 36.608L311.163 37.34C310.587 37.856 309.831 38.168 309.051 38.168ZM314.827 38.168C313.219 38.168 311.803 36.908 311.803 34.76C311.803 32.576 313.219 31.328 314.827 31.328C316.423 31.328 317.839 32.576 317.839 34.76C317.839 36.908 316.423 38.168 314.827 38.168ZM314.827 37.256C315.955 37.256 316.711 36.248 316.711 34.76C316.711 33.248 315.955 32.24 314.827 32.24C313.687 32.24 312.931 33.248 312.931 34.76C312.931 36.248 313.687 37.256 314.827 37.256ZM320.895 38L318.543 31.484H319.671L320.907 35.204C321.099 35.84 321.303 36.5 321.507 37.112H321.555C321.759 36.5 321.963 35.84 322.155 35.204L323.403 31.484H324.471L322.167 38H320.895ZM328.295 38.168C326.555 38.168 325.175 36.896 325.175 34.76C325.175 32.636 326.603 31.328 328.103 31.328C329.759 31.328 330.695 32.516 330.695 34.388C330.695 34.616 330.683 34.844 330.647 35.012H326.255C326.339 36.392 327.179 37.292 328.427 37.292C329.051 37.292 329.567 37.088 330.047 36.764L330.443 37.496C329.867 37.868 329.183 38.168 328.295 38.168ZM326.243 34.22H329.735C329.735 32.912 329.147 32.204 328.115 32.204C327.203 32.204 326.387 32.936 326.243 34.22ZM332.311 38V31.484H333.199L333.307 32.672H333.343C333.787 31.844 334.459 31.328 335.191 31.328C335.479 31.328 335.671 31.364 335.887 31.46L335.683 32.42C335.455 32.348 335.311 32.312 335.047 32.312C334.507 32.312 333.835 32.708 333.403 33.824V38H332.311ZM272.604 50.168C271.512 50.168 270.696 49.484 270.696 48.308C270.696 46.892 271.92 46.184 274.692 45.872C274.692 45.032 274.428 44.228 273.36 44.228C272.592 44.228 271.908 44.588 271.404 44.936L270.972 44.168C271.572 43.784 272.484 43.328 273.528 43.328C275.124 43.328 275.796 44.384 275.796 46.004V50H274.896L274.8 49.232H274.752C274.14 49.748 273.408 50.168 272.604 50.168ZM272.904 49.28C273.54 49.28 274.068 48.98 274.692 48.416V46.604C272.496 46.856 271.764 47.396 271.764 48.236C271.764 48.98 272.268 49.28 272.904 49.28ZM279.695 50.168C278.303 50.168 277.847 49.292 277.847 47.996V44.372H276.875V43.556L277.895 43.484L278.015 41.648H278.939V43.484H280.703V44.372H278.939V48.02C278.939 48.812 279.191 49.28 279.947 49.28C280.175 49.28 280.475 49.184 280.679 49.1L280.895 49.916C280.535 50.048 280.103 50.168 279.695 50.168ZM287.418 50.168C285.69 50.168 284.37 48.908 284.37 46.76C284.37 44.576 285.834 43.328 287.502 43.328C288.354 43.328 288.954 43.676 289.41 44.096L288.858 44.816C288.474 44.468 288.066 44.24 287.562 44.24C286.362 44.24 285.498 45.248 285.498 46.76C285.498 48.248 286.326 49.256 287.526 49.256C288.114 49.256 288.654 48.968 289.062 48.608L289.53 49.34C288.954 49.856 288.198 50.168 287.418 50.168ZM293.195 50.168C291.587 50.168 290.171 48.908 290.171 46.76C290.171 44.576 291.587 43.328 293.195 43.328C294.791 43.328 296.207 44.576 296.207 46.76C296.207 48.908 294.791 50.168 293.195 50.168ZM293.195 49.256C294.323 49.256 295.079 48.248 295.079 46.76C295.079 45.248 294.323 44.24 293.195 44.24C292.055 44.24 291.299 45.248 291.299 46.76C291.299 48.248 292.055 49.256 293.195 49.256ZM297.94 50V43.484H298.828L298.936 44.672H298.972C299.416 43.844 300.088 43.328 300.82 43.328C301.108 43.328 301.3 43.364 301.516 43.46L301.312 44.42C301.084 44.348 300.94 44.312 300.676 44.312C300.136 44.312 299.464 44.708 299.032 45.824V50H297.94ZM305.056 50.168C303.316 50.168 301.936 48.896 301.936 46.76C301.936 44.636 303.364 43.328 304.864 43.328C306.52 43.328 307.456 44.516 307.456 46.388C307.456 46.616 307.444 46.844 307.408 47.012H303.016C303.1 48.392 303.94 49.292 305.188 49.292C305.812 49.292 306.328 49.088 306.808 48.764L307.204 49.496C306.628 49.868 305.944 50.168 305.056 50.168ZM303.004 46.22H306.496C306.496 44.912 305.908 44.204 304.876 44.204C303.964 44.204 303.148 44.936 303.004 46.22Z" fill="#1E252C"/>
<path d="M271.2 288V279.204H273.948C275.736 279.204 277.02 279.852 277.02 281.676C277.02 283.44 275.736 284.28 273.948 284.28H272.316V288H271.2ZM272.316 283.38H273.792C275.16 283.38 275.916 282.816 275.916 281.676C275.916 280.524 275.16 280.116 273.792 280.116H272.316V283.38ZM276.036 288L273.732 283.98L274.596 283.404L277.284 288H276.036ZM281.185 288.168C279.445 288.168 278.065 286.896 278.065 284.76C278.065 282.636 279.493 281.328 280.993 281.328C282.649 281.328 283.585 282.516 283.585 284.388C283.585 284.616 283.573 284.844 283.537 285.012H279.145C279.229 286.392 280.069 287.292 281.317 287.292C281.941 287.292 282.457 287.088 282.937 286.764L283.333 287.496C282.757 287.868 282.073 288.168 281.185 288.168ZM279.133 284.22H282.625C282.625 282.912 282.037 282.204 281.005 282.204C280.093 282.204 279.277 282.936 279.133 284.22ZM288.058 288.168C287.458 288.168 286.774 287.856 286.21 287.328H286.174L286.066 288H285.202V278.46H286.294V281.064L286.246 282.24C286.846 281.724 287.566 281.328 288.298 281.328C289.978 281.328 290.89 282.636 290.89 284.64C290.89 286.872 289.558 288.168 288.058 288.168ZM287.89 287.244C288.958 287.244 289.762 286.272 289.762 284.664C289.762 283.212 289.27 282.24 288.034 282.24C287.482 282.24 286.906 282.552 286.294 283.14V286.572C286.858 287.064 287.458 287.244 287.89 287.244ZM293.897 288.168C292.805 288.168 291.989 287.484 291.989 286.308C291.989 284.892 293.213 284.184 295.985 283.872C295.985 283.032 295.721 282.228 294.653 282.228C293.885 282.228 293.201 282.588 292.697 282.936L292.265 282.168C292.865 281.784 293.777 281.328 294.821 281.328C296.417 281.328 297.089 282.384 297.089 284.004V288H296.189L296.093 287.232H296.045C295.433 287.748 294.701 288.168 293.897 288.168ZM294.197 287.28C294.833 287.28 295.361 286.98 295.985 286.416V284.604C293.789 284.856 293.057 285.396 293.057 286.236C293.057 286.98 293.561 287.28 294.197 287.28ZM299.159 288V281.484H300.047L300.155 282.672H300.191C300.635 281.844 301.307 281.328 302.039 281.328C302.327 281.328 302.519 281.364 302.735 281.46L302.531 282.42C302.303 282.348 302.159 282.312 301.895 282.312C301.355 282.312 300.683 282.708 300.251 283.824V288H299.159ZM309.051 288.168C307.323 288.168 306.003 286.908 306.003 284.76C306.003 282.576 307.467 281.328 309.135 281.328C309.987 281.328 310.587 281.676 311.043 282.096L310.491 282.816C310.107 282.468 309.699 282.24 309.195 282.24C307.995 282.24 307.131 283.248 307.131 284.76C307.131 286.248 307.959 287.256 309.159 287.256C309.747 287.256 310.287 286.968 310.695 286.608L311.163 287.34C310.587 287.856 309.831 288.168 309.051 288.168ZM314.827 288.168C313.219 288.168 311.803 286.908 311.803 284.76C311.803 282.576 313.219 281.328 314.827 281.328C316.423 281.328 317.839 282.576 317.839 284.76C317.839 286.908 316.423 288.168 314.827 288.168ZM314.827 287.256C315.955 287.256 316.711 286.248 316.711 284.76C316.711 283.248 315.955 282.24 314.827 282.24C313.687 282.24 312.931 283.248 312.931 284.76C312.931 286.248 313.687 287.256 314.827 287.256ZM320.895 288L318.543 281.484H319.671L320.907 285.204C321.099 285.84 321.303 286.5 321.507 287.112H321.555C321.759 286.5 321.963 285.84 322.155 285.204L323.403 281.484H324.471L322.167 288H320.895ZM328.295 288.168C326.555 288.168 325.175 286.896 325.175 284.76C325.175 282.636 326.603 281.328 328.103 281.328C329.759 281.328 330.695 282.516 330.695 284.388C330.695 284.616 330.683 284.844 330.647 285.012H326.255C326.339 286.392 327.179 287.292 328.427 287.292C329.051 287.292 329.567 287.088 330.047 286.764L330.443 287.496C329.867 287.868 329.183 288.168 328.295 288.168ZM326.243 284.22H329.735C329.735 282.912 329.147 282.204 328.115 282.204C327.203 282.204 326.387 282.936 326.243 284.22ZM332.311 288V281.484H333.199L333.307 282.672H333.343C333.787 281.844 334.459 281.328 335.191 281.328C335.479 281.328 335.671 281.364 335.887 281.46L335.683 282.42C335.455 282.348 335.311 282.312 335.047 282.312C334.507 282.312 333.835 282.708 333.403 283.824V288H332.311ZM272.604 300.168C271.512 300.168 270.696 299.484 270.696 298.308C270.696 296.892 271.92 296.184 274.692 295.872C274.692 295.032 274.428 294.228 273.36 294.228C272.592 294.228 271.908 294.588 271.404 294.936L270.972 294.168C271.572 293.784 272.484 293.328 273.528 293.328C275.124 293.328 275.796 294.384 275.796 296.004V300H274.896L274.8 299.232H274.752C274.14 299.748 273.408 300.168 272.604 300.168ZM272.904 299.28C273.54 299.28 274.068 298.98 274.692 298.416V296.604C272.496 296.856 271.764 297.396 271.764 298.236C271.764 298.98 272.268 299.28 272.904 299.28ZM279.695 300.168C278.303 300.168 277.847 299.292 277.847 297.996V294.372H276.875V293.556L277.895 293.484L278.015 291.648H278.939V293.484H280.703V294.372H278.939V298.02C278.939 298.812 279.191 299.28 279.947 299.28C280.175 299.28 280.475 299.184 280.679 299.1L280.895 299.916C280.535 300.048 280.103 300.168 279.695 300.168ZM287.418 300.168C285.69 300.168 284.37 298.908 284.37 296.76C284.37 294.576 285.834 293.328 287.502 293.328C288.354 293.328 288.954 293.676 289.41 294.096L288.858 294.816C288.474 294.468 288.066 294.24 287.562 294.24C286.362 294.24 285.498 295.248 285.498 296.76C285.498 298.248 286.326 299.256 287.526 299.256C288.114 299.256 288.654 298.968 289.062 298.608L289.53 299.34C288.954 299.856 288.198 300.168 287.418 300.168ZM293.195 300.168C291.587 300.168 290.171 298.908 290.171 296.76C290.171 294.576 291.587 293.328 293.195 293.328C294.791 293.328 296.207 294.576 296.207 296.76C296.207 298.908 294.791 300.168 293.195 300.168ZM293.195 299.256C294.323 299.256 295.079 298.248 295.079 296.76C295.079 295.248 294.323 294.24 293.195 294.24C292.055 294.24 291.299 295.248 291.299 296.76C291.299 298.248 292.055 299.256 293.195 299.256ZM297.94 300V293.484H298.828L298.936 294.672H298.972C299.416 293.844 300.088 293.328 300.82 293.328C301.108 293.328 301.3 293.364 301.516 293.46L301.312 294.42C301.084 294.348 300.94 294.312 300.676 294.312C300.136 294.312 299.464 294.708 299.032 295.824V300H297.94ZM305.056 300.168C303.316 300.168 301.936 298.896 301.936 296.76C301.936 294.636 303.364 293.328 304.864 293.328C306.52 293.328 307.456 294.516 307.456 296.388C307.456 296.616 307.444 296.844 307.408 297.012H303.016C303.1 298.392 303.94 299.292 305.188 299.292C305.812 299.292 306.328 299.088 306.808 298.764L307.204 299.496C306.628 299.868 305.944 300.168 305.056 300.168ZM303.004 296.22H306.496C306.496 294.912 305.908 294.204 304.876 294.204C303.964 294.204 303.148 294.936 303.004 296.22Z" fill="#1E252C"/>
<path d="M271.2 69V60.204H272.316V69H271.2ZM274.62 69V62.484H275.508L275.616 63.432H275.652C276.264 62.82 276.936 62.328 277.836 62.328C279.204 62.328 279.828 63.216 279.828 64.872V69H278.724V65.016C278.724 63.792 278.352 63.276 277.488 63.276C276.828 63.276 276.36 63.624 275.712 64.272V69H274.62ZM283.984 69.168C282.592 69.168 282.136 68.292 282.136 66.996V63.372H281.164V62.556L282.184 62.484L282.304 60.648H283.228V62.484H284.992V63.372H283.228V67.02C283.228 67.812 283.48 68.28 284.236 68.28C284.464 68.28 284.764 68.184 284.968 68.1L285.184 68.916C284.824 69.048 284.392 69.168 283.984 69.168ZM288.884 69.168C287.144 69.168 285.764 67.896 285.764 65.76C285.764 63.636 287.192 62.328 288.692 62.328C290.348 62.328 291.284 63.516 291.284 65.388C291.284 65.616 291.272 65.844 291.236 66.012H286.844C286.928 67.392 287.768 68.292 289.016 68.292C289.64 68.292 290.156 68.088 290.636 67.764L291.032 68.496C290.456 68.868 289.772 69.168 288.884 69.168ZM286.832 65.22H290.324C290.324 63.912 289.736 63.204 288.704 63.204C287.792 63.204 286.976 63.936 286.832 65.22ZM292.901 69V62.484H293.789L293.897 63.672H293.933C294.377 62.844 295.049 62.328 295.781 62.328C296.069 62.328 296.261 62.364 296.477 62.46L296.273 63.42C296.045 63.348 295.901 63.312 295.637 63.312C295.097 63.312 294.425 63.708 293.993 64.824V69H292.901ZM299.262 69L296.91 62.484H298.038L299.274 66.204C299.466 66.84 299.67 67.5 299.874 68.112H299.922C300.126 67.5 300.33 66.84 300.522 66.204L301.77 62.484H302.838L300.534 69H299.262ZM305.311 69.168C304.219 69.168 303.403 68.484 303.403 67.308C303.403 65.892 304.627 65.184 307.399 64.872C307.399 64.032 307.135 63.228 306.067 63.228C305.299 63.228 304.615 63.588 304.111 63.936L303.679 63.168C304.279 62.784 305.191 62.328 306.235 62.328C307.831 62.328 308.503 63.384 308.503 65.004V69H307.603L307.507 68.232H307.459C306.847 68.748 306.115 69.168 305.311 69.168ZM305.611 68.28C306.247 68.28 306.775 67.98 307.399 67.416V65.604C305.203 65.856 304.471 66.396 304.471 67.236C304.471 67.98 304.975 68.28 305.611 68.28ZM311.725 69.168C310.897 69.168 310.573 68.64 310.573 67.704V59.46H311.665V67.776C311.665 68.124 311.809 68.256 311.977 68.256C312.025 68.256 312.073 68.256 312.205 68.232L312.349 69.072C312.193 69.12 312.025 69.168 311.725 69.168ZM271.2 81V72.204H273.804C275.592 72.204 276.828 72.816 276.828 74.364C276.828 75.228 276.372 75.996 275.544 76.272V76.32C276.6 76.524 277.332 77.232 277.332 78.432C277.332 80.148 275.964 81 274.008 81H271.2ZM272.316 75.948H273.612C275.124 75.948 275.736 75.396 275.736 74.496C275.736 73.464 275.04 73.08 273.672 73.08H272.316V75.948ZM272.316 80.124H273.852C275.352 80.124 276.252 79.584 276.252 78.396C276.252 77.304 275.388 76.8 273.852 76.8H272.316V80.124ZM281.619 81.168C279.879 81.168 278.499 79.896 278.499 77.76C278.499 75.636 279.927 74.328 281.427 74.328C283.083 74.328 284.019 75.516 284.019 77.388C284.019 77.616 284.007 77.844 283.971 78.012H279.579C279.663 79.392 280.503 80.292 281.751 80.292C282.375 80.292 282.891 80.088 283.371 79.764L283.767 80.496C283.191 80.868 282.507 81.168 281.619 81.168ZM279.567 77.22H283.059C283.059 75.912 282.471 75.204 281.439 75.204C280.527 75.204 279.711 75.936 279.567 77.22ZM287.511 81.168C286.119 81.168 285.663 80.292 285.663 78.996V75.372H284.691V74.556L285.711 74.484L285.831 72.648H286.755V74.484H288.519V75.372H286.755V79.02C286.755 79.812 287.007 80.28 287.763 80.28C287.991 80.28 288.291 80.184 288.495 80.1L288.711 80.916C288.351 81.048 287.919 81.168 287.511 81.168ZM291.027 81L289.203 74.484H290.319L291.303 78.264C291.435 78.888 291.555 79.464 291.675 80.076H291.735C291.879 79.464 292.011 78.876 292.179 78.264L293.187 74.484H294.255L295.287 78.264C295.443 78.888 295.587 79.464 295.743 80.076H295.791C295.923 79.464 296.043 78.888 296.199 78.264L297.147 74.484H298.191L296.439 81H295.107L294.159 77.496C293.991 76.872 293.871 76.284 293.715 75.612H293.655C293.523 76.284 293.391 76.884 293.211 77.508L292.299 81H291.027ZM302.162 81.168C300.422 81.168 299.042 79.896 299.042 77.76C299.042 75.636 300.47 74.328 301.97 74.328C303.626 74.328 304.562 75.516 304.562 77.388C304.562 77.616 304.55 77.844 304.514 78.012H300.122C300.206 79.392 301.046 80.292 302.294 80.292C302.918 80.292 303.434 80.088 303.914 79.764L304.31 80.496C303.734 80.868 303.05 81.168 302.162 81.168ZM300.11 77.22H303.602C303.602 75.912 303.014 75.204 301.982 75.204C301.07 75.204 300.254 75.936 300.11 77.22ZM308.806 81.168C307.066 81.168 305.686 79.896 305.686 77.76C305.686 75.636 307.114 74.328 308.614 74.328C310.27 74.328 311.206 75.516 311.206 77.388C311.206 77.616 311.194 77.844 311.158 78.012H306.766C306.85 79.392 307.69 80.292 308.938 80.292C309.562 80.292 310.078 80.088 310.558 79.764L310.954 80.496C310.378 80.868 309.694 81.168 308.806 81.168ZM306.754 77.22H310.246C310.246 75.912 309.658 75.204 308.626 75.204C307.714 75.204 306.898 75.936 306.754 77.22ZM312.823 81V74.484H313.711L313.819 75.432H313.855C314.467 74.82 315.139 74.328 316.039 74.328C317.407 74.328 318.031 75.216 318.031 76.872V81H316.927V77.016C316.927 75.792 316.555 75.276 315.691 75.276C315.031 75.276 314.563 75.624 313.915 76.272V81H312.823ZM322.927 81V72.204H324.043V80.064H327.883V81H322.927ZM330.846 81.168C329.754 81.168 328.938 80.484 328.938 79.308C328.938 77.892 330.162 77.184 332.934 76.872C332.934 76.032 332.67 75.228 331.602 75.228C330.834 75.228 330.15 75.588 329.646 75.936L329.214 75.168C329.814 74.784 330.726 74.328 331.77 74.328C333.366 74.328 334.038 75.384 334.038 77.004V81H333.138L333.042 80.232H332.994C332.382 80.748 331.65 81.168 330.846 81.168ZM331.146 80.28C331.782 80.28 332.31 79.98 332.934 79.416V77.604C330.738 77.856 330.006 78.396 330.006 79.236C330.006 79.98 330.51 80.28 331.146 80.28ZM336.204 83.82C335.904 83.82 335.652 83.772 335.448 83.688L335.664 82.812C335.784 82.86 335.976 82.908 336.156 82.908C336.888 82.908 337.356 82.308 337.632 81.504L337.776 81.012L335.16 74.484H336.288L337.62 78.108C337.824 78.684 338.04 79.344 338.256 79.944H338.316C338.496 79.344 338.688 78.696 338.856 78.108L340.032 74.484H341.1L338.64 81.552C338.184 82.836 337.512 83.82 336.204 83.82ZM344.912 81.168C343.172 81.168 341.792 79.896 341.792 77.76C341.792 75.636 343.22 74.328 344.72 74.328C346.376 74.328 347.312 75.516 347.312 77.388C347.312 77.616 347.3 77.844 347.264 78.012H342.872C342.956 79.392 343.796 80.292 345.044 80.292C345.668 80.292 346.184 80.088 346.664 79.764L347.06 80.496C346.484 80.868 345.8 81.168 344.912 81.168ZM342.86 77.22H346.352C346.352 75.912 345.764 75.204 344.732 75.204C343.82 75.204 343.004 75.936 342.86 77.22ZM348.928 81V74.484H349.816L349.924 75.672H349.96C350.404 74.844 351.076 74.328 351.808 74.328C352.096 74.328 352.288 74.364 352.504 74.46L352.3 75.42C352.072 75.348 351.928 75.312 351.664 75.312C351.124 75.312 350.452 75.708 350.02 76.824V81H348.928ZM355.203 81.168C354.279 81.168 353.379 80.772 352.767 80.268L353.307 79.536C353.871 79.992 354.447 80.316 355.227 80.316C356.091 80.316 356.523 79.86 356.523 79.284C356.523 78.624 355.743 78.324 355.023 78.06C354.123 77.712 353.127 77.28 353.127 76.164C353.127 75.132 353.955 74.328 355.371 74.328C356.175 74.328 356.895 74.652 357.399 75.06L356.871 75.756C356.427 75.432 355.959 75.18 355.383 75.18C354.555 75.18 354.183 75.612 354.183 76.116C354.183 76.74 354.843 76.98 355.587 77.244C356.535 77.604 357.567 77.988 357.567 79.224C357.567 80.292 356.739 81.168 355.203 81.168Z" fill="#1E252C"/>
<path d="M271.2 259V250.204H272.316V259H271.2ZM274.62 259V252.484H275.508L275.616 253.432H275.652C276.264 252.82 276.936 252.328 277.836 252.328C279.204 252.328 279.828 253.216 279.828 254.872V259H278.724V255.016C278.724 253.792 278.352 253.276 277.488 253.276C276.828 253.276 276.36 253.624 275.712 254.272V259H274.62ZM283.984 259.168C282.592 259.168 282.136 258.292 282.136 256.996V253.372H281.164V252.556L282.184 252.484L282.304 250.648H283.228V252.484H284.992V253.372H283.228V257.02C283.228 257.812 283.48 258.28 284.236 258.28C284.464 258.28 284.764 258.184 284.968 258.1L285.184 258.916C284.824 259.048 284.392 259.168 283.984 259.168ZM288.884 259.168C287.144 259.168 285.764 257.896 285.764 255.76C285.764 253.636 287.192 252.328 288.692 252.328C290.348 252.328 291.284 253.516 291.284 255.388C291.284 255.616 291.272 255.844 291.236 256.012H286.844C286.928 257.392 287.768 258.292 289.016 258.292C289.64 258.292 290.156 258.088 290.636 257.764L291.032 258.496C290.456 258.868 289.772 259.168 288.884 259.168ZM286.832 255.22H290.324C290.324 253.912 289.736 253.204 288.704 253.204C287.792 253.204 286.976 253.936 286.832 255.22ZM292.901 259V252.484H293.789L293.897 253.672H293.933C294.377 252.844 295.049 252.328 295.781 252.328C296.069 252.328 296.261 252.364 296.477 252.46L296.273 253.42C296.045 253.348 295.901 253.312 295.637 253.312C295.097 253.312 294.425 253.708 293.993 254.824V259H292.901ZM299.262 259L296.91 252.484H298.038L299.274 256.204C299.466 256.84 299.67 257.5 299.874 258.112H299.922C300.126 257.5 300.33 256.84 300.522 256.204L301.77 252.484H302.838L300.534 259H299.262ZM305.311 259.168C304.219 259.168 303.403 258.484 303.403 257.308C303.403 255.892 304.627 255.184 307.399 254.872C307.399 254.032 307.135 253.228 306.067 253.228C305.299 253.228 304.615 253.588 304.111 253.936L303.679 253.168C304.279 252.784 305.191 252.328 306.235 252.328C307.831 252.328 308.503 253.384 308.503 255.004V259H307.603L307.507 258.232H307.459C306.847 258.748 306.115 259.168 305.311 259.168ZM305.611 258.28C306.247 258.28 306.775 257.98 307.399 257.416V255.604C305.203 255.856 304.471 256.396 304.471 257.236C304.471 257.98 304.975 258.28 305.611 258.28ZM311.725 259.168C310.897 259.168 310.573 258.64 310.573 257.704V249.46H311.665V257.776C311.665 258.124 311.809 258.256 311.977 258.256C312.025 258.256 312.073 258.256 312.205 258.232L312.349 259.072C312.193 259.12 312.025 259.168 311.725 259.168ZM271.2 271V262.204H273.804C275.592 262.204 276.828 262.816 276.828 264.364C276.828 265.228 276.372 265.996 275.544 266.272V266.32C276.6 266.524 277.332 267.232 277.332 268.432C277.332 270.148 275.964 271 274.008 271H271.2ZM272.316 265.948H273.612C275.124 265.948 275.736 265.396 275.736 264.496C275.736 263.464 275.04 263.08 273.672 263.08H272.316V265.948ZM272.316 270.124H273.852C275.352 270.124 276.252 269.584 276.252 268.396C276.252 267.304 275.388 266.8 273.852 266.8H272.316V270.124ZM281.619 271.168C279.879 271.168 278.499 269.896 278.499 267.76C278.499 265.636 279.927 264.328 281.427 264.328C283.083 264.328 284.019 265.516 284.019 267.388C284.019 267.616 284.007 267.844 283.971 268.012H279.579C279.663 269.392 280.503 270.292 281.751 270.292C282.375 270.292 282.891 270.088 283.371 269.764L283.767 270.496C283.191 270.868 282.507 271.168 281.619 271.168ZM279.567 267.22H283.059C283.059 265.912 282.471 265.204 281.439 265.204C280.527 265.204 279.711 265.936 279.567 267.22ZM287.511 271.168C286.119 271.168 285.663 270.292 285.663 268.996V265.372H284.691V264.556L285.711 264.484L285.831 262.648H286.755V264.484H288.519V265.372H286.755V269.02C286.755 269.812 287.007 270.28 287.763 270.28C287.991 270.28 288.291 270.184 288.495 270.1L288.711 270.916C288.351 271.048 287.919 271.168 287.511 271.168ZM291.027 271L289.203 264.484H290.319L291.303 268.264C291.435 268.888 291.555 269.464 291.675 270.076H291.735C291.879 269.464 292.011 268.876 292.179 268.264L293.187 264.484H294.255L295.287 268.264C295.443 268.888 295.587 269.464 295.743 270.076H295.791C295.923 269.464 296.043 268.888 296.199 268.264L297.147 264.484H298.191L296.439 271H295.107L294.159 267.496C293.991 266.872 293.871 266.284 293.715 265.612H293.655C293.523 266.284 293.391 266.884 293.211 267.508L292.299 271H291.027ZM302.162 271.168C300.422 271.168 299.042 269.896 299.042 267.76C299.042 265.636 300.47 264.328 301.97 264.328C303.626 264.328 304.562 265.516 304.562 267.388C304.562 267.616 304.55 267.844 304.514 268.012H300.122C300.206 269.392 301.046 270.292 302.294 270.292C302.918 270.292 303.434 270.088 303.914 269.764L304.31 270.496C303.734 270.868 303.05 271.168 302.162 271.168ZM300.11 267.22H303.602C303.602 265.912 303.014 265.204 301.982 265.204C301.07 265.204 300.254 265.936 300.11 267.22ZM308.806 271.168C307.066 271.168 305.686 269.896 305.686 267.76C305.686 265.636 307.114 264.328 308.614 264.328C310.27 264.328 311.206 265.516 311.206 267.388C311.206 267.616 311.194 267.844 311.158 268.012H306.766C306.85 269.392 307.69 270.292 308.938 270.292C309.562 270.292 310.078 270.088 310.558 269.764L310.954 270.496C310.378 270.868 309.694 271.168 308.806 271.168ZM306.754 267.22H310.246C310.246 265.912 309.658 265.204 308.626 265.204C307.714 265.204 306.898 265.936 306.754 267.22ZM312.823 271V264.484H313.711L313.819 265.432H313.855C314.467 264.82 315.139 264.328 316.039 264.328C317.407 264.328 318.031 265.216 318.031 266.872V271H316.927V267.016C316.927 265.792 316.555 265.276 315.691 265.276C315.031 265.276 314.563 265.624 313.915 266.272V271H312.823ZM322.927 271V262.204H324.043V270.064H327.883V271H322.927ZM330.846 271.168C329.754 271.168 328.938 270.484 328.938 269.308C328.938 267.892 330.162 267.184 332.934 266.872C332.934 266.032 332.67 265.228 331.602 265.228C330.834 265.228 330.15 265.588 329.646 265.936L329.214 265.168C329.814 264.784 330.726 264.328 331.77 264.328C333.366 264.328 334.038 265.384 334.038 267.004V271H333.138L333.042 270.232H332.994C332.382 270.748 331.65 271.168 330.846 271.168ZM331.146 270.28C331.782 270.28 332.31 269.98 332.934 269.416V267.604C330.738 267.856 330.006 268.396 330.006 269.236C330.006 269.98 330.51 270.28 331.146 270.28ZM336.204 273.82C335.904 273.82 335.652 273.772 335.448 273.688L335.664 272.812C335.784 272.86 335.976 272.908 336.156 272.908C336.888 272.908 337.356 272.308 337.632 271.504L337.776 271.012L335.16 264.484H336.288L337.62 268.108C337.824 268.684 338.04 269.344 338.256 269.944H338.316C338.496 269.344 338.688 268.696 338.856 268.108L340.032 264.484H341.1L338.64 271.552C338.184 272.836 337.512 273.82 336.204 273.82ZM344.912 271.168C343.172 271.168 341.792 269.896 341.792 267.76C341.792 265.636 343.22 264.328 344.72 264.328C346.376 264.328 347.312 265.516 347.312 267.388C347.312 267.616 347.3 267.844 347.264 268.012H342.872C342.956 269.392 343.796 270.292 345.044 270.292C345.668 270.292 346.184 270.088 346.664 269.764L347.06 270.496C346.484 270.868 345.8 271.168 344.912 271.168ZM342.86 267.22H346.352C346.352 265.912 345.764 265.204 344.732 265.204C343.82 265.204 343.004 265.936 342.86 267.22ZM348.928 271V264.484H349.816L349.924 265.672H349.96C350.404 264.844 351.076 264.328 351.808 264.328C352.096 264.328 352.288 264.364 352.504 264.46L352.3 265.42C352.072 265.348 351.928 265.312 351.664 265.312C351.124 265.312 350.452 265.708 350.02 266.824V271H348.928ZM355.203 271.168C354.279 271.168 353.379 270.772 352.767 270.268L353.307 269.536C353.871 269.992 354.447 270.316 355.227 270.316C356.091 270.316 356.523 269.86 356.523 269.284C356.523 268.624 355.743 268.324 355.023 268.06C354.123 267.712 353.127 267.28 353.127 266.164C353.127 265.132 353.955 264.328 355.371 264.328C356.175 264.328 356.895 264.652 357.399 265.06L356.871 265.756C356.427 265.432 355.959 265.18 355.383 265.18C354.555 265.18 354.183 265.612 354.183 266.116C354.183 266.74 354.843 266.98 355.587 267.244C356.535 267.604 357.567 267.988 357.567 269.224C357.567 270.292 356.739 271.168 355.203 271.168Z" fill="#1E252C"/>
<path d="M183.058 43.8359C150.438 43.8359 129.61 73.0394 127.406 84.0595C125.202 95.0797 137.875 96.1981 141.732 97.3001C145.589 98.4021 158.262 99.4878 163.772 90.1206C169.282 80.7535 175.343 79.1005 183.058 79.1005C190.772 79.1005 197.935 81.8555 201.241 90.1206C203.35 95.3941 212.812 98.9368 224.383 97.3001C235.954 95.6634 240.362 91.7737 240.362 84.0595C240.362 77.2439 223.832 43.8359 183.058 43.8359Z" stroke="#CE2C3F" stroke-dasharray="0.99 0.99"/>
<path d="M183.663 47.6934C160.484 47.6934 147.242 59.1432 147.242 65.8766C147.242 72.61 154.956 71.7874 158.813 68.6317C162.67 65.4759 166.527 63.6726 169.833 62.5706C173.139 61.4686 178.181 60.3665 183.663 60.3665C189.144 60.3665 195.008 60.9445 197.935 62.5706C202.894 65.3256 205.098 66.9786 210.057 70.2847C215.016 73.5907 221.519 68.3612 219.975 62.5706C217.771 54.3055 197.935 47.6934 183.663 47.6934Z" stroke="#2C59CE" stroke-dasharray="0.99 0.99"/>
<path d="M247.569 99.6778C245.349 99.6778 243.813 97.9018 243.813 95.0818C243.813 92.2618 245.349 90.5578 247.569 90.5578C249.777 90.5578 251.313 92.2738 251.313 95.0818C251.313 97.9018 249.777 99.6778 247.569 99.6778ZM247.569 98.7538C249.141 98.7538 250.185 97.3378 250.185 95.0818C250.185 92.8858 249.141 91.5298 247.569 91.5298C245.985 91.5298 244.953 92.8858 244.953 95.0818C244.953 97.3378 245.985 98.7538 247.569 98.7538ZM250.257 101.73C248.577 101.73 247.437 100.77 246.969 99.4858L248.121 99.4018C248.469 100.326 249.333 100.794 250.377 100.794C250.773 100.794 251.061 100.746 251.301 100.662L251.517 101.526C251.241 101.634 250.785 101.73 250.257 101.73ZM255.024 99.6778C253.656 99.6778 253.032 98.7898 253.032 97.1218V92.9938H254.124V96.9898C254.124 98.2018 254.496 98.7178 255.36 98.7178C256.02 98.7178 256.5 98.3938 257.112 97.6258V92.9938H258.204V99.5098H257.304L257.208 98.4898H257.184C256.572 99.1978 255.924 99.6778 255.024 99.6778ZM261.917 99.6778C260.825 99.6778 260.009 98.9938 260.009 97.8178C260.009 96.4018 261.233 95.6938 264.005 95.3818C264.005 94.5418 263.741 93.7378 262.673 93.7378C261.905 93.7378 261.221 94.0978 260.717 94.4458L260.285 93.6778C260.885 93.2938 261.797 92.8378 262.841 92.8378C264.437 92.8378 265.109 93.8938 265.109 95.5138V99.5098H264.209L264.113 98.7418H264.065C263.453 99.2578 262.721 99.6778 261.917 99.6778ZM262.217 98.7898C262.853 98.7898 263.381 98.4898 264.005 97.9258V96.1138C261.809 96.3658 261.077 96.9058 261.077 97.7458C261.077 98.4898 261.581 98.7898 262.217 98.7898ZM267.178 99.5098V92.9938H268.066L268.174 93.9418H268.21C268.822 93.3298 269.494 92.8378 270.394 92.8378C271.762 92.8378 272.386 93.7258 272.386 95.3818V99.5098H271.282V95.5258C271.282 94.3018 270.91 93.7858 270.046 93.7858C269.386 93.7858 268.918 94.1338 268.27 94.7818V99.5098H267.178ZM276.543 99.6778C275.151 99.6778 274.695 98.8018 274.695 97.5058V93.8818H273.723V93.0658L274.743 92.9938L274.863 91.1578H275.787V92.9938H277.551V93.8818H275.787V97.5298C275.787 98.3218 276.039 98.7898 276.795 98.7898C277.023 98.7898 277.323 98.6938 277.527 98.6098L277.743 99.4258C277.383 99.5578 276.951 99.6778 276.543 99.6778ZM279.026 99.5098V92.9938H280.118V99.5098H279.026ZM279.578 91.6498C279.146 91.6498 278.846 91.3738 278.846 90.9178C278.846 90.4978 279.146 90.2218 279.578 90.2218C279.998 90.2218 280.31 90.4978 280.31 90.9178C280.31 91.3738 279.998 91.6498 279.578 91.6498ZM284.371 99.6778C282.979 99.6778 282.523 98.8018 282.523 97.5058V93.8818H281.551V93.0658L282.571 92.9938L282.691 91.1578H283.615V92.9938H285.379V93.8818H283.615V97.5298C283.615 98.3218 283.867 98.7898 284.623 98.7898C284.851 98.7898 285.151 98.6938 285.355 98.6098L285.571 99.4258C285.211 99.5578 284.779 99.6778 284.371 99.6778ZM286.95 102.33C286.65 102.33 286.398 102.282 286.194 102.198L286.41 101.322C286.53 101.37 286.722 101.418 286.902 101.418C287.634 101.418 288.102 100.818 288.378 100.014L288.522 99.5218L285.906 92.9938H287.034L288.366 96.6178C288.57 97.1938 288.786 97.8538 289.002 98.4538H289.062C289.242 97.8538 289.434 97.2058 289.602 96.6178L290.778 92.9938H291.846L289.386 100.062C288.93 101.346 288.258 102.33 286.95 102.33Z" fill="#CE2C3F"/>
<path d="M21.2 72V63.204H26.264V64.14H22.316V67.128H25.664V68.052H22.316V72H21.2ZM27.7251 72V65.484H28.8171V72H27.7251ZM28.2771 64.14C27.8451 64.14 27.5451 63.864 27.5451 63.408C27.5451 62.988 27.8451 62.712 28.2771 62.712C28.6971 62.712 29.0091 62.988 29.0091 63.408C29.0091 63.864 28.6971 64.14 28.2771 64.14ZM31.0298 72V65.484H31.9178L32.0258 66.672H32.0618C32.5058 65.844 33.1778 65.328 33.9098 65.328C34.1978 65.328 34.3898 65.364 34.6058 65.46L34.4018 66.42C34.1738 66.348 34.0298 66.312 33.7658 66.312C33.2258 66.312 32.5538 66.708 32.1218 67.824V72H31.0298ZM37.3041 72.168C36.3801 72.168 35.4801 71.772 34.8681 71.268L35.4081 70.536C35.9721 70.992 36.5481 71.316 37.3281 71.316C38.1921 71.316 38.6241 70.86 38.6241 70.284C38.6241 69.624 37.8441 69.324 37.1241 69.06C36.2241 68.712 35.2281 68.28 35.2281 67.164C35.2281 66.132 36.0561 65.328 37.4721 65.328C38.2761 65.328 38.9961 65.652 39.5001 66.06L38.9721 66.756C38.5281 66.432 38.0601 66.18 37.4841 66.18C36.6561 66.18 36.2841 66.612 36.2841 67.116C36.2841 67.74 36.9441 67.98 37.6881 68.244C38.6361 68.604 39.6681 68.988 39.6681 70.224C39.6681 71.292 38.8401 72.168 37.3041 72.168ZM42.9487 72.168C41.5567 72.168 41.1007 71.292 41.1007 69.996V66.372H40.1287V65.556L41.1487 65.484L41.2687 63.648H42.1927V65.484H43.9567V66.372H42.1927V70.02C42.1927 70.812 42.4447 71.28 43.2007 71.28C43.4287 71.28 43.7287 71.184 43.9327 71.1L44.1487 71.916C43.7887 72.048 43.3567 72.168 42.9487 72.168ZM48.2117 72V63.204H49.3277V71.064H53.1677V72H48.2117ZM56.1313 72.168C55.0393 72.168 54.2233 71.484 54.2233 70.308C54.2233 68.892 55.4473 68.184 58.2193 67.872C58.2193 67.032 57.9553 66.228 56.8873 66.228C56.1193 66.228 55.4353 66.588 54.9313 66.936L54.4993 66.168C55.0993 65.784 56.0113 65.328 57.0553 65.328C58.6513 65.328 59.3233 66.384 59.3233 68.004V72H58.4233L58.3273 71.232H58.2793C57.6673 71.748 56.9353 72.168 56.1313 72.168ZM56.4313 71.28C57.0673 71.28 57.5953 70.98 58.2193 70.416V68.604C56.0233 68.856 55.2913 69.396 55.2913 70.236C55.2913 70.98 55.7953 71.28 56.4313 71.28ZM61.4891 74.82C61.1891 74.82 60.9371 74.772 60.7331 74.688L60.9491 73.812C61.0691 73.86 61.2611 73.908 61.4411 73.908C62.1731 73.908 62.6411 73.308 62.9171 72.504L63.0611 72.012L60.4451 65.484H61.5731L62.9051 69.108C63.1091 69.684 63.3251 70.344 63.5411 70.944H63.6011C63.7811 70.344 63.9731 69.696 64.1411 69.108L65.3171 65.484H66.3851L63.9251 72.552C63.4691 73.836 62.7971 74.82 61.4891 74.82ZM70.1968 72.168C68.4568 72.168 67.0768 70.896 67.0768 68.76C67.0768 66.636 68.5048 65.328 70.0048 65.328C71.6608 65.328 72.5968 66.516 72.5968 68.388C72.5968 68.616 72.5848 68.844 72.5488 69.012H68.1568C68.2408 70.392 69.0808 71.292 70.3288 71.292C70.9528 71.292 71.4688 71.088 71.9488 70.764L72.3448 71.496C71.7688 71.868 71.0848 72.168 70.1968 72.168ZM68.1448 68.22H71.6368C71.6368 66.912 71.0488 66.204 70.0168 66.204C69.1048 66.204 68.2888 66.936 68.1448 68.22ZM74.2134 72V65.484H75.1014L75.2094 66.672H75.2454C75.6894 65.844 76.3614 65.328 77.0934 65.328C77.3814 65.328 77.5734 65.364 77.7894 65.46L77.5854 66.42C77.3574 66.348 77.2134 66.312 76.9494 66.312C76.4094 66.312 75.7374 66.708 75.3054 67.824V72H74.2134ZM84.8973 72.168C82.6773 72.168 81.1413 70.392 81.1413 67.572C81.1413 64.752 82.6773 63.048 84.8973 63.048C87.1053 63.048 88.6413 64.764 88.6413 67.572C88.6413 70.392 87.1053 72.168 84.8973 72.168ZM84.8973 71.244C86.4693 71.244 87.5133 69.828 87.5133 67.572C87.5133 65.376 86.4693 64.02 84.8973 64.02C83.3133 64.02 82.2813 65.376 82.2813 67.572C82.2813 69.828 83.3133 71.244 84.8973 71.244ZM87.5853 74.22C85.9053 74.22 84.7653 73.26 84.2973 71.976L85.4493 71.892C85.7973 72.816 86.6613 73.284 87.7053 73.284C88.1013 73.284 88.3893 73.236 88.6293 73.152L88.8453 74.016C88.5693 74.124 88.1133 74.22 87.5853 74.22ZM92.3516 72.168C90.9836 72.168 90.3596 71.28 90.3596 69.612V65.484H91.4516V69.48C91.4516 70.692 91.8236 71.208 92.6876 71.208C93.3476 71.208 93.8276 70.884 94.4396 70.116V65.484H95.5316V72H94.6316L94.5356 70.98H94.5116C93.8996 71.688 93.2516 72.168 92.3516 72.168ZM99.2446 72.168C98.1526 72.168 97.3366 71.484 97.3366 70.308C97.3366 68.892 98.5606 68.184 101.333 67.872C101.333 67.032 101.069 66.228 100.001 66.228C99.2326 66.228 98.5486 66.588 98.0446 66.936L97.6126 66.168C98.2126 65.784 99.1246 65.328 100.169 65.328C101.765 65.328 102.437 66.384 102.437 68.004V72H101.537L101.441 71.232H101.393C100.781 71.748 100.049 72.168 99.2446 72.168ZM99.5446 71.28C100.181 71.28 100.709 70.98 101.333 70.416V68.604C99.1366 68.856 98.4046 69.396 98.4046 70.236C98.4046 70.98 98.9086 71.28 99.5446 71.28ZM104.506 72V65.484H105.394L105.502 66.432H105.538C106.15 65.82 106.822 65.328 107.722 65.328C109.09 65.328 109.714 66.216 109.714 67.872V72H108.61V68.016C108.61 66.792 108.238 66.276 107.374 66.276C106.714 66.276 106.246 66.624 105.598 67.272V72H104.506ZM113.871 72.168C112.479 72.168 112.023 71.292 112.023 69.996V66.372H111.051V65.556L112.071 65.484L112.191 63.648H113.115V65.484H114.879V66.372H113.115V70.02C113.115 70.812 113.367 71.28 114.123 71.28C114.351 71.28 114.651 71.184 114.855 71.1L115.071 71.916C114.711 72.048 114.279 72.168 113.871 72.168ZM116.354 72V65.484H117.446V72H116.354ZM116.906 64.14C116.474 64.14 116.174 63.864 116.174 63.408C116.174 62.988 116.474 62.712 116.906 62.712C117.326 62.712 117.638 62.988 117.638 63.408C117.638 63.864 117.326 64.14 116.906 64.14ZM121.699 72.168C120.307 72.168 119.851 71.292 119.851 69.996V66.372H118.879V65.556L119.899 65.484L120.019 63.648H120.943V65.484H122.707V66.372H120.943V70.02C120.943 70.812 121.195 71.28 121.951 71.28C122.179 71.28 122.479 71.184 122.683 71.1L122.899 71.916C122.539 72.048 122.107 72.168 121.699 72.168ZM124.278 74.82C123.978 74.82 123.726 74.772 123.522 74.688L123.738 73.812C123.858 73.86 124.05 73.908 124.23 73.908C124.962 73.908 125.43 73.308 125.706 72.504L125.85 72.012L123.234 65.484H124.362L125.694 69.108C125.898 69.684 126.114 70.344 126.33 70.944H126.39C126.57 70.344 126.762 69.696 126.93 69.108L128.106 65.484H129.174L126.714 72.552C126.258 73.836 125.586 74.82 124.278 74.82Z" fill="#2C59CE"/>
<path d="M114.181 223.622C114.181 242.369 121.629 260.349 134.885 273.605C148.141 286.861 166.121 294.309 184.868 294.309C203.616 294.309 221.595 286.861 234.851 273.605C248.108 260.349 255.555 242.369 255.555 223.622L184.868 223.622L114.181 223.622Z" fill="#D9D9D9"/>
<path d="M131.318 223.195C131.318 236.829 136.734 249.905 146.375 259.546C156.016 269.187 169.092 274.604 182.726 274.604C196.361 274.604 209.437 269.187 219.078 259.546C228.719 249.905 234.563 236.829 234.563 223.195" stroke="black" stroke-width="0.428405" stroke-dasharray="1.71 1.71"/>
<path d="M148.454 223.196C148.454 232.058 152.05 240.557 158.45 246.824C164.851 253.091 173.532 256.611 182.584 256.611C191.636 256.611 200.317 253.091 206.718 246.824C213.119 240.557 216.999 232.058 216.999 223.196" stroke="black" stroke-width="0.428405" stroke-dasharray="1.71 1.71"/>
<circle cx="3.42724" cy="3.42724" r="3.42724" transform="matrix(-4.37114e-08 -1 -1 4.37114e-08 157.879 269.463)" fill="#1E252C"/>
<circle cx="3.42724" cy="3.42724" r="3.42724" transform="matrix(-4.37114e-08 -1 -1 4.37114e-08 215.286 269.463)" fill="#1E252C"/>
<circle cx="3.42724" cy="3.42724" r="3.42724" transform="matrix(-4.37114e-08 -1 -1 4.37114e-08 139.886 248.043)" fill="#1E252C"/>
<circle cx="3.42724" cy="3.42724" r="3.42724" transform="matrix(-4.37114e-08 -1 -1 4.37114e-08 233.279 248.043)" fill="#1E252C"/>
<circle cx="3.42724" cy="3.42724" r="3.42724" transform="matrix(-4.37114e-08 -1 -1 4.37114e-08 186.154 278.031)" fill="#1E252C"/>
<circle cx="3.42724" cy="3.42724" r="3.42724" transform="matrix(-4.37114e-08 -1 -1 4.37114e-08 185.854 259.855)" fill="#1E252C"/>
<circle cx="3.42724" cy="3.42724" r="3.42724" transform="matrix(-4.37114e-08 -1 -1 4.37114e-08 158.736 246.328)" fill="#1E252C"/>
<circle cx="3.42724" cy="3.42724" r="3.42724" transform="matrix(-4.37114e-08 -1 -1 4.37114e-08 213.572 246.328)" fill="#1E252C"/>
<line x1="184" y1="293.724" x2="268" y2="293.724" stroke="black" stroke-width="0.551008"/>
<line x1="188" y1="274.724" x2="268" y2="274.724" stroke="black" stroke-width="0.551008"/>
<line x1="188" y1="255.724" x2="268" y2="255.725" stroke="black" stroke-width="0.551008"/>
<line y1="-0.275504" x2="37.6997" y2="-0.275504" transform="matrix(4.37114e-08 -1 -1 -4.37114e-08 260 294.309)" stroke="black" stroke-width="0.551008"/>
<path d="M182.57 285.488C149.951 285.488 129.123 256.285 126.919 245.265C124.715 234.245 137.388 233.126 141.245 232.024C145.102 230.922 157.775 229.836 163.285 239.204C168.795 248.571 174.856 250.224 182.57 250.224C190.285 250.224 197.448 247.469 200.754 239.204C202.863 233.93 212.325 230.387 223.896 232.024C235.467 233.661 239.875 237.551 239.875 245.265C239.875 252.08 223.345 285.488 182.57 285.488Z" stroke="#CE2C3F" stroke-dasharray="0.99 0.99"/>
<path d="M183.176 281.631C159.997 281.631 146.755 270.181 146.755 263.448C146.755 256.714 154.469 257.537 158.326 260.693C162.183 263.848 166.04 265.652 169.346 266.754C172.652 267.856 177.694 268.958 183.176 268.958C188.657 268.958 194.521 268.38 197.448 266.754C202.407 263.999 204.611 262.346 209.57 259.04C214.529 255.733 221.032 260.963 219.488 266.754C217.284 275.019 197.448 281.631 183.176 281.631Z" stroke="#2C59CE" stroke-dasharray="0.99 0.99"/>
<path d="M247.569 242.939C245.349 242.939 243.813 241.163 243.813 238.343C243.813 235.523 245.349 233.819 247.569 233.819C249.777 233.819 251.313 235.535 251.313 238.343C251.313 241.163 249.777 242.939 247.569 242.939ZM247.569 242.015C249.141 242.015 250.185 240.599 250.185 238.343C250.185 236.147 249.141 234.791 247.569 234.791C245.985 234.791 244.953 236.147 244.953 238.343C244.953 240.599 245.985 242.015 247.569 242.015ZM250.257 244.991C248.577 244.991 247.437 244.031 246.969 242.747L248.121 242.663C248.469 243.587 249.333 244.055 250.377 244.055C250.773 244.055 251.061 244.007 251.301 243.923L251.517 244.787C251.241 244.895 250.785 244.991 250.257 244.991ZM255.024 242.939C253.656 242.939 253.032 242.051 253.032 240.383V236.255H254.124V240.251C254.124 241.463 254.496 241.979 255.36 241.979C256.02 241.979 256.5 241.655 257.112 240.887V236.255H258.204V242.771H257.304L257.208 241.751H257.184C256.572 242.459 255.924 242.939 255.024 242.939ZM261.917 242.939C260.825 242.939 260.009 242.255 260.009 241.079C260.009 239.663 261.233 238.955 264.005 238.643C264.005 237.803 263.741 236.999 262.673 236.999C261.905 236.999 261.221 237.359 260.717 237.707L260.285 236.939C260.885 236.555 261.797 236.099 262.841 236.099C264.437 236.099 265.109 237.155 265.109 238.775V242.771H264.209L264.113 242.003H264.065C263.453 242.519 262.721 242.939 261.917 242.939ZM262.217 242.051C262.853 242.051 263.381 241.751 264.005 241.187V239.375C261.809 239.627 261.077 240.167 261.077 241.007C261.077 241.751 261.581 242.051 262.217 242.051ZM267.178 242.771V236.255H268.066L268.174 237.203H268.21C268.822 236.591 269.494 236.099 270.394 236.099C271.762 236.099 272.386 236.987 272.386 238.643V242.771H271.282V238.787C271.282 237.563 270.91 237.047 270.046 237.047C269.386 237.047 268.918 237.395 268.27 238.043V242.771H267.178ZM276.543 242.939C275.151 242.939 274.695 242.063 274.695 240.767V237.143H273.723V236.327L274.743 236.255L274.863 234.419H275.787V236.255H277.551V237.143H275.787V240.791C275.787 241.583 276.039 242.051 276.795 242.051C277.023 242.051 277.323 241.955 277.527 241.871L277.743 242.687C277.383 242.819 276.951 242.939 276.543 242.939ZM279.026 242.771V236.255H280.118V242.771H279.026ZM279.578 234.911C279.146 234.911 278.846 234.635 278.846 234.179C278.846 233.759 279.146 233.483 279.578 233.483C279.998 233.483 280.31 233.759 280.31 234.179C280.31 234.635 279.998 234.911 279.578 234.911ZM284.371 242.939C282.979 242.939 282.523 242.063 282.523 240.767V237.143H281.551V236.327L282.571 236.255L282.691 234.419H283.615V236.255H285.379V237.143H283.615V240.791C283.615 241.583 283.867 242.051 284.623 242.051C284.851 242.051 285.151 241.955 285.355 241.871L285.571 242.687C285.211 242.819 284.779 242.939 284.371 242.939ZM286.95 245.591C286.65 245.591 286.398 245.543 286.194 245.459L286.41 244.583C286.53 244.631 286.722 244.679 286.902 244.679C287.634 244.679 288.102 244.079 288.378 243.275L288.522 242.783L285.906 236.255H287.034L288.366 239.879C288.57 240.455 288.786 241.115 289.002 241.715H289.062C289.242 241.115 289.434 240.467 289.602 239.879L290.778 236.255H291.846L289.386 243.323C288.93 244.607 288.258 245.591 286.95 245.591Z" fill="#CE2C3F"/>
<path d="M21.2 270V261.204H26.264V262.14H22.316V265.128H25.664V266.052H22.316V270H21.2ZM27.7251 270V263.484H28.8171V270H27.7251ZM28.2771 262.14C27.8451 262.14 27.5451 261.864 27.5451 261.408C27.5451 260.988 27.8451 260.712 28.2771 260.712C28.6971 260.712 29.0091 260.988 29.0091 261.408C29.0091 261.864 28.6971 262.14 28.2771 262.14ZM31.0298 270V263.484H31.9178L32.0258 264.672H32.0618C32.5058 263.844 33.1778 263.328 33.9098 263.328C34.1978 263.328 34.3898 263.364 34.6058 263.46L34.4018 264.42C34.1738 264.348 34.0298 264.312 33.7658 264.312C33.2258 264.312 32.5538 264.708 32.1218 265.824V270H31.0298ZM37.3041 270.168C36.3801 270.168 35.4801 269.772 34.8681 269.268L35.4081 268.536C35.9721 268.992 36.5481 269.316 37.3281 269.316C38.1921 269.316 38.6241 268.86 38.6241 268.284C38.6241 267.624 37.8441 267.324 37.1241 267.06C36.2241 266.712 35.2281 266.28 35.2281 265.164C35.2281 264.132 36.0561 263.328 37.4721 263.328C38.2761 263.328 38.9961 263.652 39.5001 264.06L38.9721 264.756C38.5281 264.432 38.0601 264.18 37.4841 264.18C36.6561 264.18 36.2841 264.612 36.2841 265.116C36.2841 265.74 36.9441 265.98 37.6881 266.244C38.6361 266.604 39.6681 266.988 39.6681 268.224C39.6681 269.292 38.8401 270.168 37.3041 270.168ZM42.9487 270.168C41.5567 270.168 41.1007 269.292 41.1007 267.996V264.372H40.1287V263.556L41.1487 263.484L41.2687 261.648H42.1927V263.484H43.9567V264.372H42.1927V268.02C42.1927 268.812 42.4447 269.28 43.2007 269.28C43.4287 269.28 43.7287 269.184 43.9327 269.1L44.1487 269.916C43.7887 270.048 43.3567 270.168 42.9487 270.168ZM48.2117 270V261.204H49.3277V269.064H53.1677V270H48.2117ZM56.1313 270.168C55.0393 270.168 54.2233 269.484 54.2233 268.308C54.2233 266.892 55.4473 266.184 58.2193 265.872C58.2193 265.032 57.9553 264.228 56.8873 264.228C56.1193 264.228 55.4353 264.588 54.9313 264.936L54.4993 264.168C55.0993 263.784 56.0113 263.328 57.0553 263.328C58.6513 263.328 59.3233 264.384 59.3233 266.004V270H58.4233L58.3273 269.232H58.2793C57.6673 269.748 56.9353 270.168 56.1313 270.168ZM56.4313 269.28C57.0673 269.28 57.5953 268.98 58.2193 268.416V266.604C56.0233 266.856 55.2913 267.396 55.2913 268.236C55.2913 268.98 55.7953 269.28 56.4313 269.28ZM61.4891 272.82C61.1891 272.82 60.9371 272.772 60.7331 272.688L60.9491 271.812C61.0691 271.86 61.2611 271.908 61.4411 271.908C62.1731 271.908 62.6411 271.308 62.9171 270.504L63.0611 270.012L60.4451 263.484H61.5731L62.9051 267.108C63.1091 267.684 63.3251 268.344 63.5411 268.944H63.6011C63.7811 268.344 63.9731 267.696 64.1411 267.108L65.3171 263.484H66.3851L63.9251 270.552C63.4691 271.836 62.7971 272.82 61.4891 272.82ZM70.1968 270.168C68.4568 270.168 67.0768 268.896 67.0768 266.76C67.0768 264.636 68.5048 263.328 70.0048 263.328C71.6608 263.328 72.5968 264.516 72.5968 266.388C72.5968 266.616 72.5848 266.844 72.5488 267.012H68.1568C68.2408 268.392 69.0808 269.292 70.3288 269.292C70.9528 269.292 71.4688 269.088 71.9488 268.764L72.3448 269.496C71.7688 269.868 71.0848 270.168 70.1968 270.168ZM68.1448 266.22H71.6368C71.6368 264.912 71.0488 264.204 70.0168 264.204C69.1048 264.204 68.2888 264.936 68.1448 266.22ZM74.2134 270V263.484H75.1014L75.2094 264.672H75.2454C75.6894 263.844 76.3614 263.328 77.0934 263.328C77.3814 263.328 77.5734 263.364 77.7894 263.46L77.5854 264.42C77.3574 264.348 77.2134 264.312 76.9494 264.312C76.4094 264.312 75.7374 264.708 75.3054 265.824V270H74.2134ZM84.8973 270.168C82.6773 270.168 81.1413 268.392 81.1413 265.572C81.1413 262.752 82.6773 261.048 84.8973 261.048C87.1053 261.048 88.6413 262.764 88.6413 265.572C88.6413 268.392 87.1053 270.168 84.8973 270.168ZM84.8973 269.244C86.4693 269.244 87.5133 267.828 87.5133 265.572C87.5133 263.376 86.4693 262.02 84.8973 262.02C83.3133 262.02 82.2813 263.376 82.2813 265.572C82.2813 267.828 83.3133 269.244 84.8973 269.244ZM87.5853 272.22C85.9053 272.22 84.7653 271.26 84.2973 269.976L85.4493 269.892C85.7973 270.816 86.6613 271.284 87.7053 271.284C88.1013 271.284 88.3893 271.236 88.6293 271.152L88.8453 272.016C88.5693 272.124 88.1133 272.22 87.5853 272.22ZM92.3516 270.168C90.9836 270.168 90.3596 269.28 90.3596 267.612V263.484H91.4516V267.48C91.4516 268.692 91.8236 269.208 92.6876 269.208C93.3476 269.208 93.8276 268.884 94.4396 268.116V263.484H95.5316V270H94.6316L94.5356 268.98H94.5116C93.8996 269.688 93.2516 270.168 92.3516 270.168ZM99.2446 270.168C98.1526 270.168 97.3366 269.484 97.3366 268.308C97.3366 266.892 98.5606 266.184 101.333 265.872C101.333 265.032 101.069 264.228 100.001 264.228C99.2326 264.228 98.5486 264.588 98.0446 264.936L97.6126 264.168C98.2126 263.784 99.1246 263.328 100.169 263.328C101.765 263.328 102.437 264.384 102.437 266.004V270H101.537L101.441 269.232H101.393C100.781 269.748 100.049 270.168 99.2446 270.168ZM99.5446 269.28C100.181 269.28 100.709 268.98 101.333 268.416V266.604C99.1366 266.856 98.4046 267.396 98.4046 268.236C98.4046 268.98 98.9086 269.28 99.5446 269.28ZM104.506 270V263.484H105.394L105.502 264.432H105.538C106.15 263.82 106.822 263.328 107.722 263.328C109.09 263.328 109.714 264.216 109.714 265.872V270H108.61V266.016C108.61 264.792 108.238 264.276 107.374 264.276C106.714 264.276 106.246 264.624 105.598 265.272V270H104.506ZM113.871 270.168C112.479 270.168 112.023 269.292 112.023 267.996V264.372H111.051V263.556L112.071 263.484L112.191 261.648H113.115V263.484H114.879V264.372H113.115V268.02C113.115 268.812 113.367 269.28 114.123 269.28C114.351 269.28 114.651 269.184 114.855 269.1L115.071 269.916C114.711 270.048 114.279 270.168 113.871 270.168ZM116.354 270V263.484H117.446V270H116.354ZM116.906 262.14C116.474 262.14 116.174 261.864 116.174 261.408C116.174 260.988 116.474 260.712 116.906 260.712C117.326 260.712 117.638 260.988 117.638 261.408C117.638 261.864 117.326 262.14 116.906 262.14ZM121.699 270.168C120.307 270.168 119.851 269.292 119.851 267.996V264.372H118.879V263.556L119.899 263.484L120.019 261.648H120.943V263.484H122.707V264.372H120.943V268.02C120.943 268.812 121.195 269.28 121.951 269.28C122.179 269.28 122.479 269.184 122.683 269.1L122.899 269.916C122.539 270.048 122.107 270.168 121.699 270.168ZM124.278 272.82C123.978 272.82 123.726 272.772 123.522 272.688L123.738 271.812C123.858 271.86 124.05 271.908 124.23 271.908C124.962 271.908 125.43 271.308 125.706 270.504L125.85 270.012L123.234 263.484H124.362L125.694 267.108C125.898 267.684 126.114 268.344 126.33 268.944H126.39C126.57 268.344 126.762 267.696 126.93 267.108L128.106 263.484H129.174L126.714 270.552C126.258 271.836 125.586 272.82 124.278 272.82Z" fill="#2C59CE"/>
<rect x="148" width="71" height="19" fill="#496071"/>
<path d="M157.404 14.168C155.436 14.168 154.116 13.088 154.116 10.22V5.168H155.508V10.304C155.508 12.296 156.3 12.944 157.404 12.944C158.508 12.944 159.336 12.296 159.336 10.304V5.168H160.68V10.22C160.68 13.088 159.36 14.168 157.404 14.168ZM162.833 16.676V7.4H163.961L164.081 8.132H164.117C164.693 7.64 165.401 7.232 166.145 7.232C167.813 7.232 168.761 8.564 168.761 10.604C168.761 12.86 167.405 14.168 165.917 14.168C165.329 14.168 164.729 13.904 164.177 13.424L164.225 14.54V16.676H162.833ZM165.653 13.016C166.601 13.016 167.333 12.164 167.333 10.616C167.333 9.236 166.877 8.384 165.773 8.384C165.269 8.384 164.777 8.66 164.225 9.188V12.416C164.741 12.86 165.245 13.016 165.653 13.016ZM170.391 16.676V7.4H171.519L171.639 8.132H171.675C172.251 7.64 172.959 7.232 173.703 7.232C175.371 7.232 176.319 8.564 176.319 10.604C176.319 12.86 174.963 14.168 173.475 14.168C172.887 14.168 172.287 13.904 171.735 13.424L171.783 14.54V16.676H170.391ZM173.211 13.016C174.159 13.016 174.891 12.164 174.891 10.616C174.891 9.236 174.435 8.384 173.331 8.384C172.827 8.384 172.335 8.66 171.783 9.188V12.416C172.299 12.86 172.803 13.016 173.211 13.016ZM180.71 14.168C178.91 14.168 177.494 12.884 177.494 10.712C177.494 8.564 178.97 7.232 180.506 7.232C182.246 7.232 183.194 8.492 183.194 10.364C183.194 10.64 183.17 10.904 183.134 11.072H178.85C178.958 12.332 179.75 13.076 180.89 13.076C181.478 13.076 181.97 12.896 182.462 12.584L182.942 13.472C182.33 13.88 181.574 14.168 180.71 14.168ZM178.826 10.112H181.994C181.994 8.972 181.49 8.324 180.53 8.324C179.702 8.324 178.97 8.96 178.826 10.112ZM184.747 14V7.4H185.875L185.995 8.588H186.031C186.499 7.736 187.195 7.232 187.903 7.232C188.227 7.232 188.431 7.28 188.635 7.376L188.395 8.576C188.167 8.504 187.999 8.468 187.723 8.468C187.195 8.468 186.547 8.852 186.139 9.896V14H184.747ZM194.152 14.168C193.24 14.168 192.304 13.784 191.668 13.256L192.316 12.356C192.904 12.812 193.468 13.112 194.188 13.112C194.968 13.112 195.34 12.728 195.34 12.224C195.34 11.636 194.596 11.36 193.888 11.096C193 10.76 192.028 10.292 192.028 9.164C192.028 8.06 192.916 7.232 194.392 7.232C195.268 7.232 196 7.592 196.528 8.012L195.88 8.864C195.424 8.54 194.956 8.288 194.416 8.288C193.684 8.288 193.348 8.648 193.348 9.104C193.348 9.668 193.984 9.884 194.716 10.148C195.64 10.496 196.648 10.916 196.648 12.152C196.648 13.268 195.772 14.168 194.152 14.168ZM198.118 14V7.4H199.51V14H198.118ZM198.814 6.164C198.298 6.164 197.962 5.84 197.962 5.336C197.962 4.844 198.298 4.52 198.814 4.52C199.318 4.52 199.678 4.844 199.678 5.336C199.678 5.84 199.318 6.164 198.814 6.164ZM203.855 14.168C202.199 14.168 201.143 12.896 201.143 10.712C201.143 8.564 202.499 7.232 203.963 7.232C204.719 7.232 205.211 7.52 205.739 7.976L205.679 6.884V4.448H207.071V14H205.931L205.823 13.268H205.787C205.283 13.772 204.599 14.168 203.855 14.168ZM204.191 13.016C204.731 13.016 205.211 12.764 205.679 12.212V8.996C205.199 8.552 204.731 8.384 204.239 8.384C203.315 8.384 202.571 9.272 202.571 10.688C202.571 12.188 203.159 13.016 204.191 13.016ZM211.894 14.168C210.094 14.168 208.678 12.884 208.678 10.712C208.678 8.564 210.154 7.232 211.69 7.232C213.43 7.232 214.378 8.492 214.378 10.364C214.378 10.64 214.354 10.904 214.318 11.072H210.034C210.142 12.332 210.934 13.076 212.074 13.076C212.662 13.076 213.154 12.896 213.646 12.584L214.126 13.472C213.514 13.88 212.758 14.168 211.894 14.168ZM210.01 10.112H213.178C213.178 8.972 212.674 8.324 211.714 8.324C210.886 8.324 210.154 8.96 210.01 10.112Z" fill="white"/>
<rect x="145" y="310" width="75" height="19" fill="#496071"/>
<path d="M155.404 324.168C153.436 324.168 152.116 323.088 152.116 320.22V315.168H153.508V320.304C153.508 322.296 154.3 322.944 155.404 322.944C156.508 322.944 157.336 322.296 157.336 320.304V315.168H158.68V320.22C158.68 323.088 157.36 324.168 155.404 324.168ZM160.833 324V317.4H161.961L162.081 318.324H162.117C162.717 317.724 163.401 317.232 164.301 317.232C165.705 317.232 166.329 318.18 166.329 319.848V324H164.937V320.028C164.937 318.876 164.601 318.432 163.833 318.432C163.221 318.432 162.801 318.744 162.225 319.32V324H160.833ZM170.601 324.168C168.945 324.168 167.889 322.896 167.889 320.712C167.889 318.564 169.245 317.232 170.709 317.232C171.465 317.232 171.957 317.52 172.485 317.976L172.425 316.884V314.448H173.817V324H172.677L172.569 323.268H172.533C172.029 323.772 171.345 324.168 170.601 324.168ZM170.937 323.016C171.477 323.016 171.957 322.764 172.425 322.212V318.996C171.945 318.552 171.477 318.384 170.985 318.384C170.061 318.384 169.317 319.272 169.317 320.688C169.317 322.188 169.905 323.016 170.937 323.016ZM178.64 324.168C176.84 324.168 175.424 322.884 175.424 320.712C175.424 318.564 176.9 317.232 178.436 317.232C180.176 317.232 181.124 318.492 181.124 320.364C181.124 320.64 181.1 320.904 181.064 321.072H176.78C176.888 322.332 177.68 323.076 178.82 323.076C179.408 323.076 179.9 322.896 180.392 322.584L180.872 323.472C180.26 323.88 179.504 324.168 178.64 324.168ZM176.756 320.112H179.924C179.924 318.972 179.42 318.324 178.46 318.324C177.632 318.324 176.9 318.96 176.756 320.112ZM182.677 324V317.4H183.805L183.925 318.588H183.961C184.429 317.736 185.125 317.232 185.833 317.232C186.157 317.232 186.361 317.28 186.565 317.376L186.325 318.576C186.097 318.504 185.929 318.468 185.653 318.468C185.125 318.468 184.477 318.852 184.069 319.896V324H182.677ZM192.082 324.168C191.17 324.168 190.234 323.784 189.598 323.256L190.246 322.356C190.834 322.812 191.398 323.112 192.118 323.112C192.898 323.112 193.27 322.728 193.27 322.224C193.27 321.636 192.526 321.36 191.818 321.096C190.93 320.76 189.958 320.292 189.958 319.164C189.958 318.06 190.846 317.232 192.322 317.232C193.198 317.232 193.93 317.592 194.458 318.012L193.81 318.864C193.354 318.54 192.886 318.288 192.346 318.288C191.614 318.288 191.278 318.648 191.278 319.104C191.278 319.668 191.914 319.884 192.646 320.148C193.57 320.496 194.578 320.916 194.578 322.152C194.578 323.268 193.702 324.168 192.082 324.168ZM196.048 324V317.4H197.44V324H196.048ZM196.744 316.164C196.228 316.164 195.892 315.84 195.892 315.336C195.892 314.844 196.228 314.52 196.744 314.52C197.248 314.52 197.608 314.844 197.608 315.336C197.608 315.84 197.248 316.164 196.744 316.164ZM201.785 324.168C200.129 324.168 199.073 322.896 199.073 320.712C199.073 318.564 200.429 317.232 201.893 317.232C202.649 317.232 203.141 317.52 203.669 317.976L203.609 316.884V314.448H205.001V324H203.861L203.753 323.268H203.717C203.213 323.772 202.529 324.168 201.785 324.168ZM202.121 323.016C202.661 323.016 203.141 322.764 203.609 322.212V318.996C203.129 318.552 202.661 318.384 202.169 318.384C201.245 318.384 200.501 319.272 200.501 320.688C200.501 322.188 201.089 323.016 202.121 323.016ZM209.823 324.168C208.023 324.168 206.607 322.884 206.607 320.712C206.607 318.564 208.083 317.232 209.619 317.232C211.359 317.232 212.307 318.492 212.307 320.364C212.307 320.64 212.283 320.904 212.247 321.072H207.963C208.071 322.332 208.863 323.076 210.003 323.076C210.591 323.076 211.083 322.896 211.575 322.584L212.055 323.472C211.443 323.88 210.687 324.168 209.823 324.168ZM207.939 320.112H211.107C211.107 318.972 210.603 318.324 209.643 318.324C208.815 318.324 208.083 318.96 207.939 320.112Z" fill="white"/>
</svg>
