<svg width="220" height="296" viewBox="0 0 220 296" fill="none" xmlns="http://www.w3.org/2000/svg">
<circle cx="109.38" cy="163.397" r="88.5636" fill="#D9D9D9" stroke="black" stroke-width="1.63251"/>
<circle cx="108.564" cy="163.398" r="75.5035" stroke="black" stroke-width="1.63251"/>
<path d="M20 65.8555L24.0813 68.2118L24.0813 63.4991L20 65.8555ZM198.76 65.8555L194.678 63.4991L194.678 68.2118L198.76 65.8555ZM23.6731 66.2636L195.087 66.2636L195.087 65.4473L23.6731 65.4473L23.6731 66.2636Z" fill="black"/>
<path d="M90.9369 49.62H88.5969C88.3209 50.22 88.0329 50.784 87.7089 51.288C88.4889 51.744 89.3769 52.344 89.9529 52.86C90.3729 51.912 90.7089 50.832 90.9369 49.62ZM94.3569 46.968V52.476C95.2089 53.28 96.1809 53.94 97.1289 54.372C96.9249 54.54 96.6489 54.888 96.4929 55.128C95.7729 54.756 95.0409 54.24 94.3569 53.64V57.888H93.4449V52.764C92.7609 52.032 92.1369 51.228 91.6569 50.412C90.7809 54.192 88.9809 56.58 86.7009 57.852C86.5449 57.648 86.2089 57.324 85.9929 57.192C87.4209 56.448 88.6329 55.284 89.5449 53.664C88.9929 53.136 88.0809 52.464 87.2529 51.96C87.0009 52.296 86.7369 52.608 86.4609 52.884C86.3169 52.728 85.9329 52.44 85.7289 52.308C87.0489 51.084 88.0449 49.104 88.5969 46.956L89.4729 47.136C89.3169 47.7 89.1369 48.264 88.9329 48.792H91.1889L91.3569 48.744L91.9329 48.96C91.8849 49.308 91.8129 49.644 91.7529 49.968L92.2209 49.788C92.5449 50.388 92.9649 50.976 93.4449 51.54V46.968H94.3569ZM100.477 46.968L101.317 47.304C100.597 48.372 99.4089 49.524 98.3049 50.232C98.2089 50.04 97.9809 49.68 97.8369 49.512C98.8209 48.876 99.9249 47.844 100.477 46.968ZM100.873 49.32L101.677 49.62C101.341 50.184 100.933 50.748 100.489 51.288V57.9H99.6249V52.248C99.1569 52.728 98.6649 53.16 98.1969 53.532C98.1009 53.34 97.8249 52.908 97.6689 52.716C98.8689 51.9 100.117 50.616 100.873 49.32ZM107.029 48.36H103.405C103.825 49.152 104.425 49.86 105.169 50.436C105.937 49.86 106.585 49.164 107.029 48.36ZM107.665 47.556L108.241 47.82C107.713 49.092 106.873 50.112 105.865 50.928C106.777 51.504 107.857 51.924 109.045 52.164C108.853 52.356 108.601 52.692 108.481 52.932C107.233 52.62 106.105 52.116 105.145 51.444C104.089 52.14 102.889 52.644 101.665 52.992C101.569 52.776 101.365 52.452 101.209 52.284C102.349 51.996 103.477 51.54 104.473 50.916C103.705 50.256 103.081 49.476 102.625 48.576L103.249 48.36H101.869V47.592H107.509L107.665 47.556ZM105.565 54.864V56.748H108.829V57.552H101.269V56.748H104.701V54.864H102.025V54.096H104.701V52.488H105.565V54.096H108.181V54.864H105.565ZM115.357 50.472C114.877 50.472 114.445 50.124 114.445 49.572C114.445 49.02 114.877 48.672 115.357 48.672C115.837 48.672 116.269 49.02 116.269 49.572C116.269 50.124 115.837 50.472 115.357 50.472ZM115.357 56.352C114.877 56.352 114.445 55.992 114.445 55.452C114.445 54.9 114.877 54.54 115.357 54.54C115.837 54.54 116.269 54.9 116.269 55.452C116.269 55.992 115.837 56.352 115.357 56.352ZM122.557 57V48.204H125.173C126.961 48.204 128.197 48.804 128.197 50.352C128.197 51.228 127.729 51.996 126.901 52.26V52.32C127.957 52.524 128.701 53.22 128.701 54.42C128.701 56.148 127.333 57 125.365 57H122.557ZM123.673 51.948H124.981C126.493 51.948 127.105 51.384 127.105 50.496C127.105 49.464 126.397 49.08 125.029 49.08H123.673V51.948ZM123.673 56.112H125.209C126.721 56.112 127.609 55.572 127.609 54.384C127.609 53.292 126.745 52.8 125.209 52.8H123.673V56.112Z" fill="black"/>
<line x1="19.5919" y1="162.174" x2="19.5919" y2="58.5095" stroke="black" stroke-width="0.816254"/>
<line x1="199.168" y1="162.174" x2="199.168" y2="58.5095" stroke="black" stroke-width="0.816254"/>
<circle cx="108.972" cy="91.976" r="3.26502" fill="black"/>
<circle cx="37.1414" cy="162.173" r="3.26502" fill="black"/>
<circle cx="179.986" cy="162.173" r="3.26502" fill="black"/>
<circle cx="108.972" cy="234.82" r="3.26502" fill="black"/>
<circle cx="159.793" cy="113.562" r="3.26502" fill="black"/>
<circle cx="59.3053" cy="111.591" r="3.26502" fill="black"/>
<circle cx="159.554" cy="213.472" r="3.26502" fill="black"/>
<circle cx="58.7283" cy="214.626" r="3.26502" fill="black"/>
</svg>
