<svg xmlns="http://www.w3.org/2000/svg" width="300" height="296" viewBox="0 0 300 296" fill="none">
<rect width="300" height="296" fill="white"/>
<rect x="265.706" y="107.389" width="106.247" height="225.855" rx="52.4874" transform="rotate(90 265.706 107.389)" fill="#D9D9D9" stroke="black" stroke-width="1.27242"/>
<rect x="260.616" y="112.479" width="96.0678" height="215.039" rx="48.0339" transform="rotate(90 260.616 112.479)" fill="#D9D9D9" stroke="black" stroke-width="1.27242"/>
<path d="M93.1213 222.906L89.9805 221.001L89.9014 224.673L93.1213 222.906ZM47.9146 204.883L47.694 205.112L47.9146 204.883ZM47.9146 117.86L48.1352 118.089L47.9146 117.86ZM93.1213 99.8369L89.9014 98.0692L89.9805 101.742L93.1213 99.8369ZM90.2735 222.526C74.4343 221.844 59.3915 215.488 48.1352 204.653L47.694 205.112C59.0645 216.056 74.2555 222.473 90.2461 223.162L90.2735 222.526ZM48.1352 204.653C36.2066 193.172 29.5076 177.603 29.5076 161.371H28.8713C28.8713 177.78 35.6436 193.513 47.694 205.112L48.1352 204.653ZM29.5076 161.371C29.5076 145.14 36.2066 129.57 48.1352 118.089L47.6941 117.631C35.6436 129.229 28.8713 144.963 28.8713 161.371H29.5076ZM48.1352 118.089C59.3915 107.255 74.4343 100.899 90.2735 100.216L90.2461 99.5807C74.2555 100.27 59.0646 106.687 47.6941 117.631L48.1352 118.089Z" fill="black"/>
<circle cx="100.291" cy="115.66" r="2.54484" fill="black"/>
<circle cx="48.7577" cy="160.195" r="2.54484" fill="black"/>
<circle cx="51.3027" cy="144.925" r="2.54484" fill="black"/>
<circle cx="58.9374" cy="132.201" r="2.54484" fill="black"/>
<circle cx="69.7538" cy="122.021" r="2.54484" fill="black"/>
<circle cx="84.3847" cy="116.296" r="2.54484" fill="black"/>
<circle cx="222.443" cy="116.932" r="2.54484" fill="black"/>
<circle cx="257.435" cy="160.195" r="2.54484" fill="black"/>
<circle cx="222.443" cy="204.093" r="2.54484" fill="black"/>
<circle cx="237.076" cy="198.367" r="2.54484" fill="black"/>
<circle cx="237.076" cy="122.658" r="2.54484" fill="black"/>
<circle cx="247.256" cy="132.201" r="2.54484" fill="black"/>
<circle cx="247.256" cy="189.46" r="2.54484" fill="black"/>
<circle cx="254.891" cy="175.463" r="2.54484" fill="black"/>
<circle cx="254.891" cy="144.925" r="2.54484" fill="black"/>
<circle cx="84.3847" cy="204.093" r="2.54484" fill="black"/>
<circle cx="69.7538" cy="198.367" r="2.54484" fill="black"/>
<circle cx="58.9374" cy="188.824" r="2.54484" fill="black"/>
<circle cx="51.3027" cy="175.463" r="2.54484" fill="black"/>
<circle cx="113.65" cy="115.66" r="2.54484" fill="black"/>
<circle cx="127.012" cy="115.66" r="2.54484" fill="black"/>
<circle cx="140.371" cy="115.66" r="2.54484" fill="black"/>
<circle cx="153.732" cy="115.66" r="2.54484" fill="black"/>
<circle cx="167.094" cy="115.66" r="2.54484" fill="black"/>
<circle cx="180.453" cy="115.66" r="2.54484" fill="black"/>
<circle cx="193.814" cy="115.66" r="2.54484" fill="black"/>
<circle cx="207.174" cy="115.66" r="2.54484" fill="black"/>
<circle cx="100.291" cy="205.366" r="2.54484" fill="black"/>
<circle cx="113.65" cy="205.366" r="2.54484" fill="black"/>
<circle cx="127.012" cy="205.366" r="2.54484" fill="black"/>
<circle cx="140.371" cy="205.366" r="2.54484" fill="black"/>
<circle cx="153.732" cy="205.366" r="2.54484" fill="black"/>
<circle cx="167.094" cy="205.366" r="2.54484" fill="black"/>
<circle cx="180.453" cy="205.366" r="2.54484" fill="black"/>
<circle cx="193.814" cy="205.366" r="2.54484" fill="black"/>
<circle cx="207.174" cy="205.365" r="2.54484" fill="black"/>
<line x1="266.66" y1="160.194" x2="266.66" y2="50.7656" stroke="black" stroke-width="0.636211"/>
<line x1="214.49" y1="251.173" x2="214.49" y2="223.18" stroke="black" stroke-width="0.636211"/>
<line x1="93.6096" y1="251.173" x2="93.6096" y2="223.18" stroke="black" stroke-width="0.636211"/>
<line x1="92.9749" y1="99.1177" x2="92.9749" y2="75.5779" stroke="black" stroke-width="0.636211"/>
<line x1="214.387" y1="107.351" x2="285.802" y2="107.351" stroke="black" stroke-width="0.636211"/>
<line x1="214.387" y1="214.474" x2="285.802" y2="214.474" stroke="black" stroke-width="0.636211"/>
<line x1="38.8967" y1="160.194" x2="38.8967" y2="50.7656" stroke="black" stroke-width="0.636211"/>
<path d="M39.2148 58.0825L42.3959 59.9191L42.3959 56.2459L39.2148 58.0825ZM266.342 58.0825L263.161 56.246L263.161 59.9191L266.342 58.0825ZM42.0778 58.4006L263.479 58.4006L263.479 57.7644L42.0778 57.7644L42.0778 58.4006Z" fill="black"/>
<path d="M93.9277 239.084L97.1088 240.921L97.1088 237.248L93.9277 239.084ZM214.172 239.084L210.991 237.248L210.991 240.921L214.172 239.084ZM96.7907 239.403L211.309 239.403L211.309 238.766L96.7907 238.766L96.7907 239.403Z" fill="black"/>
<path d="M277.766 108.686L275.929 111.867L279.602 111.867L277.766 108.686ZM277.766 216.206L279.602 213.025L275.929 213.025L277.766 216.206ZM277.448 111.549L277.448 213.343L278.084 213.343L278.084 111.549L277.448 111.549Z" fill="black"/>
<path d="M150.257 53V44.204H152.861C154.649 44.204 155.885 44.816 155.885 46.364C155.885 47.228 155.429 47.996 154.601 48.272V48.32C155.657 48.524 156.389 49.232 156.389 50.432C156.389 52.148 155.021 53 153.065 53H150.257ZM151.373 47.948H152.669C154.181 47.948 154.793 47.396 154.793 46.496C154.793 45.464 154.097 45.08 152.729 45.08H151.373V47.948ZM151.373 52.124H152.909C154.409 52.124 155.309 51.584 155.309 50.396C155.309 49.304 154.445 48.8 152.909 48.8H151.373V52.124Z" fill="black"/>
<path d="M282.335 164V155.204H283.451V158.888H287.555V155.204H288.659V164H287.555V159.86H283.451V164H282.335Z" fill="black"/>
<path d="M145.036 249.504V248.544H140.464V249.504H145.036ZM145.036 251.124V250.152H140.464V251.124H145.036ZM145.036 252.78V251.772H140.464V252.78H145.036ZM139.612 247.86H141.436C141.484 247.56 141.532 247.236 141.568 246.888H136.792V246.06H141.652C141.688 245.652 141.712 245.256 141.724 244.92L142.744 244.992C142.708 245.34 142.66 245.7 142.612 246.06H147.256V246.888H142.492C142.444 247.236 142.384 247.56 142.336 247.86H145.912V253.44H139.612V247.86ZM147.364 254.472V255.288H138.28V255.924H137.416V248.196H138.28V254.472H147.364ZM149.104 251.76L149.86 251.892C149.692 253.02 149.416 254.172 149.032 254.94C148.9 254.832 148.54 254.676 148.372 254.616C148.744 253.884 148.972 252.804 149.104 251.76ZM152.104 250.8L151.156 250.86V255.912H150.364V250.908L148.48 251.028L148.396 250.224L149.224 250.188C149.464 249.888 149.716 249.552 149.968 249.192C149.62 248.652 149.02 247.968 148.48 247.452L148.96 246.888C149.08 246.996 149.2 247.104 149.32 247.224C149.716 246.54 150.136 245.628 150.388 244.968L151.168 245.256C150.76 246.084 150.244 247.056 149.788 247.728C150.04 247.992 150.256 248.256 150.436 248.496C150.928 247.752 151.384 246.972 151.72 246.324L152.464 246.672C151.78 247.764 150.88 249.12 150.064 250.14L151.792 250.056C151.624 249.708 151.444 249.36 151.252 249.048L151.9 248.784C152.404 249.552 152.884 250.584 153.064 251.244L152.356 251.568C152.308 251.34 152.224 251.076 152.104 250.8ZM151.564 251.928L152.224 251.736C152.524 252.408 152.776 253.284 152.86 253.86L152.164 254.076C152.104 253.5 151.864 252.612 151.564 251.928ZM154.924 251.412L155.416 251.604C154.996 253.5 154.048 254.748 152.872 255.432C152.752 255.24 152.476 254.94 152.308 254.82C153.268 254.316 154.048 253.416 154.456 252.192H152.836V251.424H154.792L154.924 251.412ZM154.096 248.628V249.672H158.128V248.628H154.096ZM154.096 246.912V247.944H158.128V246.912H154.096ZM158.68 250.92L159.4 251.448C158.836 251.964 158.14 252.54 157.552 252.948C158.056 253.668 158.74 254.304 159.664 254.7C159.508 254.868 159.244 255.192 159.124 255.42C157.84 254.76 157.012 253.644 156.508 252.516V254.964C156.508 255.408 156.424 255.636 156.112 255.768C155.812 255.888 155.344 255.9 154.588 255.9C154.564 255.684 154.456 255.348 154.348 255.132C154.876 255.144 155.368 255.144 155.5 255.132C155.656 255.132 155.692 255.096 155.692 254.964V250.404H153.28V246.192H155.248C155.44 245.784 155.62 245.304 155.728 244.944L156.712 245.136C156.544 245.496 156.34 245.868 156.16 246.192H158.98V250.404H156.508V250.56C156.652 251.148 156.88 251.772 157.192 252.348C157.72 251.916 158.308 251.34 158.68 250.92ZM166.54 246.288V247.068H160.852V246.288H163.252V245.004H164.104V246.288H166.54ZM165.064 249.468L164.344 249.288C164.572 248.736 164.872 247.848 165.016 247.248L165.856 247.452C165.604 248.148 165.316 248.94 165.064 249.468ZM162.88 249.252L162.112 249.432C162.052 248.904 161.836 248.1 161.584 247.488L162.328 247.332C162.604 247.92 162.82 248.736 162.88 249.252ZM165.172 252.228H162.172V254.436H165.172V252.228ZM161.344 255.924V251.436H166.036V255.852H165.172V255.216H162.172V255.924H161.344ZM160.54 250.392V249.576H166.708V250.392H160.54ZM170.86 245.628L171.508 246.048C171.016 247.176 170.404 248.556 169.84 249.648C171.04 250.752 171.34 251.7 171.352 252.552C171.352 253.284 171.184 253.836 170.764 254.112C170.548 254.256 170.296 254.34 169.984 254.376C169.684 254.412 169.288 254.412 168.94 254.4C168.928 254.148 168.844 253.764 168.688 253.512C169.06 253.548 169.384 253.548 169.636 253.536C169.816 253.524 170.008 253.488 170.152 253.404C170.404 253.248 170.476 252.888 170.476 252.456C170.476 251.7 170.14 250.812 168.928 249.768C169.42 248.76 169.948 247.464 170.32 246.504H168.052V255.912H167.188V245.664H170.716L170.86 245.628Z" fill="black"/>
<path d="M18.836 150.292H20.96V147.652H18.836V150.292ZM13.064 147.652V150.292H15.068V147.652H13.064ZM15.068 144.22H13.064V146.8H15.068V144.22ZM17.96 147.652H15.944V150.292H17.96V147.652ZM17.96 144.22H15.944V146.8H17.96V144.22ZM20.96 144.22H18.836V146.8H20.96V144.22ZM18.836 143.344H21.836V151.876H20.96V151.156H13.064V151.924H12.212V143.344H15.068V141.088H15.944V143.344H17.96V141.088H18.836V143.344ZM12.104 161.76L12.86 161.892C12.692 163.02 12.416 164.172 12.032 164.94C11.9 164.832 11.54 164.676 11.372 164.616C11.744 163.884 11.972 162.804 12.104 161.76ZM15.104 160.8L14.156 160.86V165.912H13.364V160.908L11.48 161.028L11.396 160.224L12.224 160.188C12.464 159.888 12.716 159.552 12.968 159.192C12.62 158.652 12.02 157.968 11.48 157.452L11.96 156.888C12.08 156.996 12.2 157.104 12.32 157.224C12.716 156.54 13.136 155.628 13.388 154.968L14.168 155.256C13.76 156.084 13.244 157.056 12.788 157.728C13.04 157.992 13.256 158.256 13.436 158.496C13.928 157.752 14.384 156.972 14.72 156.324L15.464 156.672C14.78 157.764 13.88 159.12 13.064 160.14L14.792 160.056C14.624 159.708 14.444 159.36 14.252 159.048L14.9 158.784C15.404 159.552 15.884 160.584 16.064 161.244L15.356 161.568C15.308 161.34 15.224 161.076 15.104 160.8ZM14.564 161.928L15.224 161.736C15.524 162.408 15.776 163.284 15.86 163.86L15.164 164.076C15.104 163.5 14.864 162.612 14.564 161.928ZM17.924 161.412L18.416 161.604C17.996 163.5 17.048 164.748 15.872 165.432C15.752 165.24 15.476 164.94 15.308 164.82C16.268 164.316 17.048 163.416 17.456 162.192H15.836V161.424H17.792L17.924 161.412ZM17.096 158.628V159.672H21.128V158.628H17.096ZM17.096 156.912V157.944H21.128V156.912H17.096ZM21.68 160.92L22.4 161.448C21.836 161.964 21.14 162.54 20.552 162.948C21.056 163.668 21.74 164.304 22.664 164.7C22.508 164.868 22.244 165.192 22.124 165.42C20.84 164.76 20.012 163.644 19.508 162.516V164.964C19.508 165.408 19.424 165.636 19.112 165.768C18.812 165.888 18.344 165.9 17.588 165.9C17.564 165.684 17.456 165.348 17.348 165.132C17.876 165.144 18.368 165.144 18.5 165.132C18.656 165.132 18.692 165.096 18.692 164.964V160.404H16.28V156.192H18.248C18.44 155.784 18.62 155.304 18.728 154.944L19.712 155.136C19.544 155.496 19.34 155.868 19.16 156.192H21.98V160.404H19.508V160.56C19.652 161.148 19.88 161.772 20.192 162.348C20.72 161.916 21.308 161.34 21.68 160.92ZM17.54 169.288V170.068H11.852V169.288H14.252V168.004H15.104V169.288H17.54ZM16.064 172.468L15.344 172.288C15.572 171.736 15.872 170.848 16.016 170.248L16.856 170.452C16.604 171.148 16.316 171.94 16.064 172.468ZM13.88 172.252L13.112 172.432C13.052 171.904 12.836 171.1 12.584 170.488L13.328 170.332C13.604 170.92 13.82 171.736 13.88 172.252ZM16.172 175.228H13.172V177.436H16.172V175.228ZM12.344 178.924V174.436H17.036V178.852H16.172V178.216H13.172V178.924H12.344ZM11.54 173.392V172.576H17.708V173.392H11.54ZM21.86 168.628L22.508 169.048C22.016 170.176 21.404 171.556 20.84 172.648C22.04 173.752 22.34 174.7 22.352 175.552C22.352 176.284 22.184 176.836 21.764 177.112C21.548 177.256 21.296 177.34 20.984 177.376C20.684 177.412 20.288 177.412 19.94 177.4C19.928 177.148 19.844 176.764 19.688 176.512C20.06 176.548 20.384 176.548 20.636 176.536C20.816 176.524 21.008 176.488 21.152 176.404C21.404 176.248 21.476 175.888 21.476 175.456C21.476 174.7 21.14 173.812 19.928 172.768C20.42 171.76 20.948 170.464 21.32 169.504H19.052V178.912H18.188V168.664H21.716L21.86 168.628Z" fill="black"/>
<line x1="93.2925" y1="100.391" x2="93.2925" y2="221.907" stroke="black" stroke-width="1.27242" stroke-dasharray="3.18 3.18"/>
<line x1="272.703" y1="160.195" x2="32.8516" y2="160.195" stroke="black" stroke-width="1.27242" stroke-dasharray="3.18 3.18"/>
<line x1="214.808" y1="100.391" x2="214.808" y2="221.907" stroke="black" stroke-width="1.27242" stroke-dasharray="3.18 3.18"/>
<circle cx="113.65" cy="198.367" r="2.54484" fill="black"/>
<circle cx="127.012" cy="198.367" r="2.54484" fill="black"/>
<circle cx="140.371" cy="198.367" r="2.54484" fill="black"/>
<circle cx="153.732" cy="198.367" r="2.54484" fill="black"/>
<circle cx="167.094" cy="198.367" r="2.54484" fill="black"/>
<circle cx="180.453" cy="198.367" r="2.54484" fill="black"/>
<circle cx="193.814" cy="198.367" r="2.54484" fill="black"/>
<circle cx="113.65" cy="122.658" r="2.54484" fill="black"/>
<circle cx="127.012" cy="122.658" r="2.54484" fill="black"/>
<circle cx="140.371" cy="122.658" r="2.54484" fill="black"/>
<circle cx="153.732" cy="122.658" r="2.54484" fill="black"/>
<circle cx="167.094" cy="122.658" r="2.54484" fill="black"/>
<circle cx="180.453" cy="122.658" r="2.54484" fill="black"/>
<circle cx="193.814" cy="122.658" r="2.54484" fill="black"/>
</svg>