<svg width="220" height="296" viewBox="0 0 220 296" fill="none" xmlns="http://www.w3.org/2000/svg">
<mask id="path-1-inside-1_1107_8088" fill="white">
<path d="M202.815 163.05C202.815 214.362 161.219 255.958 109.908 255.958C58.5962 255.958 17 214.362 17 163.05C17 111.739 58.5962 70.1426 109.908 70.1426C161.219 70.1426 202.815 111.739 202.815 163.05ZM48.4102 163.05C48.4102 197.014 75.9436 224.548 109.908 224.548C143.872 224.548 171.405 197.014 171.405 163.05C171.405 129.086 143.872 101.553 109.908 101.553C75.9436 101.553 48.4102 129.086 48.4102 163.05Z"/>
</mask>
<path d="M202.815 163.05C202.815 214.362 161.219 255.958 109.908 255.958C58.5962 255.958 17 214.362 17 163.05C17 111.739 58.5962 70.1426 109.908 70.1426C161.219 70.1426 202.815 111.739 202.815 163.05ZM48.4102 163.05C48.4102 197.014 75.9436 224.548 109.908 224.548C143.872 224.548 171.405 197.014 171.405 163.05C171.405 129.086 143.872 101.553 109.908 101.553C75.9436 101.553 48.4102 129.086 48.4102 163.05Z" fill="#D9D9D9" stroke="black" stroke-width="3.39389" mask="url(#path-1-inside-1_1107_8088)"/>
<circle cx="109.059" cy="163.051" r="78.4837" stroke="black" stroke-width="1.69694"/>
<path d="M17 61.6582L21.2424 64.1075L21.2424 59.2089L17 61.6582ZM202.815 61.6582L198.573 59.2089L198.573 64.1075L202.815 61.6582ZM20.8181 62.0824L198.997 62.0824L198.997 61.234L20.8181 61.234L20.8181 62.0824Z" fill="black"/>
<path d="M92.6366 47.62H90.2966C90.0206 48.22 89.7326 48.784 89.4086 49.288C90.1886 49.744 91.0766 50.344 91.6526 50.86C92.0726 49.912 92.4086 48.832 92.6366 47.62ZM96.0566 44.968V50.476C96.9086 51.28 97.8806 51.94 98.8286 52.372C98.6246 52.54 98.3486 52.888 98.1926 53.128C97.4726 52.756 96.7406 52.24 96.0566 51.64V55.888H95.1446V50.764C94.4606 50.032 93.8366 49.228 93.3566 48.412C92.4806 52.192 90.6806 54.58 88.4006 55.852C88.2446 55.648 87.9086 55.324 87.6926 55.192C89.1206 54.448 90.3326 53.284 91.2446 51.664C90.6926 51.136 89.7806 50.464 88.9526 49.96C88.7006 50.296 88.4366 50.608 88.1606 50.884C88.0166 50.728 87.6326 50.44 87.4286 50.308C88.7486 49.084 89.7446 47.104 90.2966 44.956L91.1726 45.136C91.0166 45.7 90.8366 46.264 90.6326 46.792H92.8886L93.0566 46.744L93.6326 46.96C93.5846 47.308 93.5126 47.644 93.4526 47.968L93.9206 47.788C94.2446 48.388 94.6646 48.976 95.1446 49.54V44.968H96.0566ZM102.177 44.968L103.017 45.304C102.297 46.372 101.109 47.524 100.005 48.232C99.9086 48.04 99.6806 47.68 99.5366 47.512C100.521 46.876 101.625 45.844 102.177 44.968ZM102.573 47.32L103.377 47.62C103.041 48.184 102.633 48.748 102.189 49.288V55.9H101.325V50.248C100.857 50.728 100.365 51.16 99.8966 51.532C99.8006 51.34 99.5246 50.908 99.3686 50.716C100.569 49.9 101.817 48.616 102.573 47.32ZM108.729 46.36H105.105C105.525 47.152 106.125 47.86 106.869 48.436C107.637 47.86 108.285 47.164 108.729 46.36ZM109.365 45.556L109.941 45.82C109.413 47.092 108.573 48.112 107.565 48.928C108.477 49.504 109.557 49.924 110.745 50.164C110.553 50.356 110.301 50.692 110.181 50.932C108.933 50.62 107.805 50.116 106.845 49.444C105.789 50.14 104.589 50.644 103.365 50.992C103.269 50.776 103.065 50.452 102.909 50.284C104.049 49.996 105.177 49.54 106.173 48.916C105.405 48.256 104.781 47.476 104.325 46.576L104.949 46.36H103.569V45.592H109.209L109.365 45.556ZM107.265 52.864V54.748H110.529V55.552H102.969V54.748H106.401V52.864H103.725V52.096H106.401V50.488H107.265V52.096H109.881V52.864H107.265ZM117.057 48.472C116.577 48.472 116.145 48.124 116.145 47.572C116.145 47.02 116.577 46.672 117.057 46.672C117.537 46.672 117.969 47.02 117.969 47.572C117.969 48.124 117.537 48.472 117.057 48.472ZM117.057 54.352C116.577 54.352 116.145 53.992 116.145 53.452C116.145 52.9 116.577 52.54 117.057 52.54C117.537 52.54 117.969 52.9 117.969 53.452C117.969 53.992 117.537 54.352 117.057 54.352ZM124.257 55V46.204H126.873C128.661 46.204 129.897 46.804 129.897 48.352C129.897 49.228 129.429 49.996 128.601 50.26V50.32C129.657 50.524 130.401 51.22 130.401 52.42C130.401 54.148 129.033 55 127.065 55H124.257ZM125.373 49.948H126.681C128.193 49.948 128.805 49.384 128.805 48.496C128.805 47.464 128.097 47.08 126.729 47.08H125.373V49.948ZM125.373 54.112H126.909C128.421 54.112 129.309 53.572 129.309 52.384C129.309 51.292 128.445 50.8 126.909 50.8H125.373V54.112Z" fill="black"/>
<path d="M48.3934 162.625L52.6357 165.074L52.6357 160.176L48.3934 162.625ZM171.422 162.625L167.179 160.176L167.179 165.074L171.422 162.625ZM52.2115 163.049L167.604 163.049L167.604 162.201L52.2115 162.201L52.2115 163.049Z" fill="black"/>
<path d="M97.9348 148.262V155.99C97.9348 156.566 97.8028 156.854 97.3948 156.998C96.9748 157.154 96.2308 157.154 95.1628 157.154C95.1268 156.914 94.9948 156.494 94.8628 156.254C95.7028 156.29 96.5188 156.29 96.7708 156.278C96.9868 156.266 97.0588 156.194 97.0588 155.978V149.138H93.5788C93.5548 149.63 93.4948 150.158 93.3628 150.698C94.5508 151.742 96.0148 153.146 96.7468 154.034L96.0148 154.61C95.4028 153.806 94.2028 152.582 93.0988 151.55C92.6548 152.702 91.7908 153.818 90.1828 154.766C90.0508 154.574 89.7508 154.25 89.5468 154.094C92.1868 152.69 92.6188 150.71 92.6908 149.138H89.2348V157.19H88.3588V148.262H92.7028V146.21H93.5908V148.262H97.9348ZM102.255 146.222L103.095 146.558C102.375 147.626 101.187 148.778 100.083 149.486C99.9868 149.294 99.7588 148.934 99.6148 148.766C100.599 148.13 101.703 147.098 102.255 146.222ZM102.651 148.574L103.455 148.874C103.119 149.438 102.711 150.002 102.267 150.542V157.154H101.403V151.502C100.935 151.982 100.443 152.414 99.9748 152.786C99.8788 152.594 99.6028 152.162 99.4468 151.97C100.647 151.154 101.895 149.87 102.651 148.574ZM108.807 147.614H105.183C105.603 148.406 106.203 149.114 106.947 149.69C107.715 149.114 108.363 148.418 108.807 147.614ZM109.443 146.81L110.019 147.074C109.491 148.346 108.651 149.366 107.643 150.182C108.555 150.758 109.635 151.178 110.823 151.418C110.631 151.61 110.379 151.946 110.259 152.186C109.011 151.874 107.883 151.37 106.923 150.698C105.867 151.394 104.667 151.898 103.443 152.246C103.347 152.03 103.143 151.706 102.987 151.538C104.127 151.25 105.255 150.794 106.251 150.17C105.483 149.51 104.859 148.73 104.403 147.83L105.027 147.614H103.647V146.846H109.287L109.443 146.81ZM107.343 154.118V156.002H110.607V156.806H103.047V156.002H106.479V154.118H103.803V153.35H106.479V151.742H107.343V153.35H109.959V154.118H107.343ZM117.135 149.726C116.655 149.726 116.223 149.378 116.223 148.826C116.223 148.274 116.655 147.926 117.135 147.926C117.615 147.926 118.047 148.274 118.047 148.826C118.047 149.378 117.615 149.726 117.135 149.726ZM117.135 155.606C116.655 155.606 116.223 155.246 116.223 154.706C116.223 154.154 116.655 153.794 117.135 153.794C117.615 153.794 118.047 154.154 118.047 154.706C118.047 155.246 117.615 155.606 117.135 155.606ZM124.335 156.254V147.458H125.451V151.142H129.555V147.458H130.659V156.254H129.555V152.102H125.451V156.254H124.335Z" fill="black"/>
<line x1="16.5758" y1="161.777" x2="16.5758" y2="54.0214" stroke="black" stroke-width="0.848472"/>
<line x1="203.24" y1="161.777" x2="203.24" y2="54.0214" stroke="black" stroke-width="0.848472"/>
<circle cx="109.483" cy="88.808" r="3.39389" fill="black"/>
<circle cx="34.818" cy="161.777" r="3.39389" fill="black"/>
<circle cx="183.3" cy="161.777" r="3.39389" fill="black"/>
<circle cx="109.483" cy="237.29" r="3.39389" fill="black"/>
<circle cx="162.31" cy="111.247" r="3.39389" fill="black"/>
<circle cx="57.8568" cy="109.199" r="3.39389" fill="black"/>
<circle cx="162.062" cy="215.101" r="3.39389" fill="black"/>
<circle cx="57.2567" cy="216.3" r="3.39389" fill="black"/>
</svg>
