<svg width="220" height="296" viewBox="0 0 220 296" fill="none" xmlns="http://www.w3.org/2000/svg">
<rect x="66.7119" y="61.4984" width="86.8222" height="184.562" rx="42.8912" fill="#D9D9D9" stroke="black" stroke-width="1.03979"/>
<rect x="70.8712" y="65.6566" width="78.5039" height="175.724" rx="39.2519" fill="#D9D9D9" stroke="black" stroke-width="1.03979"/>
<path d="M174.33 202.388L172.785 204.961L175.786 205.013L174.33 202.388ZM155.753 248.708L155.939 248.889L155.753 248.708ZM66.0534 248.708L65.8667 248.889L66.0534 248.708ZM47.4761 202.388L46.0204 205.013L49.0215 204.961L47.4761 202.388ZM174.03 204.718C173.461 221.179 166.88 236.842 155.566 248.527L155.939 248.889C167.345 237.109 173.976 221.323 174.549 204.736L174.03 204.718ZM155.566 248.527C143.719 260.763 127.653 267.635 110.903 267.635L110.903 268.154C127.797 268.154 143.997 261.223 155.939 248.889L155.566 248.527ZM110.903 267.635C94.1529 267.635 78.087 260.763 66.2402 248.527L65.8667 248.889C77.8096 261.223 94.0095 268.154 110.903 268.154L110.903 267.635ZM66.2402 248.527C54.9259 236.842 48.3453 221.179 47.7763 204.718L47.2567 204.736C47.83 221.323 54.4611 237.109 65.8667 248.889L66.2402 248.527Z" fill="black"/>
<circle cx="73.4706" cy="196.67" r="2.07957" transform="rotate(-90 73.4706 196.67)" fill="black"/>
<circle cx="109.863" cy="238.782" r="2.07957" transform="rotate(-90 109.863 238.782)" fill="black"/>
<circle cx="97.3857" cy="236.702" r="2.07957" transform="rotate(-90 97.3857 236.702)" fill="black"/>
<circle cx="86.988" cy="230.463" r="2.07957" transform="rotate(-90 86.988 230.463)" fill="black"/>
<circle cx="78.6697" cy="221.626" r="2.07957" transform="rotate(-90 78.6697 221.626)" fill="black"/>
<circle cx="73.9906" cy="209.668" r="2.07957" transform="rotate(-90 73.9906 209.668)" fill="black"/>
<circle cx="74.5102" cy="96.8501" r="2.07957" transform="rotate(-90 74.5102 96.8501)" fill="black"/>
<circle cx="109.863" cy="68.2564" r="2.07957" transform="rotate(-90 109.863 68.2564)" fill="black"/>
<circle cx="145.736" cy="96.8501" r="2.07957" transform="rotate(-90 145.736 96.8501)" fill="black"/>
<circle cx="141.057" cy="84.8931" r="2.07957" transform="rotate(-90 141.057 84.8931)" fill="black"/>
<circle cx="109.863" cy="73.9751" r="2.07957" transform="rotate(-90 109.863 73.9751)" fill="black"/>
<circle cx="97.3857" cy="76.5747" r="2.07957" transform="rotate(-90 97.3857 76.5747)" fill="black"/>
<circle cx="86.988" cy="84.8931" r="2.07957" transform="rotate(-90 86.988 84.8931)" fill="black"/>
<circle cx="81.2692" cy="96.8501" r="2.07957" transform="rotate(-90 81.2692 96.8501)" fill="black"/>
<circle cx="81.2692" cy="209.668" r="2.07957" transform="rotate(-90 81.2692 209.668)" fill="black"/>
<circle cx="137.938" cy="209.668" r="2.07957" transform="rotate(-90 137.938 209.668)" fill="black"/>
<circle cx="109.863" cy="232.024" r="2.07957" transform="rotate(-90 109.863 232.024)" fill="black"/>
<circle cx="97.3857" cy="228.903" r="2.07957" transform="rotate(-90 97.3857 228.903)" fill="black"/>
<circle cx="86.988" cy="220.584" r="2.07957" transform="rotate(-90 86.988 220.584)" fill="black"/>
<circle cx="132.738" cy="220.584" r="2.07957" transform="rotate(-90 132.738 220.584)" fill="black"/>
<circle cx="122.34" cy="228.903" r="2.07957" transform="rotate(-90 122.34 228.903)" fill="black"/>
<circle cx="122.34" cy="76.5747" r="2.07957" transform="rotate(-90 122.34 76.5747)" fill="black"/>
<circle cx="132.738" cy="84.8931" r="2.07957" transform="rotate(-90 132.738 84.8931)" fill="black"/>
<circle cx="137.938" cy="96.8501" r="2.07957" transform="rotate(-90 137.938 96.8501)" fill="black"/>
<circle cx="79.1893" cy="84.8931" r="2.07957" transform="rotate(-90 79.1893 84.8931)" fill="black"/>
<circle cx="86.988" cy="76.5747" r="2.07957" transform="rotate(-90 86.988 76.5747)" fill="black"/>
<circle cx="133.778" cy="76.5747" r="2.07957" transform="rotate(-90 133.778 76.5747)" fill="black"/>
<circle cx="122.34" cy="70.3364" r="2.07957" transform="rotate(-90 122.34 70.3364)" fill="black"/>
<circle cx="97.3857" cy="70.3364" r="2.07957" transform="rotate(-90 97.3857 70.3364)" fill="black"/>
<circle cx="145.736" cy="209.668" r="2.07957" transform="rotate(-90 145.736 209.668)" fill="black"/>
<circle cx="141.057" cy="221.626" r="2.07957" transform="rotate(-90 141.057 221.626)" fill="black"/>
<circle cx="133.258" cy="230.463" r="2.07957" transform="rotate(-90 133.258 230.463)" fill="black"/>
<circle cx="122.34" cy="236.702" r="2.07957" transform="rotate(-90 122.34 236.702)" fill="black"/>
<circle cx="73.4706" cy="185.752" r="2.07957" transform="rotate(-90 73.4706 185.752)" fill="black"/>
<circle cx="73.4706" cy="174.834" r="2.07957" transform="rotate(-90 73.4706 174.834)" fill="black"/>
<circle cx="73.4706" cy="163.917" r="2.07957" transform="rotate(-90 73.4706 163.917)" fill="black"/>
<circle cx="73.4706" cy="152.999" r="2.07957" transform="rotate(-90 73.4706 152.999)" fill="black"/>
<circle cx="73.4706" cy="142.083" r="2.07957" transform="rotate(-90 73.4706 142.083)" fill="black"/>
<circle cx="73.4706" cy="131.165" r="2.07957" transform="rotate(-90 73.4706 131.165)" fill="black"/>
<circle cx="73.4706" cy="120.247" r="2.07957" transform="rotate(-90 73.4706 120.247)" fill="black"/>
<circle cx="73.4706" cy="109.329" r="2.07957" transform="rotate(-90 73.4706 109.329)" fill="black"/>
<circle cx="146.776" cy="196.67" r="2.07957" transform="rotate(-90 146.776 196.67)" fill="black"/>
<circle cx="146.776" cy="185.752" r="2.07957" transform="rotate(-90 146.776 185.752)" fill="black"/>
<circle cx="146.776" cy="174.834" r="2.07957" transform="rotate(-90 146.776 174.834)" fill="black"/>
<circle cx="146.776" cy="163.917" r="2.07957" transform="rotate(-90 146.776 163.917)" fill="black"/>
<circle cx="146.776" cy="152.999" r="2.07957" transform="rotate(-90 146.776 152.999)" fill="black"/>
<circle cx="146.776" cy="142.083" r="2.07957" transform="rotate(-90 146.776 142.083)" fill="black"/>
<circle cx="146.776" cy="131.165" r="2.07957" transform="rotate(-90 146.776 131.165)" fill="black"/>
<circle cx="146.776" cy="120.247" r="2.07957" transform="rotate(-90 146.776 120.247)" fill="black"/>
<circle cx="146.776" cy="109.329" r="2.07957" transform="rotate(-90 146.776 109.329)" fill="black"/>
<line x1="109.863" y1="60.7189" x2="20.4416" y2="60.7189" stroke="black" stroke-width="0.519893"/>
<line x1="184.208" y1="103.35" x2="161.333" y2="103.35" stroke="black" stroke-width="0.519893"/>
<line x1="184.208" y1="202.129" x2="161.333" y2="202.129" stroke="black" stroke-width="0.519893"/>
<line x1="59.9536" y1="202.649" x2="40.7176" y2="202.649" stroke="black" stroke-width="0.519893"/>
<line x1="65.9321" y1="103.609" x2="65.9321" y2="13.1479" stroke="black" stroke-width="0.519893"/>
<line x1="154.314" y1="103.609" x2="154.314" y2="13.1479" stroke="black" stroke-width="0.519893"/>
<line x1="109.863" y1="246.84" x2="20.4416" y2="246.84" stroke="black" stroke-width="0.519893"/>
<path d="M26.4201 246.58L27.9209 243.981L24.9193 243.981L26.4201 246.58ZM26.4201 60.9781L24.9193 63.5776L27.9209 63.5776L26.4201 60.9781ZM26.6801 244.241L26.6801 63.3177L26.1602 63.3177L26.1602 244.241L26.6801 244.241Z" fill="black"/>
<path d="M174.33 201.869L175.831 199.27L172.829 199.27L174.33 201.869ZM174.33 103.609L172.829 106.209L175.831 106.209L174.33 103.609ZM174.59 199.53L174.59 105.949L174.07 105.949L174.07 199.53L174.59 199.53Z" fill="black"/>
<path d="M66.192 25.625L68.7915 27.1258L68.7915 24.1242L66.192 25.625ZM154.054 25.625L151.455 24.1242L151.455 27.1258L154.054 25.625ZM68.5315 25.8849L151.714 25.8849L151.714 25.365L68.5315 25.3651L68.5315 25.8849Z" fill="black"/>
<path d="M12.3348 159L12.3348 150.204H13.4508L13.4508 153.888H17.5548V150.204H18.6588L18.6588 159H17.5548L17.5548 154.848H13.4508V159H12.3348Z" fill="black"/>
<path d="M107.257 21V12.204H109.873C111.661 12.204 112.897 12.804 112.897 14.352C112.897 15.228 112.429 15.996 111.601 16.26V16.32C112.657 16.524 113.401 17.22 113.401 18.42C113.401 20.148 112.033 21 110.065 21H107.257ZM108.373 15.948H109.681C111.193 15.948 111.805 15.384 111.805 14.496C111.805 13.464 111.097 13.08 109.729 13.08H108.373V15.948ZM108.373 20.112H109.909C111.421 20.112 112.309 19.572 112.309 18.384C112.309 17.292 111.445 16.8 109.909 16.8H108.373V20.112Z" fill="black"/>
<path d="M188.036 152.504V151.544H183.464V152.504H188.036ZM188.036 154.124V153.152H183.464V154.124H188.036ZM188.036 155.78V154.772H183.464V155.78H188.036ZM182.612 150.86H184.436C184.484 150.56 184.532 150.236 184.568 149.888H179.792V149.06H184.652C184.688 148.652 184.712 148.256 184.724 147.92L185.744 147.992C185.708 148.34 185.66 148.7 185.612 149.06H190.256V149.888H185.492C185.444 150.236 185.384 150.56 185.336 150.86H188.912V156.44H182.612V150.86ZM190.364 157.472V158.288H181.28V158.924H180.416V151.196H181.28V157.472H190.364ZM192.104 154.76L192.86 154.892C192.692 156.02 192.416 157.172 192.032 157.94C191.9 157.832 191.54 157.676 191.372 157.616C191.744 156.884 191.972 155.804 192.104 154.76ZM195.104 153.8L194.156 153.86V158.912H193.364V153.908L191.48 154.028L191.396 153.224L192.224 153.188C192.464 152.888 192.716 152.552 192.968 152.192C192.62 151.652 192.02 150.968 191.48 150.452L191.96 149.888C192.08 149.996 192.2 150.104 192.32 150.224C192.716 149.54 193.136 148.628 193.388 147.968L194.168 148.256C193.76 149.084 193.244 150.056 192.788 150.728C193.04 150.992 193.256 151.256 193.436 151.496C193.928 150.752 194.384 149.972 194.72 149.324L195.464 149.672C194.78 150.764 193.88 152.12 193.064 153.14L194.792 153.056C194.624 152.708 194.444 152.36 194.252 152.048L194.9 151.784C195.404 152.552 195.884 153.584 196.064 154.244L195.356 154.568C195.308 154.34 195.224 154.076 195.104 153.8ZM194.564 154.928L195.224 154.736C195.524 155.408 195.776 156.284 195.86 156.86L195.164 157.076C195.104 156.5 194.864 155.612 194.564 154.928ZM197.924 154.412L198.416 154.604C197.996 156.5 197.048 157.748 195.872 158.432C195.752 158.24 195.476 157.94 195.308 157.82C196.268 157.316 197.048 156.416 197.456 155.192H195.836V154.424H197.792L197.924 154.412ZM197.096 151.628V152.672H201.128V151.628H197.096ZM197.096 149.912V150.944H201.128V149.912H197.096ZM201.68 153.92L202.4 154.448C201.836 154.964 201.14 155.54 200.552 155.948C201.056 156.668 201.74 157.304 202.664 157.7C202.508 157.868 202.244 158.192 202.124 158.42C200.84 157.76 200.012 156.644 199.508 155.516V157.964C199.508 158.408 199.424 158.636 199.112 158.768C198.812 158.888 198.344 158.9 197.588 158.9C197.564 158.684 197.456 158.348 197.348 158.132C197.876 158.144 198.368 158.144 198.5 158.132C198.656 158.132 198.692 158.096 198.692 157.964V153.404H196.28V149.192H198.248C198.44 148.784 198.62 148.304 198.728 147.944L199.712 148.136C199.544 148.496 199.34 148.868 199.16 149.192H201.98V153.404H199.508V153.56C199.652 154.148 199.88 154.772 200.192 155.348C200.72 154.916 201.308 154.34 201.68 153.92ZM209.54 149.288V150.068H203.852V149.288H206.252V148.004H207.104V149.288H209.54ZM208.064 152.468L207.344 152.288C207.572 151.736 207.872 150.848 208.016 150.248L208.856 150.452C208.604 151.148 208.316 151.94 208.064 152.468ZM205.88 152.252L205.112 152.432C205.052 151.904 204.836 151.1 204.584 150.488L205.328 150.332C205.604 150.92 205.82 151.736 205.88 152.252ZM208.172 155.228H205.172V157.436H208.172V155.228ZM204.344 158.924V154.436H209.036V158.852H208.172V158.216H205.172V158.924H204.344ZM203.54 153.392V152.576H209.708V153.392H203.54ZM213.86 148.628L214.508 149.048C214.016 150.176 213.404 151.556 212.84 152.648C214.04 153.752 214.34 154.7 214.352 155.552C214.352 156.284 214.184 156.836 213.764 157.112C213.548 157.256 213.296 157.34 212.984 157.376C212.684 157.412 212.288 157.412 211.94 157.4C211.928 157.148 211.844 156.764 211.688 156.512C212.06 156.548 212.384 156.548 212.636 156.536C212.816 156.524 213.008 156.488 213.152 156.404C213.404 156.248 213.476 155.888 213.476 155.456C213.476 154.7 213.14 153.812 211.928 152.768C212.42 151.76 212.948 150.464 213.32 149.504H211.052V158.912H210.188V148.664H213.716L213.86 148.628Z" fill="black"/>
<path d="M99.836 284.292H101.96V281.652H99.836V284.292ZM94.064 281.652V284.292H96.068V281.652H94.064ZM96.068 278.22H94.064V280.8H96.068V278.22ZM98.96 281.652H96.944V284.292H98.96V281.652ZM98.96 278.22H96.944V280.8H98.96V278.22ZM101.96 278.22H99.836V280.8H101.96V278.22ZM99.836 277.344H102.836V285.876H101.96V285.156H94.064V285.924H93.212V277.344H96.068V275.088H96.944V277.344H98.96V275.088H99.836V277.344ZM105.104 281.76L105.86 281.892C105.692 283.02 105.416 284.172 105.032 284.94C104.9 284.832 104.54 284.676 104.372 284.616C104.744 283.884 104.972 282.804 105.104 281.76ZM108.104 280.8L107.156 280.86V285.912H106.364V280.908L104.48 281.028L104.396 280.224L105.224 280.188C105.464 279.888 105.716 279.552 105.968 279.192C105.62 278.652 105.02 277.968 104.48 277.452L104.96 276.888C105.08 276.996 105.2 277.104 105.32 277.224C105.716 276.54 106.136 275.628 106.388 274.968L107.168 275.256C106.76 276.084 106.244 277.056 105.788 277.728C106.04 277.992 106.256 278.256 106.436 278.496C106.928 277.752 107.384 276.972 107.72 276.324L108.464 276.672C107.78 277.764 106.88 279.12 106.064 280.14L107.792 280.056C107.624 279.708 107.444 279.36 107.252 279.048L107.9 278.784C108.404 279.552 108.884 280.584 109.064 281.244L108.356 281.568C108.308 281.34 108.224 281.076 108.104 280.8ZM107.564 281.928L108.224 281.736C108.524 282.408 108.776 283.284 108.86 283.86L108.164 284.076C108.104 283.5 107.864 282.612 107.564 281.928ZM110.924 281.412L111.416 281.604C110.996 283.5 110.048 284.748 108.872 285.432C108.752 285.24 108.476 284.94 108.308 284.82C109.268 284.316 110.048 283.416 110.456 282.192H108.836V281.424H110.792L110.924 281.412ZM110.096 278.628V279.672H114.128V278.628H110.096ZM110.096 276.912V277.944H114.128V276.912H110.096ZM114.68 280.92L115.4 281.448C114.836 281.964 114.14 282.54 113.552 282.948C114.056 283.668 114.74 284.304 115.664 284.7C115.508 284.868 115.244 285.192 115.124 285.42C113.84 284.76 113.012 283.644 112.508 282.516V284.964C112.508 285.408 112.424 285.636 112.112 285.768C111.812 285.888 111.344 285.9 110.588 285.9C110.564 285.684 110.456 285.348 110.348 285.132C110.876 285.144 111.368 285.144 111.5 285.132C111.656 285.132 111.692 285.096 111.692 284.964V280.404H109.28V276.192H111.248C111.44 275.784 111.62 275.304 111.728 274.944L112.712 275.136C112.544 275.496 112.34 275.868 112.16 276.192H114.98V280.404H112.508V280.56C112.652 281.148 112.88 281.772 113.192 282.348C113.72 281.916 114.308 281.34 114.68 280.92ZM122.54 276.288V277.068H116.852V276.288H119.252V275.004H120.104V276.288H122.54ZM121.064 279.468L120.344 279.288C120.572 278.736 120.872 277.848 121.016 277.248L121.856 277.452C121.604 278.148 121.316 278.94 121.064 279.468ZM118.88 279.252L118.112 279.432C118.052 278.904 117.836 278.1 117.584 277.488L118.328 277.332C118.604 277.92 118.82 278.736 118.88 279.252ZM121.172 282.228H118.172V284.436H121.172V282.228ZM117.344 285.924V281.436H122.036V285.852H121.172V285.216H118.172V285.924H117.344ZM116.54 280.392V279.576H122.708V280.392H116.54ZM126.86 275.628L127.508 276.048C127.016 277.176 126.404 278.556 125.84 279.648C127.04 280.752 127.34 281.7 127.352 282.552C127.352 283.284 127.184 283.836 126.764 284.112C126.548 284.256 126.296 284.34 125.984 284.376C125.684 284.412 125.288 284.412 124.94 284.4C124.928 284.148 124.844 283.764 124.688 283.512C125.06 283.548 125.384 283.548 125.636 283.536C125.816 283.524 126.008 283.488 126.152 283.404C126.404 283.248 126.476 282.888 126.476 282.456C126.476 281.7 126.14 280.812 124.928 279.768C125.42 278.76 125.948 277.464 126.32 276.504H124.052V285.912H123.188V275.664H126.716L126.86 275.628Z" fill="black"/>
<line x1="60.993" y1="202.39" x2="160.293" y2="202.39" stroke="black" stroke-width="1.03979" stroke-dasharray="2.6 2.6"/>
<line x1="109.863" y1="55.7793" x2="109.863" y2="251.779" stroke="black" stroke-width="1.03979" stroke-dasharray="2.6 2.6"/>
<line x1="60.993" y1="103.089" x2="160.293" y2="103.089" stroke="black" stroke-width="1.03979" stroke-dasharray="2.6 2.6"/>
</svg>
