<svg width="360" height="328" viewBox="0 0 360 328" fill="none" xmlns="http://www.w3.org/2000/svg">
<rect x="105.402" y="88.793" width="175.631" height="151.723" fill="#D9D9D9"/>
<path d="M105.861 240.516C85.7417 240.516 66.4461 232.523 52.2193 218.297C37.9925 204.07 30 184.774 30 164.654C30 144.535 37.9925 125.239 52.2193 111.012C66.4461 96.7855 85.7417 88.793 105.861 88.793V164.654V240.516Z" fill="#D9D9D9"/>
<path d="M106.321 222.126C91.6887 222.126 77.6555 216.313 67.3088 205.966C56.962 195.62 51.1493 181.587 51.1493 166.954C51.1493 152.321 56.962 138.288 67.3088 127.942C77.6555 117.595 91.6887 111.322 106.321 111.322" stroke="#1E252C" stroke-width="0.459766" stroke-dasharray="1.84 1.84"/>
<path d="M280.573 88.7927C300.692 88.7927 319.988 96.7853 334.215 111.012C348.442 125.239 356.434 144.534 356.434 164.654C356.434 184.774 348.442 204.07 334.215 218.296C319.988 232.523 300.692 240.516 280.573 240.516L280.573 164.654L280.573 88.7927Z" fill="#D9D9D9"/>
<path d="M281.032 111.321C295.665 111.321 309.698 117.134 320.045 127.481C330.392 137.828 336.204 151.861 336.204 166.493C336.204 181.126 330.392 195.159 320.045 205.506C309.698 215.852 295.665 222.125 281.032 222.125" stroke="#1E252C" stroke-width="0.459766" stroke-dasharray="1.84 1.84"/>
<circle cx="122.873" cy="111.782" r="3.67813" fill="white"/>
<circle cx="51.1493" cy="166.954" r="3.67813" fill="#1E252C"/>
<circle cx="336.204" cy="166.954" r="3.67813" fill="#1E252C"/>
<circle cx="320.572" cy="128.332" r="3.67813" fill="#1E252C"/>
<circle cx="66.7814" cy="204.655" r="3.67813" fill="white"/>
<circle cx="66.7814" cy="128.332" r="3.67813" fill="#1E252C"/>
<circle cx="263.561" cy="111.782" r="3.67813" fill="white"/>
<circle cx="192.757" cy="111.782" r="3.67813" fill="white"/>
<circle cx="156.896" cy="111.782" r="3.67813" fill="white"/>
<circle cx="192.757" cy="128.332" r="3.67813" fill="white"/>
<circle cx="122.873" cy="128.332" r="3.67813" fill="white"/>
<circle cx="263.561" cy="128.332" r="3.67813" fill="white"/>
<circle cx="228.619" cy="111.782" r="3.67813" fill="white"/>
<line x1="105" y1="112.024" x2="280.631" y2="112.024" stroke="#1E252C" stroke-width="0.46" stroke-dasharray="1.84 1.84"/>
<line x1="105.632" y1="75" x2="105.632" y2="253.389" stroke="#1E252C" stroke-width="0.459766" stroke-dasharray="1.84 1.84"/>
<line x1="282.182" y1="75" x2="282.182" y2="253.389" stroke="#1E252C" stroke-width="0.459766" stroke-dasharray="1.84 1.84"/>
<circle cx="3.67813" cy="3.67813" r="3.67813" transform="matrix(1 0 0 -1 119 225.402)" fill="white"/>
<circle cx="3.67813" cy="3.67813" r="3.67813" transform="matrix(1 0 0 -1 316.894 208.852)" fill="#1E252C"/>
<circle cx="3.67813" cy="3.67813" r="3.67813" transform="matrix(1 0 0 -1 63.1033 208.852)" fill="#1E252C"/>
<circle cx="3.67813" cy="3.67813" r="3.67813" transform="matrix(1 0 0 -1 259.689 225.402)" fill="white"/>
<circle cx="3.67813" cy="3.67813" r="3.67813" transform="matrix(1 0 0 -1 188.885 225.402)" fill="white"/>
<circle cx="3.67813" cy="3.67813" r="3.67813" transform="matrix(1 0 0 -1 153.023 225.402)" fill="white"/>
<circle cx="3.67813" cy="3.67813" r="3.67813" transform="matrix(1 0 0 -1 189.079 208.852)" fill="white"/>
<circle cx="3.67813" cy="3.67813" r="3.67813" transform="matrix(1 0 0 -1 119.195 208.852)" fill="white"/>
<circle cx="3.67813" cy="3.67813" r="3.67813" transform="matrix(1 0 0 -1 259.883 208.852)" fill="white"/>
<circle cx="3.67813" cy="3.67813" r="3.67813" transform="matrix(1 0 0 -1 224.746 225.402)" fill="white"/>
<line y1="-0.23" x2="175.631" y2="-0.23" transform="matrix(1 0 0 -1 105 222.254)" stroke="#1E252C" stroke-width="0.46" stroke-dasharray="1.84 1.84"/>
<line x1="51.3044" y1="162.691" x2="51.3044" y2="85.9994" stroke="#1E252C" stroke-width="0.7"/>
<line x1="29.65" y1="162.691" x2="29.65" y2="85.9994" stroke="#1E252C" stroke-width="0.7"/>
<line x1="30" y1="96.4762" x2="50.752" y2="96.4762" stroke="#1E252C" stroke-width="0.7"/>
<path d="M21.072 78.46H26.352V79.348H15.66V78.46H20.136V69.148H21.072V72.82H25.536V73.708H21.072V78.46ZM38.04 69.556V72.388H32.064V69.556H32.88V71.596H34.536V68.98H35.388V71.596H37.2V69.556H38.04ZM31.428 71.356V72.16H27.66V71.356H29.172V69.112H29.976V71.356H31.428ZM29.1 76.48L28.368 76.6C28.368 75.556 28.176 73.96 27.936 72.736L28.608 72.628C28.884 73.864 29.088 75.436 29.1 76.48ZM30.372 76.864L31.632 76.588L31.728 77.356C30.3 77.716 28.788 78.076 27.648 78.364L27.432 77.476C28.128 77.356 29.028 77.164 29.988 76.948L29.664 76.864C29.916 75.748 30.204 73.852 30.312 72.532L31.14 72.712C30.936 74.032 30.636 75.748 30.372 76.864ZM38.46 74.08H35.448C35.328 74.464 35.208 74.86 35.088 75.196H38.208V79.084C38.208 79.456 38.148 79.672 37.908 79.78C37.644 79.912 37.32 79.924 36.792 79.924C36.756 79.708 36.636 79.408 36.528 79.204C36.864 79.216 37.176 79.216 37.272 79.204C37.38 79.204 37.404 79.18 37.404 79.072V75.964H36.288V79.756H35.592V75.964H34.476V79.78H33.78V75.964H32.712V79.9H31.92V75.196H34.224C34.308 74.86 34.392 74.452 34.452 74.08H31.536V73.288H38.46V74.08ZM42.948 71.308H46.056V69.1H46.956V71.308H50.232V72.148H42.948V71.308ZM45.708 77.764L44.832 77.956C44.748 76.756 44.376 74.68 43.944 73.096L44.736 72.952C45.192 74.536 45.6 76.576 45.708 77.764ZM42.348 68.992L43.176 69.256C42.84 70.096 42.42 70.936 41.952 71.728V79.876H41.112V73.012C40.692 73.588 40.248 74.128 39.792 74.572C39.696 74.368 39.432 73.912 39.276 73.696C40.488 72.568 41.652 70.804 42.348 68.992ZM47.664 78.52H50.532V79.36H42.66V78.52H46.8C47.352 77.008 47.976 74.584 48.288 72.844L49.248 73.012C48.84 74.788 48.216 77.032 47.664 78.52ZM55.992 70.108V71.176H57.948V70.108H55.992ZM55.164 71.176V70.108H53.256V71.176H55.164ZM58.776 70.108V71.176H60.792V70.108H58.776ZM60.312 75.088V74.44H55.452V75.088H60.312ZM60.312 76.276V75.616H55.452V76.276H60.312ZM60.312 77.488V76.816H55.452V77.488H60.312ZM54.624 73.888H56.412C56.448 73.672 56.496 73.432 56.532 73.192H51.864V72.484H56.64C56.664 72.268 56.688 72.04 56.712 71.836H52.416V69.46H61.668V71.836H57.612C57.576 72.04 57.552 72.268 57.516 72.484H62.16V73.192H57.396C57.36 73.444 57.312 73.672 57.276 73.888H61.164V78.028H54.624V73.888ZM62.46 78.7V79.42H53.412V79.924H52.524V74.068H53.412V78.7H62.46Z" fill="#1E252C"/>
<rect x="44.5" y="119.5" width="39" height="98" stroke="#CE2C3F" stroke-dasharray="2.09 2.09"/>
<path d="M57.208 225.364H53.008C54.004 227.416 55.732 229.324 57.616 230.236C57.4 230.416 57.088 230.764 56.956 231.016C55.144 230.02 53.536 228.196 52.456 226.12V229.792H54.736V230.68H52.456V232.912H51.532V230.68H49.192V229.792H51.532V226.12C50.428 228.196 48.808 230.008 47.044 231.028C46.912 230.812 46.612 230.476 46.408 230.308C48.232 229.36 49.972 227.416 50.98 225.364H46.816V224.476H51.532V221.968H52.456V224.476H57.208V225.364ZM63.256 222.196L64.036 222.52C63.688 223.072 63.28 223.672 62.968 224.068L62.368 223.78C62.656 223.36 63.064 222.664 63.256 222.196ZM60.484 223.78L59.776 224.092C59.668 223.672 59.356 223.012 59.032 222.52L59.704 222.244C60.04 222.724 60.364 223.36 60.484 223.78ZM65.74 224.992L65.728 225.028C65.956 226.408 66.292 227.704 66.772 228.82C67.288 227.752 67.612 226.48 67.828 224.992H65.74ZM62.464 229.06H60.784C60.616 229.396 60.436 229.72 60.28 230.032C60.76 230.224 61.24 230.44 61.708 230.668C62.068 230.236 62.308 229.708 62.464 229.06ZM69.472 224.992H68.752C68.452 226.936 67.996 228.52 67.264 229.804C67.864 230.836 68.62 231.652 69.58 232.156C69.376 232.324 69.088 232.672 68.968 232.912C68.044 232.372 67.312 231.604 66.724 230.644C66.016 231.58 65.116 232.348 63.94 232.948C63.868 232.792 63.712 232.528 63.556 232.324L63.28 232.612C62.908 232.312 62.428 231.988 61.876 231.664C61.18 232.24 60.232 232.636 58.948 232.912C58.888 232.672 58.708 232.348 58.54 232.18C59.644 231.988 60.484 231.688 61.096 231.244C60.712 231.052 60.316 230.86 59.92 230.692L59.728 231.028L58.96 230.752C59.224 230.296 59.548 229.684 59.872 229.06H58.516V228.316H60.244C60.424 227.956 60.592 227.608 60.736 227.284L61.048 227.356V225.7C60.448 226.408 59.68 227.068 58.948 227.464C58.84 227.26 58.624 226.948 58.456 226.792C59.308 226.408 60.22 225.664 60.808 224.884H58.588V224.152H61.048V221.956H61.876V224.152H64.312V224.884H61.876V224.944C62.392 225.244 63.688 226.06 64.012 226.3L63.52 226.936C63.208 226.648 62.452 226.072 61.876 225.64V227.428H61.36L61.564 227.476C61.432 227.74 61.3 228.028 61.156 228.316H64.36V229.06H63.316C63.148 229.864 62.872 230.524 62.464 231.064C62.992 231.352 63.472 231.664 63.844 231.94C64.864 231.376 65.656 230.656 66.244 229.756C65.788 228.784 65.44 227.668 65.164 226.444C64.912 227.008 64.612 227.512 64.288 227.944C64.156 227.776 63.772 227.476 63.568 227.332C64.576 226.072 65.2 224.068 65.524 221.956L66.436 222.088C66.316 222.796 66.16 223.492 65.992 224.152H69.472V224.992ZM73.108 225.952V226.24C73.108 226.78 73.096 227.32 73.06 227.86H78.952V232.912H78.004V228.772H72.964C72.772 230.272 72.304 231.724 71.2 232.936C71.056 232.72 70.72 232.396 70.516 232.24C72.028 230.548 72.196 228.34 72.196 226.252V222.28H73.108V225.052H76.504V221.98H77.44V225.052H80.8V225.952H73.108Z" fill="#CE2C3F"/>
</svg>