<svg width="360" height="328" viewBox="0 0 360 328" fill="none" xmlns="http://www.w3.org/2000/svg">
<rect width="360" height="328" fill="white"/>
<rect x="122.591" y="31" width="183.409" height="266.555" fill="#D9D9D9"/>
<circle cx="159.68" cy="52.68" r="3.68" fill="white"/>
<circle cx="159.994" cy="163.938" r="3.68" fill="#1E252C"/>
<circle cx="159.994" cy="201.106" r="3.68" fill="#1E252C"/>
<circle cx="159.994" cy="126.77" r="3.68" fill="#1E252C"/>
<circle cx="268.08" cy="163.938" r="3.68" fill="#1E252C"/>
<circle cx="268.08" cy="201.106" r="3.68" fill="#1E252C"/>
<circle cx="268.08" cy="126.77" r="3.68" fill="#1E252C"/>
<circle cx="195.612" cy="52.68" r="3.68" fill="white"/>
<circle cx="231.544" cy="52.68" r="3.68" fill="white"/>
<circle cx="177.112" cy="76.637" r="3.68" fill="white"/>
<circle cx="213.045" cy="76.637" r="3.68" fill="white"/>
<circle cx="248.977" cy="76.637" r="3.68" fill="white"/>
<circle cx="267.477" cy="52.68" r="3.68" fill="white"/>
<circle cx="159.68" cy="275.217" r="3.68" fill="white"/>
<circle cx="195.612" cy="275.217" r="3.68" fill="white"/>
<circle cx="231.544" cy="275.217" r="3.68" fill="white"/>
<circle cx="177.112" cy="253.932" r="3.68" fill="white"/>
<circle cx="213.045" cy="253.932" r="3.68" fill="white"/>
<circle cx="248.977" cy="253.932" r="3.68" fill="white"/>
<circle cx="267.477" cy="275.217" r="3.68" fill="white"/>
<path d="M62.8127 140.961V141.885C62.8127 142.857 62.5727 144.033 61.3727 144.789C61.2647 144.621 60.9407 144.297 60.7727 144.177C61.8407 143.517 61.9847 142.653 61.9847 141.861V140.169H65.5247V143.109C65.5247 143.337 65.5367 143.457 65.5967 143.505C65.6447 143.541 65.7047 143.553 65.7887 143.553H66.1367C66.2327 143.553 66.3407 143.541 66.3887 143.517C66.4487 143.481 66.4967 143.397 66.5207 143.253C66.5567 143.073 66.5687 142.713 66.5807 142.233C66.7247 142.365 67.0247 142.509 67.2527 142.569C67.2287 143.037 67.1927 143.577 67.1327 143.769C67.0607 143.973 66.9407 144.093 66.7727 144.165C66.6407 144.249 66.4007 144.285 66.2087 144.285H65.5967C65.3807 144.285 65.0927 144.225 64.9367 144.069C64.7687 143.925 64.6967 143.721 64.6967 143.061V140.961H62.8127ZM61.1567 147.993L57.9407 148.569V150.609H57.1007V148.725L56.2727 148.869L56.1167 148.005L57.1007 147.849V140.565L57.5807 140.733C58.6487 140.445 59.7647 140.049 60.4127 139.677L61.1807 140.313C60.2927 140.745 59.0687 141.117 57.9407 141.393V142.773H60.7007V143.589H57.9407V145.053H60.7967V145.881H57.9407V147.705C58.9247 147.549 60.0287 147.357 61.1087 147.165L61.1567 147.993ZM65.4887 145.773H62.5847C62.9087 146.601 63.3767 147.345 63.9767 147.969C64.6127 147.357 65.1287 146.637 65.4887 145.773ZM66.0647 144.921L66.6287 145.149C66.2087 146.565 65.5127 147.681 64.6247 148.545C65.3567 149.133 66.2327 149.565 67.2527 149.841C67.0367 150.009 66.7847 150.369 66.6647 150.609C65.6207 150.285 64.7087 149.793 63.9527 149.133C63.0407 149.817 61.9967 150.309 60.8687 150.645C60.7727 150.417 60.5567 150.057 60.3767 149.865C61.4447 149.589 62.4647 149.145 63.3167 148.509C62.6687 147.789 62.1647 146.913 61.7927 145.929L62.3807 145.773H61.3007V144.957H65.8967L66.0647 144.921ZM72.2687 140.877H69.6767V141.873H72.2687V140.877ZM69.6767 143.589H72.2687V142.533H69.6767V143.589ZM73.1207 144.273H69.6767V150.633H68.7887V140.181H73.1207V144.273ZM75.0527 145.857H72.2327V146.973H75.0527V145.857ZM72.2327 148.809H75.0527V147.645H72.2327V148.809ZM75.8807 149.517H72.2327V150.117H71.4287V145.173H75.8807V149.517ZM75.0407 143.601H77.7287V142.533H75.0407V143.601ZM77.7287 140.877H75.0407V141.873H77.7287V140.877ZM78.6287 140.181V149.445C78.6287 150.009 78.4967 150.309 78.1007 150.465C77.7167 150.609 77.0807 150.621 76.0847 150.621C76.0487 150.369 75.9047 149.949 75.7727 149.709C76.5047 149.745 77.2367 149.733 77.4527 149.721C77.6567 149.721 77.7287 149.649 77.7287 149.433V144.285H74.1887V140.181H78.6287ZM83.3447 140.145L83.9207 140.493C83.6087 141.477 83.1767 142.701 82.8167 143.661C83.6207 144.633 83.8007 145.497 83.8007 146.241C83.8127 146.865 83.6687 147.369 83.3567 147.597C83.2007 147.717 83.0087 147.777 82.7687 147.813C82.5527 147.837 82.2887 147.849 82.0367 147.837C82.0247 147.609 81.9527 147.285 81.8327 147.057C82.0607 147.081 82.2887 147.081 82.4447 147.069C82.5887 147.069 82.7087 147.033 82.8047 146.973C82.9727 146.841 83.0207 146.505 83.0207 146.145C83.0207 145.497 82.8287 144.693 82.0247 143.757C82.3487 142.881 82.6727 141.813 82.9127 140.997H81.4487V150.621H80.6687V140.181H83.2127L83.3447 140.145ZM89.3207 148.473H87.8567V150.381H87.1367V148.473H85.7687V147.825H89.3207V148.473ZM89.9927 146.637L90.0047 146.649V145.677H88.5047V146.469C88.5047 146.661 88.5407 146.673 88.8167 146.673H89.7407C89.9207 146.673 89.9687 146.673 89.9927 146.637ZM90.8327 144.957V149.709C90.8327 150.117 90.7487 150.333 90.4727 150.477C90.1847 150.597 89.7527 150.597 89.0807 150.597C89.0567 150.393 88.9247 150.069 88.8287 149.865C89.2967 149.877 89.7047 149.877 89.8367 149.865C89.9687 149.865 90.0047 149.829 90.0047 149.709V147.237C89.9567 147.249 89.9087 147.249 89.8487 147.249H88.7567C88.0847 147.249 87.9167 147.093 87.9167 146.469V145.677H87.0527C86.9207 146.649 86.5007 147.249 85.4327 147.573C85.3727 147.441 85.1927 147.213 85.0727 147.105C85.9607 146.853 86.3087 146.433 86.4407 145.677H85.0247V150.621H84.2087V144.957H90.8327ZM89.2727 143.601V142.365H85.8287V143.601H89.2727ZM90.1487 141.729V144.249H84.9767V141.729H90.1487ZM84.3047 140.313H90.8807V141.069H84.3047V140.313Z" fill="#1E252C"/>
<path d="M108.588 248.896V247.408H106.716V248.896H108.588ZM108.588 251.08V249.592H106.716V251.08H108.588ZM108.588 253.288V251.776H106.716V253.288H108.588ZM109.392 246.676V254.032H105.936V246.676H109.392ZM104.82 246.028L105.648 246.256C105.384 247.048 105.072 247.84 104.712 248.596V256.912H103.86V250.192C103.5 250.792 103.128 251.332 102.732 251.8C102.648 251.584 102.408 251.116 102.264 250.9C103.296 249.7 104.244 247.876 104.82 246.028ZM106.632 254.284L107.412 254.656C107.004 255.412 106.368 256.3 105.804 256.84C105.66 256.708 105.348 256.468 105.168 256.336C105.744 255.82 106.344 254.944 106.632 254.284ZM108.024 254.62L108.672 254.272C109.08 254.884 109.548 255.688 109.752 256.192L109.056 256.6C108.876 256.084 108.42 255.244 108.024 254.62ZM111.12 247.192V254.212H110.328V247.192H111.12ZM112.332 246.124H113.136V255.844C113.136 256.36 113.016 256.624 112.704 256.756C112.404 256.9 111.876 256.924 111.036 256.924C111.012 256.696 110.892 256.312 110.772 256.084C111.384 256.108 111.912 256.096 112.092 256.096C112.26 256.096 112.332 256.036 112.332 255.856V246.124ZM115.224 255.772L114.42 255.292C115.236 254.44 115.68 253.012 115.908 251.716L116.748 251.932C116.496 253.288 116.076 254.836 115.224 255.772ZM118.416 249.688H117.528V248.38H114.804V247.516H117.528V245.956H118.416V247.516H121.572V245.956H122.46V247.516H125.196V248.38H122.46V249.688H121.572V248.38H118.416V249.688ZM118.464 250.072L119.088 249.556C120.084 250.084 121.248 250.924 121.8 251.572L121.128 252.16C120.612 251.512 119.46 250.636 118.464 250.072ZM119.268 255.808H121.452C122.04 255.808 122.124 255.544 122.196 253.972C122.4 254.116 122.784 254.272 123.036 254.332C122.916 256.18 122.64 256.66 121.488 256.66H119.208C117.96 256.66 117.636 256.372 117.636 255.304V251.236H118.524V255.304C118.524 255.712 118.632 255.808 119.268 255.808ZM122.688 251.812L123.468 251.464C124.368 252.568 125.28 254.056 125.604 255.064L124.764 255.472C124.452 254.464 123.564 252.94 122.688 251.812ZM130.152 246.556L131.268 246.676C131.22 246.892 131.172 247.144 131.124 247.372C131.064 247.72 130.956 248.416 130.824 249.052C131.376 249.016 131.868 248.98 132.156 248.98C133.212 248.98 134.088 249.388 134.088 250.996C134.088 252.412 133.884 254.284 133.392 255.28C133.02 256.072 132.432 256.276 131.652 256.276C131.208 256.276 130.632 256.18 130.26 256.096L130.104 255.088C130.596 255.244 131.232 255.352 131.556 255.352C132 255.352 132.348 255.256 132.6 254.74C132.972 253.936 133.152 252.4 133.152 251.104C133.152 250.024 132.66 249.832 131.904 249.832C131.616 249.832 131.148 249.868 130.632 249.916C130.2 251.62 129.396 254.284 128.136 256.3L127.152 255.904C128.364 254.284 129.252 251.596 129.648 250.012C129.036 250.072 128.46 250.132 128.148 250.168C127.872 250.204 127.392 250.264 127.08 250.312L126.984 249.268C127.356 249.292 127.668 249.28 128.04 249.268C128.436 249.256 129.132 249.196 129.852 249.136C130.02 248.284 130.152 247.36 130.152 246.556ZM134.472 248.32L135.36 247.936C136.104 248.896 137.124 251.08 137.532 252.184L136.596 252.628C136.248 251.404 135.312 249.316 134.472 248.32ZM147.18 248.02C147.492 248.464 147.924 249.196 148.164 249.688L147.516 249.976C147.288 249.484 146.868 248.764 146.544 248.296L147.18 248.02ZM148.5 247.54C148.836 247.984 149.292 248.74 149.52 249.184L148.872 249.472C148.608 248.956 148.224 248.272 147.876 247.816L148.5 247.54ZM144.384 250.096L143.772 249.52C144.084 249.328 144.42 249.076 144.588 248.932C144.072 248.512 142.968 247.924 142.056 247.552L142.62 246.844C143.532 247.228 144.84 247.876 145.548 248.404L145.776 249.028C145.488 249.268 144.816 249.784 144.384 250.096ZM141.624 256.204L141.48 255.196C142.092 255.376 142.656 255.472 143.4 255.472C143.952 255.472 144.6 255.256 144.6 254.488C144.6 253.684 143.724 252.592 143.076 251.884C142.812 251.62 142.452 251.284 142.116 250.996L142.848 250.372C143.136 250.672 143.436 250.996 143.712 251.296C144.828 252.46 145.608 253.516 145.608 254.584C145.608 256.048 144.42 256.384 143.556 256.384C142.8 256.384 142.152 256.3 141.624 256.204ZM149.22 255.172L148.332 255.652C147.996 254.524 147.156 252.832 146.34 251.896L147.144 251.464C147.96 252.424 148.848 254.116 149.22 255.172ZM141.9 253.336C141.204 254.056 140.016 255.064 138.864 255.748L138.288 254.944C139.272 254.416 140.652 253.36 141.324 252.616L141.9 253.336ZM153.036 246.532L154.092 246.568C153.84 247.444 153.612 249.04 153.54 249.868C154.008 248.644 155.256 247.168 156.756 247.168C158.34 247.168 159.48 248.752 159.48 251.248C159.48 254.548 157.404 256 154.452 256.54L153.888 255.676C156.468 255.28 158.484 254.248 158.484 251.26C158.484 249.388 157.86 248.044 156.6 248.044C155.124 248.044 153.756 250.192 153.612 251.752C153.552 252.208 153.552 252.616 153.636 253.204L152.7 253.276C152.64 252.832 152.58 252.16 152.58 251.392C152.58 250.264 152.796 248.512 152.94 247.552C152.988 247.18 153.024 246.82 153.036 246.532Z" fill="#1E252C"/>
<path d="M48.4175 83.3643H53.6975V84.2523H43.0055V83.3643H47.4815V74.0523H48.4175V77.7243H52.8815V78.6123H48.4175V83.3643ZM65.3855 74.4603V77.2923H59.4095V74.4603H60.2255V76.5003H61.8815V73.8843H62.7335V76.5003H64.5455V74.4603H65.3855ZM58.7735 76.2603V77.0643H55.0055V76.2603H56.5175V74.0163H57.3215V76.2603H58.7735ZM56.4455 81.3843L55.7135 81.5043C55.7135 80.4603 55.5215 78.8643 55.2815 77.6403L55.9535 77.5323C56.2295 78.7683 56.4335 80.3403 56.4455 81.3843ZM57.7175 81.7683L58.9775 81.4923L59.0735 82.2603C57.6455 82.6203 56.1335 82.9803 54.9935 83.2683L54.7775 82.3803C55.4735 82.2603 56.3735 82.0683 57.3335 81.8523L57.0095 81.7683C57.2615 80.6523 57.5495 78.7563 57.6575 77.4363L58.4855 77.6163C58.2815 78.9363 57.9815 80.6523 57.7175 81.7683ZM65.8055 78.9843H62.7935C62.6735 79.3683 62.5535 79.7643 62.4335 80.1003H65.5535V83.9883C65.5535 84.3603 65.4935 84.5763 65.2535 84.6843C64.9895 84.8163 64.6655 84.8283 64.1375 84.8283C64.1015 84.6123 63.9815 84.3123 63.8735 84.1083C64.2095 84.1203 64.5215 84.1203 64.6175 84.1083C64.7255 84.1083 64.7495 84.0843 64.7495 83.9763V80.8683H63.6335V84.6603H62.9375V80.8683H61.8215V84.6843H61.1255V80.8683H60.0575V84.8043H59.2655V80.1003H61.5695C61.6535 79.7643 61.7375 79.3563 61.7975 78.9843H58.8815V78.1923H65.8055V78.9843ZM70.2935 76.2123H73.4015V74.0043H74.3015V76.2123H77.5775V77.0523H70.2935V76.2123ZM73.0535 82.6683L72.1775 82.8603C72.0935 81.6603 71.7215 79.5843 71.2895 78.0003L72.0815 77.8563C72.5375 79.4403 72.9455 81.4803 73.0535 82.6683ZM69.6935 73.8963L70.5215 74.1603C70.1855 75.0003 69.7655 75.8403 69.2975 76.6323V84.7803H68.4575V77.9163C68.0375 78.4923 67.5935 79.0323 67.1375 79.4763C67.0415 79.2723 66.7775 78.8163 66.6215 78.6003C67.8335 77.4723 68.9975 75.7083 69.6935 73.8963ZM75.0095 83.4243H77.8775V84.2643H70.0055V83.4243H74.1455C74.6975 81.9123 75.3215 79.4883 75.6335 77.7483L76.5935 77.9163C76.1855 79.6923 75.5615 81.9363 75.0095 83.4243ZM83.3375 75.0123V76.0803H85.2935V75.0123H83.3375ZM82.5095 76.0803V75.0123H80.6015V76.0803H82.5095ZM86.1215 75.0123V76.0803H88.1375V75.0123H86.1215ZM87.6575 79.9923V79.3443H82.7975V79.9923H87.6575ZM87.6575 81.1803V80.5203H82.7975V81.1803H87.6575ZM87.6575 82.3923V81.7203H82.7975V82.3923H87.6575ZM81.9695 78.7923H83.7575C83.7935 78.5763 83.8415 78.3363 83.8775 78.0963H79.2095V77.3883H83.9855C84.0095 77.1723 84.0335 76.9443 84.0575 76.7403H79.7615V74.3643H89.0135V76.7403H84.9575C84.9215 76.9443 84.8975 77.1723 84.8615 77.3883H89.5055V78.0963H84.7415C84.7055 78.3483 84.6575 78.5763 84.6215 78.7923H88.5095V82.9323H81.9695V78.7923ZM89.8055 83.6043V84.3243H80.7575V84.8283H79.8695V78.9723H80.7575V83.6043H89.8055Z" fill="#1E252C"/>
<line x1="98.3854" y1="30.8681" x2="118.036" y2="30.8681" stroke="#1E252C" stroke-width="0.611364"/>
<line x1="102.11" y1="31" x2="102.11" y2="164.277" stroke="#1E252C" stroke-width="0.611364"/>
<line x1="122.897" y1="229.082" x2="122.897" y2="240.087" stroke="#1E252C" stroke-width="0.611364"/>
<line x1="160.306" y1="214.408" x2="160.306" y2="240.085" stroke="#1E252C" stroke-width="0.611364"/>
<line x1="98.1365" y1="126.694" x2="140.932" y2="126.694" stroke="#1E252C" stroke-width="0.611364"/>
<line x1="98.1365" y1="163.694" x2="140.932" y2="163.694" stroke="#1E252C" stroke-width="0.611364"/>
<line x1="122.591" y1="234.89" x2="160.495" y2="234.89" stroke="#1E252C" stroke-width="0.611364"/>
<rect x="143.877" y="109.754" width="32.0136" height="109.045" stroke="#CE2C3F" stroke-dasharray="1.67 1.67"/>
<path d="M192.208 161.364H188.008C189.004 163.416 190.732 165.324 192.616 166.236C192.4 166.416 192.088 166.764 191.956 167.016C190.144 166.02 188.536 164.196 187.456 162.12V165.792H189.736V166.68H187.456V168.912H186.532V166.68H184.192V165.792H186.532V162.12C185.428 164.196 183.808 166.008 182.044 167.028C181.912 166.812 181.612 166.476 181.408 166.308C183.232 165.36 184.972 163.416 185.98 161.364H181.816V160.476H186.532V157.968H187.456V160.476H192.208V161.364ZM198.256 158.196L199.036 158.52C198.688 159.072 198.28 159.672 197.968 160.068L197.368 159.78C197.656 159.36 198.064 158.664 198.256 158.196ZM195.484 159.78L194.776 160.092C194.668 159.672 194.356 159.012 194.032 158.52L194.704 158.244C195.04 158.724 195.364 159.36 195.484 159.78ZM200.74 160.992L200.728 161.028C200.956 162.408 201.292 163.704 201.772 164.82C202.288 163.752 202.612 162.48 202.828 160.992H200.74ZM197.464 165.06H195.784C195.616 165.396 195.436 165.72 195.28 166.032C195.76 166.224 196.24 166.44 196.708 166.668C197.068 166.236 197.308 165.708 197.464 165.06ZM204.472 160.992H203.752C203.452 162.936 202.996 164.52 202.264 165.804C202.864 166.836 203.62 167.652 204.58 168.156C204.376 168.324 204.088 168.672 203.968 168.912C203.044 168.372 202.312 167.604 201.724 166.644C201.016 167.58 200.116 168.348 198.94 168.948C198.868 168.792 198.712 168.528 198.556 168.324L198.28 168.612C197.908 168.312 197.428 167.988 196.876 167.664C196.18 168.24 195.232 168.636 193.948 168.912C193.888 168.672 193.708 168.348 193.54 168.18C194.644 167.988 195.484 167.688 196.096 167.244C195.712 167.052 195.316 166.86 194.92 166.692L194.728 167.028L193.96 166.752C194.224 166.296 194.548 165.684 194.872 165.06H193.516V164.316H195.244C195.424 163.956 195.592 163.608 195.736 163.284L196.048 163.356V161.7C195.448 162.408 194.68 163.068 193.948 163.464C193.84 163.26 193.624 162.948 193.456 162.792C194.308 162.408 195.22 161.664 195.808 160.884H193.588V160.152H196.048V157.956H196.876V160.152H199.312V160.884H196.876V160.944C197.392 161.244 198.688 162.06 199.012 162.3L198.52 162.936C198.208 162.648 197.452 162.072 196.876 161.64V163.428H196.36L196.564 163.476C196.432 163.74 196.3 164.028 196.156 164.316H199.36V165.06H198.316C198.148 165.864 197.872 166.524 197.464 167.064C197.992 167.352 198.472 167.664 198.844 167.94C199.864 167.376 200.656 166.656 201.244 165.756C200.788 164.784 200.44 163.668 200.164 162.444C199.912 163.008 199.612 163.512 199.288 163.944C199.156 163.776 198.772 163.476 198.568 163.332C199.576 162.072 200.2 160.068 200.524 157.956L201.436 158.088C201.316 158.796 201.16 159.492 200.992 160.152H204.472V160.992ZM208.108 161.952V162.24C208.108 162.78 208.096 163.32 208.06 163.86H213.952V168.912H213.004V164.772H207.964C207.772 166.272 207.304 167.724 206.2 168.936C206.056 168.72 205.72 168.396 205.516 168.24C207.028 166.548 207.196 164.34 207.196 162.252V158.28H208.108V161.052H211.504V157.98H212.44V161.052H215.8V161.952H208.108Z" fill="#CE2C3F"/>
</svg>
