<svg width="360" height="328" viewBox="0 0 360 328" fill="none" xmlns="http://www.w3.org/2000/svg">
<rect width="360" height="328" fill="white"/>
<path d="M43.6443 49H341.096V129.06H274.331V279H111.904V129.06H43.6443V49Z" fill="#D9D9D9"/>
<circle cx="141.974" cy="164.008" r="3.68" fill="#1E252C"/>
<circle cx="141.974" cy="201.78" r="3.68" fill="#1E252C"/>
<circle cx="141.974" cy="126.237" r="3.68" fill="#1E252C"/>
<circle cx="237.245" cy="164.008" r="3.68" fill="#1E252C"/>
<circle cx="237.245" cy="201.78" r="3.68" fill="#1E252C"/>
<circle cx="237.245" cy="126.237" r="3.68" fill="#1E252C"/>
<circle cx="143.891" cy="66.68" r="3.68" fill="white"/>
<circle cx="176.387" cy="66.68" r="3.68" fill="white"/>
<circle cx="208.882" cy="66.68" r="3.68" fill="white"/>
<circle cx="159.656" cy="88.346" r="3.68" fill="white"/>
<circle cx="192.152" cy="88.346" r="3.68" fill="white"/>
<circle cx="224.647" cy="88.346" r="3.68" fill="white"/>
<circle cx="241.377" cy="66.68" r="3.68" fill="white"/>
<circle cx="141.68" cy="256.873" r="3.68" fill="white"/>
<circle cx="174.175" cy="256.873" r="3.68" fill="white"/>
<circle cx="206.67" cy="256.873" r="3.68" fill="white"/>
<circle cx="157.445" cy="237.625" r="3.68" fill="white"/>
<circle cx="189.94" cy="237.625" r="3.68" fill="white"/>
<circle cx="222.435" cy="237.625" r="3.68" fill="white"/>
<circle cx="239.166" cy="256.873" r="3.68" fill="white"/>
<path d="M39.515 142.607V143.531C39.515 144.503 39.275 145.679 38.075 146.435C37.967 146.267 37.643 145.943 37.475 145.823C38.543 145.163 38.687 144.299 38.687 143.507V141.815H42.227V144.755C42.227 144.983 42.239 145.103 42.299 145.151C42.347 145.187 42.407 145.199 42.491 145.199H42.839C42.935 145.199 43.043 145.187 43.091 145.163C43.151 145.127 43.199 145.043 43.223 144.899C43.259 144.719 43.271 144.359 43.283 143.879C43.427 144.011 43.727 144.155 43.955 144.215C43.931 144.683 43.895 145.223 43.835 145.415C43.763 145.619 43.643 145.739 43.475 145.811C43.343 145.895 43.103 145.931 42.911 145.931H42.299C42.083 145.931 41.795 145.871 41.639 145.715C41.471 145.571 41.399 145.367 41.399 144.707V142.607H39.515ZM37.859 149.639L34.643 150.215V152.255H33.803V150.371L32.975 150.515L32.819 149.651L33.803 149.495V142.211L34.283 142.379C35.351 142.091 36.467 141.695 37.115 141.323L37.883 141.959C36.995 142.391 35.771 142.763 34.643 143.039V144.419H37.403V145.235H34.643V146.699H37.499V147.527H34.643V149.351C35.627 149.195 36.731 149.003 37.811 148.811L37.859 149.639ZM42.191 147.419H39.287C39.611 148.247 40.079 148.991 40.679 149.615C41.315 149.003 41.831 148.283 42.191 147.419ZM42.767 146.567L43.331 146.795C42.911 148.211 42.215 149.327 41.327 150.191C42.059 150.779 42.935 151.211 43.955 151.487C43.739 151.655 43.487 152.015 43.367 152.255C42.323 151.931 41.411 151.439 40.655 150.779C39.743 151.463 38.699 151.955 37.571 152.291C37.475 152.063 37.259 151.703 37.079 151.511C38.147 151.235 39.167 150.791 40.019 150.155C39.371 149.435 38.867 148.559 38.495 147.575L39.083 147.419H38.003V146.603H42.599L42.767 146.567ZM48.971 142.523H46.379V143.519H48.971V142.523ZM46.379 145.235H48.971V144.179H46.379V145.235ZM49.823 145.919H46.379V152.279H45.491V141.827H49.823V145.919ZM51.755 147.503H48.935V148.619H51.755V147.503ZM48.935 150.455H51.755V149.291H48.935V150.455ZM52.583 151.163H48.935V151.763H48.131V146.819H52.583V151.163ZM51.743 145.247H54.431V144.179H51.743V145.247ZM54.431 142.523H51.743V143.519H54.431V142.523ZM55.331 141.827V151.091C55.331 151.655 55.199 151.955 54.803 152.111C54.419 152.255 53.783 152.267 52.787 152.267C52.751 152.015 52.607 151.595 52.475 151.355C53.207 151.391 53.939 151.379 54.155 151.367C54.359 151.367 54.431 151.295 54.431 151.079V145.931H50.891V141.827H55.331ZM60.047 141.791L60.623 142.139C60.311 143.123 59.879 144.347 59.519 145.307C60.323 146.279 60.503 147.143 60.503 147.887C60.515 148.511 60.371 149.015 60.059 149.243C59.903 149.363 59.711 149.423 59.471 149.459C59.255 149.483 58.991 149.495 58.739 149.483C58.727 149.255 58.655 148.931 58.535 148.703C58.763 148.727 58.991 148.727 59.147 148.715C59.291 148.715 59.411 148.679 59.507 148.619C59.675 148.487 59.723 148.151 59.723 147.791C59.723 147.143 59.531 146.339 58.727 145.403C59.051 144.527 59.375 143.459 59.615 142.643H58.151V152.267H57.371V141.827H59.915L60.047 141.791ZM66.023 150.119H64.559V152.027H63.839V150.119H62.471V149.471H66.023V150.119ZM66.695 148.283L66.707 148.295V147.323H65.207V148.115C65.207 148.307 65.243 148.319 65.519 148.319H66.443C66.623 148.319 66.671 148.319 66.695 148.283ZM67.535 146.603V151.355C67.535 151.763 67.451 151.979 67.175 152.123C66.887 152.243 66.455 152.243 65.783 152.243C65.759 152.039 65.627 151.715 65.531 151.511C65.999 151.523 66.407 151.523 66.539 151.511C66.671 151.511 66.707 151.475 66.707 151.355V148.883C66.659 148.895 66.611 148.895 66.551 148.895H65.459C64.787 148.895 64.619 148.739 64.619 148.115V147.323H63.755C63.623 148.295 63.203 148.895 62.135 149.219C62.075 149.087 61.895 148.859 61.775 148.751C62.663 148.499 63.011 148.079 63.143 147.323H61.727V152.267H60.911V146.603H67.535ZM65.975 145.247V144.011H62.531V145.247H65.975ZM66.851 143.375V145.895H61.679V143.375H66.851ZM61.007 141.959H67.583V142.715H61.007V141.959Z" fill="#1E252C"/>
<path d="M76.4535 259.251V257.763H74.5815V259.251H76.4535ZM76.4535 261.435V259.947H74.5815V261.435H76.4535ZM76.4535 263.643V262.131H74.5815V263.643H76.4535ZM77.2575 257.031V264.387H73.8015V257.031H77.2575ZM72.6855 256.383L73.5135 256.611C73.2495 257.403 72.9375 258.195 72.5775 258.951V267.267H71.7255V260.547C71.3655 261.147 70.9935 261.687 70.5975 262.155C70.5135 261.939 70.2735 261.471 70.1295 261.255C71.1615 260.055 72.1095 258.231 72.6855 256.383ZM74.4975 264.639L75.2775 265.011C74.8695 265.767 74.2335 266.655 73.6695 267.195C73.5255 267.063 73.2135 266.823 73.0335 266.691C73.6095 266.175 74.2095 265.299 74.4975 264.639ZM75.8895 264.975L76.5375 264.627C76.9455 265.239 77.4135 266.043 77.6175 266.547L76.9215 266.955C76.7415 266.439 76.2855 265.599 75.8895 264.975ZM78.9855 257.547V264.567H78.1935V257.547H78.9855ZM80.1975 256.479H81.0015V266.199C81.0015 266.715 80.8815 266.979 80.5695 267.111C80.2695 267.255 79.7415 267.279 78.9015 267.279C78.8775 267.051 78.7575 266.667 78.6375 266.439C79.2495 266.463 79.7775 266.451 79.9575 266.451C80.1255 266.451 80.1975 266.391 80.1975 266.211V256.479ZM83.0895 266.127L82.2855 265.647C83.1015 264.795 83.5455 263.367 83.7735 262.071L84.6135 262.287C84.3615 263.643 83.9415 265.191 83.0895 266.127ZM86.2815 260.043H85.3935V258.735H82.6695V257.871H85.3935V256.311H86.2815V257.871H89.4375V256.311H90.3255V257.871H93.0615V258.735H90.3255V260.043H89.4375V258.735H86.2815V260.043ZM86.3295 260.427L86.9535 259.911C87.9495 260.439 89.1135 261.279 89.6655 261.927L88.9935 262.515C88.4775 261.867 87.3255 260.991 86.3295 260.427ZM87.1335 266.163H89.3175C89.9055 266.163 89.9895 265.899 90.0615 264.327C90.2655 264.471 90.6495 264.627 90.9015 264.687C90.7815 266.535 90.5055 267.015 89.3535 267.015H87.0735C85.8255 267.015 85.5015 266.727 85.5015 265.659V261.591H86.3895V265.659C86.3895 266.067 86.4975 266.163 87.1335 266.163ZM90.5535 262.167L91.3335 261.819C92.2335 262.923 93.1455 264.411 93.4695 265.419L92.6295 265.827C92.3175 264.819 91.4295 263.295 90.5535 262.167ZM98.0175 256.911L99.1335 257.031C99.0855 257.247 99.0375 257.499 98.9895 257.727C98.9295 258.075 98.8215 258.771 98.6895 259.407C99.2415 259.371 99.7335 259.335 100.021 259.335C101.077 259.335 101.953 259.743 101.953 261.351C101.953 262.767 101.749 264.639 101.257 265.635C100.885 266.427 100.297 266.631 99.5175 266.631C99.0735 266.631 98.4975 266.535 98.1255 266.451L97.9695 265.443C98.4615 265.599 99.0975 265.707 99.4215 265.707C99.8655 265.707 100.213 265.611 100.465 265.095C100.837 264.291 101.017 262.755 101.017 261.459C101.017 260.379 100.525 260.187 99.7695 260.187C99.4815 260.187 99.0135 260.223 98.4975 260.271C98.0655 261.975 97.2615 264.639 96.0015 266.655L95.0175 266.259C96.2295 264.639 97.1175 261.951 97.5135 260.367C96.9015 260.427 96.3255 260.487 96.0135 260.523C95.7375 260.559 95.2575 260.619 94.9455 260.667L94.8495 259.623C95.2215 259.647 95.5335 259.635 95.9055 259.623C96.3015 259.611 96.9975 259.551 97.7175 259.491C97.8855 258.639 98.0175 257.715 98.0175 256.911ZM102.337 258.675L103.225 258.291C103.969 259.251 104.989 261.435 105.397 262.539L104.461 262.983C104.113 261.759 103.177 259.671 102.337 258.675ZM115.045 258.375C115.357 258.819 115.789 259.551 116.029 260.043L115.381 260.331C115.153 259.839 114.733 259.119 114.409 258.651L115.045 258.375ZM116.365 257.895C116.701 258.339 117.157 259.095 117.385 259.539L116.737 259.827C116.473 259.311 116.089 258.627 115.741 258.171L116.365 257.895ZM112.249 260.451L111.637 259.875C111.949 259.683 112.285 259.431 112.453 259.287C111.937 258.867 110.833 258.279 109.921 257.907L110.485 257.199C111.397 257.583 112.705 258.231 113.413 258.759L113.641 259.383C113.353 259.623 112.681 260.139 112.249 260.451ZM109.489 266.559L109.345 265.551C109.957 265.731 110.521 265.827 111.265 265.827C111.817 265.827 112.465 265.611 112.465 264.843C112.465 264.039 111.589 262.947 110.941 262.239C110.677 261.975 110.317 261.639 109.981 261.351L110.713 260.727C111.001 261.027 111.301 261.351 111.577 261.651C112.693 262.815 113.473 263.871 113.473 264.939C113.473 266.403 112.285 266.739 111.421 266.739C110.665 266.739 110.017 266.655 109.489 266.559ZM117.085 265.527L116.197 266.007C115.861 264.879 115.021 263.187 114.205 262.251L115.009 261.819C115.825 262.779 116.713 264.471 117.085 265.527ZM109.765 263.691C109.069 264.411 107.881 265.419 106.729 266.103L106.153 265.299C107.137 264.771 108.517 263.715 109.189 262.971L109.765 263.691ZM120.901 256.887L121.957 256.923C121.705 257.799 121.477 259.395 121.405 260.223C121.873 258.999 123.121 257.523 124.621 257.523C126.205 257.523 127.345 259.107 127.345 261.603C127.345 264.903 125.269 266.355 122.317 266.895L121.753 266.031C124.333 265.635 126.349 264.603 126.349 261.615C126.349 259.743 125.725 258.399 124.465 258.399C122.989 258.399 121.621 260.547 121.477 262.107C121.417 262.563 121.417 262.971 121.501 263.559L120.565 263.631C120.505 263.187 120.445 262.515 120.445 261.747C120.445 260.619 120.661 258.867 120.805 257.907C120.853 257.535 120.889 257.175 120.901 256.887Z" fill="#1E252C"/>
<path d="M30.5213 91.9991H35.8013V92.8871H25.1093V91.9991H29.5853V82.6871H30.5213V86.3591H34.9853V87.2471H30.5213V91.9991ZM47.4893 83.0951V85.9271H41.5133V83.0951H42.3293V85.1351H43.9853V82.5191H44.8373V85.1351H46.6493V83.0951H47.4893ZM40.8773 84.8951V85.6991H37.1093V84.8951H38.6213V82.6511H39.4253V84.8951H40.8773ZM38.5493 90.0191L37.8173 90.1391C37.8173 89.0951 37.6253 87.4991 37.3853 86.2751L38.0573 86.1671C38.3333 87.4031 38.5373 88.9751 38.5493 90.0191ZM39.8213 90.4031L41.0813 90.1271L41.1773 90.8951C39.7493 91.2551 38.2373 91.6151 37.0973 91.9031L36.8813 91.0151C37.5773 90.8951 38.4773 90.7031 39.4373 90.4871L39.1133 90.4031C39.3653 89.2871 39.6533 87.3911 39.7613 86.0711L40.5893 86.2511C40.3853 87.5711 40.0853 89.2871 39.8213 90.4031ZM47.9093 87.6191H44.8973C44.7773 88.0031 44.6573 88.3991 44.5373 88.7351H47.6573V92.6231C47.6573 92.9951 47.5973 93.2111 47.3573 93.3191C47.0933 93.4511 46.7693 93.4631 46.2413 93.4631C46.2053 93.2471 46.0853 92.9471 45.9773 92.7431C46.3133 92.7551 46.6253 92.7551 46.7213 92.7431C46.8293 92.7431 46.8533 92.7191 46.8533 92.6111V89.5031H45.7373V93.2951H45.0413V89.5031H43.9253V93.3191H43.2293V89.5031H42.1613V93.4391H41.3693V88.7351H43.6733C43.7573 88.3991 43.8413 87.9911 43.9013 87.6191H40.9853V86.8271H47.9093V87.6191ZM52.3973 84.8471H55.5053V82.6391H56.4053V84.8471H59.6813V85.6871H52.3973V84.8471ZM55.1573 91.3031L54.2813 91.4951C54.1973 90.2951 53.8253 88.2191 53.3933 86.6351L54.1853 86.4911C54.6413 88.0751 55.0493 90.1151 55.1573 91.3031ZM51.7973 82.5311L52.6253 82.7951C52.2893 83.6351 51.8693 84.4751 51.4013 85.2671V93.4151H50.5613V86.5511C50.1413 87.1271 49.6973 87.6671 49.2413 88.1111C49.1453 87.9071 48.8813 87.4511 48.7253 87.2351C49.9373 86.1071 51.1013 84.3431 51.7973 82.5311ZM57.1133 92.0591H59.9813V92.8991H52.1093V92.0591H56.2493C56.8013 90.5471 57.4253 88.1231 57.7373 86.3831L58.6973 86.5511C58.2893 88.3271 57.6653 90.5711 57.1133 92.0591ZM65.4413 83.6471V84.7151H67.3973V83.6471H65.4413ZM64.6133 84.7151V83.6471H62.7053V84.7151H64.6133ZM68.2253 83.6471V84.7151H70.2413V83.6471H68.2253ZM69.7613 88.6271V87.9791H64.9013V88.6271H69.7613ZM69.7613 89.8151V89.1551H64.9013V89.8151H69.7613ZM69.7613 91.0271V90.3551H64.9013V91.0271H69.7613ZM64.0733 87.4271H65.8613C65.8973 87.2111 65.9453 86.9711 65.9813 86.7311H61.3133V86.0231H66.0893C66.1133 85.8071 66.1373 85.5791 66.1613 85.3751H61.8653V82.9991H71.1173V85.3751H67.0613C67.0253 85.5791 67.0013 85.8071 66.9653 86.0231H71.6093V86.7311H66.8453C66.8093 86.9831 66.7613 87.2111 66.7253 87.4271H70.6133V91.5671H64.0733V87.4271ZM71.9093 92.2391V92.9591H62.8613V93.4631H61.9733V87.6071H62.8613V92.2391H71.9093Z" fill="#1E252C"/>
<line x1="81.338" y1="49" x2="81.338" y2="164" stroke="#1E252C" stroke-width="0.676027"/>
<line x1="142.338" y1="215" x2="142.338" y2="250.385" stroke="#1E252C" stroke-width="0.676027"/>
<line x1="111.8" y1="238.086" x2="111.8" y2="250.254" stroke="#1E252C" stroke-width="0.676027"/>
<line x1="76.8174" y1="125.662" x2="124.139" y2="125.662" stroke="#1E252C" stroke-width="0.676027"/>
<line x1="76.9681" y1="48.662" x2="124.29" y2="48.662" stroke="#1E252C" stroke-width="0.676027"/>
<line x1="76.968" y1="163.662" x2="124.29" y2="163.662" stroke="#1E252C" stroke-width="0.676027"/>
<line x1="112" y1="244.662" x2="142" y2="244.662" stroke="#1E252C" stroke-width="0.676027"/>
<rect x="124.5" y="112.529" width="35.4904" height="107.365" stroke="#CE2C3F" stroke-dasharray="1.85 1.85"/>
<path d="M181.804 162.413H177.604C178.6 164.465 180.328 166.373 182.212 167.285C181.996 167.465 181.684 167.813 181.552 168.065C179.74 167.069 178.132 165.245 177.052 163.169V166.841H179.332V167.729H177.052V169.961H176.128V167.729H173.788V166.841H176.128V163.169C175.024 165.245 173.404 167.057 171.64 168.077C171.508 167.861 171.208 167.525 171.004 167.357C172.828 166.409 174.568 164.465 175.576 162.413H171.412V161.525H176.128V159.017H177.052V161.525H181.804V162.413ZM187.852 159.245L188.632 159.569C188.284 160.121 187.876 160.721 187.564 161.117L186.964 160.829C187.252 160.409 187.66 159.713 187.852 159.245ZM185.08 160.829L184.372 161.141C184.264 160.721 183.952 160.061 183.628 159.569L184.3 159.293C184.636 159.773 184.96 160.409 185.08 160.829ZM190.336 162.041L190.324 162.077C190.552 163.457 190.888 164.753 191.368 165.869C191.884 164.801 192.208 163.529 192.424 162.041H190.336ZM187.06 166.109H185.38C185.212 166.445 185.032 166.769 184.876 167.081C185.356 167.273 185.836 167.489 186.304 167.717C186.664 167.285 186.904 166.757 187.06 166.109ZM194.068 162.041H193.348C193.048 163.985 192.592 165.569 191.86 166.853C192.46 167.885 193.216 168.701 194.176 169.205C193.972 169.373 193.684 169.721 193.564 169.961C192.64 169.421 191.908 168.653 191.32 167.693C190.612 168.629 189.712 169.397 188.536 169.997C188.464 169.841 188.308 169.577 188.152 169.373L187.876 169.661C187.504 169.361 187.024 169.037 186.472 168.713C185.776 169.289 184.828 169.685 183.544 169.961C183.484 169.721 183.304 169.397 183.136 169.229C184.24 169.037 185.08 168.737 185.692 168.293C185.308 168.101 184.912 167.909 184.516 167.741L184.324 168.077L183.556 167.801C183.82 167.345 184.144 166.733 184.468 166.109H183.112V165.365H184.84C185.02 165.005 185.188 164.657 185.332 164.333L185.644 164.405V162.749C185.044 163.457 184.276 164.117 183.544 164.513C183.436 164.309 183.22 163.997 183.052 163.841C183.904 163.457 184.816 162.713 185.404 161.933H183.184V161.201H185.644V159.005H186.472V161.201H188.908V161.933H186.472V161.993C186.988 162.293 188.284 163.109 188.608 163.349L188.116 163.985C187.804 163.697 187.048 163.121 186.472 162.689V164.477H185.956L186.16 164.525C186.028 164.789 185.896 165.077 185.752 165.365H188.956V166.109H187.912C187.744 166.913 187.468 167.573 187.06 168.113C187.588 168.401 188.068 168.713 188.44 168.989C189.46 168.425 190.252 167.705 190.84 166.805C190.384 165.833 190.036 164.717 189.76 163.493C189.508 164.057 189.208 164.561 188.884 164.993C188.752 164.825 188.368 164.525 188.164 164.381C189.172 163.121 189.796 161.117 190.12 159.005L191.032 159.137C190.912 159.845 190.756 160.541 190.588 161.201H194.068V162.041ZM197.704 163.001V163.289C197.704 163.829 197.692 164.369 197.656 164.909H203.548V169.961H202.6V165.821H197.56C197.368 167.321 196.9 168.773 195.796 169.985C195.652 169.769 195.316 169.445 195.112 169.289C196.624 167.597 196.792 165.389 196.792 163.301V159.329H197.704V162.101H201.1V159.029H202.036V162.101H205.396V163.001H197.704Z" fill="#CE2C3F"/>
</svg>
