<svg width="360" height="328" viewBox="0 0 360 328" fill="none" xmlns="http://www.w3.org/2000/svg">
<rect width="360" height="328" fill="white"/>
<rect x="312.434" y="96.791" width="134.637" height="159.569" transform="rotate(90 312.434 96.791)" fill="#D9D9D9"/>
<path d="M152.979 96.9632C152.979 75.7556 161.404 55.4167 176.4 40.4207C191.396 25.4247 211.735 17 232.942 17C254.15 17 274.489 25.4247 289.485 40.4207C304.481 55.4167 312.906 75.7556 312.906 96.9632L232.942 96.9632L152.979 96.9632Z" fill="#D9D9D9"/>
<path d="M172.364 97.448C172.364 82.0243 178.491 67.2324 189.398 56.3262C200.304 45.42 215.096 39.293 230.519 39.293C245.943 39.293 260.735 45.42 271.641 56.3262C282.548 67.2324 289.159 82.0243 289.159 97.448" stroke="black" stroke-width="0.484625" stroke-dasharray="1.94 1.94"/>
<path d="M191.749 97.4473C191.749 87.4219 195.817 77.8071 203.058 70.7181C210.298 63.6291 220.119 59.6465 230.358 59.6465C240.598 59.6465 250.419 63.6291 257.659 70.7181C264.9 77.8071 269.289 87.4219 269.289 97.4473" stroke="black" stroke-width="0.484625" stroke-dasharray="1.94 1.94"/>
<line x1="288.99" y1="96.791" x2="288.99" y2="231.428" stroke="black" stroke-width="0.484625" stroke-dasharray="1.94 1.94"/>
<line x1="172.626" y1="97.3164" x2="172.626" y2="231.953" stroke="black" stroke-width="0.484625" stroke-dasharray="1.94 1.94"/>
<circle cx="198.535" cy="48.9844" r="3.877" transform="rotate(90 198.535 48.9844)" fill="white"/>
<circle cx="263.474" cy="48.9844" r="3.877" transform="rotate(90 263.474 48.9844)" fill="white"/>
<circle cx="178.18" cy="73.2169" r="3.877" transform="rotate(90 178.18 73.2169)" fill="white"/>
<circle cx="283.829" cy="73.2169" r="3.877" transform="rotate(90 283.829 73.2169)" fill="white"/>
<circle cx="230.519" cy="39.293" r="3.877" transform="rotate(90 230.519 39.293)" fill="white"/>
<circle cx="230.519" cy="59.6465" r="3.877" transform="rotate(90 230.519 59.6465)" fill="white"/>
<circle cx="199.503" cy="75.1544" r="3.877" transform="rotate(90 199.503 75.1544)" fill="white"/>
<circle cx="261.536" cy="75.1544" r="3.877" transform="rotate(90 261.536 75.1544)" fill="white"/>
<circle cx="173.068" cy="107.666" r="3.877" transform="rotate(90 173.068 107.666)" fill="#1E252C"/>
<circle cx="173.068" cy="218.467" r="3.877" transform="rotate(90 173.068 218.467)" fill="#1E252C"/>
<circle cx="173.068" cy="163.066" r="3.877" transform="rotate(90 173.068 163.066)" fill="#1E252C"/>
<circle cx="173.068" cy="135.367" r="3.877" transform="rotate(90 173.068 135.367)" fill="#1E252C"/>
<circle cx="173.068" cy="190.768" r="3.877" transform="rotate(90 173.068 190.768)" fill="#1E252C"/>
<circle cx="288.885" cy="106.9" r="3.877" transform="rotate(90 288.885 106.9)" fill="#1E252C"/>
<circle cx="288.885" cy="217.701" r="3.877" transform="rotate(90 288.885 217.701)" fill="#1E252C"/>
<circle cx="288.885" cy="162.303" r="3.877" transform="rotate(90 288.885 162.303)" fill="#1E252C"/>
<circle cx="288.885" cy="134.602" r="3.877" transform="rotate(90 288.885 134.602)" fill="#1E252C"/>
<circle cx="288.885" cy="190.002" r="3.877" transform="rotate(90 288.885 190.002)" fill="#1E252C"/>
<path d="M152.428 230.359C152.428 251.567 160.853 271.906 175.849 286.902C190.845 301.898 211.184 310.322 232.391 310.322C253.599 310.322 273.938 301.898 288.934 286.902C303.93 271.906 312.354 251.567 312.354 230.359L232.391 230.359L152.428 230.359Z" fill="#D9D9D9"/>
<path d="M171.813 229.874C171.813 245.298 177.94 260.09 188.846 270.996C199.753 281.902 214.545 288.029 229.968 288.029C245.392 288.029 260.184 281.902 271.09 270.996C281.996 260.09 288.608 245.298 288.608 229.874" stroke="black" stroke-width="0.484625" stroke-dasharray="1.94 1.94"/>
<path d="M191.198 229.875C191.198 239.9 195.266 249.515 202.507 256.604C209.747 263.693 219.568 267.676 229.807 267.676C240.047 267.676 249.868 263.693 257.108 256.604C264.349 249.515 268.738 239.9 268.738 229.875" stroke="black" stroke-width="0.484625" stroke-dasharray="1.94 1.94"/>
<circle cx="3.877" cy="3.877" r="3.877" transform="matrix(-4.37114e-08 -1 -1 4.37114e-08 201.86 282.215)" fill="white"/>
<circle cx="3.877" cy="3.877" r="3.877" transform="matrix(-4.37114e-08 -1 -1 4.37114e-08 266.8 282.215)" fill="white"/>
<circle cx="3.877" cy="3.877" r="3.877" transform="matrix(-4.37114e-08 -1 -1 4.37114e-08 181.506 257.984)" fill="white"/>
<circle cx="3.877" cy="3.877" r="3.877" transform="matrix(-4.37114e-08 -1 -1 4.37114e-08 287.155 257.984)" fill="white"/>
<circle cx="3.877" cy="3.877" r="3.877" transform="matrix(-4.37114e-08 -1 -1 4.37114e-08 233.845 291.906)" fill="white"/>
<circle cx="3.877" cy="3.877" r="3.877" transform="matrix(-4.37114e-08 -1 -1 4.37114e-08 233.845 271.553)" fill="white"/>
<circle cx="3.877" cy="3.877" r="3.877" transform="matrix(-4.37114e-08 -1 -1 4.37114e-08 202.829 256.045)" fill="white"/>
<circle cx="3.877" cy="3.877" r="3.877" transform="matrix(-4.37114e-08 -1 -1 4.37114e-08 264.862 256.045)" fill="white"/>
<line x1="144.304" y1="97.0576" x2="316.831" y2="97.0576" stroke="black" stroke-width="0.486429" stroke-dasharray="1.94 1.94"/>
<line x1="144.304" y1="229.411" x2="316.831" y2="229.411" stroke="black" stroke-width="0.486429" stroke-dasharray="1.94 1.94"/>
<path d="M58.14 117.252V118.176C58.14 119.148 57.9 120.324 56.7 121.08C56.592 120.912 56.268 120.588 56.1 120.468C57.168 119.808 57.312 118.944 57.312 118.152V116.46H60.852V119.4C60.852 119.628 60.864 119.748 60.924 119.796C60.972 119.832 61.032 119.844 61.116 119.844H61.464C61.56 119.844 61.668 119.832 61.716 119.808C61.776 119.772 61.824 119.688 61.848 119.544C61.884 119.364 61.896 119.004 61.908 118.524C62.052 118.656 62.352 118.8 62.58 118.86C62.556 119.328 62.52 119.868 62.46 120.06C62.388 120.264 62.268 120.384 62.1 120.456C61.968 120.54 61.728 120.576 61.536 120.576H60.924C60.708 120.576 60.42 120.516 60.264 120.36C60.096 120.216 60.024 120.012 60.024 119.352V117.252H58.14ZM56.484 124.284L53.268 124.86V126.9H52.428V125.016L51.6 125.16L51.444 124.296L52.428 124.14V116.856L52.908 117.024C53.976 116.736 55.092 116.34 55.74 115.968L56.508 116.604C55.62 117.036 54.396 117.408 53.268 117.684V119.064H56.028V119.88H53.268V121.344H56.124V122.172H53.268V123.996C54.252 123.84 55.356 123.648 56.436 123.456L56.484 124.284ZM60.816 122.064H57.912C58.236 122.892 58.704 123.636 59.304 124.26C59.94 123.648 60.456 122.928 60.816 122.064ZM61.392 121.212L61.956 121.44C61.536 122.856 60.84 123.972 59.952 124.836C60.684 125.424 61.56 125.856 62.58 126.132C62.364 126.3 62.112 126.66 61.992 126.9C60.948 126.576 60.036 126.084 59.28 125.424C58.368 126.108 57.324 126.6 56.196 126.936C56.1 126.708 55.884 126.348 55.704 126.156C56.772 125.88 57.792 125.436 58.644 124.8C57.996 124.08 57.492 123.204 57.12 122.22L57.708 122.064H56.628V121.248H61.224L61.392 121.212ZM67.596 117.168H65.004V118.164H67.596V117.168ZM65.004 119.88H67.596V118.824H65.004V119.88ZM68.448 120.564H65.004V126.924H64.116V116.472H68.448V120.564ZM70.38 122.148H67.56V123.264H70.38V122.148ZM67.56 125.1H70.38V123.936H67.56V125.1ZM71.208 125.808H67.56V126.408H66.756V121.464H71.208V125.808ZM70.368 119.892H73.056V118.824H70.368V119.892ZM73.056 117.168H70.368V118.164H73.056V117.168ZM73.956 116.472V125.736C73.956 126.3 73.824 126.6 73.428 126.756C73.044 126.9 72.408 126.912 71.412 126.912C71.376 126.66 71.232 126.24 71.1 126C71.832 126.036 72.564 126.024 72.78 126.012C72.984 126.012 73.056 125.94 73.056 125.724V120.576H69.516V116.472H73.956ZM78.672 116.436L79.248 116.784C78.936 117.768 78.504 118.992 78.144 119.952C78.948 120.924 79.128 121.788 79.128 122.532C79.14 123.156 78.996 123.66 78.684 123.888C78.528 124.008 78.336 124.068 78.096 124.104C77.88 124.128 77.616 124.14 77.364 124.128C77.352 123.9 77.28 123.576 77.16 123.348C77.388 123.372 77.616 123.372 77.772 123.36C77.916 123.36 78.036 123.324 78.132 123.264C78.3 123.132 78.348 122.796 78.348 122.436C78.348 121.788 78.156 120.984 77.352 120.048C77.676 119.172 78 118.104 78.24 117.288H76.776V126.912H75.996V116.472H78.54L78.672 116.436ZM84.648 124.764H83.184V126.672H82.464V124.764H81.096V124.116H84.648V124.764ZM85.32 122.928L85.332 122.94V121.968H83.832V122.76C83.832 122.952 83.868 122.964 84.144 122.964H85.068C85.248 122.964 85.296 122.964 85.32 122.928ZM86.16 121.248V126C86.16 126.408 86.076 126.624 85.8 126.768C85.512 126.888 85.08 126.888 84.408 126.888C84.384 126.684 84.252 126.36 84.156 126.156C84.624 126.168 85.032 126.168 85.164 126.156C85.296 126.156 85.332 126.12 85.332 126V123.528C85.284 123.54 85.236 123.54 85.176 123.54H84.084C83.412 123.54 83.244 123.384 83.244 122.76V121.968H82.38C82.248 122.94 81.828 123.54 80.76 123.864C80.7 123.732 80.52 123.504 80.4 123.396C81.288 123.144 81.636 122.724 81.768 121.968H80.352V126.912H79.536V121.248H86.16ZM84.6 119.892V118.656H81.156V119.892H84.6ZM85.476 118.02V120.54H80.304V118.02H85.476ZM79.632 116.604H86.208V117.36H79.632V116.604Z" fill="#1E252C"/>
<path d="M115.299 252.273V250.785H113.427V252.273H115.299ZM115.299 254.457V252.969H113.427V254.457H115.299ZM115.299 256.665V255.153H113.427V256.665H115.299ZM116.103 250.053V257.409H112.647V250.053H116.103ZM111.531 249.405L112.359 249.633C112.095 250.425 111.783 251.217 111.423 251.973V260.289H110.571V253.569C110.211 254.169 109.839 254.709 109.443 255.177C109.359 254.961 109.119 254.493 108.975 254.277C110.007 253.077 110.955 251.253 111.531 249.405ZM113.343 257.661L114.123 258.033C113.715 258.789 113.079 259.677 112.515 260.217C112.371 260.085 112.059 259.845 111.879 259.713C112.455 259.197 113.055 258.321 113.343 257.661ZM114.735 257.997L115.383 257.649C115.791 258.261 116.259 259.065 116.463 259.569L115.767 259.977C115.587 259.461 115.131 258.621 114.735 257.997ZM117.831 250.569V257.589H117.039V250.569H117.831ZM119.043 249.501H119.847V259.221C119.847 259.737 119.727 260.001 119.415 260.133C119.115 260.277 118.587 260.301 117.747 260.301C117.723 260.073 117.603 259.689 117.483 259.461C118.095 259.485 118.623 259.473 118.803 259.473C118.971 259.473 119.043 259.413 119.043 259.233V249.501ZM121.935 259.149L121.131 258.669C121.947 257.817 122.391 256.389 122.619 255.093L123.459 255.309C123.207 256.665 122.787 258.213 121.935 259.149ZM125.127 253.065H124.239V251.757H121.515V250.893H124.239V249.333H125.127V250.893H128.283V249.333H129.171V250.893H131.907V251.757H129.171V253.065H128.283V251.757H125.127V253.065ZM125.175 253.449L125.799 252.933C126.795 253.461 127.959 254.301 128.511 254.949L127.839 255.537C127.323 254.889 126.171 254.013 125.175 253.449ZM125.979 259.185H128.163C128.751 259.185 128.835 258.921 128.907 257.349C129.111 257.493 129.495 257.649 129.747 257.709C129.627 259.557 129.351 260.037 128.199 260.037H125.919C124.671 260.037 124.347 259.749 124.347 258.681V254.613H125.235V258.681C125.235 259.089 125.343 259.185 125.979 259.185ZM129.399 255.189L130.179 254.841C131.079 255.945 131.991 257.433 132.315 258.441L131.475 258.849C131.163 257.841 130.275 256.317 129.399 255.189ZM136.863 249.933L137.979 250.053C137.931 250.269 137.883 250.521 137.835 250.749C137.775 251.097 137.667 251.793 137.535 252.429C138.087 252.393 138.579 252.357 138.867 252.357C139.923 252.357 140.799 252.765 140.799 254.373C140.799 255.789 140.595 257.661 140.103 258.657C139.731 259.449 139.143 259.653 138.363 259.653C137.919 259.653 137.343 259.557 136.971 259.473L136.815 258.465C137.307 258.621 137.943 258.729 138.267 258.729C138.711 258.729 139.059 258.633 139.311 258.117C139.683 257.313 139.863 255.777 139.863 254.481C139.863 253.401 139.371 253.209 138.615 253.209C138.327 253.209 137.859 253.245 137.343 253.293C136.911 254.997 136.107 257.661 134.847 259.677L133.863 259.281C135.075 257.661 135.963 254.973 136.359 253.389C135.747 253.449 135.171 253.509 134.859 253.545C134.583 253.581 134.103 253.641 133.791 253.689L133.695 252.645C134.067 252.669 134.379 252.657 134.751 252.645C135.147 252.633 135.843 252.573 136.563 252.513C136.731 251.661 136.863 250.737 136.863 249.933ZM141.183 251.697L142.071 251.313C142.815 252.273 143.835 254.457 144.243 255.561L143.307 256.005C142.959 254.781 142.023 252.693 141.183 251.697ZM153.891 251.397C154.203 251.841 154.635 252.573 154.875 253.065L154.227 253.353C153.999 252.861 153.579 252.141 153.255 251.673L153.891 251.397ZM155.211 250.917C155.547 251.361 156.003 252.117 156.231 252.561L155.583 252.849C155.319 252.333 154.935 251.649 154.587 251.193L155.211 250.917ZM151.095 253.473L150.483 252.897C150.795 252.705 151.131 252.453 151.299 252.309C150.783 251.889 149.679 251.301 148.767 250.929L149.331 250.221C150.243 250.605 151.551 251.253 152.259 251.781L152.487 252.405C152.199 252.645 151.527 253.161 151.095 253.473ZM148.335 259.581L148.191 258.573C148.803 258.753 149.367 258.849 150.111 258.849C150.663 258.849 151.311 258.633 151.311 257.865C151.311 257.061 150.435 255.969 149.787 255.261C149.523 254.997 149.163 254.661 148.827 254.373L149.559 253.749C149.847 254.049 150.147 254.373 150.423 254.673C151.539 255.837 152.319 256.893 152.319 257.961C152.319 259.425 151.131 259.761 150.267 259.761C149.511 259.761 148.863 259.677 148.335 259.581ZM155.931 258.549L155.043 259.029C154.707 257.901 153.867 256.209 153.051 255.273L153.855 254.841C154.671 255.801 155.559 257.493 155.931 258.549ZM148.611 256.713C147.915 257.433 146.727 258.441 145.575 259.125L144.999 258.321C145.983 257.793 147.363 256.737 148.035 255.993L148.611 256.713ZM159.747 249.909L160.803 249.945C160.551 250.821 160.323 252.417 160.251 253.245C160.719 252.021 161.967 250.545 163.467 250.545C165.051 250.545 166.191 252.129 166.191 254.625C166.191 257.925 164.115 259.377 161.163 259.917L160.599 259.053C163.179 258.657 165.195 257.625 165.195 254.637C165.195 252.765 164.571 251.421 163.311 251.421C161.835 251.421 160.467 253.569 160.323 255.129C160.263 255.585 160.263 255.993 160.347 256.581L159.411 256.653C159.351 256.209 159.291 255.537 159.291 254.769C159.291 253.641 159.507 251.889 159.651 250.929C159.699 250.557 159.735 250.197 159.747 249.909Z" fill="#1E252C"/>
<path d="M45.7797 105.46H51.0597V106.348H40.3677V105.46H44.8437V96.148H45.7797V99.82H50.2437V100.708H45.7797V105.46ZM62.7477 96.556V99.388H56.7717V96.556H57.5877V98.596H59.2437V95.98H60.0957V98.596H61.9077V96.556H62.7477ZM56.1357 98.356V99.16H52.3677V98.356H53.8797V96.112H54.6837V98.356H56.1357ZM53.8077 103.48L53.0757 103.6C53.0757 102.556 52.8837 100.96 52.6437 99.736L53.3157 99.628C53.5917 100.864 53.7957 102.436 53.8077 103.48ZM55.0797 103.864L56.3397 103.588L56.4357 104.356C55.0077 104.716 53.4957 105.076 52.3557 105.364L52.1397 104.476C52.8357 104.356 53.7357 104.164 54.6957 103.948L54.3717 103.864C54.6237 102.748 54.9117 100.852 55.0197 99.532L55.8477 99.712C55.6437 101.032 55.3437 102.748 55.0797 103.864ZM63.1677 101.08H60.1557C60.0357 101.464 59.9157 101.86 59.7957 102.196H62.9157V106.084C62.9157 106.456 62.8557 106.672 62.6157 106.78C62.3517 106.912 62.0277 106.924 61.4997 106.924C61.4637 106.708 61.3437 106.408 61.2357 106.204C61.5717 106.216 61.8837 106.216 61.9797 106.204C62.0877 106.204 62.1117 106.18 62.1117 106.072V102.964H60.9957V106.756H60.2997V102.964H59.1837V106.78H58.4877V102.964H57.4197V106.9H56.6277V102.196H58.9317C59.0157 101.86 59.0997 101.452 59.1597 101.08H56.2437V100.288H63.1677V101.08ZM67.6557 98.308H70.7637V96.1H71.6637V98.308H74.9397V99.148H67.6557V98.308ZM70.4157 104.764L69.5397 104.956C69.4557 103.756 69.0837 101.68 68.6517 100.096L69.4437 99.952C69.8997 101.536 70.3077 103.576 70.4157 104.764ZM67.0557 95.992L67.8837 96.256C67.5477 97.096 67.1277 97.936 66.6597 98.728V106.876H65.8197V100.012C65.3997 100.588 64.9557 101.128 64.4997 101.572C64.4037 101.368 64.1397 100.912 63.9837 100.696C65.1957 99.568 66.3597 97.804 67.0557 95.992ZM72.3717 105.52H75.2397V106.36H67.3677V105.52H71.5077C72.0597 104.008 72.6837 101.584 72.9957 99.844L73.9557 100.012C73.5477 101.788 72.9237 104.032 72.3717 105.52ZM80.6997 97.108V98.176H82.6557V97.108H80.6997ZM79.8717 98.176V97.108H77.9637V98.176H79.8717ZM83.4837 97.108V98.176H85.4997V97.108H83.4837ZM85.0197 102.088V101.44H80.1597V102.088H85.0197ZM85.0197 103.276V102.616H80.1597V103.276H85.0197ZM85.0197 104.488V103.816H80.1597V104.488H85.0197ZM79.3317 100.888H81.1197C81.1557 100.672 81.2037 100.432 81.2397 100.192H76.5717V99.484H81.3477C81.3717 99.268 81.3957 99.04 81.4197 98.836H77.1237V96.46H86.3757V98.836H82.3197C82.2837 99.04 82.2597 99.268 82.2237 99.484H86.8677V100.192H82.1037C82.0677 100.444 82.0197 100.672 81.9837 100.888H85.8717V105.028H79.3317V100.888ZM87.1677 105.7V106.42H78.1197V106.924H77.2317V101.068H78.1197V105.7H87.1677Z" fill="#1E252C"/>
<line x1="100.569" y1="97.3008" x2="100.569" y2="134.631" stroke="#1E252C" stroke-width="0.764743"/>
<line x1="172.967" y1="224.016" x2="172.967" y2="245.509" stroke="#1E252C" stroke-width="0.764743"/>
<line x1="152.605" y1="227.408" x2="152.605" y2="245.508" stroke="#1E252C" stroke-width="0.764743"/>
<line x1="94.53" y1="105.969" x2="148.062" y2="105.969" stroke="#1E252C" stroke-width="0.764743"/>
<line x1="94.53" y1="96.9184" x2="148.062" y2="96.9184" stroke="#1E252C" stroke-width="0.764743"/>
<line x1="95.6613" y1="134.248" x2="149.193" y2="134.248" stroke="#1E252C" stroke-width="0.764743"/>
<line x1="152.223" y1="239.469" x2="173.716" y2="239.469" stroke="#1E252C" stroke-width="0.764743"/>
<rect x="160.641" y="102.342" width="25.0183" height="121.173" stroke="#CE2C3F" stroke-dasharray="2.09 2.09"/>
<path d="M201.208 161.364H197.008C198.004 163.416 199.732 165.324 201.616 166.236C201.4 166.416 201.088 166.764 200.956 167.016C199.144 166.02 197.536 164.196 196.456 162.12V165.792H198.736V166.68H196.456V168.912H195.532V166.68H193.192V165.792H195.532V162.12C194.428 164.196 192.808 166.008 191.044 167.028C190.912 166.812 190.612 166.476 190.408 166.308C192.232 165.36 193.972 163.416 194.98 161.364H190.816V160.476H195.532V157.968H196.456V160.476H201.208V161.364ZM207.256 158.196L208.036 158.52C207.688 159.072 207.28 159.672 206.968 160.068L206.368 159.78C206.656 159.36 207.064 158.664 207.256 158.196ZM204.484 159.78L203.776 160.092C203.668 159.672 203.356 159.012 203.032 158.52L203.704 158.244C204.04 158.724 204.364 159.36 204.484 159.78ZM209.74 160.992L209.728 161.028C209.956 162.408 210.292 163.704 210.772 164.82C211.288 163.752 211.612 162.48 211.828 160.992H209.74ZM206.464 165.06H204.784C204.616 165.396 204.436 165.72 204.28 166.032C204.76 166.224 205.24 166.44 205.708 166.668C206.068 166.236 206.308 165.708 206.464 165.06ZM213.472 160.992H212.752C212.452 162.936 211.996 164.52 211.264 165.804C211.864 166.836 212.62 167.652 213.58 168.156C213.376 168.324 213.088 168.672 212.968 168.912C212.044 168.372 211.312 167.604 210.724 166.644C210.016 167.58 209.116 168.348 207.94 168.948C207.868 168.792 207.712 168.528 207.556 168.324L207.28 168.612C206.908 168.312 206.428 167.988 205.876 167.664C205.18 168.24 204.232 168.636 202.948 168.912C202.888 168.672 202.708 168.348 202.54 168.18C203.644 167.988 204.484 167.688 205.096 167.244C204.712 167.052 204.316 166.86 203.92 166.692L203.728 167.028L202.96 166.752C203.224 166.296 203.548 165.684 203.872 165.06H202.516V164.316H204.244C204.424 163.956 204.592 163.608 204.736 163.284L205.048 163.356V161.7C204.448 162.408 203.68 163.068 202.948 163.464C202.84 163.26 202.624 162.948 202.456 162.792C203.308 162.408 204.22 161.664 204.808 160.884H202.588V160.152H205.048V157.956H205.876V160.152H208.312V160.884H205.876V160.944C206.392 161.244 207.688 162.06 208.012 162.3L207.52 162.936C207.208 162.648 206.452 162.072 205.876 161.64V163.428H205.36L205.564 163.476C205.432 163.74 205.3 164.028 205.156 164.316H208.36V165.06H207.316C207.148 165.864 206.872 166.524 206.464 167.064C206.992 167.352 207.472 167.664 207.844 167.94C208.864 167.376 209.656 166.656 210.244 165.756C209.788 164.784 209.44 163.668 209.164 162.444C208.912 163.008 208.612 163.512 208.288 163.944C208.156 163.776 207.772 163.476 207.568 163.332C208.576 162.072 209.2 160.068 209.524 157.956L210.436 158.088C210.316 158.796 210.16 159.492 209.992 160.152H213.472V160.992ZM217.108 161.952V162.24C217.108 162.78 217.096 163.32 217.06 163.86H222.952V168.912H222.004V164.772H216.964C216.772 166.272 216.304 167.724 215.2 168.936C215.056 168.72 214.72 168.396 214.516 168.24C216.028 166.548 216.196 164.34 216.196 162.252V158.28H217.108V161.052H220.504V157.98H221.44V161.052H224.8V161.952H217.108Z" fill="#CE2C3F"/>
</svg>
