<svg width="360" height="328" viewBox="0 0 360 328" fill="none" xmlns="http://www.w3.org/2000/svg">
<rect width="360" height="328" fill="white"/>
<rect x="312.434" y="96.7909" width="134.637" height="159.569" transform="rotate(90 312.434 96.7909)" fill="#D9D9D9"/>
<path d="M152.979 96.9632C152.979 75.7556 161.404 55.4167 176.4 40.4207C191.396 25.4247 211.735 17 232.943 17C254.15 17 274.489 25.4247 289.485 40.4207C304.481 55.4167 312.906 75.7556 312.906 96.9632L232.943 96.9632L152.979 96.9632Z" fill="#D9D9D9"/>
<path d="M172.364 97.4476C172.364 82.024 178.491 67.232 189.398 56.3258C200.304 45.4196 215.096 39.2926 230.519 39.2926C245.943 39.2926 260.735 45.4196 271.641 56.3258C282.548 67.232 289.159 82.024 289.159 97.4477" stroke="black" stroke-width="0.484625" stroke-dasharray="1.94 1.94"/>
<path d="M191.749 97.4478C191.749 87.4224 195.817 77.8076 203.058 70.7186C210.298 63.6295 220.119 59.647 230.358 59.647C240.598 59.647 250.419 63.6295 257.659 70.7186C264.9 77.8076 269.289 87.4224 269.289 97.4478" stroke="black" stroke-width="0.484625" stroke-dasharray="1.94 1.94"/>
<line x1="288.99" y1="96.7909" x2="288.99" y2="231.427" stroke="black" stroke-width="0.484625" stroke-dasharray="1.94 1.94"/>
<line x1="172.626" y1="97.3173" x2="172.626" y2="231.954" stroke="black" stroke-width="0.484625" stroke-dasharray="1.94 1.94"/>
<circle cx="198.535" cy="48.9853" r="3.877" transform="rotate(90 198.535 48.9853)" fill="white"/>
<circle cx="263.474" cy="48.9853" r="3.877" transform="rotate(90 263.474 48.9853)" fill="white"/>
<circle cx="178.181" cy="73.2165" r="3.877" transform="rotate(90 178.181 73.2165)" fill="white"/>
<circle cx="283.829" cy="73.2166" r="3.877" transform="rotate(90 283.829 73.2166)" fill="white"/>
<circle cx="230.519" cy="39.2925" r="3.877" transform="rotate(90 230.519 39.2925)" fill="white"/>
<circle cx="230.519" cy="59.647" r="3.877" transform="rotate(90 230.519 59.647)" fill="white"/>
<circle cx="199.503" cy="75.155" r="3.877" transform="rotate(90 199.503 75.155)" fill="white"/>
<circle cx="261.536" cy="75.155" r="3.877" transform="rotate(90 261.536 75.155)" fill="white"/>
<circle cx="173.068" cy="107.667" r="3.877" transform="rotate(90 173.068 107.667)" fill="#1E252C"/>
<circle cx="173.068" cy="218.467" r="3.877" transform="rotate(90 173.068 218.467)" fill="#1E252C"/>
<circle cx="173.068" cy="163.067" r="3.877" transform="rotate(90 173.068 163.067)" fill="#1E252C"/>
<circle cx="173.068" cy="135.367" r="3.877" transform="rotate(90 173.068 135.367)" fill="#1E252C"/>
<circle cx="173.068" cy="190.767" r="3.877" transform="rotate(90 173.068 190.767)" fill="#1E252C"/>
<circle cx="288.885" cy="106.901" r="3.877" transform="rotate(90 288.885 106.901)" fill="#1E252C"/>
<circle cx="288.885" cy="217.702" r="3.877" transform="rotate(90 288.885 217.702)" fill="#1E252C"/>
<circle cx="288.885" cy="162.302" r="3.877" transform="rotate(90 288.885 162.302)" fill="#1E252C"/>
<circle cx="288.885" cy="134.601" r="3.877" transform="rotate(90 288.885 134.601)" fill="#1E252C"/>
<circle cx="288.885" cy="190.002" r="3.877" transform="rotate(90 288.885 190.002)" fill="#1E252C"/>
<path d="M152.428 230.359C152.428 251.567 160.853 271.906 175.849 286.902C190.845 301.898 211.184 310.322 232.391 310.322C253.599 310.322 273.938 301.898 288.934 286.902C303.93 271.906 312.354 251.567 312.354 230.359L232.391 230.359L152.428 230.359Z" fill="#D9D9D9"/>
<path d="M171.813 229.875C171.813 245.298 177.94 260.09 188.846 270.997C199.753 281.903 214.545 288.03 229.968 288.03C245.392 288.03 260.184 281.903 271.09 270.997C281.996 260.09 288.608 245.298 288.608 229.875" stroke="black" stroke-width="0.484625" stroke-dasharray="1.94 1.94"/>
<path d="M191.198 229.875C191.198 239.9 195.266 249.515 202.507 256.604C209.747 263.693 219.568 267.676 229.807 267.676C240.047 267.676 249.868 263.693 257.108 256.604C264.349 249.515 268.738 239.9 268.738 229.875" stroke="black" stroke-width="0.484625" stroke-dasharray="1.94 1.94"/>
<circle cx="3.877" cy="3.877" r="3.877" transform="matrix(-4.37114e-08 -1 -1 4.37114e-08 201.86 282.214)" fill="white"/>
<circle cx="3.877" cy="3.877" r="3.877" transform="matrix(-4.37114e-08 -1 -1 4.37114e-08 266.8 282.214)" fill="white"/>
<circle cx="3.877" cy="3.877" r="3.877" transform="matrix(-4.37114e-08 -1 -1 4.37114e-08 181.506 257.983)" fill="white"/>
<circle cx="3.877" cy="3.877" r="3.877" transform="matrix(-4.37114e-08 -1 -1 4.37114e-08 287.155 257.983)" fill="white"/>
<circle cx="3.877" cy="3.877" r="3.877" transform="matrix(-4.37114e-08 -1 -1 4.37114e-08 233.845 291.907)" fill="white"/>
<circle cx="3.877" cy="3.877" r="3.877" transform="matrix(-4.37114e-08 -1 -1 4.37114e-08 233.845 271.553)" fill="white"/>
<circle cx="3.877" cy="3.877" r="3.877" transform="matrix(-4.37114e-08 -1 -1 4.37114e-08 202.829 256.045)" fill="white"/>
<circle cx="3.877" cy="3.877" r="3.877" transform="matrix(-4.37114e-08 -1 -1 4.37114e-08 264.862 256.045)" fill="white"/>
<line x1="144.304" y1="97.0578" x2="316.831" y2="97.0578" stroke="black" stroke-width="0.486429" stroke-dasharray="1.94 1.94"/>
<line x1="144.304" y1="229.412" x2="316.831" y2="229.412" stroke="black" stroke-width="0.486429" stroke-dasharray="1.94 1.94"/>
<path d="M61.176 123.276H64.812V123.972H61.176V123.276ZM61.128 121.464H65.22V125.844H61.128V125.136H64.38V122.172H61.128V121.464ZM60.744 121.464H61.56V126.456H60.744V121.464ZM58.524 118.14H61.86V118.8H58.524V118.14ZM64.056 118.14H67.464V118.8H64.056V118.14ZM67.08 116.436H67.992V125.772C67.992 126.052 67.952 126.272 67.872 126.432C67.8 126.592 67.664 126.712 67.464 126.792C67.272 126.872 67.008 126.92 66.672 126.936C66.344 126.952 65.932 126.96 65.436 126.96C65.42 126.872 65.396 126.772 65.364 126.66C65.332 126.548 65.292 126.436 65.244 126.324C65.204 126.212 65.164 126.116 65.124 126.036C65.364 126.044 65.596 126.048 65.82 126.048C66.052 126.048 66.256 126.048 66.432 126.048C66.608 126.048 66.732 126.048 66.804 126.048C66.908 126.04 66.98 126.016 67.02 125.976C67.06 125.936 67.08 125.864 67.08 125.76V116.436ZM58.596 116.436H62.436V120.552H58.596V119.868H61.596V117.132H58.596V116.436ZM67.536 116.436V117.132H64.38V119.88H67.536V120.576H63.528V116.436H67.536ZM58.08 116.436H58.98V126.972H58.08V116.436ZM76.464 124.308H77.208V126.72H76.464V124.308ZM75.156 118.644V119.892H78.612V118.644H75.156ZM74.304 117.996H79.524V120.54H74.304V117.996ZM73.62 116.568H80.256V117.324H73.62V116.568ZM75.096 124.14H78.672V124.788H75.096V124.14ZM73.536 121.248H79.812V121.968H74.352V126.96H73.536V121.248ZM79.368 121.248H80.196V126.036C80.196 126.236 80.172 126.396 80.124 126.516C80.076 126.636 79.98 126.732 79.836 126.804C79.692 126.868 79.508 126.904 79.284 126.912C79.06 126.928 78.78 126.936 78.444 126.936C78.428 126.832 78.392 126.708 78.336 126.564C78.288 126.42 78.236 126.292 78.18 126.18C78.412 126.188 78.62 126.192 78.804 126.192C78.996 126.192 79.124 126.192 79.188 126.192C79.308 126.192 79.368 126.136 79.368 126.024V121.248ZM77.256 121.488H77.856V122.772C77.856 122.868 77.872 122.928 77.904 122.952C77.944 122.976 78.032 122.988 78.168 122.988C78.208 122.988 78.292 122.988 78.42 122.988C78.548 122.988 78.68 122.988 78.816 122.988C78.952 122.988 79.044 122.988 79.092 122.988C79.188 122.988 79.252 122.984 79.284 122.976C79.316 122.968 79.336 122.956 79.344 122.94C79.4 122.988 79.48 123.032 79.584 123.072C79.688 123.104 79.788 123.132 79.884 123.156C79.852 123.3 79.784 123.404 79.68 123.468C79.576 123.524 79.416 123.552 79.2 123.552C79.168 123.552 79.1 123.552 78.996 123.552C78.892 123.552 78.776 123.552 78.648 123.552C78.528 123.552 78.416 123.552 78.312 123.552C78.208 123.552 78.14 123.552 78.108 123.552C77.772 123.552 77.544 123.5 77.424 123.396C77.312 123.292 77.256 123.084 77.256 122.772V121.488ZM75.816 121.572H76.44C76.416 121.98 76.348 122.336 76.236 122.64C76.132 122.936 75.964 123.188 75.732 123.396C75.5 123.596 75.176 123.764 74.76 123.9C74.728 123.82 74.676 123.732 74.604 123.636C74.532 123.54 74.464 123.468 74.4 123.42C74.752 123.316 75.024 123.188 75.216 123.036C75.416 122.876 75.56 122.676 75.648 122.436C75.736 122.196 75.792 121.908 75.816 121.572ZM69.96 116.436H72.588V117.252H70.752V126.96H69.96V116.436ZM72.372 116.436H72.528L72.66 116.4L73.236 116.748C73.132 117.076 73.016 117.424 72.888 117.792C72.768 118.16 72.64 118.528 72.504 118.896C72.376 119.264 72.248 119.612 72.12 119.94C72.528 120.436 72.796 120.9 72.924 121.332C73.06 121.764 73.128 122.168 73.128 122.544C73.136 122.856 73.1 123.136 73.02 123.384C72.948 123.624 72.832 123.804 72.672 123.924C72.52 124.028 72.32 124.096 72.072 124.128C71.968 124.136 71.848 124.144 71.712 124.152C71.584 124.16 71.456 124.16 71.328 124.152C71.328 124.04 71.308 123.908 71.268 123.756C71.236 123.604 71.188 123.472 71.124 123.36C71.244 123.368 71.356 123.376 71.46 123.384C71.572 123.384 71.668 123.38 71.748 123.372C71.9 123.372 72.02 123.34 72.108 123.276C72.188 123.204 72.244 123.092 72.276 122.94C72.316 122.788 72.336 122.624 72.336 122.448C72.328 122.12 72.256 121.756 72.12 121.356C71.992 120.948 71.728 120.508 71.328 120.036C71.424 119.764 71.52 119.476 71.616 119.172C71.72 118.86 71.816 118.556 71.904 118.26C72 117.956 72.088 117.668 72.168 117.396C72.248 117.124 72.316 116.888 72.372 116.688V116.436Z" fill="#1E252C"/>
<path d="M115.299 252.273V250.785H113.427V252.273H115.299ZM115.299 254.457V252.969H113.427V254.457H115.299ZM115.299 256.665V255.153H113.427V256.665H115.299ZM116.103 250.053V257.409H112.647V250.053H116.103ZM111.531 249.405L112.359 249.633C112.095 250.425 111.783 251.217 111.423 251.973V260.289H110.571V253.569C110.211 254.169 109.839 254.709 109.443 255.177C109.359 254.961 109.119 254.493 108.975 254.277C110.007 253.077 110.955 251.253 111.531 249.405ZM113.343 257.661L114.123 258.033C113.715 258.789 113.079 259.677 112.515 260.217C112.371 260.085 112.059 259.845 111.879 259.713C112.455 259.197 113.055 258.321 113.343 257.661ZM114.735 257.997L115.383 257.649C115.791 258.261 116.259 259.065 116.463 259.569L115.767 259.977C115.587 259.461 115.131 258.621 114.735 257.997ZM117.831 250.569V257.589H117.039V250.569H117.831ZM119.043 249.501H119.847V259.221C119.847 259.737 119.727 260.001 119.415 260.133C119.115 260.277 118.587 260.301 117.747 260.301C117.723 260.073 117.603 259.689 117.483 259.461C118.095 259.485 118.623 259.473 118.803 259.473C118.971 259.473 119.043 259.413 119.043 259.233V249.501ZM121.935 259.149L121.131 258.669C121.947 257.817 122.391 256.389 122.619 255.093L123.459 255.309C123.207 256.665 122.787 258.213 121.935 259.149ZM125.127 253.065H124.239V251.757H121.515V250.893H124.239V249.333H125.127V250.893H128.283V249.333H129.171V250.893H131.907V251.757H129.171V253.065H128.283V251.757H125.127V253.065ZM125.175 253.449L125.799 252.933C126.795 253.461 127.959 254.301 128.511 254.949L127.839 255.537C127.323 254.889 126.171 254.013 125.175 253.449ZM125.979 259.185H128.163C128.751 259.185 128.835 258.921 128.907 257.349C129.111 257.493 129.495 257.649 129.747 257.709C129.627 259.557 129.351 260.037 128.199 260.037H125.919C124.671 260.037 124.347 259.749 124.347 258.681V254.613H125.235V258.681C125.235 259.089 125.343 259.185 125.979 259.185ZM129.399 255.189L130.179 254.841C131.079 255.945 131.991 257.433 132.315 258.441L131.475 258.849C131.163 257.841 130.275 256.317 129.399 255.189ZM136.863 249.933L137.979 250.053C137.931 250.269 137.883 250.521 137.835 250.749C137.775 251.097 137.667 251.793 137.535 252.429C138.087 252.393 138.579 252.357 138.867 252.357C139.923 252.357 140.799 252.765 140.799 254.373C140.799 255.789 140.595 257.661 140.103 258.657C139.731 259.449 139.143 259.653 138.363 259.653C137.919 259.653 137.343 259.557 136.971 259.473L136.815 258.465C137.307 258.621 137.943 258.729 138.267 258.729C138.711 258.729 139.059 258.633 139.311 258.117C139.683 257.313 139.863 255.777 139.863 254.481C139.863 253.401 139.371 253.209 138.615 253.209C138.327 253.209 137.859 253.245 137.343 253.293C136.911 254.997 136.107 257.661 134.847 259.677L133.863 259.281C135.075 257.661 135.963 254.973 136.359 253.389C135.747 253.449 135.171 253.509 134.859 253.545C134.583 253.581 134.103 253.641 133.791 253.689L133.695 252.645C134.067 252.669 134.379 252.657 134.751 252.645C135.147 252.633 135.843 252.573 136.563 252.513C136.731 251.661 136.863 250.737 136.863 249.933ZM141.183 251.697L142.071 251.313C142.815 252.273 143.835 254.457 144.243 255.561L143.307 256.005C142.959 254.781 142.023 252.693 141.183 251.697ZM153.891 251.397C154.203 251.841 154.635 252.573 154.875 253.065L154.227 253.353C153.999 252.861 153.579 252.141 153.255 251.673L153.891 251.397ZM155.211 250.917C155.547 251.361 156.003 252.117 156.231 252.561L155.583 252.849C155.319 252.333 154.935 251.649 154.587 251.193L155.211 250.917ZM151.095 253.473L150.483 252.897C150.795 252.705 151.131 252.453 151.299 252.309C150.783 251.889 149.679 251.301 148.767 250.929L149.331 250.221C150.243 250.605 151.551 251.253 152.259 251.781L152.487 252.405C152.199 252.645 151.527 253.161 151.095 253.473ZM148.335 259.581L148.191 258.573C148.803 258.753 149.367 258.849 150.111 258.849C150.663 258.849 151.311 258.633 151.311 257.865C151.311 257.061 150.435 255.969 149.787 255.261C149.523 254.997 149.163 254.661 148.827 254.373L149.559 253.749C149.847 254.049 150.147 254.373 150.423 254.673C151.539 255.837 152.319 256.893 152.319 257.961C152.319 259.425 151.131 259.761 150.267 259.761C149.511 259.761 148.863 259.677 148.335 259.581ZM155.931 258.549L155.043 259.029C154.707 257.901 153.867 256.209 153.051 255.273L153.855 254.841C154.671 255.801 155.559 257.493 155.931 258.549ZM148.611 256.713C147.915 257.433 146.727 258.441 145.575 259.125L144.999 258.321C145.983 257.793 147.363 256.737 148.035 255.993L148.611 256.713ZM159.747 249.909L160.803 249.945C160.551 250.821 160.323 252.417 160.251 253.245C160.719 252.021 161.967 250.545 163.467 250.545C165.051 250.545 166.191 252.129 166.191 254.625C166.191 257.925 164.115 259.377 161.163 259.917L160.599 259.053C163.179 258.657 165.195 257.625 165.195 254.637C165.195 252.765 164.571 251.421 163.311 251.421C161.835 251.421 160.467 253.569 160.323 255.129C160.263 255.585 160.263 255.993 160.347 256.581L159.411 256.653C159.351 256.209 159.291 255.537 159.291 254.769C159.291 253.641 159.507 251.889 159.651 250.929C159.699 250.557 159.735 250.197 159.747 249.909Z" fill="#1E252C"/>
<path d="M45.7797 105.46H51.0597V106.348H40.3677V105.46H44.8437V96.148H45.7797V99.82H50.2437V100.708H45.7797V105.46ZM62.7477 96.556V99.388H56.7717V96.556H57.5877V98.596H59.2437V95.98H60.0957V98.596H61.9077V96.556H62.7477ZM56.1357 98.356V99.16H52.3677V98.356H53.8797V96.112H54.6837V98.356H56.1357ZM53.8077 103.48L53.0757 103.6C53.0757 102.556 52.8837 100.96 52.6437 99.736L53.3157 99.628C53.5917 100.864 53.7957 102.436 53.8077 103.48ZM55.0797 103.864L56.3397 103.588L56.4357 104.356C55.0077 104.716 53.4957 105.076 52.3557 105.364L52.1397 104.476C52.8357 104.356 53.7357 104.164 54.6957 103.948L54.3717 103.864C54.6237 102.748 54.9117 100.852 55.0197 99.532L55.8477 99.712C55.6437 101.032 55.3437 102.748 55.0797 103.864ZM63.1677 101.08H60.1557C60.0357 101.464 59.9157 101.86 59.7957 102.196H62.9157V106.084C62.9157 106.456 62.8557 106.672 62.6157 106.78C62.3517 106.912 62.0277 106.924 61.4997 106.924C61.4637 106.708 61.3437 106.408 61.2357 106.204C61.5717 106.216 61.8837 106.216 61.9797 106.204C62.0877 106.204 62.1117 106.18 62.1117 106.072V102.964H60.9957V106.756H60.2997V102.964H59.1837V106.78H58.4877V102.964H57.4197V106.9H56.6277V102.196H58.9317C59.0157 101.86 59.0997 101.452 59.1597 101.08H56.2437V100.288H63.1677V101.08ZM67.6557 98.308H70.7637V96.1H71.6637V98.308H74.9397V99.148H67.6557V98.308ZM70.4157 104.764L69.5397 104.956C69.4557 103.756 69.0837 101.68 68.6517 100.096L69.4437 99.952C69.8997 101.536 70.3077 103.576 70.4157 104.764ZM67.0557 95.992L67.8837 96.256C67.5477 97.096 67.1277 97.936 66.6597 98.728V106.876H65.8197V100.012C65.3997 100.588 64.9557 101.128 64.4997 101.572C64.4037 101.368 64.1397 100.912 63.9837 100.696C65.1957 99.568 66.3597 97.804 67.0557 95.992ZM72.3717 105.52H75.2397V106.36H67.3677V105.52H71.5077C72.0597 104.008 72.6837 101.584 72.9957 99.844L73.9557 100.012C73.5477 101.788 72.9237 104.032 72.3717 105.52ZM80.6997 97.108V98.176H82.6557V97.108H80.6997ZM79.8717 98.176V97.108H77.9637V98.176H79.8717ZM83.4837 97.108V98.176H85.4997V97.108H83.4837ZM85.0197 102.088V101.44H80.1597V102.088H85.0197ZM85.0197 103.276V102.616H80.1597V103.276H85.0197ZM85.0197 104.488V103.816H80.1597V104.488H85.0197ZM79.3317 100.888H81.1197C81.1557 100.672 81.2037 100.432 81.2397 100.192H76.5717V99.484H81.3477C81.3717 99.268 81.3957 99.04 81.4197 98.836H77.1237V96.46H86.3757V98.836H82.3197C82.2837 99.04 82.2597 99.268 82.2237 99.484H86.8677V100.192H82.1037C82.0677 100.444 82.0197 100.672 81.9837 100.888H85.8717V105.028H79.3317V100.888ZM87.1677 105.7V106.42H78.1197V106.924H77.2317V101.068H78.1197V105.7H87.1677Z" fill="#1E252C"/>
<line x1="100.568" y1="97.301" x2="100.568" y2="134.632" stroke="#1E252C" stroke-width="0.764743"/>
<line x1="172.967" y1="224.015" x2="172.967" y2="245.509" stroke="#1E252C" stroke-width="0.764743"/>
<line x1="152.605" y1="227.409" x2="152.605" y2="245.508" stroke="#1E252C" stroke-width="0.764743"/>
<line x1="94.53" y1="105.968" x2="148.062" y2="105.968" stroke="#1E252C" stroke-width="0.764743"/>
<line x1="94.53" y1="96.9187" x2="148.062" y2="96.9187" stroke="#1E252C" stroke-width="0.764743"/>
<line x1="95.6611" y1="134.249" x2="149.193" y2="134.249" stroke="#1E252C" stroke-width="0.764743"/>
<line x1="152.223" y1="239.47" x2="173.716" y2="239.47" stroke="#1E252C" stroke-width="0.764743"/>
<rect x="160.641" y="102.342" width="25.0183" height="121.173" stroke="#CE2C3F" stroke-dasharray="2.09 2.09"/>
<path d="M201.208 161.364H197.008C198.004 163.416 199.732 165.324 201.616 166.236C201.4 166.416 201.088 166.764 200.956 167.016C199.144 166.02 197.536 164.196 196.456 162.12V165.792H198.736V166.68H196.456V168.912H195.532V166.68H193.192V165.792H195.532V162.12C194.428 164.196 192.808 166.008 191.044 167.028C190.912 166.812 190.612 166.476 190.408 166.308C192.232 165.36 193.972 163.416 194.98 161.364H190.816V160.476H195.532V157.968H196.456V160.476H201.208V161.364ZM207.256 158.196L208.036 158.52C207.688 159.072 207.28 159.672 206.968 160.068L206.368 159.78C206.656 159.36 207.064 158.664 207.256 158.196ZM204.484 159.78L203.776 160.092C203.668 159.672 203.356 159.012 203.032 158.52L203.704 158.244C204.04 158.724 204.364 159.36 204.484 159.78ZM209.74 160.992L209.728 161.028C209.956 162.408 210.292 163.704 210.772 164.82C211.288 163.752 211.612 162.48 211.828 160.992H209.74ZM206.464 165.06H204.784C204.616 165.396 204.436 165.72 204.28 166.032C204.76 166.224 205.24 166.44 205.708 166.668C206.068 166.236 206.308 165.708 206.464 165.06ZM213.472 160.992H212.752C212.452 162.936 211.996 164.52 211.264 165.804C211.864 166.836 212.62 167.652 213.58 168.156C213.376 168.324 213.088 168.672 212.968 168.912C212.044 168.372 211.312 167.604 210.724 166.644C210.016 167.58 209.116 168.348 207.94 168.948C207.868 168.792 207.712 168.528 207.556 168.324L207.28 168.612C206.908 168.312 206.428 167.988 205.876 167.664C205.18 168.24 204.232 168.636 202.948 168.912C202.888 168.672 202.708 168.348 202.54 168.18C203.644 167.988 204.484 167.688 205.096 167.244C204.712 167.052 204.316 166.86 203.92 166.692L203.728 167.028L202.96 166.752C203.224 166.296 203.548 165.684 203.872 165.06H202.516V164.316H204.244C204.424 163.956 204.592 163.608 204.736 163.284L205.048 163.356V161.7C204.448 162.408 203.68 163.068 202.948 163.464C202.84 163.26 202.624 162.948 202.456 162.792C203.308 162.408 204.22 161.664 204.808 160.884H202.588V160.152H205.048V157.956H205.876V160.152H208.312V160.884H205.876V160.944C206.392 161.244 207.688 162.06 208.012 162.3L207.52 162.936C207.208 162.648 206.452 162.072 205.876 161.64V163.428H205.36L205.564 163.476C205.432 163.74 205.3 164.028 205.156 164.316H208.36V165.06H207.316C207.148 165.864 206.872 166.524 206.464 167.064C206.992 167.352 207.472 167.664 207.844 167.94C208.864 167.376 209.656 166.656 210.244 165.756C209.788 164.784 209.44 163.668 209.164 162.444C208.912 163.008 208.612 163.512 208.288 163.944C208.156 163.776 207.772 163.476 207.568 163.332C208.576 162.072 209.2 160.068 209.524 157.956L210.436 158.088C210.316 158.796 210.16 159.492 209.992 160.152H213.472V160.992ZM217.108 161.952V162.24C217.108 162.78 217.096 163.32 217.06 163.86H222.952V168.912H222.004V164.772H216.964C216.772 166.272 216.304 167.724 215.2 168.936C215.056 168.72 214.72 168.396 214.516 168.24C216.028 166.548 216.196 164.34 216.196 162.252V158.28H217.108V161.052H220.504V157.98H221.44V161.052H224.8V161.952H217.108Z" fill="#CE2C3F"/>
</svg>
